<svg xmlns="http://www.w3.org/2000/svg" id="Layer_1" x="0" y="0" viewBox="0 0 432 496" xml:space="preserve"><g class="nc-icon-wrapper"><path class="st0" d="M80 112h96v16H80z" style="" fill="#127a0d"></path><path class="st0" d="M376 496c-22.1 0-40-17.9-40-40 0-6.6 1.5-12.8 4.2-18.3l35.8-71.6 35.8 71.5c2.8 5.5 4.2 11.7 4.2 17.9 0 22.5-17.9 40.5-40 40.5z" style="" fill="#127a0d"></path><path class="st1" d="M416 312v-88c0-22.1-17.9-40-40-40H200v-40h-16v-34.8l114.6-50.1c8.2-3.6 13.4-11.6 13.4-20.5V22.4c0-14-13.4-25-27.4-21.8l-194 44.8C79.6 47.9 72 57.5 72 68.7V144H56v336H32v16h192v-16h-24V264h136v48c-8.8 0-16 7.2-16 16v16c0 8.8 7.2 16 16 16h80c8.8 0 16-7.2 16-16v-16c0-8.8-7.2-16-16-16zM88 68.7c0-3.8 2.5-7 6.2-7.8l194-44.8c4.1-.9 7.8 2.2 7.8 6.2v16.2c0 2.5-1.5 4.8-3.8 5.8L168 98.8V144H88V68.7zM336 248H184v232H72V160h112v40h192c13.2 0 24 10.8 24 24v88h-48v-48c0-8.8-7.2-16-16-16zm0 96v-16h80v16h-80z" style="" fill="#FFFFFF"></path><path class="st1" d="M88 176h16v16H88z" style="" fill="#FFFFFF"></path><path class="st1" d="M88 208h16v256H88z" style="" fill="#FFFFFF"></path><path class="st1" d="M0 480h16v16H0z" style="" fill="#FFFFFF"></path><path class="st1" d="M240 480h16v16h-16z" style="" fill="#FFFFFF"></path></g></svg>