<svg xmlns="http://www.w3.org/2000/svg" id="Layer_1" x="0" y="0" viewBox="0 0 496 496" xml:space="preserve"><g class="nc-icon-wrapper"><path class="st0" d="M299.2 224.2l-11.3-11.3 75.3-75.3c13.4-13.4 20.8-31.3 20.8-50.4 0-39.3-31.9-71.2-71.2-71.2-19 0-36.9 7.4-50.3 20.8L248 51.3l-14.5-14.5C220.1 23.4 202.2 16 183.2 16 143.9 16 112 47.9 112 87.2c0 19 7.4 36.9 20.8 50.3l75.3 75.3-11.3 11.3-75.3-75.3C105.1 132.4 96 110.5 96 87.2 96 39.1 135.1 0 183.2 0c23.3 0 45.2 9.1 61.7 25.5l3.2 3.2 3.2-3.2C267.6 9.1 289.5 0 312.8 0 360.9 0 400 39.1 400 87.2c0 23.3-9.1 45.2-25.5 61.7l-75.3 75.3z" style="" fill="#FFFFFF"></path><path class="st0" d="M301.7 176.4l-11.3-11.3 50.2-50.2c7.4-7.4 11.5-17.3 11.5-27.7 0-12.4-6-24.2-16-31.6l9.5-12.9c14.1 10.4 22.5 27 22.5 44.5 0 14.8-5.7 28.6-16.2 39l-50.2 50.2z" style="" fill="#FFFFFF"></path><path class="st0" d="M325.4 50.1c-3.8-1.3-8.9-2.1-13.4-2.1V32c6.3 0 13.1 1.1 18.6 2.9l-5.2 15.2z" style="" fill="#FFFFFF"></path><path class="st0" d="M96 400H72v-16h24c4.4 0 8-3.6 8-8s-3.6-8-8-8H72c-13.2 0-24-10.8-24-24s10.8-24 24-24h72v16H72c-4.4 0-8 3.6-8 8s3.6 8 8 8h24c13.2 0 24 10.8 24 24s-10.8 24-24 24z" style="" fill="#FFFFFF"></path><path class="st0" d="M200 496h-96c-13.2 0-24-10.8-24-24s10.8-24 24-24h32c4.4 0 8-3.6 8-8s-3.6-8-8-8H24c-13.2 0-24-10.8-24-24s10.8-24 24-24h32v16H24c-4.4 0-8 3.6-8 8s3.6 8 8 8h112c13.2 0 24 10.8 24 24s-10.8 24-24 24h-32c-4.4 0-8 3.6-8 8s3.6 8 8 8h96v16z" style="" fill="#FFFFFF"></path><path class="st0" d="M392 496H216v-16h176c4.4 0 8-3.6 8-8s-3.6-8-8-8h-32c-13.2 0-24-10.8-24-24s10.8-24 24-24h24v16h-24c-4.4 0-8 3.6-8 8s3.6 8 8 8h32c13.2 0 24 10.8 24 24s-10.8 24-24 24z" style="" fill="#FFFFFF"></path><path class="st0" d="M472 432h-72v-16h72c4.4 0 8-3.6 8-8s-3.6-8-8-8h-72c-13.2 0-24-10.8-24-24s10.8-24 24-24h24c4.4 0 8-3.6 8-8s-3.6-8-8-8h-72v-16h72c13.2 0 24 10.8 24 24s-10.8 24-24 24h-24c-4.4 0-8 3.6-8 8s3.6 8 8 8h72c13.2 0 24 10.8 24 24s-10.8 24-24 24z" style="" fill="#FFFFFF"></path><path class="st1" d="M248.1 448h-.3C186.2 448 136 397.8 136 336.1c0-22.6 6.8-44.5 19.5-63.2L248 137.8 340.5 273c12.8 18.7 19.5 40.5 19.5 63.2 0 61.6-50.2 111.8-111.9 111.8z" style="" fill="#02590f"></path><path class="st0" d="M272 376h-48v-24h-24v-48h24v-24h48v24h24v48h-24v24zm-32-16h16v-24h24v-16h-24v-24h-16v24h-24v16h24v24z" style="" fill="#FFFFFF"></path><path class="st0" d="M248.1 416l-.3-16c35.5 0 64.1-28.6 64.1-63.9 0-2.4-.1-4.8-.4-7.2l15.9-1.8c.4 3 .5 6 .5 9 .1 44.1-35.7 79.9-79.8 79.9z" style="" fill="#FFFFFF"></path><path class="st0" d="M308.3 314.7c-1.8-5.1-4.4-10.1-7.5-14.6l13.2-9c3.9 5.7 7 11.8 9.3 18.3l-15 5.3z" style="" fill="#FFFFFF"></path></g></svg>