<svg xmlns="http://www.w3.org/2000/svg" id="Layer_1" x="0" y="0" viewBox="0 0 496 496" xml:space="preserve"><g class="nc-icon-wrapper"><path class="st0" d="M224 391.8c0 14.3-4.2 28.1-12.1 39.9L192 461.6V496h16v-29.6l17.2-25.8c9.7-14.5 14.8-31.4 14.8-48.8V352h-16v39.8z" style="" fill="#FFFFFF"></path><path class="st0" d="M128 264h16v32h-16z" style="" fill="#FFFFFF"></path><path class="st0" d="M79.2 346.7l-11.7-70.3c-1.9-11.5-9.5-20.7-19.5-25.3V192c0-8.8 7.2-16 16-16s16 7.2 16 16v104h16V176c0-8.8 7.2-16 16-16s16 7.2 16 16h16c0-17.6-14.4-32-32-32-14 0-25.7 9-30.1 21.5C76.8 162 70.6 160 64 160c-17.6 0-32 14.4-32 32v56.2c-17.8 1-32 15.7-32 33.8v61.9c0 6.7 1.7 13.3 4.9 19.2L48 442v54h16v-58l-45.1-82.6c-1.9-3.5-2.9-7.5-2.9-11.5V282c0-9.9 8.1-18 18-18 8.8 0 16.3 6.3 17.7 15l13.1 78.3 48.9 24.5 14.9 37.2 14.9-5.9-17.1-42.8-47.2-23.6z" style="" fill="#FFFFFF"></path><path class="st0" d="M272 112.2c0-14.3 4.2-28.1 12.1-39.9L304 42.4V0h-16v37.6l-17.2 25.8c-9.7 14.5-14.8 31.4-14.8 48.8V168h16v-55.8z" style="" fill="#FFFFFF"></path><path class="st0" d="M491.1 141L448 62V0h-16v66l45.1 82.6c1.9 3.5 2.9 7.5 2.9 11.5V222c0 9.9-8.1 18-18 18-8.8 0-16.3-6.3-17.7-15l-13.1-78.3-48.9-24.5L367.4 85l-14.8 6 17.1 42.8 47.1 23.5 11.7 70.3c1.9 11.5 9.5 20.7 19.5 25.3V312c0 8.8-7.2 16-16 16s-16-7.2-16-16V208h-16v120c0 8.8-7.2 16-16 16s-16-7.2-16-16v-64h-16v48c0 8.8-7.2 16-16 16s-16-7.2-16-16h-16c0 17.6 14.4 32 32 32 6.6 0 12.8-2 17.9-5.5C358.3 351 370 360 384 360s25.7-9 30.1-21.5c5.1 3.5 11.3 5.5 17.9 5.5 17.6 0 32-14.4 32-32v-56.2c17.8-1 32-15.7 32-33.8v-61.9c0-6.6-1.7-13.2-4.9-19.1z" style="" fill="#FFFFFF"></path><path class="st1" d="M248 360c-17.6 0-34.2-6.9-46.6-19.3l-67.2-67.2c-14.3-14.3-22.2-33.4-22.2-53.7 0-41.8 34-75.9 75.9-75.9 20.3 0 39.3 7.9 53.7 22.2l6.5 6.5 6.5-6.5c14.3-14.3 33.4-22.2 53.7-22.2 41.8 0 75.9 34 75.9 75.9 0 20.3-7.9 39.3-22.2 53.7l-67.2 67.2C282.2 353.1 265.6 360 248 360z" style="" fill="#02590f"></path><g><path class="st0" d="M213.1 284.5l-44.9-44.9c-5.3-5.3-8.2-12.3-8.2-19.7 0-15.4 12.5-27.9 27.9-27.9v-16c-24.2 0-43.9 19.7-43.9 43.9 0 11.7 4.6 22.7 12.8 31l44.9 44.9 11.4-11.3z" style="" fill="#FFFFFF"></path><path transform="rotate(-45.001 224.004 306.776)" class="st0" d="M216 298.7h16v16.1h-16z" style="" fill="#FFFFFF"></path><path class="st0" d="M208 80h16v16h-16z" style="" fill="#FFFFFF"></path><path class="st0" d="M208 112h16v16h-16z" style="" fill="#FFFFFF"></path><path class="st0" d="M224 96h16v16h-16z" style="" fill="#FFFFFF"></path><path class="st0" d="M192 96h16v16h-16z" style="" fill="#FFFFFF"></path><path class="st0" d="M272 376h16v16h-16z" style="" fill="#FFFFFF"></path><path class="st0" d="M272 408h16v16h-16z" style="" fill="#FFFFFF"></path><path class="st0" d="M288 392h16v16h-16z" style="" fill="#FFFFFF"></path><path class="st0" d="M256 392h16v16h-16z" style="" fill="#FFFFFF"></path><path class="st0" d="M296 192h16v16h-16z" style="" fill="#FFFFFF"></path><path class="st0" d="M296 224h16v16h-16z" style="" fill="#FFFFFF"></path><path class="st0" d="M312 208h16v16h-16z" style="" fill="#FFFFFF"></path><path class="st0" d="M280 208h16v16h-16z" style="" fill="#FFFFFF"></path></g></g></svg>