<svg xmlns="http://www.w3.org/2000/svg" id="Layer_1" x="0" y="0" viewBox="0 0 511 511" xml:space="preserve"><g class="nc-icon-wrapper"><path class="st0" d="M150.5 255.8h62.4L208 282l66.4-13.6.9 56.9H150.5v-69.5z" style="" fill="#02590f"></path><path class="st0" d="M220.2 340.6h121.6v69.6H220.2v-69.6z" style="" fill="#02590f"></path><path class="st0" d="M407.7 67.8l75.9-56.6L501.4 35l-75.9 56.6-17.8-23.8z" style="" fill="#02590f"></path><path class="st0" d="M151.5 426.1h121.6v69.6H151.5v-69.6z" style="" fill="#02590f"></path><path class="st1" d="M8.5 512h408.8c4.7 0 8.5-3.8 8.5-8.5v-76.7h59.6c4.7 0 8.5-3.8 8.5-8.5v-85.2c0-4.7-3.8-8.5-8.5-8.5h-59.6V248c0-4.7-3.8-8.5-8.5-8.5h-15.6c1.2-5.6-.1-11.4-3.5-15.9l-38.5-51.3 17.8-13.3c7.9-5.9 12.3-15.4 11.7-25.2l-.9-15.3c-.2-4.2 1.6-8.2 5-10.7l17.8-13.3 7.5 10c1.4 1.8 3.4 3 5.6 3.3.4.1.8.1 1.2.1 1.8 0 3.6-.6 5.1-1.7l70.3-52.7c11.3-8.5 13.6-24.5 5.1-35.8l-4.7-6.3C492.7.1 476.7-2.2 465.4 6.3L395.1 59c-3.8 2.8-4.5 8.2-1.7 11.9l7.5 10L383.1 94c-7.9 5.9-12.3 15.4-11.7 25.2l.8 15.3c.2 4.2-1.6 8.2-5 10.7l-17.8 13.3-38.4-51.2c-4-5.5-10.6-8.5-17.3-8-6.5.5-12.2 4.2-15.3 9.9l-70 130.2H8.5c-4.7 0-8.5 3.8-8.5 8.5v85.2c0 4.7 3.8 8.5 8.5 8.5h59.6v68.1H8.5c-4.7 0-8.5 3.8-8.5 8.5v85.2c0 4.8 3.8 8.6 8.5 8.6zM475.6 19.7c3.8-2.8 9.1-2.1 11.9 1.7l4.7 6.3c2.8 3.8 2.1 9.1-1.7 11.9L427 87.2l-15-19.9 63.6-47.6zM153.3 426.8h119.2V495H153.3v-68.2zm68.1-85.1h119.2v68.1H221.4v-68.1zM408.8 495H289.6v-68.1h119.2V495zm68.1-85.2H357.7v-68.1h119.2v68.1zm-68.1-85.2H289.6V275l87.2-18.5h32.1v68.1zM293.4 117.3c.3-.6.9-1 1.6-1h.2c.9 0 1.7.5 2.3 1.2l38.5 51.3-35.1 26.4c-3.8 2.8-4.5 8.2-1.7 11.9 2.8 3.8 8.2 4.5 11.9 1.7l35.1-26.4 38.5 51.3c.6.7.8 1.8.5 2.7-.2.6-.7 1.1-1.4 1.2l-169 35.9c-1 .2-2.1-.3-2.7-1.2-.7-.8-.8-2-.4-2.9l81.7-152.1zm-95 165.3c4.5 6.2 12.3 9.2 19.9 7.6l54.3-11.5v46H153.3v-68.1h46l-2.6 4.9c-3.7 6.7-3 15 1.7 21.1zm-181.4 8h17c4.7 0 8.5-3.8 8.5-8.5s-3.8-8.5-8.5-8.5H17v-17h119.2v68.1H17v-34.1zm68.2 51.1h119.2v68.1H85.2v-68.1zM17 426.8h119.2V495H17v-68.2z" style="" fill="#FFFFFF"></path><path class="st1" d="M110.7 282c0-4.7-3.8-8.5-8.5-8.5H68.1c-4.7 0-8.5 3.8-8.5 8.5s3.8 8.5 8.5 8.5h34.1c4.7.1 8.5-3.8 8.5-8.5z" style="" fill="#FFFFFF"></path></g></svg>