<?xml version="1.0" standalone="no"?>
<!DOCTYPE svg PUBLIC "-//W3C//DTD SVG 1.1//EN" "http://www.w3.org/Graphics/SVG/1.1/DTD/svg11.dtd" >
<svg xmlns="http://www.w3.org/2000/svg" xmlns:xlink="http://www.w3.org/1999/xlink" version="1.1">
<metadata>
Created by FontForge 20170731 at Tue Apr 18 09:20:18 2017
 By Aleksey,,,
Copyright (c) 2015 by Connary Fagen. All rights reserved. |DCNT
</metadata>
<defs>
<font id="ArgentCF-DemiBoldItalic" horiz-adv-x="1333" >
  <font-face 
    font-family="Argent CF DemiBold"
    font-weight="600"
    font-style="italic"
    font-stretch="normal"
    units-per-em="2048"
    panose-1="0 0 7 0 0 0 0 0 0 0"
    ascent="1638"
    descent="-410"
    x-height="1036"
    cap-height="1272"
    bbox="-874 -642 2189.28 1714"
    underline-thickness="0"
    underline-position="0"
    unicode-range="U+0020-FB02"
  />
<missing-glyph horiz-adv-x="1054" 
d="M197 1638h667v-2109h-667v2109zM702 1427v70h-348v-70h138v-77h-140v-70h350v70h-139v77h139zM563 1077v148h-211v-219h350v71h-139zM422 1153h70v-76h-70v76zM702 879v69h-350v-69h140v-78h-140v-70h211v148h139zM702 610v211h-69v-139h-281v-72h350zM702 326v239h-210
v-119h71v50h70v-101h-211v170h-70v-239h350zM702 -39v240h-350v-240h350zM422 131h211v-100h-211v100zM702 -158v70h-350v-70h148l-148 -98v-70h350v70h-215l148 98h67z" />
    <glyph glyph-name="uniFB01" unicode="fi" horiz-adv-x="1429" 
d="M752 1393q-125 0 -177 -340l-4 -29h203q20 0 17 -18l-11 -54q-5 -14 -16 -14h-205l-92 -627q-26 -173 -78 -313.5t-116 -225.5q-59 -80 -135 -133q-71 -50 -132.5 -69t-132.5 -19q-101 0 -160 46q-61 45 -61 112q0 47 30.5 78t75.5 31q38 0 67.5 -27t45.5 -66
q37 -94 98 -94q34 0 68 28q35 29 75 120t60 235l119 858q1 20 10 66h-176q-17 0 -16 18l8 54q5 14 16 14h189q36 129 99 222.5t140 139.5q136 82 285 82q108 0 170.5 -41t62.5 -106q0 -49 -32.5 -81t-81.5 -32q-38 0 -68.5 27t-47.5 65q-40 93 -97 93zM1343 227
q20 -19 -2 -47q-76 -94 -166 -144t-174 -50q-68 0 -98.5 40t-17.5 107l131 688q8 51 -33 51q-46 0 -125 -77q-22 -25 -45 -2q-16 16 6 47q172 205 355 204q134 0 106 -159l-127 -672q-12 -55 37 -55q48 0 115 67q18 19 38 2z" />
    <glyph glyph-name="uniFB02" unicode="fl" horiz-adv-x="1398" 
d="M1313 227q20 -19 -2 -47q-76 -94 -167 -144t-175 -50q-65 0 -95 39.5t-20 107.5l135 793q36 213 -6 328.5t-160 115.5q-199 0 -250 -338l-2 -8h191q20 0 16 -18l-8 -54q-5 -14 -16 -14h-195l-92 -627q-26 -174 -77.5 -314.5t-114.5 -224.5q-59 -80 -135 -133
q-70 -50 -133.5 -69t-135.5 -19q-98 0 -159 46q-62 45 -60 110q2 49 31.5 80t76.5 31q39 0 68.5 -27t43.5 -66q14 -40 39 -67t58 -27q34 0 68 28q35 29 75 120t60 235l117 838q7 52 14 86h-178q-17 0 -16 18l8 54q5 14 16 14h193q38 122 102 210.5t142 134.5q141 81 298 81
q170 0 284 -103q63 -56 86 -163.5t-1 -257.5l-117 -713q-7 -55 39 -55q48 0 115 67q20 18 39 2z" />
    <glyph glyph-name=".notdef" horiz-adv-x="1054" 
d="M197 1638h667v-2109h-667v2109zM702 1427v70h-348v-70h138v-77h-140v-70h350v70h-139v77h139zM563 1077v148h-211v-219h350v71h-139zM422 1153h70v-76h-70v76zM702 879v69h-350v-69h140v-78h-140v-70h211v148h139zM702 610v211h-69v-139h-281v-72h350zM702 326v239h-210
v-119h71v50h70v-101h-211v170h-70v-239h350zM702 -39v240h-350v-240h350zM422 131h211v-100h-211v100zM702 -158v70h-350v-70h148l-148 -98v-70h350v70h-215l148 98h67z" />
    <glyph glyph-name="glyph1" horiz-adv-x="0" 
 />
    <glyph glyph-name="glyph2" horiz-adv-x="681" 
 />
    <glyph glyph-name="space" unicode=" " horiz-adv-x="450" 
 />
    <glyph glyph-name="exclam" unicode="!" horiz-adv-x="491" 
d="M291 444h-94q23 195 4 406q-19 212 -11 283q12 79 64 125q53 47 113 47q58 0 95 -49q38 -49 25 -123q-7 -65 -88 -287q-79 -218 -108 -402zM174 -20q-48 0 -83 35q-34 35 -34 89q0 62 48 112q50 50 110 50q49 0 83 -35.5t34 -87.5q0 -66 -49 -115q-48 -48 -109 -48z" />
    <glyph glyph-name="quotedbl" unicode="&#x22;" horiz-adv-x="722" 
d="M184 883q-5 95 -16 284q-1 63 37 100q40 38 92 38q51 0 80 -38t8 -100l-98 -284q-11 -47 -56 -47q-20 0 -33.5 13.5t-13.5 33.5zM506 883l-17 284q-1 63 37 100q40 38 92 38q51 0 80 -38t9 -100l-99 -284q-11 -47 -55 -47q-20 0 -33.5 13.5t-13.5 33.5z" />
    <glyph glyph-name="numbersign" unicode="#" horiz-adv-x="1155" 
d="M983 954h135q29 0 23 -30l-29 -123q-6 -31 -35 -31h-164l-102 -270h166q29 0 22 -31l-28 -123q-6 -31 -35 -31h-195l-141 -376h-186l145 376h-164l-143 -376h-184l145 376h-141q-29 0 -23 31l27 123q10 31 35 31h172l104 270h-174q-29 0 -23 31l27 123q8 32 35 30h207
l162 422h176l-160 -422h166l162 422h176zM465 500h164l104 270h-166z" />
    <glyph glyph-name="dollar" unicode="$" horiz-adv-x="993" 
d="M571 795q166 -87 226 -144q123 -113 123 -272q0 -175 -131 -291q-129 -114 -312 -119l-12 -94h-133l14 109q-51 12 -107 38q-60 29 -83 29q-60 0 -74 -51h-84l25 313h61q44 0 51 -51q13 -90 88 -143q74 -53 170 -53q106 0 172 68q66 69 66 163q0 77 -48 129
q-47 52 -155 111q-144 74 -226 164q-83 91 -83 227q0 160 117 263q119 104 296 114l15 106h135l-16 -117q31 -7 69 -22q41 -15 60 -15q41 0 47 37h80l-27 -303h-45q-44 0 -57 60q-53 165 -211 163q-91 0 -150 -53q-57 -53 -57 -139q0 -67 47.5 -119t148.5 -108z" />
    <glyph glyph-name="percent" unicode="%" horiz-adv-x="1316" 
d="M645 1024q-18 -117 -95 -200t-186 -83q-107 0 -163 83q-54 82 -37 200q18 116 95 199q76 82 183 82q111 0 165 -82q54 -83 38 -199zM135 -10l977 1313h141l-974 -1313h-144zM375 817q89 0 117 207q33 205 -60 205q-85 0 -113 -205q-29 -207 56 -207zM989 541
q106 0 161 -82q56 -84 40 -199q-17 -119 -95 -200q-80 -83 -186 -83q-105 0 -161 83q-54 83 -38 200q16 115 94 199q76 82 185 82zM920 53q84 0 116 207q28 205 -57 205q-89 0 -117 -205q-28 -207 58 -207z" />
    <glyph glyph-name="ampersand" unicode="&#x26;" horiz-adv-x="1456" 
d="M977 653q113 -16 174 -80t61 -163q0 -124 -99 -227t-243 -159q-141 -55 -286 -55q-228 0 -379 107q-150 108 -150 299q0 160 118 268q118 109 267 94q-87 18 -148 83q-59 65 -59 155q0 133 129 231q130 99 314 99q122 0 210 -59q87 -58 87 -179q0 -99 -67 -185
q-66 -87 -156 -87q-101 0 -103 86q-1 22 17 50t40.5 52.5t41 63t16.5 77.5q0 100 -90 101q-85 0 -125 -88q-41 -90 -41 -187q0 -162 110 -207l-41 -102q-104 11 -167 -75q-62 -86 -62 -232q0 -124 59 -203q60 -78 189 -78q148 0 245 117q99 117 99 272q0 119 -86 119
q-37 0 -63.5 -26.5t-26.5 -63.5q0 -33 22 -55h-96q-57 27 -57 86q0 49 38 84q19 18 43 35l24 18q11 9 26 18l29 19l256 170l33 24l34 25q2 1 6.5 4.5t10 8t11.5 9.5q19 15 29 25q34 31 42 48q30 48 26 91q0 80 -88 80q-23 0 -53 -6l-11 86q77 33 160 33q84 0 158 -59
t74 -160q0 -203 -480 -391q-14 -9 -22 -11z" />
    <glyph glyph-name="quotesingle" unicode="'" horiz-adv-x="366" 
d="M184 883q-5 95 -16 284q-1 63 37 100q40 38 92 38q51 0 80 -38t8 -100l-98 -284q-11 -47 -56 -47q-20 0 -33.5 13.5t-13.5 33.5z" />
    <glyph glyph-name="parenleft" unicode="(" horiz-adv-x="622" 
d="M315 606q-84 -611 146 -909q12 -16 7.5 -26.5t-22.5 -10.5h-53q-19 0 -35 14q-178 154 -247 395q-67 241 -27 537q40 294 177 536t360 396q23 14 38 14h50q18 0 24 -8t-6 -18q-322 -301 -412 -920z" />
    <glyph glyph-name="parenright" unicode=")" horiz-adv-x="622" 
d="M332 606q86 619 -154 920q-8 10 0 18t27 8h49q19 0 35 -14q179 -154 246 -396q69 -240 28 -536t-177 -537t-359 -395q-20 -14 -39 -14h-54q-16 0 -17.5 11t13.5 26q316 299 402 909z" />
    <glyph glyph-name="asterisk" unicode="*" horiz-adv-x="638" 
d="M377 1065q-12 53 -35 160q18 70 88 80q66 -11 66 -80l-82 -160q-6 -13 -14 -17.5t-14.5 0t-8.5 17.5zM258 1178l86 -138q10 -14 -3 -28.5t-34 -10.5l-147 37q-47 41 -10 111q50 57 108 29zM442 1040l125 138q63 27 101 -29q18 -66 -41 -111l-158 -37q-23 -4 -32.5 10.5
t5.5 28.5zM145 934l160 35q20 4 28.5 -10.5t-5.5 -28.5l-123 -137q-70 -28 -101 28q-18 68 41 113zM461 969l151 -35q46 -46 11 -113q-53 -57 -109 -28l-84 137q-12 14 0.5 28.5t30.5 10.5zM274 750l80 159q6 12 14.5 17t15.5 0.5t9 -17.5l35 -159q-18 -70 -88 -80
q-66 10 -66 80z" />
    <glyph glyph-name="plus" unicode="+" horiz-adv-x="858" 
d="M489 592h287l-14 -105h-287l-43 -307h-100l43 307h-287l14 105h287l43 305h100z" />
    <glyph glyph-name="comma" unicode="," horiz-adv-x="417" 
d="M106 -246q-25 -19 -38 0l-17 23q84 90 99 180q2 19 0 27q-17 -4 -37 -4q-54 0 -86.5 34t-32.5 86q0 66 48 115t118 49q60 0 93.5 -40.5t33.5 -110.5q0 -92 -52 -189q-52 -98 -129 -170z" />
    <glyph glyph-name="hyphen" unicode="-" horiz-adv-x="688" 
d="M72 494v92h553v-92h-553z" />
    <glyph glyph-name="period" unicode="." horiz-adv-x="391" 
d="M111 -20q-48 0 -83 35q-34 35 -34 89q0 62 48 112t110 50q49 0 82.5 -35.5t33.5 -87.5q0 -65 -48 -115q-48 -48 -109 -48z" />
    <glyph glyph-name="slash" unicode="/" horiz-adv-x="886" 
d="M-2 -164l743 1641h189l-746 -1641h-186z" />
    <glyph glyph-name="zero" unicode="0" horiz-adv-x="1187" 
d="M524 -31q-207 0 -325 157q-117 158 -117 394q0 199 77 379q76 178 221 291t320 113q207 0 324 -153t117 -388q0 -204 -76 -383q-77 -180 -221 -295q-143 -115 -320 -115zM526 61q82 0 148 82q66 81 107 212q83 271 83 565q0 146 -41 219.5t-123 72.5q-82 0 -150 -81
q-67 -79 -108 -209q-84 -263 -84 -564q0 -297 168 -297z" />
    <glyph glyph-name="one" unicode="1" horiz-adv-x="634" 
d="M520 926l-108 -776q-4 -25 11 -40q14 -14 33.5 -19t63.5 -9l-8 -82q-75 4 -242 4q-192 0 -268 -4l6 82q124 13 135 82l123 878q6 47 -15.5 57.5t-92.5 4.5l12 78q139 18 235 62t111 44q59 0 59 -57q0 -27 -24 -134q-25 -117 -31 -171z" />
    <glyph glyph-name="two" unicode="2" horiz-adv-x="1044" 
d="M885 365h88l-119 -324q-14 -41 -63 -41h-789l8 80q284 245 408 377q313 337 313 583q0 85 -36.5 129.5t-102.5 44.5q-94 0 -155 -85q-60 -85 -60 -181q0 -14 5 -52t5 -60q0 -50 -34.5 -80.5t-88.5 -30.5q-62 0 -99.5 43.5t-37.5 112.5q0 181 135 303q134 121 332 121
q186 0 292 -93q107 -92 107 -243q0 -91 -46 -183q-49 -97 -95 -155q-50 -61 -165 -153q-109 -86 -170 -127q-54 -36 -195 -126l-48 -30l349 4q135 0 182 63z" />
    <glyph glyph-name="three" unicode="3" horiz-adv-x="1179" 
d="M709 709q29 6 86 6q132 0 215 -76q84 -77 84 -199q0 -141 -95 -251q-94 -109 -232 -163q-139 -53 -286 -53q-199 0 -320 91q-120 92 -120 215q0 61 35 101t96 40q123 0 123 -133q0 -9 -2 -34t-2 -30q0 -71 46 -118q47 -48 142 -48q139 0 231 117q93 117 93 266
q0 86 -42 137.5t-114 51.5q-56 0 -170 -41l-22 84l80 37q272 113 272 348q0 77 -40.5 120.5t-113.5 43.5q-99 0 -163 -79t-64 -181q0 -9 3 -39t3 -41q0 -125 -123 -125q-61 0 -97 43t-36 114q0 170 141 281q142 111 338 111q182 0 285 -79q104 -80 104 -200q0 -113 -96 -197
q-96 -82 -239 -120z" />
    <glyph glyph-name="four" unicode="4" horiz-adv-x="1114" 
d="M971 563l26 39h58l-76 -205q-17 -41 -66 -41h-127l-30 -206q-4 -38 21 -51q23 -12 108 -17l-4 -82q-281 11 -568 0l2 82q152 8 160 82l27 192h-416l-16 144l725 805h125l-115 -801h57q74 0 109 59zM166 504h358l68 467z" />
    <glyph glyph-name="five" unicode="5" horiz-adv-x="1085" 
d="M631 891q83 0 168 -38q83 -37 150 -133q67 -94 67 -226q0 -223 -169 -371t-401 -148q-180 0 -293 86q-112 85 -112 211q0 62 31.5 100t87.5 38q47 0 72 -28q24 -26 30 -53.5t6 -86.5q0 -182 178 -183q135 0 215 131q80 133 80 302q0 121 -57 190.5t-156 69.5
q-77 0 -151 -40q-76 -42 -127 -96l-94 9l143 647h379q137 0 182 63l133 -6l-82 -215q-17 -41 -63 -41h-522l-80 -362q158 180 385 180z" />
    <glyph glyph-name="six" unicode="6" horiz-adv-x="1093" 
d="M985 1219l-53 -74q-84 72 -201 72q-167 0 -249 -173q-40 -82 -63 -164q-22 -80 -42 -194q36 54 105 97q71 44 175 44q146 0 250 -97q105 -97 105 -263q0 -209 -158 -353q-158 -143 -367 -143q-201 0 -306 135q-105 136 -105 361q0 345 187 590q187 246 485 246
q142 0 237 -84zM358 541q-14 -98 -14 -199q0 -283 143 -283q120 0 187 139q69 140 69 320q0 219 -127 219q-101 0 -174 -73q-74 -72 -84 -123z" />
    <glyph glyph-name="seven" unicode="7" horiz-adv-x="954" 
d="M494 1272h516l-635 -1213q-47 -84 -127 -84q-43 0 -68.5 28t-25.5 67q0 48 61 145q74 117 340 502l252 364l-338 -8q-169 0 -246 -123h-108l131 340l90 -2q42 -16 158 -16z" />
    <glyph glyph-name="eight" unicode="8" horiz-adv-x="1097" 
d="M776 682q108 -39 168 -120.5t60 -186.5q0 -166 -148 -286q-147 -120 -375 -120q-202 0 -318 97q-116 98 -116 247q0 119 85 222q86 104 237 155q-75 37 -116.5 104.5t-41.5 151.5q0 160 129 259q128 100 317 100q173 0 265 -86t92 -211q0 -88 -60 -181q-59 -92 -178 -145
zM647 1214q-102 0 -155 -95q-52 -94 -52 -226q0 -172 133 -172q99 0 155 102q56 104 56 228q0 163 -137 163zM487 59q121 0 181 113q61 112 61 266q0 205 -160 205q-122 0 -183 -121q-62 -122 -62 -272q-2 -191 163 -191z" />
    <glyph glyph-name="nine" unicode="9" horiz-adv-x="1073" 
d="M115 66l63 73q86 -72 201 -71q66 0 121 30t93 81q35 47 64 123q30 78 44 141q13 53 32 155q-33 -53 -106 -98q-70 -43 -174 -43q-146 0 -250 97q-105 98 -105 263q0 210 158 353t369 143q202 0 305 -136q104 -136 104 -360t-82 -413q-83 -190 -238 -306t-354 -116
q-166 0 -245 84zM750 743q16 106 16 201q0 281 -143 281q-121 0 -188 -139q-66 -138 -66 -320q0 -219 127 -219q99 0 173 73q75 74 81 123z" />
    <glyph glyph-name="colon" unicode=":" horiz-adv-x="391" 
d="M203 631q-49 0 -83 35.5t-34 89.5q0 62 48 112t110 50q49 0 82 -36q34 -35 34 -87q0 -65 -48 -115q-48 -49 -109 -49zM111 -20q-48 0 -83 35q-34 35 -34 89q0 62 48 112t110 50q49 0 82.5 -35.5t33.5 -87.5q0 -65 -48 -115q-48 -48 -109 -48z" />
    <glyph glyph-name="semicolon" unicode=";" horiz-adv-x="417" 
d="M213 629q-49 0 -83 35.5t-34 89.5q0 62 48 112q49 49 110 49q48 0 83 -36q34 -34 34 -86q0 -66 -49 -115q-48 -49 -109 -49zM106 -246q-25 -19 -38 0l-17 23q84 90 99 180q2 19 0 27q-17 -4 -37 -4q-54 0 -86.5 34t-32.5 86q0 66 48 115t118 49q60 0 93.5 -40.5
t33.5 -110.5q0 -92 -52 -189q-52 -98 -129 -170z" />
    <glyph glyph-name="less" unicode="&#x3c;" horiz-adv-x="909" 
d="M82 428l22 170q420 161 773 350l-21 -137l-150 -78l-160 -84q-52 -28 -149 -70q-95 -40 -174 -65q80 -28 156 -67q86 -42 131 -70l135 -83q64 -40 129 -79l-20 -137q-296 187 -672 350z" />
    <glyph glyph-name="equal" unicode="=" horiz-adv-x="858" 
d="M113 664l14 106h674l-15 -106h-673zM61 295l15 106h674l-15 -106h-674z" />
    <glyph glyph-name="greater" unicode="&#x3e;" horiz-adv-x="911" 
d="M829 598l-22 -170q-437 -169 -774 -350l18 137l150 79l161 83q52 27 152 70q86 39 174 67q-72 25 -157 65q-80 40 -130 70l-136 83l-128 79l17 137q303 -189 675 -350z" />
    <glyph glyph-name="question" unicode="?" horiz-adv-x="968" 
d="M479 362h-88q0 82 48 177q46 93 104 169q55 71 105 163q48 90 48 161q0 182 -133 182q-94 0 -149 -84q-54 -82 -54 -190q0 -12 4.5 -40.5t4.5 -39.5q0 -56 -40.5 -93.5t-107.5 -37.5q-54 0 -84.5 40.5t-30.5 107.5q0 179 139 303q140 125 333 125q184 0 284 -85
q101 -86 101 -225q0 -81 -49 -149t-118 -120l-139 -104q-71 -53 -122 -118t-56 -142zM330 -20q-48 0 -83 35q-34 35 -34 89q0 62 48 112t110 50q49 0 82.5 -35.5t33.5 -87.5q0 -65 -48 -115q-48 -48 -109 -48z" />
    <glyph glyph-name="at" unicode="@" horiz-adv-x="1499" 
d="M666 -78l-13 -92q-250 0 -420 167t-170 417q0 309 238 541q239 233 543 233q252 0 422 -162t170 -418q0 -204 -110 -346q-110 -141 -279 -141q-68 0 -120.5 32.5t-74.5 88.5q-98 -123 -256 -123q-85 0 -146 44q-59 44 -59 124q0 110 100 186q100 78 379 123l2 16
q9 50 11 101q0 94 -80 94q-55 0 -82 -30.5t-37 -98.5q-8 -57 -115 -57q-82 0 -82 63q0 98 100 152q100 55 226 55q135 0 199.5 -51.5t64.5 -159.5q0 -36 -27 -227q-26 -193 -26 -199q0 -47 33 -47q54 0 89 149q34 148 34 295q0 202 -92 324q-91 121 -257 121
q-151 0 -272 -110q-120 -111 -181 -271q-61 -161 -61 -334q0 -205 91 -332t258 -127zM672 223q76 0 162 111l22 178q-250 -52 -250 -221q0 -68 66 -68z" />
    <glyph glyph-name="A" unicode="A" 
d="M862 1282l215 -1018q26 -108 56 -141q32 -35 122 -41l-4 -82q-295 7 -598 0l4 82q93 6 130.5 30.5t25.5 80.5l-51 239h-352l-113 -252q-13 -34 -8 -48t28 -29q11 -6 39 -11q45 -6 113 -10v-82q-252 10 -504 0l4 82q100 6 154 39q55 33 90 104l487 1057h162zM647 961
l-198 -443h294z" />
    <glyph glyph-name="B" unicode="B" horiz-adv-x="1243" 
d="M866 688q305 -62 305 -295q0 -201 -163 -297q-162 -96 -430 -96h-596l8 82q81 6 115 23.5t40 56.5l131 952q6 37 -17.5 53.5t-92.5 22.5l2 82q113 -4 180 -4q34 0 160 2q25 0 53.5 0.5t44 1t23.5 0.5q250 0 375 -71.5t124 -213.5q0 -205 -262 -299zM575 1186l-73 -496
l78 17q287 47 286 309q0 172 -186 172q-69 0 -105 -2zM580 92q151 0 231 92t80 244q0 201 -244 201l-158 -27l-63 -446q-6 -50 13 -57q18 -7 141 -7z" />
    <glyph glyph-name="C" unicode="C" horiz-adv-x="1222" 
d="M1044 346h103q-62 -165 -195 -271t-344 -106q-248 0 -391 150q-143 152 -143 409q0 324 193 550q194 227 476 227q89 0 180 -24q93 -24 140 -24q46 0 98 7q-4 -198 43 -351h-145q-90 299 -322 299q-91 0 -165 -65q-72 -64 -115 -169q-88 -215 -88 -470q0 -201 73 -322
q74 -120 217 -120q117 0 217 70.5t168 209.5z" />
    <glyph glyph-name="D" unicode="D" horiz-adv-x="1288" 
d="M672 1272q265 0 417 -122t152 -384q0 -334 -178 -548t-490 -214q-33 0 -141 15q-105 16 -162 16q-44 0 -92 -5q-37 -4 -108 -17q-76 -12 -84 -13l4 84q80 7 114 22q33 15 39 52l133 956q6 37 -17.5 53.5t-92.5 22.5l2 82q113 -4 178 -4q20 0 162 2t164 2zM565 84
q116 0 205 120q88 120 126 282q38 166 38 333q0 180 -69 274.5t-206 94.5q-49 0 -84 -4l-149 -1037q-7 -43 16 -53q93 -10 123 -10z" />
    <glyph glyph-name="E" unicode="E" horiz-adv-x="1062" 
d="M162 1272h842q37 0 30 -43v-242h-84l-16 51q-35 85 -69 113q-35 29 -113 29h-146q-14 0 -27.5 -11.5t-15.5 -25.5l-61 -443h186q69 0 106 30.5t58 100.5l68 -14q-38 -156 -48 -342l-69 12q-5 68 -27 95q-22 28 -92 28h-195l-69 -491q-1 -25 24 -25h91q108 0 169 29
q59 28 105 106l78 131l92 -6q-96 -212 -111 -354q-328 14 -882 0l4 80q80 6 114.5 24.5t40.5 57.5l134 962q6 38 -18 48q-22 12 -107 18z" />
    <glyph glyph-name="F" unicode="F" horiz-adv-x="1011" 
d="M162 1272h839q30 0 29 -43l-2 -242h-82l-18 51q-35 85 -69 113q-35 29 -114 29h-141q-14 0 -26.5 -11.5t-14.5 -25.5l-61 -443h186q68 0 104 29t60 96h66q-39 -181 -48 -344h-67q-4 71 -27 100t-92 29h-195l-63 -458q-6 -37 19 -52q25 -13 106 -18l-4 -82q-279 8 -561 0
l4 82q76 4 111.5 23t43.5 59l134 960q6 38 -18 48q-22 12 -107 18z" />
    <glyph glyph-name="G" unicode="G" horiz-adv-x="1290" 
d="M717 526l8 80q260 -11 524 0l-8 -80l-35 -6q-64 -11 -80 -92q-33 -150 -45 -311l21 -4q43 -12 37 -39l-9 -49q-69 4 -114 4q-110 0 -237 -30t-228 -30q-241 0 -378 185q-136 185 -91 510q41 287 228 464q188 177 421 177q77 0 165 -24t138 -24q47 0 99 7q-6 -197 36 -359
l-141 15q-42 139 -123 215.5t-190 76.5q-119 0 -208 -138q-89 -139 -122 -380q-37 -251 14 -444q53 -191 183 -191q117 0 173 47.5t72 157.5l29 187q2 36 -14 51.5t-58 19.5z" />
    <glyph glyph-name="H" unicode="H" horiz-adv-x="1359" 
d="M831 1190v82q287 -10 576 0l-2 -82q-150 -7 -162 -82l-133 -958q-4 -38 21 -51q23 -12 108 -17l-2 -82q-285 10 -573 0l4 82q150 8 161 82l62 430h-399l-62 -444q-6 -38 21 -51q26 -12 110 -17v-82q-287 11 -575 0l4 82q145 7 160 82l133 958q6 37 -21 50q-26 14 -108 18
l4 82q285 -10 571 0l-2 -82q-156 -8 -164 -82l-59 -428h399l62 442q4 37 -24 50q-29 14 -110 18z" />
    <glyph glyph-name="I" unicode="I" horiz-adv-x="675" 
d="M561 1108l-133 -958q-6 -36 23 -50t114 -18l-14 -82q-285 10 -571 0l12 82q76 4 111.5 23t43.5 59l134 958q6 36 -21.5 50t-109.5 18l12 82q284 -10 567 0l-10 -82q-150 -8 -158 -82z" />
    <glyph glyph-name="J" unicode="J" horiz-adv-x="686" 
d="M160 1190l4 82q285 -10 571 0l-4 -82q-146 -7 -160 -82l-118 -846q-46 -339 -199 -481q-152 -141 -420 -141l4 81q129 0 204 83q75 82 105 300l144 1018q6 37 -21 50q-25 13 -110 18z" />
    <glyph glyph-name="K" unicode="K" horiz-adv-x="1320" 
d="M1325 1272l-4 -82q-131 -10 -213 -96l-387 -389q361 -642 514 -658l-78 -80q-149 0 -298 126q-148 126 -322 427l-64 -63l-43 -307q-6 -37 20 -51q25 -12 109 -17l-4 -82q-283 10 -569 0l4 82q152 8 160 82l133 958q6 37 -21 50q-26 14 -108 18l4 82q283 -10 569 0
l-4 -82q-144 -7 -158 -82l-69 -498l489 498q45 45 -43 70q-33 8 -78 12l4 82q229 -7 457 0z" />
    <glyph glyph-name="L" unicode="L" horiz-adv-x="1056" 
d="M831 229l80 133l93 -8q-91 -186 -113 -360q-408 16 -901 6l4 80q80 6 115.5 24.5t40.5 57.5l133 960q6 37 -21 50q-26 14 -108 18l4 82q283 -10 569 0l-4 -82q-144 -7 -158 -82l-141 -991q-1 -25 25 -25h106q109 0 169 30t107 107z" />
    <glyph glyph-name="M" unicode="M" horiz-adv-x="1601" 
d="M1489 1110l-137 -960q-4 -38 21 -51q23 -12 108 -17l-2 -82q-283 10 -570 0l4 82q146 7 160 82l119 846l-469 -1010l-287 1010l-123 -860q-5 -39 52 -51q28 -7 63 -10l86 -7l-2 -82q-260 10 -522 0l2 82q221 14 229 82l133 928q4 40 -37.5 67t-117.5 31l2 82
q211 -10 428 0l219 -789l364 789q217 -7 437 0l-2 -82q-83 -6 -118.5 -23.5t-39.5 -56.5z" />
    <glyph glyph-name="N" unicode="N" horiz-adv-x="1380" 
d="M903 1190l2 82q259 -8 525 0l-5 -82q-222 -13 -233 -82l-154 -1108h-86l-518 1010l-123 -860q-4 -34 39 -46.5t164 -21.5l-4 -82q-260 10 -522 0l4 82q218 13 229 82l131 930q4 36 -39 64t-116 32v82q213 -7 430 0l387 -762l90 612q4 33 -39 46t-162 22z" />
    <glyph glyph-name="O" unicode="O" horiz-adv-x="1257" 
d="M561 -31q-223 0 -356 148t-133 403q0 322 189 553q190 232 474 232q215 0 350 -156q136 -155 136 -401q0 -310 -194 -545q-193 -234 -466 -234zM586 59q88 0 157 75q71 75 108 192q77 237 77 487q0 185 -55 291q-54 108 -158 108q-91 0 -161 -70q-72 -70 -110 -181
q-77 -223 -77 -480q0 -191 57 -306q59 -116 162 -116z" />
    <glyph glyph-name="P" unicode="P" horiz-adv-x="1179" 
d="M518 494l-47 -7l-47 -340q-4 -37 19 -48q25 -11 108 -17l-4 -82q-279 8 -561 0l4 82q80 6 113.5 23.5t41.5 56.5l131 952q6 39 -17.5 55.5t-92.5 20.5l2 82q75 -4 177 -4q62 0 186 2q24 0 53 0.5t45 1t24 0.5q306 0 422 -99q115 -97 86 -280q-19 -144 -172 -242
q-150 -95 -471 -157zM575 1186l-90 -611l33 9q343 56 383 344q38 260 -188 260q-92 0 -138 -2z" />
    <glyph glyph-name="Q" unicode="Q" horiz-adv-x="1351" 
d="M1114 -129l113 -12q-19 -145 -120 -241q-98 -97 -226 -97q-110 0 -188 87q-8 9 -29.5 35.5t-32 38.5t-32 32t-37.5 29.5t-39 17.5t-46 8q-71 0 -124 -28q-55 -29 -77 -60h-243q57 87 198 166q142 79 342 124q-229 -1 -365 141q-136 143 -136 404q0 331 191 560
q192 229 491 229q219 0 361 -157t142 -403q0 -306 -176 -523q-176 -216 -491 -320q-228 -71 -291 -121q91 57 213 57q74 0 203 -43t190 -43q170 0 209 119zM373 530q0 -199 63 -334q64 -135 174 -135q92 0 163 72q71 73 110 185q78 228 78 481q0 189 -59 301
q-58 112 -169 112q-118 0 -203 -112q-86 -112 -122 -262q-35 -152 -35 -308z" />
    <glyph glyph-name="R" unicode="R" horiz-adv-x="1265" 
d="M762 551q265 -487 418 -504l-78 -80q-147 0 -292 121q-144 122 -310 404l-29 -5l-47 -340q-4 -37 19 -48q25 -11 108 -17l-4 -82q-71 4 -280 4q-208 0 -281 -4l4 82q81 6 115 23.5t40 56.5l131 952q6 37 -17.5 53.5t-92.5 22.5l2 82q6 -6 240 -3q236 3 245 3
q277 0 395 -79q119 -80 119 -226q0 -163 -105 -260t-300 -156zM575 1186l-90 -611l33 9q186 30 286.5 134.5t100.5 276.5q0 193 -192 193q-94 0 -138 -2z" />
    <glyph glyph-name="S" unicode="S" horiz-adv-x="993" 
d="M571 795q166 -87 226 -144q123 -113 123 -272q0 -179 -135 -294q-134 -116 -318 -116q-103 0 -200 41q-96 41 -111 41q-60 0 -74 -51h-84l25 313h61q44 0 51 -51q13 -90 88 -143q74 -53 170 -53q106 0 172 68q66 69 66 163q0 77 -48 129q-47 52 -155 111
q-144 74 -226 164q-83 91 -83 227q0 166 126 271q125 106 314 106q81 0 151 -24q72 -24 85 -24q41 0 47 37h80l-27 -303h-45q-44 0 -57 60q-53 165 -211 163q-91 0 -150 -53q-57 -53 -57 -139q0 -67 47.5 -119t148.5 -108z" />
    <glyph glyph-name="T" unicode="T" horiz-adv-x="1148" 
d="M1114 1288l92 -2l-110 -321h-92q56 215 -54 215h-143l-143 -1030q-6 -38 19 -51q23 -12 108 -17l-3 -82q-283 10 -569 0l4 82q144 7 158 82l143 1016h-135q-36 0 -72 -41q-16 -18 -47 -69q-4 -8 -29 -49l-32 -56h-94l106 321l82 -2q56 -12 209 -12h393q139 0 209 16z" />
    <glyph glyph-name="U" unicode="U" horiz-adv-x="1425" 
d="M903 1190l2 82q285 -6 570 0l-5 -82q-147 -7 -159 -82l-133 -958q-4 -38 21 -51q23 -12 108 -17l-4 -82q-69 4 -235 4q-163 0 -218 -4l6 86q33 20 39 78l6 45q-151 -229 -389 -229q-173 0 -265 91q-93 91 -93 246q0 27 110 805q4 36 -22 50t-107 18l2 82q285 -6 572 0
l-4 -82q-146 -7 -160 -82q-109 -781 -109 -850q0 -184 127 -184q190 0 359 274l110 774q4 36 -22 50t-107 18z" />
    <glyph glyph-name="V" unicode="V" horiz-adv-x="1286" 
d="M635 -18h-100l-261 1142q-7 37 -32 49q-21 12 -99 17l4 82q283 -10 568 0l-2 -82q-84 -4 -125 -24.5t-33 -55.5l168 -758l350 772q1 5 2.5 12t1.5 9q2 9 -7.5 16t-23.5 12q-11 5 -34 9q-14 2 -90 8l2 82q213 -7 430 0l-4 -82q-150 -8 -185 -80z" />
    <glyph glyph-name="W" unicode="W" horiz-adv-x="1929" 
d="M1563 1190l2 82q215 -8 432 0l-2 -82q-153 -7 -185 -80l-503 -1128h-101l-190 929l-408 -929h-102l-232 1142q-6 37 -30 49q-21 12 -101 17l4 82q283 -10 568 0l-2 -82q-83 -4 -124.5 -24.5t-33.5 -55.5l139 -758l293 699l-14 73q-6 37 -30 49q-21 12 -101 17l4 82
q283 -10 569 0l-4 -82q-170 -11 -158 -80l140 -758l321 772q1 5 2.5 12t1.5 9q2 9 -7.5 16t-23.5 12q-11 5 -33 9q-12 2 -91 8z" />
    <glyph glyph-name="X" unicode="X" horiz-adv-x="1292" 
d="M1282 1272l-4 -82q-129 -17 -213 -121l-297 -356l254 -529q26 -54 56 -76q31 -20 93 -26l-2 -82q-256 10 -512 0l5 82q52 6 80.5 25t17.5 47l-168 348l-287 -342q-23 -33 -3.5 -52.5t77.5 -25.5l-4 -82q-186 8 -377 0l2 82q117 12 207 125l336 397l-234 486
q-27 51 -59 71q-32 22 -96 29l4 82q254 -10 510 0l-4 -84q-47 -9 -75 -27.5t-20 -38.5l150 -311l256 303q23 26 -6 46.5t-92 29.5l2 82q201 -10 403 0z" />
    <glyph glyph-name="Y" unicode="Y" horiz-adv-x="1259" 
d="M942 1190l2 82q190 -7 383 0l-4 -82q-121 -10 -193 -127l-358 -555l-53 -358q-4 -37 22 -51q26 -13 109 -19l-2 -80q-283 10 -569 0l4 82q145 7 157 82l49 338l-229 614q-8 26 -15 36q-19 31 -110 38l2 82q283 -10 570 0l-5 -82q-73 -6 -103 -29t-17 -57l170 -467
l278 440q66 98 -88 113z" />
    <glyph glyph-name="Z" unicode="Z" horiz-adv-x="1144" 
d="M784 215l148 147l141 -6q-91 -113 -178 -266l47 -10q38 -8 33 -37l-6 -43h-989l835 1190h-350q-51 0 -86 -36q-35 -37 -92 -134l-13 -23l-104 9l106 280l84 -2q52 -12 209 -12h625l-838 -1190h174q66 0 117 20q48 20 70 41q20 18 67 72z" />
    <glyph glyph-name="bracketleft" unicode="[" horiz-adv-x="620" 
d="M680 1458l-188 -14l-234 -1673l182 -15q19 -2 29 -10t8 -22l-8 -64l-494 31l258 1833l502 30l-10 -63q-6 -29 -45 -33z" />
    <glyph glyph-name="backslash" unicode="\" horiz-adv-x="864" 
d="M207 1477h188l283 -1641h-186z" />
    <glyph glyph-name="bracketright" unicode="]" horiz-adv-x="643" 
d="M172 -229l238 1673l-185 14q-39 6 -35 33l9 63l493 -30l-258 -1833l-502 -31l9 64q5 29 45 32z" />
    <glyph glyph-name="asciicircum" unicode="^" horiz-adv-x="794" 
d="M145 993l340 404q21 22 43 20.5t31 -20.5l223 -404q14 -23 -1 -46t-44 -23h-26q-25 0 -66 45l-156 198l-210 -198q-45 -45 -80 -45h-27q-27 0 -36 23q-9 24 9 46z" />
    <glyph glyph-name="underscore" unicode="_" horiz-adv-x="1087" 
d="M-51 -213l24 172h985l-24 -172h-985z" />
    <glyph glyph-name="grave" unicode="`" horiz-adv-x="661" 
d="M403 1430l279 -234l-31 -47l-344 125q-55 19 -75 68q-19 49 7 87q27 39 72 39t92 -38z" />
    <glyph glyph-name="a" unicode="a" horiz-adv-x="1175" 
d="M1090 227q20 -18 -3 -47q-76 -93 -165.5 -143.5t-169.5 -50.5q-70 0 -104 40t-21 107l30 154q-59 -154 -139.5 -227.5t-204.5 -73.5q-118 0 -198 71q-78 72 -78 234q0 133 57 268q59 137 151 242q92 107 225 175t269 68q131 0 281 -59l-123 -772q-7 -55 39 -55
q48 0 115 67q20 18 39 2zM403 96q104 0 188 189q85 191 132 444l37 205q-18 37 -84 37q-94 0 -171 -74q-76 -73 -120 -184q-86 -219 -86 -408q0 -96 27.5 -152.5t76.5 -56.5z" />
    <glyph glyph-name="b" unicode="b" horiz-adv-x="1132" 
d="M848 1042q98 0 174 -75q76 -73 76 -228q0 -109 -45 -238t-123 -245q-78 -118 -199 -195q-122 -77 -256 -77q-136 0 -256 74q-63 39 -93 113t-15 165l133 813q8 56 -19 79t-90 17l10 82q99 21 161 37q141 37 165 37q67 0 53 -74l-139 -731q73 194 196 320q121 126 267 126
zM487 57q92 0 166 89q75 92 112 219q77 260 77 440q0 139 -76 139q-82 0 -184 -130q-101 -132 -168 -302q-66 -172 -66 -291q0 -164 139 -164z" />
    <glyph glyph-name="c" unicode="c" horiz-adv-x="897" 
d="M618 1042q117 0 192 -66q75 -64 75 -157q0 -64 -36 -107q-36 -44 -93 -44q-47 0 -73 26.5t-26 71.5q0 37 7 80q9 57 10 69q2 26 -16 43t-58 17q-94 0 -166 -89q-73 -89 -104 -207q-31 -117 -31 -235q0 -139 50 -216.5t143 -77.5q119 0 233 131q23 28 37 26h29
q16 0 21 -10t0.5 -24t-15.5 -29q-161 -258 -418 -258q-145 0 -240 90q-94 90 -94 280q0 262 173 474t400 212z" />
    <glyph glyph-name="d" unicode="d" horiz-adv-x="1179" 
d="M1094 227q20 -19 -2 -47q-76 -93 -165.5 -143.5t-170.5 -50.5q-70 0 -104 40t-21 107l31 154q-59 -155 -139.5 -228t-205.5 -73q-121 0 -201 69q-79 70 -79 238q0 181 91 353q92 174 251 285q161 113 342 113q27 0 49 -2l16 107q8 56 -23 79t-101 17l10 82q94 13 168 31
q32 8 66.5 17.5t51 14.5t31.5 8t23 3q62 0 51 -74l-160 -1114q-7 -55 37 -55q48 0 115 67q20 18 39 2zM729 729l27 205q-33 37 -103 37q-93 0 -167 -72q-72 -72 -111 -182q-76 -212 -76 -408q0 -213 107 -213q74 0 146 110q71 108 116 251q42 138 61 272z" />
    <glyph glyph-name="e" unicode="e" horiz-adv-x="913" 
d="M768 307h29q48 0 4 -74q-164 -248 -408 -247q-145 0 -242 90q-96 90 -96 278q0 250 180 469q181 219 410 219q106 0 160.5 -49.5t54.5 -134.5q0 -271 -541 -461q-8 -116 43 -181q52 -66 136 -66q124 0 231 129q26 29 39 28zM645 858q0 111 -63 111q-82 0 -160 -149
q-79 -150 -98 -349q321 113 321 387z" />
    <glyph glyph-name="f" unicode="f" horiz-adv-x="753" 
d="M846 1468q108 0 170.5 -41t62.5 -106q0 -49 -32.5 -81t-81.5 -32q-38 0 -68.5 27t-47.5 65q-40 93 -97 93q-125 0 -177 -340l-4 -29h203q20 0 17 -18l-11 -54q-5 -14 -16 -14h-205l-92 -627q-26 -173 -78 -313.5t-116 -225.5q-59 -80 -135 -133q-71 -50 -132.5 -69
t-132.5 -19q-101 0 -160 46q-61 45 -61 112q0 47 30.5 78t75.5 31q38 0 67.5 -27t45.5 -66q37 -94 98 -94q34 0 68 28q35 29 75 120t60 235l119 858q1 20 10 66h-176q-17 0 -16 18l8 54q5 14 16 14h189q36 129 99 222.5t140 139.5q136 82 285 82z" />
    <glyph glyph-name="g" unicode="g" horiz-adv-x="1144" 
d="M1047 1040q52 0 84 -27.5t32 -74.5q0 -44 -27 -74t-69 -30q-22 0 -43 10t-33 10q-31 0 -30 -39q0 -11 7 -47t7 -74q0 -170 -148 -264q-147 -94 -407 -117q-124 -11 -150 -17q-32 -8 -32 -24t20 -22q25 -7 88 -17l279 -45q176 -30 261 -90t85 -168q0 -170 -193 -272
q-192 -102 -430 -102q-183 0 -299 68q-115 67 -115 190q0 83 46 135q45 53 118 53q46 0 75.5 -23t29.5 -65q0 -29 -20 -74q-19 -42 -19 -80q0 -60 59.5 -96.5t173.5 -36.5q142 0 242 58q102 57 102 161q0 56 -35 86.5t-118 47.5l-367 71q-176 33 -176 158q0 74 58 104
q57 31 178 49q-73 38 -122 114q-50 77 -50 177q0 166 138 277q137 112 336 112t320 -133q42 131 144 131zM502 381q100 0 158 120q59 121 59 263q0 100 -34 156.5t-97 56.5q-98 0 -163 -119t-65 -260q0 -103 37 -160t105 -57z" />
    <glyph glyph-name="h" unicode="h" horiz-adv-x="1134" 
d="M844 1042q248 0 248 -321q0 -163 -57 -329q-55 -166 -171 -288q-114 -120 -258 -120q-79 0 -123.5 33t-44.5 89q0 48 30.5 77.5t76.5 29.5q57 0 77 -39q21 -39 27 -78t27 -39q49 0 94 257q45 256 45 425q0 187 -90 189q-117 0 -233 -239t-177 -642q-12 -66 -133 -65
q-61 0 -91.5 18t-24.5 57l178 1090q8 58 -19 81t-90 17l10 82q91 13 161 31q25 7 53 14.5t43.5 12l31 9t24.5 6t15 1.5q67 0 53 -74l-137 -758q67 205 179 340q112 133 276 133z" />
    <glyph glyph-name="i" unicode="i" horiz-adv-x="698" 
d="M471 1161q-59 0 -101 42t-42 102q0 61 42 103t101 42q61 0 102 -42q41 -43 41 -103q0 -58 -41 -102q-41 -42 -102 -42zM612 227q20 -19 -2 -47q-76 -94 -166 -144t-174 -50q-68 0 -98.5 40t-17.5 107l131 688q7 51 -33 51q-46 0 -125 -77q-25 -25 -45 -2q-16 16 6 47
q162 206 354 204q136 0 107 -159l-127 -672q-12 -55 37 -55q47 0 114 67q20 18 39 2z" />
    <glyph glyph-name="j" unicode="j" horiz-adv-x="643" 
d="M469 1161q-61 0 -102 42q-41 43 -41 102q0 60 41 103q41 42 102 42q59 0 101 -42t42 -103q0 -59 -42 -102q-42 -42 -101 -42zM465 1044q135 0 106 -159l-92 -563q-58 -360 -190 -546q-60 -84 -128 -135q-117 -90 -259 -90q-119 0 -186.5 38t-67.5 104q0 47 34 81
q33 33 80 33q66 0 122 -82q22 -35 52.5 -59t61.5 -24q123 0 170 305l139 874q7 51 -33 51q-48 0 -122 -77q-27 -23 -48 -2q-16 15 7 47q173 204 354 204z" />
    <glyph glyph-name="k" unicode="k" horiz-adv-x="1101" 
d="M596 602q298 -538 461 -555l-78 -80q-146 0 -289 118q-143 119 -303 388l-78 -473h-250l185 1149q8 56 -19 79t-90 17l10 82q91 13 161 31q25 7 53 14.5t43.5 12l31 9t24.5 6t15 1.5q67 0 53 -74l-127 -778q261 175 316 276q19 36 2 53.5t-70 16.5q-8 0 -24 -2l14 88
q69 25 128 38t100.5 14t70.5 -6t43 -21t14 -33q0 -49 -74 -120q-79 -75 -323 -251z" />
    <glyph glyph-name="l" unicode="l" horiz-adv-x="630" 
d="M86 133l168 1016q8 56 -21 79t-98 17l10 82q95 13 167 31q26 7 54.5 14.5t44.5 12t31.5 9t25 6t15.5 1.5q66 0 54 -74l-185 -1114q-7 -55 39 -55q48 0 115 67q18 18 39 2q20 -19 -2 -47q-76 -94 -166 -144t-174 -50q-65 0 -96 39.5t-21 107.5z" />
    <glyph glyph-name="m" unicode="m" horiz-adv-x="1970" 
d="M1884 227q20 -19 -2 -47q-158 -196 -340 -194q-68 0 -99.5 40t-19.5 107l95 551q24 115 11 176.5t-71 65.5q-117 0 -243 -252q-124 -252 -183 -674h-237l98 684q43 242 -62 242q-117 0 -243 -252q-125 -253 -182 -674h-238l119 821q7 51 -35 51q-46 0 -125 -77
q-25 -25 -45 -2q-16 16 6 47q170 203 348 202q142 0 111 -157l-66 -332q78 224 185 357q108 132 276 132q271 0 195 -358l-29 -131q78 224 185 357q108 132 276 132q278 0 211 -358l-86 -471q-7 -55 39 -55q44 0 114 67q20 18 37 2z" />
    <glyph glyph-name="n" unicode="n" horiz-adv-x="1339" 
d="M1253 227q23 -17 -2 -47q-74 -93 -165 -143.5t-175 -50.5q-68 0 -100.5 40t-17.5 107l100 551q21 115 9 176.5t-68 65.5q-119 0 -245 -252t-183 -674h-238l119 821q7 51 -35 51q-46 0 -125 -77q-25 -25 -45 -2q-16 16 6 47q170 203 354 202q136 0 105 -157l-66 -332
q78 225 186 357q109 132 279 132q276 0 207 -358l-88 -471q-12 -55 37 -55q44 0 115 67q18 18 36 2z" />
    <glyph glyph-name="o" unicode="o" horiz-adv-x="1067" 
d="M618 1042q169 0 284 -101q114 -101 114 -308q0 -255 -167 -452q-167 -195 -388 -195q-160 0 -279 107q-119 108 -119 315q0 254 169 444t386 190zM745 735q0 116 -35 177t-98 61q-84 0 -151 -105q-66 -103 -99 -257q-32 -154 -32 -314q0 -118 35 -179t100 -61
q119 0 199 210q81 210 81 468z" />
    <glyph glyph-name="p" unicode="p" horiz-adv-x="1126" 
d="M836 1042q102 0 179 -77t77 -228q0 -153 -74 -325q-73 -169 -220 -299q-146 -129 -317 -129q-69 0 -141 20l-23 -141q-8 -54 22.5 -72t104.5 -6l-10 -88q-128 -26 -260 -82q-135 -57 -162 -57q-24 0 -34.5 10t-8.5 31q3 21 37 61q33 40 49 160l123 940q6 53 -21.5 68
t-93.5 3l15 87q89 18 161 52q41 18 80.5 40t59 32.5t27.5 10.5q60 0 49 -78l-56 -381q79 200 191 324q111 124 246 124zM477 57q94 0 169 81q76 82 113 202q77 243 77 442q0 162 -76 162q-78 0 -164 -128q-87 -130 -142 -283q-54 -150 -71 -265q-14 -111 3 -161t91 -50z" />
    <glyph glyph-name="q" unicode="q" horiz-adv-x="1128" 
d="M1032 961l-155 -1098q-8 -54 23 -72t106 -6l-11 -88q-94 -18 -180 -53q-45 -19 -91.5 -42t-69.5 -33.5t-33 -10.5q-31 0 -41.5 16t-6.5 55l91 641q-62 -142 -143 -213q-82 -71 -210 -71q-116 0 -196 71q-78 72 -78 230q0 185 90 360q91 177 237 286q148 111 306 111
q50 1 91.5 -13.5t62.5 -33.5t42 -33.5t35 -13.5q41 0 51 76h27q32 1 45 -15.5t8 -49.5zM406 96q98 0 196 212q98 213 125 405l31 221q-49 37 -105 37q-91 0 -165 -72q-72 -72 -111 -181q-78 -216 -78 -409q1 -213 107 -213z" />
    <glyph glyph-name="r" unicode="r" horiz-adv-x="983" 
d="M862 1044q68 0 107 -38t39 -101q0 -58 -34.5 -94.5t-86.5 -36.5q-53 0 -89 52q-36 53 -67 53q-101 0 -190 -267q-88 -263 -133 -612h-246l125 821q7 51 -35 51q-46 0 -125 -77q-25 -25 -45 -2q-16 16 6 47q170 203 348 202q137 0 109 -157l-45 -244q56 171 150 287
q93 116 212 116z" />
    <glyph glyph-name="s" unicode="s" horiz-adv-x="776" 
d="M694 246q0 -118 -104 -192q-104 -72 -254 -72q-137 0 -229 59q-91 58 -91 139q0 42 27.5 69t71.5 27q47 0 80 -36q33 -33 50 -78q16 -43 51 -79q34 -36 83 -36q44 0 69 25.5t25 68.5q5 41 -35 109q-8 15 -29 43l-30 42l-40 52l-42 55l-42 55q-40 54 -43 58l-33 51
q-17 28 -31 58q-25 67 -25 116q0 117 95 189q94 73 247 73q109 0 194 -54q86 -54 86 -130q0 -40 -23.5 -65t-64.5 -25q-47 0 -83 33q-36 34 -53 70q-16 37 -47 71q-30 33 -68 33q-34 0 -58 -22t-24 -56q0 -35 34 -90l35 -53l54 -72l61 -80l43 -57q36 -47 45 -61
q11 -16 35 -55q23 -35 34 -63q29 -62 29 -120z" />
    <glyph glyph-name="t" unicode="t" horiz-adv-x="688" 
d="M522 1024h148q18 0 16 -18l-8 -54q-5 -14 -16 -14h-152l-109 -725q-7 -55 37 -55q48 0 115 67q20 18 39 2q20 -19 -2 -47q-76 -94 -166 -144t-174 -50q-65 0 -95 39.5t-20 107.5l119 805h-143q-20 0 -17 18l8 54q5 14 17 14h147l41 281h258z" />
    <glyph glyph-name="u" unicode="u" 
d="M86 799q-20 19 2 47q76 94 166 144t174 50q69 0 101 -39.5t18 -107.5l-103 -551q-47 -242 60 -242q116 0 240 252q125 250 184 674h237l-116 -821q-7 -51 34 -51q40 0 123 77q23 23 45 2q18 -16 -6 -47q-170 -204 -352 -202q-135 0 -107 157l66 332q-78 -225 -186 -357
q-106 -132 -275 -132q-121 0 -185 81q-63 82 -24 277l94 471q12 55 -36 55q-46 0 -117 -67q-20 -18 -37 -2z" />
    <glyph glyph-name="v" unicode="v" horiz-adv-x="1146" 
d="M1108 809q0 -204 -80 -397q-80 -191 -216 -311q-137 -119 -290 -119q-138 0 -227 72q-88 73 -88 214q0 144 88 283q91 144 227 291h-332q-28 0 -26 -27q0 -24 51 -62q51 -36 51 -89q0 -36 -24 -60t-66 -24q-52 0 -83.5 35t-31.5 100q0 117 96 214q97 97 251 97h327
q-299 -440 -299 -666q0 -96 55.5 -151t149.5 -55q146 0 231 133q86 134 86 309q2 73 -25.5 137t-54 110.5t-24.5 78.5q0 44 33 79t80 35q141 0 141 -227z" />
    <glyph glyph-name="w" unicode="w" horiz-adv-x="1652" 
d="M1473 1036q141 0 141 -227q0 -209 -78 -401q-78 -190 -210 -309q-132 -117 -277 -117q-78 0 -142 34q-63 34 -98 82q-124 -117 -291 -116q-135 0 -223 73t-88 213q0 144 88 283q91 144 227 291h-332q-28 0 -26 -27q-1 -15 15 -31t36 -28.5t36 -37t15 -54.5q0 -36 -24 -60
t-66 -24q-52 0 -83.5 35t-31.5 100q0 117 96 214q97 97 251 97h333q-305 -452 -305 -668q0 -94 52.5 -149t140.5 -55q82 0 125 49q-45 103 -45 227q0 211 115 410q116 200 257 200q67 0 105.5 -52.5t38.5 -145.5q0 -163 -73 -328q-73 -166 -175 -278q66 -82 166 -82
q147 0 233 134t86 308q1 57 -15 110.5t-36 86t-36 68t-15 61.5q0 44 33 79t80 35zM1069 965q-73 0 -122 -132q-50 -132 -50 -301q0 -120 45 -227q81 88 143 234q62 147 62 274q0 68 -21.5 110t-56.5 42z" />
    <glyph glyph-name="x" unicode="x" horiz-adv-x="1089" 
d="M821 883q-51 0 -94.5 -76t-93.5 -238l131 -360q16 -61 67 -62q53 0 136 78q18 18 37 2q20 -18 -3 -47q-155 -195 -335 -194q-35 0 -57 8.5t-39 32.5q-19 29 -25 45l-27 69l-67 178q-65 -169 -147 -253.5t-179 -83.5q-67 0 -104 33t-37 87q0 49 32.5 82t79.5 33
q50 0 84 -36t66 -36q46 0 85 63.5t87 201.5l-123 329q-25 63 -70 64q-41 0 -84 -27q-25 -14 -39 15q-11 23 9 32q75 41 142 98q22 18 49 41.5t41 35.5t29.5 24t25 17t16.5 5q23 0 38 -15t24 -36q9 -19 30 -78l92 -251q68 191 151 287t193 96q67 0 103 -33t36 -88
q0 -49 -32 -82t-80 -33q-49 0 -84 36t-64 36z" />
    <glyph glyph-name="y" unicode="y" horiz-adv-x="1058" 
d="M854 1047q77 0 124.5 -57.5t47.5 -160.5q0 -298 -270 -794q-156 -283 -249 -382q-95 -102 -188 -102q-75 0 -125 46q-51 45 -51 118q0 63 38 102.5t95 39.5q29 1 55 -16.5t41.5 -39.5t32.5 -39.5t31 -15.5q46 0 137 148l-323 845q-25 63 -70 64q-41 0 -86 -27
q-23 -14 -37 15q-11 23 9 32q72 40 141 98q14 12 35.5 30.5t32 27.5t25.5 22t23 19t18 12.5t16.5 9t11.5 2.5q45 0 90 -116q4 -6 6 -13l270 -727q187 376 189 578q0 20 -5.5 21.5t-28.5 -6t-46 -7.5q-57 0 -96 40t-39 95q0 56 41 97t104 41z" />
    <glyph glyph-name="z" unicode="z" horiz-adv-x="964" 
d="M756 395q64 0 107 -57q44 -58 44 -137q0 -89 -62 -163q-61 -73 -173 -73q-82 0 -193 45q-110 45 -164 45q-123 0 -217 -96l-69 70l643 759q-40 -33 -101 -32q-93 0 -213 59t-161 59q-29 0 -29 -20q0 -15 38 -32q38 -15 75 -42q38 -26 38 -73q0 -40 -24 -64.5t-70 -24.5
q-63 0 -106 57q-43 58 -43 138q0 90 61 163t174 73q83 0 191 -43t172 -43q98 0 192 96l70 -70l-643 -760q39 33 121 33q95 0 211 -61q119 -60 161 -60q29 0 29 21q0 14 -38 31q-42 20 -76 46q-37 28 -37 74q0 36 24 59t68 23z" />
    <glyph glyph-name="braceleft" unicode="{" horiz-adv-x="573" 
d="M418 385l-43 -297q-27 -143 -25 -242q1 -97 58 -131l-86 -55q-124 57 -156 162q-31 102 -10 266l51 356q6 45 -15 66q-18 20 -92 59l11 72q82 37 107 58q27 24 34 67l49 356q13 100 40 176q25 71 87 142q62 72 160 110l71 -55q-66 -33 -90 -113q-23 -77 -49 -260
l-41 -297q-25 -172 -196 -217v-6q157 -45 135 -217z" />
    <glyph glyph-name="bar" unicode="|" horiz-adv-x="520" 
d="M41 -440l293 2078h170l-293 -2078h-170z" />
    <glyph glyph-name="braceright" unicode="}" horiz-adv-x="569" 
d="M78 88l41 297q22 172 194 217v6q-157 43 -135 217l45 297q25 140 23 242q-1 97 -58 131l86 55q127 -57 158 -163q31 -103 8 -265l-51 -356q-6 -44 14 -67q20 -20 93 -58l-11 -72q-85 -39 -108 -59q-25 -21 -31 -66l-51 -356q-22 -159 -83 -265q-60 -106 -202 -163l-71 55
q44 22 72 82q27 55 38 111q12 61 29 180z" />
    <glyph glyph-name="asciitilde" unicode="~" horiz-adv-x="1026" 
d="M836 631h94q-33 -114 -120 -191q-87 -75 -171 -75q-71 0 -126 36q-61 41 -99 74q-43 37 -76 37q-29 0 -65 -55q-35 -54 -78 -54h-97q40 110 124 183q82 73 177 73q48 2 93.5 -18t74 -45t63 -45.5t62.5 -18.5q30 0 73 49q44 50 71 50z" />
    <glyph glyph-name="exclamdown" unicode="&#xa1;" horiz-adv-x="493" 
d="M315 1051q55 0 89 -43q34 -42 26 -103q-11 -60 -55 -100q-46 -41 -101 -41t-88 41q-32 41 -24 100q7 59 54 103q46 43 99 43zM215 586h92q-23 -195 -4 -407q19 -214 10 -281q-12 -79 -63 -125q-52 -47 -111 -47t-97 47q-38 48 -28 125q10 65 90 283q80 217 111 405z" />
    <glyph glyph-name="cent" unicode="&#xa2;" horiz-adv-x="897" 
d="M657 766q0 36 10 92q11 61 5 80l-213 -786q14 -2 33 -2q119 0 233 131q23 28 37 26h29q16 0 21 -10t0.5 -24t-15.5 -29q-150 -239 -383 -256l-31 -113h-141l32 123q-108 30 -168.5 120t-60.5 238q0 242 150 446q152 205 362 236l45 166h141l-47 -170q86 -20 137 -80
q52 -58 52 -135q0 -64 -36 -107q-36 -44 -93 -44q-47 0 -73 26.5t-26 71.5zM299 444q0 -129 43 -202l195 723q-110 -40 -175 -200q-63 -159 -63 -321z" />
    <glyph glyph-name="sterling" unicode="&#xa3;" horiz-adv-x="1071" 
d="M909 729q-56 0 -88.5 29t-32.5 78q0 34 24 86t24 133q0 161 -138 159q-102 0 -162 -86q-59 -86 -59 -198q0 -43 7 -86q8 -46 15 -75l24 -86q14 -44 22 -75h217l-12 -86h-185q8 -66 8 -90q0 -116 -71 -225q79 -10 114 -10q203 0 302 149l77 -12q-71 -195 -167 -265
q-98 -69 -214 -69q-136 0 -227 63q-95 -63 -190 -63q-71 0 -123 41q-51 41 -51 113q0 79 52 132q53 54 134 54q36 0 63 -13q23 -9 56 -32t37 -25q35 82 34 133q0 55 -37 119h-251l10 86h184q-102 155 -102 275q0 182 136 302q137 120 361 120q172 0 269 -94q98 -93 98 -246
q0 -104 -42 -170t-116 -66zM188 59q73 0 119 70q-21 19 -61 59q-19 21 -43 21q-32 0 -56 -21t-30 -59q-6 -32 14 -51t57 -19z" />
    <glyph glyph-name="currency" unicode="&#xa4;" horiz-adv-x="1126" 
d="M954 453q-18 -133 -106 -242l115 -141l-103 -99l-119 144q-115 -76 -241 -76q-128 0 -219 80l-158 -148l-82 99l160 147q-61 116 -43 264q18 129 106 238l-112 137l104 100l113 -141q113 78 239 78q130 0 228 -84l157 147l80 -100l-160 -147q61 -115 41 -256zM289 453
q-13 -115 49 -197q63 -82 174 -82q110 0 205 92q93 90 110 215q16 112 -49 194q-64 81 -174 81q-113 0 -205 -89t-110 -214z" />
    <glyph glyph-name="yen" unicode="&#xa5;" horiz-adv-x="1259" 
d="M942 1190l2 82q190 -7 383 0l-4 -82q-121 -10 -193 -127l-241 -373h145l-20 -147h-219l-23 -35l-6 -41h235l-18 -148h-240l-24 -169q-4 -37 22 -51q26 -13 109 -19l-2 -80q-283 10 -569 0l4 82q145 7 157 82l23 155h-246l23 148h245l4 35l-14 41h-227l22 147h150
l-160 426q-8 26 -15 36q-19 31 -110 38l2 82q283 -10 570 0l-5 -82q-73 -6 -103 -29t-17 -57l170 -467l278 440q66 98 -88 113z" />
    <glyph glyph-name="brokenbar" unicode="&#xa6;" horiz-adv-x="520" 
d="M403 924h-170l101 714h170zM211 -440h-170l100 714h170z" />
    <glyph glyph-name="section" unicode="&#xa7;" horiz-adv-x="991" 
d="M561 858q5 0 37 -7q9 -2 20.5 -4.5t18.5 -4t12 -2.5l54 -15q37 -11 60 -21q13 -6 57 -29q33 -16 53 -39q83 -78 77 -185q-6 -138 -98 -236q49 -62 47 -151q-1 -116 -79 -204q-75 -84 -180 -125.5t-224 -41.5q-129 0 -206 29q-33 11 -65 26q-24 10 -54 30l-38 22l-43 327
l72 27q27 13 52.5 3t27.5 -40q9 -27 20 -106q16 -105 76 -165.5t160 -60.5q104 0 174 52q70 51 72 161q0 49 -17 74l-6 9t-6 8.5l-6 7.5t-7.5 8t-8.5 6.5t-11 6.5q-48 24 -66 29q-16 5 -36 10l-40 10q-30 8 -38 9l-47 11l-57 14q-37 11 -54 17q-32 11 -58 25q-17 10 -47 32
q-29 23 -42 45q-35 66 -35 133q-2 132 100 238q-39 55 -39 135q-5 158 126 268q131 111 333 111q103 0 169 -23q65 -23 110 -57q47 -36 71 -43l-16 -271l-70 -20q-30 -6 -48.5 4.5t-18.5 34.5q0 30 -19 110q-25 172 -190 172q-102 0 -169 -66q-67 -64 -69 -151q0 -71 45 -94
q27 -13 44 -18q22 -7 61 -14q58 -11 59 -11zM293 612q0 -36 17 -59q20 -26 40 -37q31 -15 57 -22l32 -7l34 -7q8 -1 14.5 -2.5t12 -3t6.5 -1.5q158 -39 199 -55q10 33 10 67q0 50 -17 73q-3 4 -7 11t-6.5 11t-7 9t-10 9t-13.5 7q-14 7 -29 15q-7 6 -36 14l-35 10l-40 10
l-39 10l-160 38q-21 -46 -22 -90z" />
    <glyph glyph-name="dieresis" unicode="&#xa8;" horiz-adv-x="1024" 
d="M440 1209q-38 -38 -90 -38q-53 0 -91 38t-38 91q0 54 38 90q37 37 91 37q53 0 90 -37q37 -36 37 -90t-37 -91zM766 1171q-54 0 -92 38q-37 37 -37 91t37 90q37 37 92 37q53 0 89 -37q36 -36 36 -90t-36 -91q-36 -38 -89 -38z" />
    <glyph glyph-name="copyright" unicode="&#xa9;" horiz-adv-x="1474" 
d="M858 1339q276 0 431 -195t112 -501q-45 -307 -253 -502q-209 -194 -487 -194t-436 194q-157 195 -114 502q44 309 254 501q211 195 493 195zM1278 643q39 265 -85 428q-125 164 -351 164q-228 0 -401 -164q-171 -163 -210 -428q-37 -263 88 -428q125 -164 357 -164
q226 0 396 164q168 162 206 428zM954 473h103q-75 -113 -101 -201q-32 8 -57 9q-31 0 -82 -14q-48 -13 -98 -13q-168 0 -249 106q-82 107 -56 289q26 171 137 276q113 107 258 107q49 0 101 -13q53 -13 87 -13q27 0 62 6q5 -134 22 -209h-118q-20 81 -66 128.5t-106 47.5
q-75 0 -126 -77t-69 -216q-23 -156 8 -266q32 -111 121 -111q113 0 229 164z" />
    <glyph glyph-name="ordfeminine" unicode="&#xaa;" horiz-adv-x="724" 
d="M659 1055l-36 -256q0 -7 -5 -17q0 -6 5 -6l63 29l-6 -105q-88 -35 -129 -34q-28 0 -49 22t-27 55q-66 -78 -178 -77q-83 0 -138 46t-42 128q11 77 91 129q81 53 286 84l6 12q12 51 6 100t-45 49q-49 0 -72 -23t-39 -85q-12 -43 -92 -43q-78 0 -68 88q8 67 87 101
q79 36 174 36q243 0 208 -233zM328 760q34 0 62 21q29 22 43 39l38 54l21 99q-130 -25 -172 -71q-34 -37 -41 -89q-8 -53 49 -53zM106 424l19 129h479l-18 -129h-480z" />
    <glyph glyph-name="guillemotleft" unicode="&#xab;" horiz-adv-x="874" 
d="M59 498l9 49l426 336l38 -54l-284 -307l198 -307l-51 -53zM387 498l8 49l426 336l39 -54l-285 -307l199 -307l-51 -53z" />
    <glyph glyph-name="logicalnot" unicode="&#xac;" horiz-adv-x="1032" 
d="M129 784h850l-72 -491h-157l45 321h-689z" />
    <glyph glyph-name="uni00AD" unicode="&#xad;" horiz-adv-x="688" 
d="M72 494v92h553v-92h-553z" />
    <glyph glyph-name="registered" unicode="&#xae;" horiz-adv-x="1474" 
d="M858 1339q276 0 431 -195t112 -501q-45 -307 -253 -502q-209 -194 -487 -194t-436 194q-157 195 -114 502q44 309 254 501q211 195 493 195zM1278 643q39 265 -85 428q-125 164 -351 164q-228 0 -401 -164q-171 -163 -210 -428q-37 -263 88 -428q125 -164 357 -164
q226 0 396 164q168 162 206 428zM856 600l113 -205q31 -55 88 -61l-10 -47q-109 6 -228 0q6 59 -18 102l-107 193l-26 -2l-29 -203q-2 -20 13.5 -29.5t60.5 -13.5l-6 -47q-161 6 -318 0l6 47q48 4 67 13t21 30l72 520q4 24 -10 36.5t-53 16.5l6 45q60 -2 98 -2q70 0 105 1
t69 1q173 0 235 -50t50 -148q-23 -158 -199 -197zM719 948l-45 -319l49 4q162 12 184 166q19 147 -108 147q-54 0 -80 2z" />
    <glyph glyph-name="overscore" unicode="&#xaf;" horiz-adv-x="866" 
d="M207 1233l8 82q6 35 41 35h563q37 0 31 -35l-8 -82q-6 -35 -39 -35h-565q-37 0 -31 35z" />
    <glyph glyph-name="degree" unicode="&#xb0;" horiz-adv-x="577" 
d="M401 1298q90 0 143 -68q54 -67 39 -167q-13 -100 -86 -168q-71 -68 -163 -68q-89 0 -145 68q-54 67 -40 168q15 99 87 167q74 68 165 68zM457 1063q8 56 -11 91.5t-61 35.5q-45 0 -75 -36q-29 -36 -36 -91q-6 -55 12 -91q20 -36 62 -36t72.5 36.5t36.5 90.5z" />
    <glyph glyph-name="plusminus" unicode="&#xb1;" horiz-adv-x="884" 
d="M561 1104l-43 -305h287l-14 -105h-287l-43 -307h-101l43 307h-286l14 105h287l43 305h100zM725 27h-674l15 106h673z" />
    <glyph glyph-name="uni00B2" unicode="&#xb2;" horiz-adv-x="577" 
d="M524 932h62l-21 -111q-6 -29 -43 -28h-379q31 156 205 262q94 57 94 114q0 30 -20.5 50t-50.5 20q-61 0 -74 -43q-6 -20 0 -44q6 -23 4 -34q-23 -47 -81 -35q-58 13 -58 56q0 74 53 124t152 50q91 0 140.5 -41.5t49.5 -114.5q0 -44 -29 -84q-30 -41 -52 -56
q-19 -14 -73 -45q-51 -29 -64 -41q-15 -13 -24 -42h148q33 0 43 16z" />
    <glyph glyph-name="uni00B3" unicode="&#xb3;" horiz-adv-x="598" 
d="M485 1102q101 -33 103 -135q0 -79 -63 -131q-61 -52 -163 -52q-98 0 -155 48q-57 50 -57 114q0 51 57 51q30 0 43 -11q11 -10 16 -41l6 -36q16 -55 86 -55q43 0 72 32q28 32 27 66q1 61 -40 73q-42 14 -95 -15l-31 63l49 23q72 27 72 90q0 57 -66 57q-38 0 -51 -37
q-14 -38 -2 -78l-103 13q-25 10 -24 28q-2 64 49.5 105t140.5 41q91 0 141 -40q52 -40 52 -85q-1 -61 -64 -88z" />
    <glyph glyph-name="acute" unicode="&#xb4;" horiz-adv-x="661" 
d="M227 1151l-28 45l299 231q51 39 96 39q31 0 52.5 -22t21.5 -55q0 -68 -109 -113z" />
    <glyph glyph-name="uni00B5" unicode="&#xb5;" 
d="M1251 233q18 -16 -6 -47q-170 -204 -352 -202q-135 0 -107 157l66 332q-78 -225 -186 -357q-106 -132 -275 -132q-45 0 -88 12q0 -88 24 -147q27 -64 44 -86q20 -28 14 -50q-25 -82 -115 -112q-88 -33 -131 18q-27 33 -18 90l61 408q-28 90 0 225l94 471q12 55 -36 55
q-46 0 -117 -67q-18 -18 -37 -2q-20 19 2 47q76 94 166 144t174 50q69 0 101 -39.5t18 -107.5l-103 -551q-47 -242 60 -242q116 0 240 252q125 250 184 674h237l-116 -821q-7 -51 34 -51q40 0 123 77q22 22 45 2z" />
    <glyph glyph-name="paragraph" unicode="&#xb6;" horiz-adv-x="1290" 
d="M651 1272h674l-12 -96q-31 -6 -48 -12q-18 -6 -32 -21t-16 -35l-148 -1051q-6 -36 10.5 -52.5t65.5 -24.5l-19 -117h-774l17 117q72 8 96 24q25 17 29 53l61 435h-31q-209 0 -329 105q-119 105 -93 284q25 178 181 284q158 107 368 107zM508 578h59l82 585h-43
q-115 0 -180 -86q-64 -85 -76 -196q-6 -66 -2 -131q5 -68 46 -120q42 -52 114 -52zM850 57l147 1049q6 34 -1.5 45.5t-32.5 11.5h-97l-153 -1106q-6 -37 7 -52t52 -15q71 0 78 67z" />
    <glyph glyph-name="middot" unicode="&#xb7;" horiz-adv-x="489" 
d="M100 459q-49 0 -82.5 35.5t-33.5 89.5q0 62 48 112q48 49 109 49q49 0 83 -36q34 -34 34 -86q0 -66 -49 -115q-48 -49 -109 -49z" />
    <glyph glyph-name="cedilla" unicode="&#xb8;" horiz-adv-x="686" 
d="M190 -360q48 0 75.5 27t27.5 75q0 42 -28 70t-89 49q-45 14 -41 51q0 6 6 13q27 30 58 75h82l-35 -63q205 -67 205 -185q0 -78 -79 -120q-80 -42 -177 -42q-87 0 -146 32q-57 32 -57 93q0 31 19.5 51.5t51.5 20.5q36 0 51 -21t11 -52q-4 -32 11 -53t54 -21z" />
    <glyph glyph-name="uni00B9" unicode="&#xb9;" horiz-adv-x="442" 
d="M373 1280v-369q0 -32 59 -37v-71h-252v71q59 5 60 37v285l-64 -20v84l115 51q29 12 56 -1q28 -12 26 -30z" />
    <glyph glyph-name="ordmasculine" unicode="&#xba;" horiz-adv-x="718" 
d="M459 1286q118 -1 194 -91q76 -88 58 -228q-18 -132 -115 -215q-96 -84 -211 -84t-191 90q-75 90 -57 227q18 133 113 216q97 84 209 85zM549 971q13 107 -15 174q-28 69 -79 69q-125 0 -158 -233q-13 -107 15 -174q30 -68 87 -68q117 2 150 232zM106 424l19 129h479
l-18 -129h-480z" />
    <glyph glyph-name="guillemotright" unicode="&#xbb;" horiz-adv-x="878" 
d="M494 547l-9 -49l-426 -336l-39 53l285 307l-199 307l54 54zM821 547l-8 -49l-426 -336l-39 53l285 307l-199 307l53 54z" />
    <glyph glyph-name="onequarter" unicode="&#xbc;" horiz-adv-x="1376" 
d="M240 911v285l-64 -20v84l115 51q29 12 56 -1q28 -12 26 -30v-369q0 -32 59 -37v-71h-252v71q60 4 60 37zM125 -10l885 1313h166l-885 -1313h-166zM1243 217v-86h-63v-59q0 -37 51 -37v-47h-238v47q49 0 49 37v59h-196v82l246 289q18 23 53 14q35 -8 35 -33v-266h63z" />
    <glyph glyph-name="onehalf" unicode="&#xbd;" horiz-adv-x="1396" 
d="M373 1280v-369q0 -32 59 -37v-71h-252v71q59 5 60 37v285l-64 -20v84l115 51q29 12 56 -1q28 -12 26 -30zM125 -10l885 1313h166l-885 -1313h-166zM1229 127h61l-20 -111q-6 -29 -43 -28h-379q31 156 205 262q94 57 94 115q0 30 -20.5 49.5t-51.5 19.5q-61 0 -74 -43
q-6 -20 0 -44q7 -21 5 -34q-23 -47 -82 -35q-58 13 -58 56q0 74 53 124q55 50 152 50q91 0 141 -41.5t50 -114.5q0 -44 -29 -84q-27 -37 -53 -55q-22 -17 -72 -45q-46 -27 -65 -42q-16 -14 -23 -42h147q33 0 43 16z" />
    <glyph glyph-name="threequarters" unicode="&#xbe;" horiz-adv-x="1458" 
d="M588 967q0 -79 -63 -131q-61 -52 -163 -52q-98 0 -155 48q-57 50 -57 114q0 51 57 51q30 0 43 -11q11 -10 16 -41l6 -36q16 -55 86 -55q43 0 72 32q28 32 27 66q1 61 -40 73q-42 14 -95 -15l-31 63l49 23q72 27 72 90q0 57 -66 57q-38 0 -51 -37q-14 -38 -2 -78l-103 13
q-25 10 -24 28q-2 64 49.5 105t140.5 41q91 0 141 -40q52 -40 52 -85q0 -61 -64 -88q103 -33 103 -135zM254 -10l885 1313h166l-885 -1313h-166zM1325 217v-86h-63v-59q0 -37 51 -37v-47h-238v47q49 0 49 37v59h-196v82l246 289q18 23 53 14q35 -8 35 -33v-266h63z" />
    <glyph glyph-name="questiondown" unicode="&#xbf;" horiz-adv-x="1026" 
d="M608 1051q46 0 81 -35q34 -34 34 -86q0 -66 -48 -116t-108 -50q-51 0 -83.5 35t-32.5 88q0 65 48 115q48 49 109 49zM506 668h88q0 -85 -41 -162q-40 -76 -92 -126q-50 -49 -102 -131q-51 -83 -64 -173q-6 -44 -6 -76q0 -184 135 -184q92 0 146 84q55 83 55 190
q0 11 -4.5 38t-4.5 36q0 58 40 98q41 41 108 41q54 0 84.5 -41t30.5 -108q0 -178 -140 -303t-331 -125q-182 0 -282 81q-99 79 -99 216q0 182 147 299q63 50 130 97q67 46 124 109q57 65 78 140z" />
    <glyph glyph-name="Agrave" unicode="&#xc0;" 
d="M981 1395l-344 125q-55 19 -75 68q-19 47 7 87q29 39 73 39t91 -39l279 -233zM862 1282l215 -1018q26 -108 56 -141q32 -35 122 -41l-4 -82q-295 7 -598 0l4 82q93 6 130.5 30.5t25.5 80.5l-51 239h-352l-113 -252q-13 -34 -8 -48t28 -29q11 -6 39 -11q45 -6 113 -10v-82
q-252 10 -504 0l4 82q100 6 154 39q55 33 90 104l487 1057h162zM647 961l-198 -443h294z" />
    <glyph glyph-name="Aacute" unicode="&#xc1;" 
d="M954 1522l-331 -125l-29 45l299 231q51 39 96 39q31 0 52.5 -21.5t21.5 -56.5q0 -67 -109 -112zM862 1282l215 -1018q26 -108 56 -141q32 -35 122 -41l-4 -82q-295 7 -598 0l4 82q93 6 130.5 30.5t25.5 80.5l-51 239h-352l-113 -252q-13 -34 -8 -48t28 -29q11 -6 39 -11
q45 -6 113 -10v-82q-252 10 -504 0l4 82q100 6 154 39q55 33 90 104l487 1057h162zM647 961l-198 -443h294z" />
    <glyph glyph-name="Acircumflex" unicode="&#xc2;" 
d="M1063 1317l-248 219l-311 -219l-41 41l352 346h45l258 -346zM862 1282l215 -1018q26 -108 56 -141q32 -35 122 -41l-4 -82q-295 7 -598 0l4 82q93 6 130.5 30.5t25.5 80.5l-51 239h-352l-113 -252q-13 -34 -8 -48t28 -29q11 -6 39 -11q45 -6 113 -10v-82q-252 10 -504 0
l4 82q100 6 154 39q55 33 90 104l487 1057h162zM647 961l-198 -443h294z" />
    <glyph glyph-name="Atilde" unicode="&#xc3;" 
d="M659 1526q-37 0 -58 -27q-21 -25 -21 -49l-74 12q12 115 72.5 172.5t156.5 57.5q100 0 192 -47q92 -46 136 -46q33 0 58 25t24 43l76 -12q-18 -121 -87 -181q-70 -59 -161 -59q-54 -2 -107.5 15.5t-87.5 39.5t-67 39.5t-52 16.5zM862 1282l215 -1018q26 -108 56 -141
q32 -35 122 -41l-4 -82q-295 7 -598 0l4 82q93 6 130.5 30.5t25.5 80.5l-51 239h-352l-113 -252q-13 -34 -8 -48t28 -29q11 -6 39 -11q45 -6 113 -10v-82q-252 10 -504 0l4 82q100 6 154 39q55 33 90 104l487 1057h162zM647 961l-198 -443h294z" />
    <glyph glyph-name="Adieresis" unicode="&#xc4;" 
d="M700 1455q-36 -38 -90 -38q-53 0 -91 38t-38 91q0 52 38 90q37 37 91 37t90 -37q37 -37 37 -90q0 -54 -37 -91zM1026 1417q-54 0 -92 38q-37 37 -37 91q0 53 37 90t92 37q53 0 89 -37q36 -38 36 -90q0 -54 -36 -91q-36 -38 -89 -38zM862 1282l215 -1018q26 -108 56 -141
q32 -35 122 -41l-4 -82q-295 7 -598 0l4 82q93 6 130.5 30.5t25.5 80.5l-51 239h-352l-113 -252q-13 -34 -8 -48t28 -29q11 -6 39 -11q45 -6 113 -10v-82q-252 10 -504 0l4 82q100 6 154 39q55 33 90 104l487 1057h162zM647 961l-198 -443h294z" />
    <glyph glyph-name="Aring" unicode="&#xc5;" 
d="M803 1382q-68 0 -108 46t-32 112q9 65 59 111q50 45 118 45q65 0 106 -45q40 -45 33 -111q-8 -65 -59 -112q-50 -46 -117 -46zM745 1540q-4 -31 15.5 -54.5t50.5 -23.5q29 0 55 23q28 24 29 55q4 29 -15.5 52.5t-48.5 23.5q-30 0 -56 -23t-30 -53zM862 1282l215 -1018
q26 -108 56 -141q32 -35 122 -41l-4 -82q-295 7 -598 0l4 82q93 6 130.5 30.5t25.5 80.5l-51 239h-352l-113 -252q-13 -34 -8 -48t28 -29q11 -6 39 -11q45 -6 113 -10v-82q-252 10 -504 0l4 82q100 6 154 39q55 33 90 104l487 1057h162zM647 961l-198 -443h294z" />
    <glyph glyph-name="AE" unicode="&#xc6;" horiz-adv-x="1935" 
d="M1034 1272h842q37 0 31 -43v-242h-84l-17 51q-35 85 -69 113q-34 29 -113 29h-145q-14 0 -27.5 -11.5t-15.5 -25.5l-62 -443h187q69 0 105.5 30.5t57.5 100.5l68 -14q-36 -151 -47 -342l-70 12q-5 68 -27 95q-22 28 -92 28h-194l-70 -491q-1 -25 25 -25h90q108 0 169 29
q59 28 105 106l78 131l92 -6q-97 -213 -110 -354q-328 13 -883 0l4 80q80 6 115 24.5t41 57.5l37 270h-516l-226 -244q-72 -78 99 -100q27 -4 59 -6l-10 -82q-250 10 -502 0l12 82q94 6 146 37q56 33 116 98l879 963q-45 9 -86 10zM618 518h449l4 23l76 557z" />
    <glyph glyph-name="Ccedilla" unicode="&#xc7;" horiz-adv-x="1218" 
d="M659 66q117 0 217.5 70.5t167.5 209.5h103q-62 -165 -195 -271t-344 -106h-2l-18 -32q205 -67 205 -185q0 -78 -79 -120q-80 -42 -177 -42q-87 0 -146 32q-57 32 -57 93q0 31 20 51.5t52 20.5q36 0 50.5 -21t10.5 -52q-4 -32 12 -53t53 -21q48 0 75.5 27t27.5 75
q0 42 -28 70t-89 49q-45 14 -41 51q0 2 45 61q-211 27 -330 173q-118 146 -118 382q0 324 193 550q194 227 476 227q89 0 180 -24q93 -24 140 -24q46 0 98 7q-4 -198 43 -351h-145q-90 299 -322 299q-91 0 -165 -65q-72 -64 -115 -169q-88 -215 -88 -470q0 -201 73 -322
q74 -120 217 -120z" />
    <glyph glyph-name="Egrave" unicode="&#xc8;" horiz-adv-x="1062" 
d="M836 1395l-344 125q-55 19 -75 68q-20 48 7 87q29 39 73 39t91 -39l278 -233zM162 1272h842q37 0 30 -43v-242h-84l-16 51q-35 85 -69 113q-35 29 -113 29h-146q-14 0 -27.5 -11.5t-15.5 -25.5l-61 -443h186q69 0 106 30.5t58 100.5l68 -14q-38 -156 -48 -342l-69 12
q-5 68 -27 95q-22 28 -92 28h-195l-69 -491q-1 -25 24 -25h91q108 0 169 29q59 28 105 106l78 131l92 -6q-96 -212 -111 -354q-328 14 -882 0l4 80q80 6 114.5 24.5t40.5 57.5l134 962q6 38 -18 48q-22 12 -107 18z" />
    <glyph glyph-name="Eacute" unicode="&#xc9;" horiz-adv-x="1062" 
d="M809 1522l-332 -125l-28 45l299 231q51 39 96 39q31 0 52.5 -21.5t21.5 -56.5q0 -67 -109 -112zM162 1272h842q37 0 30 -43v-242h-84l-16 51q-35 85 -69 113q-35 29 -113 29h-146q-14 0 -27.5 -11.5t-15.5 -25.5l-61 -443h186q69 0 106 30.5t58 100.5l68 -14
q-38 -156 -48 -342l-69 12q-5 68 -27 95q-22 28 -92 28h-195l-69 -491q-1 -25 24 -25h91q108 0 169 29q59 28 105 106l78 131l92 -6q-96 -212 -111 -354q-328 14 -882 0l4 80q80 6 114.5 24.5t40.5 57.5l134 962q6 38 -18 48q-22 12 -107 18z" />
    <glyph glyph-name="Ecircumflex" unicode="&#xca;" horiz-adv-x="1062" 
d="M918 1317l-248 219l-312 -219l-41 41l353 346h45l258 -346zM162 1272h842q37 0 30 -43v-242h-84l-16 51q-35 85 -69 113q-35 29 -113 29h-146q-14 0 -27.5 -11.5t-15.5 -25.5l-61 -443h186q69 0 106 30.5t58 100.5l68 -14q-38 -156 -48 -342l-69 12q-5 68 -27 95
q-22 28 -92 28h-195l-69 -491q-1 -25 24 -25h91q108 0 169 29q59 28 105 106l78 131l92 -6q-96 -212 -111 -354q-328 14 -882 0l4 80q80 6 114.5 24.5t40.5 57.5l134 962q6 38 -18 48q-22 12 -107 18z" />
    <glyph glyph-name="Edieresis" unicode="&#xcb;" horiz-adv-x="1062" 
d="M555 1455q-38 -38 -90 -38q-53 0 -91 38t-38 91q0 52 38 90q37 37 91 37q53 0 90 -37t37 -90q0 -54 -37 -91zM881 1417q-54 0 -92 38q-37 37 -37 91q0 52 36 90q37 37 93 37q53 0 89 -37q36 -38 36 -90q0 -54 -36 -91q-36 -38 -89 -38zM162 1272h842q37 0 30 -43v-242
h-84l-16 51q-35 85 -69 113q-35 29 -113 29h-146q-14 0 -27.5 -11.5t-15.5 -25.5l-61 -443h186q69 0 106 30.5t58 100.5l68 -14q-38 -156 -48 -342l-69 12q-5 68 -27 95q-22 28 -92 28h-195l-69 -491q-1 -25 24 -25h91q108 0 169 29q59 28 105 106l78 131l92 -6
q-96 -212 -111 -354q-328 14 -882 0l4 80q80 6 114.5 24.5t40.5 57.5l134 962q6 38 -18 48q-22 12 -107 18z" />
    <glyph glyph-name="Igrave" unicode="&#xcc;" horiz-adv-x="675" 
d="M393 1675l279 -233l-31 -47l-344 125q-55 19 -75 68q-19 47 7 87q27 39 73 39t91 -39zM561 1108l-133 -958q-6 -36 23 -50t114 -18l-14 -82q-285 10 -571 0l12 82q76 4 111.5 23t43.5 59l134 958q6 36 -21.5 50t-109.5 18l12 82q284 -10 567 0l-10 -82q-150 -8 -158 -82z
" />
    <glyph glyph-name="Iacute" unicode="&#xcd;" horiz-adv-x="675" 
d="M283 1397l-29 45l299 231q51 39 96 39q31 0 52.5 -21.5t21.5 -56.5q0 -69 -109 -112zM561 1108l-133 -958q-6 -36 23 -50t114 -18l-14 -82q-285 10 -571 0l12 82q76 4 111.5 23t43.5 59l134 958q6 36 -21.5 50t-109.5 18l12 82q284 -10 567 0l-10 -82q-150 -8 -158 -82z
" />
    <glyph glyph-name="Icircumflex" unicode="&#xce;" horiz-adv-x="675" 
d="M475 1704h45l258 -346l-55 -41l-248 219l-311 -219l-41 41zM561 1108l-133 -958q-6 -36 23 -50t114 -18l-14 -82q-285 10 -571 0l12 82q76 4 111.5 23t43.5 59l134 958q6 36 -21.5 50t-109.5 18l12 82q284 -10 567 0l-10 -82q-150 -8 -158 -82z" />
    <glyph glyph-name="Idieresis" unicode="&#xcf;" horiz-adv-x="675" 
d="M360 1455q-36 -38 -90 -38q-53 0 -91 38t-38 91q0 52 38 90q37 37 91 37t90 -37q37 -37 37 -90q0 -54 -37 -91zM686 1417q-54 0 -92 38q-37 37 -37 91q0 53 37 90t92 37q53 0 89 -37q36 -38 36 -90q0 -54 -36 -91q-36 -38 -89 -38zM561 1108l-133 -958q-6 -36 23 -50
t114 -18l-14 -82q-285 10 -571 0l12 82q76 4 111.5 23t43.5 59l134 958q6 36 -21.5 50t-109.5 18l12 82q284 -10 567 0l-10 -82q-150 -8 -158 -82z" />
    <glyph glyph-name="Eth" unicode="&#xd0;" horiz-adv-x="1288" 
d="M672 1272q265 0 417 -122t152 -384q0 -334 -178 -548t-490 -214q-33 0 -141 15q-105 16 -162 16q-44 0 -92 -5q-37 -4 -108 -17q-76 -12 -84 -13l4 84q80 7 114 22q33 15 39 52l58 407h-131l18 142h131l57 407q6 37 -17.5 53.5t-92.5 22.5l2 82q113 -4 178 -4q20 0 162 2
t164 2zM565 84q116 0 205 120q88 120 126 282q38 166 38 333q0 180 -69 274.5t-206 94.5q-49 0 -84 -4l-69 -477h147l-20 -142h-148l-59 -418q-7 -43 16 -53q93 -10 123 -10z" />
    <glyph glyph-name="Ntilde" unicode="&#xd1;" horiz-adv-x="1380" 
d="M1157 1667l76 -12q-18 -121 -87 -181q-70 -59 -161 -59q-54 -2 -108 15.5t-87.5 39.5t-66.5 39.5t-51 16.5q-36 0 -59 -27q-21 -25 -21 -49l-74 12q12 115 72.5 172.5t157.5 57.5q100 0 192 -47q91 -46 135 -46q33 0 58 25t24 43zM903 1190l2 82q259 -8 525 0l-5 -82
q-222 -13 -233 -82l-154 -1108h-86l-518 1010l-123 -860q-4 -34 39 -46.5t164 -21.5l-4 -82q-260 10 -522 0l4 82q218 13 229 82l131 930q4 36 -39 64t-116 32v82q213 -7 430 0l387 -762l90 612q4 33 -39 46t-162 22z" />
    <glyph glyph-name="Ograve" unicode="&#xd2;" horiz-adv-x="1257" 
d="M674 1675l278 -233l-30 -47l-344 125q-55 19 -75 68q-20 48 7 87t72 39t92 -39zM561 -31q-223 0 -356 148t-133 403q0 322 189 553q190 232 474 232q215 0 350 -156q136 -155 136 -401q0 -310 -194 -545q-193 -234 -466 -234zM586 59q88 0 157 75q71 75 108 192
q77 237 77 487q0 185 -55 291q-54 108 -158 108q-91 0 -161 -70q-72 -70 -110 -181q-77 -223 -77 -480q0 -191 57 -306q59 -116 162 -116z" />
    <glyph glyph-name="Oacute" unicode="&#xd3;" horiz-adv-x="1257" 
d="M563 1397l-28 45l299 231q51 39 96 39q31 0 52.5 -21.5t21.5 -56.5q0 -69 -109 -112zM561 -31q-223 0 -356 148t-133 403q0 322 189 553q190 232 474 232q215 0 350 -156q136 -155 136 -401q0 -310 -194 -545q-193 -234 -466 -234zM586 59q88 0 157 75q71 75 108 192
q77 237 77 487q0 185 -55 291q-54 108 -158 108q-91 0 -161 -70q-72 -70 -110 -181q-77 -223 -77 -480q0 -191 57 -306q59 -116 162 -116z" />
    <glyph glyph-name="Ocircumflex" unicode="&#xd4;" horiz-adv-x="1257" 
d="M756 1704h45l258 -346l-55 -41l-248 219l-312 -219l-41 41zM561 -31q-223 0 -356 148t-133 403q0 322 189 553q190 232 474 232q215 0 350 -156q136 -155 136 -401q0 -310 -194 -545q-193 -234 -466 -234zM586 59q88 0 157 75q71 75 108 192q77 237 77 487q0 185 -55 291
q-54 108 -158 108q-91 0 -161 -70q-72 -70 -110 -181q-77 -223 -77 -480q0 -191 57 -306q59 -116 162 -116z" />
    <glyph glyph-name="Otilde" unicode="&#xd5;" horiz-adv-x="1257" 
d="M1085 1667l76 -12q-17 -117 -84.5 -178.5t-163.5 -61.5q-77 0 -139 27q-66 30 -102 56q-40 28 -72 28q-36 0 -59 -27q-21 -25 -21 -49l-74 12q12 115 73 172.5t157 57.5q100 0 192 -47q92 -46 136 -46q33 0 58 25t23 43zM561 -31q-223 0 -356 148t-133 403q0 322 189 553
q190 232 474 232q215 0 350 -156q136 -155 136 -401q0 -310 -194 -545q-193 -234 -466 -234zM586 59q88 0 157 75q71 75 108 192q77 237 77 487q0 185 -55 291q-54 108 -158 108q-91 0 -161 -70q-72 -70 -110 -181q-77 -223 -77 -480q0 -191 57 -306q59 -116 162 -116z" />
    <glyph glyph-name="Odieresis" unicode="&#xd6;" horiz-adv-x="1257" 
d="M641 1455q-38 -38 -90 -38q-53 0 -91 38t-38 91q0 52 38 90q37 37 91 37q53 0 90 -37t37 -90q0 -54 -37 -91zM967 1417q-54 0 -92 38q-37 37 -37 91q0 52 36 90q37 37 93 37q53 0 89 -37q36 -38 36 -90q0 -54 -36 -91q-36 -38 -89 -38zM561 -31q-223 0 -356 148t-133 403
q0 322 189 553q190 232 474 232q215 0 350 -156q136 -155 136 -401q0 -310 -194 -545q-193 -234 -466 -234zM586 59q88 0 157 75q71 75 108 192q77 237 77 487q0 185 -55 291q-54 108 -158 108q-91 0 -161 -70q-72 -70 -110 -181q-77 -223 -77 -480q0 -191 57 -306
q59 -116 162 -116z" />
    <glyph glyph-name="multiply" unicode="&#xd7;" horiz-adv-x="854" 
d="M676 850l94 -119l-231 -215l172 -217l-129 -119l-172 215l-232 -215l-96 119l233 217l-172 215l127 119l172 -215z" />
    <glyph glyph-name="Oslash" unicode="&#xd8;" horiz-adv-x="1257" 
d="M1094 1305l129 -105l-88 -117q86 -143 86 -335q0 -310 -194 -545q-193 -234 -466 -234q-127 0 -229 51l-39 -51l-129 105l37 49q-129 147 -129 397q0 322 189 553q190 232 474 232q163 0 287 -95zM367 481q0 -70 8 -129l522 692q-51 168 -182 168q-91 0 -161 -70
q-72 -70 -110 -181q-77 -223 -77 -480zM586 59q88 0 156 74q68 73 108 190q78 234 78 486l-494 -653q58 -97 152 -97z" />
    <glyph glyph-name="Ugrave" unicode="&#xd9;" horiz-adv-x="1425" 
d="M1030 1395l-344 125q-55 19 -75 68q-19 47 7 87q29 39 73 39t91 -39l279 -233zM903 1190l2 82q285 -6 570 0l-5 -82q-147 -7 -159 -82l-133 -958q-4 -38 21 -51q23 -12 108 -17l-4 -82q-69 4 -235 4q-163 0 -218 -4l6 86q33 20 39 78l6 45q-151 -229 -389 -229
q-173 0 -265 91q-93 91 -93 246q0 27 110 805q4 36 -22 50t-107 18l2 82q285 -6 572 0l-4 -82q-146 -7 -160 -82q-109 -781 -109 -850q0 -184 127 -184q190 0 359 274l110 774q4 36 -22 50t-107 18z" />
    <glyph glyph-name="Uacute" unicode="&#xda;" horiz-adv-x="1425" 
d="M1004 1522l-332 -125l-29 45l299 231q51 39 96 39q31 0 52.5 -21.5t21.5 -56.5q1 -67 -108 -112zM903 1190l2 82q285 -6 570 0l-5 -82q-147 -7 -159 -82l-133 -958q-4 -38 21 -51q23 -12 108 -17l-4 -82q-69 4 -235 4q-163 0 -218 -4l6 86q33 20 39 78l6 45
q-151 -229 -389 -229q-173 0 -265 91q-93 91 -93 246q0 27 110 805q4 36 -22 50t-107 18l2 82q285 -6 572 0l-4 -82q-146 -7 -160 -82q-109 -781 -109 -850q0 -184 127 -184q190 0 359 274l110 774q4 36 -22 50t-107 18z" />
    <glyph glyph-name="Ucircumflex" unicode="&#xdb;" horiz-adv-x="1425" 
d="M1112 1317l-248 219l-311 -219l-41 41l352 346h45l258 -346zM903 1190l2 82q285 -6 570 0l-5 -82q-147 -7 -159 -82l-133 -958q-4 -38 21 -51q23 -12 108 -17l-4 -82q-69 4 -235 4q-163 0 -218 -4l6 86q33 20 39 78l6 45q-151 -229 -389 -229q-173 0 -265 91
q-93 91 -93 246q0 27 110 805q4 36 -22 50t-107 18l2 82q285 -6 572 0l-4 -82q-146 -7 -160 -82q-109 -781 -109 -850q0 -184 127 -184q190 0 359 274l110 774q4 36 -22 50t-107 18z" />
    <glyph glyph-name="Udieresis" unicode="&#xdc;" horiz-adv-x="1425" 
d="M749 1455q-36 -38 -90 -38q-53 0 -91 38t-38 91q0 52 38 90q37 37 91 37t90 -37q37 -37 37 -90q0 -54 -37 -91zM1075 1417q-54 0 -92 38q-37 37 -37 91q0 53 37 90t92 37q53 0 89 -37q36 -38 36 -90q0 -54 -36 -91q-36 -38 -89 -38zM903 1190l2 82q285 -6 570 0l-5 -82
q-147 -7 -159 -82l-133 -958q-4 -38 21 -51q23 -12 108 -17l-4 -82q-69 4 -235 4q-163 0 -218 -4l6 86q33 20 39 78l6 45q-151 -229 -389 -229q-173 0 -265 91q-93 91 -93 246q0 27 110 805q4 36 -22 50t-107 18l2 82q285 -6 572 0l-4 -82q-146 -7 -160 -82
q-109 -781 -109 -850q0 -184 127 -184q190 0 359 274l110 774q4 36 -22 50t-107 18z" />
    <glyph glyph-name="Yacute" unicode="&#xdd;" horiz-adv-x="1259" 
d="M575 1397l-28 45l299 231q51 39 96 39q31 0 52.5 -21.5t21.5 -56.5q0 -69 -109 -112zM942 1190l2 82q190 -7 383 0l-4 -82q-121 -10 -193 -127l-358 -555l-53 -358q-4 -37 22 -51q26 -13 109 -19l-2 -80q-283 10 -569 0l4 82q145 7 157 82l49 338l-229 614q-8 26 -15 36
q-19 31 -110 38l2 82q283 -10 570 0l-5 -82q-73 -6 -103 -29t-17 -57l170 -467l278 440q66 98 -88 113z" />
    <glyph glyph-name="Thorn" unicode="&#xde;" horiz-adv-x="1144" 
d="M549 1026h65q238 0 370 -108q132 -106 106 -293q-25 -172 -182 -272q-156 -99 -394 -99h-72l-14 -104q-6 -36 23 -50t114 -18l-14 -82q-285 10 -571 0l12 82q76 4 111.5 23t43.5 59l134 958q6 36 -21.5 50t-109.5 18l12 82q284 -10 567 0l-10 -82q-150 -8 -158 -82z
M823 653q17 113 -30 197q-45 84 -158 84h-98l-82 -588h88q113 0 188 92q75 90 92 215z" />
    <glyph glyph-name="germandbls" unicode="&#xdf;" horiz-adv-x="1214" 
d="M496 604l-64 -424q-12 -80 -68 -130t-128 -50h-252l6 82q82 6 116.5 23.5t38.5 56.5l105 737q26 190 134 280q110 93 337 93q375 0 375 -283q0 -215 -226 -293q141 -25 207 -95.5t66 -199.5q0 -209 -158 -305q-157 -96 -424 -96h-41l12 84h29q139 0 219 93q80 94 80 226
q0 219 -250 220zM532 909l-30 -217l39 6q154 20 224.5 98t70.5 226q0 166 -121 166q-79 0 -122 -67.5t-61 -211.5z" />
    <glyph glyph-name="agrave" unicode="&#xe0;" horiz-adv-x="1175" 
d="M612 1430l279 -234l-31 -47l-344 125q-55 19 -75 68q-19 49 7 87q27 39 72 39t92 -38zM1090 227q20 -18 -3 -47q-76 -93 -165.5 -143.5t-169.5 -50.5q-70 0 -104 40t-21 107l30 154q-59 -154 -139.5 -227.5t-204.5 -73.5q-118 0 -198 71q-78 72 -78 234q0 133 57 268
q59 137 151 242q92 107 225 175t269 68q131 0 281 -59l-123 -772q-7 -55 39 -55q48 0 115 67q20 18 39 2zM403 96q104 0 188 189q85 191 132 444l37 205q-18 37 -84 37q-94 0 -171 -74q-76 -73 -120 -184q-86 -219 -86 -408q0 -96 27.5 -152.5t76.5 -56.5z" />
    <glyph glyph-name="aacute" unicode="&#xe1;" horiz-adv-x="1175" 
d="M502 1151l-29 45l299 231q51 39 96 39q31 0 52.5 -22t21.5 -55q0 -68 -108 -113zM1090 227q20 -18 -3 -47q-76 -93 -165.5 -143.5t-169.5 -50.5q-70 0 -104 40t-21 107l30 154q-59 -154 -139.5 -227.5t-204.5 -73.5q-118 0 -198 71q-78 72 -78 234q0 133 57 268
q59 137 151 242q92 107 225 175t269 68q131 0 281 -59l-123 -772q-7 -55 39 -55q48 0 115 67q20 18 39 2zM403 96q104 0 188 189q85 191 132 444l37 205q-18 37 -84 37q-94 0 -171 -74q-76 -73 -120 -184q-86 -219 -86 -408q0 -96 27.5 -152.5t76.5 -56.5z" />
    <glyph glyph-name="acircumflex" unicode="&#xe2;" horiz-adv-x="1175" 
d="M694 1458h45l258 -346l-55 -41l-248 219l-311 -219l-41 41zM1090 227q20 -18 -3 -47q-76 -93 -165.5 -143.5t-169.5 -50.5q-70 0 -104 40t-21 107l30 154q-59 -154 -139.5 -227.5t-204.5 -73.5q-118 0 -198 71q-78 72 -78 234q0 133 57 268q59 137 151 242
q92 107 225 175t269 68q131 0 281 -59l-123 -772q-7 -55 39 -55q48 0 115 67q20 18 39 2zM403 96q104 0 188 189q85 191 132 444l37 205q-18 37 -84 37q-94 0 -171 -74q-76 -73 -120 -184q-86 -219 -86 -408q0 -96 27.5 -152.5t76.5 -56.5z" />
    <glyph glyph-name="atilde" unicode="&#xe3;" horiz-adv-x="1175" 
d="M1024 1421l76 -12q-18 -121 -87 -181q-70 -59 -161 -59q-54 -1 -108 16.5t-87.5 39.5t-66.5 39.5t-51 15.5q-37 0 -59 -27q-21 -25 -21 -49l-74 13q12 115 72.5 172t156.5 57q101 0 192 -46q92 -46 136 -46q32 0 58 24q25 25 24 43zM1090 227q20 -18 -3 -47
q-76 -93 -165.5 -143.5t-169.5 -50.5q-70 0 -104 40t-21 107l30 154q-59 -154 -139.5 -227.5t-204.5 -73.5q-118 0 -198 71q-78 72 -78 234q0 133 57 268q59 137 151 242q92 107 225 175t269 68q131 0 281 -59l-123 -772q-7 -55 39 -55q48 0 115 67q20 18 39 2zM403 96
q104 0 188 189q85 191 132 444l37 205q-18 37 -84 37q-94 0 -171 -74q-76 -73 -120 -184q-86 -219 -86 -408q0 -96 27.5 -152.5t76.5 -56.5z" />
    <glyph glyph-name="adieresis" unicode="&#xe4;" horiz-adv-x="1175" 
d="M579 1209q-36 -38 -90 -38q-53 0 -91 38t-38 91q0 54 38 90q37 37 91 37t90 -37q37 -36 37 -90t-37 -91zM905 1171q-54 0 -92 38q-37 37 -37 91t37 90q37 37 92 37q53 0 89 -37q36 -36 36 -90t-36 -91q-36 -38 -89 -38zM1090 227q20 -18 -3 -47q-76 -93 -165.5 -143.5
t-169.5 -50.5q-70 0 -104 40t-21 107l30 154q-59 -154 -139.5 -227.5t-204.5 -73.5q-118 0 -198 71q-78 72 -78 234q0 133 57 268q59 137 151 242q92 107 225 175t269 68q131 0 281 -59l-123 -772q-7 -55 39 -55q48 0 115 67q20 18 39 2zM403 96q104 0 188 189
q85 191 132 444l37 205q-18 37 -84 37q-94 0 -171 -74q-76 -73 -120 -184q-86 -219 -86 -408q0 -96 27.5 -152.5t76.5 -56.5z" />
    <glyph glyph-name="aring" unicode="&#xe5;" horiz-adv-x="1175" 
d="M682 1137q-68 0 -108 46q-39 46 -31 111q7 65 58 111q49 45 118 45q65 0 106 -45t33 -111q-7 -64 -59 -111q-50 -46 -117 -46zM690 1217q29 0 55 23q28 24 29 54q4 28 -16 52q-19 24 -47 24q-30 0 -56 -23t-30 -53q-4 -31 15 -54t50 -23zM1090 227q20 -18 -3 -47
q-76 -93 -165.5 -143.5t-169.5 -50.5q-70 0 -104 40t-21 107l30 154q-59 -154 -139.5 -227.5t-204.5 -73.5q-118 0 -198 71q-78 72 -78 234q0 133 57 268q59 137 151 242q92 107 225 175t269 68q131 0 281 -59l-123 -772q-7 -55 39 -55q48 0 115 67q20 18 39 2zM403 96
q104 0 188 189q85 191 132 444l37 205q-18 37 -84 37q-94 0 -171 -74q-76 -73 -120 -184q-86 -219 -86 -408q0 -96 27.5 -152.5t76.5 -56.5z" />
    <glyph glyph-name="ae" unicode="&#xe6;" horiz-adv-x="1515" 
d="M1380 307h29q48 0 4 -74q-164 -248 -407 -247q-130 0 -224 73q-93 73 -110 228l-17 -31q-67 -143 -136 -206q-70 -64 -212 -64q-117 0 -194 69q-76 70 -76 232q0 186 90 360t249 285q158 112 341 112q151 0 278 -86q131 84 262 84q106 0 161 -50t55 -134
q0 -271 -541 -461q-8 -116 43 -181q51 -66 135 -66q124 0 231 129q26 29 39 28zM401 96q100 0 199 221q99 219 125 412l29 205q-49 37 -105 37q-93 0 -167 -72q-72 -72 -110 -182q-75 -213 -75 -408q0 -213 104 -213zM1194 969q-82 0 -160 -149q-79 -150 -98 -349
q322 113 321 387q0 111 -63 111z" />
    <glyph glyph-name="ccedilla" unicode="&#xe7;" horiz-adv-x="897" 
d="M756 668q-47 0 -73 26.5t-26 71.5q0 37 7 80q9 57 10 69q2 26 -16 43t-58 17q-94 0 -166 -89q-73 -89 -104 -207q-31 -117 -31 -235q0 -139 50 -216.5t143 -77.5q119 0 233 131q23 28 37 26h29q16 0 21 -10t0.5 -24t-15.5 -29q-145 -238 -381 -256l-29 -51
q205 -67 205 -185q0 -78 -79 -120t-177 -42q-87 0 -146 32q-57 32 -57 93q0 31 20 51.5t52 20.5q36 0 50.5 -21t10.5 -52q-4 -32 11.5 -53t54.5 -21q48 0 75 27t27 75q0 42 -28 70t-89 49q-45 14 -41 51q0 4 6.5 12t21 25.5t28.5 38.5q-127 13 -207 104t-80 264
q0 262 173 474t400 212q117 0 192 -66q75 -64 75 -157q0 -64 -36 -107q-36 -44 -93 -44z" />
    <glyph glyph-name="egrave" unicode="&#xe8;" horiz-adv-x="913" 
d="M539 1430l278 -234l-31 -47l-344 125q-55 19 -75 68q-19 49 7 87q27 39 72.5 39t92.5 -38zM768 307h29q48 0 4 -74q-164 -248 -408 -247q-145 0 -242 90q-96 90 -96 278q0 250 180 469q181 219 410 219q106 0 160.5 -49.5t54.5 -134.5q0 -271 -541 -461q-8 -116 43 -181
q52 -66 136 -66q124 0 231 129q26 29 39 28zM645 858q0 111 -63 111q-82 0 -160 -149q-79 -150 -98 -349q321 113 321 387z" />
    <glyph glyph-name="eacute" unicode="&#xe9;" horiz-adv-x="913" 
d="M428 1151l-29 45l299 231q51 39 97 39q31 0 52 -22t21 -55q0 -68 -108 -113zM768 307h29q48 0 4 -74q-164 -248 -408 -247q-145 0 -242 90q-96 90 -96 278q0 250 180 469q181 219 410 219q106 0 160.5 -49.5t54.5 -134.5q0 -271 -541 -461q-8 -116 43 -181
q52 -66 136 -66q124 0 231 129q26 29 39 28zM645 858q0 111 -63 111q-82 0 -160 -149q-79 -150 -98 -349q321 113 321 387z" />
    <glyph glyph-name="ecircumflex" unicode="&#xea;" horiz-adv-x="913" 
d="M621 1458h45l258 -346l-56 -41l-247 219l-312 -219l-41 41zM768 307h29q48 0 4 -74q-164 -248 -408 -247q-145 0 -242 90q-96 90 -96 278q0 250 180 469q181 219 410 219q106 0 160.5 -49.5t54.5 -134.5q0 -271 -541 -461q-8 -116 43 -181q52 -66 136 -66q124 0 231 129
q26 29 39 28zM645 858q0 111 -63 111q-82 0 -160 -149q-79 -150 -98 -349q321 113 321 387z" />
    <glyph glyph-name="edieresis" unicode="&#xeb;" horiz-adv-x="913" 
d="M506 1209q-38 -38 -91 -38t-91 38q-37 37 -37 91t37 90q37 37 91 37t91 -37q37 -36 37 -90t-37 -91zM831 1171q-54 0 -92 38q-37 37 -37 91t37 90q37 37 92 37q53 0 89 -37q36 -36 36 -90t-36 -91q-36 -38 -89 -38zM768 307h29q48 0 4 -74q-164 -248 -408 -247
q-145 0 -242 90q-96 90 -96 278q0 250 180 469q181 219 410 219q106 0 160.5 -49.5t54.5 -134.5q0 -271 -541 -461q-8 -116 43 -181q52 -66 136 -66q124 0 231 129q26 29 39 28zM645 858q0 111 -63 111q-82 0 -160 -149q-79 -150 -98 -349q321 113 321 387z" />
    <glyph glyph-name="igrave" unicode="&#xec;" horiz-adv-x="698" 
d="M383 1430l279 -234l-31 -47l-344 125q-55 19 -75 68q-19 49 7 87q27 39 72 39t92 -38zM612 227q20 -19 -2 -47q-76 -94 -166 -144t-174 -50q-68 0 -98.5 40t-17.5 107l131 688q7 51 -33 51q-46 0 -125 -77q-25 -25 -45 -2q-16 16 6 47q172 206 354 204q136 0 107 -159
l-127 -672q-12 -55 37 -55q47 0 114 67q20 18 39 2z" />
    <glyph glyph-name="iacute" unicode="&#xed;" horiz-adv-x="698" 
d="M272 1151l-28 45l299 231q51 39 96 39q31 0 52.5 -22t21.5 -55q0 -68 -109 -113zM612 227q20 -19 -2 -47q-76 -94 -166 -144t-174 -50q-68 0 -98.5 40t-17.5 107l131 688q7 51 -33 51q-46 0 -125 -77q-25 -25 -45 -2q-16 16 6 47q172 206 354 204q136 0 107 -159
l-127 -672q-12 -55 37 -55q47 0 114 67q20 18 39 2z" />
    <glyph glyph-name="icircumflex" unicode="&#xee;" horiz-adv-x="698" 
d="M465 1458h45l258 -346l-55 -41l-248 219l-311 -219l-41 41zM612 227q20 -19 -2 -47q-76 -94 -166 -144t-174 -50q-68 0 -98.5 40t-17.5 107l131 688q7 51 -33 51q-46 0 -125 -77q-25 -25 -45 -2q-16 16 6 47q172 206 354 204q136 0 107 -159l-127 -672q-12 -55 37 -55
q47 0 114 67q20 18 39 2z" />
    <glyph glyph-name="idieresis" unicode="&#xef;" horiz-adv-x="698" 
d="M350 1209q-38 -38 -90 -38q-53 0 -91 38t-38 91q0 54 38 90q37 37 91 37q53 0 90 -37q37 -36 37 -90t-37 -91zM676 1171q-54 0 -92 38q-37 37 -37 91t37 90q37 37 92 37q53 0 89 -37q36 -36 36 -90t-36 -91q-36 -38 -89 -38zM612 227q20 -19 -2 -47q-76 -94 -166 -144
t-174 -50q-68 0 -98.5 40t-17.5 107l131 688q7 51 -33 51q-46 0 -125 -77q-25 -25 -45 -2q-16 16 6 47q172 206 354 204q136 0 107 -159l-127 -672q-12 -55 37 -55q47 0 114 67q20 18 39 2z" />
    <glyph glyph-name="eth" unicode="&#xf0;" horiz-adv-x="1161" 
d="M1022 1286l192 53l-10 -82l-143 -38q29 -87 8 -240l-100 -719q-8 -53 20.5 -70t85.5 0l-4 -96q-78 -21 -164 -55q-39 -15 -86.5 -35t-68 -27.5t-31.5 -7.5q-34 0 -49 24.5t-4 65.5l26 80q-65 -86 -126.5 -128t-141.5 -42q-168 0 -284 143q-115 143 -83 388q18 132 71 240
q54 107 125 171q146 131 292 131q155 0 237 -141l27 168q6 45 2 82l-254 -70l10 82l197 54q-45 20 -182 10v84q208 39 258 39q123 0 180 -64zM705 322l71 489q-76 139 -196 139q-169 0 -230 -454q-61 -444 111 -445q72 0 144 83q73 83 100 188z" />
    <glyph glyph-name="ntilde" unicode="&#xf1;" horiz-adv-x="1339" 
d="M1036 1421l76 -12q-18 -121 -87 -181q-70 -59 -161 -59q-54 -1 -107.5 16.5t-87 39.5t-66.5 39.5t-52 15.5q-37 0 -59 -27q-21 -25 -21 -49l-74 13q12 115 73 172t157 57q101 0 192 -46t135 -46q32 0 58 24q25 25 24 43zM1253 227q23 -17 -2 -47q-74 -93 -165 -143.5
t-175 -50.5q-68 0 -100.5 40t-17.5 107l100 551q21 115 9 176.5t-68 65.5q-119 0 -245 -252t-183 -674h-238l119 821q7 51 -35 51q-46 0 -125 -77q-25 -25 -45 -2q-16 16 6 47q170 203 354 202q136 0 105 -157l-66 -332q78 225 186 357q109 132 279 132q276 0 207 -358
l-88 -471q-12 -55 37 -55q44 0 115 67q18 18 36 2z" />
    <glyph glyph-name="ograve" unicode="&#xf2;" horiz-adv-x="1067" 
d="M590 1430l278 -234l-30 -47l-344 125q-55 19 -75 68q-20 50 7 88q29 39 74 38.5t90 -38.5zM618 1042q169 0 284 -101q114 -101 114 -308q0 -255 -167 -452q-167 -195 -388 -195q-160 0 -279 107q-119 108 -119 315q0 254 169 444t386 190zM745 735q0 116 -35 177t-98 61
q-84 0 -151 -105q-66 -103 -99 -257q-32 -154 -32 -314q0 -118 35 -179t100 -61q119 0 199 210q81 210 81 468z" />
    <glyph glyph-name="oacute" unicode="&#xf3;" horiz-adv-x="1067" 
d="M479 1151l-28 45l299 231q51 39 96 39q31 0 52.5 -22t21.5 -55q0 -68 -109 -113zM618 1042q169 0 284 -101q114 -101 114 -308q0 -255 -167 -452q-167 -195 -388 -195q-160 0 -279 107q-119 108 -119 315q0 254 169 444t386 190zM745 735q0 116 -35 177t-98 61
q-84 0 -151 -105q-66 -103 -99 -257q-32 -154 -32 -314q0 -118 35 -179t100 -61q119 0 199 210q81 210 81 468z" />
    <glyph glyph-name="ocircumflex" unicode="&#xf4;" horiz-adv-x="1067" 
d="M672 1458h45l258 -346l-55 -41l-248 219l-312 -219l-41 41zM618 1042q169 0 284 -101q114 -101 114 -308q0 -255 -167 -452q-167 -195 -388 -195q-160 0 -279 107q-119 108 -119 315q0 254 169 444t386 190zM745 735q0 116 -35 177t-98 61q-84 0 -151 -105
q-66 -103 -99 -257q-32 -154 -32 -314q0 -118 35 -179t100 -61q119 0 199 210q81 210 81 468z" />
    <glyph glyph-name="otilde" unicode="&#xf5;" horiz-adv-x="1067" 
d="M1001 1421l76 -12q-17 -117 -84.5 -178.5t-163.5 -61.5q-54 -1 -107.5 16.5t-87 39.5t-66.5 39.5t-52 15.5q-36 0 -59 -27q-21 -25 -21 -49l-74 13q12 115 73 172t157 57q101 0 192 -46q92 -46 136 -46q32 0 58 24q26 26 23 43zM618 1042q169 0 284 -101
q114 -101 114 -308q0 -255 -167 -452q-167 -195 -388 -195q-160 0 -279 107q-119 108 -119 315q0 254 169 444t386 190zM745 735q0 116 -35 177t-98 61q-84 0 -151 -105q-66 -103 -99 -257q-32 -154 -32 -314q0 -118 35 -179t100 -61q119 0 199 210q81 210 81 468z" />
    <glyph glyph-name="odieresis" unicode="&#xf6;" horiz-adv-x="1067" 
d="M557 1209q-38 -38 -90 -38q-53 0 -91 38t-38 91q0 54 38 90q37 37 91 37q53 0 90 -37q37 -36 37 -90t-37 -91zM883 1171q-54 0 -92 38q-37 37 -37 91t36.5 90.5t92.5 36.5q53 0 89 -37q36 -36 36 -90t-36 -91q-36 -38 -89 -38zM618 1042q169 0 284 -101
q114 -101 114 -308q0 -255 -167 -452q-167 -195 -388 -195q-160 0 -279 107q-119 108 -119 315q0 254 169 444t386 190zM745 735q0 116 -35 177t-98 61q-84 0 -151 -105q-66 -103 -99 -257q-32 -154 -32 -314q0 -118 35 -179t100 -61q119 0 199 210q81 210 81 468z" />
    <glyph glyph-name="divide" unicode="&#xf7;" horiz-adv-x="940" 
d="M498 707q-48 0 -80 39q-31 39 -23 98q8 44 43.5 75t79.5 31q49 0 80 -40q31 -39 23 -95q-6 -45 -42 -76.5t-81 -31.5zM129 479l14 107h674l-14 -107h-674zM410 80q-49 0 -80 40q-31 39 -23 97q8 44 43.5 75.5t79.5 31.5q49 0 80 -40t22 -96q-6 -45 -41.5 -76.5
t-80.5 -31.5z" />
    <glyph glyph-name="oslash" unicode="&#xf8;" horiz-adv-x="1067" 
d="M958 973l-38 -51q96 -107 96 -289q0 -255 -167 -452q-167 -195 -388 -195q-113 0 -207 55l-43 -57l-82 61l45 57q-111 116 -111 306q0 254 169 444t386 190q132 0 224 -55l37 47zM612 973q-123 0 -202 -205q-79 -207 -80 -459l405 535q-31 129 -123 129zM465 57
q113 0 192 192q81 196 88 441l-399 -526q33 -107 119 -107z" />
    <glyph glyph-name="ugrave" unicode="&#xf9;" 
d="M688 1430l279 -234l-31 -47l-344 125q-55 19 -75 68q-19 48 7 88q29 39 74 38.5t90 -38.5zM86 799q-20 19 2 47q76 94 166 144t174 50q69 0 101 -39.5t18 -107.5l-103 -551q-47 -242 60 -242q116 0 240 252q125 250 184 674h237l-116 -821q-7 -51 34 -51q40 0 123 77
q23 23 45 2q18 -16 -6 -47q-170 -204 -352 -202q-135 0 -107 157l66 332q-78 -225 -186 -357q-106 -132 -275 -132q-121 0 -185 81q-63 82 -24 277l94 471q12 55 -36 55q-46 0 -117 -67q-20 -18 -37 -2z" />
    <glyph glyph-name="uacute" unicode="&#xfa;" 
d="M578 1151l-29 45l299 231q51 39 96 39q31 0 52.5 -22t21.5 -55q0 -68 -109 -113zM86 799q-20 19 2 47q76 94 166 144t174 50q69 0 101 -39.5t18 -107.5l-103 -551q-47 -242 60 -242q116 0 240 252q125 250 184 674h237l-116 -821q-7 -51 34 -51q40 0 123 77q23 23 45 2
q18 -16 -6 -47q-170 -204 -352 -202q-135 0 -107 157l66 332q-78 -225 -186 -357q-106 -132 -275 -132q-121 0 -185 81q-63 82 -24 277l94 471q12 55 -36 55q-46 0 -117 -67q-20 -18 -37 -2z" />
    <glyph glyph-name="ucircumflex" unicode="&#xfb;" 
d="M770 1458h45l258 -346l-55 -41l-248 219l-311 -219l-41 41zM86 799q-20 19 2 47q76 94 166 144t174 50q69 0 101 -39.5t18 -107.5l-103 -551q-47 -242 60 -242q116 0 240 252q125 250 184 674h237l-116 -821q-7 -51 34 -51q40 0 123 77q23 23 45 2q18 -16 -6 -47
q-170 -204 -352 -202q-135 0 -107 157l66 332q-78 -225 -186 -357q-106 -132 -275 -132q-121 0 -185 81q-63 82 -24 277l94 471q12 55 -36 55q-46 0 -117 -67q-20 -18 -37 -2z" />
    <glyph glyph-name="udieresis" unicode="&#xfc;" 
d="M655 1209q-38 -38 -90 -38q-53 0 -91 38t-38 91q0 54 38 90q37 37 91 37q53 0 90 -37q37 -36 37 -90t-37 -91zM981 1171q-54 0 -92 38q-37 37 -37 91t37 90q37 37 92 37q53 0 89 -37q36 -36 36 -90t-36 -91q-36 -38 -89 -38zM86 799q-20 19 2 47q76 94 166 144t174 50
q69 0 101 -39.5t18 -107.5l-103 -551q-47 -242 60 -242q116 0 240 252q125 250 184 674h237l-116 -821q-7 -51 34 -51q40 0 123 77q23 23 45 2q18 -16 -6 -47q-170 -204 -352 -202q-135 0 -107 157l66 332q-78 -225 -186 -357q-106 -132 -275 -132q-121 0 -185 81
q-63 82 -24 277l94 471q12 55 -36 55q-46 0 -117 -67q-20 -18 -37 -2z" />
    <glyph glyph-name="yacute" unicode="&#xfd;" horiz-adv-x="1058" 
d="M784 1276l-331 -125l-29 45l299 231q51 39 96 39q31 0 52.5 -22t21.5 -55q0 -68 -109 -113zM854 1047q77 0 124.5 -57.5t47.5 -160.5q0 -298 -270 -794q-156 -283 -249 -382q-95 -102 -188 -102q-75 0 -125 46q-51 45 -51 118q0 63 38 102.5t95 39.5q29 1 55 -16.5
t41.5 -39.5t32.5 -39.5t31 -15.5q46 0 137 148l-323 845q-25 63 -70 64q-41 0 -86 -27q-23 -14 -37 15q-11 23 9 32q72 40 141 98q14 12 35.5 30.5t32 27.5t25.5 22t23 19t18 12.5t16.5 9t11.5 2.5q45 0 90 -116q4 -6 6 -13l270 -727q187 376 189 578q0 20 -5.5 21.5
t-28.5 -6t-46 -7.5q-57 0 -96 40t-39 95q0 56 41 97t104 41z" />
    <glyph glyph-name="thorn" unicode="&#xfe;" horiz-adv-x="1157" 
d="M750 1042q135 0 242 -122q108 -121 108 -334q0 -243 -157 -430t-374 -187q-127 0 -207 107l-30 -221q-6 -54 25.5 -68.5t99.5 -1.5l-6 -90q-121 -25 -264 -81q-144 -56 -171 -56q-45 0 -45 45q0 26 33 59q14 14 29.5 58t23.5 106l172 1231q8 52 -16.5 66.5t-87.5 4.5
l4 86q90 18 166 52q41 18 86 40.5t67.5 33t32.5 10.5q57 0 47 -78l-47 -334q113 104 269 104zM571 51q62 0 110.5 55.5t75.5 149.5q54 184 54 397q0 141 -36 219t-103 78q-96 0 -205 -121l-76 -544l2 2q-2 -98 51 -167q52 -69 127 -69z" />
    <glyph glyph-name="ydieresis" unicode="&#xff;" horiz-adv-x="1058" 
d="M530 1209q-36 -38 -90 -38q-53 0 -91 38t-38 91q0 54 38 90q37 37 91 37t90 -37q37 -36 37 -90t-37 -91zM856 1171q-54 0 -92 38q-37 37 -37 91t37 90q37 37 92 37q53 0 89 -37q36 -36 36 -90t-36 -91q-36 -38 -89 -38zM854 1047q77 0 124.5 -57.5t47.5 -160.5
q0 -298 -270 -794q-156 -283 -249 -382q-95 -102 -188 -102q-75 0 -125 46q-51 45 -51 118q0 63 38 102.5t95 39.5q29 1 55 -16.5t41.5 -39.5t32.5 -39.5t31 -15.5q46 0 137 148l-323 845q-25 63 -70 64q-41 0 -86 -27q-23 -14 -37 15q-11 23 9 32q72 40 141 98
q14 12 35.5 30.5t32 27.5t25.5 22t23 19t18 12.5t16.5 9t11.5 2.5q45 0 90 -116q4 -6 6 -13l270 -727q187 376 189 578q0 20 -5.5 21.5t-28.5 -6t-46 -7.5q-57 0 -96 40t-39 95q0 56 41 97t104 41z" />
    <glyph glyph-name="Amacron" unicode="&#x100;" 
d="M1094 1444h-566q-38 0 -30 35l8 82q6 36 41 34h563q37 0 31 -34l-8 -82q-6 -35 -39 -35zM862 1282l215 -1018q26 -108 56 -141q32 -35 122 -41l-4 -82q-295 7 -598 0l4 82q93 6 130.5 30.5t25.5 80.5l-51 239h-352l-113 -252q-13 -34 -8 -48t28 -29q11 -6 39 -11
q45 -6 113 -10v-82q-252 10 -504 0l4 82q100 6 154 39q55 33 90 104l487 1057h162zM647 961l-198 -443h294z" />
    <glyph glyph-name="amacron" unicode="&#x101;" horiz-adv-x="1175" 
d="M377 1233l8 82q6 35 41 35h563q37 0 31 -35l-8 -82q-6 -35 -39 -35h-565q-37 0 -31 35zM1090 227q20 -18 -3 -47q-76 -93 -165.5 -143.5t-169.5 -50.5q-70 0 -104 40t-21 107l30 154q-59 -154 -139.5 -227.5t-204.5 -73.5q-118 0 -198 71q-78 72 -78 234q0 133 57 268
q59 137 151 242q92 107 225 175t269 68q131 0 281 -59l-123 -772q-7 -55 39 -55q48 0 115 67q20 18 39 2zM403 96q104 0 188 189q85 191 132 444l37 205q-18 37 -84 37q-94 0 -171 -74q-76 -73 -120 -184q-86 -219 -86 -408q0 -96 27.5 -152.5t76.5 -56.5z" />
    <glyph glyph-name="Abreve" unicode="&#x102;" 
d="M809 1413q-122 0 -192 73t-62 204h113q4 -48 48.5 -79.5t110.5 -31.5q69 0 120.5 31t66.5 80h114q-22 -129 -112 -203q-89 -74 -207 -74zM862 1282l215 -1018q26 -108 56 -141q32 -35 122 -41l-4 -82q-295 7 -598 0l4 82q93 6 130.5 30.5t25.5 80.5l-51 239h-352
l-113 -252q-13 -34 -8 -48t28 -29q11 -6 39 -11q45 -6 113 -10v-82q-252 10 -504 0l4 82q100 6 154 39q55 33 90 104l487 1057h162zM647 961l-198 -443h294z" />
    <glyph glyph-name="abreve" unicode="&#x103;" horiz-adv-x="1175" 
d="M688 1167q-122 0 -192 73t-62 204h113q4 -48 48.5 -79.5t111.5 -31.5q69 0 121 32q51 32 65 79h115q-22 -129 -112 -203q-89 -74 -208 -74zM1090 227q20 -18 -3 -47q-76 -93 -165.5 -143.5t-169.5 -50.5q-70 0 -104 40t-21 107l30 154q-59 -154 -139.5 -227.5
t-204.5 -73.5q-118 0 -198 71q-78 72 -78 234q0 133 57 268q59 137 151 242q92 107 225 175t269 68q131 0 281 -59l-123 -772q-7 -55 39 -55q48 0 115 67q20 18 39 2zM403 96q104 0 188 189q85 191 132 444l37 205q-18 37 -84 37q-94 0 -171 -74q-76 -73 -120 -184
q-86 -219 -86 -408q0 -96 27.5 -152.5t76.5 -56.5z" />
    <glyph glyph-name="Aogonek" unicode="&#x104;" horiz-adv-x="1329" 
d="M862 1282l217 -1012q22 -105 55 -144q33 -38 123 -44l-12 -82q-101 12 -180 12q-173 0 -287 -55q-114 -56 -114 -166q0 -84 92 -84q49 0 77.5 15.5t53.5 54.5l53 -41q-40 -59 -117 -104q-77 -46 -186 -46q-78 0 -138 36q-59 36 -59 116q0 76 55 136.5t171 127.5
q13 9 56 31q34 18 51 29q40 31 40 71q0 29 -6 53l-51 246h-355l-110 -244q-6 -22 -9 -39q-2 -10 6.5 -19.5t15 -13.5t22.5 -13q17 -8 44 -12q10 -2 103 -9l-12 -82q-63 4 -250 4q-188 0 -252 -4l12 82q100 6 154 35q54 31 86 100l487 1065h164zM643 961l-203 -443h297z" />
    <glyph glyph-name="aogonek" unicode="&#x105;" horiz-adv-x="1175" 
d="M1090 227q20 -18 -3 -47q-48 -60 -172 -134q-133 -80 -211 -136q-88 -64 -88 -127q0 -76 91 -76q85 0 131 72l57 -55q-96 -136 -303 -138q-75 0 -136 38q-59 38 -59 118q0 160 267 268q-53 40 -37 123l30 154q-58 -153 -136 -227q-80 -74 -210 -74q-117 0 -196 69
q-78 70 -78 232q0 186 90 360t249 285q158 112 341 112q139 0 289 -59l-107 -772q-7 -55 37 -55q48 0 115 67q21 18 39 2zM408 96q104 0 196 210q93 213 121 423l27 205q-46 37 -105 37q-94 0 -166 -72q-70 -72 -108 -182q-74 -219 -74 -408q0 -213 109 -213z" />
    <glyph glyph-name="Cacute" unicode="&#x106;" horiz-adv-x="1218" 
d="M561 1397l-29 45l299 231q51 39 97 39q31 0 52 -21.5t21 -56.5q0 -68 -108 -112zM1044 346h103q-62 -165 -195 -271t-344 -106q-248 0 -391 150q-143 152 -143 409q0 324 193 550q194 227 476 227q89 0 180 -24q93 -24 140 -24q46 0 98 7q-4 -198 43 -351h-145
q-90 299 -322 299q-91 0 -165 -65q-72 -64 -115 -169q-88 -215 -88 -470q0 -201 73 -322q74 -120 217 -120q117 0 217 70.5t168 209.5z" />
    <glyph glyph-name="cacute" unicode="&#x107;" horiz-adv-x="897" 
d="M455 1151l-29 45l299 231q51 39 96 39q31 0 52.5 -22t21.5 -55q0 -68 -109 -113zM618 1042q117 0 192 -66q75 -64 75 -157q0 -64 -36 -107q-36 -44 -93 -44q-47 0 -73 26.5t-26 71.5q0 37 7 80q9 57 10 69q2 26 -16 43t-58 17q-94 0 -166 -89q-73 -89 -104 -207
q-31 -117 -31 -235q0 -139 50 -216.5t143 -77.5q119 0 233 131q23 28 37 26h29q16 0 21 -10t0.5 -24t-15.5 -29q-161 -258 -418 -258q-145 0 -240 90q-94 90 -94 280q0 262 173 474t400 212z" />
    <glyph glyph-name="Ccaron" unicode="&#x10c;" horiz-adv-x="1218" 
d="M668 1315h-45l-258 346l55 41l248 -219l311 219l41 -41zM1044 346h103q-62 -165 -195 -271t-344 -106q-248 0 -391 150q-143 152 -143 409q0 324 193 550q194 227 476 227q89 0 180 -24q93 -24 140 -24q46 0 98 7q-4 -198 43 -351h-145q-90 299 -322 299q-91 0 -165 -65
q-72 -64 -115 -169q-88 -215 -88 -470q0 -201 73 -322q74 -120 217 -120q117 0 217 70.5t168 209.5z" />
    <glyph glyph-name="ccaron" unicode="&#x10d;" horiz-adv-x="897" 
d="M645 1069h-45l-258 346l55 41l248 -219l311 219l41 -41zM618 1042q117 0 192 -66q75 -64 75 -157q0 -64 -36 -107q-36 -44 -93 -44q-47 0 -73 26.5t-26 71.5q0 37 7 80q9 57 10 69q2 26 -16 43t-58 17q-94 0 -166 -89q-73 -89 -104 -207q-31 -117 -31 -235
q0 -139 50 -216.5t143 -77.5q119 0 233 131q23 28 37 26h29q16 0 21 -10t0.5 -24t-15.5 -29q-161 -258 -418 -258q-145 0 -240 90q-94 90 -94 280q0 262 173 474t400 212z" />
    <glyph glyph-name="Dcaron" unicode="&#x10e;" horiz-adv-x="1288" 
d="M784 1315h-45l-258 346l56 41l247 -219l312 219l41 -41zM672 1272q265 0 417 -122t152 -384q0 -334 -178 -548t-490 -214q-33 0 -141 15q-105 16 -162 16q-44 0 -92 -5q-37 -4 -108 -17q-76 -12 -84 -13l4 84q80 7 114 22q33 15 39 52l133 956q6 37 -17.5 53.5
t-92.5 22.5l2 82q113 -4 178 -4q20 0 162 2t164 2zM565 84q116 0 205 120q88 120 126 282q38 166 38 333q0 180 -69 274.5t-206 94.5q-49 0 -84 -4l-149 -1037q-7 -43 16 -53q93 -10 123 -10z" />
    <glyph glyph-name="dcaron" unicode="&#x10f;" horiz-adv-x="1323" 
d="M1094 227q20 -19 -2 -47q-76 -93 -165.5 -143.5t-170.5 -50.5q-70 0 -104 40t-21 107l31 154q-59 -155 -139.5 -228t-205.5 -73q-121 0 -201 69q-79 70 -79 238q0 181 91 353q92 174 251 285q161 113 342 113q27 0 49 -2l16 107q8 56 -23 79t-101 17l10 82q94 13 168 31
q32 8 66.5 17.5t51 14.5t31.5 8t23 3q62 0 51 -74l-160 -1114q-7 -55 37 -55q48 0 115 67q20 18 39 2zM1245 891q-25 -18 -39 0l-16 22q85 91 98 181q2 20 0 26q-17 -4 -37 -4q-54 0 -86 34.5t-32 86.5q0 65 48 115q48 49 117 49q60 0 93.5 -41t33.5 -111q0 -91 -51 -189
q-50 -97 -129 -169zM729 729l27 205q-33 37 -103 37q-93 0 -167 -72q-72 -72 -111 -182q-76 -212 -76 -408q0 -213 107 -213q74 0 146 110q71 108 116 251q42 138 61 272z" />
    <glyph glyph-name="Dcroat" unicode="&#x110;" horiz-adv-x="1288" 
d="M672 1272q265 0 417 -122t152 -384q0 -334 -178 -548t-490 -214q-33 0 -141 15q-105 16 -162 16q-44 0 -92 -5q-37 -4 -108 -17q-76 -12 -84 -13l4 84q80 7 114 22q33 15 39 52l58 407h-131l18 142h131l57 407q6 37 -17.5 53.5t-92.5 22.5l2 82q113 -4 178 -4q20 0 162 2
t164 2zM565 84q116 0 205 120q88 120 126 282q38 166 38 333q0 180 -69 274.5t-206 94.5q-49 0 -84 -4l-69 -477h147l-20 -142h-148l-59 -418q-7 -43 16 -53q93 -10 123 -10z" />
    <glyph glyph-name="dslash" unicode="&#x111;" horiz-adv-x="1179" 
d="M1171 1057h-147l-121 -844q-7 -55 37 -55q48 0 115 67q18 18 39 2q20 -19 -2 -47q-76 -93 -165.5 -143.5t-170.5 -50.5q-70 0 -104 40t-21 107l31 154q-59 -155 -139.5 -228t-205.5 -73q-121 0 -201 69q-79 70 -79 238q0 181 91 353q92 174 251 285q161 113 342 113
q27 0 49 -2l2 15h-104l8 61h106l4 31q8 56 -23 79t-101 17l10 82q94 13 168 31q32 8 66.5 17.5t51 14.5t31.5 8t23 3q62 0 51 -74l-31 -209h148zM729 729l27 205q-33 37 -103 37q-93 0 -167 -72q-72 -72 -111 -182q-76 -212 -76 -408q0 -213 107 -213q74 0 146 110
q71 108 116 251q42 138 61 272z" />
    <glyph glyph-name="Emacron" unicode="&#x112;" horiz-adv-x="1062" 
d="M948 1444h-565q-37 0 -31 35l8 82q6 36 41 34h564q37 0 30 -34l-8 -82q-6 -35 -39 -35zM162 1272h842q37 0 30 -43v-242h-84l-16 51q-35 85 -69 113q-35 29 -113 29h-146q-14 0 -27.5 -11.5t-15.5 -25.5l-61 -443h186q69 0 106 30.5t58 100.5l68 -14q-38 -156 -48 -342
l-69 12q-5 68 -27 95q-22 28 -92 28h-195l-69 -491q-1 -25 24 -25h91q108 0 169 29q59 28 105 106l78 131l92 -6q-96 -212 -111 -354q-328 14 -882 0l4 80q80 6 114.5 24.5t40.5 57.5l134 962q6 38 -18 48q-22 12 -107 18z" />
    <glyph glyph-name="emacron" unicode="&#x113;" horiz-adv-x="913" 
d="M303 1233l8 82q6 35 41 35h563q37 0 31 -35l-8 -82q-6 -35 -39 -35h-565q-37 0 -31 35zM768 307h29q48 0 4 -74q-164 -248 -408 -247q-145 0 -242 90q-96 90 -96 278q0 250 180 469q181 219 410 219q106 0 160.5 -49.5t54.5 -134.5q0 -271 -541 -461q-8 -116 43 -181
q52 -66 136 -66q124 0 231 129q26 29 39 28zM645 858q0 111 -63 111q-82 0 -160 -149q-79 -150 -98 -349q321 113 321 387z" />
    <glyph glyph-name="Edotaccent" unicode="&#x116;" horiz-adv-x="1062" 
d="M670 1395q-63 0 -108 45q-44 46 -44 106q0 62 44 106t108 44q60 0 104 -44q43 -43 43 -106q0 -62 -43 -106q-44 -45 -104 -45zM162 1272h842q37 0 30 -43v-242h-84l-16 51q-35 85 -69 113q-35 29 -113 29h-146q-14 0 -27.5 -11.5t-15.5 -25.5l-61 -443h186q69 0 106 30.5
t58 100.5l68 -14q-38 -156 -48 -342l-69 12q-5 68 -27 95q-22 28 -92 28h-195l-69 -491q-1 -25 24 -25h91q108 0 169 29q59 28 105 106l78 131l92 -6q-96 -212 -111 -354q-328 14 -882 0l4 80q80 6 114.5 24.5t40.5 57.5l134 962q6 38 -18 48q-22 12 -107 18z" />
    <glyph glyph-name="edotaccent" unicode="&#x117;" horiz-adv-x="913" 
d="M621 1149q-63 0 -108 45q-44 46 -44 106q0 62 44 106t108 44q60 0 104 -44q43 -43 43 -106q0 -62 -43 -106q-43 -45 -104 -45zM768 307h29q48 0 4 -74q-164 -248 -408 -247q-145 0 -242 90q-96 90 -96 278q0 250 180 469q181 219 410 219q106 0 160.5 -49.5t54.5 -134.5
q0 -271 -541 -461q-8 -116 43 -181q52 -66 136 -66q124 0 231 129q26 29 39 28zM645 858q0 111 -63 111q-82 0 -160 -149q-79 -150 -98 -349q321 113 321 387z" />
    <glyph glyph-name="Eogonek" unicode="&#x118;" horiz-adv-x="1062" 
d="M162 1272h842q37 0 30 -43v-242h-84l-16 51q-35 85 -69 113q-35 29 -113 29h-146q-14 0 -27.5 -11.5t-15.5 -25.5l-61 -443h186q69 0 106 30.5t58 100.5l68 -14q-38 -156 -48 -342l-69 12q-5 68 -27 95q-22 28 -92 28h-195l-69 -491q-1 -25 24 -25h91q108 0 169 29
q59 28 105 106l78 131l92 -6q-96 -212 -111 -354q-328 14 -882 0l4 80q80 6 114.5 24.5t40.5 57.5l134 962q6 38 -18 48q-22 12 -107 18zM629 -289q82 0 127 66l53 -43q-101 -143 -307 -144q-75 0 -133 34t-58 110q0 94 78 169q79 74 191 101h149q-197 -107 -197 -213
q2 -80 97 -80z" />
    <glyph glyph-name="eogonek" unicode="&#x119;" horiz-adv-x="903" 
d="M768 307h29q48 0 4 -74q-124 -190 -301 -235q-203 -83 -203 -209q0 -82 96 -82q83 0 127 66l53 -43q-96 -142 -305 -144q-77 0 -132 34q-56 35 -56 110q0 81 62 155q63 72 169 109q-115 22 -186 112q-70 88 -70 248q0 250 180 469q181 219 410 219q106 0 160.5 -49.5
t54.5 -134.5q0 -271 -541 -461q-8 -116 43 -181q52 -66 136 -66q124 0 231 129q26 29 39 28zM582 969q-82 0 -160 -149q-79 -150 -98 -349q322 113 321 387q0 111 -63 111z" />
    <glyph glyph-name="Ecaron" unicode="&#x11a;" horiz-adv-x="1062" 
d="M1020 1661l-352 -346h-45l-258 346l55 41l248 -219l311 219zM162 1272h842q37 0 30 -43v-242h-84l-16 51q-35 85 -69 113q-35 29 -113 29h-146q-14 0 -27.5 -11.5t-15.5 -25.5l-61 -443h186q69 0 106 30.5t58 100.5l68 -14q-38 -156 -48 -342l-69 12q-5 68 -27 95
q-22 28 -92 28h-195l-69 -491q-1 -25 24 -25h91q108 0 169 29q59 28 105 106l78 131l92 -6q-96 -212 -111 -354q-328 14 -882 0l4 80q80 6 114.5 24.5t40.5 57.5l134 962q6 38 -18 48q-22 12 -107 18z" />
    <glyph glyph-name="ecaron" unicode="&#x11b;" horiz-adv-x="913" 
d="M618 1069h-45l-258 346l56 41l247 -219l312 219l41 -41zM768 307h29q48 0 4 -74q-164 -248 -408 -247q-145 0 -242 90q-96 90 -96 278q0 250 180 469q181 219 410 219q106 0 160.5 -49.5t54.5 -134.5q0 -271 -541 -461q-8 -116 43 -181q52 -66 136 -66q124 0 231 129
q26 29 39 28zM645 858q0 111 -63 111q-82 0 -160 -149q-79 -150 -98 -349q321 113 321 387z" />
    <glyph glyph-name="Gcommaaccent" unicode="&#x122;" horiz-adv-x="1290" 
d="M717 526l8 80q260 -11 524 0l-8 -80l-35 -6q-64 -11 -80 -92q-33 -150 -45 -311l21 -4q43 -12 37 -39l-9 -49q-69 4 -114 4q-110 0 -237 -30t-228 -30q-241 0 -378 185q-136 185 -91 510q41 287 228 464q188 177 421 177q77 0 165 -24t138 -24q47 0 99 7q-6 -197 36 -359
l-141 15q-42 139 -123 215.5t-190 76.5q-119 0 -208 -138q-89 -139 -122 -380q-37 -251 14 -444q53 -191 183 -191q117 0 173 47.5t72 157.5l29 187q2 36 -14 51.5t-58 19.5zM489 -633q-25 -18 -38 0l-17 23q85 91 98 180q2 20 0 27q-12 -3 -36 -5q-54 0 -86.5 34.5
t-32.5 86.5q0 65 48 115q48 49 118 49q60 0 93.5 -40.5t33.5 -110.5q0 -92 -52 -189q-52 -98 -129 -170z" />
    <glyph glyph-name="gcommaaccent" unicode="&#x123;" horiz-adv-x="1144" 
d="M672 1567q26 18 39 0l16 -23q-85 -91 -98 -180q-1 -20 0 -27q17 4 37 4q54 0 86 -34t32 -86q0 -65 -48 -115q-48 -49 -118 -49q-60 0 -93 40.5t-33 110.5q0 92 51 189q52 98 129 170zM1047 1040q52 0 84 -27.5t32 -74.5q0 -44 -27 -74t-69 -30q-22 0 -43 10t-33 10
q-31 0 -30 -39q0 -11 7 -47t7 -74q0 -170 -148 -264q-147 -94 -407 -117q-124 -11 -150 -17q-32 -8 -32 -24t20 -22q25 -7 88 -17l279 -45q176 -30 261 -90t85 -168q0 -170 -193 -272q-192 -102 -430 -102q-183 0 -299 68q-115 67 -115 190q0 83 46 135q45 53 118 53
q46 0 75.5 -23t29.5 -65q0 -29 -20 -74q-19 -42 -19 -80q0 -60 59.5 -96.5t173.5 -36.5q142 0 242 58q102 57 102 161q0 56 -35 86.5t-118 47.5l-367 71q-176 33 -176 158q0 74 58 104q57 31 178 49q-73 38 -122 114q-50 77 -50 177q0 166 138 277q137 112 336 112t320 -133
q42 131 144 131zM502 381q100 0 158 120q59 121 59 263q0 100 -34 156.5t-97 56.5q-98 0 -163 -119t-65 -260q0 -103 37 -160t105 -57z" />
    <glyph glyph-name="Hbar" unicode="&#x126;" horiz-adv-x="1359" 
d="M831 1190v82q287 -10 576 0l-2 -82q-150 -7 -162 -82l-133 -958q-4 -38 21 -51q23 -12 108 -17l-2 -82q-285 10 -573 0l4 82q150 8 161 82l62 430h-399l-62 -444q-6 -38 21 -51q26 -12 110 -17v-82q-287 11 -575 0l4 82q145 7 160 82l133 958q6 37 -21 50q-26 14 -108 18
l4 82q285 -10 571 0l-2 -82q-156 -8 -164 -82l-28 -211h397l33 225q4 37 -24 50q-29 14 -110 18zM522 813l-18 -133h399l19 133h-400z" />
    <glyph glyph-name="hbar" unicode="&#x127;" horiz-adv-x="1142" 
d="M852 1042q248 0 248 -321q0 -163 -57 -329q-55 -166 -171 -288q-114 -120 -258 -120q-79 0 -123.5 33t-44.5 89q0 48 30.5 77.5t76.5 29.5q57 0 77 -39q21 -39 27 -78q7 -39 27 -39q49 0 94 257q45 256 45 425q0 187 -90 189q-117 0 -233 -239q-114 -235 -176 -642
q-12 -67 -134 -65q-127 0 -116 75l153 944h-127l13 80h129l10 66q8 58 -19 81t-90 17l11 82q92 13 160 31q25 7 53 14.5t43.5 12l31 9t24.5 6t15 1.5q66 0 54 -74l-46 -246h142l-10 -80h-146l-78 -432q67 205 179 340q112 133 276 133z" />
    <glyph glyph-name="Imacron" unicode="&#x12a;" horiz-adv-x="675" 
d="M158 1479l8 82q6 36 41 34h563q37 0 31 -34l-8 -82q-6 -35 -39 -35h-566q-38 0 -30 35zM561 1108l-133 -958q-6 -36 23 -50t114 -18l-14 -82q-285 10 -571 0l12 82q76 4 111.5 23t43.5 59l134 958q6 36 -21.5 50t-109.5 18l12 82q284 -10 567 0l-10 -82q-150 -8 -158 -82
z" />
    <glyph glyph-name="imacron" unicode="&#x12b;" horiz-adv-x="698" 
d="M147 1233l9 82q6 35 41 35h563q37 0 31 -35l-9 -82q-6 -35 -39 -35h-565q-37 0 -31 35zM612 227q20 -19 -2 -47q-76 -94 -166 -144t-174 -50q-68 0 -98.5 40t-17.5 107l131 688q7 51 -33 51q-46 0 -125 -77q-25 -25 -45 -2q-16 16 6 47q172 206 354 204q136 0 107 -159
l-127 -672q-12 -55 37 -55q47 0 114 67q20 18 39 2z" />
    <glyph glyph-name="Iogonek" unicode="&#x12e;" horiz-adv-x="675" 
d="M150 1190l12 82q284 -10 567 0l-10 -82q-150 -8 -158 -82l-133 -958q-6 -36 23 -50t114 -18l-14 -82l-82 3q-37 1 -82 1q-193 -106 -192 -211q0 -80 96 -80q82 0 127 66l53 -43q-101 -143 -307 -144q-75 0 -133 34t-58 110q0 93 76 166q77 74 187 102q-107 0 -256 -4
l12 82q76 4 111.5 23t43.5 59l134 958q6 36 -21.5 50t-109.5 18z" />
    <glyph glyph-name="iogonek" unicode="&#x12f;" horiz-adv-x="735" 
d="M465 1149q-63 0 -108 45q-44 46 -44 106q0 62 44 106t108 44q60 0 104 -44q43 -43 43 -106q0 -62 -43 -106q-43 -45 -104 -45zM612 227q20 -19 -2 -47q-128 -158 -280 -188q-168 -95 -168 -197q0 -80 96 -80q82 0 127 66l53 -43q-101 -143 -307 -144q-74 0 -132 34
t-58 110q0 91 73 164t181 102q-57 38 -41 129l131 688q7 51 -33 51q-46 0 -125 -77q-25 -25 -45 -2q-16 16 6 47q172 206 354 204q136 0 107 -159l-127 -672q-12 -55 37 -55q47 0 114 67q20 18 39 2z" />
    <glyph glyph-name="dotlessi" unicode="&#x131;" horiz-adv-x="698" 
d="M612 227q20 -19 -2 -47q-76 -94 -166 -144t-174 -50q-68 0 -98.5 40t-17.5 107l131 688q7 51 -33 51q-46 0 -125 -77q-25 -25 -45 -2q-16 16 6 47q172 206 354 204q136 0 107 -159l-127 -672q-12 -55 37 -55q47 0 114 67q20 18 39 2z" />
    <glyph glyph-name="IJ" unicode="&#x132;" horiz-adv-x="1361" 
d="M561 1108l-133 -958q-6 -36 23 -50t114 -18l-14 -82q-285 10 -571 0l12 82q76 4 111.5 23t43.5 59l134 958q6 36 -21.5 50t-109.5 18l12 82q284 -10 567 0l-10 -82q-150 -8 -158 -82zM836 1190l4 82q285 -10 571 0l-4 -82q-146 -7 -160 -82l-119 -846q-46 -339 -199 -481
q-152 -141 -419 -141l4 81q129 0 204 83q75 82 105 300l144 1018q6 37 -21 50q-25 13 -110 18z" />
    <glyph glyph-name="ij" unicode="&#x133;" horiz-adv-x="1257" 
d="M471 1161q-59 0 -101 42t-42 102q0 61 42 103t101 42q61 0 102 -42q41 -43 41 -103q0 -58 -41 -102q-41 -42 -102 -42zM1083 1161q-61 0 -102 42q-41 43 -41 102q0 60 41 103q41 42 102 42q59 0 101 -42q43 -42 43 -103q0 -59 -43 -102q-42 -42 -101 -42zM612 227
q20 -19 -2 -47q-76 -94 -166 -144t-174 -50q-68 0 -98.5 40t-17.5 107l131 688q7 51 -33 51q-46 0 -125 -77q-25 -25 -45 -2q-16 16 6 47q162 206 354 204q136 0 107 -159l-127 -672q-12 -55 37 -55q47 0 114 67q20 18 39 2zM1079 1044q135 0 107 -159l-92 -563
q-58 -360 -190 -546q-60 -84 -128 -135q-117 -90 -260 -90q-119 0 -186.5 38t-67.5 104q0 47 34 81q34 33 81 33q66 0 120 -82q23 -35 54 -59t61 -24q123 0 170 305l140 874q8 51 -33 51q-49 0 -123 -77q-28 -23 -47 -2q-16 16 6 47q173 204 354 204z" />
    <glyph glyph-name="Kcommaaccent" unicode="&#x136;" horiz-adv-x="1320" 
d="M1325 1272l-4 -82q-131 -10 -213 -96l-387 -389q361 -642 514 -658l-78 -80q-149 0 -298 126q-148 126 -322 427l-64 -63l-43 -307q-6 -37 20 -51q25 -12 109 -17l-4 -82q-283 10 -569 0l4 82q152 8 160 82l133 958q6 37 -21 50q-26 14 -108 18l4 82q283 -10 569 0
l-4 -82q-144 -7 -158 -82l-69 -498l489 498q45 45 -43 70q-33 8 -78 12l4 82q229 -7 457 0zM610 -123q60 0 93.5 -40.5t33.5 -110.5q0 -92 -51 -189q-52 -98 -129 -170q-25 -18 -39 0l-16 23q85 91 98 180q2 20 0 27q-12 -3 -37 -5q-54 0 -86.5 34.5t-32.5 86.5q0 65 48 115
q48 49 118 49z" />
    <glyph glyph-name="kcommaaccent" unicode="&#x137;" horiz-adv-x="1101" 
d="M596 602q298 -538 461 -555l-78 -80q-146 0 -289 118q-143 119 -303 388l-78 -473h-250l185 1149q8 56 -19 79t-90 17l10 82q91 13 161 31q25 7 53 14.5t43.5 12l31 9t24.5 6t15 1.5q67 0 53 -74l-127 -778q261 175 316 276q19 36 2 53.5t-70 16.5q-8 0 -24 -2l14 88
q69 25 128 38t100.5 14t70.5 -6t43 -21t14 -33q0 -49 -74 -120q-79 -75 -323 -251zM457 -123q60 0 93.5 -40.5t33.5 -110.5q0 -92 -52 -189q-52 -98 -129 -170q-25 -18 -38 0l-17 23q85 91 98 180q2 20 0 27q-12 -3 -36 -5q-54 0 -86.5 34.5t-32.5 86.5q0 65 48 115
q48 49 118 49z" />
    <glyph glyph-name="Lacute" unicode="&#x139;" horiz-adv-x="1056" 
d="M479 1397l-28 45l299 231q51 39 96 39q31 0 52.5 -21.5t21.5 -56.5q0 -69 -109 -112zM831 229l80 133l93 -8q-91 -186 -113 -360q-408 16 -901 6l4 80q80 6 115.5 24.5t40.5 57.5l133 960q6 37 -21 50q-26 14 -108 18l4 82q283 -10 569 0l-4 -82q-144 -7 -158 -82
l-141 -991q-1 -25 25 -25h106q109 0 169 30t107 107z" />
    <glyph glyph-name="lacute" unicode="&#x13a;" horiz-adv-x="630" 
d="M254 1397l-29 45l299 231q51 39 97 39q31 0 52 -21.5t21 -56.5q0 -68 -108 -112zM86 133l168 1016q8 56 -21 79t-98 17l10 82q95 13 167 31q26 7 54.5 14.5t44.5 12t31.5 9t25 6t15.5 1.5q66 0 54 -74l-185 -1114q-7 -55 39 -55q48 0 115 67q18 18 39 2q20 -19 -2 -47
q-76 -94 -166 -144t-174 -50q-65 0 -96 39.5t-21 107.5z" />
    <glyph glyph-name="Lcommaaccent" unicode="&#x13b;" horiz-adv-x="1056" 
d="M831 229l80 133l93 -8q-91 -186 -113 -360q-408 16 -901 6l4 80q80 6 115.5 24.5t40.5 57.5l133 960q6 37 -21 50q-26 14 -108 18l4 82q283 -10 569 0l-4 -82q-144 -7 -158 -82l-141 -991q-1 -25 25 -25h106q109 0 169 30t107 107zM346 -633q-26 -18 -39 0l-16 23
q85 91 98 180q1 20 0 27q-12 -3 -37 -5q-54 0 -86.5 34.5t-32.5 86.5q0 65 48 115q49 49 118 49q60 0 93.5 -40.5t33.5 -110.5q0 -92 -51 -189q-52 -98 -129 -170z" />
    <glyph glyph-name="lcommaaccent" unicode="&#x13c;" horiz-adv-x="630" 
d="M86 133l168 1016q8 56 -21 79t-98 17l10 82q95 13 167 31q26 7 54.5 14.5t44.5 12t31.5 9t25 6t15.5 1.5q66 0 54 -74l-185 -1114q-7 -55 39 -55q48 0 115 67q18 18 39 2q20 -19 -2 -47q-76 -94 -166 -144t-174 -50q-65 0 -96 39.5t-21 107.5zM162 -633q-26 -18 -39 0
l-17 23q84 90 99 180q1 20 0 27q-12 -3 -37 -5q-54 0 -86.5 34.5t-32.5 86.5q0 65 48 115q48 49 118 49q60 0 93.5 -40.5t33.5 -110.5q0 -92 -51 -189q-52 -98 -129 -170z" />
    <glyph glyph-name="Lcaron" unicode="&#x13d;" horiz-adv-x="1056" 
d="M874 764q-25 -18 -38 0l-17 22q84 90 99 181q2 20 0 26q-17 -4 -37 -4q-54 0 -86.5 34.5t-32.5 86.5q0 66 48 115t118 49q60 0 93.5 -41t33.5 -111q0 -92 -52 -189q-50 -97 -129 -169zM831 229l80 133l93 -8q-91 -186 -113 -360q-408 16 -901 6l4 80q80 6 115.5 24.5
t40.5 57.5l133 960q6 37 -21 50q-26 14 -108 18l4 82q283 -10 569 0l-4 -82q-144 -7 -158 -82l-141 -991q-1 -25 25 -25h106q109 0 169 30t107 107z" />
    <glyph glyph-name="lcaron" unicode="&#x13e;" horiz-adv-x="770" 
d="M86 133l168 1016q8 56 -21 79t-98 17l10 82q95 13 167 31q26 7 54.5 14.5t44.5 12t31.5 9t25 6t15.5 1.5q66 0 54 -74l-185 -1114q-7 -55 39 -55q48 0 115 67q18 18 39 2q20 -19 -2 -47q-76 -94 -166 -144t-174 -50q-65 0 -96 39.5t-21 107.5zM684 836q-26 -20 -39 0
l-16 22q85 91 98 180q1 20 0 27q-17 -4 -37 -4q-54 0 -86.5 34t-32.5 87q0 66 48 115q49 49 118 49q60 0 93.5 -41t33.5 -111q0 -92 -51 -189q-50 -97 -129 -169z" />
    <glyph glyph-name="Ldot" unicode="&#x13f;" horiz-adv-x="1056" 
d="M831 229l80 133l93 -8q-91 -186 -113 -360q-408 16 -901 6l4 80q80 6 115.5 24.5t40.5 57.5l133 960q6 37 -21 50q-26 14 -108 18l4 82q283 -10 569 0l-4 -82q-144 -7 -158 -82l-141 -991q-1 -25 25 -25h106q109 0 169 30t107 107zM721 666q-49 0 -83 35.5t-34 89.5
q0 63 48 112t110 49q49 0 83 -35.5t34 -87.5q0 -66 -49 -115q-48 -48 -109 -48z" />
    <glyph glyph-name="ldot" unicode="&#x140;" horiz-adv-x="747" 
d="M86 133l168 1016q8 56 -21 79t-98 17l10 82q95 13 167 31q26 7 54.5 14.5t44.5 12t31.5 9t25 6t15.5 1.5q66 0 54 -74l-185 -1114q-7 -55 39 -55q48 0 115 67q18 18 39 2q20 -19 -2 -47q-76 -94 -166 -144t-174 -50q-65 0 -96 39.5t-21 107.5zM633 662q-48 0 -83 35
q-34 35 -34 89q0 63 48 112q48 50 110 50q49 0 83 -35.5t34 -87.5q0 -66 -49 -115q-48 -48 -109 -48z" />
    <glyph glyph-name="Lslash" unicode="&#x141;" horiz-adv-x="1089" 
d="M864 229l80 133l92 -8q-89 -183 -112 -360q-408 16 -901 6l4 80q81 6 116 24.5t39 57.5l49 350l-200 -59v90l213 63l71 516q6 37 -21 50q-26 14 -108 18l4 82q284 -10 570 0l-4 -82q-144 -7 -158 -82l-59 -412l245 74v-90l-258 -78l-69 -485q-1 -25 24 -25h107
q109 0 169 30t107 107z" />
    <glyph glyph-name="lslash" unicode="&#x142;" horiz-adv-x="628" 
d="M608 682l-180 -53l-70 -416q-7 -55 39 -55q48 0 115 67q18 18 39 2q20 -19 -2 -47q-76 -94 -166 -144t-174 -50q-65 0 -96 39.5t-21 107.5l70 416l-142 -41v88l156 47l84 506q8 56 -21 79t-98 17l11 82q93 12 166 31q26 7 54.5 14.5t44.5 12t31.5 9t25 6t15.5 1.5
q66 0 54 -74l-101 -604l166 49v-90z" />
    <glyph glyph-name="Nacute" unicode="&#x143;" horiz-adv-x="1380" 
d="M635 1397l-29 45l299 231q51 39 96 39q31 0 52.5 -21.5t21.5 -56.5q0 -68 -108 -112zM903 1190l2 82q259 -8 525 0l-5 -82q-222 -13 -233 -82l-154 -1108h-86l-518 1010l-123 -860q-4 -34 39 -46.5t164 -21.5l-4 -82q-260 10 -522 0l4 82q218 13 229 82l131 930
q4 36 -39 64t-116 32v82q213 -7 430 0l387 -762l90 612q4 33 -39 46t-162 22z" />
    <glyph glyph-name="nacute" unicode="&#x144;" horiz-adv-x="1339" 
d="M514 1151l-29 45l299 231q51 39 97 39q31 0 52 -22t21 -55q0 -68 -108 -113zM1253 227q23 -17 -2 -47q-74 -93 -165 -143.5t-175 -50.5q-68 0 -100.5 40t-17.5 107l100 551q21 115 9 176.5t-68 65.5q-119 0 -245 -252t-183 -674h-238l119 821q7 51 -35 51q-46 0 -125 -77
q-25 -25 -45 -2q-16 16 6 47q170 203 354 202q136 0 105 -157l-66 -332q78 225 186 357q109 132 279 132q276 0 207 -358l-88 -471q-12 -55 37 -55q44 0 115 67q18 18 36 2z" />
    <glyph glyph-name="Ncommaaccent" unicode="&#x145;" horiz-adv-x="1380" 
d="M903 1190l2 82q259 -8 525 0l-5 -82q-222 -13 -233 -82l-154 -1108h-86l-518 1010l-123 -860q-4 -34 39 -46.5t164 -21.5l-4 -82q-260 10 -522 0l4 82q218 13 229 82l131 930q4 36 -39 64t-116 32v82q213 -7 430 0l387 -762l90 612q4 33 -39 46t-162 22zM528 -633
q-26 -18 -39 0l-16 23q85 91 98 180q1 20 0 27q-12 -3 -36 -5q-54 0 -86.5 34.5t-32.5 86.5q0 65 48 115q48 49 118 49q60 0 93.5 -40.5t33.5 -110.5q0 -92 -52 -189q-52 -98 -129 -170z" />
    <glyph glyph-name="ncommaaccent" unicode="&#x146;" horiz-adv-x="1339" 
d="M1253 227q23 -17 -2 -47q-74 -93 -165 -143.5t-175 -50.5q-68 0 -100.5 40t-17.5 107l100 551q21 115 9 176.5t-68 65.5q-119 0 -245 -252t-183 -674h-238l119 821q7 51 -35 51q-46 0 -125 -77q-25 -25 -45 -2q-16 16 6 47q170 203 354 202q136 0 105 -157l-66 -332
q78 225 186 357q109 132 279 132q276 0 207 -358l-88 -471q-12 -55 37 -55q44 0 115 67q18 18 36 2zM545 -633q-25 -18 -39 0l-17 23q84 90 99 180q2 20 0 27q-12 -3 -37 -5q-54 0 -86.5 34.5t-32.5 86.5q0 65 48 115q48 49 118 49q60 0 93.5 -40.5t33.5 -110.5
q0 -92 -51 -189q-52 -98 -129 -170z" />
    <glyph glyph-name="Ncaron" unicode="&#x147;" horiz-adv-x="1380" 
d="M825 1315h-45l-258 346l56 41l247 -219l312 219l41 -41zM903 1190l2 82q259 -8 525 0l-5 -82q-222 -13 -233 -82l-154 -1108h-86l-518 1010l-123 -860q-4 -34 39 -46.5t164 -21.5l-4 -82q-260 10 -522 0l4 82q218 13 229 82l131 930q4 36 -39 64t-116 32v82q213 -7 430 0
l387 -762l90 612q4 33 -39 46t-162 22z" />
    <glyph glyph-name="ncaron" unicode="&#x148;" horiz-adv-x="1339" 
d="M705 1069h-46l-258 346l56 41l248 -219l311 219l41 -41zM1253 227q23 -17 -2 -47q-74 -93 -165 -143.5t-175 -50.5q-68 0 -100.5 40t-17.5 107l100 551q21 115 9 176.5t-68 65.5q-119 0 -245 -252t-183 -674h-238l119 821q7 51 -35 51q-46 0 -125 -77q-25 -25 -45 -2
q-16 16 6 47q170 203 354 202q136 0 105 -157l-66 -332q78 225 186 357q109 132 279 132q276 0 207 -358l-88 -471q-12 -55 37 -55q44 0 115 67q18 18 36 2z" />
    <glyph glyph-name="Eng" unicode="&#x14a;" horiz-adv-x="1380" 
d="M903 1190l2 82q259 -8 525 0l-5 -82q-222 -13 -233 -82l-154 -1108h-2q-51 -350 -346 -350q-130 0 -198 54.5t-54 152.5q20 129 142 129q98 0 86 -117q-4 -96 102 -96q74 0 121 68q48 69 61 163l-516 1006l-123 -860q-4 -34 39 -46.5t164 -21.5l-4 -82q-260 10 -522 0
l4 82q218 13 229 82l131 930q4 36 -39 64t-116 32v82q213 -7 430 0l387 -762l90 612q4 33 -39 46t-162 22z" />
    <glyph glyph-name="eng" unicode="&#x14b;" horiz-adv-x="1251" 
d="M940 1042q280 0 213 -358l-66 -362q-41 -222 -109 -383t-152 -242q-81 -78 -157.5 -112t-162.5 -34q-119 0 -185.5 38t-66.5 104q0 47 34 81q34 33 81 33q66 0 120 -82q54 -83 115 -83q123 0 170 305l119 737q43 242 -62 242q-117 0 -243 -252q-125 -253 -182 -674h-238
l119 821q7 51 -35 51q-46 0 -125 -77q-25 -25 -45 -2q-16 16 6 47q170 203 354 202q136 0 105 -157l-66 -332q77 226 184 357q109 132 275 132z" />
    <glyph glyph-name="Omacron" unicode="&#x14c;" horiz-adv-x="1257" 
d="M438 1479l8 82q6 36 41 34h564q37 0 30 -34l-8 -82q-6 -35 -39 -35h-565q-37 0 -31 35zM561 -31q-223 0 -356 148t-133 403q0 322 189 553q190 232 474 232q215 0 350 -156q136 -155 136 -401q0 -310 -194 -545q-193 -234 -466 -234zM586 59q88 0 157 75q71 75 108 192
q77 237 77 487q0 185 -55 291q-54 108 -158 108q-91 0 -161 -70q-72 -70 -110 -181q-77 -223 -77 -480q0 -191 57 -306q59 -116 162 -116z" />
    <glyph glyph-name="omacron" unicode="&#x14d;" horiz-adv-x="1067" 
d="M354 1233l8 82q6 35 41 35h564q38 0 30 -35l-8 -82q-6 -35 -39 -35h-565q-37 0 -31 35zM618 1042q169 0 284 -101q114 -101 114 -308q0 -255 -167 -452q-167 -195 -388 -195q-160 0 -279 107q-119 108 -119 315q0 254 169 444t386 190zM745 735q0 116 -35 177t-98 61
q-84 0 -151 -105q-66 -103 -99 -257q-32 -154 -32 -314q0 -118 35 -179t100 -61q119 0 199 210q81 210 81 468z" />
    <glyph glyph-name="Ohungarumlaut" unicode="&#x150;" horiz-adv-x="1257" 
d="M424 1395l-27 47l256 233q39 39 80 39t64 -39q25 -39 7 -87q-18 -49 -67 -68zM782 1395l-28 47l256 233q41 39 80.5 39t64.5 -39t7 -87q-17 -49 -66 -68zM561 -31q-223 0 -356 148t-133 403q0 322 189 553q190 232 474 232q215 0 350 -156q136 -155 136 -401
q0 -310 -194 -545q-193 -234 -466 -234zM586 59q88 0 157 75q71 75 108 192q77 237 77 487q0 185 -55 291q-54 108 -158 108q-91 0 -161 -70q-72 -70 -110 -181q-77 -223 -77 -480q0 -191 57 -306q59 -116 162 -116z" />
    <glyph glyph-name="ohungarumlaut" unicode="&#x151;" horiz-adv-x="1067" 
d="M340 1149l-27 47l256 234q41 39 81 38.5t63 -38.5q25 -38 7 -88q-18 -49 -67 -68zM698 1149l-28 47l256 234q41 39 81 38.5t64 -39.5q25 -37 7 -87q-17 -49 -66 -68zM618 1042q169 0 284 -101q114 -101 114 -308q0 -255 -167 -452q-167 -195 -388 -195q-160 0 -279 107
q-119 108 -119 315q0 254 169 444t386 190zM745 735q0 116 -35 177t-98 61q-84 0 -151 -105q-66 -103 -99 -257q-32 -154 -32 -314q0 -118 35 -179t100 -61q119 0 199 210q81 210 81 468z" />
    <glyph glyph-name="OE" unicode="&#x152;" horiz-adv-x="1771" 
d="M961 1272h749q37 0 31 -43v-242h-84l-17 51q-35 85 -69 113q-34 29 -113 29h-145q-14 0 -27.5 -11.5t-15.5 -25.5l-62 -443h187q69 0 106 30.5t58 100.5l67 -14q-36 -151 -47 -342l-70 12q-5 68 -27 95q-22 28 -91 28h-195l-70 -491q-1 -25 25 -25h90q108 0 169 29
q58 28 106 106l77 131l93 -6q-96 -212 -111 -354q-334 14 -758 4q-96 -35 -209 -35q-248 0 -391 150q-143 152 -143 409q0 324 193 550q194 227 476 227q86 0 218 -33zM369 508q0 -201 73 -322q74 -120 217 -120q21 0 37 2v12q80 6 115 24.5t41 57.5l127 923
q-91 127 -242 127q-91 0 -165 -65q-72 -64 -115 -169q-88 -215 -88 -470z" />
    <glyph glyph-name="oe" unicode="&#x153;" horiz-adv-x="1589" 
d="M1452 307h29q48 0 4 -74q-164 -248 -408 -247q-194 0 -280 141q-151 -141 -336 -141q-160 0 -279 107q-119 108 -119 315q0 254 169 444t386 190q240 0 343 -174q169 174 368 174q106 0 160.5 -49.5t54.5 -134.5q0 -270 -540 -461q-8 -116 43 -181q51 -66 135 -66
q124 0 231 129q26 29 39 28zM465 57q119 0 199 210q81 210 81 468q0 116 -35 177t-98 61q-84 0 -151 -105q-66 -103 -99 -257q-32 -154 -32 -314q0 -117 35.5 -178.5t99.5 -61.5zM1266 969q-82 0 -160 -149q-79 -150 -98 -349q322 113 321 387q0 111 -63 111z" />
    <glyph glyph-name="Racute" unicode="&#x154;" horiz-adv-x="1265" 
d="M918 1522l-332 -125l-29 45l299 231q51 39 96 39q31 0 52.5 -21.5t21.5 -56.5q1 -67 -108 -112zM762 551q265 -487 418 -504l-78 -80q-147 0 -292 121q-144 122 -310 404l-29 -5l-47 -340q-4 -37 19 -48q25 -11 108 -17l-4 -82q-71 4 -280 4q-208 0 -281 -4l4 82
q81 6 115 23.5t40 56.5l131 952q6 37 -17.5 53.5t-92.5 22.5l2 82q6 -6 240 -3q236 3 245 3q277 0 395 -79q119 -80 119 -226q0 -163 -105 -260t-300 -156zM575 1186l-90 -611l33 9q186 30 286.5 134.5t100.5 276.5q0 193 -192 193q-94 0 -138 -2z" />
    <glyph glyph-name="racute" unicode="&#x155;" horiz-adv-x="983" 
d="M475 1151l-29 45l299 231q51 39 97 39q31 0 52 -22t21 -55q0 -68 -108 -113zM862 1044q68 0 107 -38t39 -101q0 -58 -34.5 -94.5t-86.5 -36.5q-53 0 -89 52q-36 53 -67 53q-101 0 -190 -267q-88 -263 -133 -612h-246l125 821q7 51 -35 51q-46 0 -125 -77q-25 -25 -45 -2
q-16 16 6 47q170 203 348 202q137 0 109 -157l-45 -244q56 171 150 287q93 116 212 116z" />
    <glyph glyph-name="Rcommaaccent" unicode="&#x156;" horiz-adv-x="1265" 
d="M762 551q265 -487 418 -504l-78 -80q-147 0 -292 121q-144 122 -310 404l-29 -5l-47 -340q-4 -37 19 -48q25 -11 108 -17l-4 -82q-71 4 -280 4q-208 0 -281 -4l4 82q81 6 115 23.5t40 56.5l131 952q6 37 -17.5 53.5t-92.5 22.5l2 82q6 -6 240 -3q236 3 245 3
q277 0 395 -79q119 -80 119 -226q0 -163 -105 -260t-300 -156zM575 1186l-90 -611l33 9q186 30 286.5 134.5t100.5 276.5q0 193 -192 193q-94 0 -138 -2zM530 -123q60 0 93.5 -40.5t33.5 -110.5q0 -92 -51 -189q-52 -98 -129 -170q-25 -18 -39 0l-16 23q85 91 98 180
q2 20 0 27q-12 -3 -37 -5q-54 0 -86 34.5t-32 86.5q0 65 47 115q48 49 118 49z" />
    <glyph glyph-name="rcommaaccent" unicode="&#x157;" horiz-adv-x="983" 
d="M862 1044q68 0 107 -38t39 -101q0 -58 -34.5 -94.5t-86.5 -36.5q-53 0 -89 52q-36 53 -67 53q-101 0 -190 -267q-88 -263 -133 -612h-246l125 821q7 51 -35 51q-46 0 -125 -77q-25 -25 -45 -2q-16 16 6 47q170 203 348 202q137 0 109 -157l-45 -244q56 171 150 287
q93 116 212 116zM215 -633q-25 -18 -39 0l-16 23q85 91 98 180q2 20 0 27q-12 -3 -37 -5q-54 0 -86.5 34.5t-32.5 86.5q0 65 48 115q49 49 118 49q60 0 93.5 -40.5t33.5 -110.5q0 -92 -51 -189q-52 -98 -129 -170z" />
    <glyph glyph-name="Rcaron" unicode="&#x158;" horiz-adv-x="1265" 
d="M1128 1661l-352 -346h-45l-258 346l55 41l248 -219l311 219zM762 551q265 -487 418 -504l-78 -80q-147 0 -292 121q-144 122 -310 404l-29 -5l-47 -340q-4 -37 19 -48q25 -11 108 -17l-4 -82q-71 4 -280 4q-208 0 -281 -4l4 82q81 6 115 23.5t40 56.5l131 952
q6 37 -17.5 53.5t-92.5 22.5l2 82q6 -6 240 -3q236 3 245 3q277 0 395 -79q119 -80 119 -226q0 -163 -105 -260t-300 -156zM575 1186l-90 -611l33 9q186 30 286.5 134.5t100.5 276.5q0 193 -192 193q-94 0 -138 -2z" />
    <glyph glyph-name="rcaron" unicode="&#x159;" horiz-adv-x="983" 
d="M666 1069h-45l-259 346l56 41l248 -219l311 219l41 -41zM862 1044q68 0 107 -38t39 -101q0 -58 -34.5 -94.5t-86.5 -36.5q-53 0 -89 52q-36 53 -67 53q-101 0 -190 -267q-88 -263 -133 -612h-246l125 821q7 51 -35 51q-46 0 -125 -77q-25 -25 -45 -2q-16 16 6 47
q170 203 348 202q137 0 109 -157l-45 -244q56 171 150 287q93 116 212 116z" />
    <glyph glyph-name="Sacute" unicode="&#x15a;" horiz-adv-x="993" 
d="M434 1397l-28 45l299 231q51 39 96 39q31 0 52 -21.5t21 -56.5q0 -68 -108 -112zM571 795q166 -87 226 -144q123 -113 123 -272q0 -179 -135 -294q-134 -116 -318 -116q-103 0 -200 41q-96 41 -111 41q-60 0 -74 -51h-84l25 313h61q44 0 51 -51q13 -90 88 -143
q74 -53 170 -53q106 0 172 68q66 69 66 163q0 77 -48 129q-47 52 -155 111q-144 74 -226 164q-83 91 -83 227q0 166 126 271q125 106 314 106q81 0 151 -24q72 -24 85 -24q41 0 47 37h80l-27 -303h-45q-44 0 -57 60q-53 165 -211 163q-91 0 -150 -53q-57 -53 -57 -139
q0 -67 47.5 -119t148.5 -108z" />
    <glyph glyph-name="sacute" unicode="&#x15b;" horiz-adv-x="776" 
d="M362 1151l-28 45l299 231q51 39 96 39q31 0 52.5 -22t21.5 -55q0 -68 -109 -113zM694 246q0 -118 -104 -192q-104 -72 -254 -72q-137 0 -229 59q-91 58 -91 139q0 42 27.5 69t71.5 27q47 0 80 -36q33 -33 50 -78q16 -43 51 -79q34 -36 83 -36q44 0 69 25.5t25 68.5
q5 41 -35 109q-8 15 -29 43l-30 42l-40 52l-42 55l-42 55q-40 54 -43 58l-33 51q-17 28 -31 58q-25 67 -25 116q0 117 95 189q94 73 247 73q109 0 194 -54q86 -54 86 -130q0 -40 -23.5 -65t-64.5 -25q-47 0 -83 33q-36 34 -53 70q-16 37 -47 71q-30 33 -68 33q-34 0 -58 -22
t-24 -56q0 -35 34 -90l35 -53l54 -72l61 -80l43 -57q36 -47 45 -61q11 -16 35 -55q23 -35 34 -63q29 -62 29 -120z" />
    <glyph glyph-name="Scedilla" unicode="&#x15e;" horiz-adv-x="993" 
d="M571 795q166 -87 226 -144q123 -113 123 -272q0 -179 -135 -294q-134 -116 -318 -116h-23l-18 -32q205 -67 205 -185q0 -78 -79 -120q-80 -42 -177 -42q-87 0 -146 32q-57 32 -57 93q0 31 20 51.5t52 20.5q36 0 50.5 -21t10.5 -52q-4 -32 11.5 -53t54.5 -21q48 0 75 27
t27 75q0 42 -28 70t-89 49q-45 14 -41 51l50 68q-57 11 -121 40q-65 31 -88 31q-60 0 -74 -51h-84l25 313h61q44 0 51 -51q13 -90 88 -143q74 -53 170 -53q106 0 172 68q66 69 66 163q0 77 -48 129q-47 52 -155 111q-144 74 -226 164q-83 91 -83 227q0 166 126 271
q125 106 314 106q81 0 151 -24q72 -24 85 -24q41 0 47 37h80l-27 -303h-45q-44 0 -57 60q-53 165 -211 163q-91 0 -150 -53q-57 -53 -57 -139q0 -67 47.5 -119t148.5 -108z" />
    <glyph glyph-name="scedilla" unicode="&#x15f;" horiz-adv-x="776" 
d="M406 975q-34 0 -58 -22t-24 -56q0 -35 34 -90l35 -53l54 -72l61 -80l43 -57q36 -47 45 -61q11 -16 35 -55q23 -35 34 -63q29 -62 29 -120q0 -106 -81 -175q-80 -68 -210 -85l-26 -49q205 -67 205 -185q0 -78 -79 -120t-177 -42q-87 0 -146 32q-57 32 -57 93q0 31 20 51.5
t52 20.5q36 0 50.5 -21t10.5 -52q-4 -32 11.5 -53t54.5 -21q48 0 75 27t27 75q0 42 -28 70t-89 49q-45 14 -41 51q-1 4 4.5 11t20 24.5t26.5 34.5q-131 4 -216 63q-85 58 -85 135q0 42 27.5 69t71.5 27q47 0 80 -36q33 -33 50 -78q16 -43 51 -79q34 -36 83 -36q44 0 69 25.5
t25 68.5q5 41 -35 109q-8 15 -29 43l-30 42l-40 52l-42 55l-42 55q-40 54 -43 58l-33 51q-17 28 -31 58q-25 67 -25 116q0 117 95 189q94 73 247 73q109 0 194 -54q86 -54 86 -130q0 -40 -23.5 -65t-64.5 -25q-47 0 -83 33q-36 34 -53 70q-16 37 -47 71q-28 33 -68 33z" />
    <glyph glyph-name="Scaron" unicode="&#x160;" horiz-adv-x="993" 
d="M625 1315h-45l-258 346l55 41l248 -219l311 219l41 -41zM571 795q166 -87 226 -144q123 -113 123 -272q0 -179 -135 -294q-134 -116 -318 -116q-103 0 -200 41q-96 41 -111 41q-60 0 -74 -51h-84l25 313h61q44 0 51 -51q13 -90 88 -143q74 -53 170 -53q106 0 172 68
q66 69 66 163q0 77 -48 129q-47 52 -155 111q-144 74 -226 164q-83 91 -83 227q0 166 126 271q125 106 314 106q81 0 151 -24q72 -24 85 -24q41 0 47 37h80l-27 -303h-45q-44 0 -57 60q-53 165 -211 163q-91 0 -150 -53q-57 -53 -57 -139q0 -67 47.5 -119t148.5 -108z" />
    <glyph glyph-name="scaron" unicode="&#x161;" horiz-adv-x="776" 
d="M553 1069h-45l-258 346l55 41l248 -219l311 219l41 -41zM694 246q0 -118 -104 -192q-104 -72 -254 -72q-137 0 -229 59q-91 58 -91 139q0 42 27.5 69t71.5 27q47 0 80 -36q33 -33 50 -78q16 -43 51 -79q34 -36 83 -36q44 0 69 25.5t25 68.5q5 41 -35 109q-8 15 -29 43
l-30 42l-40 52l-42 55l-42 55q-40 54 -43 58l-33 51q-17 28 -31 58q-25 67 -25 116q0 117 95 189q94 73 247 73q109 0 194 -54q86 -54 86 -130q0 -40 -23.5 -65t-64.5 -25q-47 0 -83 33q-36 34 -53 70q-16 37 -47 71q-30 33 -68 33q-34 0 -58 -22t-24 -56q0 -35 34 -90
l35 -53l54 -72l61 -80l43 -57q36 -47 45 -61q11 -16 35 -55q23 -35 34 -63q29 -62 29 -120z" />
    <glyph glyph-name="Tcommaaccent" unicode="&#x162;" horiz-adv-x="1148" 
d="M1114 1288l92 -2l-110 -321h-92q56 215 -54 215h-143l-143 -1030q-6 -38 19 -51q23 -12 108 -17l-3 -82q-283 10 -569 0l4 82q144 7 158 82l143 1016h-135q-36 0 -72 -41q-16 -18 -47 -69q-4 -8 -29 -49l-32 -56h-94l106 321l82 -2q56 -12 209 -12h393q139 0 209 16z
M543 0l-35 -63q205 -67 205 -185q0 -78 -79 -120q-80 -42 -177 -42q-87 0 -146 32q-57 32 -57 93q0 31 20 51.5t52 20.5q36 0 50.5 -21t10.5 -52q-4 -32 11.5 -53t54.5 -21q48 0 75 27t27 75q0 42 -28 70t-89 49q-45 14 -41 51q-1 3 5.5 11.5t24.5 30.5t34 46h82z" />
    <glyph glyph-name="tcommaaccent" unicode="&#x163;" horiz-adv-x="688" 
d="M522 1024h148q18 0 16 -18l-8 -54q-5 -14 -16 -14h-152l-109 -725q-7 -55 37 -55q48 0 115 67q20 18 39 2q20 -19 -2 -47q-124 -152 -273 -186l-30 -57q205 -67 205 -185q0 -78 -79 -120t-177 -42q-87 0 -146 32q-57 32 -57 93q0 31 19.5 51.5t51.5 20.5q36 0 51 -21
t11 -52q-4 -32 11 -53t54 -21q49 0 76 27t27 75q0 42 -28 70t-89 49q-45 14 -41 51q-1 3 5 11t21 26t27 37q-115 12 -94 147l119 805h-143q-20 0 -17 18l8 54q5 14 17 14h147l41 281h258z" />
    <glyph glyph-name="Tcaron" unicode="&#x164;" horiz-adv-x="1148" 
d="M1059 1661l-352 -346h-45l-259 346l56 41l248 -219l311 219zM1114 1288l92 -2l-110 -321h-92q56 215 -54 215h-143l-143 -1030q-6 -38 19 -51q23 -12 108 -17l-3 -82q-283 10 -569 0l4 82q144 7 158 82l143 1016h-135q-36 0 -72 -41q-16 -18 -47 -69q-4 -8 -29 -49
l-32 -56h-94l106 321l82 -2q56 -12 209 -12h393q139 0 209 16z" />
    <glyph glyph-name="tcaron" unicode="&#x165;" horiz-adv-x="903" 
d="M848 1315q60 0 93.5 -41t33.5 -111q0 -92 -52 -189q-50 -96 -128 -169q-25 -18 -39 0l-17 22q84 90 99 181q2 20 0 26q-17 -4 -37 -4q-54 0 -86.5 34.5t-32.5 86.5q0 65 48 115q48 49 118 49zM522 1024h148q18 0 16 -18l-8 -54q-5 -14 -16 -14h-152l-109 -725
q-7 -55 37 -55q48 0 115 67q20 18 39 2q20 -19 -2 -47q-76 -94 -166 -144t-174 -50q-65 0 -95 39.5t-20 107.5l119 805h-143q-20 0 -17 18l8 54q5 14 17 14h147l41 281h258z" />
    <glyph glyph-name="Tbar" unicode="&#x166;" horiz-adv-x="1148" 
d="M1114 1288l92 -2l-110 -321h-92q56 215 -54 215h-143l-64 -463h127q39 0 33 -35l-12 -96q-2 -35 -43 -35h-129l-55 -401q-6 -38 19 -51q23 -12 108 -17l-3 -82q-283 10 -569 0l4 82q144 7 158 82l55 387h-133q-39 0 -33 35l13 96q2 35 43 35h133l65 463h-135
q-36 0 -72 -41q-16 -18 -47 -69q-4 -8 -29 -49l-32 -56h-94l106 321l82 -2q56 -12 209 -12h393q139 0 209 16z" />
    <glyph glyph-name="tbar" unicode="&#x167;" horiz-adv-x="688" 
d="M522 1024h148q18 0 16 -18l-8 -54q-5 -14 -16 -14h-152l-29 -197h148q17 0 16 -18l-8 -53q-5 -14 -16 -15h-154l-66 -442q-7 -55 37 -55q48 0 115 67q20 18 39 2q20 -19 -2 -47q-76 -94 -166 -144t-174 -50q-65 0 -95 39.5t-20 107.5l76 522h-141q-20 0 -17 19l8 53
q5 14 17 14h147l29 197h-143q-20 0 -17 18l8 54q5 14 17 14h147l41 281h258z" />
    <glyph glyph-name="Umacron" unicode="&#x16a;" horiz-adv-x="1425" 
d="M1143 1444h-565q-37 0 -31 35l8 82q6 36 41 34h563q37 0 31 -34l-8 -82q-6 -35 -39 -35zM903 1190l2 82q285 -6 570 0l-5 -82q-147 -7 -159 -82l-133 -958q-4 -38 21 -51q23 -12 108 -17l-4 -82q-69 4 -235 4q-163 0 -218 -4l6 86q33 20 39 78l6 45q-151 -229 -389 -229
q-173 0 -265 91q-93 91 -93 246q0 27 110 805q4 36 -22 50t-107 18l2 82q285 -6 572 0l-4 -82q-146 -7 -160 -82q-109 -781 -109 -850q0 -184 127 -184q190 0 359 274l110 774q4 36 -22 50t-107 18z" />
    <glyph glyph-name="umacron" unicode="&#x16b;" 
d="M453 1233l8 82q6 35 41 35h563q37 0 31 -35l-9 -82q-6 -35 -38 -35h-566q-38 0 -30 35zM86 799q-20 19 2 47q76 94 166 144t174 50q69 0 101 -39.5t18 -107.5l-103 -551q-47 -242 60 -242q116 0 240 252q125 250 184 674h237l-116 -821q-7 -51 34 -51q40 0 123 77
q23 23 45 2q18 -16 -6 -47q-170 -204 -352 -202q-135 0 -107 157l66 332q-78 -225 -186 -357q-106 -132 -275 -132q-121 0 -185 81q-63 82 -24 277l94 471q12 55 -36 55q-46 0 -117 -67q-20 -18 -37 -2z" />
    <glyph glyph-name="ubreve" unicode="&#x16d;" 
d="M764 1167q-122 0 -192 73t-62 204h113q4 -48 48.5 -79.5t110.5 -31.5q69 0 120.5 31.5t66.5 79.5h114q-22 -129 -112 -203q-89 -74 -207 -74zM86 799q-20 19 2 47q76 94 166 144t174 50q69 0 101 -39.5t18 -107.5l-103 -551q-47 -242 60 -242q116 0 240 252
q125 250 184 674h237l-116 -821q-7 -51 34 -51q40 0 123 77q23 23 45 2q18 -16 -6 -47q-170 -204 -352 -202q-135 0 -107 157l66 332q-78 -225 -186 -357q-106 -132 -275 -132q-121 0 -185 81q-63 82 -24 277l94 471q12 55 -36 55q-46 0 -117 -67q-20 -18 -37 -2z" />
    <glyph glyph-name="Uring" unicode="&#x16e;" horiz-adv-x="1425" 
d="M852 1382q-68 0 -108 46q-39 46 -31 112q7 65 58 111q49 45 118 45q65 0 106 -45t33 -111q-8 -65 -59 -112q-50 -46 -117 -46zM795 1540q-4 -31 15.5 -54.5t49.5 -23.5q29 0 55 23q28 24 29 55q4 28 -16 52t-47 24q-30 0 -56 -23t-30 -53zM903 1190l2 82q285 -6 570 0
l-5 -82q-147 -7 -159 -82l-133 -958q-4 -38 21 -51q23 -12 108 -17l-4 -82q-69 4 -235 4q-163 0 -218 -4l6 86q33 20 39 78l6 45q-151 -229 -389 -229q-173 0 -265 91q-93 91 -93 246q0 27 110 805q4 36 -22 50t-107 18l2 82q285 -6 572 0l-4 -82q-146 -7 -160 -82
q-109 -781 -109 -850q0 -184 127 -184q190 0 359 274l110 774q4 36 -22 50t-107 18z" />
    <glyph glyph-name="uring" unicode="&#x16f;" 
d="M758 1137q-68 0 -108 46q-40 45 -32 111q9 65 59 111q49 45 118 45q65 0 106 -45t33 -111q-7 -64 -59 -111q-50 -46 -117 -46zM766 1217q29 0 55 23q28 24 29 54q4 29 -15.5 52.5t-48.5 23.5q-30 0 -55.5 -23t-30.5 -53q-4 -31 15.5 -54t50.5 -23zM86 799q-20 19 2 47
q76 94 166 144t174 50q69 0 101 -39.5t18 -107.5l-103 -551q-47 -242 60 -242q116 0 240 252q125 250 184 674h237l-116 -821q-7 -51 34 -51q40 0 123 77q23 23 45 2q18 -16 -6 -47q-170 -204 -352 -202q-135 0 -107 157l66 332q-78 -225 -186 -357q-106 -132 -275 -132
q-121 0 -185 81q-63 82 -24 277l94 471q12 55 -36 55q-46 0 -117 -67q-20 -18 -37 -2z" />
    <glyph glyph-name="Uhungarumlaut" unicode="&#x170;" horiz-adv-x="1425" 
d="M846 1520l-314 -125l-26 47l256 233q41 39 81 39t62 -39q25 -39 7 -87q-17 -49 -66 -68zM1204 1520l-313 -125l-29 47l256 233q41 39 81 39t64 -39q25 -39 7 -87q-17 -49 -66 -68zM903 1190l2 82q285 -6 570 0l-5 -82q-147 -7 -159 -82l-133 -958q-4 -38 21 -51
q23 -12 108 -17l-4 -82q-69 4 -235 4q-163 0 -218 -4l6 86q33 20 39 78l6 45q-151 -229 -389 -229q-173 0 -265 91q-93 91 -93 246q0 27 110 805q4 36 -22 50t-107 18l2 82q285 -6 572 0l-4 -82q-146 -7 -160 -82q-109 -781 -109 -850q0 -184 127 -184q190 0 359 274
l110 774q4 36 -22 50t-107 18z" />
    <glyph glyph-name="uhungarumlaut" unicode="&#x171;" 
d="M438 1149l-26 47l256 234q41 39 80.5 38.5t62.5 -38.5q25 -38 7 -88q-17 -49 -66 -68zM797 1149l-29 47l256 234q41 39 81 38.5t64 -39.5q25 -37 7 -87q-17 -49 -66 -68zM86 799q-20 19 2 47q76 94 166 144t174 50q69 0 101 -39.5t18 -107.5l-103 -551q-47 -242 60 -242
q116 0 240 252q125 250 184 674h237l-116 -821q-7 -51 34 -51q40 0 123 77q23 23 45 2q18 -16 -6 -47q-170 -204 -352 -202q-135 0 -107 157l66 332q-78 -225 -186 -357q-106 -132 -275 -132q-121 0 -185 81q-63 82 -24 277l94 471q12 55 -36 55q-46 0 -117 -67
q-20 -18 -37 -2z" />
    <glyph glyph-name="Uogonek" unicode="&#x172;" horiz-adv-x="1425" 
d="M903 1190l2 82q285 -6 570 0l-5 -82q-147 -7 -159 -82l-133 -958q-4 -38 21 -51q23 -12 108 -17l-4 -82q-69 4 -235 4q-163 0 -218 -4l6 86q33 20 39 78l6 45q-102 -156 -254 -207q-184 -78 -184 -195q0 -46 31 -73t81 -27q89 0 127 66l64 -43q-83 -143 -305 -144
q-85 0 -156 41q-69 41 -69 129q0 75 52.5 137t139.5 93q-132 20 -203 107.5t-71 223.5q0 27 110 805q4 36 -22 50t-107 18l2 82q285 -6 572 0l-4 -82q-146 -7 -160 -82q-109 -781 -109 -850q0 -184 127 -184q190 0 359 274l110 774q4 36 -22 50t-107 18z" />
    <glyph glyph-name="uogonek" unicode="&#x173;" 
d="M1251 233q18 -16 -6 -47q-83 -99 -172 -149l6 -2q-138 -77 -182 -126q-45 -50 -45 -106q0 -45 29.5 -70.5t81.5 -25.5q85 0 129 66l65 -43q-34 -58 -106 -101q-70 -43 -172 -43q-104 0 -178 44t-74 143q0 133 184 233q-43 39 -25 135l66 332q-78 -225 -186 -357
q-106 -132 -275 -132q-121 0 -185 81q-63 82 -24 277l94 471q12 55 -36 55q-46 0 -117 -67q-18 -18 -37 -2q-20 19 2 47q76 94 166 144t174 50q69 0 101 -39.5t18 -107.5l-103 -551q-47 -242 60 -242q116 0 240 252q125 250 184 674h237l-116 -821q-7 -51 34 -51
q40 0 123 77q22 22 45 2z" />
    <glyph glyph-name="Wcircumflex" unicode="&#x174;" horiz-adv-x="1929" 
d="M1354 1317l-248 219l-311 -219l-41 41l352 346h45l258 -346zM1563 1190l2 82q215 -8 432 0l-2 -82q-153 -7 -185 -80l-503 -1128h-101l-190 929l-408 -929h-102l-232 1142q-6 37 -30 49q-21 12 -101 17l4 82q283 -10 568 0l-2 -82q-83 -4 -124.5 -24.5t-33.5 -55.5
l139 -758l293 699l-14 73q-6 37 -30 49q-21 12 -101 17l4 82q283 -10 569 0l-4 -82q-170 -11 -158 -80l140 -758l321 772q1 5 2.5 12t1.5 9q2 9 -7.5 16t-23.5 12q-11 5 -33 9q-12 2 -91 8z" />
    <glyph glyph-name="wcircumflex" unicode="&#x175;" horiz-adv-x="1652" 
d="M958 1458h46l258 -346l-56 -41l-248 219l-311 -219l-41 41zM1473 1036q141 0 141 -227q0 -209 -78 -401q-78 -190 -210 -309q-132 -117 -277 -117q-78 0 -142 34q-63 34 -98 82q-124 -117 -291 -116q-135 0 -223 73t-88 213q0 144 88 283q91 144 227 291h-332
q-28 0 -26 -27q-1 -15 15 -31t36 -28.5t36 -37t15 -54.5q0 -36 -24 -60t-66 -24q-52 0 -83.5 35t-31.5 100q0 117 96 214q97 97 251 97h333q-305 -452 -305 -668q0 -94 52.5 -149t140.5 -55q82 0 125 49q-45 103 -45 227q0 211 115 410q116 200 257 200q67 0 105.5 -52.5
t38.5 -145.5q0 -163 -73 -328q-73 -166 -175 -278q66 -82 166 -82q147 0 233 134t86 308q1 57 -15 110.5t-36 86t-36 68t-15 61.5q0 44 33 79t80 35zM1069 965q-73 0 -122 -132q-50 -132 -50 -301q0 -120 45 -227q81 88 143 234q62 147 62 274q0 68 -21.5 110t-56.5 42z" />
    <glyph glyph-name="Ycircumflex" unicode="&#x176;" horiz-adv-x="1259" 
d="M768 1704h45l258 -346l-55 -41l-248 219l-311 -219l-41 41zM942 1190l2 82q190 -7 383 0l-4 -82q-121 -10 -193 -127l-358 -555l-53 -358q-4 -37 22 -51q26 -13 109 -19l-2 -80q-283 10 -569 0l4 82q145 7 157 82l49 338l-229 614q-8 26 -15 36q-19 31 -110 38l2 82
q283 -10 570 0l-5 -82q-73 -6 -103 -29t-17 -57l170 -467l278 440q66 98 -88 113z" />
    <glyph glyph-name="ycircumflex" unicode="&#x177;" horiz-adv-x="1058" 
d="M893 1071l-248 219l-311 -219l-41 41l352 346h45l258 -346zM854 1047q77 0 124.5 -57.5t47.5 -160.5q0 -298 -270 -794q-156 -283 -249 -382q-95 -102 -188 -102q-75 0 -125 46q-51 45 -51 118q0 63 38 102.5t95 39.5q29 1 55 -16.5t41.5 -39.5t32.5 -39.5t31 -15.5
q46 0 137 148l-323 845q-25 63 -70 64q-41 0 -86 -27q-23 -14 -37 15q-11 23 9 32q72 40 141 98q14 12 35.5 30.5t32 27.5t25.5 22t23 19t18 12.5t16.5 9t11.5 2.5q45 0 90 -116q4 -6 6 -13l270 -727q187 376 189 578q0 20 -5.5 21.5t-28.5 -6t-46 -7.5q-57 0 -96 40t-39 95
q0 56 41 97t104 41z" />
    <glyph glyph-name="Ydieresis" unicode="&#x178;" horiz-adv-x="1259" 
d="M653 1455q-38 -38 -90 -38q-53 0 -91 38t-38 91q0 52 38 90q37 37 91 37q53 0 90 -37t37 -90q0 -54 -37 -91zM979 1417q-54 0 -92 38q-37 37 -37 91q0 53 37 90t92 37q53 0 89 -37q36 -38 36 -90q0 -54 -36 -91q-36 -38 -89 -38zM942 1190l2 82q190 -7 383 0l-4 -82
q-121 -10 -193 -127l-358 -555l-53 -358q-4 -37 22 -51q26 -13 109 -19l-2 -80q-283 10 -569 0l4 82q145 7 157 82l49 338l-229 614q-8 26 -15 36q-19 31 -110 38l2 82q283 -10 570 0l-5 -82q-73 -6 -103 -29t-17 -57l170 -467l278 440q66 98 -88 113z" />
    <glyph glyph-name="Zacute" unicode="&#x179;" horiz-adv-x="1144" 
d="M856 1522l-332 -125l-28 45l299 231q51 39 96 39q31 0 52.5 -21.5t21.5 -56.5q0 -67 -109 -112zM784 215l148 147l141 -6q-91 -113 -178 -266l47 -10q38 -8 33 -37l-6 -43h-989l835 1190h-350q-51 0 -86 -36q-35 -37 -92 -134l-13 -23l-104 9l106 280l84 -2
q52 -12 209 -12h625l-838 -1190h174q66 0 117 20q48 20 70 41q20 18 67 72z" />
    <glyph glyph-name="zacute" unicode="&#x17a;" horiz-adv-x="964" 
d="M401 1151l-28 45l299 231q51 39 96 39q31 0 52.5 -22t21.5 -55q0 -68 -109 -113zM756 395q64 0 107 -57q44 -58 44 -137q0 -89 -62 -163q-61 -73 -173 -73q-82 0 -193 45q-110 45 -164 45q-123 0 -217 -96l-69 70l643 759q-40 -33 -101 -32q-93 0 -213 59t-161 59
q-29 0 -29 -20q0 -15 38 -32q38 -15 75 -42q38 -26 38 -73q0 -40 -24 -64.5t-70 -24.5q-63 0 -106 57q-43 58 -43 138q0 90 61 163t174 73q83 0 191 -43t172 -43q98 0 192 96l70 -70l-643 -760q39 33 121 33q95 0 211 -61q119 -60 161 -60q29 0 29 21q0 14 -38 31
q-42 20 -76 46q-37 28 -37 74q0 36 24 59t68 23z" />
    <glyph glyph-name="Zdotaccent" unicode="&#x17b;" horiz-adv-x="1144" 
d="M717 1395q-63 0 -108 45q-44 46 -44 106q0 62 44 106t108 44q60 0 104 -44q43 -43 43 -106q0 -62 -43 -106q-43 -45 -104 -45zM784 215l148 147l141 -6q-91 -113 -178 -266l47 -10q38 -8 33 -37l-6 -43h-989l835 1190h-350q-51 0 -86 -36q-35 -37 -92 -134l-13 -23
l-104 9l106 280l84 -2q52 -12 209 -12h625l-838 -1190h174q66 0 117 20q48 20 70 41q20 18 67 72z" />
    <glyph glyph-name="zdotaccent" unicode="&#x17c;" horiz-adv-x="964" 
d="M594 1149q-63 0 -108 45q-44 46 -44 106q0 62 44 106t108 44q60 0 104 -44q43 -43 43 -106q0 -62 -43 -106q-44 -45 -104 -45zM756 395q64 0 107 -57q44 -58 44 -137q0 -89 -62 -163q-61 -73 -173 -73q-82 0 -193 45q-110 45 -164 45q-123 0 -217 -96l-69 70l643 759
q-40 -33 -101 -32q-93 0 -213 59t-161 59q-29 0 -29 -20q0 -15 38 -32q38 -15 75 -42q38 -26 38 -73q0 -40 -24 -64.5t-70 -24.5q-63 0 -106 57q-43 58 -43 138q0 90 61 163t174 73q83 0 191 -43t172 -43q98 0 192 96l70 -70l-643 -760q39 33 121 33q95 0 211 -61
q119 -60 161 -60q29 0 29 21q0 14 -38 31q-42 20 -76 46q-37 28 -37 74q0 36 24 59t68 23z" />
    <glyph glyph-name="Zcaron" unicode="&#x17d;" horiz-adv-x="1144" 
d="M1067 1661l-352 -346h-45l-258 346l55 41l248 -219l311 219zM784 215l148 147l141 -6q-91 -113 -178 -266l47 -10q38 -8 33 -37l-6 -43h-989l835 1190h-350q-51 0 -86 -36q-35 -37 -92 -134l-13 -23l-104 9l106 280l84 -2q52 -12 209 -12h625l-838 -1190h174q66 0 117 20
q48 20 70 41q20 18 67 72z" />
    <glyph glyph-name="zcaron" unicode="&#x17e;" horiz-adv-x="964" 
d="M592 1069h-45l-258 346l55 41l248 -219l311 219l41 -41zM756 395q64 0 107 -57q44 -58 44 -137q0 -89 -62 -163q-61 -73 -173 -73q-82 0 -193 45q-110 45 -164 45q-123 0 -217 -96l-69 70l643 759q-40 -33 -101 -32q-93 0 -213 59t-161 59q-29 0 -29 -20q0 -15 38 -32
q38 -15 75 -42q38 -26 38 -73q0 -40 -24 -64.5t-70 -24.5q-63 0 -106 57q-43 58 -43 138q0 90 61 163t174 73q83 0 191 -43t172 -43q98 0 192 96l70 -70l-643 -760q39 33 121 33q95 0 211 -61q119 -60 161 -60q29 0 29 21q0 14 -38 31q-42 20 -76 46q-37 28 -37 74
q0 36 24 59t68 23z" />
    <glyph glyph-name="florin" unicode="&#x192;" horiz-adv-x="595" 
d="M901 1225q18 -26 11 -62q-8 -38 -40 -57q-35 -20 -66.5 -13.5t-41.5 33.5q0 1 -1.5 4t-3 7t-2.5 9l-7 22l-8 21q-1 4 -20 37q-3 6 -7 10.5t-6.5 7t-8 6.5t-8.5 7q-22 21 -74 21q-72 0 -121 -45q-15 -15 -29 -61q-14 -44 -18 -69l-14 -87l-10 -80h276q11 0 18 -5t3 -13
l-10 -23q-17 -31 -27 -43q-14 -16 -41 -16h-233l-123 -871q-27 -179 -122 -279q-94 -100 -237 -100q-91 0 -162 44t-98 106q-16 25 -6 62q10 35 45 52q37 17 67.5 8t39.5 -38q7 -11 11 -45q3 -28 13 -43q22 -35 23 -36q27 -22 59 -22q86 0 125 68q39 67 57 199l125 895h-106
q-24 0 -19 20l11 80h129l8 55q52 375 379 375q191 0 270 -141z" />
    <glyph glyph-name="uni01CD" unicode="&#x1cd;" 
d="M1165 1661l-352 -346h-45l-258 346l55 41l248 -219l311 219zM862 1282l215 -1018q26 -108 56 -141q32 -35 122 -41l-4 -82q-295 7 -598 0l4 82q93 6 130.5 30.5t25.5 80.5l-51 239h-352l-113 -252q-13 -34 -8 -48t28 -29q11 -6 39 -11q45 -6 113 -10v-82q-252 10 -504 0
l4 82q100 6 154 39q55 33 90 104l487 1057h162zM647 961l-198 -443h294z" />
    <glyph glyph-name="uni01CE" unicode="&#x1ce;" horiz-adv-x="1175" 
d="M692 1069h-45l-258 346l55 41l248 -219l312 219l40 -41zM1090 227q20 -18 -3 -47q-76 -93 -165.5 -143.5t-169.5 -50.5q-70 0 -104 40t-21 107l30 154q-59 -154 -139.5 -227.5t-204.5 -73.5q-118 0 -198 71q-78 72 -78 234q0 133 57 268q59 137 151 242q92 107 225 175
t269 68q131 0 281 -59l-123 -772q-7 -55 39 -55q48 0 115 67q20 18 39 2zM403 96q104 0 188 189q85 191 132 444l37 205q-18 37 -84 37q-94 0 -171 -74q-76 -73 -120 -184q-86 -219 -86 -408q0 -96 27.5 -152.5t76.5 -56.5z" />
    <glyph glyph-name="Scommaaccent" unicode="&#x218;" horiz-adv-x="993" 
d="M571 795q166 -87 226 -144q123 -113 123 -272q0 -179 -135 -294q-134 -116 -318 -116q-103 0 -200 41q-96 41 -111 41q-60 0 -74 -51h-84l25 313h61q44 0 51 -51q13 -90 88 -143q74 -53 170 -53q106 0 172 68q66 69 66 163q0 77 -48 129q-47 52 -155 111
q-144 74 -226 164q-83 91 -83 227q0 166 126 271q125 106 314 106q81 0 151 -24q72 -24 85 -24q41 0 47 37h80l-27 -303h-45q-44 0 -57 60q-53 165 -211 163q-91 0 -150 -53q-57 -53 -57 -139q0 -67 47.5 -119t148.5 -108zM328 -633q-26 -18 -39 0l-17 23q84 90 99 180
q1 20 0 27q-12 -3 -37 -5q-54 0 -86.5 34.5t-32.5 86.5q0 65 48 115q48 49 118 49q60 0 93.5 -40.5t33.5 -110.5q0 -92 -51 -189q-52 -98 -129 -170z" />
    <glyph glyph-name="scommaaccent" unicode="&#x219;" horiz-adv-x="776" 
d="M694 246q0 -118 -104 -192q-104 -72 -254 -72q-137 0 -229 59q-91 58 -91 139q0 42 27.5 69t71.5 27q47 0 80 -36q33 -33 50 -78q16 -43 51 -79q34 -36 83 -36q44 0 69 25.5t25 68.5q5 41 -35 109q-8 15 -29 43l-30 42l-40 52l-42 55l-42 55q-40 54 -43 58l-33 51
q-17 28 -31 58q-25 67 -25 116q0 117 95 189q94 73 247 73q109 0 194 -54q86 -54 86 -130q0 -40 -23.5 -65t-64.5 -25q-47 0 -83 33q-36 34 -53 70q-16 37 -47 71q-30 33 -68 33q-34 0 -58 -22t-24 -56q0 -35 34 -90l35 -53l54 -72l61 -80l43 -57q36 -47 45 -61
q11 -16 35 -55q23 -35 34 -63q29 -62 29 -120zM279 -633q-25 -18 -39 0l-17 23q84 90 99 180q2 20 0 27q-12 -3 -37 -5q-54 0 -86.5 34.5t-32.5 86.5q0 65 48 115q48 49 118 49q60 0 93.5 -40.5t33.5 -110.5q0 -92 -51 -189q-52 -98 -129 -170z" />
    <glyph glyph-name="uni021A" unicode="&#x21a;" horiz-adv-x="1148" 
d="M1114 1288l92 -2l-110 -321h-92q56 215 -54 215h-143l-143 -1030q-6 -38 19 -51q23 -12 108 -17l-3 -82q-283 10 -569 0l4 82q144 7 158 82l143 1016h-135q-36 0 -72 -41q-16 -18 -47 -69q-4 -8 -29 -49l-32 -56h-94l106 321l82 -2q56 -12 209 -12h393q139 0 209 16z
M463 -123q60 0 93.5 -40.5t33.5 -110.5q0 -92 -52 -189q-51 -98 -128 -170q-26 -18 -39 0l-17 23q84 90 99 180q1 20 0 27q-12 -3 -37 -5q-54 0 -86.5 34.5t-32.5 86.5q0 65 48 115q48 49 118 49z" />
    <glyph glyph-name="uni021B" unicode="&#x21b;" horiz-adv-x="688" 
d="M522 1024h148q18 0 16 -18l-8 -54q-5 -14 -16 -14h-152l-109 -725q-7 -55 37 -55q48 0 115 67q20 18 39 2q20 -19 -2 -47q-76 -94 -166 -144t-174 -50q-65 0 -95 39.5t-20 107.5l119 805h-143q-20 0 -17 18l8 54q5 14 17 14h147l41 281h258zM242 -123q60 0 93.5 -40.5
t33.5 -110.5q0 -92 -52 -189q-52 -98 -129 -170q-25 -18 -38 0l-17 23q85 91 98 180q1 20 0 27q-12 -3 -36 -5q-54 0 -86.5 34.5t-32.5 86.5q0 65 48 115q48 49 118 49z" />
    <glyph glyph-name="uni0237" unicode="&#x237;" horiz-adv-x="643" 
d="M465 1044q135 0 106 -159l-92 -563q-58 -360 -190 -546q-60 -84 -128 -135q-117 -90 -259 -90q-119 0 -186.5 38t-67.5 104q0 47 34 81q33 33 80 33q66 0 122 -82q22 -35 52.5 -59t61.5 -24q123 0 170 305l139 874q7 51 -33 51q-48 0 -122 -77q-27 -23 -48 -2
q-16 15 7 47q173 204 354 204z" />
    <glyph glyph-name="circumflex" unicode="&#x2c6;" horiz-adv-x="929" 
d="M436 1458h45l258 -346l-55 -41l-248 219l-311 -219l-41 41z" />
    <glyph glyph-name="caron" unicode="&#x2c7;" horiz-adv-x="929" 
d="M430 1069h-45l-258 346l55 41l248 -219l311 219l41 -41z" />
    <glyph glyph-name="breve" unicode="&#x2d8;" horiz-adv-x="813" 
d="M487 1167q-122 0 -192 73t-62 204h113q4 -48 48.5 -79.5t111.5 -31.5q69 0 121 32q51 32 65 79h115q-22 -129 -112 -203q-89 -74 -208 -74z" />
    <glyph glyph-name="dotaccent" unicode="&#x2d9;" horiz-adv-x="534" 
d="M367 1149q-63 0 -108 45q-44 46 -44 106q0 62 44 106t108 44q60 0 104 -44q43 -43 43 -106q0 -62 -43 -106q-43 -45 -104 -45z" />
    <glyph glyph-name="ring" unicode="&#x2da;" horiz-adv-x="651" 
d="M352 1137q-68 0 -108 46q-39 46 -31 111q7 65 58 111q51 45 118 45q66 0 107 -45t32 -111q-7 -64 -59 -111q-50 -46 -117 -46zM360 1217q29 0 55 23q28 24 29 54q4 30 -15 53t-48 23q-30 0 -56 -23t-30 -53q-4 -31 15 -54t50 -23z" />
    <glyph glyph-name="ogonek" unicode="&#x2db;" horiz-adv-x="798" 
d="M438 -227l54 -43q-101 -143 -308 -144q-74 0 -132 34t-58 110q0 94 78 169q79 74 190 101h150q-197 -107 -197 -213q0 -80 96 -80q82 0 127 66z" />
    <glyph glyph-name="tilde" unicode="&#x2dc;" horiz-adv-x="1003" 
d="M840 1421l75 -12q-18 -121 -87 -181q-68 -59 -160 -59q-54 -1 -107.5 16.5t-87.5 39.5t-67 39.5t-52 15.5q-36 0 -59 -27q-21 -25 -21 -49l-73 13q12 115 72.5 172t156.5 57q101 0 192 -46q92 -46 136 -46q32 0 58 24q25 25 24 43z" />
    <glyph glyph-name="hungarumlaut" unicode="&#x2dd;" horiz-adv-x="1228" 
d="M127 1149l-27 47l256 234q39 39 80 38.5t64 -38.5q25 -38 7 -88q-18 -49 -67 -68zM485 1149l-28 47l256 234q41 39 81 38.5t64 -39.5q25 -37 7 -87q-17 -49 -66 -68z" />
    <glyph glyph-name="gravecomb" unicode="&#x300;" horiz-adv-x="0" 
d="M-284 1430l279 -234l-31 -47l-344 125q-54 19 -74 68q-19 49 6 88q29 39 74 38.5t90 -38.5z" />
    <glyph glyph-name="acutecomb" unicode="&#x301;" horiz-adv-x="0" 
d="M-422 1151l-29 45l299 231q51 39 97 39q31 0 52 -22t21 -55q0 -68 -108 -113z" />
    <glyph glyph-name="uni0302" unicode="&#x302;" horiz-adv-x="0" 
d="M-219 1458h45l258 -346l-55 -41l-248 219l-311 -219l-41 41z" />
    <glyph glyph-name="tildecomb" unicode="&#x303;" horiz-adv-x="0" 
d="M-51 1421l76 -12q-18 -121 -87 -181q-70 -59 -161 -59q-54 -1 -107.5 16.5t-87.5 39.5t-67 39.5t-52 15.5q-37 0 -58 -27q-21 -25 -21 -49l-74 13q12 115 72.5 172t156.5 57q101 0 193 -46q91 -46 135 -46q33 0 59 24q25 25 23 43z" />
    <glyph glyph-name="uni0304" unicode="&#x304;" horiz-adv-x="0" 
d="M-635 1233l8 82q6 35 41 35h563q37 0 31 -35l-8 -82q-6 -35 -39 -35h-565q-37 0 -31 35z" />
    <glyph glyph-name="uni0306" unicode="&#x306;" horiz-adv-x="0" 
d="M-291 1167q-121 0 -191 73q-70 74 -63 204h113q4 -48 48.5 -79.5t111.5 -31.5q69 0 121 32q51 32 65 79h115q-22 -129 -112 -203q-89 -74 -208 -74z" />
    <glyph glyph-name="uni0307" unicode="&#x307;" horiz-adv-x="0" 
d="M-141 1149q-63 0 -107 45q-45 45 -45 106q0 62 44 106t108 44q60 0 104 -44q43 -43 43 -106q0 -62 -43 -106q-44 -45 -104 -45z" />
    <glyph glyph-name="uni0308" unicode="&#x308;" horiz-adv-x="0" 
d="M-450 1209q-38 -38 -90 -38q-54 0 -92 38t-38 91q0 54 38 90q37 37 92 37q53 0 90 -37q36 -36 36 -90t-36 -91zM-125 1171q-54 0 -92 38q-37 37 -37 91t37 90q37 37 92 37q53 0 89 -37q36 -36 36 -90t-36 -91q-36 -38 -89 -38z" />
    <glyph glyph-name="uni030A" unicode="&#x30a;" horiz-adv-x="0" 
d="M-168 1137q-68 0 -107 46q-40 45 -32 111q7 65 58 111q50 45 118 45q67 0 107 -45q40 -44 32 -111q-7 -64 -59 -111q-50 -46 -117 -46zM-160 1217q28 0 56 23q27 25 28 54q5 29 -15 52q-19 24 -48 24q-30 0 -56 -23t-30 -53q-4 -31 15 -54t50 -23z" />
    <glyph glyph-name="uni030B" unicode="&#x30b;" horiz-adv-x="0" 
d="M-848 1149l-26 47l256 234q39 39 79.5 38.5t63.5 -38.5q25 -38 8 -88q-18 -48 -68 -68zM-489 1149l-29 47l256 234q41 39 81 38.5t65 -39.5q24 -37 7 -87q-18 -49 -67 -68z" />
    <glyph glyph-name="uni030C" unicode="&#x30c;" horiz-adv-x="0" 
d="M-225 1069h-45l-258 346l55 41l248 -219l311 219l41 -41z" />
    <glyph glyph-name="uni0326" unicode="&#x326;" horiz-adv-x="0" 
d="M-393 -633q-25 -18 -39 0l-17 23q84 90 99 180q2 20 0 27q-12 -3 -37 -5q-54 0 -86.5 34.5t-32.5 86.5q0 65 48 115q48 49 118 49q60 0 93.5 -40.5t33.5 -110.5q0 -92 -51 -189q-52 -98 -129 -170z" />
    <glyph glyph-name="uni0327" unicode="&#x327;" horiz-adv-x="0" 
d="M-471 -360q48 0 75 27t27 75q0 42 -28 70t-88 49q-45 14 -41 51q0 6 6 13q28 32 57 75h82l-35 -63q205 -67 205 -185q0 -78 -79 -120q-80 -42 -177 -42q-87 0 -145 32q-58 31 -58 93q0 31 20 51.5t52 20.5q36 0 51 -21t11 -52q-6 -32 10 -53t55 -21z" />
    <glyph glyph-name="uni0328" unicode="&#x328;" horiz-adv-x="0" 
d="M-266 -227l53 -43q-101 -143 -307 -144q-74 0 -132 34q-59 35 -59 110q0 94 78 169q79 74 191 101h149q-197 -107 -196 -213q0 -80 96 -80q82 0 127 66z" />
    <glyph glyph-name="uni0335" unicode="&#x335;" horiz-adv-x="0" 
d="M-723 504l12 96q2 35 43 35h545q39 0 33 -35l-12 -96q-2 -35 -43 -35h-545q-39 0 -33 35z" />
    <glyph glyph-name="increment" unicode="&#x394;" horiz-adv-x="1316" 
d="M748 1298l426 -1298h-1174zM653 932l-430 -727h668z" />
    <glyph glyph-name="Omega" unicode="&#x3a9;" horiz-adv-x="1501" 
d="M1200 215l41 49h133l-96 -223q-18 -41 -61 -41h-418l43 328q109 10 187 118t104 291q29 206 -45.5 316t-239.5 110q-166 0 -277 -119q-110 -119 -141 -335q-23 -172 22.5 -271.5t151.5 -109.5l-43 -328h-409q-41 0 -52 53l-43 211h131l25 -63q12 -32 36 -39q8 -3 22 -5
q39 -3 67 -3l96 -7q31 0 39 29q-164 47 -253 194q-88 148 -60 347q33 237 229 412q197 176 469 176t424 -185q152 -184 117 -432q-26 -179 -154 -324q-129 -146 -307 -204q-2 -10 -0.5 -11.5t10.5 -1.5h10l101 7q35 1 57 5q52 8 84 56z" />
    <glyph glyph-name="mu" unicode="&#x3bc;" 
d="M1251 233q18 -16 -6 -47q-170 -204 -352 -202q-135 0 -107 157l66 332q-78 -225 -186 -357q-106 -132 -275 -132q-45 0 -88 12q0 -88 24 -147q27 -64 44 -86q20 -28 14 -50q-25 -82 -115 -112q-88 -33 -131 18q-27 33 -18 90l61 408q-28 90 0 225l94 471q12 55 -36 55
q-46 0 -117 -67q-18 -18 -37 -2q-20 19 2 47q76 94 166 144t174 50q69 0 101 -39.5t18 -107.5l-103 -551q-47 -242 60 -242q116 0 240 252q125 250 184 674h237l-116 -821q-7 -51 34 -51q40 0 123 77q22 22 45 2z" />
    <glyph glyph-name="pi" unicode="&#x3c0;" horiz-adv-x="1603" 
d="M330 924h1192l-11 -84h-161q-99 0 -119 -113l-76 -528q-13 -129 25 -129q44 0 68 95q10 40 35.5 67.5t62.5 27.5q57 0 83.5 -32.5t18.5 -92.5q-20 -157 -274 -155q-163 0 -235.5 75t-53.5 217l80 568h-146l-80 -576q-18 -133 -120 -205q-101 -71 -232 -71q-121 0 -176 24
l-18 117q90 -29 171 9q81 37 101 167l74 535h-74q-43 0 -70 -53q-26 -54 -26 -114t14 -108l-209 41q-68 131 -17 224q52 94 173 94z" />
    <glyph glyph-name="afii10023" unicode="&#x401;" horiz-adv-x="1062" 
d="M555 1455q-38 -38 -90 -38q-53 0 -91 38t-38 91q0 52 38 90q37 37 91 37q53 0 90 -37t37 -90q0 -54 -37 -91zM881 1417q-54 0 -92 38q-37 37 -37 91q0 52 36 90q37 37 93 37q53 0 89 -37q36 -38 36 -90q0 -54 -36 -91q-36 -38 -89 -38zM162 1272h842q37 0 30 -43v-242
h-84l-16 51q-35 85 -69 113q-35 29 -113 29h-146q-14 0 -27.5 -11.5t-15.5 -25.5l-61 -443h186q69 0 106 30.5t58 100.5l68 -14q-38 -156 -48 -342l-69 12q-5 68 -27 95q-22 28 -92 28h-195l-69 -491q-1 -25 24 -25h91q108 0 169 29q59 28 105 106l78 131l92 -6
q-96 -212 -111 -354q-328 14 -882 0l4 80q80 6 114.5 24.5t40.5 57.5l134 962q6 38 -18 48q-22 12 -107 18z" />
    <glyph glyph-name="afii10052" unicode="&#x403;" horiz-adv-x="1107" 
d="M500 1397l-29 45l299 231q51 39 96 39q31 0 52.5 -21.5t21.5 -56.5q0 -69 -109 -112zM1124 1229v-242h-90l-18 51q-33 84 -71 113t-124 29h-219l-143 -1030q-8 -38 20 -51q26 -12 117 -17l-2 -82q-302 10 -606 0l2 82q158 8 170 82l133 958q4 37 -24 50q-27 13 -113 18
l6 82h930q32 0 32 -43z" />
    <glyph glyph-name="afii10053" unicode="&#x404;" horiz-adv-x="1265" 
d="M678 66q260 0 405 280h107q-67 -165 -205 -271q-139 -106 -360 -106q-293 0 -441 186q-147 187 -102 500q39 281 232 465q194 185 454 185q92 0 188 -24q98 -24 146 -24q51 0 104 7q-4 -202 45 -351h-151q-96 299 -340 299q-138 0 -230 -130.5t-129 -383.5h490l-12 -90
h-488q-23 -242 48 -392t239 -150z" />
    <glyph glyph-name="afii10056" unicode="&#x407;" horiz-adv-x="675" 
d="M360 1455q-36 -38 -90 -38q-53 0 -91 38t-38 91q0 52 38 90q37 37 91 37t90 -37q37 -37 37 -90q0 -54 -37 -91zM686 1417q-54 0 -92 38q-37 37 -37 91q0 53 37 90t92 37q53 0 89 -37q36 -38 36 -90q0 -54 -36 -91q-36 -38 -89 -38zM561 1108l-133 -958q-6 -36 23 -50
t114 -18l-14 -82q-285 10 -571 0l12 82q76 4 111.5 23t43.5 59l134 958q6 36 -21.5 50t-109.5 18l12 82q284 -10 567 0l-10 -82q-150 -8 -158 -82z" />
    <glyph glyph-name="afii10061" unicode="&#x40c;" horiz-adv-x="1433" 
d="M664 1397l-29 45l299 231q51 39 96 39q31 0 52.5 -21.5t21.5 -56.5q0 -69 -109 -112zM778 772l293 -500q65 -108 123 -163t135 -62l-78 -80q-137 0 -241 39q-103 39 -172 156l-258 413l-70 -69l-51 -356q-8 -38 20 -51q26 -12 117 -17l-2 -82q-80 4 -307 4
q-226 0 -299 -4l2 82q158 8 170 82l133 958q4 37 -24 50q-27 13 -113 18l2 82q301 -6 604 0v-82q-162 -8 -170 -82l-66 -451l408 404q101 98 135 128q109 95 242 95q72 0 112.5 -32.5t40.5 -88.5q0 -54 -33 -83t-81 -29q-38 0 -62.5 16t-30.5 37q-10 55 -43 55
q-30 0 -92 -57z" />
    <glyph glyph-name="afii10062" unicode="&#x40e;" horiz-adv-x="1327" 
d="M795 1413q-122 0 -192 73q-71 74 -62 204h112q4 -48 48.5 -79.5t111.5 -31.5q69 0 120.5 31t65.5 80h115q-22 -129 -112 -203q-89 -74 -207 -74zM987 1190l2 82q197 -11 406 0l-2 -82q-137 -10 -201 -111l-715 -1079q-13 -22 -28 -30q-13 -7 -50 -7q-78 0 -45 49l230 330
l-316 772q-11 29 -17 37q-22 32 -116 39l2 82q299 -11 604 0v-82q-79 -6 -113.5 -30t-19.5 -58l185 -457l292 449q16 25 18 42t-13 27.5t-38.5 16.5t-64.5 10z" />
    <glyph glyph-name="afii10017" unicode="&#x410;" 
d="M862 1282l215 -1018q26 -108 56 -141q32 -35 122 -41l-4 -82q-295 7 -598 0l4 82q93 6 130.5 30.5t25.5 80.5l-51 239h-352l-113 -252q-13 -34 -8 -48t28 -29q11 -6 39 -11q45 -6 113 -10v-82q-252 10 -504 0l4 82q100 6 154 39q55 33 90 104l487 1057h162zM647 961
l-198 -443h294z" />
    <glyph glyph-name="afii10018" unicode="&#x411;" horiz-adv-x="1253" 
d="M545 784l63 -2q318 -12 457 -127q140 -114 115 -295q-19 -161 -166 -261q-146 -99 -422 -99q-301 10 -604 0l2 82q156 8 170 82l133 956q5 38 -24 51q-26 14 -113 19l6 82h950q33 0 33 -43v-242h-90l-19 49q-39 85 -76 114q-36 30 -118 30h-240zM901 389q43 297 -303 307
l-63 2l-78 -546q-6 -39 23.5 -54.5t111.5 -15.5q132 0 211 87q80 88 98 220z" />
    <glyph glyph-name="afii10019" unicode="&#x412;" horiz-adv-x="1243" 
d="M866 688q305 -62 305 -295q0 -201 -163 -297q-162 -96 -430 -96h-596l8 82q81 6 115 23.5t40 56.5l131 952q6 37 -17.5 53.5t-92.5 22.5l2 82q113 -4 180 -4q34 0 160 2q25 0 53.5 0.5t44 1t23.5 0.5q250 0 375 -71.5t124 -213.5q0 -205 -262 -299zM575 1186l-73 -496
l78 17q287 47 286 309q0 172 -186 172q-69 0 -105 -2zM580 92q151 0 231 92t80 244q0 201 -244 201l-158 -27l-63 -446q-6 -50 13 -57q18 -7 141 -7z" />
    <glyph glyph-name="afii10020" unicode="&#x413;" horiz-adv-x="1107" 
d="M1124 1229v-242h-90l-18 51q-33 84 -71 113t-124 29h-219l-143 -1030q-8 -38 20 -51q26 -12 117 -17l-2 -82q-302 10 -606 0l2 82q158 8 170 82l133 958q4 37 -24 50q-27 13 -113 18l6 82h930q32 0 32 -43z" />
    <glyph glyph-name="afii10021" unicode="&#x414;" horiz-adv-x="1376" 
d="M1427 1272l-6 -82q-160 -7 -168 -82l-135 -958q-6 -37 21 -50q27 -11 116 -16l-45 -360l-77 6q13 125 -21 193q-38 77 -217 77h-565q-182 0 -247 -86q-33 -43 -50 -85q-14 -38 -31 -112l-76 7l45 360q126 0 198.5 79.5t94.5 246.5l103 712q4 37 -24 50q-29 14 -114 18
l7 82h1191zM315 80l387 4q103 0 117 80l135 958q4 39 -24.5 53.5t-112.5 14.5h-104q-158 0 -168 -82l-84 -588q-27 -194 -57 -291q-30 -98 -89 -149z" />
    <glyph glyph-name="afii10022" unicode="&#x415;" horiz-adv-x="1062" 
d="M162 1272h842q37 0 30 -43v-242h-84l-16 51q-35 85 -69 113q-35 29 -113 29h-146q-14 0 -27.5 -11.5t-15.5 -25.5l-61 -443h186q69 0 106 30.5t58 100.5l68 -14q-38 -156 -48 -342l-69 12q-5 68 -27 95q-22 28 -92 28h-195l-69 -491q-1 -25 24 -25h91q108 0 169 29
q59 28 105 106l78 131l92 -6q-96 -212 -111 -354q-328 14 -882 0l4 80q80 6 114.5 24.5t40.5 57.5l134 962q6 38 -18 48q-22 12 -107 18z" />
    <glyph glyph-name="afii10024" unicode="&#x416;" horiz-adv-x="2158" 
d="M1503 772l293 -500q65 -108 123 -163t133 -62l-78 -80q-136 0 -240 39q-102 39 -171 156l-258 413l-70 -69l-53 -356q-6 -38 21 -51q26 -12 116 -17v-82q-305 10 -606 0l2 82q158 8 170 82l49 342l-53 69l-373 -425q-112 -128 -237 -158q-65 -16 -111 -21q-41 -4 -117 -4
l-68 80q133 16 322 238l436 487l-244 340q-38 47 -71 47q-14 1 -26 -10t-23.5 -27.5t-25.5 -33t-37 -27.5t-52 -10q-45 0 -74.5 32.5t-23.5 87.5q10 52 57 82.5t123 30.5q56 0 97 -12q39 -12 83 -54q42 -40 61 -66q18 -23 76 -103l297 -392l68 465q4 37 -24 50
q-27 13 -113 18l2 82q299 -11 604 0l-2 -82q-160 -7 -168 -82l-66 -451l406 404q99 98 136 129q44 37 104 64q65 30 139 30q78 0 120 -40t31 -101q-2 -34 -24 -56.5t-50 -30t-57 -4.5t-46 16q-24 17 -28 36q-10 55 -43 55t-92 -57z" />
    <glyph glyph-name="afii10025" unicode="&#x417;" horiz-adv-x="1224" 
d="M756 719q42 8 84 8q128 0 214 -80q85 -79 85 -205q0 -211 -194 -342t-447 -131q-215 0 -322 110q-106 110 -127 273l103 -12q30 -146 112 -210t221 -64q159 0 263 111q104 113 104 267q0 88 -44 140.5t-118 52.5q-29 0 -75 -12q-20 -7 -44 -17l-47 -18l-24 90l80 37
q264 107 264 332q0 82 -39.5 123t-118.5 40q-201 0 -385 -307l-158 15q105 177 140 356q49 -17 84 -19q55 0 161 24t199 24q161 0 261 -78q102 -78 102 -199q0 -111 -94 -192q-93 -80 -240 -117z" />
    <glyph glyph-name="afii10026" unicode="&#x418;" horiz-adv-x="1445" 
d="M881 1190l2 82q301 -10 608 0v-82q-162 -8 -170 -82l-133 -958q-8 -38 20 -51q26 -12 117 -17l-2 -82q-305 11 -610 0l2 82q162 7 174 82l94 684l-508 -576l-16 -122q-8 -36 22 -50t119 -18l-2 -82q-303 10 -610 0l2 82q158 8 170 82l133 958q4 37 -24 50q-27 13 -113 18
l2 82q301 -10 610 0l-2 -82q-166 -7 -174 -82l-96 -698l508 575l18 137q4 37 -25 50.5t-116 17.5z" />
    <glyph glyph-name="afii10027" unicode="&#x419;" horiz-adv-x="1445" 
d="M854 1413q-122 0 -192 73t-62 204h113q4 -48 48.5 -79.5t110.5 -31.5q69 0 120.5 31t66.5 80h115q-22 -129 -112 -203q-89 -74 -208 -74zM881 1190l2 82q301 -10 608 0v-82q-162 -8 -170 -82l-133 -958q-8 -38 20 -51q26 -12 117 -17l-2 -82q-305 11 -610 0l2 82
q162 7 174 82l94 684l-508 -576l-16 -122q-8 -36 22 -50t119 -18l-2 -82q-303 10 -610 0l2 82q158 8 170 82l133 958q4 37 -24 50q-27 13 -113 18l2 82q301 -10 610 0l-2 -82q-166 -7 -174 -82l-96 -698l508 575l18 137q4 37 -25 50.5t-116 17.5z" />
    <glyph glyph-name="afii10028" unicode="&#x41a;" horiz-adv-x="1433" 
d="M778 772l293 -500q65 -108 123 -163t135 -62l-78 -80q-137 0 -241 39q-103 39 -172 156l-258 413l-70 -69l-51 -356q-8 -38 20 -51q26 -12 117 -17l-2 -82q-80 4 -307 4q-226 0 -299 -4l2 82q158 8 170 82l133 958q4 37 -24 50q-27 13 -113 18l2 82q301 -6 604 0v-82
q-162 -8 -170 -82l-66 -451l408 404q101 98 135 128q109 95 242 95q72 0 112.5 -32.5t40.5 -88.5q0 -54 -33 -83t-81 -29q-38 0 -62.5 16t-30.5 37q-10 55 -43 55q-30 0 -92 -57z" />
    <glyph glyph-name="afii10029" unicode="&#x41b;" horiz-adv-x="1447" 
d="M1499 1272l-6 -82q-160 -7 -168 -82l-135 -958q-6 -38 21 -51q26 -12 116 -17l-2 -82q-301 10 -604 0l2 82q158 8 170 82l133 958q4 39 -25.5 53.5t-111.5 14.5h-125q-158 0 -168 -82l-82 -571q-25 -177 -60 -284q-34 -105 -102 -170q-68 -64 -159 -83q-94 -20 -240 -20
l4 83q126 0 198 79.5t97 246.5l102 733q4 37 -24 50q-27 13 -113 18l6 82h1276z" />
    <glyph glyph-name="afii10030" unicode="&#x41c;" horiz-adv-x="1601" 
d="M1489 1110l-137 -960q-4 -38 21 -51q23 -12 108 -17l-2 -82q-283 10 -570 0l4 82q146 7 160 82l119 846l-469 -1010l-287 1010l-123 -860q-5 -39 52 -51q28 -7 63 -10l86 -7l-2 -82q-260 10 -522 0l2 82q221 14 229 82l133 928q4 40 -37.5 67t-117.5 31l2 82
q211 -10 428 0l219 -789l364 789q217 -7 437 0l-2 -82q-83 -6 -118.5 -23.5t-39.5 -56.5z" />
    <glyph glyph-name="afii10031" unicode="&#x41d;" horiz-adv-x="1359" 
d="M831 1190v82q287 -10 576 0l-2 -82q-150 -7 -162 -82l-133 -958q-4 -38 21 -51q23 -12 108 -17l-2 -82q-285 10 -573 0l4 82q150 8 161 82l62 430h-399l-62 -444q-6 -38 21 -51q26 -12 110 -17v-82q-287 11 -575 0l4 82q145 7 160 82l133 958q6 37 -21 50q-26 14 -108 18
l4 82q285 -10 571 0l-2 -82q-156 -8 -164 -82l-59 -428h399l62 442q4 37 -24 50q-29 14 -110 18z" />
    <glyph glyph-name="afii10032" unicode="&#x41e;" horiz-adv-x="1257" 
d="M561 -31q-223 0 -356 148t-133 403q0 322 189 553q190 232 474 232q215 0 350 -156q136 -155 136 -401q0 -310 -194 -545q-193 -234 -466 -234zM586 59q88 0 157 75q71 75 108 192q77 237 77 487q0 185 -55 291q-54 108 -158 108q-91 0 -161 -70q-72 -70 -110 -181
q-77 -223 -77 -480q0 -191 57 -306q59 -116 162 -116z" />
    <glyph glyph-name="afii10033" unicode="&#x41f;" horiz-adv-x="1445" 
d="M1497 1272l-6 -82q-162 -8 -170 -82l-133 -958q-8 -38 20 -51q26 -12 117 -17l-2 -82q-305 11 -610 0l2 82q162 7 174 82l133 958q4 39 -24.5 53.5t-112.5 14.5h-123q-160 0 -170 -82l-133 -958q-8 -36 22 -50t119 -18l-2 -82q-303 10 -610 0l2 82q158 8 170 82l133 958
q4 37 -24 50q-27 13 -113 18l6 82h1335z" />
    <glyph glyph-name="afii10034" unicode="&#x420;" horiz-adv-x="1179" 
d="M518 494l-47 -7l-47 -340q-4 -37 19 -48q25 -11 108 -17l-4 -82q-279 8 -561 0l4 82q80 6 113.5 23.5t41.5 56.5l131 952q6 39 -17.5 55.5t-92.5 20.5l2 82q75 -4 177 -4q62 0 186 2q24 0 53 0.5t45 1t24 0.5q306 0 422 -99q115 -97 86 -280q-19 -144 -172 -242
q-150 -95 -471 -157zM575 1186l-90 -611l33 9q343 56 383 344q38 260 -188 260q-92 0 -138 -2z" />
    <glyph glyph-name="afii10035" unicode="&#x421;" horiz-adv-x="1222" 
d="M1044 346h103q-62 -165 -195 -271t-344 -106q-248 0 -391 150q-143 152 -143 409q0 324 193 550q194 227 476 227q89 0 180 -24q93 -24 140 -24q46 0 98 7q-4 -198 43 -351h-145q-90 299 -322 299q-91 0 -165 -65q-72 -64 -115 -169q-88 -215 -88 -470q0 -201 73 -322
q74 -120 217 -120q117 0 217 70.5t168 209.5z" />
    <glyph glyph-name="afii10036" unicode="&#x422;" horiz-adv-x="1148" 
d="M1114 1288l92 -2l-110 -321h-92q56 215 -54 215h-143l-143 -1030q-6 -38 19 -51q23 -12 108 -17l-3 -82q-283 10 -569 0l4 82q144 7 158 82l143 1016h-135q-36 0 -72 -41q-16 -18 -47 -69q-4 -8 -29 -49l-32 -56h-94l106 321l82 -2q56 -12 209 -12h393q139 0 209 16z" />
    <glyph glyph-name="afii10037" unicode="&#x423;" horiz-adv-x="1327" 
d="M987 1190l2 82q197 -11 406 0l-2 -82q-137 -10 -201 -111l-715 -1079q-13 -22 -28 -30q-13 -7 -50 -7q-78 0 -45 49l230 330l-316 772q-11 29 -17 37q-22 32 -116 39l2 82q299 -11 604 0v-82q-79 -6 -113.5 -30t-19.5 -58l185 -457l292 449q16 25 18 42t-13 27.5
t-38.5 16.5t-64.5 10z" />
    <glyph glyph-name="afii10038" unicode="&#x424;" horiz-adv-x="1705" 
d="M1090 1112q298 -6 450 -133q154 -127 121 -356q-32 -220 -216 -338q-185 -119 -489 -123l-2 -12q-6 -38 22 -51q26 -12 116 -17v-82q-305 11 -607 0l2 82q156 8 170 80q-304 5 -457 131q-153 127 -120 358q33 220 218 339q183 117 490 122l3 10q4 37 -24 50
q-29 14 -114 18l2 82q299 -11 605 0l-3 -82q-155 -8 -167 -78zM1331 651q26 158 -36 263q-60 106 -218 114l-108 -780q159 11 250 123q93 116 112 280zM410 623q-23 -161 37 -265q62 -104 223 -110l108 780q-160 -7 -252 -122q-90 -111 -116 -283z" />
    <glyph glyph-name="afii10039" unicode="&#x425;" horiz-adv-x="1292" 
d="M1282 1272l-4 -82q-129 -17 -213 -121l-297 -356l254 -529q26 -54 56 -76q31 -20 93 -26l-2 -82q-256 10 -512 0l5 82q52 6 80.5 25t17.5 47l-168 348l-287 -342q-23 -33 -3.5 -52.5t77.5 -25.5l-4 -82q-186 8 -377 0l2 82q117 12 207 125l336 397l-234 486
q-27 51 -59 71q-32 22 -96 29l4 82q254 -10 510 0l-4 -84q-47 -9 -75 -27.5t-20 -38.5l150 -311l256 303q23 26 -6 46.5t-92 29.5l2 82q201 -10 403 0z" />
    <glyph glyph-name="afii10040" unicode="&#x426;" horiz-adv-x="1445" 
d="M1491 1272v-82q-162 -8 -170 -82l-133 -958q-8 -38 20 -51q26 -12 117 -17l-45 -358l-78 6q13 124 -23 193q-39 77 -216 77h-979l6 82q158 8 170 82l133 958q4 37 -24 50q-27 13 -113 18l2 82q301 -10 610 0l-2 -82q-166 -7 -174 -82l-133 -958q-8 -39 21.5 -53.5
t115.5 -14.5h123q158 0 170 82l133 958q4 37 -25 50.5t-116 17.5l2 82q301 -10 608 0z" />
    <glyph glyph-name="afii10041" unicode="&#x427;" horiz-adv-x="1441" 
d="M1487 1272v-82q-162 -8 -170 -82l-133 -958q-8 -38 20 -51q26 -12 117 -17l-2 -82q-305 10 -606 0l2 82q158 8 170 82l37 282l39 121q-164 -203 -398 -202q-137 0 -236 65q-56 38 -80 116.5t-7 186.5l53 389q4 37 -24 50q-27 13 -113 18l2 82q303 -10 612 0l-2 -82
q-168 -8 -176 -82l-53 -375q-35 -233 123 -233q100 0 181 69q83 72 113 131l62 422q4 37 -27 50q-30 14 -121 18l2 82q304 -10 615 0z" />
    <glyph glyph-name="afii10042" unicode="&#x428;" horiz-adv-x="2060" 
d="M2107 1272l-2 -82q-160 -7 -168 -82l-135 -958q-6 -38 21 -51q26 -12 116 -17l-6 -82h-1949l6 82q158 8 170 82l133 958q4 37 -24 50q-27 13 -113 18l2 82q299 -11 604 0v-82q-162 -8 -170 -82l-133 -958q-8 -39 21.5 -53.5t115.5 -14.5h66q159 0 169 82l136 958
q1 37 -26 50q-29 14 -114 18l2 82q299 -11 607 0l-2 -82q-162 -8 -170 -82l-134 -958q-6 -39 24 -53.5t114 -14.5h67q156 0 168 82l135 958q4 37 -24 50q-27 13 -113 18l2 82q299 -11 604 0z" />
    <glyph glyph-name="afii10043" unicode="&#x429;" horiz-adv-x="2060" 
d="M2107 1272l-2 -82q-160 -7 -168 -82l-135 -958q-6 -38 21 -51q26 -12 116 -17l-45 -358l-77 6q13 127 -21 193q-38 77 -217 77h-1595l6 82q158 8 170 82l133 958q4 37 -24 50q-27 13 -113 18l2 82q299 -11 604 0v-82q-162 -8 -170 -82l-133 -958q-8 -39 21.5 -53.5
t115.5 -14.5h66q159 0 169 82l136 958q1 37 -26 50q-29 14 -114 18l2 82q299 -11 607 0l-2 -82q-162 -8 -170 -82l-134 -958q-6 -39 24 -53.5t114 -14.5h67q156 0 168 82l135 958q4 37 -24 50q-27 13 -113 18l2 82q299 -11 604 0z" />
    <glyph glyph-name="afii10044" unicode="&#x42a;" horiz-adv-x="1490" 
d="M772 784l62 -2q318 -12 458 -127q142 -114 115 -297q-23 -162 -167 -260q-145 -98 -419 -98q-305 10 -606 0l2 82q156 7 168 82l143 1016h-75q-83 0 -132 -34t-110 -122l-29 -37h-94l68 254q6 24 10 27.5t24 3.5h803l-6 -82q-162 -8 -170 -82zM1126 389q43 296 -301 307
l-65 2l-76 -548q-6 -37 23 -52.5t110 -15.5q131 0 211 87q80 88 98 220z" />
    <glyph glyph-name="afii10045" unicode="&#x42b;" horiz-adv-x="1900" 
d="M545 784l63 -2q318 -12 457 -127q141 -114 115 -297q-23 -162 -167 -260q-143 -98 -417 -98q-305 11 -608 0l2 82q158 8 170 82l133 958q4 37 -24 50q-27 13 -113 18l2 82q299 -11 604 0v-82q-162 -8 -170 -82zM1786 1108l-133 -958q-6 -36 23 -50t114 -18l-14 -82
q-285 11 -572 0l13 82q76 4 111.5 23t43.5 59l133 958q6 37 -22 50q-27 14 -109 18l12 82q283 -10 568 0l-10 -82q-150 -8 -158 -82zM592 82q132 0 211 87q80 88 98 220q43 297 -303 307l-63 2l-76 -548q-6 -37 23 -52.5t110 -15.5z" />
    <glyph glyph-name="afii10046" unicode="&#x42c;" horiz-adv-x="1263" 
d="M545 784l63 -2q318 -12 457 -127q141 -114 115 -297q-23 -162 -167 -260q-143 -98 -417 -98q-305 11 -608 0l2 82q158 8 170 82l133 958q4 37 -24 50q-27 13 -113 18l2 82q299 -11 604 0v-82q-162 -8 -170 -82zM592 82q132 0 211 87q80 88 98 220q43 297 -303 307l-63 2
l-76 -548q-6 -37 23 -52.5t110 -15.5z" />
    <glyph glyph-name="afii10047" unicode="&#x42d;" horiz-adv-x="1275" 
d="M717 1305q263 0 408 -193q147 -192 106 -485q-44 -303 -239 -480q-194 -178 -484 -178q-224 0 -336 112q-114 114 -133 273l102 -14q57 -274 318 -274q166 0 283 149q117 148 167 393h-483l12 90h488l2 15q37 250 -14.5 375t-190.5 124q-248 0 -432 -307l-158 15
q106 179 139 356q42 -17 96 -19q54 0 157 24t192 24z" />
    <glyph glyph-name="afii10048" unicode="&#x42e;" horiz-adv-x="1878" 
d="M1356 1305q215 0 350 -156t135 -401q0 -310 -194 -545q-193 -234 -465 -234q-224 0 -357 148t-133 403q0 29 2 53h-207l-59 -423q-6 -36 23 -50t114 -18l-14 -82q-285 10 -571 0l12 82q76 4 111.5 23t43.5 59l134 958q6 36 -21.5 50t-109.5 18l12 82q284 -10 567 0
l-10 -82q-150 -8 -158 -82l-61 -440h205q43 273 222 455t429 182zM1206 59q88 0 158 75q69 73 107 192q77 237 77 487q0 185 -54 291q-54 108 -159 108q-91 0 -161 -70q-70 -69 -109 -181q-78 -222 -78 -480q0 -191 57 -306q59 -116 162 -116z" />
    <glyph glyph-name="afii10049" unicode="&#x42f;" horiz-adv-x="1325" 
d="M1159 1268q75 0 199 4l-2 -82q-140 -7 -154 -88l-133 -955q-6 -38 19 -48q27 -11 114 -17v-82q-80 4 -303 4q-222 0 -295 -4l2 82q87 6 123.5 23.5t38.5 56.5l47 323l-41 7h-6l-225 -267q-146 -165 -287 -208q-72 -21 -122 -27t-120 -6l-47 82q144 10 344 264l183 225
q-293 104 -293 319q0 141 85 232q82 89 216.5 127.5t333.5 38.5q10 0 28.5 -0.5t52.5 -1t62 -0.5q146 -2 180 -2zM784 578l43 -5l91 615h-130q-141 0 -225 -99q-84 -97 -84 -243q0 -218 305 -268z" />
    <glyph glyph-name="afii10065" unicode="&#x430;" horiz-adv-x="1175" 
d="M1090 227q20 -18 -3 -47q-76 -93 -165.5 -143.5t-169.5 -50.5q-70 0 -104 40t-21 107l30 154q-59 -154 -139.5 -227.5t-204.5 -73.5q-118 0 -198 71q-78 72 -78 234q0 133 57 268q59 137 151 242q92 107 225 175t269 68q131 0 281 -59l-123 -772q-7 -55 39 -55
q48 0 115 67q20 18 39 2zM403 96q104 0 188 189q85 191 132 444l37 205q-18 37 -84 37q-94 0 -171 -74q-76 -73 -120 -184q-86 -219 -86 -408q0 -96 27.5 -152.5t76.5 -56.5z" />
    <glyph glyph-name="afii10066" unicode="&#x431;" horiz-adv-x="1099" 
d="M639 1042q185 0 289 -113t104 -294q0 -261 -169 -455q-170 -194 -384 -194q-176 0 -286 122q-109 122 -109 381q0 291 91 500q71 170 204 268t321 99h273q65 0 97 9q31 9 75 44l39 -10q-11 -73 -97 -162q-85 -90 -231 -90h-250q-142 0 -221 -76q-81 -78 -131 -211
q203 182 385 182zM483 57q81 0 145 108q66 110 99 259q33 152 33 299q0 250 -131 250q-85 0 -152 -109q-66 -105 -101 -258q-34 -146 -34 -299q0 -102 36 -176q38 -74 105 -74z" />
    <glyph glyph-name="afii10067" unicode="&#x432;" horiz-adv-x="987" 
d="M635 541q102 8 187 -52q85 -58 85 -165q0 -152 -151 -245q-150 -93 -322 -93q-177 0 -278 88q-101 89 -101 280q0 252 177 470q179 218 405 218q116 0 181 -53t65 -133q0 -169 -248 -315zM586 969q-89 0 -169 -146t-102 -352q174 61 269.5 162.5t95.5 224.5q0 45 -30 78
q-29 33 -64 33zM473 57q101 0 154 84q53 85 53 172q0 85 -48 135t-118 29q-82 -36 -203 -80q-15 -109 20 -229q15 -50 52.5 -80.5t89.5 -30.5z" />
    <glyph glyph-name="afii10068" unicode="&#x433;" horiz-adv-x="854" 
d="M643 195l53 -60q-169 -158 -364 -158q-125 0 -214 77t-89 194q0 93 73 175q74 83 134 116q64 36 178 90q13 8 28 14q74 33 115 56q41 24 74 65q33 40 33 92q0 54 -34.5 85.5t-94.5 31.5q-65 0 -148 -39t-141 -105l-56 50q151 164 367 163q129 0 206 -68t77 -171
q0 -146 -110 -238q-55 -46 -106 -77q-57 -33 -126 -68l-92 -42q-13 -6 -72 -40q-46 -27 -68 -50q-55 -62 -55 -124q0 -50 36 -82.5t97 -32.5q164 0 299 146z" />
    <glyph glyph-name="afii10069" unicode="&#x434;" horiz-adv-x="1062" 
d="M1016 678q0 -282 -165 -487t-394 -205q-156 0 -275 107q-119 108 -119 308q0 259 168 449q168 192 383 192q80 0 156 -22q-20 116 -97.5 183t-193.5 67q-123 0 -213 -60l-37 66q112 78 287 78q500 0 500 -676zM330 293q0 -236 139 -236q117 0 196 211q80 213 80 471
q0 112 -34 173t-95 61q-128 0 -207 -210q-79 -209 -79 -470z" />
    <glyph glyph-name="afii10070" unicode="&#x435;" horiz-adv-x="913" 
d="M768 307h29q48 0 4 -74q-164 -248 -408 -247q-145 0 -242 90q-96 90 -96 278q0 250 180 469q181 219 410 219q106 0 160.5 -49.5t54.5 -134.5q0 -271 -541 -461q-8 -116 43 -181q52 -66 136 -66q124 0 231 129q26 29 39 28zM645 858q0 111 -63 111q-82 0 -160 -149
q-79 -150 -98 -349q321 113 321 387z" />
    <glyph glyph-name="afii10072" unicode="&#x436;" horiz-adv-x="2185" 
d="M2044 668q-47 0 -72.5 26t-25.5 72q0 37 7 80q7 46 9 69q2 26 -16 43t-58 17q-94 0 -166 -89q-72 -90 -103 -207q-32 -120 -32 -235q0 -139 50.5 -216.5t142.5 -77.5q119 0 233 131q23 28 37 26h29q16 0 21 -10t0.5 -24t-15.5 -29q-161 -258 -418 -258q-145 0 -240 90
q-94 90 -94 280q0 48 6 97h-122l-84 -453h-254l84 453h-125q-63 -199 -213 -333q-151 -134 -326 -134q-116 0 -192 65q-74 66 -74 158q0 63 35 107q36 44 94 44q47 0 72.5 -26t25.5 -72q0 -37 -7 -80q-7 -46 -9 -70q-3 -24 15 -41.5t58 -17.5q94 0 166 89q71 88 103 207
q32 120 32 235q0 139 -50 217t-142 78q-119 0 -233 -131q-22 -27 -37 -27h-29q-17 0 -21.5 10t0 24t15.5 29q161 258 418 258q145 0 239 -90t94 -280q0 -70 -12 -133h119l92 487h254l-92 -487h125q56 212 208 357q155 146 341 146q117 0 191 -66q75 -64 75 -157
q0 -64 -36 -107q-36 -44 -93 -44z" />
    <glyph glyph-name="afii10073" unicode="&#x437;" horiz-adv-x="1017" 
d="M711 590q95 -5 157 -68q64 -63 64 -160q0 -163 -154 -272q-154 -110 -366 -110q-156 0 -257 81q-99 82 -116 226h111q16 -106 76.5 -163.5t156.5 -57.5q121 0 195 86q75 86 75 217q0 57 -27.5 93t-72.5 36q-42 0 -143 -37l-29 88l82 31q190 72 190 251q0 56 -28 90.5
t-78 34.5q-141 0 -271 -225h-161q87 149 110 295q54 -20 84 -20q39 0 116 18t157 18q146 0 229 -64q84 -63 84 -159q0 -133 -184 -229z" />
    <glyph glyph-name="afii10074" unicode="&#x438;" 
d="M86 799q-20 19 2 47q76 94 166 144t174 50q69 0 101 -39.5t18 -107.5l-103 -551q-47 -242 60 -242q116 0 240 252q125 250 184 674h237l-116 -821q-7 -51 34 -51q40 0 123 77q23 23 45 2q18 -16 -6 -47q-170 -204 -352 -202q-135 0 -107 157l66 332q-78 -225 -186 -357
q-106 -132 -275 -132q-121 0 -185 81q-63 82 -24 277l94 471q12 55 -36 55q-46 0 -117 -67q-20 -18 -37 -2z" />
    <glyph glyph-name="afii10075" unicode="&#x439;" 
d="M768 1167q-122 0 -192 73t-62 204h113q4 -48 48.5 -79.5t110.5 -31.5q69 0 120.5 31.5t66.5 79.5h114q-22 -129 -112 -203q-89 -74 -207 -74zM86 799q-20 19 2 47q76 94 166 144t174 50q69 0 101 -39.5t18 -107.5l-103 -551q-47 -242 60 -242q116 0 240 252
q125 250 184 674h237l-116 -821q-7 -51 34 -51q40 0 123 77q23 23 45 2q18 -16 -6 -47q-170 -204 -352 -202q-135 0 -107 157l66 332q-78 -225 -186 -357q-106 -132 -275 -132q-121 0 -185 81q-63 82 -24 277l94 471q12 55 -36 55q-46 0 -117 -67q-20 -18 -37 -2z" />
    <glyph glyph-name="afii10076" unicode="&#x43a;" horiz-adv-x="1261" 
d="M969 915q-27 0 -84 -57l-152 -153l195 -410q45 -93 110 -162q66 -67 142 -76l-78 -80q-68 0 -112 6q-38 4 -99 22q-108 35 -168 165l-164 354l-72 -73l-63 -451h-256l119 821q7 51 -35 51q-46 0 -125 -77q-25 -25 -45 -2q-16 16 6 47q170 203 354 202q127 0 105 -157
l-41 -291l219 223q125 131 190 176q68 47 158 47q72 0 114 -33.5t42 -88.5q0 -54 -31.5 -83.5t-79.5 -29.5q-36 0 -60.5 16t-33.5 39q-22 55 -55 55z" />
    <glyph glyph-name="afii10077" unicode="&#x43b;" horiz-adv-x="1284" 
d="M1198 227q20 -19 -2 -47q-76 -94 -166 -144t-174 -50q-68 0 -98.5 39.5t-18.5 107.5l121 643q8 39 -17 62.5t-73 23.5q-98 0 -158 -62q-59 -62 -102 -233l-24 -102l-25 -105q-8 -36 -27 -94q-17 -57 -35 -92q-19 -37 -43 -75q-25 -43 -55 -65q-72 -50 -156 -50
q-75 0 -121 42q-47 42 -47 105q0 59 34.5 96t86.5 37q30 1 52.5 -15t33.5 -35.5t26 -35.5t32 -14q27 0 43 26q26 40 37 73q19 54 34 114q13 49 17 67l18 78l21 82q66 264 193 357q61 46 124 64.5t145 18.5q293 0 244 -247l-110 -584q-12 -55 36 -55t115 67q20 18 39 2z" />
    <glyph glyph-name="afii10078" unicode="&#x43c;" horiz-adv-x="1681" 
d="M1599 233q16 -16 -8 -47q-170 -204 -352 -202q-133 0 -106 157l104 643l-496 -784l-254 760q-65 -411 -92 -510q-57 -210 -170 -254q-37 -12 -80 -12q-75 0 -121 42q-47 42 -47 105q0 59 34.5 96t86.5 37q30 1 52.5 -15t33.5 -35.5t26 -35.5t32 -14q43 0 78 167
q36 167 75 441q5 44 11 78q12 88 -156 84l14 80q171 -2 398 16l217 -612l387 608h247l-118 -821q-7 -51 35 -51q40 0 122 77q24 25 47 2z" />
    <glyph glyph-name="afii10079" unicode="&#x43d;" horiz-adv-x="1304" 
d="M1219 227q20 -19 -2 -47q-76 -94 -166.5 -144t-173.5 -50q-65 0 -95 40t-18 107l51 320h-346l-74 -453h-254l135 813q7 55 -37 55q-45 0 -116 -67q-18 -18 -37 -2q-20 19 2 47q76 94 166 144t174 50q66 0 95.5 -39t17.5 -108l-58 -354h346l80 487h254l-135 -813
q-7 -55 37 -55q48 0 115 67q21 18 39 2z" />
    <glyph glyph-name="afii10080" unicode="&#x43e;" horiz-adv-x="1067" 
d="M618 1042q169 0 284 -101q114 -101 114 -308q0 -255 -167 -452q-167 -195 -388 -195q-160 0 -279 107q-119 108 -119 315q0 254 169 444t386 190zM745 735q0 116 -35 177t-98 61q-84 0 -151 -105q-66 -103 -99 -257q-32 -154 -32 -314q0 -118 35 -179t100 -61
q119 0 199 210q81 210 81 468z" />
    <glyph glyph-name="afii10081" unicode="&#x43f;" horiz-adv-x="1339" 
d="M1253 227q23 -17 -2 -47q-74 -93 -165 -143.5t-175 -50.5q-68 0 -100.5 40t-17.5 107l100 551q21 115 9 176.5t-68 65.5q-119 0 -245 -252t-183 -674h-238l119 821q7 51 -35 51q-46 0 -125 -77q-25 -25 -45 -2q-16 16 6 47q170 203 354 202q136 0 105 -157l-66 -332
q78 225 186 357q109 132 279 132q276 0 207 -358l-88 -471q-12 -55 37 -55q44 0 115 67q18 18 36 2z" />
    <glyph glyph-name="afii10082" unicode="&#x440;" horiz-adv-x="1126" 
d="M836 1042q102 0 179 -77t77 -228q0 -153 -74 -325q-73 -169 -220 -299q-146 -129 -317 -129q-69 0 -141 20l-23 -141q-8 -54 22.5 -72t104.5 -6l-10 -88q-128 -26 -260 -82q-135 -57 -162 -57q-24 0 -34.5 10t-8.5 31q3 21 37 61q33 40 49 160l123 940q6 53 -21.5 68
t-93.5 3l15 87q89 18 161 52q41 18 80.5 40t59 32.5t27.5 10.5q60 0 49 -78l-56 -381q79 200 191 324q111 124 246 124zM477 57q94 0 169 81q76 82 113 202q77 243 77 442q0 162 -76 162q-78 0 -164 -128q-87 -130 -142 -283q-54 -150 -71 -265q-14 -111 3 -161t91 -50z" />
    <glyph glyph-name="afii10083" unicode="&#x441;" horiz-adv-x="897" 
d="M618 1042q117 0 192 -66q75 -64 75 -157q0 -64 -36 -107q-36 -44 -93 -44q-47 0 -73 26.5t-26 71.5q0 37 7 80q9 57 10 69q2 26 -16 43t-58 17q-94 0 -166 -89q-73 -89 -104 -207q-31 -117 -31 -235q0 -139 50 -216.5t143 -77.5q119 0 233 131q23 28 37 26h29
q16 0 21 -10t0.5 -24t-15.5 -29q-161 -258 -418 -258q-145 0 -240 90q-94 90 -94 280q0 262 173 474t400 212z" />
    <glyph glyph-name="afii10084" unicode="&#x442;" horiz-adv-x="1970" 
d="M1884 227q20 -19 -2 -47q-158 -196 -340 -194q-68 0 -99.5 40t-19.5 107l95 551q24 115 11 176.5t-71 65.5q-117 0 -243 -252q-124 -252 -183 -674h-237l98 684q43 242 -62 242q-117 0 -243 -252q-125 -253 -182 -674h-238l119 821q7 51 -35 51q-46 0 -125 -77
q-25 -25 -45 -2q-16 16 6 47q170 203 348 202q142 0 111 -157l-66 -332q78 224 185 357q108 132 276 132q271 0 195 -358l-29 -131q78 224 185 357q108 132 276 132q278 0 211 -358l-86 -471q-7 -55 39 -55q44 0 114 67q20 18 37 2z" />
    <glyph glyph-name="afii10085" unicode="&#x443;" horiz-adv-x="1058" 
d="M854 1047q77 0 124.5 -57.5t47.5 -160.5q0 -298 -270 -794q-156 -283 -249 -382q-95 -102 -188 -102q-75 0 -125 46q-51 45 -51 118q0 63 38 102.5t95 39.5q29 1 55 -16.5t41.5 -39.5t32.5 -39.5t31 -15.5q46 0 137 148l-323 845q-25 63 -70 64q-41 0 -86 -27
q-23 -14 -37 15q-11 23 9 32q72 40 141 98q14 12 35.5 30.5t32 27.5t25.5 22t23 19t18 12.5t16.5 9t11.5 2.5q45 0 90 -116q4 -6 6 -13l270 -727q187 376 189 578q0 20 -5.5 21.5t-28.5 -6t-46 -7.5q-57 0 -96 40t-39 95q0 56 41 97t104 41z" />
    <glyph glyph-name="afii10086" unicode="&#x444;" horiz-adv-x="1718" 
d="M1321 1042q155 0 261 -142q108 -143 77 -380q-18 -132 -69 -240.5t-122 -173.5q-138 -126 -297 -126q-200 0 -235 170h-8q-44 -174 -110.5 -298.5t-144.5 -186.5q-141 -114 -294 -114q-111 0 -179 44q-67 43 -67 108q0 48 32.5 80.5t80.5 32.5q42 0 74 -28q35 -29 52 -59
q51 -87 109 -87q131 0 183 366l14 98q-80 -128 -256 -126q-166 0 -275 148q-108 148 -69 423q32 226 173 358q142 133 294 133q165 0 250 -145l10 74q39 271 155 387q116 115 312 115q136 0 218 -74q81 -73 81 -150q0 -43 -27.5 -68.5t-77.5 -25.5q-54 0 -88 39
q-36 41 -49 84q-13 45 -39 84q-24 39 -59 39q-73 0 -108 -114q-17 -60 -27 -106q-9 -46 -21 -128l-20 -138q102 127 266 127zM485 68q75 0 133 64q60 64 87 151l77 532q-29 60 -79.5 99.5t-110.5 39.5q-170 0 -227 -434q-27 -189 5 -321q33 -131 115 -131zM1372 551
q62 403 -96 403q-123 0 -238 -151l-77 -531q0 -85 37 -144q38 -60 108 -60q86 0 160 140q74 138 106 343z" />
    <glyph glyph-name="afii10087" unicode="&#x445;" horiz-adv-x="1089" 
d="M821 883q-51 0 -94.5 -76t-93.5 -238l131 -360q16 -61 67 -62q53 0 136 78q18 18 37 2q20 -18 -3 -47q-155 -195 -335 -194q-35 0 -57 8.5t-39 32.5q-19 29 -25 45l-27 69l-67 178q-65 -169 -147 -253.5t-179 -83.5q-67 0 -104 33t-37 87q0 49 32.5 82t79.5 33
q50 0 84 -36t66 -36q46 0 85 63.5t87 201.5l-123 329q-25 63 -70 64q-41 0 -84 -27q-25 -14 -39 15q-11 23 9 32q75 41 142 98q22 18 49 41.5t41 35.5t29.5 24t25 17t16.5 5q23 0 38 -15t24 -36q9 -19 30 -78l92 -251q68 191 151 287t193 96q67 0 103 -33t36 -88
q0 -49 -32 -82t-80 -33q-49 0 -84 36t-64 36z" />
    <glyph glyph-name="afii10088" unicode="&#x446;" horiz-adv-x="1339" 
d="M1257 203l9 2q-33 -43 -67 -80l-62 -69q-54 -60 -54 -124q0 -45 42 -92q42 -46 42 -94q0 -92 -182 -149l-20 43q59 39 59 73q0 18 -31 55q-30 37 -30 85q0 72 65 161q-70 -32 -135 -30q-135 0 -107 157l66 332q-78 -225 -186 -357q-106 -132 -275 -132q-121 0 -185 81
q-63 82 -24 277l94 471q12 55 -36 55q-46 0 -117 -67q-18 -18 -37 -2q-20 19 2 47q76 94 166 144t174 50q69 0 101 -39.5t18 -107.5l-103 -551q-47 -242 60 -242q116 0 240 252q125 250 184 674h237l-116 -821q-7 -51 34 -51q40 0 123 77q23 23 45 2q17 -12 6 -30z" />
    <glyph glyph-name="afii10089" unicode="&#x447;" horiz-adv-x="1351" 
d="M86 799q-20 19 2 47q76 94 166 144t174 50q68 0 99.5 -39.5t19.5 -107.5l-60 -371q-18 -72 0 -124q19 -52 91 -52q57 0 103 25.5t96 89.5q53 69 97.5 214t71.5 351h240l-119 -821q-7 -51 35 -51q40 0 123 77q23 23 47 2q16 -16 -8 -47q-170 -203 -353 -202
q-134 0 -106 157l78 391q-52 -166 -168 -235q-116 -68 -244 -68q-301 0 -248 293l53 291q7 55 -37 55q-45 0 -116 -67q-20 -18 -37 -2z" />
    <glyph glyph-name="afii10090" unicode="&#x448;" horiz-adv-x="1990" 
d="M1909 233q16 -16 -6 -47q-170 -204 -355 -202q-137 0 -104 157l65 332q-78 -224 -185 -357q-106 -132 -275 -132q-125 0 -190 80q-65 81 -21 278l26 131q-164 -489 -461 -489q-280 0 -213 358l86 471q7 55 -37 55q-45 0 -116 -67q-18 -18 -37 -2q-20 19 2 47
q76 94 166 144t174 50q68 0 99.5 -39.5t19.5 -107.5l-94 -551q-50 -242 61 -242q115 0 241 252t183 674h264l-104 -684q-43 -242 61 -242q117 0 243 252t183 674h238l-119 -821q-8 -51 35 -51q44 0 123 77q27 22 47 2z" />
    <glyph glyph-name="afii10091" unicode="&#x449;" horiz-adv-x="1990" 
d="M1909 233q16 -16 -6 -47q-37 -44 -66 -69q-46 -52 -57 -65q-49 -60 -49 -120q0 -45 42 -92q42 -46 42 -94q0 -92 -183 -149l-20 43q59 39 59 73q0 18 -31 55q-30 38 -30 85q0 70 61 155q-61 -26 -123 -24q-137 0 -104 157l65 332q-78 -224 -185 -357q-106 -132 -275 -132
q-125 0 -190 80q-65 81 -21 278l26 131q-164 -489 -461 -489q-280 0 -213 358l86 471q7 55 -37 55q-45 0 -116 -67q-18 -18 -37 -2q-20 19 2 47q76 94 166 144t174 50q68 0 99.5 -39.5t19.5 -107.5l-94 -551q-50 -242 61 -242q115 0 241 252t183 674h264l-104 -684
q-43 -242 61 -242q117 0 243 252t183 674h238l-119 -821q-8 -51 35 -51q44 0 123 77q27 22 47 2z" />
    <glyph glyph-name="afii10092" unicode="&#x44a;" horiz-adv-x="1468" 
d="M788 711l35 -2q286 -17 422 -109q137 -92 137 -235q0 -124 -98 -216q-98 -90 -232 -128q-132 -37 -278 -37q-203 0 -274 83q-70 82 -35 275l90 504q-29 -4 -53 -4q-45 0 -120 15t-106 15q-86 0 -149 -67q-20 -20 -41 -2q-20 18 4 53q78 104 141 144q64 40 154 40
q30 0 117 -22q88 -21 162 -21q105 0 180 29zM1104 395q0 215 -285 223l-45 3l-49 -279q-27 -104 -12 -188q17 -84 98 -84q131 0 212 89t81 236z" />
    <glyph glyph-name="afii10093" unicode="&#x44b;" horiz-adv-x="1779" 
d="M516 711l33 -2q286 -17 423 -109q138 -91 138 -235q0 -125 -99 -216q-98 -90 -232 -128q-132 -37 -277 -37q-202 0 -276 83q-72 83 -36 275l86 471q10 55 -36 55t-117 -67q-18 -18 -37 -2q-23 20 4 53q155 188 338 188q68 0 99.5 -42t19.5 -105zM1391 1026h254l-140 -813
q-7 -55 37 -55t115 67q18 18 37 2q25 -18 -2 -47q-74 -93 -165 -143.5t-175 -50.5q-65 0 -95 39.5t-20 107.5zM829 395q0 215 -284 223l-45 3l-47 -279q-27 -104 -12 -188q17 -84 96 -84q131 0 211 89q81 89 81 236z" />
    <glyph glyph-name="afii10094" unicode="&#x44c;" horiz-adv-x="1175" 
d="M516 711l33 -2q286 -17 423 -109q138 -91 138 -235q0 -125 -99 -216q-98 -90 -232 -128q-132 -37 -277 -37q-202 0 -276 83q-72 83 -36 275l86 471q10 55 -36 55t-117 -67q-18 -18 -37 -2q-23 20 4 53q155 188 338 188q68 0 99.5 -42t19.5 -105zM829 395q0 215 -284 223
l-45 3l-47 -279q-27 -104 -12 -188q17 -84 96 -84q131 0 211 89q81 89 81 236z" />
    <glyph glyph-name="afii10095" unicode="&#x44d;" horiz-adv-x="917" 
d="M539 1042q145 0 239 -90t94 -280q0 -262 -173 -474t-400 -212q-116 0 -192 65q-74 66 -74 158q0 63 35 107q36 44 94 44q47 0 72.5 -26t25.5 -72q0 -37 -7 -80q-7 -46 -9 -70q-3 -24 15 -41.5t58 -17.5q111 0 186 115q74 114 103 276h-250v97h260q2 18 2 43
q0 139 -50 217t-142 78q-119 0 -233 -131q-22 -27 -37 -27h-29q-17 0 -21.5 10t0 24t15.5 29q161 258 418 258z" />
    <glyph glyph-name="afii10096" unicode="&#x44e;" horiz-adv-x="1619" 
d="M1171 1042q169 0 284 -101q114 -101 114 -308q0 -255 -167 -452q-166 -195 -388 -195q-160 0 -279 107q-119 108 -119 315q0 29 2 51h-159l-88 -459h-256l161 813q12 55 -36 55q-46 0 -117 -67q-18 -18 -37 -2q-20 19 2 47q76 94 166 144t174 50q68 0 98.5 -39.5
t16.5 -107.5l-68 -348h156q45 212 199 354q155 143 341 143zM1018 57q120 0 199 210q81 210 81 468q0 116 -35 177t-98 61q-83 0 -151 -105q-66 -103 -99 -257q-32 -154 -32 -314q0 -117 35.5 -178.5t99.5 -61.5z" />
    <glyph glyph-name="afii10097" unicode="&#x44f;" horiz-adv-x="1218" 
d="M1034 856l-92 -643q-7 -55 37 -55q48 0 115 67q18 18 39 2q20 -18 -3 -47q-76 -94 -166 -144t-173 -50q-67 0 -97 39.5t-20 107.5l26 182l-30 2l-88 7l-70 -99q-47 -64 -106.5 -114.5t-111.5 -77.5q-49 -23 -109 -35q-58 -11 -91 -13q-19 -1 -82 -1l-45 82
q183 17 346 264l31 47q-127 48 -184.5 133t-40.5 192q46 324 571 324q12 0 136 -2q199 -5 362 2v-82q-142 -7 -154 -88zM670 408l43 -2l80 534q-46 2 -142 2q-102 0 -168 -73t-82 -187q-39 -260 269 -274z" />
    <glyph glyph-name="afii10071" unicode="&#x451;" horiz-adv-x="913" 
d="M506 1209q-38 -38 -91 -38t-91 38q-37 37 -37 91t37 90q37 37 91 37t91 -37q37 -36 37 -90t-37 -91zM831 1171q-54 0 -92 38q-37 37 -37 91t37 90q37 37 92 37q53 0 89 -37q36 -36 36 -90t-36 -91q-36 -38 -89 -38zM768 307h29q48 0 4 -74q-164 -248 -408 -247
q-145 0 -242 90q-96 90 -96 278q0 250 180 469q181 219 410 219q106 0 160.5 -49.5t54.5 -134.5q0 -271 -541 -461q-8 -116 43 -181q52 -66 136 -66q124 0 231 129q26 29 39 28zM645 858q0 111 -63 111q-82 0 -160 -149q-79 -150 -98 -349q321 113 321 387z" />
    <glyph glyph-name="afii10100" unicode="&#x453;" horiz-adv-x="854" 
d="M338 1151l-29 45l299 231q51 39 97 39q31 0 52 -22t21 -55q0 -68 -108 -113zM643 195l53 -60q-169 -158 -364 -158q-125 0 -214 77t-89 194q0 93 73 175q74 83 134 116q64 36 178 90q13 8 28 14q74 33 115 56q41 24 74 65q33 40 33 92q0 54 -34.5 85.5t-94.5 31.5
q-65 0 -148 -39t-141 -105l-56 50q151 164 367 163q129 0 206 -68t77 -171q0 -146 -110 -238q-55 -46 -106 -77q-57 -33 -126 -68l-92 -42q-13 -6 -72 -40q-46 -27 -68 -50q-55 -62 -55 -124q0 -50 36 -82.5t97 -32.5q164 0 299 146z" />
    <glyph glyph-name="afii10101" unicode="&#x454;" horiz-adv-x="907" 
d="M766 668q-47 0 -72.5 26t-25.5 72q0 37 7 80q7 46 9 69q2 26 -16 43t-58 17q-111 0 -186 -115q-74 -116 -102 -276h249v-97h-260q-2 -18 -2 -43q0 -139 50.5 -216.5t142.5 -77.5q119 0 233 131q23 28 37 26h29q16 0 21 -10t0.5 -24t-15.5 -29q-161 -258 -418 -258
q-145 0 -240 90q-94 90 -94 280q0 262 173 474t401 212q117 0 191 -66q75 -64 75 -157q0 -64 -36 -107q-36 -44 -93 -44z" />
    <glyph glyph-name="afii10104" unicode="&#x457;" horiz-adv-x="698" 
d="M350 1209q-38 -38 -90 -38q-53 0 -91 38t-38 91q0 54 38 90q37 37 91 37q53 0 90 -37q37 -36 37 -90t-37 -91zM676 1171q-54 0 -92 38q-37 37 -37 91t37 90q37 37 92 37q53 0 89 -37q36 -36 36 -90t-36 -91q-36 -38 -89 -38zM612 227q20 -19 -2 -47q-76 -94 -166 -144
t-174 -50q-68 0 -98.5 40t-17.5 107l131 688q7 51 -33 51q-46 0 -125 -77q-25 -25 -45 -2q-16 16 6 47q172 206 354 204q136 0 107 -159l-127 -672q-12 -55 37 -55q47 0 114 67q20 18 39 2z" />
    <glyph glyph-name="afii10109" unicode="&#x45c;" horiz-adv-x="1261" 
d="M874 1276l-331 -125l-29 45l299 231q51 39 96 39q31 0 52.5 -22t21.5 -55q0 -68 -109 -113zM969 915q-27 0 -84 -57l-152 -153l195 -410q45 -93 110 -162q66 -67 142 -76l-78 -80q-68 0 -112 6q-38 4 -99 22q-108 35 -168 165l-164 354l-72 -73l-63 -451h-256l119 821
q7 51 -35 51q-46 0 -125 -77q-25 -25 -45 -2q-16 16 6 47q170 203 354 202q127 0 105 -157l-41 -291l219 223q125 131 190 176q68 47 158 47q72 0 114 -33.5t42 -88.5q0 -54 -31.5 -83.5t-79.5 -29.5q-36 0 -60.5 16t-33.5 39q-22 55 -55 55z" />
    <glyph glyph-name="afii10110" unicode="&#x45e;" horiz-adv-x="1058" 
d="M627 1167q-122 0 -192 73t-62 204h112q4 -48 49 -79.5t111 -31.5q69 0 121 32q51 32 65 79h115q-22 -129 -112 -203q-89 -74 -207 -74zM854 1047q77 0 124.5 -57.5t47.5 -160.5q0 -298 -270 -794q-156 -283 -249 -382q-95 -102 -188 -102q-75 0 -125 46q-51 45 -51 118
q0 63 38 102.5t95 39.5q29 1 55 -16.5t41.5 -39.5t32.5 -39.5t31 -15.5q46 0 137 148l-323 845q-25 63 -70 64q-41 0 -86 -27q-23 -14 -37 15q-11 23 9 32q72 40 141 98q14 12 35.5 30.5t32 27.5t25.5 22t23 19t18 12.5t16.5 9t11.5 2.5q45 0 90 -116q4 -6 6 -13l270 -727
q187 376 189 578q0 20 -5.5 21.5t-28.5 -6t-46 -7.5q-57 0 -96 40t-39 95q0 56 41 97t104 41z" />
    <glyph glyph-name="afii10050" unicode="&#x490;" horiz-adv-x="1107" 
d="M1067 1427l29 37h94l-70 -254q-1 -5 -3 -11t-2 -7.5t-1.5 -4.5t-2 -3t-3.5 -1.5t-4.5 -1t-6.5 0t-10 -1.5h-505l-144 -1030q-8 -38 20 -51q26 -12 117 -17l-2 -82q-301 10 -606 0l2 82q158 8 170 82l133 958q4 37 -24 50q-27 13 -113 18l6 82h684q82 0 130 33
q50 35 112 122z" />
    <glyph glyph-name="afii10098" unicode="&#x491;" horiz-adv-x="952" 
d="M887 1182l28 37h95l-70 -254q-6 -24 -10 -27.5t-25 -3.5h-405l-140 -721q-12 -55 37 -55q48 0 115 67q20 18 39 2q20 -19 -2 -47q-76 -94 -166 -144t-174 -50q-68 0 -98.5 40t-16.5 107l139 741q6 37 -23 51q-27 14 -114 19l6 82h543q80 0 125 33t117 123z" />
    <glyph glyph-name="uni1E0C" unicode="&#x1e0c;" horiz-adv-x="1288" 
d="M672 1272q265 0 417 -122t152 -384q0 -334 -178 -548t-490 -214q-33 0 -141 15q-105 16 -162 16q-44 0 -92 -5q-37 -4 -108 -17q-76 -12 -84 -13l4 84q80 7 114 22q33 15 39 52l133 956q6 37 -17.5 53.5t-92.5 22.5l2 82q113 -4 178 -4q20 0 162 2t164 2zM565 84
q116 0 205 120q88 120 126 282q38 166 38 333q0 180 -69 274.5t-206 94.5q-49 0 -84 -4l-149 -1037q-7 -43 16 -53q93 -10 123 -10zM469 -412q-63 0 -108 45q-44 46 -44 107t44 105q46 44 108 44q60 0 104 -44q43 -43 43 -105q0 -63 -43 -107q-43 -45 -104 -45z" />
    <glyph glyph-name="uni1E0D" unicode="&#x1e0d;" horiz-adv-x="1179" 
d="M1094 227q20 -19 -2 -47q-76 -93 -165.5 -143.5t-170.5 -50.5q-70 0 -104 40t-21 107l31 154q-59 -155 -139.5 -228t-205.5 -73q-121 0 -201 69q-79 70 -79 238q0 181 91 353q92 174 251 285q161 113 342 113q27 0 49 -2l16 107q8 56 -23 79t-101 17l10 82q94 13 168 31
q32 8 66.5 17.5t51 14.5t31.5 8t23 3q62 0 51 -74l-160 -1114q-7 -55 37 -55q48 0 115 67q20 18 39 2zM729 729l27 205q-33 37 -103 37q-93 0 -167 -72q-72 -72 -111 -182q-76 -212 -76 -408q0 -213 107 -213q74 0 146 110q71 108 116 251q42 138 61 272zM541 -412
q-63 0 -108 45q-44 46 -44 107t44 105t108 44q60 0 104 -44q43 -43 43 -105q0 -63 -43 -107q-43 -45 -104 -45z" />
    <glyph glyph-name="uni1E24" unicode="&#x1e24;" horiz-adv-x="1359" 
d="M831 1190v82q287 -10 576 0l-2 -82q-150 -7 -162 -82l-133 -958q-4 -38 21 -51q23 -12 108 -17l-2 -82q-285 10 -573 0l4 82q150 8 161 82l62 430h-399l-62 -444q-6 -38 21 -51q26 -12 110 -17v-82q-287 11 -575 0l4 82q145 7 160 82l133 958q6 37 -21 50q-26 14 -108 18
l4 82q285 -10 571 0l-2 -82q-156 -8 -164 -82l-59 -428h399l62 442q4 37 -24 50q-29 14 -110 18zM596 -111q60 0 104 -44q43 -43 43 -105q0 -63 -43 -107q-44 -45 -104 -45q-63 0 -108 45q-44 46 -44 107t44 105q46 44 108 44z" />
    <glyph glyph-name="uni1E25" unicode="&#x1e25;" horiz-adv-x="1134" 
d="M844 1042q248 0 248 -321q0 -163 -57 -329q-55 -166 -171 -288q-114 -120 -258 -120q-79 0 -123.5 33t-44.5 89q0 48 30.5 77.5t76.5 29.5q57 0 77 -39q21 -39 27 -78t27 -39q49 0 94 257q45 256 45 425q0 187 -90 189q-117 0 -233 -239t-177 -642q-12 -66 -133 -65
q-61 0 -91.5 18t-24.5 57l178 1090q8 58 -19 81t-90 17l10 82q91 13 161 31q25 7 53 14.5t43.5 12l31 9t24.5 6t15 1.5q67 0 53 -74l-137 -758q67 205 179 340q112 133 276 133zM406 -412q-63 0 -108 45q-44 46 -44 107t44 105t108 44q60 0 104 -44q43 -43 43 -105
q0 -63 -43 -107q-44 -45 -104 -45z" />
    <glyph glyph-name="uni1E62" unicode="&#x1e62;" horiz-adv-x="983" 
d="M571 795q166 -87 226 -144q123 -113 123 -272q0 -179 -135 -294q-134 -116 -318 -116q-103 0 -200 41q-96 41 -111 41q-60 0 -74 -51h-84l25 313h61q44 0 51 -51q13 -90 88 -143q74 -53 170 -53q106 0 172 68q66 69 66 163q0 77 -48 129q-47 52 -155 111
q-144 74 -226 164q-83 91 -83 227q0 166 126 271q125 106 314 106q81 0 151 -24q72 -24 85 -24q41 0 47 37h80l-27 -303h-45q-44 0 -57 60q-53 165 -211 163q-91 0 -150 -53q-57 -53 -57 -139q0 -67 47.5 -119t148.5 -108zM408 -412q-63 0 -108 45q-44 46 -44 107t44 105
t108 44q60 0 104 -44q43 -43 43 -105q0 -63 -43 -107q-44 -45 -104 -45z" />
    <glyph glyph-name="uni1E63" unicode="&#x1e63;" horiz-adv-x="776" 
d="M694 246q0 -118 -104 -192q-104 -72 -254 -72q-137 0 -229 59q-91 58 -91 139q0 42 27.5 69t71.5 27q47 0 80 -36q33 -33 50 -78q16 -43 51 -79q34 -36 83 -36q44 0 69 25.5t25 68.5q5 41 -35 109q-8 15 -29 43l-30 42l-40 52l-42 55l-42 55q-40 54 -43 58l-33 51
q-17 28 -31 58q-25 67 -25 116q0 117 95 189q94 73 247 73q109 0 194 -54q86 -54 86 -130q0 -40 -23.5 -65t-64.5 -25q-47 0 -83 33q-36 34 -53 70q-16 37 -47 71q-30 33 -68 33q-34 0 -58 -22t-24 -56q0 -35 34 -90l35 -53l54 -72l61 -80l43 -57q36 -47 45 -61
q11 -16 35 -55q23 -35 34 -63q29 -62 29 -120zM305 -412q-63 0 -107 45q-44 46 -44 107t44 105t107 44q60 0 104 -44t44 -105t-44 -107q-43 -45 -104 -45z" />
    <glyph glyph-name="uni1E6C" unicode="&#x1e6c;" horiz-adv-x="1148" 
d="M1114 1288l92 -2l-110 -321h-92q56 215 -54 215h-143l-143 -1030q-6 -38 19 -51q23 -12 108 -17l-3 -82q-283 10 -569 0l4 82q144 7 158 82l143 1016h-135q-36 0 -72 -41q-16 -18 -47 -69q-4 -8 -29 -49l-32 -56h-94l106 321l82 -2q56 -12 209 -12h393q139 0 209 16z
M489 -111q60 0 104 -44t44 -105q0 -63 -43 -107q-44 -45 -105 -45q-63 0 -107 45q-44 46 -44 107t44 105t107 44z" />
    <glyph glyph-name="uni1E6D" unicode="&#x1e6d;" horiz-adv-x="688" 
d="M522 1024h148q18 0 16 -18l-8 -54q-5 -14 -16 -14h-152l-109 -725q-7 -55 37 -55q48 0 115 67q20 18 39 2q20 -19 -2 -47q-76 -94 -166 -144t-174 -50q-65 0 -95 39.5t-20 107.5l119 805h-143q-20 0 -17 18l8 54q5 14 17 14h147l41 281h258zM279 -111q60 0 104 -44
q43 -43 43 -105q0 -63 -43 -107q-43 -45 -104 -45q-63 0 -108 45q-44 46 -44 107t44 105q46 44 108 44z" />
    <glyph glyph-name="Wgrave" unicode="&#x1e80;" horiz-adv-x="1929" 
d="M1272 1395l-344 125q-55 19 -75 68q-19 47 7 87q29 39 73 39t91 -39l279 -233zM1563 1190l2 82q215 -8 432 0l-2 -82q-153 -7 -185 -80l-503 -1128h-101l-190 929l-408 -929h-102l-232 1142q-6 37 -30 49q-21 12 -101 17l4 82q283 -10 568 0l-2 -82q-83 -4 -124.5 -24.5
t-33.5 -55.5l139 -758l293 699l-14 73q-6 37 -30 49q-21 12 -101 17l4 82q283 -10 569 0l-4 -82q-170 -11 -158 -80l140 -758l321 772q1 5 2.5 12t1.5 9q2 9 -7.5 16t-23.5 12q-11 5 -33 9q-12 2 -91 8z" />
    <glyph glyph-name="wgrave" unicode="&#x1e81;" horiz-adv-x="1652" 
d="M877 1430l278 -234l-31 -47l-344 125q-55 19 -75 68q-19 49 8 88q29 39 72.5 38.5t91.5 -38.5zM1473 1036q141 0 141 -227q0 -209 -78 -401q-78 -190 -210 -309q-132 -117 -277 -117q-78 0 -142 34q-63 34 -98 82q-124 -117 -291 -116q-135 0 -223 73t-88 213
q0 144 88 283q91 144 227 291h-332q-28 0 -26 -27q-1 -15 15 -31t36 -28.5t36 -37t15 -54.5q0 -36 -24 -60t-66 -24q-52 0 -83.5 35t-31.5 100q0 117 96 214q97 97 251 97h333q-305 -452 -305 -668q0 -94 52.5 -149t140.5 -55q82 0 125 49q-45 103 -45 227q0 211 115 410
q116 200 257 200q67 0 105.5 -52.5t38.5 -145.5q0 -163 -73 -328q-73 -166 -175 -278q66 -82 166 -82q147 0 233 134t86 308q1 57 -15 110.5t-36 86t-36 68t-15 61.5q0 44 33 79t80 35zM1069 965q-73 0 -122 -132q-50 -132 -50 -301q0 -120 45 -227q81 88 143 234
q62 147 62 274q0 68 -21.5 110t-56.5 42z" />
    <glyph glyph-name="Wacute" unicode="&#x1e82;" horiz-adv-x="1929" 
d="M1245 1522l-332 -125l-28 45l299 231q51 39 96 39q31 0 52.5 -21.5t21.5 -56.5q0 -67 -109 -112zM1563 1190l2 82q215 -8 432 0l-2 -82q-153 -7 -185 -80l-503 -1128h-101l-190 929l-408 -929h-102l-232 1142q-6 37 -30 49q-21 12 -101 17l4 82q283 -10 568 0l-2 -82
q-83 -4 -124.5 -24.5t-33.5 -55.5l139 -758l293 699l-14 73q-6 37 -30 49q-21 12 -101 17l4 82q283 -10 569 0l-4 -82q-170 -11 -158 -80l140 -758l321 772q1 5 2.5 12t1.5 9q2 9 -7.5 16t-23.5 12q-11 5 -33 9q-12 2 -91 8z" />
    <glyph glyph-name="wacute" unicode="&#x1e83;" horiz-adv-x="1652" 
d="M766 1151l-29 45l299 231q51 39 97 39q31 0 52 -22t21 -55q0 -68 -108 -113zM1473 1036q141 0 141 -227q0 -209 -78 -401q-78 -190 -210 -309q-132 -117 -277 -117q-78 0 -142 34q-63 34 -98 82q-124 -117 -291 -116q-135 0 -223 73t-88 213q0 144 88 283q91 144 227 291
h-332q-28 0 -26 -27q-1 -15 15 -31t36 -28.5t36 -37t15 -54.5q0 -36 -24 -60t-66 -24q-52 0 -83.5 35t-31.5 100q0 117 96 214q97 97 251 97h333q-305 -452 -305 -668q0 -94 52.5 -149t140.5 -55q82 0 125 49q-45 103 -45 227q0 211 115 410q116 200 257 200
q67 0 105.5 -52.5t38.5 -145.5q0 -163 -73 -328q-73 -166 -175 -278q66 -82 166 -82q147 0 233 134t86 308q1 57 -15 110.5t-36 86t-36 68t-15 61.5q0 44 33 79t80 35zM1069 965q-73 0 -122 -132q-50 -132 -50 -301q0 -120 45 -227q81 88 143 234q62 147 62 274
q0 68 -21.5 110t-56.5 42z" />
    <glyph glyph-name="Wdieresis" unicode="&#x1e84;" horiz-adv-x="1929" 
d="M991 1455q-38 -38 -90 -38q-53 0 -91 38t-38 91q0 52 38 90q37 37 91 37q53 0 90 -37t37 -90q0 -54 -37 -91zM1317 1417q-54 0 -92 38q-37 37 -37 91q0 53 37 90t92 37q53 0 89 -37q36 -38 36 -90q0 -54 -36 -91q-36 -38 -89 -38zM1563 1190l2 82q215 -8 432 0l-2 -82
q-153 -7 -185 -80l-503 -1128h-101l-190 929l-408 -929h-102l-232 1142q-6 37 -30 49q-21 12 -101 17l4 82q283 -10 568 0l-2 -82q-83 -4 -124.5 -24.5t-33.5 -55.5l139 -758l293 699l-14 73q-6 37 -30 49q-21 12 -101 17l4 82q283 -10 569 0l-4 -82q-170 -11 -158 -80
l140 -758l321 772q1 5 2.5 12t1.5 9q2 9 -7.5 16t-23.5 12q-11 5 -33 9q-12 2 -91 8z" />
    <glyph glyph-name="wdieresis" unicode="&#x1e85;" horiz-adv-x="1652" 
d="M844 1209q-38 -38 -91 -38t-91 38q-37 37 -37 91t37 90q37 37 91 37t91 -37q37 -36 37 -90t-37 -91zM1169 1171q-54 0 -92 38q-37 37 -37 91t37 90q37 37 92 37q53 0 89 -37q36 -36 36 -90t-36 -91q-36 -38 -89 -38zM1473 1036q141 0 141 -227q0 -209 -78 -401
q-78 -190 -210 -309q-132 -117 -277 -117q-78 0 -142 34q-63 34 -98 82q-124 -117 -291 -116q-135 0 -223 73t-88 213q0 144 88 283q91 144 227 291h-332q-28 0 -26 -27q-1 -15 15 -31t36 -28.5t36 -37t15 -54.5q0 -36 -24 -60t-66 -24q-52 0 -83.5 35t-31.5 100
q0 117 96 214q97 97 251 97h333q-305 -452 -305 -668q0 -94 52.5 -149t140.5 -55q82 0 125 49q-45 103 -45 227q0 211 115 410q116 200 257 200q67 0 105.5 -52.5t38.5 -145.5q0 -163 -73 -328q-73 -166 -175 -278q66 -82 166 -82q147 0 233 134t86 308q1 57 -15 110.5
t-36 86t-36 68t-15 61.5q0 44 33 79t80 35zM1069 965q-73 0 -122 -132q-50 -132 -50 -301q0 -120 45 -227q81 88 143 234q62 147 62 274q0 68 -21.5 110t-56.5 42z" />
    <glyph glyph-name="uni1E92" unicode="&#x1e92;" horiz-adv-x="1144" 
d="M784 215l148 147l141 -6q-91 -113 -178 -266l47 -10q38 -8 33 -37l-6 -43h-989l835 1190h-350q-51 0 -86 -36q-35 -37 -92 -134l-13 -23l-104 9l106 280l84 -2q52 -12 209 -12h625l-838 -1190h174q66 0 117 20q48 20 70 41q20 18 67 72zM436 -111q60 0 104 -44t44 -105
q0 -63 -43 -107q-43 -45 -105 -45q-64 0 -107 45q-44 46 -44 107t44 105t107 44z" />
    <glyph glyph-name="uni1E93" unicode="&#x1e93;" horiz-adv-x="964" 
d="M756 395q64 0 107 -57q44 -58 44 -137q0 -89 -62 -163q-61 -73 -173 -73q-82 0 -193 45q-110 45 -164 45q-123 0 -217 -96l-69 70l643 759q-40 -33 -101 -32q-93 0 -213 59t-161 59q-29 0 -29 -20q0 -15 38 -32q38 -15 75 -42q38 -26 38 -73q0 -40 -24 -64.5t-70 -24.5
q-63 0 -106 57q-43 58 -43 138q0 90 61 163t174 73q83 0 191 -43t172 -43q98 0 192 96l70 -70l-643 -760q39 33 121 33q95 0 211 -61q119 -60 161 -60q29 0 29 21q0 14 -38 31q-42 20 -76 46q-37 28 -37 74q0 36 24 59t68 23zM410 -412q-63 0 -108 45q-44 46 -44 107t44 105
t108 44q60 0 104 -44q43 -43 43 -105q0 -63 -43 -107q-44 -45 -104 -45z" />
    <glyph glyph-name="Ygrave" unicode="&#x1ef2;" horiz-adv-x="1259" 
d="M686 1675l279 -233l-31 -47l-344 125q-55 19 -75 68q-19 47 7 87q27 39 72 39t92 -39zM942 1190l2 82q190 -7 383 0l-4 -82q-121 -10 -193 -127l-358 -555l-53 -358q-4 -37 22 -51q26 -13 109 -19l-2 -80q-283 10 -569 0l4 82q145 7 157 82l49 338l-229 614q-8 26 -15 36
q-19 31 -110 38l2 82q283 -10 570 0l-5 -82q-73 -6 -103 -29t-17 -57l170 -467l278 440q66 98 -88 113z" />
    <glyph glyph-name="ygrave" unicode="&#x1ef3;" horiz-adv-x="1058" 
d="M811 1149l-344 125q-55 19 -75 68q-19 49 7 87q27 39 72 39t92 -38l279 -234zM854 1047q77 0 124.5 -57.5t47.5 -160.5q0 -298 -270 -794q-156 -283 -249 -382q-95 -102 -188 -102q-75 0 -125 46q-51 45 -51 118q0 63 38 102.5t95 39.5q29 1 55 -16.5t41.5 -39.5
t32.5 -39.5t31 -15.5q46 0 137 148l-323 845q-25 63 -70 64q-41 0 -86 -27q-23 -14 -37 15q-11 23 9 32q72 40 141 98q14 12 35.5 30.5t32 27.5t25.5 22t23 19t18 12.5t16.5 9t11.5 2.5q45 0 90 -116q4 -6 6 -13l270 -727q187 376 189 578q0 20 -5.5 21.5t-28.5 -6t-46 -7.5
q-57 0 -96 40t-39 95q0 56 41 97t104 41z" />
    <glyph glyph-name="endash" unicode="&#x2013;" horiz-adv-x="1327" 
d="M72 494v92h1192v-92h-1192z" />
    <glyph glyph-name="emdash" unicode="&#x2014;" horiz-adv-x="1814" 
d="M72 494v92h1679v-92h-1679z" />
    <glyph glyph-name="afii00208" unicode="&#x2015;" horiz-adv-x="1814" 
d="M72 494v92h1679v-92h-1679z" />
    <glyph glyph-name="quoteleft" unicode="&#x2018;" horiz-adv-x="407" 
d="M299 1333q25 18 39 0l16 -22q-85 -91 -98 -181q-2 -20 0 -26q17 4 37 4q54 0 86.5 -34.5t32.5 -86.5q0 -66 -49 -115q-48 -49 -117 -49q-60 0 -93.5 41t-33.5 111q0 91 51 189q50 97 129 169z" />
    <glyph glyph-name="quoteright" unicode="&#x2019;" horiz-adv-x="397" 
d="M262 860q-26 -20 -39 0l-16 23q85 91 98 180q1 19 0 27q-12 -3 -37 -5q-54 0 -86 34.5t-32 86.5q0 66 48 115t117 49q60 0 93.5 -40.5t33.5 -110.5q0 -93 -51 -190q-50 -97 -129 -169z" />
    <glyph glyph-name="quotesinglbase" unicode="&#x201a;" horiz-adv-x="417" 
d="M106 -246q-25 -19 -38 0l-17 23q84 90 99 180q2 19 0 27q-17 -4 -37 -4q-54 0 -86.5 34t-32.5 86q0 66 48 115t118 49q60 0 93.5 -40.5t33.5 -110.5q0 -92 -52 -189q-52 -98 -129 -170z" />
    <glyph glyph-name="quotedblleft" unicode="&#x201c;" horiz-adv-x="780" 
d="M303 1358q25 18 39 0l16 -23q-85 -91 -98 -180q-2 -19 0 -27q12 3 37 5q54 0 86.5 -34.5t32.5 -86.5q0 -66 -49 -115q-48 -49 -117 -49q-60 0 -93.5 40.5t-33.5 110.5q0 91 51 189q52 98 129 170zM674 1358q26 18 39 0l16 -23q-85 -91 -98 -180q-1 -19 0 -27q12 3 37 5
q54 0 86 -34.5t32 -86.5q0 -66 -48 -115t-117 -49q-60 0 -93.5 40.5t-33.5 110.5q0 91 51 189q52 98 129 170z" />
    <glyph glyph-name="quotedblright" unicode="&#x201d;" horiz-adv-x="768" 
d="M262 860q-26 -20 -39 0l-16 23q85 91 98 180q1 19 0 27q-12 -3 -37 -5q-54 0 -86 34.5t-32 86.5q0 66 48 115t117 49q60 0 93.5 -40.5t33.5 -110.5q0 -93 -51 -190q-50 -97 -129 -169zM633 860q-25 -20 -39 0l-16 23q85 91 98 180q2 19 0 27q-12 -3 -37 -5
q-54 0 -86.5 34.5t-32.5 86.5q0 66 48 115t118 49q60 0 93.5 -40.5t33.5 -110.5q0 -93 -51 -190q-50 -97 -129 -169z" />
    <glyph glyph-name="quotedblbase" unicode="&#x201e;" horiz-adv-x="788" 
d="M106 -246q-25 -19 -38 0l-17 23q84 90 99 180q2 19 0 27q-17 -4 -37 -4q-54 0 -86.5 34t-32.5 86q0 66 48 115t118 49q60 0 93.5 -40.5t33.5 -110.5q0 -92 -52 -189q-52 -98 -129 -170zM477 -246q-25 -20 -39 0l-16 23q85 91 98 180q2 19 0 27q-17 -4 -37 -4
q-54 0 -86 34t-32 86q0 66 48 115t117 49q60 0 93.5 -40.5t33.5 -110.5q0 -91 -51 -189q-52 -98 -129 -170z" />
    <glyph glyph-name="dagger" unicode="&#x2020;" horiz-adv-x="907" 
d="M780 1055q57 0 89 -38t24 -94q-7 -55 -50 -93q-41 -37 -100 -37q-30 0 -88 35q-57 36 -92 42l-6 -65l82 -100l-190 -447h-66l-61 447l110 100l12 65q-38 -6 -106 -42q-67 -35 -98 -35q-55 0 -87 37.5t-24 92.5q8 56 50 94q43 38 97 38q34 0 90 -37q58 -37 97 -43
q4 48 -23 116q-26 70 -22 97q7 55 50 93t97 38q57 0 89 -38q32 -37 24 -93q-5 -29 -50 -96q-46 -67 -55 -117q41 6 107 43q68 37 100 37z" />
    <glyph glyph-name="daggerdbl" unicode="&#x2021;" horiz-adv-x="909" 
d="M698 440q55 0 87 -37.5t24 -93.5q-7 -55 -50 -93t-100 -38q-31 0 -90 39q-58 39 -98 45q-4 -49 24 -119q29 -71 25 -98q-8 -55 -51 -93q-44 -38 -99 -38q-54 0 -86 38t-26 93q5 31 52 97q49 70 59 120q-41 -6 -111 -45t-102 -39q-54 0 -86.5 38t-26.5 93q7 55 51 93
t96 38q34 0 92 -39q60 -39 99 -45l8 60l-78 202l135 199l9 60q-41 -6 -111 -45t-102 -39q-55 0 -87 37.5t-24 92.5q8 56 50 94q43 38 100 38q31 0 89 -39q59 -39 97 -45q4 49 -24 118q-27 71 -23 99q7 55 50 93t99 38q55 0 87 -38t24 -93q-4 -28 -51 -99q-47 -69 -60 -118
q42 6 112 45t103 39q55 0 87 -38t24 -94q-7 -55 -50 -93q-41 -37 -100 -37q-31 0 -90 38q-57 38 -98 46l-8 -60l80 -201l-137 -200l-9 -60q41 6 111 45t104 39z" />
    <glyph glyph-name="bullet" unicode="&#x2022;" horiz-adv-x="718" 
d="M334 324q-96 0 -159 66q-62 68 -62 167q0 127 90 220t209 93q95 0 156 -67q63 -66 63 -164q0 -126 -89 -221q-88 -94 -208 -94z" />
    <glyph glyph-name="ellipsis" unicode="&#x2026;" horiz-adv-x="1204" 
d="M111 -20q-48 0 -83 35q-34 35 -34 89q0 62 48 112t110 50q49 0 82.5 -35.5t33.5 -87.5q0 -65 -48 -115q-48 -48 -109 -48zM516 -20q-48 0 -83 35q-34 35 -34 89q0 62 48 112q50 50 110 50q49 0 83 -35.5t34 -87.5q0 -66 -49 -115q-48 -48 -109 -48zM922 -20q-48 0 -83 35
q-34 35 -34 89q0 62 48 112t110 50q49 0 82.5 -35.5t33.5 -87.5q0 -65 -48 -115q-48 -48 -109 -48z" />
    <glyph glyph-name="perthousand" unicode="&#x2030;" horiz-adv-x="1916" 
d="M645 1024q-18 -117 -95 -200t-186 -83q-107 0 -163 83q-54 82 -37 200q18 116 95 199q76 82 183 82q111 0 165 -82q54 -83 38 -199zM135 -10l977 1313h141l-974 -1313h-144zM375 817q89 0 117 207q33 205 -60 205q-85 0 -113 -205q-29 -207 56 -207zM989 541
q106 0 161 -82q56 -84 40 -199q-17 -119 -95 -200q-80 -83 -186 -83q-105 0 -161 83q-54 83 -38 200q16 115 94 199q76 82 185 82zM1790 260q-18 -118 -96 -200q-78 -83 -187 -83q-106 0 -162 83q-55 81 -38 200q18 116 95 199q76 82 183 82q111 0 166 -82t39 -199zM920 53
q84 0 116 207q28 205 -57 205q-89 0 -117 -205q-28 -207 58 -207zM1634 260q33 205 -59 205q-85 0 -113 -205q-28 -207 58 -207t114 207z" />
    <glyph glyph-name="guilsinglleft" unicode="&#x2039;" horiz-adv-x="548" 
d="M59 498l9 49l426 336l38 -54l-284 -307l198 -307l-51 -53z" />
    <glyph glyph-name="guilsinglright" unicode="&#x203a;" horiz-adv-x="550" 
d="M494 547l-9 -49l-426 -336l-39 53l285 307l-199 307l54 54z" />
    <glyph glyph-name="fraction" unicode="&#x2044;" horiz-adv-x="374" 
d="M-317 -10l884 1313h166l-885 -1313h-165z" />
    <glyph glyph-name="Euro" unicode="&#x20ac;" horiz-adv-x="1390" 
d="M827 66q117 0 217.5 70.5t167.5 209.5h103q-62 -165 -195 -271t-344 -106q-217 0 -355 117t-171 322h-203l29 147h166q5 88 16 143h-162l31 148h172q78 207 243 333t369 126q89 0 180 -24q93 -24 140 -24q46 0 98 7q-4 -198 43 -351h-145q-90 299 -322 299
q-119 0 -201 -100q-81 -100 -124 -266h387l-31 -148h-385q-12 -70 -12 -143h376l-28 -147h-344q17 -159 87 -250q72 -92 197 -92z" />
    <glyph glyph-name="trademark" unicode="&#x2122;" horiz-adv-x="1239" 
d="M193 1272h382q10 0 18.5 -9t6.5 -18l-8 -98h-41l-12 33q-6 16 -23 16h-86l-45 -317q-2 -9 13 -15t34 -6l-6 -51h-215l8 51q49 0 51 21l43 317h-84q-19 0 -26 -16l-21 -33h-43l21 98q4 27 33 27zM1286 1272l-8 -49q-23 -8 -29 -14.5t-8 -24.5l-43 -297q-2 -15 3.5 -19.5
t33.5 -13.5l-6 -47h-191l9 47q30 8 37.5 13t9.5 20l30 225l-184 -256q-14 -23 -30.5 -22.5t-24.5 22.5l-129 258l-33 -227q-2 -14 4.5 -19t34.5 -14l-8 -47h-158l6 47q31 8 38 13t9 20l43 297q2 17 -4.5 23.5t-32.5 13.5l7 51h147l135 -283l213 283h129z" />
    <glyph glyph-name="oneeighth" unicode="&#x215b;" horiz-adv-x="1406" 
d="M373 1280v-369q0 -32 59 -37v-71h-252v71q59 5 60 37v285l-64 -20v84l115 51q29 12 56 -1q28 -12 26 -30zM125 -10l885 1313h166l-885 -1313h-166zM1169 272q46 -11 78 -50q33 -40 33 -91q0 -67 -61 -110q-61 -44 -162 -44q-102 0 -158.5 45t-56.5 119q0 46 29 86
q30 40 73 41q-74 27 -74 103q0 51 50 90q51 39 137 39q82 0 135 -38t53 -89q0 -74 -76 -101zM1049 315l41 -8q16 -1 29 20q14 23 14 44q0 61 -74 61q-31 0 -47.5 -17.5t-16.5 -41.5q1 -47 54 -58zM1137 133q0 61 -74 76l-62 12q-16 2 -28 -23.5t-12 -58.5q0 -38 26.5 -65
t69.5 -27q80 0 80 86z" />
    </font>
</defs>
</svg>
