<?xml version="1.0" standalone="no"?>
<!DOCTYPE svg PUBLIC "-//W3C//DTD SVG 1.1//EN" "http://www.w3.org/Graphics/SVG/1.1/DTD/svg11.dtd" >
<svg xmlns="http://www.w3.org/2000/svg" xmlns:xlink="http://www.w3.org/1999/xlink" version="1.1">
<metadata>
Created by FontForge 20170731 at Tue Apr 18 09:21:08 2017
 By Aleksey,,,
Copyright (c) 2015 by Connary Fagen. All rights reserved. |DCNT
</metadata>
<defs>
<font id="ArgentCF-DemiBold" horiz-adv-x="1400" >
  <font-face 
    font-family="Argent CF DemiBold"
    font-weight="600"
    font-stretch="normal"
    units-per-em="2048"
    panose-1="0 0 7 0 0 0 0 0 0 0"
    ascent="1638"
    descent="-410"
    x-height="1026"
    cap-height="1272"
    bbox="-876.678 -628.811 2091 1743"
    underline-thickness="0"
    underline-position="0"
    unicode-range="U+0020-FB02"
  />
<missing-glyph horiz-adv-x="1054" 
d="M197 1638h667v-2109h-667v2109zM702 1427v70h-348v-70h138v-77h-140v-70h350v70h-139v77h139zM563 1077v148h-211v-219h350v71h-139zM422 1153h70v-76h-70v76zM702 879v69h-350v-69h140v-78h-140v-70h211v148h139zM702 610v211h-69v-139h-281v-72h350zM702 326v239h-210
v-119h71v50h70v-101h-211v170h-70v-239h350zM702 -39v240h-350v-240h350zM422 131h211v-100h-211v100zM702 -158v70h-350v-70h148l-148 -98v-70h350v70h-215l148 98h67z" />
    <glyph glyph-name="uniFB01" unicode="fi" horiz-adv-x="1329" 
d="M594 1348q-96 0 -133 -97q-29 -79 -29 -225h217v-82h-217v-799q0 -61 129 -75v-70q-266 11 -530 0v70q125 14 125 75v799h-115v82h115q0 209 123 305q125 96 309 96q154 0 252 -59t98 -154q0 -100 -100 -100q-56 0 -84 37q-29 38 -36 80q-7 43 -37 80t-87 37zM1159 702
v-557q0 -61 129 -75v-70q-264 11 -530 0v70q125 14 125 75v615q0 58 -30.5 79t-92.5 11v70q211 38 358 127q36 -16 53 -54q-12 -84 -12 -291z" />
    <glyph glyph-name="uniFB02" unicode="fl" horiz-adv-x="1296" 
d="M1126 1026v-881q0 -61 129 -75v-70q-264 11 -530 0v70q125 14 125 75v902q0 127 -34 206q-38 97 -171 97q-135 0 -176 -103q-37 -93 -37 -221h217v-82h-217v-790q0 -61 129 -76v-78q-266 11 -530 0v78q125 14 125 76v790h-115v82h115q6 199 137 300t358 101
q229 0 352 -100.5t123 -300.5z" />
    <glyph glyph-name=".notdef" horiz-adv-x="1054" 
d="M197 1638h667v-2109h-667v2109zM702 1427v70h-348v-70h138v-77h-140v-70h350v70h-139v77h139zM563 1077v148h-211v-219h350v71h-139zM422 1153h70v-76h-70v76zM702 879v69h-350v-69h140v-78h-140v-70h211v148h139zM702 610v211h-69v-139h-281v-72h350zM702 326v239h-210
v-119h71v50h70v-101h-211v170h-70v-239h350zM702 -39v240h-350v-240h350zM422 131h211v-100h-211v100zM702 -158v70h-350v-70h148l-148 -98v-70h350v70h-215l148 98h67z" />
    <glyph glyph-name="glyph1" horiz-adv-x="0" 
 />
    <glyph glyph-name="glyph2" horiz-adv-x="681" 
 />
    <glyph glyph-name="space" unicode=" " horiz-adv-x="450" 
 />
    <glyph glyph-name="exclam" unicode="!" horiz-adv-x="518" 
d="M309 444h-94q-5 196 -55 420q-51 228 -51 273q0 76 46 122t107 46t108 -47q46 -46 46 -121q0 -47 -52 -273q-50 -224 -55 -420zM319 21q-41 -41 -98 -41t-98 41q-41 43 -41 99q0 58 41 99t98 41t98 -41t41 -99q0 -56 -41 -99z" />
    <glyph glyph-name="quotedbl" unicode="&#x22;" horiz-adv-x="688" 
d="M135 881q-20 98 -59 293q-12 59 22 95t90 36q52 0 86 -36q35 -37 23 -95l-59 -293q-8 -45 -50 -45q-46 0 -53 45zM451 881l-60 293q-12 58 23 95q34 36 90 36q52 0 86 -36q35 -37 22 -95l-59 -293q-7 -45 -49 -45q-46 0 -53 45z" />
    <glyph glyph-name="numbersign" unicode="#" horiz-adv-x="1259" 
d="M987 954h152q33 0 28 -30l-10 -113q-1 -31 -33 -31h-180l-72 -284h183q31 0 28 -31l-10 -113q-5 -32 -33 -30h-211l-96 -383h-188l98 383h-182l-96 -383h-189l98 383h-153q-31 0 -29 30l10 113q4 31 33 31h187l73 284h-190q-33 0 -29 31l10 113q2 32 33 30h221l109 422
h178l-106 -422h186l108 422h179zM506 496h182l74 284h-184z" />
    <glyph glyph-name="dollar" unicode="$" horiz-adv-x="1024" 
d="M973 348q0 -173 -125 -271q-124 -97 -287 -106v-96h-90v100q-65 11 -140 46q-77 36 -106 36q-57 0 -71 -57h-82l-21 311h80q51 -119 151 -185q99 -63 205 -63q96 0 153.5 51.5t57.5 139.5q0 85 -62 149q-61 64 -206 136q-173 84 -267 178q-95 95 -95 241q0 158 111 252
q113 95 288 95h4v106h90v-115q38 -6 91 -24q54 -17 71 -17q41 0 49 33h82l16 -295h-67q-103 224 -287 226q-89 0 -142 -50q-52 -49 -52 -125q0 -78 56.5 -136.5t180.5 -114.5l48 -23l55 -27q15 -6 54 -28q40 -21 57 -34q31 -24 50 -37q35 -24 50 -44l38 -49q24 -29 35 -60
q27 -77 27 -143z" />
    <glyph glyph-name="percent" unicode="%" horiz-adv-x="1378" 
d="M344 741q-112 0 -183 83q-69 82 -69 200q0 116 69 199q70 82 183 82q115 0 184 -82q70 -82 70 -199q0 -118 -70 -200q-69 -83 -184 -83zM213 -10l844 1313h143l-842 -1313h-145zM344 815q94 0 94 209q0 207 -94 207q-92 0 -92 -207q0 -209 92 -209zM1032 -23
q-112 0 -183 83q-69 82 -69 200q0 117 70 199t182 82q115 0 184 -82q70 -82 70 -199q0 -118 -70 -200q-69 -83 -184 -83zM1032 51q94 0 94 209q0 207 -94 207q-92 0 -92 -207q0 -209 92 -209z" />
    <glyph glyph-name="ampersand" unicode="&#x26;" horiz-adv-x="1521" 
d="M1470 1044q0 -69 -49 -142q-17 -26 -57 -59q-33 -26 -65 -48q-32 -20 -80 -44l-77 -36q-4 -2 -82 -35q-39 -17 -71 -29q136 -18 213 -94q79 -77 80 -184q2 -177 -185 -290q-186 -114 -431 -114q-266 0 -441 115q-174 116 -174 311q0 167 117 258q118 92 231 82
q-98 18 -169 92q-70 73 -70 177q0 130 117 216q118 85 292 85q155 0 261 -69q108 -69 108 -206q0 -96 -55 -166q-54 -69 -138 -69q-47 0 -76.5 24.5t-29.5 63.5q0 32 41 82t41 110q0 72 -39 115t-102 43q-80 0 -119 -65q-39 -64 -39 -150q0 -94 48 -174t140 -113l-26 -90
l-21 2q-92 6 -155 -65q-62 -71 -62 -193q0 -141 84 -240q84 -98 236 -98q163 0 245 103q84 104 84 235q0 78 -31 126t-87 48q-63 0 -83 -51t27 -96h-92q-61 27 -61 92q0 77 131 166l250 170q60 41 87 64q35 30 60 70.5t25 80.5q0 64 -47 93t-127 11q-23 -6 -37 33
q-12 37 14 49q80 33 170 33q106 0 191 -61q85 -60 85 -169z" />
    <glyph glyph-name="quotesingle" unicode="'" horiz-adv-x="372" 
d="M135 881q-20 98 -59 293q-12 59 22 95t90 36q52 0 86 -36q35 -37 23 -95l-59 -293q-8 -45 -50 -45q-46 0 -53 45z" />
    <glyph glyph-name="parenleft" unicode="(" horiz-adv-x="669" 
d="M322 606q0 -607 290 -909q15 -15 12 -26t-22 -11h-51q-22 0 -39 14q-212 154 -321 396t-109 536q0 295 109 535q109 242 321 397q17 14 39 14h47q20 0 27.5 -8t-2.5 -18q-301 -305 -301 -920z" />
    <glyph glyph-name="parenright" unicode=")" horiz-adv-x="669" 
d="M348 606q0 615 -301 920q-6 7 -5.5 12.5t8.5 9.5t22 4h47q22 0 39 -14q210 -154 320 -397t110 -535t-110 -536q-110 -243 -320 -396q-17 -14 -39 -14h-51q-18 0 -21.5 10.5t10.5 26.5q291 301 291 909z" />
    <glyph glyph-name="asterisk" unicode="*" horiz-adv-x="735" 
d="M346 1065q-20 53 -61 160q7 69 82 80q75 -11 82 -80l-64 -160q-4 -13 -12 -17.5t-15.5 0t-11.5 17.5zM203 1178l112 -138q14 -14 2 -28.5t-34 -10.5l-164 37q-55 40 -27 111q45 57 111 29zM420 1040l112 138q63 27 111 -29q29 -67 -27 -111l-163 -37q-23 -4 -35 10.5
t2 28.5zM119 934l166 35q20 5 31 -11q12 -14 -3 -28l-110 -137q-66 -29 -111 28q-28 70 27 113zM451 969l165 -35q53 -45 27 -113q-46 -55 -111 -28l-110 137q-14 14 -3 28q12 16 32 11zM285 750l61 159q5 13 12.5 18t15.5 0.5t13 -18.5l62 -159q-7 -69 -82 -80
q-75 11 -82 80z" />
    <glyph glyph-name="plus" unicode="+" horiz-adv-x="921" 
d="M512 590h307v-103h-307v-307h-102v307h-308v103h308v307h102v-307z" />
    <glyph glyph-name="comma" unicode="," horiz-adv-x="444" 
d="M238 -240q-20 -23 -41 -2l-21 23q74 80 74 178q0 15 -4 23q-11 -3 -35 -5q-61 0 -100 41t-39 97q0 61 42 102q43 41 105 41q73 0 113 -54q41 -55 41 -136q0 -178 -135 -308z" />
    <glyph glyph-name="hyphen" unicode="-" horiz-adv-x="716" 
d="M82 496v88h553v-88h-553z" />
    <glyph glyph-name="period" unicode="." horiz-adv-x="421" 
d="M309 21q-41 -41 -98 -41t-98 41q-41 43 -41 99q0 58 41 99t98 41t98 -41t41 -99q0 -56 -41 -99z" />
    <glyph glyph-name="slash" unicode="/" horiz-adv-x="921" 
d="M92 -164l547 1641h190l-546 -1641h-191z" />
    <glyph glyph-name="zero" unicode="0" horiz-adv-x="1243" 
d="M1171 641q0 -281 -147 -477q-147 -195 -401 -195q-255 0 -404 195q-147 196 -147 477q0 275 147 469q148 193 404 193q254 0 401 -193t147 -469zM623 57q70 0 121.5 50.5t79.5 140.5q50 158 50 393q0 231 -50 388q-28 89 -79.5 138.5t-122.5 49.5q-70 0 -123 -50
t-81 -138q-49 -158 -49 -388q0 -160 19 -278q19 -119 79 -214q60 -92 156 -92z" />
    <glyph glyph-name="one" unicode="1" horiz-adv-x="729" 
d="M502 944v-799q0 -63 145 -75v-70q-283 7 -563 0v70q74 6 107.5 23t33.5 52v850q0 59 -32 80t-111 17v69q221 34 379 127q37 -16 53 -53q-12 -84 -12 -291z" />
    <glyph glyph-name="two" unicode="2" horiz-adv-x="1089" 
d="M971 360h67l-77 -313q-12 -47 -66 -47h-827l-7 76q248 227 351 346q284 326 282 571q0 105 -49.5 167.5t-136.5 62.5q-89 0 -139 -62t-50 -168q0 -35 12.5 -86t12.5 -63q0 -49 -36 -82t-91 -33q-71 0 -112.5 56t-41.5 149q0 160 123 265q122 106 334 106q208 0 330 -102
q121 -100 121 -267q0 -84 -44 -189q-17 -42 -55 -90q-34 -44 -65 -81q-27 -31 -85 -82q-16 -14 -46.5 -40.5t-42.5 -35.5q-29 -23 -104 -77q-55 -40 -102 -73q-37 -24 -110 -75h363q95 0 149 14q53 13 84 61z" />
    <glyph glyph-name="three" unicode="3" horiz-adv-x="1159" 
d="M676 709q173 35 297 -55q125 -89 125 -253q0 -190 -167 -309t-386 -119q-206 0 -340 98q-133 99 -133 220q0 57 32.5 92t90.5 35q71 0 99 -46q30 -46 30 -106q0 -84 55 -148q56 -63 166 -63q129 0 200 92q72 93 72 226q0 116 -56 187t-140 71q-57 0 -162 -39l-31 80
l80 35q223 97 223 299q0 99 -49.5 158t-136.5 59q-85 0 -138 -60q-51 -59 -51 -155q0 -28 11.5 -77t11.5 -67q0 -48 -31.5 -76t-81.5 -28q-68 0 -108.5 51t-40.5 139q0 154 120 254q122 101 314 101q191 0 303 -88q113 -87 113 -209q0 -104 -82 -183q-81 -78 -209 -116z" />
    <glyph glyph-name="four" unicode="4" horiz-adv-x="1153" 
d="M1018 553l22 45h52l-50 -192q-12 -46 -69 -48h-127v-204q0 -37 32.5 -53.5t118.5 -22.5v-78q-291 8 -612 0v78q100 6 136 21q36 17 36 55v204h-448l-37 138l653 809h121v-805h41q61 0 87 9q27 9 44 44zM168 500h389v479z" />
    <glyph glyph-name="five" unicode="5" horiz-adv-x="1146" 
d="M610 877q179 0 322 -116t143 -319q0 -213 -160 -340q-158 -127 -383 -127q-182 0 -307 81t-149 196q-14 69 15.5 112.5t94.5 43.5q49 5 85 -37q9 -7 16 -27l11 -26q2 -3 10 -32q7 -24 7 -30q22 -77 61 -136q50 -73 159 -73q128 0 193 98q65 100 65 248q0 169 -81 270
t-210 101q-162 0 -262 -135h-97l56 643h413q145 0 181 57h133l-54 -203q-12 -47 -65 -47h-551l-31 -372q51 71 160 121q107 49 225 49z" />
    <glyph glyph-name="six" unicode="6" horiz-adv-x="1146" 
d="M946 1227l-63 -84q-102 78 -213 78q-143 0 -220 -112q-33 -51 -52 -123q-18 -68 -26 -144q-7 -61 -10 -156q31 49 106 94t183 45q169 0 296 -112q128 -111 128 -293q0 -194 -141 -321q-142 -128 -350 -128q-245 0 -378 175q-134 176 -134 454q0 298 159 500
q161 203 443 203q171 0 272 -76zM362 557q0 -185 50 -337q27 -77 74 -120t108 -43q75 0 121 61q78 103 78 288q0 138 -51 236q-49 97 -148 97q-96 0 -164 -71t-68 -111z" />
    <glyph glyph-name="seven" unicode="7" horiz-adv-x="1009" 
d="M416 1272h542l-493 -1206q-37 -89 -123 -91q-47 0 -76.5 29t-29.5 76q0 38 35 108q37 73 229 400q67 115 284 491h-397q-102 0 -162 -24q-59 -23 -94 -94h-70l89 329h94q56 -18 172 -18z" />
    <glyph glyph-name="eight" unicode="8" horiz-adv-x="1159" 
d="M795 686q138 -44 214 -136q78 -93 78 -204q0 -159 -139 -268t-369 -109q-229 0 -368 109t-139 268q0 110 77 204q77 92 216 136q-100 42 -155.5 120.5t-55.5 170.5q0 131 111 229q113 99 314 99q203 0 311 -99q109 -97 109 -229q0 -90 -53.5 -168.5t-150.5 -122.5z
M580 1219q-179 0 -181 -242q0 -258 181 -258q174 0 174 258q0 242 -174 242zM795 346q0 299 -215 299t-215 -299q0 -289 215 -289t215 289z" />
    <glyph glyph-name="nine" unicode="9" horiz-adv-x="1146" 
d="M201 57l63 84q102 -78 213 -78q72 0 128.5 30.5t90.5 81.5q32 47 52 123q19 75 27 143q8 69 9 157q-31 -49 -106 -94q-74 -45 -182 -45q-168 0 -296 111q-128 113 -128 294q0 194 141 321q142 128 350 128q245 0 378 -175q134 -176 134 -454q0 -298 -160 -500
q-159 -202 -442 -202q-170 0 -272 75zM784 727q0 194 -50 337q-25 76 -73 119.5t-108 43.5q-74 0 -121 -62q-78 -100 -78 -286q0 -139 50 -237q51 -97 149 -97q96 0 163 70q68 71 68 112z" />
    <glyph glyph-name="colon" unicode=":" horiz-adv-x="462" 
d="M309 677q-41 -42 -98 -42t-98 42q-41 43 -41 99q0 57 41 98t98 41t98 -41t41 -98q0 -56 -41 -99zM309 21q-41 -41 -98 -41t-98 41q-41 43 -41 99q0 58 41 99t98 41t98 -41t41 -99q0 -56 -41 -99z" />
    <glyph glyph-name="semicolon" unicode=";" horiz-adv-x="444" 
d="M321 675q-41 -42 -98 -42t-98 42q-41 43 -41 99q0 57 41 98t98 41t98 -41t41 -98q0 -56 -41 -99zM238 -240q-20 -23 -41 -2l-21 23q74 80 74 178q0 15 -4 23q-11 -3 -35 -5q-61 0 -100 41t-39 97q0 61 42 102q43 41 105 41q73 0 113 -54q41 -55 41 -136q0 -178 -135 -308
z" />
    <glyph glyph-name="less" unicode="&#x3c;" horiz-adv-x="972" 
d="M102 432v162q426 163 768 350v-129l-150 -80q-130 -69 -162 -86q-44 -22 -150 -68q-89 -39 -177 -67q82 -26 176 -68q96 -42 151 -70q58 -30 162 -87q105 -55 150 -78v-129q-342 187 -768 350z" />
    <glyph glyph-name="equal" unicode="=" horiz-adv-x="921" 
d="M61 666v102h717v-102h-717zM61 297v102h717v-102h-717z" />
    <glyph glyph-name="greater" unicode="&#x3e;" horiz-adv-x="972" 
d="M870 594v-162q-426 -163 -768 -350v129q25 12 149 79q153 81 163 86q45 23 151 70q94 42 176 68q-88 28 -177 67q-109 47 -150 68l-163 86q-91 50 -149 80v129q342 -187 768 -350z" />
    <glyph glyph-name="question" unicode="?" horiz-adv-x="1003" 
d="M526 356h-84q-22 128 64 242l74 100q94 127 94 277q0 117 -48 182.5t-134 65.5t-132.5 -60t-46.5 -168q0 -50 13 -89q14 -42 14 -60q0 -51 -35 -83t-90 -32q-71 0 -112.5 56t-41.5 147q0 160 117 265q116 106 318 106q210 0 328 -98q118 -97 118 -251q0 -153 -135 -261
q-57 -47 -117 -90q-144 -107 -164 -249zM582 21q-41 -41 -99 -41q-57 0 -98 41q-41 43 -41 99q0 58 41 99t98 41q58 0 99 -41t41 -99q0 -56 -41 -99z" />
    <glyph glyph-name="at" unicode="@" horiz-adv-x="1554" 
d="M776 -82v-88q-294 0 -500 189q-204 190 -204 491q0 299 205 488q205 190 499 190q296 0 502 -185q205 -184 205 -493q0 -170 -93 -279q-92 -108 -241 -108q-145 0 -221 127q-89 -131 -256 -131q-99 0 -170 52q-72 53 -72 144q0 99 100 169q102 72 367 112v16q0 43 -1 56
q-2 22 -6 52q-6 44 -28.5 64t-66.5 25q-64 0 -90.5 -31.5t-26.5 -97.5q0 -57 -111 -57q-92 0 -92 75t85 133q86 60 231 60q162 0 237.5 -66.5t75.5 -210.5v-335q0 -74 45 -74q49 0 64 82q16 80 16 223q0 274 -120 432t-333 158t-333 -158q-119 -158 -119 -432
q0 -269 121 -430q121 -162 331 -162zM739 221q93 0 158 113v180q-151 -32 -198 -82q-48 -51 -48 -119q0 -42 23.5 -67t64.5 -25z" />
    <glyph glyph-name="A" unicode="A" 
d="M786 1282l379 -1022q40 -105 79 -143q41 -40 136 -47v-70q-311 8 -620 0v70q96 6 128 31t9 83l-82 226h-405l-74 -226q-18 -55 33 -81.5t174 -32.5v-70q-262 10 -523 0v70q102 7 155 40q51 32 77 105l366 1067h168zM602 991l-166 -504h350z" />
    <glyph glyph-name="B" unicode="B" horiz-adv-x="1290" 
d="M874 694q375 -66 375 -342q0 -171 -147 -261.5t-428 -90.5h-623v70q85 6 117 27q31 22 31 75v924q0 53 -30 76.5t-106 29.5v70q79 -4 181 -4q63 0 185 2q23 0 52 0.5t45 1t25 0.5q307 0 434 -88t127 -223q0 -183 -238 -267zM487 1196v-508q198 32 275 94q78 64 78 183
q0 110 -59.5 171.5t-180.5 61.5q-71 0 -113 -2zM598 80h72q143 0 215 68t71 204q0 135 -73.5 209t-216.5 74l-179 -31v-426q0 -56 20 -78q22 -20 91 -20z" />
    <glyph glyph-name="C" unicode="C" horiz-adv-x="1265" 
d="M1126 346h99q-40 -159 -165 -269q-124 -108 -343 -108q-288 0 -466 190q-179 191 -179 488q0 294 174 475q174 183 448 183q80 0 171 -25t153 -25q49 0 100 15q20 -201 84 -357h-139q-136 302 -369 304q-155 0 -236 -128t-81 -378q0 -285 104 -467q105 -181 299 -181
q116 0 206.5 70.5t139.5 212.5z" />
    <glyph glyph-name="D" unicode="D" horiz-adv-x="1361" 
d="M590 1272q322 0 506 -154q184 -153 184 -481q0 -151 -44 -271q-43 -117 -108 -185q-62 -64 -146 -109q-140 -72 -277 -72q-41 0 -162 17q-117 18 -193 18q-87 0 -299 -35v70q84 18 116 38q32 21 32 68v920q0 53 -30 76.5t-106 29.5v70q18 -6 271 -3q254 3 256 3zM618 80
q342 0 343 549q0 276 -96.5 422.5t-286.5 146.5q-54 0 -91 -4v-1016q0 -98 131 -98z" />
    <glyph glyph-name="E" unicode="E" horiz-adv-x="1120" 
d="M911 219l78 137h70q-61 -181 -66 -356q-481 12 -942 0v70q85 6 117 27q31 22 31 75v948q0 43 -31 59q-33 17 -117 23v70h905q19 0 25 -7t10 -30l33 -244h-66l-22 45q-45 92 -98 127t-162 35h-137q-51 0 -52 -55v-443h220q75 0 106 30q33 30 51 97h58q-14 -173 0 -342h-58
q-18 70 -51 100q-32 31 -106 31h-220v-444q0 -53 18 -72.5t66 -19.5h68q113 0 170 30q57 32 102 109z" />
    <glyph glyph-name="F" unicode="F" horiz-adv-x="1085" 
d="M995 1235l33 -244h-65l-23 45q-46 93 -97 127q-53 35 -163 35h-137q-51 0 -51 -55v-451h219q75 0 106 30q33 30 51 97h58q-14 -173 0 -342h-58q-18 70 -51 100q-32 31 -106 31h-219v-436q0 -53 32 -74.5t119 -27.5v-70q-295 10 -592 0v70q87 6 119.5 27.5t32.5 74.5v948
q0 43 -31 59q-33 17 -117 23v70h906q19 0 24.5 -6.5t9.5 -30.5z" />
    <glyph glyph-name="G" unicode="G" horiz-adv-x="1372" 
d="M786 537v69q274 -6 545 0v-69l-43 -7q-52 -8 -66 -57q-12 -49 -12 -151v-17q0 -183 74 -203v-77q-64 10 -131 10q-98 0 -224 -33t-220 -33q-289 0 -463 185q-174 186 -174 493q0 294 174 475q174 183 448 183q80 0 171 -25t153 -25q49 0 100 15q20 -201 84 -357h-139
q-136 302 -369 304q-155 0 -236 -128t-81 -378q0 -290 101 -471q102 -179 292 -179q105 0 143 62q37 62 37 205q0 119 -24 158q-22 40 -95 46z" />
    <glyph glyph-name="H" unicode="H" horiz-adv-x="1419" 
d="M1368 1272v-70q-87 -6 -119 -27.5t-32 -74.5v-928q0 -53 32 -74.5t119 -27.5v-70q-295 10 -592 0v70q87 6 119.5 27.5t32.5 74.5v424h-436v-424q0 -53 32 -74.5t119 -27.5v-70q-295 10 -592 0v70q87 6 119.5 27.5t32.5 74.5v928q0 53 -32.5 74.5t-119.5 27.5v70
q297 -10 592 0v-70q-87 -6 -119 -27.5t-32 -74.5v-422h436v422q0 53 -32.5 74.5t-119.5 27.5v70q297 -10 592 0z" />
    <glyph glyph-name="I" unicode="I" horiz-adv-x="694" 
d="M492 1100v-928q0 -53 32 -74.5t119 -27.5v-70q-295 10 -592 0v70q87 6 119.5 27.5t32.5 74.5v928q0 53 -32.5 74.5t-119.5 27.5v70q297 -10 592 0v-70q-87 -6 -119 -27.5t-32 -74.5z" />
    <glyph glyph-name="J" unicode="J" horiz-adv-x="716" 
d="M74 1202v70q295 -10 592 0v-70q-87 -6 -119.5 -27.5t-32.5 -74.5v-840q0 -336 -139 -478t-416 -142v75q266 23 266 375v1010q0 53 -32 74.5t-119 27.5z" />
    <glyph glyph-name="K" unicode="K" horiz-adv-x="1374" 
d="M713 727l327 -442q166 -225 303 -240l-69 -78q-141 0 -252 38q-109 37 -201 163l-274 373l-66 -74v-295q0 -53 32.5 -74.5t119.5 -27.5v-70q-297 10 -592 0v70q87 6 119.5 27.5t32.5 74.5v928q0 53 -32.5 74.5t-119.5 27.5v70q297 -10 592 0v-70q-87 -6 -119.5 -27.5
t-32.5 -74.5v-504l410 455q106 138 -100 151v70q239 -8 477 0v-70q-83 -6 -136 -37q-52 -29 -114 -98z" />
    <glyph glyph-name="L" unicode="L" horiz-adv-x="1103" 
d="M915 219l78 137h70q-61 -181 -66 -356q-481 12 -942 0v70q85 6 117 27q31 22 31 75v928q0 53 -32.5 74.5t-119.5 27.5v70q297 -10 592 0v-70q-87 -6 -119 -27.5t-32 -74.5v-928q0 -53 18 -72.5t65 -19.5h68q113 0 170 30q57 32 102 109z" />
    <glyph glyph-name="M" unicode="M" horiz-adv-x="1648" 
d="M1466 1079v-884q0 -69 33 -94q32 -25 119 -31v-70q-295 10 -592 0v70q87 6 119 31q33 26 33 94v841l-383 -1036h-27l-428 1036v-841q0 -61 54 -88.5t171 -36.5v-70q-275 10 -534 0v70q111 9 163 36.5t52 88.5v854q0 69 -47.5 108t-135.5 45v70q229 -10 459 0l342 -830
l307 830q221 -8 447 0v-70q-89 -6 -120 -31q-32 -24 -32 -92z" />
    <glyph glyph-name="N" unicode="N" horiz-adv-x="1359" 
d="M803 1202v70q276 -10 526 0v-70q-106 -9 -156.5 -36.5t-50.5 -88.5v-1077h-88l-704 1020v-825q0 -61 54 -88.5t173 -36.5v-70q-279 10 -526 0v70q106 9 155.5 36.5t49.5 88.5v854q0 69 -48 108t-135 45v70q221 -11 443 0l532 -778v583q0 61 -54 88.5t-171 36.5z" />
    <glyph glyph-name="O" unicode="O" horiz-adv-x="1361" 
d="M680 1305q266 0 438 -187q172 -185 172 -489q0 -286 -173 -474q-173 -186 -435 -186q-266 0 -438 186q-172 187 -172 490q0 286 173 473q172 187 435 187zM715 55q123 0 196 133q74 134 74 387q0 275 -94 459q-95 185 -244 185q-123 0 -197 -134q-73 -133 -73 -387
q0 -275 94 -459t244 -184z" />
    <glyph glyph-name="P" unicode="P" horiz-adv-x="1208" 
d="M532 492l-45 -7v-313q0 -53 31 -75q32 -21 117 -27v-70q-291 8 -584 0v70q85 6 117 27q31 22 31 75v944q0 45 -28.5 62.5t-107.5 23.5v70q79 -4 185 -4q65 0 195 2q24 0 55.5 0.5t48.5 1t26 0.5q584 0 584 -348q0 -174 -149 -281q-148 -106 -476 -151zM487 1198v-631
l41 4q354 37 355 340q0 135 -66 211t-196 76h-134z" />
    <glyph glyph-name="Q" unicode="Q" horiz-adv-x="1351" 
d="M1264 -131h118q0 -147 -84 -242q-84 -96 -221 -96q-120 0 -221 86q-9 7 -45.5 40.5t-53.5 46t-49.5 34t-62.5 29.5t-63 8q-62 0 -114 -27q-51 -26 -71 -59h-235q38 77 179 156q142 79 335 124q-266 0 -435 186q-169 187 -169 490q0 283 171 471q171 189 431 189
q266 0 435 -187q169 -185 169 -489q0 -183 -77 -334t-210 -236q-94 -60 -313 -139q-221 -80 -268 -131q114 55 223 55q89 0 235 -48t213 -48q77 0 126 33.5t57 87.5zM377 698q0 -277 91 -459q92 -182 241 -182q123 0 193.5 133.5t70.5 384.5q0 277 -91 459q-92 183 -241 183
q-123 0 -193.5 -134t-70.5 -385z" />
    <glyph glyph-name="R" unicode="R" horiz-adv-x="1300" 
d="M793 545l155 -215q185 -254 322 -269l-49 -77q-65 0 -121 8q-51 7 -122 32q-142 51 -261 220l-174 250q-6 -2 -11 -2l-45 -7v-313q0 -53 31 -75q32 -21 117 -27v-70q-291 8 -584 0v70q85 6 117 27q31 22 31 75v944q0 45 -28.5 62.5t-107.5 23.5v70q79 -4 185 -4
q65 0 195 2q24 0 55.5 0.5t48.5 1t26 0.5q584 0 584 -348q0 -270 -364 -379zM621 1198h-134v-631l41 4q354 37 355 340q0 135 -66 211t-196 76z" />
    <glyph glyph-name="S" unicode="S" horiz-adv-x="1024" 
d="M698 254q0 85 -62 149q-61 64 -206 136q-173 84 -267 178q-95 95 -95 241q0 158 111 252q113 95 288 95q84 0 163 -25t93 -25q41 0 49 33h82l16 -295h-67q-103 224 -287 226q-89 0 -142 -50q-52 -49 -52 -125q0 -78 56.5 -136.5t180.5 -114.5l48 -23l55 -27q15 -6 54 -28
q40 -21 57 -34q31 -24 50 -37q35 -24 50 -44l38 -49q24 -29 35 -60q27 -77 27 -143q0 -124 -70 -212q-128 -165 -366 -165q-95 0 -191 43q-95 43 -121 43q-57 0 -71 -57h-82l-21 311h80q51 -119 151 -185q99 -63 205 -63q96 0 153.5 51.5t57.5 139.5z" />
    <glyph glyph-name="T" unicode="T" horiz-adv-x="1167" 
d="M1069 1286h68l-72 -280h-70q12 107 -19 144q-30 38 -93 38h-158v-1016q0 -52 36 -75q36 -21 136 -27v-70q-315 8 -633 0v70q100 6 136 27q36 23 36 75v1016h-129q-72 0 -113 -35q-40 -34 -94 -147h-69l67 280h68q68 -14 237 -14h431q167 0 235 14z" />
    <glyph glyph-name="U" unicode="U" horiz-adv-x="1468" 
d="M1438 1272v-70q-87 -6 -119.5 -27.5t-32.5 -74.5v-946q0 -39 34.5 -58.5t117.5 -25.5v-70q-274 7 -473 0v70q33 23 32 108v45q-129 -245 -405 -243q-190 0 -300 111q-110 113 -110 296v713q0 53 -32 74.5t-119 27.5v70q297 -10 592 0v-70q-87 -6 -119.5 -27.5
t-32.5 -74.5v-711q0 -153 55.5 -234t161.5 -81q110 0 187 76q78 75 122 186v764q0 53 -32 74.5t-119 27.5v70q297 -10 592 0z" />
    <glyph glyph-name="V" unicode="V" 
d="M858 1202v70q262 -10 522 0v-70q-104 -7 -158 -43q-50 -34 -79 -121l-361 -1048h-168l-378 1022q-40 105 -79 143q-41 40 -137 47v70q310 -10 621 0v-70q-96 -6 -128 -31t-9 -84l295 -806l260 788q22 67 -26.5 97t-174.5 36z" />
    <glyph glyph-name="W" unicode="W" horiz-adv-x="2002" 
d="M1528 1202v70q227 -11 454 0v-70q-90 -6 -132 -29q-39 -22 -62 -90l-352 -1101h-107l-340 927l-295 -927h-106l-404 1101q-26 73 -54 92q-29 21 -110 27v70q297 -10 603 0v-70q-99 -4 -133 -29.5t-13 -89.5l254 -743l209 704l-14 39q-25 69 -57 92t-115 27v70
q303 -11 602 0v-70q-96 -4 -128 -29.5t-9 -89.5l254 -743l223 743q19 63 -21 88t-147 31z" />
    <glyph glyph-name="X" unicode="X" horiz-adv-x="1306" 
d="M758 711l307 -508q45 -74 83 -101q39 -27 107 -32v-70q-268 10 -550 0v70q137 17 83 102l-188 313l-205 -292q-33 -57 -12.5 -87t88.5 -36v-70q-195 8 -420 0v70q149 7 244 141l252 360l-301 498q-40 67 -83 96q-44 30 -110 37v70q258 -8 539 0v-70q-123 -16 -72 -100
l185 -305l198 284q28 51 2.5 81.5t-94.5 39.5v70q207 -8 416 0v-70q-138 -17 -223 -139z" />
    <glyph glyph-name="Y" unicode="Y" horiz-adv-x="1308" 
d="M864 1202v70q212 -10 414 0v-70q-77 -6 -124 -35t-79 -94l-278 -536v-342q0 -68 32 -94q32 -25 123 -31v-70q-302 10 -600 0v70q91 6 123 31q33 26 33 94v323l-309 563q-40 73 -68 93q-32 25 -100 28v70q295 -10 596 0v-70q-85 -6 -108 -36.5t9 -86.5l234 -436l225 432
q57 113 -123 127z" />
    <glyph glyph-name="Z" unicode="Z" horiz-adv-x="1196" 
d="M987 94l49 -8q37 -6 37 -33v-53q-516 8 -1032 0l729 1192h-360q-91 0 -137 -40q-47 -41 -99 -155h-84l72 289h88q68 -14 217 -14h661l-729 -1192h179q128 0 207 36q80 35 151 122l96 118h103q-83 -121 -148 -262z" />
    <glyph glyph-name="bracketleft" unicode="[" horiz-adv-x="659" 
d="M565 1462l-196 -14v-1681l196 -15q43 -4 43 -33v-59l-516 29v1837l516 28v-59q0 -29 -43 -33z" />
    <glyph glyph-name="backslash" unicode="\" horiz-adv-x="921" 
d="M92 1477h191l546 -1641h-190z" />
    <glyph glyph-name="bracketright" unicode="]" horiz-adv-x="659" 
d="M291 -233v1681l-197 14q-43 4 -43 33v59l516 -28v-1837l-516 -29v59q0 29 43 33z" />
    <glyph glyph-name="asciicircum" unicode="^" horiz-adv-x="794" 
d="M59 989l301 406q19 19 40 18t34 -18l301 -406q17 -20 4 -43q-12 -22 -41 -22h-28q-29 0 -72 43l-201 204l-200 -204q-39 -43 -74 -43h-29q-27 0 -39 22q-13 23 4 43z" />
    <glyph glyph-name="underscore" unicode="_" horiz-adv-x="1212" 
d="M82 -203v162h1048v-162h-1048z" />
    <glyph glyph-name="grave" unicode="`" horiz-adv-x="657" 
d="M274 1427l281 -233l-29 -45l-346 127q-52 19 -72 65q-18 45 8 84q27 39 70 39t88 -37z" />
    <glyph glyph-name="a" unicode="a" horiz-adv-x="1107" 
d="M938 739v-510q0 -127 129 -137v-72q-166 -5 -346 -47q-37 13 -51 52l10 135h-16q-30 -52 -97 -110q-89 -77 -223 -77q-122 0 -207 66q-86 68 -86 201q0 142 133 230q134 89 478 165v108q0 132 -28 181q-28 51 -106 51q-64 0 -101 -31t-47 -81q-2 -8 -6.5 -33.5t-6.5 -36
t-8 -33t-12 -33t-17 -26.5t-24 -23t-31.5 -13t-41.5 -6q-61 0 -91 27t-29 82q0 116 140 196t355 80q162 0 246 -66q84 -64 84 -239zM461 94q70 0 123 56q52 57 78 116v307q-216 -55 -281 -156q-51 -80 -51 -155q0 -76 36 -122t95 -46z" />
    <glyph glyph-name="b" unicode="b" horiz-adv-x="1224" 
d="M705 1044q178 0 313 -143t135 -397q0 -255 -140 -392q-139 -135 -311 -135q-75 0 -133 32q-57 31 -99 63q-43 32 -85 32q-44 0 -75 -28t-42 -76h-43q-61 0 -61 61v1094q0 58 -30.5 79t-92.5 11v70q211 38 358 127q38 -17 54 -53q-11 -80 -13 -291v-168q100 114 265 114z
M678 57q178 0 178 375q0 238 -62 382q-61 142 -171 142q-56 0 -106 -34q-50 -33 -77 -80v-570q5 -79 80 -147q77 -68 158 -68z" />
    <glyph glyph-name="c" unicode="c" horiz-adv-x="1021" 
d="M874 209h78q-103 -230 -368 -232q-216 0 -370 143q-153 144 -153 398q0 246 150 386q152 140 362 140q163 0 275 -81q113 -80 113 -195q0 -49 -34 -83t-93 -34q-55 0 -88 33t-33 82q0 54 -8 96q-7 43 -39.5 74t-83.5 31q-110 0 -169 -116q-57 -115 -57 -310
q0 -212 71 -348q71 -134 216 -134q163 0 231 150z" />
    <glyph glyph-name="d" unicode="d" horiz-adv-x="1222" 
d="M1053 1098v-869q0 -127 129 -137v-72q-169 -5 -344 -47q-39 13 -54 52l19 112h-15q-27 -63 -94 -112q-68 -48 -172 -48q-180 0 -321 141q-140 143 -140 396q0 249 139 389q140 141 320 141q158 0 256 -120v231q0 58 -30 79t-93 11v70q210 38 359 127q37 -16 53 -53
q-12 -84 -12 -291zM776 256v578q-34 52 -90 92q-58 41 -123 41q-101 0 -156 -106q-55 -104 -55 -286q0 -226 67 -372q68 -146 173 -146q70 0 121 63q51 65 63 136z" />
    <glyph glyph-name="e" unicode="e" horiz-adv-x="1038" 
d="M874 209h78q-103 -230 -377 -232q-217 0 -366 143q-148 144 -148 392q0 250 145 391q146 141 345 141q183 0 305 -119q121 -118 121 -292q0 -77 -27 -110.5t-92 -33.5h-508q0 -186 69 -309q71 -123 216 -123q165 0 239 152zM350 563h371q0 203 -41 303.5t-131 100.5
q-94 0 -146.5 -106.5t-52.5 -297.5z" />
    <glyph glyph-name="f" unicode="f" horiz-adv-x="843" 
d="M555 1434q125 0 207 -52q82 -51 82 -129q0 -86 -101 -86q-53 0 -76 30q-22 30 -21 64q1 33 -16 65q-16 30 -59 30q-72 0 -100.5 -78.5t-28.5 -243.5v-8h217v-82h-217v-799q0 -61 129 -75v-70q-264 11 -530 0v70q125 14 125 75v799h-115v82h115v18q0 106 34.5 186
t93.5 123q111 81 261 81z" />
    <glyph glyph-name="g" unicode="g" horiz-adv-x="1148" 
d="M999 1040q109 0 109 -106q0 -98 -74 -98q-11 0 -41.5 8t-38.5 8q-41 0 -28 -43q23 -75 22 -139q0 -162 -120 -260q-118 -97 -306 -97q-66 0 -137 15q-68 16 -82 16q-61 0 -61 -49q0 -33 34 -51.5t121 -32.5l238 -37q213 -33 312 -89q97 -55 97 -171q0 -163 -160 -260
q-160 -98 -395 -98q-199 0 -324 72q-124 70 -124 202q0 72 40.5 117t106.5 45q53 0 85 -27.5t32 -77.5q0 -21 -9 -55q-9 -35 -9 -61q0 -61 60 -103q61 -43 169 -43q128 0 213 57q86 56 86 156q0 57 -35 89t-116 46l-359 64q-250 43 -250 192q0 71 55 115.5t150 46.5
q-79 37 -126.5 113.5t-47.5 173.5q0 156 119 261t309 105q112 0 185 -35q72 -34 139 -96q40 127 161 127zM391 472q39 -83 125 -83t125 83q39 82 39 206q0 123 -39 207t-125 84t-125 -84t-39 -207q0 -124 39 -206z" />
    <glyph glyph-name="h" unicode="h" horiz-adv-x="1251" 
d="M1092 688v-543q0 -61 129 -75v-70q-266 8 -535 0v70q129 10 129 75v543q0 231 -151 232q-86 0 -146 -65q-60 -66 -76 -132v-578q0 -61 129 -75v-70q-264 11 -530 0v70q125 14 125 75v1010q0 58 -30.5 79t-92.5 11v70q211 38 358 127q38 -17 54 -53q-11 -80 -13 -291v-160
l-20 -127q26 49 63 96q41 49 124 94q85 48 184 48q128 0 213 -82q86 -83 86 -279z" />
    <glyph glyph-name="i" unicode="i" horiz-adv-x="612" 
d="M400 1221q-42 -43 -101 -43t-102 43t-43 102t43 101t102 42t101 -42t42 -101t-42 -102zM442 702v-557q0 -61 129 -75v-70q-264 11 -530 0v70q125 14 125 75v615q0 60 -29.5 81t-93.5 11v70q211 38 358 127q37 -17 54 -54q-11 -80 -13 -293z" />
    <glyph glyph-name="j" unicode="j" horiz-adv-x="606" 
d="M429 1221q-42 -43 -102 -43q-59 0 -102 43t-43 102t43 101t102 42q60 0 102 -42t42 -101t-42 -102zM430 1049q36 -16 53 -54q-12 -84 -12 -293v-565q0 -308 -131 -444q-130 -135 -391 -135l-10 80q132 12 193 93q63 81 63 269v760q0 60 -29.5 81t-93.5 11v70
q209 38 358 127z" />
    <glyph glyph-name="k" unicode="k" horiz-adv-x="1171" 
d="M612 608l295 -387q125 -164 244 -176l-70 -78q-125 0 -220 33q-96 33 -181 141l-238 299v-295q0 -61 129 -75v-70q-264 11 -530 0v70q125 14 125 75v1010q0 58 -30.5 79t-92.5 11v70q211 38 358 127q38 -17 54 -53q-11 -80 -13 -291v-533q164 125 273 285q24 37 0.5 61.5
t-86.5 30.5v84q227 -11 454 0v-84q-95 -10 -190 -90z" />
    <glyph glyph-name="l" unicode="l" horiz-adv-x="612" 
d="M442 1098v-953q0 -61 129 -75v-70q-264 11 -530 0v70q125 14 125 75v1010q0 58 -30.5 79t-92.5 11v70q211 38 358 127q38 -17 54 -53q-11 -80 -13 -291z" />
    <glyph glyph-name="m" unicode="m" horiz-adv-x="1839" 
d="M1679 688v-543q0 -61 129 -75v-70q-266 8 -534 0v70q129 10 129 75v543q0 230 -135 232q-84 0 -138 -62q-54 -64 -73 -131v-39v-543q0 -61 129 -75v-70q-266 8 -535 0v70q129 10 129 75v543q0 230 -135 232q-84 0 -138 -64q-53 -62 -73 -133v-578q0 -66 129 -75v-70
q-266 8 -532 0v70q127 13 127 75v615q0 113 -125 92v70q201 40 346 127q36 -16 53 -54l-31 -184h13q22 46 59 95q38 49 120 95q83 48 181 48q218 0 268 -222q45 85 133 153q89 69 222 69q283 0 282 -361z" />
    <glyph glyph-name="n" unicode="n" horiz-adv-x="1243" 
d="M1083 688v-543q0 -61 129 -75v-70q-266 8 -534 0v70q129 10 129 75v543q0 230 -152 232q-86 0 -145 -65q-60 -66 -76 -132v-578q0 -66 129 -75v-70q-266 8 -532 0v70q127 13 127 75v615q0 113 -125 92v70q201 40 346 127q36 -16 53 -54l-31 -184h13q26 49 63 96
q41 49 124 94q85 48 183 48q128 0 213 -82q86 -83 86 -279z" />
    <glyph glyph-name="o" unicode="o" horiz-adv-x="1116" 
d="M557 1044q189 0 344 -144q154 -144 154 -392q0 -126 -44 -231t-119 -171q-149 -129 -333 -129q-189 0 -344 144q-154 145 -154 393q0 125 44.5 230.5t118.5 170.5q147 129 333 129zM590 55q84 0 129 97.5t45 275.5q0 238 -66 388q-64 151 -172 151q-84 0 -129 -97
t-45 -274q0 -239 66 -391q66 -150 172 -150z" />
    <glyph glyph-name="p" unicode="p" horiz-adv-x="1204" 
d="M698 1044q174 0 309 -142q136 -142 136 -394q0 -260 -142 -396q-141 -135 -321 -135q-147 0 -250 103v-209q0 -69 32 -92q33 -23 109 -19v-71q-230 -33 -399 -131q-40 12 -57 57q39 55 39 190v955q0 60 -29.5 81t-93.5 11v70q210 38 356 127q36 -16 53 -54l-6 -63
q112 112 264 112zM668 57q178 0 178 375q0 240 -60 381q-59 141 -172 141q-96 0 -182 -96q-2 -60 -2 -156v-403q4 -95 78 -169q73 -73 160 -73z" />
    <glyph glyph-name="q" unicode="q" horiz-adv-x="1220" 
d="M528 -23q-183 0 -326 141q-141 142 -141 396q0 249 139 389q140 141 320 141q52 2 103 -17t83 -42t67.5 -42t62.5 -17q91 0 110 100h45q61 0 62 -61v-1094q0 -71 33 -90q35 -21 114 -17v-71q-213 -23 -366 -135q-42 12 -58 57v483q-85 -121 -248 -121zM555 967
q-96 0 -150 -106q-53 -106 -53 -288q0 -224 67 -370q68 -146 173 -146q65 0 118 56q53 57 66 133v493q-13 92 -79 161q-64 67 -142 67z" />
    <glyph glyph-name="r" unicode="r" horiz-adv-x="937" 
d="M735 1049q82 0 132.5 -41t50.5 -109q0 -55 -33 -87t-82 -32q-45 0 -101 44t-98 44q-49 0 -87 -41q-57 -62 -75 -149v-533q0 -61 138 -75v-70q-270 11 -539 0v70q125 14 125 75v615q0 113 -125 92v70q199 40 346 127q36 -16 53 -54l-43 -231h15q112 285 323 285z" />
    <glyph glyph-name="s" unicode="s" horiz-adv-x="886" 
d="M836 281q0 -132 -107 -221q-106 -87 -242 -87q-76 0 -169 38t-107 38q-37 0 -41 -49h-80l-24 287h65q32 -103 134 -170q104 -68 196 -68q63 0 102 37t39 98q0 71 -50 115q-48 43 -163 96q-76 36 -113 57q-38 21 -99 68q-116 90 -116 232q0 130 93 209q94 81 237 81
q72 0 147 -29q72 -28 91 -28q42 0 53 41h72l18 -281h-61q-49 115 -127 169q-77 55 -156 55q-65 0 -104 -36.5t-39 -96.5q0 -61 43 -103.5t139 -87.5q5 -4 50 -24q54 -24 61 -28q18 -9 60 -33q37 -20 61 -40l51 -45q33 -30 46 -56q40 -70 40 -138z" />
    <glyph glyph-name="t" unicode="t" horiz-adv-x="716" 
d="M655 143v-80q-78 -78 -223 -77q-134 0 -207 77t-73 230v651h-111v82q136 0 201 64q66 63 98 215h88v-279h227v-82h-227v-690q0 -166 100 -166q62 0 127 55z" />
    <glyph glyph-name="u" unicode="u" horiz-adv-x="1232" 
d="M1073 983v-754q0 -127 129 -137v-72q-166 -5 -346 -47q-37 13 -51 52l22 196h-14q-38 -87 -129 -169q-92 -83 -231 -83q-127 0 -215 84t-88 281v543q0 64 -58 65l-61 2v70l338 20q57 4 57 -51v-635q0 -254 135 -254q82 0 145 74q63 72 91 149v560q0 64 -58 65l-61 2v70
l338 20q57 4 57 -51z" />
    <glyph glyph-name="v" unicode="v" horiz-adv-x="1157" 
d="M670 -6h-181l-286 821q-26 75 -50 101q-24 29 -81 34l-41 4v72h524v-72l-43 -4q-86 -8 -43 -135l193 -582l176 582q18 61 -10.5 96t-92.5 39l-65 4v72h456v-72l-39 -4q-126 -12 -163 -135z" />
    <glyph glyph-name="w" unicode="w" horiz-adv-x="1796" 
d="M1309 954v72h456v-72l-39 -4q-126 -12 -163 -135l-254 -821h-181l-243 696l-215 -696h-181l-286 821q-26 73 -50 100q-24 29 -81 35l-41 4v72h524v-72l-43 -4q-86 -8 -43 -135l193 -582l178 588q-26 70 -50 95q-24 28 -79 34l-41 4v72h524v-72l-43 -4q-86 -8 -43 -135
l192 -582l177 582q18 61 -10.5 96t-92.5 39z" />
    <glyph glyph-name="x" unicode="x" horiz-adv-x="1138" 
d="M1055 76l43 -6v-70q-256 10 -508 0v72l43 4q59 6 10 88l-127 203l-133 -197q-24 -41 -14.5 -66.5t45.5 -27.5l67 -4v-72q-219 11 -440 0v70l39 6q130 19 207 131l172 252l-242 387q-59 97 -129 104l-43 6v70h514v-72l-31 -2q-37 -2 -42 -29.5t22 -68.5l106 -168l117 170
q25 41 10 67.5t-59 28.5l-49 2v72h438v-70l-37 -6q-72 -12 -118 -40q-45 -26 -89 -91l-155 -225l262 -414q33 -55 58 -78q25 -20 63 -26z" />
    <glyph glyph-name="y" unicode="y" horiz-adv-x="1179" 
d="M752 954v72h397v-72l-62 -4q-74 -5 -116 -121l-492 -1269h-106l182 434l-360 840q-49 115 -101 116l-63 4v72h526v-72l-61 -4q-36 -2 -46.5 -31.5t9.5 -87.5l215 -536l211 534q20 53 0.5 85t-66.5 36z" />
    <glyph glyph-name="z" unicode="z" horiz-adv-x="985" 
d="M860 301h68l-70 -301h-768q-35 0 -46 24.5t9 55.5l563 878l-262 -2q-81 0 -118 -37q-38 -36 -99 -153h-63l71 274h88q68 -14 209 -14q329 0 502 4l-614 -960l258 2q96 0 151 46q57 48 121 183z" />
    <glyph glyph-name="braceleft" unicode="{" horiz-adv-x="591" 
d="M446 395v-307q0 -124 3 -180q5 -57 25 -112q23 -59 67 -81l-78 -55q-98 39 -154 110q-54 69 -71 142q-15 72 -15 176v358q0 45 -25 67q-23 22 -106 58v68q83 38 106 58q25 22 25 67v358q0 104 15 176q17 73 71 142q56 71 154 110l78 -55q-62 -33 -79 -113
q-16 -77 -16 -260v-307q0 -162 -172 -207v-6q172 -45 172 -207z" />
    <glyph glyph-name="bar" unicode="|" horiz-adv-x="542" 
d="M184 -440v2078h174v-2078h-174z" />
    <glyph glyph-name="braceright" unicode="}" horiz-adv-x="591" 
d="M145 88v307q0 162 172 207v6q-172 45 -172 207v307q0 124 -3 180q-3 58 -25 113q-21 57 -66 80l78 55q97 -39 153 -110q56 -72 71 -142q16 -68 16 -176v-358q0 -44 24 -67q25 -21 107 -58v-68q-82 -37 -107 -58q-24 -21 -24 -67v-358q0 -106 -16 -176q-15 -70 -71 -142
q-56 -71 -153 -110l-78 55q63 33 78 113q16 77 16 260z" />
    <glyph glyph-name="asciitilde" unicode="~" horiz-adv-x="1046" 
d="M846 623h98q-18 -114 -96 -184q-77 -70 -164 -70q-72 0 -135 36q-72 44 -112 73q-50 36 -95 36q-47 0 -85.5 -30t-53.5 -74h-101q27 110 100 177q74 68 173 68q87 0 179 -63q92 -62 157 -62q90 0 135 93z" />
    <glyph glyph-name="exclamdown" unicode="&#xa1;" horiz-adv-x="518" 
d="M123 1009q41 42 98 42t98 -42q41 -43 41 -100t-41 -98t-98 -41t-98 41t-41 98t41 100zM215 586h94q5 -196 55 -420q52 -224 52 -272q0 -76 -46 -122t-108 -46q-61 0 -107 46t-46 122q0 46 51 272q50 224 55 420z" />
    <glyph glyph-name="cent" unicode="&#xa2;" horiz-adv-x="1021" 
d="M643 59q163 0 231 150h78q-103 -230 -368 -232q-82 0 -152 21l-31 -123h-94l39 154q-129 62 -207 187q-78 126 -78 302q0 246 150 386q152 140 362 140h29l41 160h94l-43 -172q119 -29 193 -101q74 -71 74 -163q0 -49 -34 -83t-93 -34q-55 0 -88 33t-33 82q0 125 -43 168
l-203 -797q72 -78 176 -78zM356 541q0 -171 45 -293l183 719h-2q-110 0 -169 -116q-57 -115 -57 -310z" />
    <glyph glyph-name="sterling" unicode="&#xa3;" horiz-adv-x="1120" 
d="M989 340h80q-78 -340 -362 -340q-150 0 -254 68q-89 -68 -195 -68q-79 0 -138 46q-59 47 -59 124q0 73 49 119q50 47 128 47q36 0 63 -11q29 -11 66 -37q40 -26 41 -26q16 39 16 100q0 72 -66 162h-258v84h189q-42 51 -69 92q-24 37 -49 102q-24 65 -24 130
q0 166 126 269q127 104 343 104q202 0 321 -110q118 -109 118 -280q0 -81 -40 -131.5t-108 -50.5q-60 0 -95.5 30.5t-35.5 78.5q0 27 12 63q13 36 13 70q0 244 -185 244q-87 0 -139.5 -65.5t-52.5 -180.5q0 -69 17 -147q4 -22 23 -64q10 -22 23 -51l29 -56l27 -47h231v-84
h-194q27 -72 26 -143q0 -93 -47 -166q61 -37 152 -37q80 0 156 40q78 41 122 122zM256 55q78 0 111 64q-86 78 -115 86q-9 4 -21 4q-28 0 -46.5 -19t-18.5 -49q0 -36 27 -61t63 -25z" />
    <glyph glyph-name="currency" unicode="&#xa4;" horiz-adv-x="1222" 
d="M1036 467q0 -141 -84 -254l146 -143l-94 -95l-146 144q-118 -80 -250 -80q-135 0 -246 78l-143 -142l-94 95l143 141q-84 113 -84 256q0 140 82 250l-141 139l94 96l141 -141q110 82 248 82q141 0 252 -84l144 143l94 -96l-144 -141q82 -110 82 -248zM610 168
q119 0 205 89t86 210q0 120 -86 208q-85 87 -205 87q-122 0 -204 -87q-82 -86 -82 -208t82 -210q83 -89 204 -89z" />
    <glyph glyph-name="yen" unicode="&#xa5;" horiz-adv-x="1310" 
d="M864 1202v70q212 -10 414 0v-70q-77 -6 -124 -35t-79 -94l-235 -452h215v-103h-258v-65h258v-103h-258v-155q0 -68 32 -94q32 -25 123 -31v-70q-302 10 -600 0v70q91 6 123 31q33 26 33 94v155h-244v103h244v65h-244v103h189l-254 460q-40 73 -68 93q-32 25 -100 28v70
q295 -10 596 0v-70q-85 -6 -108 -36.5t9 -86.5l234 -436l225 432q57 113 -123 127z" />
    <glyph glyph-name="brokenbar" unicode="&#xa6;" horiz-adv-x="542" 
d="M358 924h-174v714h174v-714zM358 -440h-174v714h174v-714z" />
    <glyph glyph-name="dieresis" unicode="&#xa8;" horiz-adv-x="999" 
d="M222 1210q-38 -39 -91 -39t-92 39t-39 92q0 54 39 92q40 38 92 38q53 0 91 -38t38 -92q0 -52 -38 -92zM662 1210q-38 -39 -91 -39t-92 39t-39 92q0 54 39 92q40 38 92 38q53 0 91 -38t38 -92q0 -52 -38 -92z" />
    <glyph glyph-name="copyright" unicode="&#xa9;" horiz-adv-x="1574" 
d="M299 1144q197 195 491 195q296 0 489 -195q194 -194 194 -501q0 -306 -194 -502q-194 -194 -489 -194q-294 0 -491 194q-197 195 -197 502t197 501zM791 1241q-246 0 -407 -167t-161 -431t161 -431t407 -167q244 0 402 167q159 167 159 431q0 265 -159 431
q-159 167 -402 167zM1026 471h104q-64 -105 -77 -201q-33 8 -60 9q-33 0 -86 -14q-49 -13 -102 -13q-177 0 -281 107q-102 108 -102 290q0 170 104 277q105 108 260 108q53 0 109 -13t94 -13q29 0 62 6q26 -129 55 -209h-119q-78 178 -213 178q-82 0 -126 -77t-44 -220
q0 -159 52 -270t149 -111q124 0 221 166z" />
    <glyph glyph-name="ordfeminine" unicode="&#xaa;" horiz-adv-x="733" 
d="M600 1061v-256q0 -31 12 -31q6 0 60 25v-94q-84 -37 -131 -37q-61 0 -88 82q-63 -82 -183 -82q-86 0 -148 41q-61 40 -61 116q0 83 81 138q80 56 294 88v8q0 158 -76 158q-49 0 -69 -20t-27 -77q-2 -24 -30 -39.5t-64 -15.5q-76 0 -76 69q0 71 79 111q80 41 179 41
q130 0 189 -55t59 -170zM301 758q35 0 63 19q29 20 41 38q14 20 31 53v109q-86 -13 -136 -43q-48 -29 -59 -52q-10 -21 -10 -55q0 -69 70 -69zM111 430v123h510v-123h-510z" />
    <glyph glyph-name="guillemotleft" unicode="&#xab;" horiz-adv-x="864" 
d="M61 498v49l375 332l45 -52l-239 -305l239 -305l-45 -51zM383 498v49l375 332l45 -52l-240 -305l240 -305l-45 -51z" />
    <glyph glyph-name="logicalnot" unicode="&#xac;" horiz-adv-x="1103" 
d="M102 780h899v-487h-161v325h-738v162z" />
    <glyph glyph-name="uni00AD" unicode="&#xad;" horiz-adv-x="716" 
d="M82 496v88h553v-88h-553z" />
    <glyph glyph-name="registered" unicode="&#xae;" horiz-adv-x="1574" 
d="M299 1144q197 195 491 195q296 0 489 -195q194 -194 194 -501q0 -306 -194 -502q-194 -194 -489 -194q-294 0 -491 194q-197 195 -197 502t197 501zM791 1241q-246 0 -407 -167t-161 -431t161 -431t407 -167q244 0 402 167q159 167 159 431q0 265 -159 431
q-159 167 -402 167zM895 600l160 -213q39 -53 102 -59l-4 -45h-235q-1 54 -35 100l-150 199h-35v-211q0 -37 76 -43v-45h-323v45q48 4 67 13t19 30v532q0 46 -76 53v43h293q182 0 255 -51q74 -51 74 -149q0 -158 -188 -199zM698 952v-325h33q197 0 197 174q0 76 -35.5 114
t-106.5 37h-88z" />
    <glyph glyph-name="overscore" unicode="&#xaf;" horiz-adv-x="866" 
d="M102 1235v76q0 35 37 35h588q37 0 37 -35v-76q0 -35 -37 -35h-588q-37 0 -37 35z" />
    <glyph glyph-name="degree" unicode="&#xb0;" horiz-adv-x="624" 
d="M149 1230q68 68 164 68q97 0 163 -68q67 -67 67 -167q0 -101 -67 -168q-66 -68 -163 -68q-96 0 -164 68q-67 67 -67 168q0 100 67 167zM385 969q27 37 27 94t-27 94t-74 37t-74 -38q-26 -38 -26 -93t26 -93q27 -38 74 -38t74 37z" />
    <glyph glyph-name="plusminus" unicode="&#xb1;" horiz-adv-x="921" 
d="M512 1104v-307h307v-103h-307v-307h-102v307h-308v103h308v307h102zM819 0h-717v102h717v-102z" />
    <glyph glyph-name="uni00B2" unicode="&#xb2;" horiz-adv-x="555" 
d="M442 930h62l-21 -109q-6 -29 -43 -28h-379q31 154 205 260q94 57 94 114q0 32 -21 53t-52 21q-61 0 -74 -45q-6 -20 0 -44q6 -23 4 -34q-12 -31 -46.5 -36t-63.5 12.5t-27 44.5q0 74 53 124t152 50q91 0 140.5 -41.5t49.5 -114.5q0 -70 -54 -115q-29 -23 -46 -34l-53 -33
q-51 -29 -69 -45q-17 -16 -26 -43h154q33 0 43 16z" />
    <glyph glyph-name="uni00B3" unicode="&#xb3;" horiz-adv-x="567" 
d="M406 1102q100 -33 100 -135q0 -78 -62 -131q-61 -52 -161 -52q-95 0 -154 48q-57 50 -57 114q0 51 55 51q30 0 43 -11q11 -10 16 -41t7 -36q20 -57 88 -57q43 0 70 31q28 30 26 69q2 63 -40 75q-42 14 -95 -15l-31 61l49 23q74 27 74 90q0 59 -66 59q-39 0 -54 -38
t-3 -79l-98 13q-25 10 -25 28q-2 64 49 105t139 41q92 0 141 -40q50 -41 50 -85q0 -60 -61 -88z" />
    <glyph glyph-name="acute" unicode="&#xb4;" horiz-adv-x="1228" 
d="M131 1149l-29 45l281 233q45 37 88 37t69 -39q27 -39 8 -84q-18 -45 -71 -65z" />
    <glyph glyph-name="uni00B5" unicode="&#xb5;" horiz-adv-x="1232" 
d="M1073 983v-737q0 -100 129 -78v-76q-78 -18 -162 -52q-25 -11 -55 -24t-47 -20l-34 -14t-28 -10t-18 -3q-72 0 -61 84l20 168q-155 -252 -352 -252q-105 0 -178 43q9 -69 32 -124.5t47 -79.5q57 -57 54 -80q-11 -75 -78 -115q-68 -41 -130 -17q-62 23 -62 107v1163
q0 36 -14 52t-44 14l-61 -2v80l338 24q57 4 57 -51v-629q0 -132 22 -197q23 -65 99 -65q60 0 118 55q61 56 86 102q27 46 46 89v528q0 36 -14 52t-44 14l-61 -2v80l338 24q57 4 57 -51z" />
    <glyph glyph-name="paragraph" unicode="&#xb6;" horiz-adv-x="1368" 
d="M1276 1272v-90q-34 -6 -50 -12q-42 -14 -42 -56v-1065q0 -37 19.5 -53t72.5 -25v-108h-811v108q73 7 97 25q24 16 24 53v440h-37q-221 0 -360 106q-138 107 -138 286q0 180 138 285q139 106 360 106h727zM545 580h41v589h-41q-240 0 -240 -288q0 -130 55 -215
q56 -86 185 -86zM958 49v1063q0 35 -9.5 46t-37.5 11h-100v-1120q0 -37 16.5 -52t57.5 -15t57 15t16 52z" />
    <glyph glyph-name="middot" unicode="&#xb7;" horiz-adv-x="483" 
d="M319 505q-41 -42 -98 -42t-98 42q-41 43 -41 99q0 57 41 98t98 41t98 -41t41 -98q0 -56 -41 -99z" />
    <glyph glyph-name="cedilla" unicode="&#xb8;" horiz-adv-x="677" 
d="M328 -362q86 0 86 90q0 92 -148 129q-43 12 -43 39q0 14 13 38q4 7 20.5 33.5t22.5 36.5h79l-22 -65q241 -72 239 -191q0 -74 -76 -116q-75 -42 -173 -42q-94 0 -160 32q-64 31 -64 93q0 29 19.5 48.5t50.5 19.5q38 0 56 -21t18 -51t21 -51.5t61 -21.5z" />
    <glyph glyph-name="uni00B9" unicode="&#xb9;" horiz-adv-x="436" 
d="M285 1280v-373q0 -32 59 -37v-67h-248v67q59 5 60 37v293l-64 -20v80l115 51q28 12 53 -1q27 -12 25 -30z" />
    <glyph glyph-name="ordmasculine" unicode="&#xba;" horiz-adv-x="729" 
d="M365 1284q122 -1 213 -86q90 -84 90 -217q0 -137 -91 -224q-90 -87 -212 -87t-213 85t-91 216q0 139 90 225q93 87 214 88zM502 956q0 112 -44 185q-43 73 -104 73q-127 0 -127 -219q0 -111 45 -184q45 -72 109 -72q121 0 121 217zM111 430v123h510v-123h-510z" />
    <glyph glyph-name="guillemotright" unicode="&#xbb;" horiz-adv-x="864" 
d="M106 879l375 -332v-49l-375 -332l-45 51l240 305l-240 305zM428 879l375 -332v-49l-375 -332l-45 51l240 305l-240 305z" />
    <glyph glyph-name="onequarter" unicode="&#xbc;" horiz-adv-x="1335" 
d="M96 803v67q59 5 60 37v293l-64 -20v80l115 51q28 12 53 -1q27 -12 25 -30v-373q0 -32 59 -37v-67h-248zM119 -10l885 1313h159l-884 -1313h-160zM1274 215v-82h-66v-61q0 -37 52 -37v-47h-234v47q49 0 49 37v61h-198v78l245 291q18 23 52 14q34 -7 34 -33v-268h66z" />
    <glyph glyph-name="onehalf" unicode="&#xbd;" horiz-adv-x="1359" 
d="M285 1280v-373q0 -32 59 -37v-67h-248v67q59 5 60 37v293l-64 -20v80l115 51q28 12 53 -1q27 -12 25 -30zM119 -10l885 1313h159l-884 -1313h-160zM1247 125h62l-21 -109q-6 -29 -43 -28h-379q31 154 205 260q94 57 94 114q0 32 -21 53t-52 21q-60 0 -74 -45
q-5 -15 0 -44t4 -34q-12 -31 -46.5 -36t-63.5 12.5t-27 44.5q0 74 53 124t152 50q91 0 140.5 -41.5t49.5 -114.5q0 -70 -55 -115q-29 -24 -45 -33q-24 -15 -54 -34q-49 -27 -69 -44q-18 -16 -25 -44h154q33 0 43 16z" />
    <glyph glyph-name="threequarters" unicode="&#xbe;" horiz-adv-x="1431" 
d="M506 967q0 -78 -62 -131q-61 -52 -161 -52q-95 0 -154 48q-57 50 -57 114q0 51 55 51q30 0 43 -11q11 -10 16 -41t7 -36q20 -57 88 -57q43 0 70 31q28 30 26 69q2 63 -40 75q-42 14 -95 -15l-31 61l49 23q74 27 74 90q0 59 -66 59q-39 0 -54 -38t-3 -79l-98 13
q-25 10 -25 28q-2 64 49 105t139 41q92 0 141 -40q50 -41 50 -85q0 -60 -61 -88q100 -33 100 -135zM256 -10l885 1313h159l-884 -1313h-160zM1370 215v-82h-65v-61q0 -37 51 -37v-47h-234v47q49 0 49 37v61h-198v78l246 291q18 23 52 14q34 -7 34 -33v-268h65z" />
    <glyph glyph-name="questiondown" unicode="&#xbf;" horiz-adv-x="1011" 
d="M430 1009q40 42 98 42t99 -42q41 -43 41 -100t-41 -98t-99 -41q-57 0 -98 41t-41 98t41 100zM485 674h84q22 -129 -63 -242l-75 -100q-93 -124 -93 -277q0 -117 48 -182.5t134 -65.5t132 60t46 168q0 50 -13 89t-13 60q0 51 34.5 83t90.5 32q71 0 112 -56t41 -147
q0 -160 -117 -265q-115 -105 -317 -105q-211 0 -329 97q-117 97 -117 251q0 153 134 261q58 47 117 90q146 108 164 249z" />
    <glyph glyph-name="Agrave" unicode="&#xc0;" 
d="M897 1395l-346 127q-52 19 -72 65q-18 45 8 84q27 39 70 39t88 -37l281 -233zM786 1282l379 -1022q40 -105 79 -143q41 -40 136 -47v-70q-311 8 -620 0v70q96 6 128 31t9 83l-82 226h-405l-74 -226q-18 -55 33 -81.5t174 -32.5v-70q-262 10 -523 0v70q102 7 155 40
q51 32 77 105l366 1067h168zM602 991l-166 -504h350z" />
    <glyph glyph-name="Aacute" unicode="&#xc1;" 
d="M850 1522l-346 -127l-29 45l281 233q45 37 88 37t69 -39q27 -39 8 -84q-18 -45 -71 -65zM786 1282l379 -1022q40 -105 79 -143q41 -40 136 -47v-70q-311 8 -620 0v70q96 6 128 31t9 83l-82 226h-405l-74 -226q-18 -55 33 -81.5t174 -32.5v-70q-262 10 -523 0v70
q102 7 155 40q51 32 77 105l366 1067h168zM602 991l-166 -504h350z" />
    <glyph glyph-name="Acircumflex" unicode="&#xc2;" 
d="M977 1319l-277 217l-278 -217l-47 41l303 340h43l303 -340zM786 1282l379 -1022q40 -105 79 -143q41 -40 136 -47v-70q-311 8 -620 0v70q96 6 128 31t9 83l-82 226h-405l-74 -226q-18 -55 33 -81.5t174 -32.5v-70q-262 10 -523 0v70q102 7 155 40q51 32 77 105l366 1067
h168zM602 991l-166 -504h350z" />
    <glyph glyph-name="Atilde" unicode="&#xc3;" 
d="M403 1454h-79q-32 104 27 172t165 68q93 0 220 -59q125 -58 179 -58q39 0 60.5 24.5t15.5 53.5h84q35 -111 -27 -179q-61 -67 -157 -67q-91 0 -222 63q-129 64 -190 64q-45 0 -65 -29q-19 -27 -11 -53zM786 1282l379 -1022q40 -105 79 -143q41 -40 136 -47v-70
q-311 8 -620 0v70q96 6 128 31t9 83l-82 226h-405l-74 -226q-18 -55 33 -81.5t174 -32.5v-70q-262 10 -523 0v70q102 7 155 40q51 32 77 105l366 1067h168zM602 991l-166 -504h350z" />
    <glyph glyph-name="Adieresis" unicode="&#xc4;" 
d="M572 1456q-38 -39 -91 -39t-92 39t-39 92q0 54 39 91q40 38 92 38q53 0 91 -38t38 -91q0 -52 -38 -92zM1013 1456q-37 -39 -92 -39q-53 0 -92 39q-38 40 -38 92q0 53 38 91q40 38 92 38q54 0 92 -38t38 -91q0 -52 -38 -92zM786 1282l379 -1022q40 -105 79 -143
q41 -40 136 -47v-70q-311 8 -620 0v70q96 6 128 31t9 83l-82 226h-405l-74 -226q-18 -55 33 -81.5t174 -32.5v-70q-262 10 -523 0v70q102 7 155 40q51 32 77 105l366 1067h168zM602 991l-166 -504h350z" />
    <glyph glyph-name="Aring" unicode="&#xc5;" 
d="M811 1429q-45 -45 -111 -45q-65 0 -110 45q-45 47 -45 111q0 66 45 110q46 44 110 44q65 0 111 -44q45 -44 45 -110q0 -64 -45 -111zM625 1540q0 -31 22.5 -54.5t52.5 -23.5q31 0 53.5 23.5t22.5 54.5q0 30 -23 53t-53 23t-52.5 -23t-22.5 -53zM786 1282l379 -1022
q40 -105 79 -143q41 -40 136 -47v-70q-311 8 -620 0v70q96 6 128 31t9 83l-82 226h-405l-74 -226q-18 -55 33 -81.5t174 -32.5v-70q-262 10 -523 0v70q102 7 155 40q51 32 77 105l366 1067h168zM602 991l-166 -504h350z" />
    <glyph glyph-name="AE" unicode="&#xc6;" horiz-adv-x="2039" 
d="M1831 219l78 137h69q-60 -178 -65 -356q-481 12 -942 0v70q86 6 116 27q31 22 31 75v260h-553l-203 -248q-29 -35 -5 -59t102 -37q30 -5 84 -10v-78q-260 11 -523 0v78q99 6 148 37q48 30 106 100l795 973q-31 8 -98 14v70h905q19 0 25 -7t10 -30l33 -244h-66l-23 45
q-46 93 -97 127q-53 35 -163 35h-137q-51 0 -51 -55v-443h219q74 0 106 30q33 30 52 97h57q-13 -173 0 -342h-57q-18 70 -51 100q-32 31 -107 31h-219v-444q0 -53 18 -72.5t66 -19.5h68q113 0 170 30q57 32 102 109zM1118 1108l-485 -594h485v594z" />
    <glyph glyph-name="Ccedilla" unicode="&#xc7;" horiz-adv-x="1265" 
d="M717 -31q-29 0 -53 2l-11 -32q240 -72 240 -191q0 -74 -76 -116q-77 -42 -174 -42q-94 0 -160 32q-63 32 -63 93q0 29 19.5 48.5t49.5 19.5q38 0 56 -21t18 -51t21 -51.5t61 -21.5q86 0 86 90q0 92 -147 129q-43 12 -43 39q0 13 43 86q-235 44 -373 224
q-139 181 -139 441q0 294 174 475q174 183 448 183q80 0 171 -25t153 -25q49 0 100 15q20 -201 84 -357h-139q-136 302 -369 304q-155 0 -236 -128t-81 -378q0 -285 104 -467q105 -181 299 -181q116 0 206.5 70.5t139.5 212.5h99q-40 -159 -165 -269q-124 -108 -343 -108z
" />
    <glyph glyph-name="Egrave" unicode="&#xc8;" horiz-adv-x="1120" 
d="M752 1395l-346 127q-52 19 -72 65q-19 45 8 84t70 39t88 -37l280 -233zM911 219l78 137h70q-61 -181 -66 -356q-481 12 -942 0v70q85 6 117 27q31 22 31 75v948q0 43 -31 59q-33 17 -117 23v70h905q19 0 25 -7t10 -30l33 -244h-66l-22 45q-45 92 -98 127t-162 35h-137
q-51 0 -52 -55v-443h220q75 0 106 30q33 30 51 97h58q-14 -173 0 -342h-58q-18 70 -51 100q-32 31 -106 31h-220v-444q0 -53 18 -72.5t66 -19.5h68q113 0 170 30q57 32 102 109z" />
    <glyph glyph-name="Eacute" unicode="&#xc9;" horiz-adv-x="1120" 
d="M705 1522l-347 -127l-28 45l280 233q45 37 88 37t70 -39t8 -84q-18 -45 -71 -65zM911 219l78 137h70q-61 -181 -66 -356q-481 12 -942 0v70q85 6 117 27q31 22 31 75v948q0 43 -31 59q-33 17 -117 23v70h905q19 0 25 -7t10 -30l33 -244h-66l-22 45q-45 92 -98 127
t-162 35h-137q-51 0 -52 -55v-443h220q75 0 106 30q33 30 51 97h58q-14 -173 0 -342h-58q-18 70 -51 100q-32 31 -106 31h-220v-444q0 -53 18 -72.5t66 -19.5h68q113 0 170 30q57 32 102 109z" />
    <glyph glyph-name="Ecircumflex" unicode="&#xca;" horiz-adv-x="1120" 
d="M831 1319l-276 217l-279 -217l-47 41l303 340h43l304 -340zM911 219l78 137h70q-61 -181 -66 -356q-481 12 -942 0v70q85 6 117 27q31 22 31 75v948q0 43 -31 59q-33 17 -117 23v70h905q19 0 25 -7t10 -30l33 -244h-66l-22 45q-45 92 -98 127t-162 35h-137q-51 0 -52 -55
v-443h220q75 0 106 30q33 30 51 97h58q-14 -173 0 -342h-58q-18 70 -51 100q-32 31 -106 31h-220v-444q0 -53 18 -72.5t66 -19.5h68q113 0 170 30q57 32 102 109z" />
    <glyph glyph-name="Edieresis" unicode="&#xcb;" horiz-adv-x="1120" 
d="M427 1456q-37 -39 -91 -39q-53 0 -92 39t-39 92q0 54 39 91q40 38 92 38q53 0 91 -38t38 -91q0 -52 -38 -92zM867 1456q-37 -39 -91 -39q-53 0 -92 39t-39 92q0 54 39 91q40 38 92 38q53 0 91 -38t38 -91q0 -52 -38 -92zM911 219l78 137h70q-61 -181 -66 -356
q-481 12 -942 0v70q85 6 117 27q31 22 31 75v948q0 43 -31 59q-33 17 -117 23v70h905q19 0 25 -7t10 -30l33 -244h-66l-22 45q-45 92 -98 127t-162 35h-137q-51 0 -52 -55v-443h220q75 0 106 30q33 30 51 97h58q-14 -173 0 -342h-58q-18 70 -51 100q-32 31 -106 31h-220
v-444q0 -53 18 -72.5t66 -19.5h68q113 0 170 30q57 32 102 109z" />
    <glyph glyph-name="Igrave" unicode="&#xcc;" horiz-adv-x="694" 
d="M293 1673l280 -233l-28 -45l-346 127q-52 19 -72 65q-18 45 8 84q27 39 70 39t88 -37zM492 1100v-928q0 -53 32 -74.5t119 -27.5v-70q-295 10 -592 0v70q87 6 119.5 27.5t32.5 74.5v928q0 53 -32.5 74.5t-119.5 27.5v70q297 -10 592 0v-70q-87 -6 -119 -27.5t-32 -74.5z
" />
    <glyph glyph-name="Iacute" unicode="&#xcd;" horiz-adv-x="694" 
d="M152 1395l-29 45l280 233q45 37 88.5 37t69.5 -39q27 -39 8 -84q-18 -45 -71 -65zM492 1100v-928q0 -53 32 -74.5t119 -27.5v-70q-295 10 -592 0v70q87 6 119.5 27.5t32.5 74.5v928q0 53 -32.5 74.5t-119.5 27.5v70q297 -10 592 0v-70q-87 -6 -119 -27.5t-32 -74.5z" />
    <glyph glyph-name="Icircumflex" unicode="&#xce;" horiz-adv-x="694" 
d="M326 1700h43l303 -340l-47 -41l-277 217l-278 -217l-47 41zM492 1100v-928q0 -53 32 -74.5t119 -27.5v-70q-295 10 -592 0v70q87 6 119.5 27.5t32.5 74.5v928q0 53 -32.5 74.5t-119.5 27.5v70q297 -10 592 0v-70q-87 -6 -119 -27.5t-32 -74.5z" />
    <glyph glyph-name="Idieresis" unicode="&#xcf;" horiz-adv-x="694" 
d="M220 1456q-38 -39 -91 -39t-92 39t-39 92q0 54 39 91q40 38 92 38q53 0 91 -38t38 -91q0 -52 -38 -92zM660 1456q-38 -39 -91 -39t-92 39t-39 92q0 54 39 91q40 38 92 38q53 0 91 -38t38 -91q0 -52 -38 -92zM492 1100v-928q0 -53 32 -74.5t119 -27.5v-70q-295 10 -592 0
v70q87 6 119.5 27.5t32.5 74.5v928q0 53 -32.5 74.5t-119.5 27.5v70q297 -10 592 0v-70q-87 -6 -119 -27.5t-32 -74.5z" />
    <glyph glyph-name="Eth" unicode="&#xd0;" horiz-adv-x="1357" 
d="M590 1272q322 0 506 -154q184 -153 184 -481q0 -151 -44 -271q-43 -117 -108 -185q-62 -64 -146 -109q-140 -72 -277 -72q-41 0 -162 17q-117 18 -193 18q-87 0 -299 -35v70q84 18 116 38q32 21 32 68v404h-148v112h148v404q0 53 -30 76.5t-106 29.5v70q18 -6 271 -3
q254 3 256 3zM618 80q342 0 343 549q0 276 -96.5 422.5t-286.5 146.5q-54 0 -91 -4v-502h152v-112h-152v-402q0 -98 131 -98z" />
    <glyph glyph-name="Ntilde" unicode="&#xd1;" horiz-adv-x="1359" 
d="M971 1655h84q35 -111 -27 -179q-61 -67 -158 -67q-92 0 -222 63q-129 64 -189 64q-45 0 -65 -29q-19 -27 -11 -53h-80q-32 104 27 172t166 68q93 0 220 -59q125 -58 179 -58q39 0 60.5 24.5t15.5 53.5zM803 1202v70q276 -10 526 0v-70q-106 -9 -156.5 -36.5t-50.5 -88.5
v-1077h-88l-704 1020v-825q0 -61 54 -88.5t173 -36.5v-70q-279 10 -526 0v70q106 9 155.5 36.5t49.5 88.5v854q0 69 -48 108t-135 45v70q221 -11 443 0l532 -778v583q0 61 -54 88.5t-171 36.5z" />
    <glyph glyph-name="Ograve" unicode="&#xd2;" horiz-adv-x="1361" 
d="M627 1673l280 -233l-28 -45l-347 127q-52 19 -72 65q-18 45 9 84t70 39t88 -37zM680 1305q266 0 438 -187q172 -185 172 -489q0 -286 -173 -474q-173 -186 -435 -186q-266 0 -438 186q-172 187 -172 490q0 286 173 473q172 187 435 187zM715 55q123 0 196 133
q74 134 74 387q0 275 -94 459q-95 185 -244 185q-123 0 -197 -134q-73 -133 -73 -387q0 -275 94 -459t244 -184z" />
    <glyph glyph-name="Oacute" unicode="&#xd3;" horiz-adv-x="1361" 
d="M485 1395l-28 45l280 233q45 37 88 37t70 -39t8 -84q-18 -46 -72 -65zM680 1305q266 0 438 -187q172 -185 172 -489q0 -286 -173 -474q-173 -186 -435 -186q-266 0 -438 186q-172 187 -172 490q0 286 173 473q172 187 435 187zM715 55q123 0 196 133q74 134 74 387
q0 275 -94 459q-95 185 -244 185q-123 0 -197 -134q-73 -133 -73 -387q0 -275 94 -459t244 -184z" />
    <glyph glyph-name="Ocircumflex" unicode="&#xd4;" horiz-adv-x="1361" 
d="M659 1700h43l304 -340l-48 -41l-276 217l-279 -217l-47 41zM680 1305q266 0 438 -187q172 -185 172 -489q0 -286 -173 -474q-173 -186 -435 -186q-266 0 -438 186q-172 187 -172 490q0 286 173 473q172 187 435 187zM715 55q123 0 196 133q74 134 74 387q0 275 -94 459
q-95 185 -244 185q-123 0 -197 -134q-73 -133 -73 -387q0 -275 94 -459t244 -184z" />
    <glyph glyph-name="Otilde" unicode="&#xd5;" horiz-adv-x="1361" 
d="M973 1655h84q35 -111 -27 -179q-61 -67 -158 -67q-92 0 -222 63q-129 64 -189 64q-45 0 -65 -29q-19 -27 -11 -53h-80q-32 104 27 172t166 68q93 0 220 -59q125 -58 179 -58q39 0 60.5 24.5t15.5 53.5zM680 1305q266 0 438 -187q172 -185 172 -489q0 -286 -173 -474
q-173 -186 -435 -186q-266 0 -438 186q-172 187 -172 490q0 286 173 473q172 187 435 187zM715 55q123 0 196 133q74 134 74 387q0 275 -94 459q-95 185 -244 185q-123 0 -197 -134q-73 -133 -73 -387q0 -275 94 -459t244 -184z" />
    <glyph glyph-name="Odieresis" unicode="&#xd6;" horiz-adv-x="1361" 
d="M554 1456q-38 -39 -91 -39t-92 39t-39 92q0 54 39 91q40 38 92 38q53 0 91 -38t38 -91q0 -52 -38 -92zM994 1456q-38 -39 -91 -39t-92 39t-39 92q0 54 39 91q40 38 92 38q53 0 91 -38t38 -91q0 -52 -38 -92zM680 1305q266 0 438 -187q172 -185 172 -489q0 -286 -173 -474
q-173 -186 -435 -186q-266 0 -438 186q-172 187 -172 490q0 286 173 473q172 187 435 187zM715 55q123 0 196 133q74 134 74 387q0 275 -94 459q-95 185 -244 185q-123 0 -197 -134q-73 -133 -73 -387q0 -275 94 -459t244 -184z" />
    <glyph glyph-name="multiply" unicode="&#xd7;" horiz-adv-x="868" 
d="M651 848l115 -115l-217 -217l217 -219l-115 -115l-217 217l-217 -217l-115 115l217 219l-217 217l115 115l217 -217z" />
    <glyph glyph-name="Oslash" unicode="&#xd8;" horiz-adv-x="1361" 
d="M1200 1206l-74 -98q164 -187 164 -479q0 -286 -173 -474q-173 -186 -435 -186q-192 0 -340 101l-76 -101l-123 99l82 108q-154 186 -153 469q0 286 173 473q172 187 435 187q182 0 328 -93l69 93zM377 698q0 -156 31 -280l475 631q-92 170 -236 170q-123 0 -197 -134
q-73 -133 -73 -387zM715 55q123 0 196 133q74 134 74 387q0 162 -35 299l-479 -634q98 -185 244 -185z" />
    <glyph glyph-name="Ugrave" unicode="&#xd9;" horiz-adv-x="1468" 
d="M952 1395l-346 127q-52 19 -72 65q-18 45 8 84q27 39 70 39t88 -37l281 -233zM1438 1272v-70q-87 -6 -119.5 -27.5t-32.5 -74.5v-946q0 -39 34.5 -58.5t117.5 -25.5v-70q-274 7 -473 0v70q33 23 32 108v45q-129 -245 -405 -243q-190 0 -300 111q-110 113 -110 296v713
q0 53 -32 74.5t-119 27.5v70q297 -10 592 0v-70q-87 -6 -119.5 -27.5t-32.5 -74.5v-711q0 -153 55.5 -234t161.5 -81q110 0 187 76q78 75 122 186v764q0 53 -32 74.5t-119 27.5v70q297 -10 592 0z" />
    <glyph glyph-name="Uacute" unicode="&#xda;" horiz-adv-x="1468" 
d="M905 1522l-346 -127l-29 45l281 233q45 37 88 37t69 -39q27 -39 8 -84q-18 -45 -71 -65zM1438 1272v-70q-87 -6 -119.5 -27.5t-32.5 -74.5v-946q0 -39 34.5 -58.5t117.5 -25.5v-70q-274 7 -473 0v70q33 23 32 108v45q-129 -245 -405 -243q-190 0 -300 111
q-110 113 -110 296v713q0 53 -32 74.5t-119 27.5v70q297 -10 592 0v-70q-87 -6 -119.5 -27.5t-32.5 -74.5v-711q0 -153 55.5 -234t161.5 -81q110 0 187 76q78 75 122 186v764q0 53 -32 74.5t-119 27.5v70q297 -10 592 0z" />
    <glyph glyph-name="Ucircumflex" unicode="&#xdb;" horiz-adv-x="1468" 
d="M1032 1319l-276 217l-279 -217l-47 41l303 340h43l303 -340zM1438 1272v-70q-87 -6 -119.5 -27.5t-32.5 -74.5v-946q0 -39 34.5 -58.5t117.5 -25.5v-70q-274 7 -473 0v70q33 23 32 108v45q-129 -245 -405 -243q-190 0 -300 111q-110 113 -110 296v713q0 53 -32 74.5
t-119 27.5v70q297 -10 592 0v-70q-87 -6 -119.5 -27.5t-32.5 -74.5v-711q0 -153 55.5 -234t161.5 -81q110 0 187 76q78 75 122 186v764q0 53 -32 74.5t-119 27.5v70q297 -10 592 0z" />
    <glyph glyph-name="Udieresis" unicode="&#xdc;" horiz-adv-x="1468" 
d="M628 1456q-38 -39 -92 -39q-53 0 -92 39q-38 40 -38 92q0 53 38 91q40 38 92 38q54 0 92 -38t38 -91q0 -52 -38 -92zM1068 1456q-38 -39 -91 -39t-92 39t-39 92q0 54 39 91q40 38 92 38q53 0 91 -38t38 -91q0 -52 -38 -92zM1438 1272v-70q-87 -6 -119.5 -27.5
t-32.5 -74.5v-946q0 -39 34.5 -58.5t117.5 -25.5v-70q-274 7 -473 0v70q33 23 32 108v45q-129 -245 -405 -243q-190 0 -300 111q-110 113 -110 296v713q0 53 -32 74.5t-119 27.5v70q297 -10 592 0v-70q-87 -6 -119.5 -27.5t-32.5 -74.5v-711q0 -153 55.5 -234t161.5 -81
q110 0 187 76q78 75 122 186v764q0 53 -32 74.5t-119 27.5v70q297 -10 592 0z" />
    <glyph glyph-name="Yacute" unicode="&#xdd;" horiz-adv-x="1308" 
d="M801 1522l-346 -127l-29 45l281 233q45 37 88 37t69 -39q27 -39 8 -84q-18 -45 -71 -65zM864 1202v70q212 -10 414 0v-70q-77 -6 -124 -35t-79 -94l-278 -536v-342q0 -68 32 -94q32 -25 123 -31v-70q-302 10 -600 0v70q91 6 123 31q33 26 33 94v323l-309 563
q-40 73 -68 93q-32 25 -100 28v70q295 -10 596 0v-70q-85 -6 -108 -36.5t9 -86.5l234 -436l225 432q57 113 -123 127z" />
    <glyph glyph-name="Thorn" unicode="&#xde;" horiz-adv-x="1193" 
d="M588 254h-96v-82q0 -53 32 -74.5t119 -27.5v-70q-295 10 -592 0v70q87 6 119.5 27.5t32.5 74.5v928q0 53 -32.5 74.5t-119.5 27.5v70q297 -10 592 0v-70q-87 -6 -119 -27.5t-32 -74.5v-74h96q251 0 403 -104t152 -283q0 -178 -152 -282q-151 -103 -403 -103zM596 938
h-104v-596h104q140 0 204 81q66 81 66 216t-66 217q-64 82 -204 82z" />
    <glyph glyph-name="germandbls" unicode="&#xdf;" horiz-adv-x="1243" 
d="M477 606v-397q0 -103 -50 -156t-138 -53h-248v70q86 6 116 27q31 22 31 75v731q0 186 106.5 277.5t336.5 91.5t331 -88q103 -88 103 -217q0 -197 -203 -265q340 -55 340 -335q0 -367 -555 -367h-41v74h37q128 0 197 70t69 202q0 135 -77.5 208t-221.5 73zM477 922v-236
l45 6q143 18 206 75q63 59 63 189q0 236 -162 236q-83 0 -117.5 -66t-34.5 -204z" />
    <glyph glyph-name="agrave" unicode="&#xe0;" horiz-adv-x="1107" 
d="M737 1149l-346 127q-52 19 -72 65q-18 45 8 84q27 39 70 39t88 -37l281 -233zM938 739v-510q0 -127 129 -137v-72q-166 -5 -346 -47q-37 13 -51 52l10 135h-16q-30 -52 -97 -110q-89 -77 -223 -77q-122 0 -207 66q-86 68 -86 201q0 142 133 230q134 89 478 165v108
q0 132 -28 181q-28 51 -106 51q-64 0 -101 -31t-47 -81q-2 -8 -6.5 -33.5t-6.5 -36t-8 -33t-12 -33t-17 -26.5t-24 -23t-31.5 -13t-41.5 -6q-61 0 -91 27t-29 82q0 116 140 196t355 80q162 0 246 -66q84 -64 84 -239zM461 94q70 0 123 56q52 57 78 116v307
q-216 -55 -281 -156q-51 -80 -51 -155q0 -76 36 -122t95 -46z" />
    <glyph glyph-name="aacute" unicode="&#xe1;" horiz-adv-x="1107" 
d="M690 1276l-346 -127l-29 45l281 233q45 37 88 37t69 -39q27 -39 8 -84q-18 -45 -71 -65zM938 739v-510q0 -127 129 -137v-72q-166 -5 -346 -47q-37 13 -51 52l10 135h-16q-30 -52 -97 -110q-89 -77 -223 -77q-122 0 -207 66q-86 68 -86 201q0 142 133 230q134 89 478 165
v108q0 132 -28 181q-28 51 -106 51q-64 0 -101 -31t-47 -81q-2 -8 -6.5 -33.5t-6.5 -36t-8 -33t-12 -33t-17 -26.5t-24 -23t-31.5 -13t-41.5 -6q-61 0 -91 27t-29 82q0 116 140 196t355 80q162 0 246 -66q84 -64 84 -239zM461 94q70 0 123 56q52 57 78 116v307
q-216 -55 -281 -156q-51 -80 -51 -155q0 -76 36 -122t95 -46z" />
    <glyph glyph-name="acircumflex" unicode="&#xe2;" horiz-adv-x="1107" 
d="M817 1073l-276 217l-279 -217l-47 41l303 340h43l303 -340zM938 739v-510q0 -127 129 -137v-72q-166 -5 -346 -47q-37 13 -51 52l10 135h-16q-30 -52 -97 -110q-89 -77 -223 -77q-122 0 -207 66q-86 68 -86 201q0 142 133 230q134 89 478 165v108q0 132 -28 181
q-28 51 -106 51q-64 0 -101 -31t-47 -81q-2 -8 -6.5 -33.5t-6.5 -36t-8 -33t-12 -33t-17 -26.5t-24 -23t-31.5 -13t-41.5 -6q-61 0 -91 27t-29 82q0 116 140 196t355 80q162 0 246 -66q84 -64 84 -239zM461 94q70 0 123 56q52 57 78 116v307q-216 -55 -281 -156
q-51 -80 -51 -155q0 -76 36 -122t95 -46z" />
    <glyph glyph-name="atilde" unicode="&#xe3;" horiz-adv-x="1107" 
d="M244 1208h-80q-32 104 27 172t165 68q93 0 220 -59q125 -58 180 -58q39 0 60.5 24.5t14.5 53.5h84q35 -111 -27 -179q-61 -67 -157 -67q-91 0 -222 63q-129 64 -190 64q-44 0 -64 -29q-19 -27 -11 -53zM938 739v-510q0 -127 129 -137v-72q-166 -5 -346 -47q-37 13 -51 52
l10 135h-16q-30 -52 -97 -110q-89 -77 -223 -77q-122 0 -207 66q-86 68 -86 201q0 142 133 230q134 89 478 165v108q0 132 -28 181q-28 51 -106 51q-64 0 -101 -31t-47 -81q-2 -8 -6.5 -33.5t-6.5 -36t-8 -33t-12 -33t-17 -26.5t-24 -23t-31.5 -13t-41.5 -6q-61 0 -91 27
t-29 82q0 116 140 196t355 80q162 0 246 -66q84 -64 84 -239zM461 94q70 0 123 56q52 57 78 116v307q-216 -55 -281 -156q-51 -80 -51 -155q0 -76 36 -122t95 -46z" />
    <glyph glyph-name="adieresis" unicode="&#xe4;" horiz-adv-x="1107" 
d="M413 1210q-38 -39 -92 -39q-53 0 -92 39t-39 92q0 54 39 92q40 38 92 38q54 0 92 -38t38 -92q0 -52 -38 -92zM853 1210q-37 -39 -91 -39q-53 0 -92 39t-39 92q0 54 39 92q40 38 92 38q53 0 91 -38t38 -92q0 -52 -38 -92zM938 739v-510q0 -127 129 -137v-72
q-166 -5 -346 -47q-37 13 -51 52l10 135h-16q-30 -52 -97 -110q-89 -77 -223 -77q-122 0 -207 66q-86 68 -86 201q0 142 133 230q134 89 478 165v108q0 132 -28 181q-28 51 -106 51q-64 0 -101 -31t-47 -81q-2 -8 -6.5 -33.5t-6.5 -36t-8 -33t-12 -33t-17 -26.5t-24 -23
t-31.5 -13t-41.5 -6q-61 0 -91 27t-29 82q0 116 140 196t355 80q162 0 246 -66q84 -64 84 -239zM461 94q70 0 123 56q52 57 78 116v307q-216 -55 -281 -156q-51 -80 -51 -155q0 -76 36 -122t95 -46z" />
    <glyph glyph-name="aring" unicode="&#xe5;" horiz-adv-x="1107" 
d="M651 1184q-45 -45 -111 -45q-65 0 -110 45t-45 110q0 66 45 110q46 44 110 44q65 0 111 -44q45 -44 45 -110q0 -65 -45 -110zM465 1294q0 -31 22.5 -54t52.5 -23t53 23.5t23 53.5t-23 53t-53 23t-52.5 -23t-22.5 -53zM938 739v-510q0 -127 129 -137v-72q-166 -5 -346 -47
q-37 13 -51 52l10 135h-16q-30 -52 -97 -110q-89 -77 -223 -77q-122 0 -207 66q-86 68 -86 201q0 142 133 230q134 89 478 165v108q0 132 -28 181q-28 51 -106 51q-64 0 -101 -31t-47 -81q-2 -8 -6.5 -33.5t-6.5 -36t-8 -33t-12 -33t-17 -26.5t-24 -23t-31.5 -13t-41.5 -6
q-61 0 -91 27t-29 82q0 116 140 196t355 80q162 0 246 -66q84 -64 84 -239zM461 94q70 0 123 56q52 57 78 116v307q-216 -55 -281 -156q-51 -80 -51 -155q0 -76 36 -122t95 -46z" />
    <glyph glyph-name="ae" unicode="&#xe6;" horiz-adv-x="1638" 
d="M1243 57q166 0 240 152h78q-103 -230 -377 -232q-113 0 -203 39q-137 -13 -260 -43q-37 13 -51 52l10 135h-16q-30 -52 -97 -110q-89 -77 -223 -77q-122 0 -207 66q-86 68 -86 201q0 142 133 230q134 89 478 165v108q0 132 -28 181q-28 51 -106 51q-64 0 -101 -31
t-47 -81q-2 -8 -6.5 -33.5t-6.5 -36t-8 -33t-12 -33t-17 -26.5t-24 -23t-31.5 -13t-41.5 -6q-61 0 -91 27t-29 82q0 116 140 196t355 80q196 0 269 -88q124 88 282 88q183 0 305 -119q121 -118 121 -292q0 -77 -27 -110.5t-92 -33.5h-508q0 -187 70 -309q70 -123 215 -123z
M1157 967q-94 0 -146.5 -106.5t-52.5 -297.5h371q0 203 -41 303.5t-131 100.5zM461 94q70 0 123 56q52 57 78 116v307q-216 -55 -281 -156q-51 -80 -51 -155q0 -76 36 -122t95 -46z" />
    <glyph glyph-name="ccedilla" unicode="&#xe7;" horiz-adv-x="1021" 
d="M643 59q163 0 231 150h78q-103 -230 -368 -232h-9l-14 -38q240 -72 240 -191q0 -74 -76 -116q-77 -42 -174 -42q-94 0 -160 32q-63 32 -63 93q0 29 19.5 48.5t49.5 19.5q38 0 56 -21t18 -51t21 -51.5t61 -21.5q86 0 86 90q0 92 -147 129q-43 12 -43 39q0 16 45 88
q-186 32 -310 170q-123 139 -123 364q0 246 150 386q152 140 362 140q163 0 275 -81q113 -80 113 -195q0 -49 -34 -83t-93 -34q-55 0 -88 33t-33 82q0 54 -8 96q-7 43 -39.5 74t-83.5 31q-110 0 -169 -116q-57 -115 -57 -310q0 -212 71 -348q71 -134 216 -134z" />
    <glyph glyph-name="egrave" unicode="&#xe8;" horiz-adv-x="1038" 
d="M494 1427l280 -233l-29 -45l-346 127q-52 19 -72 65q-18 45 8 84q27 39 70.5 39t88.5 -37zM874 209h78q-103 -230 -377 -232q-217 0 -366 143q-148 144 -148 392q0 250 145 391q146 141 345 141q183 0 305 -119q121 -118 121 -292q0 -77 -27 -110.5t-92 -33.5h-508
q0 -186 69 -309q71 -123 216 -123q165 0 239 152zM350 563h371q0 203 -41 303.5t-131 100.5q-94 0 -146.5 -106.5t-52.5 -297.5z" />
    <glyph glyph-name="eacute" unicode="&#xe9;" horiz-adv-x="1038" 
d="M352 1149l-28 45l280 233q45 37 88 37t69 -39q27 -39 9 -84q-18 -46 -72 -65zM874 209h78q-103 -230 -377 -232q-217 0 -366 143q-148 144 -148 392q0 250 145 391q146 141 345 141q183 0 305 -119q121 -118 121 -292q0 -77 -27 -110.5t-92 -33.5h-508q0 -186 69 -309
q71 -123 216 -123q165 0 239 152zM350 563h371q0 203 -41 303.5t-131 100.5q-94 0 -146.5 -106.5t-52.5 -297.5z" />
    <glyph glyph-name="ecircumflex" unicode="&#xea;" horiz-adv-x="1038" 
d="M526 1454h43l303 -340l-47 -41l-276 217l-279 -217l-47 41zM874 209h78q-103 -230 -377 -232q-217 0 -366 143q-148 144 -148 392q0 250 145 391q146 141 345 141q183 0 305 -119q121 -118 121 -292q0 -77 -27 -110.5t-92 -33.5h-508q0 -186 69 -309q71 -123 216 -123
q165 0 239 152zM350 563h371q0 203 -41 303.5t-131 100.5q-94 0 -146.5 -106.5t-52.5 -297.5z" />
    <glyph glyph-name="edieresis" unicode="&#xeb;" horiz-adv-x="1038" 
d="M421 1210q-37 -39 -92 -39q-53 0 -92 39q-38 40 -38 92q0 54 38 92q40 38 92 38q54 0 92 -38t38 -92q0 -52 -38 -92zM861 1210q-37 -39 -91 -39q-53 0 -92 39t-39 92q0 54 39 92q40 38 92 38q53 0 91 -38t38 -92q0 -52 -38 -92zM874 209h78q-103 -230 -377 -232
q-217 0 -366 143q-148 144 -148 392q0 250 145 391q146 141 345 141q183 0 305 -119q121 -118 121 -292q0 -77 -27 -110.5t-92 -33.5h-508q0 -186 69 -309q71 -123 216 -123q165 0 239 152zM350 563h371q0 203 -41 303.5t-131 100.5q-94 0 -146.5 -106.5t-52.5 -297.5z" />
    <glyph glyph-name="igrave" unicode="&#xec;" horiz-adv-x="612" 
d="M252 1427l280 -233l-28 -45l-346 127q-52 19 -72 65q-18 45 8 84q27 39 70 39t88 -37zM442 702v-557q0 -61 129 -75v-70q-264 11 -530 0v70q125 14 125 75v615q0 58 -30.5 79t-92.5 11v70q211 38 358 127q37 -17 54 -54q-11 -80 -13 -291z" />
    <glyph glyph-name="iacute" unicode="&#xed;" horiz-adv-x="612" 
d="M111 1149l-29 45l280 233q45 37 88.5 37t69.5 -39q27 -39 8 -84q-18 -45 -71 -65zM442 702v-557q0 -61 129 -75v-70q-264 11 -530 0v70q125 14 125 75v615q0 58 -30.5 79t-92.5 11v70q211 38 358 127q37 -17 54 -54q-11 -80 -13 -291z" />
    <glyph glyph-name="icircumflex" unicode="&#xee;" horiz-adv-x="612" 
d="M285 1454h43l303 -340l-47 -41l-277 217l-278 -217l-47 41zM442 702v-557q0 -61 129 -75v-70q-264 11 -530 0v70q125 14 125 75v615q0 58 -30.5 79t-92.5 11v70q211 38 358 127q37 -17 54 -54q-11 -80 -13 -291z" />
    <glyph glyph-name="idieresis" unicode="&#xef;" horiz-adv-x="612" 
d="M179 1210q-38 -39 -91 -39t-92 39t-39 92q0 54 39 92q40 38 92 38q53 0 91 -38t38 -92q0 -52 -38 -92zM619 1210q-37 -39 -91 -39q-53 0 -92 39t-39 92q0 54 39 92q40 38 92 38q53 0 91 -38t38 -92q0 -52 -38 -92zM442 702v-557q0 -61 129 -75v-70q-264 11 -530 0v70
q125 14 125 75v615q0 58 -30.5 79t-92.5 11v70q211 38 358 127q37 -17 54 -54q-11 -80 -13 -291z" />
    <glyph glyph-name="eth" unicode="&#xf0;" horiz-adv-x="1216" 
d="M1047 1034v-776q0 -100 129 -78v-88q-80 -18 -161 -52q-25 -11 -55 -24t-47 -20t-34.5 -14t-28.5 -10t-19 -3q-72 0 -61 80l12 96q-59 -176 -268 -176q-172 0 -313 148q-140 149 -140 409q0 234 139 374q139 142 310 142q166 0 260 -141v186q0 49 -10 89l-260 -72v76
l225 61q-61 66 -225 31v78q197 53 319 46t172 -83l148 41v-76l-117 -31q25 -81 25 -213zM770 276v533q-39 61 -98 104q-60 45 -125 45q-187 0 -189 -356q0 -245 62 -396q63 -149 170 -149q75 0 121 64q47 65 59 155z" />
    <glyph glyph-name="ntilde" unicode="&#xf1;" horiz-adv-x="1243" 
d="M911 1409h84q35 -111 -27 -179q-61 -67 -157 -67q-91 0 -222 63q-129 64 -190 64q-45 0 -65 -29q-19 -28 -10 -53h-80q-32 104 27 172t165 68q93 0 220 -59q125 -58 180 -58q39 0 60.5 24.5t14.5 53.5zM1083 688v-543q0 -61 129 -75v-70q-266 8 -534 0v70q129 10 129 75
v543q0 230 -152 232q-86 0 -145 -65q-60 -66 -76 -132v-578q0 -66 129 -75v-70q-266 8 -532 0v70q127 13 127 75v615q0 113 -125 92v70q201 40 346 127q36 -16 53 -54l-31 -184h13q26 49 63 96q41 49 124 94q85 48 183 48q128 0 213 -82q86 -83 86 -279z" />
    <glyph glyph-name="ograve" unicode="&#xf2;" horiz-adv-x="1116" 
d="M504 1427l280 -233l-28 -45l-346 127q-52 19 -72 65q-19 45 8 84t70 39t88 -37zM557 1044q189 0 344 -144q154 -144 154 -392q0 -126 -44 -231t-119 -171q-149 -129 -333 -129q-189 0 -344 144q-154 145 -154 393q0 125 44.5 230.5t118.5 170.5q147 129 333 129zM590 55
q84 0 129 97.5t45 275.5q0 238 -66 388q-64 151 -172 151q-84 0 -129 -97t-45 -274q0 -239 66 -391q66 -150 172 -150z" />
    <glyph glyph-name="oacute" unicode="&#xf3;" horiz-adv-x="1116" 
d="M362 1149l-28 45l280 233q45 37 88 37t70 -39t8 -84q-18 -45 -71 -65zM557 1044q189 0 344 -144q154 -144 154 -392q0 -126 -44 -231t-119 -171q-149 -129 -333 -129q-189 0 -344 144q-154 145 -154 393q0 125 44.5 230.5t118.5 170.5q147 129 333 129zM590 55
q84 0 129 97.5t45 275.5q0 238 -66 388q-64 151 -172 151q-84 0 -129 -97t-45 -274q0 -239 66 -391q66 -150 172 -150z" />
    <glyph glyph-name="ocircumflex" unicode="&#xf4;" horiz-adv-x="1116" 
d="M537 1454h43l303 -340l-47 -41l-277 217l-278 -217l-48 41zM557 1044q189 0 344 -144q154 -144 154 -392q0 -126 -44 -231t-119 -171q-149 -129 -333 -129q-189 0 -344 144q-154 145 -154 393q0 125 44.5 230.5t118.5 170.5q147 129 333 129zM590 55q84 0 129 97.5
t45 275.5q0 238 -66 388q-64 151 -172 151q-84 0 -129 -97t-45 -274q0 -239 66 -391q66 -150 172 -150z" />
    <glyph glyph-name="otilde" unicode="&#xf5;" horiz-adv-x="1116" 
d="M850 1409h84q35 -111 -27 -179q-61 -67 -157 -67q-93 0 -223 63q-129 64 -189 64q-45 0 -65 -29q-19 -27 -11 -53h-80q-32 104 27 172t166 68q93 0 220 -59q125 -58 179 -58q39 0 60.5 24.5t15.5 53.5zM557 1044q189 0 344 -144q154 -144 154 -392q0 -126 -44 -231
t-119 -171q-149 -129 -333 -129q-189 0 -344 144q-154 145 -154 393q0 125 44.5 230.5t118.5 170.5q147 129 333 129zM590 55q84 0 129 97.5t45 275.5q0 238 -66 388q-64 151 -172 151q-84 0 -129 -97t-45 -274q0 -239 66 -391q66 -150 172 -150z" />
    <glyph glyph-name="odieresis" unicode="&#xf6;" horiz-adv-x="1116" 
d="M431 1210q-37 -39 -91 -39q-53 0 -92 39t-39 92q0 54 39 92q40 38 92 38q53 0 91 -38t38 -92q0 -52 -38 -92zM871 1210q-37 -39 -91 -39q-53 0 -92 39t-39 92q0 54 39 92q40 38 92 38q53 0 91 -38t38 -92q0 -52 -38 -92zM557 1044q189 0 344 -144q154 -144 154 -392
q0 -126 -44 -231t-119 -171q-149 -129 -333 -129q-189 0 -344 144q-154 145 -154 393q0 125 44.5 230.5t118.5 170.5q147 129 333 129zM590 55q84 0 129 97.5t45 275.5q0 238 -66 388q-64 151 -172 151q-84 0 -129 -97t-45 -274q0 -239 66 -391q66 -150 172 -150z" />
    <glyph glyph-name="divide" unicode="&#xf7;" horiz-adv-x="921" 
d="M463 711q-50 0 -84 34q-35 35 -35 84q0 47 35 82t84 35q47 0 82 -35t35 -82q0 -49 -35 -84q-34 -34 -82 -34zM61 481v103h717v-103h-717zM463 84q-49 0 -84 35t-35 84q0 46 35 81t84 35q47 0 82 -35t35 -81q0 -49 -35 -84t-82 -35z" />
    <glyph glyph-name="oslash" unicode="&#xf8;" horiz-adv-x="1116" 
d="M973 975l-64 -84q144 -150 146 -383q0 -126 -44 -231t-119 -171q-149 -129 -333 -129q-149 0 -274 86l-60 -77l-80 59l64 84q-146 151 -148 385q0 125 44.5 230.5t118.5 170.5q147 129 333 129q147 0 277 -88l59 78zM352 596q0 -128 23 -248l334 443q-68 176 -183 176
q-84 0 -129 -97t-45 -274zM590 55q84 0 129 97.5t45 275.5q0 127 -23 242l-331 -441q63 -174 180 -174z" />
    <glyph glyph-name="ugrave" unicode="&#xf9;" horiz-adv-x="1232" 
d="M567 1427l281 -233l-29 -45l-346 127q-52 19 -72 65q-18 45 8 84q27 39 70 39t88 -37zM1073 983v-754q0 -127 129 -137v-72q-166 -5 -346 -47q-37 13 -51 52l22 196h-14q-38 -87 -129 -169q-92 -83 -231 -83q-127 0 -215 84t-88 281v543q0 64 -58 65l-61 2v70l338 20
q57 4 57 -51v-635q0 -254 135 -254q82 0 145 74q63 72 91 149v560q0 64 -58 65l-61 2v70l338 20q57 4 57 -51z" />
    <glyph glyph-name="uacute" unicode="&#xfa;" horiz-adv-x="1232" 
d="M426 1149l-29 45l281 233q45 37 88 37t69 -39q27 -39 8 -84q-18 -45 -71 -65zM1073 983v-754q0 -127 129 -137v-72q-166 -5 -346 -47q-37 13 -51 52l22 196h-14q-38 -87 -129 -169q-92 -83 -231 -83q-127 0 -215 84t-88 281v543q0 64 -58 65l-61 2v70l338 20q57 4 57 -51
v-635q0 -254 135 -254q82 0 145 74q63 72 91 149v560q0 64 -58 65l-61 2v70l338 20q57 4 57 -51z" />
    <glyph glyph-name="ucircumflex" unicode="&#xfb;" horiz-adv-x="1232" 
d="M600 1454h43l303 -340l-47 -41l-276 217l-279 -217l-47 41zM1073 983v-754q0 -127 129 -137v-72q-166 -5 -346 -47q-37 13 -51 52l22 196h-14q-38 -87 -129 -169q-92 -83 -231 -83q-127 0 -215 84t-88 281v543q0 64 -58 65l-61 2v70l338 20q57 4 57 -51v-635
q0 -254 135 -254q82 0 145 74q63 72 91 149v560q0 64 -58 65l-61 2v70l338 20q57 4 57 -51z" />
    <glyph glyph-name="udieresis" unicode="&#xfc;" horiz-adv-x="1232" 
d="M494 1210q-38 -39 -91 -39t-92 39t-39 92q0 54 39 92q40 38 92 38q53 0 91 -38t38 -92q0 -52 -38 -92zM935 1210q-37 -39 -91 -39q-53 0 -92 39t-39 92q0 54 39 92q40 38 92 38q53 0 91 -38t38 -92q0 -52 -38 -92zM1073 983v-754q0 -127 129 -137v-72q-166 -5 -346 -47
q-37 13 -51 52l22 196h-14q-38 -87 -129 -169q-92 -83 -231 -83q-127 0 -215 84t-88 281v543q0 64 -58 65l-61 2v70l338 20q57 4 57 -51v-635q0 -254 135 -254q82 0 145 74q63 72 91 149v560q0 64 -58 65l-61 2v70l338 20q57 4 57 -51z" />
    <glyph glyph-name="yacute" unicode="&#xfd;" horiz-adv-x="1179" 
d="M737 1276l-346 -127l-29 45l281 233q45 37 88 37t69 -39q27 -39 8 -84q-18 -45 -71 -65zM752 954v72h397v-72l-62 -4q-74 -5 -116 -121l-492 -1269h-106l182 434l-360 840q-49 115 -101 116l-63 4v72h526v-72l-61 -4q-36 -2 -46.5 -31.5t9.5 -87.5l215 -536l211 534
q20 53 0.5 85t-66.5 36z" />
    <glyph glyph-name="thorn" unicode="&#xfe;" horiz-adv-x="1239" 
d="M719 1042q157 0 296 -137q68 -65 110 -174q42 -108 42 -239q0 -232 -156 -377q-155 -146 -333 -146q-135 0 -234 103v-217q0 -54 34 -71t114 -7v-84q-118 -22 -264 -79q-141 -56 -168 -56q-49 0 -49 41q0 21 28 58q29 33 29 157v1310q0 99 -127 80v78q117 22 222 78
q106 55 124 55q57 0 57 -69v-418q106 114 275 114zM680 49q190 0 190 379q0 240 -63 383q-62 143 -164 143q-106 0 -199 -114v-547q14 -97 84 -171q70 -73 152 -73z" />
    <glyph glyph-name="ydieresis" unicode="&#xff;" horiz-adv-x="1179" 
d="M460 1210q-37 -39 -92 -39q-53 0 -92 39q-38 40 -38 92q0 54 38 92q40 38 92 38q54 0 92 -38t38 -92q0 -52 -38 -92zM900 1210q-38 -39 -91 -39t-92 39t-39 92q0 54 39 92q40 38 92 38q53 0 91 -38t38 -92q0 -52 -38 -92zM752 954v72h397v-72l-62 -4q-74 -5 -116 -121
l-492 -1269h-106l182 434l-360 840q-49 115 -101 116l-63 4v72h526v-72l-61 -4q-36 -2 -46.5 -31.5t9.5 -87.5l215 -536l211 534q20 53 0.5 85t-66.5 36z" />
    <glyph glyph-name="Amacron" unicode="&#x100;" 
d="M993 1446h-587q-37 0 -37 35v75q0 35 37 35h587q37 0 37 -35v-75q0 -35 -37 -35zM786 1282l379 -1022q40 -105 79 -143q41 -40 136 -47v-70q-311 8 -620 0v70q96 6 128 31t9 83l-82 226h-405l-74 -226q-18 -55 33 -81.5t174 -32.5v-70q-262 10 -523 0v70q102 7 155 40
q51 32 77 105l366 1067h168zM602 991l-166 -504h350z" />
    <glyph glyph-name="amacron" unicode="&#x101;" horiz-adv-x="1107" 
d="M834 1200h-588q-37 0 -37 35v76q0 35 37 35h588q19 0 28 -9t8 -26v-76q0 -35 -36 -35zM938 739v-510q0 -127 129 -137v-72q-166 -5 -346 -47q-37 13 -51 52l10 135h-16q-30 -52 -97 -110q-89 -77 -223 -77q-122 0 -207 66q-86 68 -86 201q0 142 133 230q134 89 478 165
v108q0 132 -28 181q-28 51 -106 51q-64 0 -101 -31t-47 -81q-2 -8 -6.5 -33.5t-6.5 -36t-8 -33t-12 -33t-17 -26.5t-24 -23t-31.5 -13t-41.5 -6q-61 0 -91 27t-29 82q0 116 140 196t355 80q162 0 246 -66q84 -64 84 -239zM461 94q70 0 123 56q52 57 78 116v307
q-216 -55 -281 -156q-51 -80 -51 -155q0 -76 36 -122t95 -46z" />
    <glyph glyph-name="Abreve" unicode="&#x102;" 
d="M399 1688h115q11 -47 61 -81q52 -34 125 -34q74 0 125 33q51 34 62 82h114q-7 -127 -91 -201q-83 -74 -210 -74t-210 74q-82 73 -91 201zM786 1282l379 -1022q40 -105 79 -143q41 -40 136 -47v-70q-311 8 -620 0v70q96 6 128 31t9 83l-82 226h-405l-74 -226
q-18 -55 33 -81.5t174 -32.5v-70q-262 10 -523 0v70q102 7 155 40q51 32 77 105l366 1067h168zM602 991l-166 -504h350z" />
    <glyph glyph-name="abreve" unicode="&#x103;" horiz-adv-x="1107" 
d="M240 1442h114q11 -47 61 -81q52 -34 125 -34q75 0 125 34q51 34 62 81h115q-7 -127 -91 -201q-83 -74 -210 -74t-210 74q-84 74 -91 201zM938 739v-510q0 -127 129 -137v-72q-166 -5 -346 -47q-37 13 -51 52l10 135h-16q-30 -52 -97 -110q-89 -77 -223 -77
q-122 0 -207 66q-86 68 -86 201q0 142 133 230q134 89 478 165v108q0 132 -28 181q-28 51 -106 51q-64 0 -101 -31t-47 -81q-2 -8 -6.5 -33.5t-6.5 -36t-8 -33t-12 -33t-17 -26.5t-24 -23t-31.5 -13t-41.5 -6q-61 0 -91 27t-29 82q0 116 140 196t355 80q162 0 246 -66
q84 -64 84 -239zM461 94q70 0 123 56q52 57 78 116v307q-216 -55 -281 -156q-51 -80 -51 -155q0 -76 36 -122t95 -46z" />
    <glyph glyph-name="Aogonek" unicode="&#x104;" 
d="M780 1282l385 -1022q39 -103 79 -138q41 -37 136 -44v-78q-106 12 -190 12q-397 0 -397 -200q0 -48 33 -78.5t81 -30.5q78 0 129 72l60 -39q-32 -62 -105 -105q-73 -45 -190 -45q-91 0 -159 40q-69 40 -69 132q0 69 47.5 125.5t153.5 118.5q1 1 15 9t24 13l35 21
q8 5 24 17q20 16 30 44q12 33 -5 78l-92 248h-383l-82 -248q-24 -62 49 -84q69 -18 154 -22v-78q-64 4 -261 4t-262 -4v78q106 7 158 37q48 29 74 100l360 1067h168zM602 973l-151 -459h323z" />
    <glyph glyph-name="aogonek" unicode="&#x105;" horiz-adv-x="1107" 
d="M1067 92v-72q-379 -25 -379 -200q0 -55 33 -86t86 -31q74 0 125 72l59 -39q-32 -60 -101 -104q-68 -46 -173 -46q-101 0 -174 45q-74 45 -74 136q0 75 55 133t170 90q-18 12 -24 35l10 135h-16q-30 -52 -97 -110q-89 -77 -223 -77q-122 0 -207 66q-86 68 -86 201
q0 142 133 230q134 89 478 165v108q0 132 -28 181q-28 51 -106 51q-64 0 -101 -31t-47 -81q-2 -8 -6.5 -33.5t-6.5 -36t-8 -33t-12 -33t-17 -26.5t-24 -23t-31.5 -13t-41.5 -6q-61 0 -91 27t-29 82q0 116 140 196t355 80q162 0 246 -66q84 -64 84 -239v-510q0 -127 129 -137
zM461 94q70 0 123 56q52 57 78 116v307q-216 -55 -281 -156q-51 -80 -51 -155q0 -76 36 -122t95 -46z" />
    <glyph glyph-name="Cacute" unicode="&#x106;" horiz-adv-x="1265" 
d="M438 1395l-28 45l280 233q45 37 88 37t69 -39q27 -39 9 -84q-18 -46 -72 -65zM1126 346h99q-40 -159 -165 -269q-124 -108 -343 -108q-288 0 -466 190q-179 191 -179 488q0 294 174 475q174 183 448 183q80 0 171 -25t153 -25q49 0 100 15q20 -201 84 -357h-139
q-136 302 -369 304q-155 0 -236 -128t-81 -378q0 -285 104 -467q105 -181 299 -181q116 0 206.5 70.5t139.5 212.5z" />
    <glyph glyph-name="cacute" unicode="&#x107;" horiz-adv-x="1021" 
d="M346 1149l-29 45l281 233q45 37 88 37t69 -39q27 -39 8 -84q-18 -45 -71 -65zM874 209h78q-103 -230 -368 -232q-216 0 -370 143q-153 144 -153 398q0 246 150 386q152 140 362 140q163 0 275 -81q113 -80 113 -195q0 -49 -34 -83t-93 -34q-55 0 -88 33t-33 82
q0 54 -8 96q-7 43 -39.5 74t-83.5 31q-110 0 -169 -116q-57 -115 -57 -310q0 -212 71 -348q71 -134 216 -134q163 0 231 150z" />
    <glyph glyph-name="Ccaron" unicode="&#x10c;" horiz-adv-x="1265" 
d="M958 1661l-303 -340h-43l-303 340l47 41l279 -217l276 217zM1126 346h99q-40 -159 -165 -269q-124 -108 -343 -108q-288 0 -466 190q-179 191 -179 488q0 294 174 475q174 183 448 183q80 0 171 -25t153 -25q49 0 100 15q20 -201 84 -357h-139q-136 302 -369 304
q-155 0 -236 -128t-81 -378q0 -285 104 -467q105 -181 299 -181q116 0 206.5 70.5t139.5 212.5z" />
    <glyph glyph-name="ccaron" unicode="&#x10d;" horiz-adv-x="1021" 
d="M866 1415l-303 -340h-43l-303 340l47 41l279 -217l276 217zM874 209h78q-103 -230 -368 -232q-216 0 -370 143q-153 144 -153 398q0 246 150 386q152 140 362 140q163 0 275 -81q113 -80 113 -195q0 -49 -34 -83t-93 -34q-55 0 -88 33t-33 82q0 54 -8 96q-7 43 -39.5 74
t-83.5 31q-110 0 -169 -116q-57 -115 -57 -310q0 -212 71 -348q71 -134 216 -134q163 0 231 150z" />
    <glyph glyph-name="Dcaron" unicode="&#x10e;" horiz-adv-x="1361" 
d="M1004 1661l-304 -340h-43l-303 340l47 41l279 -217l276 217zM590 1272q322 0 506 -154q184 -153 184 -481q0 -151 -44 -271q-43 -117 -108 -185q-62 -64 -146 -109q-140 -72 -277 -72q-41 0 -162 17q-117 18 -193 18q-87 0 -299 -35v70q84 18 116 38q32 21 32 68v920
q0 53 -30 76.5t-106 29.5v70q18 -6 271 -3q254 3 256 3zM618 80q342 0 343 549q0 276 -96.5 422.5t-286.5 146.5q-54 0 -91 -4v-1016q0 -98 131 -98z" />
    <glyph glyph-name="dcaron" unicode="&#x10f;" horiz-adv-x="1359" 
d="M1053 1098v-869q0 -127 129 -137v-72q-169 -5 -344 -47q-39 13 -54 52l19 112h-15q-27 -63 -94 -112q-68 -48 -172 -48q-180 0 -321 141q-140 143 -140 396q0 249 139 389q140 141 320 141q158 0 256 -120v231q0 58 -30 79t-93 11v70q210 38 359 127q37 -16 53 -53
q-12 -84 -12 -291zM1237 1407q73 0 113 -55q41 -55 41 -135q0 -176 -136 -308q-23 -20 -41 -2l-20 23q74 80 74 178q0 15 -4 22q-17 -4 -35 -4q-61 0 -100 41t-39 97q0 62 42 102q43 41 105 41zM776 256v578q-34 52 -90 92q-58 41 -123 41q-101 0 -156 -106
q-55 -104 -55 -286q0 -226 67 -372q68 -146 173 -146q70 0 121 63q51 65 63 136z" />
    <glyph glyph-name="Dcroat" unicode="&#x110;" horiz-adv-x="1357" 
d="M590 1272q322 0 506 -154q184 -153 184 -481q0 -151 -44 -271q-43 -117 -108 -185q-62 -64 -146 -109q-140 -72 -277 -72q-41 0 -162 17q-117 18 -193 18q-87 0 -299 -35v70q84 18 116 38q32 21 32 68v404h-148v112h148v404q0 53 -30 76.5t-106 29.5v70q18 -6 271 -3
q254 3 256 3zM618 80q342 0 343 549q0 276 -96.5 422.5t-286.5 146.5q-54 0 -91 -4v-502h152v-112h-152v-402q0 -98 131 -98z" />
    <glyph glyph-name="dslash" unicode="&#x111;" horiz-adv-x="1222" 
d="M1053 1044v-815q0 -127 129 -137v-72q-169 -5 -344 -47q-39 13 -54 52l19 112h-15q-27 -63 -94 -112q-68 -48 -172 -48q-180 0 -321 141q-140 143 -140 396q0 249 139 389q140 141 320 141q158 0 256 -120v120h-133v58h133v53q0 58 -30 79t-93 11v70q210 38 359 127
q37 -16 53 -53q-12 -84 -12 -287h116v-58h-116zM776 256v578q-34 52 -90 92q-58 41 -123 41q-101 0 -156 -106q-55 -104 -55 -286q0 -226 67 -372q68 -146 173 -146q70 0 121 63q51 65 63 136z" />
    <glyph glyph-name="Emacron" unicode="&#x112;" horiz-adv-x="1120" 
d="M848 1446h-588q-37 0 -37 35v75q0 35 37 35h588q37 0 37 -35v-75q0 -35 -37 -35zM911 219l78 137h70q-61 -181 -66 -356q-481 12 -942 0v70q85 6 117 27q31 22 31 75v948q0 43 -31 59q-33 17 -117 23v70h905q19 0 25 -7t10 -30l33 -244h-66l-22 45q-45 92 -98 127
t-162 35h-137q-51 0 -52 -55v-443h220q75 0 106 30q33 30 51 97h58q-14 -173 0 -342h-58q-18 70 -51 100q-32 31 -106 31h-220v-444q0 -53 18 -72.5t66 -19.5h68q113 0 170 30q57 32 102 109z" />
    <glyph glyph-name="emacron" unicode="&#x113;" horiz-adv-x="1038" 
d="M217 1235v76q0 35 37 35h588q37 0 37 -35v-76q0 -35 -37 -35h-588q-37 0 -37 35zM874 209h78q-103 -230 -377 -232q-217 0 -366 143q-148 144 -148 392q0 250 145 391q146 141 345 141q183 0 305 -119q121 -118 121 -292q0 -77 -27 -110.5t-92 -33.5h-508q0 -186 69 -309
q71 -123 216 -123q165 0 239 152zM350 563h371q0 203 -41 303.5t-131 100.5q-94 0 -146.5 -106.5t-52.5 -297.5z" />
    <glyph glyph-name="Edotaccent" unicode="&#x116;" horiz-adv-x="1120" 
d="M656 1446q-42 -43 -101 -43t-102 43t-43 102q0 60 43 102t102 42t101 -42t42 -102q0 -58 -42 -102zM911 219l78 137h70q-61 -181 -66 -356q-481 12 -942 0v70q85 6 117 27q31 22 31 75v948q0 43 -31 59q-33 17 -117 23v70h905q19 0 25 -7t10 -30l33 -244h-66l-22 45
q-45 92 -98 127t-162 35h-137q-51 0 -52 -55v-443h220q75 0 106 30q33 30 51 97h58q-14 -173 0 -342h-58q-18 70 -51 100q-32 31 -106 31h-220v-444q0 -53 18 -72.5t66 -19.5h68q113 0 170 30q57 32 102 109z" />
    <glyph glyph-name="edotaccent" unicode="&#x117;" horiz-adv-x="1038" 
d="M650 1200q-42 -43 -102 -43q-59 0 -102 43t-43 102q0 60 43 102q44 42 102 42q60 0 102 -42t42 -102q0 -58 -42 -102zM874 209h78q-103 -230 -377 -232q-217 0 -366 143q-148 144 -148 392q0 250 145 391q146 141 345 141q183 0 305 -119q121 -118 121 -292
q0 -77 -27 -110.5t-92 -33.5h-508q0 -186 69 -309q71 -123 216 -123q165 0 239 152zM350 563h371q0 203 -41 303.5t-131 100.5q-94 0 -146.5 -106.5t-52.5 -297.5z" />
    <glyph glyph-name="Eogonek" unicode="&#x118;" horiz-adv-x="1120" 
d="M900 1l-93 3q-164 -59 -164 -184q0 -52 33 -82.5t82 -30.5q78 0 129 72l59 -39q-32 -62 -105 -105q-73 -45 -190 -45q-89 0 -159 41q-68 41 -68 136q0 75 69 143q71 68 177 96q-307 1 -619 -6v70q85 6 117 27q31 22 31 75v948q0 43 -31 59q-33 17 -117 23v70h905
q19 0 25 -7t10 -30l33 -244h-66l-22 45q-45 92 -98 127t-162 35h-137q-51 0 -52 -55v-443h220q75 0 106 30q33 30 51 97h58q-14 -173 0 -342h-58q-18 70 -51 100q-32 31 -106 31h-220v-444q0 -53 18 -72.5t66 -19.5h68q113 0 170 30q57 32 102 109l78 137h70
q-61 -181 -66 -356q-52 0 -93 1z" />
    <glyph glyph-name="eogonek" unicode="&#x119;" horiz-adv-x="1030" 
d="M635 57q165 0 239 152h78q-72 -158 -227 -209h2q-182 -51 -182 -184q0 -52 32.5 -82.5t81.5 -30.5q78 0 129 72l60 -39q-32 -62 -105 -105q-73 -45 -190 -45q-89 0 -159 41q-68 41 -68 135q0 65 53 126q53 59 139 92q-196 18 -327 159q-130 142 -130 373q0 250 145 391
q146 141 345 141q183 0 305 -119q121 -118 121 -292q0 -77 -27 -110.5t-92 -33.5h-508q0 -187 70 -309q70 -123 215 -123zM549 967q-94 0 -146.5 -106.5t-52.5 -297.5h371q0 203 -41 303.5t-131 100.5z" />
    <glyph glyph-name="Ecaron" unicode="&#x11a;" horiz-adv-x="1120" 
d="M879 1661l-304 -340h-43l-303 340l47 41l279 -217l276 217zM911 219l78 137h70q-61 -181 -66 -356q-481 12 -942 0v70q85 6 117 27q31 22 31 75v948q0 43 -31 59q-33 17 -117 23v70h905q19 0 25 -7t10 -30l33 -244h-66l-22 45q-45 92 -98 127t-162 35h-137q-51 0 -52 -55
v-443h220q75 0 106 30q33 30 51 97h58q-14 -173 0 -342h-58q-18 70 -51 100q-32 31 -106 31h-220v-444q0 -53 18 -72.5t66 -19.5h68q113 0 170 30q57 32 102 109z" />
    <glyph glyph-name="ecaron" unicode="&#x11b;" horiz-adv-x="1038" 
d="M872 1415l-303 -340h-43l-303 340l47 41l279 -217l276 217zM874 209h78q-103 -230 -377 -232q-217 0 -366 143q-148 144 -148 392q0 250 145 391q146 141 345 141q183 0 305 -119q121 -118 121 -292q0 -77 -27 -110.5t-92 -33.5h-508q0 -186 69 -309q71 -123 216 -123
q165 0 239 152zM350 563h371q0 203 -41 303.5t-131 100.5q-94 0 -146.5 -106.5t-52.5 -297.5z" />
    <glyph glyph-name="Gcommaaccent" unicode="&#x122;" horiz-adv-x="1372" 
d="M786 537v69q274 -6 545 0v-69l-43 -7q-52 -8 -66 -57q-12 -49 -12 -151v-17q0 -183 74 -203v-77q-64 10 -131 10q-98 0 -224 -33t-220 -33q-289 0 -463 185q-174 186 -174 493q0 294 174 475q174 183 448 183q80 0 171 -25t153 -25q49 0 100 15q20 -201 84 -357h-139
q-136 302 -369 304q-155 0 -236 -128t-81 -378q0 -290 101 -471q102 -179 292 -179q105 0 143 62q37 62 37 205q0 119 -24 158q-22 40 -95 46zM694 -618q-23 -20 -41 -3l-20 23q74 80 74 178q0 13 -5 23q-17 -4 -34 -4q-60 0 -101 41q-39 40 -39 96q0 62 42 102
q43 41 106 41q71 0 112 -54q41 -55 41 -136q0 -177 -135 -307z" />
    <glyph glyph-name="gcommaaccent" unicode="&#x123;" horiz-adv-x="1148" 
d="M541 1593q20 20 41 2l20 -22q-74 -80 -74 -178q0 -15 4 -23q17 4 35 4q61 0 100 -41q40 -40 40 -96q0 -61 -42 -102q-43 -41 -106 -41q-73 0 -113 54q-40 53 -40 136q0 176 135 307zM999 1040q109 0 109 -106q0 -98 -74 -98q-11 0 -41.5 8t-38.5 8q-41 0 -28 -43
q23 -75 22 -139q0 -162 -120 -260q-118 -97 -306 -97q-66 0 -137 15q-68 16 -82 16q-61 0 -61 -49q0 -33 34 -51.5t121 -32.5l238 -37q213 -33 312 -89q97 -55 97 -171q0 -163 -160 -260q-160 -98 -395 -98q-199 0 -324 72q-124 70 -124 202q0 72 40.5 117t106.5 45
q53 0 85 -27.5t32 -77.5q0 -21 -9 -55q-9 -35 -9 -61q0 -61 60 -103q61 -43 169 -43q128 0 213 57q86 56 86 156q0 57 -35 89t-116 46l-359 64q-250 43 -250 192q0 71 55 115.5t150 46.5q-79 37 -126.5 113.5t-47.5 173.5q0 156 119 261t309 105q112 0 185 -35
q72 -34 139 -96q40 127 161 127zM391 472q39 -83 125 -83t125 83q39 82 39 206q0 123 -39 207t-125 84t-125 -84t-39 -207q0 -124 39 -206z" />
    <glyph glyph-name="Hbar" unicode="&#x126;" horiz-adv-x="1419" 
d="M1368 1272v-70q-87 -6 -119 -27.5t-32 -74.5v-928q0 -53 32 -74.5t119 -27.5v-70q-295 10 -592 0v70q87 6 119.5 27.5t32.5 74.5v424h-436v-424q0 -53 32 -74.5t119 -27.5v-70q-295 10 -592 0v70q87 6 119.5 27.5t32.5 74.5v928q0 53 -32.5 74.5t-119.5 27.5v70
q297 -10 592 0v-70q-87 -6 -119 -27.5t-32 -74.5v-209h436v209q0 53 -32.5 74.5t-119.5 27.5v70q297 -10 592 0zM492 809v-131h436v131h-436z" />
    <glyph glyph-name="hbar" unicode="&#x127;" horiz-adv-x="1251" 
d="M1092 688v-543q0 -61 129 -75v-70q-266 8 -535 0v70q129 10 129 75v543q0 231 -151 232q-86 0 -146 -65q-60 -66 -76 -132v-578q0 -61 129 -75v-70q-264 11 -530 0v70q125 14 125 75v871h-125v67h125v72q0 58 -30.5 79t-92.5 11v70q211 38 358 127q38 -17 54 -53
q-11 -80 -13 -291v-15h138v-67h-138v-78l-20 -127q26 49 63 96q41 49 124 94q85 48 184 48q128 0 213 -82q86 -83 86 -279z" />
    <glyph glyph-name="Imacron" unicode="&#x12a;" horiz-adv-x="694" 
d="M16 1481v75q0 35 37 35h588q37 0 37 -35v-75q0 -35 -37 -35h-588q-37 0 -37 35zM492 1100v-928q0 -53 32 -74.5t119 -27.5v-70q-295 10 -592 0v70q87 6 119.5 27.5t32.5 74.5v928q0 53 -32.5 74.5t-119.5 27.5v70q297 -10 592 0v-70q-87 -6 -119 -27.5t-32 -74.5z" />
    <glyph glyph-name="imacron" unicode="&#x12b;" horiz-adv-x="612" 
d="M-25 1235v76q0 35 37 35h588q37 0 37 -35v-76q0 -35 -37 -35h-588q-37 0 -37 35zM442 702v-557q0 -61 129 -75v-70q-264 11 -530 0v70q125 14 125 75v615q0 58 -30.5 79t-92.5 11v70q211 38 358 127q37 -17 54 -54q-11 -80 -13 -291z" />
    <glyph glyph-name="Iogonek" unicode="&#x12e;" horiz-adv-x="694" 
d="M643 1272v-70q-87 -6 -119 -27.5t-32 -74.5v-928q0 -53 32 -74.5t119 -27.5v-70q-109 4 -186 4q-158 -59 -158 -182q0 -52 33 -82.5t82 -30.5q78 0 129 72l59 -39q-32 -62 -105 -105q-74 -45 -190 -45q-89 0 -159 41q-68 41 -68 136q0 74 65 139q66 64 170 96
q-111 0 -264 -4v70q87 6 119.5 27.5t32.5 74.5v928q0 53 -32.5 74.5t-119.5 27.5v70q297 -10 592 0z" />
    <glyph glyph-name="iogonek" unicode="&#x12f;" horiz-adv-x="614" 
d="M409 1200q-42 -43 -102 -43q-59 0 -102 43t-43 102q0 60 43 102t102 42q60 0 102 -42t42 -102q0 -58 -42 -102zM495 1l-75 3q-154 -58 -154 -180q0 -52 33 -82.5t82 -30.5q78 0 129 72l59 -39q-31 -62 -105 -105q-74 -45 -190 -45q-89 0 -159 41q-68 41 -68 136
q0 74 64 138q63 63 165 95q-98 0 -235 -4v70q125 14 125 75v615q0 58 -30.5 79t-92.5 11v70q211 38 358 127q37 -17 54 -54q-11 -80 -13 -291v-557q0 -61 129 -75v-70q-42 0 -76 1z" />
    <glyph glyph-name="dotlessi" unicode="&#x131;" horiz-adv-x="612" 
d="M442 702v-557q0 -61 129 -75v-70q-264 11 -530 0v70q125 14 125 75v615q0 58 -30.5 79t-92.5 11v70q211 38 358 127q37 -17 54 -54q-11 -80 -13 -291z" />
    <glyph glyph-name="IJ" unicode="&#x132;" 
d="M492 1100v-928q0 -53 32 -74.5t119 -27.5v-70q-295 10 -592 0v70q87 6 119.5 27.5t32.5 74.5v928q0 53 -32.5 74.5t-119.5 27.5v70q297 -10 592 0v-70q-87 -6 -119 -27.5t-32 -74.5zM758 1202v70q295 -10 592 0v-70q-87 -6 -119.5 -27.5t-32.5 -74.5v-840
q0 -336 -139 -478t-416 -142v75q266 23 266 375v1010q0 53 -32 74.5t-119 27.5z" />
    <glyph glyph-name="ij" unicode="&#x133;" horiz-adv-x="1177" 
d="M400 1221q-42 -43 -101 -43t-102 43t-43 102t43 101t102 42t101 -42t42 -101t-42 -102zM1000 1221q-42 -43 -101 -43t-102 43t-43 102t43 101t102 42t101 -42t42 -101t-42 -102zM442 702v-557q0 -61 129 -75v-70q-264 11 -530 0v70q125 14 125 75v615q0 60 -29.5 81
t-93.5 11v70q211 38 358 127q37 -17 54 -54q-11 -80 -13 -293zM1001 1049q37 -17 54 -54q-11 -80 -13 -293v-565q0 -308 -131 -444q-131 -135 -391 -135l-10 80q132 12 193 93q63 81 63 269v760q0 60 -29 81t-94 11v70q209 38 358 127z" />
    <glyph glyph-name="Kcommaaccent" unicode="&#x136;" horiz-adv-x="1374" 
d="M713 727l327 -442q166 -225 303 -240l-69 -78q-141 0 -252 38q-109 37 -201 163l-274 373l-66 -74v-295q0 -53 32.5 -74.5t119.5 -27.5v-70q-297 10 -592 0v70q87 6 119.5 27.5t32.5 74.5v928q0 53 -32.5 74.5t-119.5 27.5v70q297 -10 592 0v-70q-87 -6 -119.5 -27.5
t-32.5 -74.5v-504l410 455q106 138 -100 151v70q239 -8 477 0v-70q-83 -6 -136 -37q-52 -29 -114 -98zM680 -121q72 0 113 -54q41 -55 41 -136q0 -177 -136 -307q-23 -20 -41 -3l-20 23q74 80 74 178q0 15 -4 23q-17 -4 -35 -4q-60 0 -101 41q-39 40 -39 96q0 62 42 102
q44 41 106 41z" />
    <glyph glyph-name="kcommaaccent" unicode="&#x137;" horiz-adv-x="1171" 
d="M612 608l295 -387q125 -164 244 -176l-70 -78q-125 0 -220 33q-96 33 -181 141l-238 299v-295q0 -61 129 -75v-70q-264 11 -530 0v70q125 14 125 75v1010q0 58 -30.5 79t-92.5 11v70q211 38 358 127q38 -17 54 -53q-11 -80 -13 -291v-533q164 125 273 285q24 37 0.5 61.5
t-86.5 30.5v84q227 -11 454 0v-84q-95 -10 -190 -90zM571 -121q73 0 113 -54q41 -55 41 -136q0 -177 -135 -307q-20 -20 -41 -3l-21 23q74 80 74 178q0 15 -4 23q-17 -4 -35 -4q-61 0 -100 41q-39 40 -39 96q0 62 42 102q43 41 105 41z" />
    <glyph glyph-name="Lacute" unicode="&#x139;" horiz-adv-x="1103" 
d="M416 1395l-29 45l281 233q45 37 88 37t69 -39q27 -39 8 -84q-18 -45 -71 -65zM915 219l78 137h70q-61 -181 -66 -356q-481 12 -942 0v70q85 6 117 27q31 22 31 75v928q0 53 -32.5 74.5t-119.5 27.5v70q297 -10 592 0v-70q-87 -6 -119 -27.5t-32 -74.5v-928
q0 -53 18 -72.5t65 -19.5h68q113 0 170 30q57 32 102 109z" />
    <glyph glyph-name="lacute" unicode="&#x13a;" horiz-adv-x="612" 
d="M111 1427l-29 46l280 233q45 37 88.5 37t69.5 -39q27 -39 8 -84q-18 -45 -71 -66zM442 1098v-953q0 -61 129 -75v-70q-264 11 -530 0v70q125 14 125 75v1010q0 58 -30.5 79t-92.5 11v70q211 38 358 127q38 -17 54 -53q-11 -80 -13 -291z" />
    <glyph glyph-name="Lcommaaccent" unicode="&#x13b;" horiz-adv-x="1103" 
d="M915 219l78 137h70q-61 -181 -66 -356q-481 12 -942 0v70q85 6 117 27q31 22 31 75v928q0 53 -32.5 74.5t-119.5 27.5v70q297 -10 592 0v-70q-87 -6 -119 -27.5t-32 -74.5v-928q0 -53 18 -72.5t65 -19.5h68q113 0 170 30q57 32 102 109zM594 -618q-20 -20 -41 -3l-21 23
q74 80 74 178q0 15 -4 23q-17 -4 -35 -4q-61 0 -100 41q-39 40 -39 96q0 62 42 102q43 41 105 41q73 0 113 -54q41 -55 41 -136q0 -177 -135 -307z" />
    <glyph glyph-name="lcommaaccent" unicode="&#x13c;" horiz-adv-x="612" 
d="M442 1098v-953q0 -61 129 -75v-70q-264 11 -530 0v70q125 14 125 75v1010q0 58 -30.5 79t-92.5 11v70q211 38 358 127q38 -17 54 -53q-11 -80 -13 -291zM289 -618q-23 -20 -41 -3l-21 23q74 80 74 178q0 15 -4 23q-17 -4 -35 -4q-61 0 -100 41q-39 40 -39 96q0 62 42 102
q43 41 105 41q72 0 113 -54q41 -55 41 -136q0 -177 -135 -307z" />
    <glyph glyph-name="Lcaron" unicode="&#x13d;" horiz-adv-x="1128" 
d="M911 776q-23 -23 -41 -2l-20 23q74 80 74 178q0 15 -4 22q-17 -4 -35 -4q-60 0 -101 41q-39 40 -39 96q0 62 42 102q42 42 106 42q73 0 113 -55q41 -55 41 -136q-2 -177 -136 -307zM915 219l78 137h70q-61 -181 -66 -356q-481 12 -942 0v70q85 6 117 27q31 22 31 75v928
q0 53 -32.5 74.5t-119.5 27.5v70q297 -10 592 0v-70q-87 -6 -119 -27.5t-32 -74.5v-928q0 -53 18 -72.5t65 -19.5h68q113 0 170 30q57 32 102 109z" />
    <glyph glyph-name="lcaron" unicode="&#x13e;" horiz-adv-x="737" 
d="M442 1098v-953q0 -61 129 -75v-70q-264 11 -530 0v70q125 14 125 75v1010q0 58 -30.5 79t-92.5 11v70q211 38 358 127q38 -17 54 -53q-11 -80 -13 -291zM633 897q-23 -20 -41 -2l-21 23q74 80 74 178q0 15 -4 22q-17 -4 -35 -4q-61 0 -100 41t-39 96q0 61 42 102
q42 42 105 42q73 0 113 -55q41 -55 41 -136q0 -176 -135 -307z" />
    <glyph glyph-name="Ldot" unicode="&#x13f;" horiz-adv-x="1103" 
d="M915 219l78 137h70q-61 -181 -66 -356q-481 12 -942 0v70q85 6 117 27q31 22 31 75v928q0 53 -32.5 74.5t-119.5 27.5v70q297 -10 592 0v-70q-87 -6 -119 -27.5t-32 -74.5v-928q0 -53 18 -72.5t65 -19.5h68q113 0 170 30q57 32 102 109zM889 712q-41 -42 -99 -42t-98 42
q-41 43 -41 99q0 57 41 98t98 41q58 0 99 -41t41 -98q0 -56 -41 -99z" />
    <glyph glyph-name="ldot" unicode="&#x140;" horiz-adv-x="831" 
d="M442 1098v-953q0 -61 129 -75v-70q-264 11 -530 0v70q125 14 125 75v1010q0 58 -30.5 79t-92.5 11v70q211 38 358 127q38 -17 54 -53q-11 -80 -13 -291zM729 708q-41 -42 -99 -42t-98 42q-40 41 -40 99t40 98q41 41 98 41q58 0 99 -41t41 -98q0 -56 -41 -99z" />
    <glyph glyph-name="Lslash" unicode="&#x141;" horiz-adv-x="1132" 
d="M946 219l78 137h70q-61 -181 -66 -356q-482 12 -942 0v70q86 6 116 27q31 22 31 75v346l-202 -61v86l202 61v496q0 53 -32 74.5t-119 27.5v70q297 -10 592 0v-70q-87 -6 -119.5 -27.5t-32.5 -74.5v-410l244 74v-86l-244 -74v-432q0 -53 18 -72.5t66 -19.5h68
q113 0 170 30q57 32 102 109z" />
    <glyph glyph-name="lslash" unicode="&#x142;" horiz-adv-x="624" 
d="M604 768v-86l-149 -45v-492q0 -61 129 -75v-70q-264 10 -531 0v70q125 14 125 75v410l-158 -47v86l158 47v514q0 58 -30 79t-93 11v70q210 38 359 127q37 -16 53 -53q-12 -84 -12 -291v-375z" />
    <glyph glyph-name="Nacute" unicode="&#x143;" horiz-adv-x="1359" 
d="M483 1395l-28 45l280 233q45 37 88 37t70 -39t8 -84q-18 -46 -72 -65zM803 1202v70q276 -10 526 0v-70q-106 -9 -156.5 -36.5t-50.5 -88.5v-1077h-88l-704 1020v-825q0 -61 54 -88.5t173 -36.5v-70q-279 10 -526 0v70q106 9 155.5 36.5t49.5 88.5v854q0 69 -48 108
t-135 45v70q221 -11 443 0l532 -778v583q0 61 -54 88.5t-171 36.5z" />
    <glyph glyph-name="nacute" unicode="&#x144;" horiz-adv-x="1243" 
d="M424 1149l-29 45l281 233q45 37 88 37t69 -39q27 -39 8 -84q-18 -45 -71 -65zM1083 688v-543q0 -61 129 -75v-70q-266 8 -534 0v70q129 10 129 75v543q0 230 -152 232q-86 0 -145 -65q-60 -66 -76 -132v-578q0 -66 129 -75v-70q-266 8 -532 0v70q127 13 127 75v615
q0 113 -125 92v70q201 40 346 127q36 -16 53 -54l-31 -184h13q26 49 63 96q41 49 124 94q85 48 183 48q128 0 213 -82q86 -83 86 -279z" />
    <glyph glyph-name="Ncommaaccent" unicode="&#x145;" horiz-adv-x="1359" 
d="M803 1202v70q276 -10 526 0v-70q-106 -9 -156.5 -36.5t-50.5 -88.5v-1077h-88l-704 1020v-825q0 -61 54 -88.5t173 -36.5v-70q-279 10 -526 0v70q106 9 155.5 36.5t49.5 88.5v854q0 69 -48 108t-135 45v70q221 -11 443 0l532 -778v583q0 61 -54 88.5t-171 36.5zM662 -618
q-23 -20 -41 -3l-21 23q74 80 74 178q0 15 -4 23q-17 -4 -35 -4q-61 0 -100 41q-39 40 -39 96q0 62 42 102q43 41 105 41q73 0 113 -54q41 -55 41 -136q0 -177 -135 -307z" />
    <glyph glyph-name="ncommaaccent" unicode="&#x146;" horiz-adv-x="1243" 
d="M1083 688v-543q0 -61 129 -75v-70q-266 8 -534 0v70q129 10 129 75v543q0 230 -152 232q-86 0 -145 -65q-60 -66 -76 -132v-578q0 -66 129 -75v-70q-266 8 -532 0v70q127 13 127 75v615q0 113 -125 92v70q201 40 346 127q36 -16 53 -54l-31 -184h13q26 49 63 96
q41 49 124 94q85 48 183 48q128 0 213 -82q86 -83 86 -279zM602 -618q-20 -20 -41 -3l-20 23q74 81 73 178q0 15 -4 23q-17 -4 -35 -4q-61 0 -100 41q-39 40 -39 96q0 62 42 102q43 41 106 41q72 0 112 -54q41 -55 41 -136q0 -177 -135 -307z" />
    <glyph glyph-name="Ncaron" unicode="&#x147;" horiz-adv-x="1359" 
d="M1004 1661l-304 -340h-43l-303 340l47 41l279 -217l276 217zM803 1202v70q276 -10 526 0v-70q-106 -9 -156.5 -36.5t-50.5 -88.5v-1077h-88l-704 1020v-825q0 -61 54 -88.5t173 -36.5v-70q-279 10 -526 0v70q106 9 155.5 36.5t49.5 88.5v854q0 69 -48 108t-135 45v70
q221 -11 443 0l532 -778v583q0 61 -54 88.5t-171 36.5z" />
    <glyph glyph-name="ncaron" unicode="&#x148;" horiz-adv-x="1243" 
d="M944 1415l-303 -340h-43l-303 340l47 41l279 -217l276 217zM1083 688v-543q0 -61 129 -75v-70q-266 8 -534 0v70q129 10 129 75v543q0 230 -152 232q-86 0 -145 -65q-60 -66 -76 -132v-578q0 -66 129 -75v-70q-266 8 -532 0v70q127 13 127 75v615q0 113 -125 92v70
q201 40 346 127q36 -16 53 -54l-31 -184h13q26 49 63 96q41 49 124 94q85 48 183 48q128 0 213 -82q86 -83 86 -279z" />
    <glyph glyph-name="Eng" unicode="&#x14a;" horiz-adv-x="1355" 
d="M803 1202v70q276 -10 526 0v-70q-106 -9 -156.5 -36.5t-50.5 -88.5v-1077h-2q0 -183 -126.5 -271.5t-387.5 -88.5v79q123 0 174 55q51 54 51 226v293l-501 727v-825q0 -61 54 -88.5t173 -36.5v-70q-279 10 -526 0v70q106 9 155.5 36.5t49.5 88.5v854q0 69 -48 108
t-135 45v70q221 -11 443 0l532 -778v583q0 61 -54 88.5t-171 36.5z" />
    <glyph glyph-name="eng" unicode="&#x14b;" horiz-adv-x="1206" 
d="M784 1049q128 0 213 -82q86 -83 86 -279v-551q0 -308 -131 -444q-130 -135 -391 -135l-10 80q132 12 193 93q63 81 63 269v688q0 232 -152 234q-87 0 -145 -66q-60 -66 -76 -133v-578q0 -66 129 -75v-70q-266 8 -532 0v70q127 13 127 75v615q0 111 -125 90v70
q201 40 346 127q36 -16 53 -54l-31 -182h13q26 49 63 96q41 49 124 94q85 48 183 48z" />
    <glyph glyph-name="Omacron" unicode="&#x14c;" horiz-adv-x="1361" 
d="M350 1481v75q0 35 37 35h588q37 0 37 -35v-75q0 -35 -37 -35h-588q-37 0 -37 35zM680 1305q266 0 438 -187q172 -185 172 -489q0 -286 -173 -474q-173 -186 -435 -186q-266 0 -438 186q-172 187 -172 490q0 286 173 473q172 187 435 187zM715 55q123 0 196 133
q74 134 74 387q0 275 -94 459q-95 185 -244 185q-123 0 -197 -134q-73 -133 -73 -387q0 -275 94 -459t244 -184z" />
    <glyph glyph-name="omacron" unicode="&#x14d;" horiz-adv-x="1116" 
d="M227 1235v76q0 35 37 35h588q37 0 37 -35v-76q0 -35 -37 -35h-588q-37 0 -37 35zM557 1044q189 0 344 -144q154 -144 154 -392q0 -126 -44 -231t-119 -171q-149 -129 -333 -129q-189 0 -344 144q-154 145 -154 393q0 125 44.5 230.5t118.5 170.5q147 129 333 129zM590 55
q84 0 129 97.5t45 275.5q0 238 -66 388q-64 151 -172 151q-84 0 -129 -97t-45 -274q0 -239 66 -391q66 -150 172 -150z" />
    <glyph glyph-name="Ohungarumlaut" unicode="&#x150;" horiz-adv-x="1361" 
d="M383 1395l-27 45l256 233q39 37 79 37t63 -39q25 -38 8 -84t-66 -65zM737 1395l-26 45l256 233q39 37 78.5 37t62.5 -39q25 -38 8 -84t-65 -65zM680 1305q266 0 438 -187q172 -185 172 -489q0 -286 -173 -474q-173 -186 -435 -186q-266 0 -438 186q-172 187 -172 490
q0 286 173 473q172 187 435 187zM715 55q123 0 196 133q74 134 74 387q0 275 -94 459q-95 185 -244 185q-123 0 -197 -134q-73 -133 -73 -387q0 -275 94 -459t244 -184z" />
    <glyph glyph-name="ohungarumlaut" unicode="&#x151;" horiz-adv-x="1116" 
d="M260 1149l-27 45l256 233q39 37 79 37t63 -39q25 -38 8 -84t-66 -65zM614 1149l-26 45l256 233q39 37 79 37t62 -39q25 -38 8 -84t-65 -65zM557 1044q189 0 344 -144q154 -144 154 -392q0 -126 -44 -231t-119 -171q-149 -129 -333 -129q-189 0 -344 144
q-154 145 -154 393q0 125 44.5 230.5t118.5 170.5q147 129 333 129zM590 55q84 0 129 97.5t45 275.5q0 238 -66 388q-64 151 -172 151q-84 0 -129 -97t-45 -274q0 -239 66 -391q66 -150 172 -150z" />
    <glyph glyph-name="OE" unicode="&#x152;" horiz-adv-x="1955" 
d="M1747 219l78 137h69q-60 -178 -65 -356q-479 12 -938 0q-102 -31 -186 -31q-288 0 -461 185q-172 185 -172 495q0 291 176 473q175 183 428 183q82 0 213 -33h903q19 0 25 -7t10 -30l33 -244h-66l-22 45q-45 92 -98 127t-163 35h-137q-51 0 -51 -55v-443h219q74 0 106 30
q33 30 52 97h57q-13 -173 0 -342h-57q-18 70 -51 100q-32 31 -107 31h-219v-444q0 -53 18 -72.5t66 -19.5h68q113 0 170 30q57 32 102 109zM377 690q0 -262 93 -448q93 -185 255 -185q191 0 309 207v684q-48 129 -141.5 199t-212.5 70q-141 0 -222 -137q-81 -136 -81 -390z
" />
    <glyph glyph-name="oe" unicode="&#x153;" horiz-adv-x="1740" 
d="M1346 57q165 0 239 152h78q-103 -230 -377 -232q-227 0 -373 152q-143 -152 -354 -152q-189 0 -344 144q-154 145 -154 393q0 125 44.5 230.5t118.5 170.5q147 129 333 129q205 0 350 -151q142 152 355 151q183 0 305 -119q121 -118 121 -292q0 -77 -27 -110.5t-92 -33.5
h-508q0 -187 70 -309q71 -123 215 -123zM590 55q84 0 129 97.5t45 275.5q0 238 -66 388q-64 151 -172 151q-84 0 -129 -97t-45 -274q0 -239 66 -391q66 -150 172 -150zM1260 967q-94 0 -146.5 -106.5t-52.5 -297.5h371q0 203 -41 303.5t-131 100.5z" />
    <glyph glyph-name="Racute" unicode="&#x154;" horiz-adv-x="1300" 
d="M819 1522l-346 -127l-29 45l281 233q45 37 88 37t69 -39q27 -39 8 -84q-18 -45 -71 -65zM793 545l155 -215q185 -254 322 -269l-49 -77q-65 0 -121 8q-51 7 -122 32q-142 51 -261 220l-174 250q-6 -2 -11 -2l-45 -7v-313q0 -53 31 -75q32 -21 117 -27v-70q-291 8 -584 0
v70q85 6 117 27q31 22 31 75v944q0 45 -28.5 62.5t-107.5 23.5v70q79 -4 185 -4q65 0 195 2q24 0 55.5 0.5t48.5 1t26 0.5q584 0 584 -348q0 -270 -364 -379zM621 1198h-134v-631l41 4q354 37 355 340q0 135 -66 211t-196 76z" />
    <glyph glyph-name="racute" unicode="&#x155;" horiz-adv-x="937" 
d="M279 1149l-29 45l280 233q45 37 88.5 37t69.5 -39q27 -39 8 -84q-18 -45 -71 -65zM735 1049q82 0 132.5 -41t50.5 -109q0 -55 -33 -87t-82 -32q-45 0 -101 44t-98 44q-49 0 -87 -41q-57 -62 -75 -149v-533q0 -61 138 -75v-70q-270 11 -539 0v70q125 14 125 75v615
q0 113 -125 92v70q199 40 346 127q36 -16 53 -54l-43 -231h15q112 285 323 285z" />
    <glyph glyph-name="Rcommaaccent" unicode="&#x156;" horiz-adv-x="1300" 
d="M793 545l155 -215q185 -254 322 -269l-49 -77q-65 0 -121 8q-51 7 -122 32q-142 51 -261 220l-174 250q-6 -2 -11 -2l-45 -7v-313q0 -53 31 -75q32 -21 117 -27v-70q-291 8 -584 0v70q85 6 117 27q31 22 31 75v944q0 45 -28.5 62.5t-107.5 23.5v70q79 -4 185 -4
q65 0 195 2q24 0 55.5 0.5t48.5 1t26 0.5q584 0 584 -348q0 -270 -364 -379zM621 1198h-134v-631l41 4q354 37 355 340q0 135 -66 211t-196 76zM633 -121q71 0 112 -54q41 -55 41 -136q0 -177 -135 -307q-20 -20 -41 -3l-20 23q74 80 74 178q0 13 -5 23q-17 -4 -34 -4
q-60 0 -101 41q-39 40 -39 96q0 62 42 102q44 41 106 41z" />
    <glyph glyph-name="rcommaaccent" unicode="&#x157;" horiz-adv-x="937" 
d="M735 1049q82 0 132.5 -41t50.5 -109q0 -55 -33 -87t-82 -32q-45 0 -101 44t-98 44q-49 0 -87 -41q-57 -62 -75 -149v-533q0 -61 138 -75v-70q-270 11 -539 0v70q125 14 125 75v615q0 113 -125 92v70q199 40 346 127q36 -16 53 -54l-43 -231h15q112 285 323 285zM285 -618
q-23 -20 -41 -3l-21 23q74 80 74 178q0 15 -4 23q-17 -4 -35 -4q-61 0 -100 41q-39 40 -39 96q0 62 42 102q43 41 105 41q72 0 113 -54q41 -55 41 -136q0 -177 -135 -307z" />
    <glyph glyph-name="Rcaron" unicode="&#x158;" horiz-adv-x="1300" 
d="M993 1661l-303 -340h-43l-303 340l47 41l279 -217l276 217zM793 545l155 -215q185 -254 322 -269l-49 -77q-65 0 -121 8q-51 7 -122 32q-142 51 -261 220l-174 250q-6 -2 -11 -2l-45 -7v-313q0 -53 31 -75q32 -21 117 -27v-70q-291 8 -584 0v70q85 6 117 27q31 22 31 75
v944q0 45 -28.5 62.5t-107.5 23.5v70q79 -4 185 -4q65 0 195 2q24 0 55.5 0.5t48.5 1t26 0.5q584 0 584 -348q0 -270 -364 -379zM621 1198h-134v-631l41 4q354 37 355 340q0 135 -66 211t-196 76z" />
    <glyph glyph-name="rcaron" unicode="&#x159;" horiz-adv-x="937" 
d="M799 1415l-303 -340h-43l-303 340l47 41l278 -217l277 217zM735 1049q82 0 132.5 -41t50.5 -109q0 -55 -33 -87t-82 -32q-45 0 -101 44t-98 44q-49 0 -87 -41q-57 -62 -75 -149v-533q0 -61 138 -75v-70q-270 11 -539 0v70q125 14 125 75v615q0 113 -125 92v70
q199 40 346 127q36 -16 53 -54l-43 -231h15q112 285 323 285z" />
    <glyph glyph-name="Sacute" unicode="&#x15a;" horiz-adv-x="1024" 
d="M313 1395l-28 45l280 233q45 37 88 37t70 -39t8 -84q-18 -46 -72 -65zM698 254q0 85 -62 149q-61 64 -206 136q-173 84 -267 178q-95 95 -95 241q0 158 111 252q113 95 288 95q84 0 163 -25t93 -25q41 0 49 33h82l16 -295h-67q-103 224 -287 226q-89 0 -142 -50
q-52 -49 -52 -125q0 -78 56.5 -136.5t180.5 -114.5l48 -23l55 -27q15 -6 54 -28q40 -21 57 -34q31 -24 50 -37q35 -24 50 -44l38 -49q24 -29 35 -60q27 -77 27 -143q0 -124 -70 -212q-128 -165 -366 -165q-95 0 -191 43q-95 43 -121 43q-57 0 -71 -57h-82l-21 311h80
q51 -119 151 -185q99 -63 205 -63q96 0 153.5 51.5t57.5 139.5z" />
    <glyph glyph-name="sacute" unicode="&#x15b;" horiz-adv-x="886" 
d="M236 1149l-29 45l280 233q45 37 88 37t70 -39t8 -84q-18 -45 -71 -65zM836 281q0 -132 -107 -221q-106 -87 -242 -87q-76 0 -169 38t-107 38q-37 0 -41 -49h-80l-24 287h65q32 -103 134 -170q104 -68 196 -68q63 0 102 37t39 98q0 71 -50 115q-48 43 -163 96
q-76 36 -113 57q-38 21 -99 68q-116 90 -116 232q0 130 93 209q94 81 237 81q72 0 147 -29q72 -28 91 -28q42 0 53 41h72l18 -281h-61q-49 115 -127 169q-77 55 -156 55q-65 0 -104 -36.5t-39 -96.5q0 -61 43 -103.5t139 -87.5q5 -4 50 -24q54 -24 61 -28q18 -9 60 -33
q37 -20 61 -40l51 -45q33 -30 46 -56q40 -70 40 -138z" />
    <glyph glyph-name="Scedilla" unicode="&#x15e;" horiz-adv-x="1024" 
d="M973 348q0 -181 -133 -278q-134 -98 -299 -99l-13 -32q240 -72 240 -191q0 -74 -76 -116t-174 -42q-94 0 -160 32q-63 32 -63 93q0 29 19.5 48.5t50.5 19.5q38 0 55.5 -20.5t17.5 -51.5q0 -30 21 -51.5t61 -21.5q86 0 86 90q0 92 -147 129q-43 12 -43 39q0 11 41 84
q-58 11 -130 43q-72 34 -102 34q-57 0 -71 -57h-82l-21 311h80q51 -119 151 -185q99 -63 205 -63q96 0 153.5 51.5t57.5 139.5q0 85 -62 149q-61 64 -206 136q-173 84 -267 178q-95 95 -95 241q0 158 111 252q113 95 288 95q84 0 163 -25t93 -25q41 0 49 33h82l16 -295h-67
q-103 224 -287 226q-89 0 -142 -50q-52 -49 -52 -125q0 -78 56.5 -136.5t180.5 -114.5l48 -23l55 -27q15 -6 54 -28q40 -21 57 -34q31 -24 50 -37q35 -24 50 -44l38 -49q24 -29 35 -60q27 -77 27 -143z" />
    <glyph glyph-name="scedilla" unicode="&#x15f;" horiz-adv-x="886" 
d="M487 -27h-24l-12 -34q241 -72 239 -191q0 -74 -76 -116q-75 -42 -174 -42q-94 0 -160 32q-63 32 -63 93q0 29 19.5 48.5t50.5 19.5q38 0 55.5 -20.5t17.5 -51.5q0 -30 21 -51.5t61 -21.5q86 0 86 90q0 92 -147 129q-43 12 -43 39q0 9 47 92q-44 12 -96 35q-60 26 -78 26
q-37 0 -41 -49h-80l-24 287h65q32 -103 134 -170q104 -68 196 -68q63 0 102 37t39 98q0 71 -50 115q-48 43 -163 96q-76 36 -113 57q-38 21 -99 68q-116 90 -116 232q0 130 93 209q94 81 237 81q72 0 147 -29q72 -28 91 -28q42 0 53 41h72l18 -281h-61q-49 115 -127 169
q-77 55 -156 55q-65 0 -104 -36.5t-39 -96.5q0 -61 43 -103.5t139 -87.5q5 -4 50 -24q54 -24 61 -28q18 -9 60 -33q37 -20 61 -40l51 -45q33 -30 46 -56q40 -70 40 -138q0 -132 -107 -221q-106 -87 -242 -87z" />
    <glyph glyph-name="Scaron" unicode="&#x160;" horiz-adv-x="1024" 
d="M834 1661l-304 -340h-43l-303 340l47 41l279 -217l276 217zM698 254q0 85 -62 149q-61 64 -206 136q-173 84 -267 178q-95 95 -95 241q0 158 111 252q113 95 288 95q84 0 163 -25t93 -25q41 0 49 33h82l16 -295h-67q-103 224 -287 226q-89 0 -142 -50q-52 -49 -52 -125
q0 -78 56.5 -136.5t180.5 -114.5l48 -23l55 -27q15 -6 54 -28q40 -21 57 -34q31 -24 50 -37q35 -24 50 -44l38 -49q24 -29 35 -60q27 -77 27 -143q0 -124 -70 -212q-128 -165 -366 -165q-95 0 -191 43q-95 43 -121 43q-57 0 -71 -57h-82l-21 311h80q51 -119 151 -185
q99 -63 205 -63q96 0 153.5 51.5t57.5 139.5z" />
    <glyph glyph-name="scaron" unicode="&#x161;" horiz-adv-x="886" 
d="M756 1415l-303 -340h-43l-304 340l48 41l278 -217l277 217zM836 281q0 -132 -107 -221q-106 -87 -242 -87q-76 0 -169 38t-107 38q-37 0 -41 -49h-80l-24 287h65q32 -103 134 -170q104 -68 196 -68q63 0 102 37t39 98q0 71 -50 115q-48 43 -163 96q-76 36 -113 57
q-38 21 -99 68q-116 90 -116 232q0 130 93 209q94 81 237 81q72 0 147 -29q72 -28 91 -28q42 0 53 41h72l18 -281h-61q-49 115 -127 169q-77 55 -156 55q-65 0 -104 -36.5t-39 -96.5q0 -61 43 -103.5t139 -87.5q5 -4 50 -24q54 -24 61 -28q18 -9 60 -33q37 -20 61 -40
l51 -45q33 -30 46 -56q40 -70 40 -138z" />
    <glyph glyph-name="Tcommaaccent" unicode="&#x162;" horiz-adv-x="1167" 
d="M1069 1286h68l-72 -280h-70q12 107 -19 144q-30 38 -93 38h-158v-1016q0 -52 36 -75q36 -21 136 -27v-70q-315 8 -633 0v70q100 6 136 27q36 23 36 75v1016h-129q-72 0 -113 -35q-40 -34 -94 -147h-69l67 280h68q68 -14 237 -14h431q167 0 235 14zM621 4l-23 -65
q240 -72 240 -191q0 -74 -76 -116t-174 -42q-94 0 -160 32q-63 32 -63 93q0 29 19.5 48.5t49.5 19.5q38 0 56 -21t18 -51t21 -51.5t61 -21.5q86 0 86 90q0 92 -148 129q-43 12 -43 39q0 12 14 38q24 42 42 70h80z" />
    <glyph glyph-name="tcommaaccent" unicode="&#x163;" horiz-adv-x="716" 
d="M655 1026v-82h-227v-690q0 -166 100 -166q62 0 127 55v-80q-78 -78 -223 -77h-26l-17 -47q240 -72 240 -191q0 -74 -76 -116q-77 -42 -174 -42q-94 0 -160 32q-63 32 -63 93q0 29 19.5 48.5t49.5 19.5q38 0 56 -21t18 -51t21 -51.5t61 -21.5q86 0 86 90q0 92 -148 129
q-43 12 -43 39q0 13 14 37q3 5 17.5 29.5t22.5 37.5q-178 52 -178 293v651h-111v82q136 0 201 64q66 63 98 215h88v-279h227z" />
    <glyph glyph-name="Tcaron" unicode="&#x164;" horiz-adv-x="1167" 
d="M903 1661l-303 -340h-43l-303 340l47 41l279 -217l276 217zM1069 1286h68l-72 -280h-70q12 107 -19 144q-30 38 -93 38h-158v-1016q0 -52 36 -75q36 -21 136 -27v-70q-315 8 -633 0v70q100 6 136 27q36 23 36 75v1016h-129q-72 0 -113 -35q-40 -34 -94 -147h-69l67 280
h68q68 -14 237 -14h431q167 0 235 14z" />
    <glyph glyph-name="tcaron" unicode="&#x165;" horiz-adv-x="927" 
d="M801 817q-23 -23 -41 -2l-21 23q74 80 74 178q0 15 -4 22q-17 -4 -35 -4q-61 0 -100 41t-39 96q0 61 42 102q42 42 105 42q73 0 113 -55q41 -55 41 -136q0 -176 -135 -307zM655 143v-80q-78 -78 -223 -77q-134 0 -207 77t-73 230v651h-111v82q136 0 201 64q66 63 98 215
h88v-279h227v-82h-227v-690q0 -166 100 -166q62 0 127 55z" />
    <glyph glyph-name="Tbar" unicode="&#x166;" horiz-adv-x="1167" 
d="M1069 1286h68l-72 -280h-70q12 107 -19 144q-30 38 -93 38h-158v-500h162q28 0 26 -29v-43q0 -14 -6.5 -21.5t-19.5 -6.5h-162v-416q0 -52 36 -75q36 -21 136 -27v-70q-315 8 -633 0v70q100 6 136 27q36 23 36 75v416h-157q-27 0 -27 28v43q0 29 27 29h157v500h-129
q-72 0 -113 -35q-40 -34 -94 -147h-69l67 280h68q68 -14 237 -14h431q167 0 235 14z" />
    <glyph glyph-name="tbar" unicode="&#x167;" horiz-adv-x="727" 
d="M666 1026v-82h-228v-201h180q31 0 31 -30v-29q0 -29 -31 -29h-180v-401q0 -166 101 -166q63 0 127 55v-80q-78 -79 -224 -77q-134 0 -207 77t-73 230v362h-90q-31 0 -31 29v29q0 31 31 30h90v201h-111v82q136 0 201 64q66 63 98 215h88v-279h228z" />
    <glyph glyph-name="Umacron" unicode="&#x16a;" horiz-adv-x="1468" 
d="M1049 1446h-588q-37 0 -37 35v75q0 35 37 35h588q19 0 28 -9t8 -26v-75q0 -35 -36 -35zM1438 1272v-70q-87 -6 -119.5 -27.5t-32.5 -74.5v-946q0 -39 34.5 -58.5t117.5 -25.5v-70q-274 7 -473 0v70q33 23 32 108v45q-129 -245 -405 -243q-190 0 -300 111
q-110 113 -110 296v713q0 53 -32 74.5t-119 27.5v70q297 -10 592 0v-70q-87 -6 -119.5 -27.5t-32.5 -74.5v-711q0 -153 55.5 -234t161.5 -81q110 0 187 76q78 75 122 186v764q0 53 -32 74.5t-119 27.5v70q297 -10 592 0z" />
    <glyph glyph-name="umacron" unicode="&#x16b;" horiz-adv-x="1232" 
d="M291 1235v76q0 35 37 35h587q37 0 37 -35v-76q0 -35 -37 -35h-587q-37 0 -37 35zM1073 983v-754q0 -127 129 -137v-72q-166 -5 -346 -47q-37 13 -51 52l22 196h-14q-38 -87 -129 -169q-92 -83 -231 -83q-127 0 -215 84t-88 281v543q0 64 -58 65l-61 2v70l338 20
q57 4 57 -51v-635q0 -254 135 -254q82 0 145 74q63 72 91 149v560q0 64 -58 65l-61 2v70l338 20q57 4 57 -51z" />
    <glyph glyph-name="ubreve" unicode="&#x16d;" horiz-adv-x="1232" 
d="M322 1442h114q11 -47 61 -81q52 -34 125 -34q75 0 125 34q51 34 62 81h115q-7 -127 -91 -201q-83 -74 -210 -74t-210 74q-84 74 -91 201zM1073 983v-754q0 -127 129 -137v-72q-166 -5 -346 -47q-37 13 -51 52l22 196h-14q-38 -87 -129 -169q-92 -83 -231 -83
q-127 0 -215 84t-88 281v543q0 64 -58 65l-61 2v70l338 20q57 4 57 -51v-635q0 -254 135 -254q82 0 145 74q63 72 91 149v560q0 64 -58 65l-61 2v70l338 20q57 4 57 -51z" />
    <glyph glyph-name="Uring" unicode="&#x16e;" horiz-adv-x="1468" 
d="M866 1429q-45 -45 -111 -45q-65 0 -110 45q-45 47 -45 111q0 66 45 110q46 44 110 44q65 0 111 -44q45 -44 45 -110q0 -64 -45 -111zM680 1540q0 -31 22.5 -54.5t52.5 -23.5q31 0 53.5 23.5t22.5 54.5q0 30 -23 53t-53 23t-52.5 -23t-22.5 -53zM1438 1272v-70
q-87 -6 -119.5 -27.5t-32.5 -74.5v-946q0 -39 34.5 -58.5t117.5 -25.5v-70q-274 7 -473 0v70q33 23 32 108v45q-129 -245 -405 -243q-190 0 -300 111q-110 113 -110 296v713q0 53 -32 74.5t-119 27.5v70q297 -10 592 0v-70q-87 -6 -119.5 -27.5t-32.5 -74.5v-711
q0 -153 55.5 -234t161.5 -81q110 0 187 76q78 75 122 186v764q0 53 -32 74.5t-119 27.5v70q297 -10 592 0z" />
    <glyph glyph-name="uring" unicode="&#x16f;" horiz-adv-x="1232" 
d="M733 1184q-45 -45 -111 -45q-65 0 -110 45t-45 110q0 66 45 110q46 44 110 44q65 0 111 -44q45 -44 45 -110q0 -65 -45 -110zM698 1294q0 30 -23 53t-53 23t-52.5 -23t-22.5 -53q0 -31 22.5 -54t52.5 -23t53 23.5t23 53.5zM1073 983v-754q0 -127 129 -137v-72
q-166 -5 -346 -47q-37 13 -51 52l22 196h-14q-38 -87 -129 -169q-92 -83 -231 -83q-127 0 -215 84t-88 281v543q0 64 -58 65l-61 2v70l338 20q57 4 57 -51v-635q0 -254 135 -254q82 0 145 74q63 72 91 149v560q0 64 -58 65l-61 2v70l338 20q57 4 57 -51z" />
    <glyph glyph-name="Uhungarumlaut" unicode="&#x170;" horiz-adv-x="1468" 
d="M770 1522l-313 -127l-27 45l256 233q39 37 79 37t62 -39q25 -38 8 -84t-65 -65zM1124 1522l-313 -127l-27 45l256 233q39 37 79 37t63 -39q25 -38 8 -84t-66 -65zM1438 1272v-70q-87 -6 -119.5 -27.5t-32.5 -74.5v-946q0 -39 34.5 -58.5t117.5 -25.5v-70q-274 7 -473 0
v70q33 23 32 108v45q-129 -245 -405 -243q-190 0 -300 111q-110 113 -110 296v713q0 53 -32 74.5t-119 27.5v70q297 -10 592 0v-70q-87 -6 -119.5 -27.5t-32.5 -74.5v-711q0 -153 55.5 -234t161.5 -81q110 0 187 76q78 75 122 186v764q0 53 -32 74.5t-119 27.5v70
q297 -10 592 0z" />
    <glyph glyph-name="uhungarumlaut" unicode="&#x171;" horiz-adv-x="1232" 
d="M324 1149l-27 45l256 233q39 37 79 37t62 -39q25 -38 8 -84t-65 -65zM678 1149l-27 45l256 233q39 37 79 37t63 -39q25 -38 8 -84t-66 -65zM1073 983v-754q0 -127 129 -137v-72q-166 -5 -346 -47q-37 13 -51 52l22 196h-14q-38 -87 -129 -169q-92 -83 -231 -83
q-127 0 -215 84t-88 281v543q0 64 -58 65l-61 2v70l338 20q57 4 57 -51v-635q0 -254 135 -254q82 0 145 74q63 72 91 149v560q0 64 -58 65l-61 2v70l338 20q57 4 57 -51z" />
    <glyph glyph-name="Uogonek" unicode="&#x172;" horiz-adv-x="1470" 
d="M1438 1272v-70q-87 -6 -119.5 -27.5t-32.5 -74.5v-946q0 -39 34.5 -58.5t117.5 -25.5v-70q-274 7 -473 0v70q33 23 32 108v45q-85 -166 -245 -219h10q-176 -56 -176 -188q0 -52 32.5 -82.5t81.5 -30.5q78 0 129 72l60 -39q-31 -62 -105 -105q-74 -45 -190 -45
q-89 0 -159 41q-68 41 -68 135q0 62 50 124q49 61 134 96q-175 12 -272 121t-97 284v713q0 53 -32 74.5t-119 27.5v70q297 -10 592 0v-70q-87 -6 -119.5 -27.5t-32.5 -74.5v-711q0 -153 55.5 -234t161.5 -81q110 0 187 76q78 75 122 186v764q0 53 -32 74.5t-119 27.5v70
q297 -10 592 0z" />
    <glyph glyph-name="uogonek" unicode="&#x173;" horiz-adv-x="1232" 
d="M948 -8q-125 -74 -125 -178q0 -50 33 -80.5t82 -30.5q78 0 129 72l59 -39q-32 -62 -105 -105q-74 -45 -190 -45q-89 0 -159 41q-68 41 -68 135q0 140 209 244q-1 2 -3.5 9.5t-4.5 9.5l22 196h-14q-38 -87 -129 -169q-92 -83 -231 -83q-127 0 -215 84t-88 281v543
q0 64 -58 65l-61 2v70l338 20q57 4 57 -51v-635q0 -254 135 -254q82 0 145 74q63 72 91 149v560q0 64 -58 65l-61 2v70l338 20q57 4 57 -51v-754q0 -127 129 -137v-72q-117 -2 -254 -28z" />
    <glyph glyph-name="Wcircumflex" unicode="&#x174;" horiz-adv-x="2002" 
d="M1276 1319l-277 217l-278 -217l-47 41l303 340h43l303 -340zM1528 1202v70q227 -11 454 0v-70q-90 -6 -132 -29q-39 -22 -62 -90l-352 -1101h-107l-340 927l-295 -927h-106l-404 1101q-26 73 -54 92q-29 21 -110 27v70q297 -10 603 0v-70q-99 -4 -133 -29.5t-13 -89.5
l254 -743l209 704l-14 39q-25 69 -57 92t-115 27v70q303 -11 602 0v-70q-96 -4 -128 -29.5t-9 -89.5l254 -743l223 743q19 63 -21 88t-147 31z" />
    <glyph glyph-name="wcircumflex" unicode="&#x175;" horiz-adv-x="1796" 
d="M1176 1073l-277 217l-278 -217l-48 41l304 340h43l303 -340zM1309 954v72h456v-72l-39 -4q-126 -12 -163 -135l-254 -821h-181l-243 696l-215 -696h-181l-286 821q-26 73 -50 100q-24 29 -81 35l-41 4v72h524v-72l-43 -4q-86 -8 -43 -135l193 -582l178 588q-26 70 -50 95
q-24 28 -79 34l-41 4v72h524v-72l-43 -4q-86 -8 -43 -135l192 -582l177 582q18 61 -10.5 96t-92.5 39z" />
    <glyph glyph-name="Ycircumflex" unicode="&#x176;" horiz-adv-x="1308" 
d="M928 1319l-277 217l-278 -217l-47 41l303 340h43l303 -340zM864 1202v70q212 -10 414 0v-70q-77 -6 -124 -35t-79 -94l-278 -536v-342q0 -68 32 -94q32 -25 123 -31v-70q-302 10 -600 0v70q91 6 123 31q33 26 33 94v323l-309 563q-40 73 -68 93q-32 25 -100 28v70
q295 -10 596 0v-70q-85 -6 -108 -36.5t9 -86.5l234 -436l225 432q57 113 -123 127z" />
    <glyph glyph-name="ycircumflex" unicode="&#x177;" horiz-adv-x="1179" 
d="M864 1073l-276 217l-279 -217l-47 41l303 340h43l303 -340zM752 954v72h397v-72l-62 -4q-74 -5 -116 -121l-492 -1269h-106l182 434l-360 840q-49 115 -101 116l-63 4v72h526v-72l-61 -4q-36 -2 -46.5 -31.5t9.5 -87.5l215 -536l211 534q20 53 0.5 85t-66.5 36z" />
    <glyph glyph-name="Ydieresis" unicode="&#x178;" horiz-adv-x="1308" 
d="M523 1456q-37 -39 -91 -39q-53 0 -92 39t-39 92q0 54 39 91q40 38 92 38q53 0 91 -38t38 -91q0 -52 -38 -92zM963 1456q-37 -39 -91 -39q-53 0 -92 39t-39 92q0 54 39 91q40 38 92 38q53 0 91 -38t38 -91q0 -52 -38 -92zM864 1202v70q212 -10 414 0v-70q-77 -6 -124 -35
t-79 -94l-278 -536v-342q0 -68 32 -94q32 -25 123 -31v-70q-302 10 -600 0v70q91 6 123 31q33 26 33 94v323l-309 563q-40 73 -68 93q-32 25 -100 28v70q295 -10 596 0v-70q-85 -6 -108 -36.5t9 -86.5l234 -436l225 432q57 113 -123 127z" />
    <glyph glyph-name="Zacute" unicode="&#x179;" horiz-adv-x="1196" 
d="M397 1395l-28 45l280 233q45 37 88 37t70 -39t8 -84q-18 -46 -72 -65zM987 94l49 -8q37 -6 37 -33v-53q-516 8 -1032 0l729 1192h-360q-91 0 -137 -40q-47 -41 -99 -155h-84l72 289h88q68 -14 217 -14h661l-729 -1192h179q128 0 207 36q80 35 151 122l96 118h103
q-83 -121 -148 -262z" />
    <glyph glyph-name="zacute" unicode="&#x17a;" horiz-adv-x="985" 
d="M297 1149l-29 45l281 233q45 37 88 37t69 -39q27 -39 8 -84q-18 -45 -71 -65zM860 301h68l-70 -301h-768q-35 0 -46 24.5t9 55.5l563 878l-262 -2q-81 0 -118 -37q-38 -36 -99 -153h-63l71 274h88q68 -14 209 -14q329 0 502 4l-614 -960l258 2q96 0 151 46q57 48 121 183
z" />
    <glyph glyph-name="Zdotaccent" unicode="&#x17b;" horiz-adv-x="1196" 
d="M695 1446q-42 -43 -101 -43t-102 43t-43 102q0 60 43 102q44 42 102 42q59 0 101 -42t42 -102q0 -58 -42 -102zM987 94l49 -8q37 -6 37 -33v-53q-516 8 -1032 0l729 1192h-360q-91 0 -137 -40q-47 -41 -99 -155h-84l72 289h88q68 -14 217 -14h661l-729 -1192h179
q128 0 207 36q80 35 151 122l96 118h103q-83 -121 -148 -262z" />
    <glyph glyph-name="zdotaccent" unicode="&#x17c;" horiz-adv-x="985" 
d="M595 1200q-42 -43 -102 -43q-59 0 -102 43t-43 102q0 60 43 102t102 42q60 0 102 -42t42 -102q0 -58 -42 -102zM860 301h68l-70 -301h-768q-35 0 -46 24.5t9 55.5l563 878l-262 -2q-81 0 -118 -37q-38 -36 -99 -153h-63l71 274h88q68 -14 209 -14q329 0 502 4l-614 -960
l258 2q96 0 151 46q57 48 121 183z" />
    <glyph glyph-name="Zcaron" unicode="&#x17d;" horiz-adv-x="1196" 
d="M918 1661l-304 -340h-43l-303 340l47 41l279 -217l276 217zM987 94l49 -8q37 -6 37 -33v-53q-516 8 -1032 0l729 1192h-360q-91 0 -137 -40q-47 -41 -99 -155h-84l72 289h88q68 -14 217 -14h661l-729 -1192h179q128 0 207 36q80 35 151 122l96 118h103
q-83 -121 -148 -262z" />
    <glyph glyph-name="zcaron" unicode="&#x17e;" horiz-adv-x="985" 
d="M817 1415l-303 -340h-43l-303 340l47 41l279 -217l276 217zM860 301h68l-70 -301h-768q-35 0 -46 24.5t9 55.5l563 878l-262 -2q-81 0 -118 -37q-38 -36 -99 -153h-63l71 274h88q68 -14 209 -14q329 0 502 4l-614 -960l258 2q96 0 151 46q57 48 121 183z" />
    <glyph glyph-name="florin" unicode="&#x192;" horiz-adv-x="1292" 
d="M1270 1225q18 -26 11 -62q-8 -38 -40 -57q-35 -20 -66.5 -13.5t-41.5 33.5l-8 20l-7 22l-7 21q-5 13 -21 37q-6 12 -29 31q-22 21 -74 21q-72 0 -121 -45q-17 -17 -30 -61q-11 -36 -17 -69l-14 -87l-10 -80h276q11 0 18 -5t3 -13l-11 -23q-18 -34 -26 -43
q-14 -16 -41 -16h-234l-123 -871q-27 -179 -122 -279q-94 -100 -236 -100q-92 0 -163 44q-69 43 -97 106q-16 25 -6 62q10 35 45 52q37 17 67.5 8t38.5 -38q8 -13 12 -45q3 -28 13 -43q1 -2 5.5 -10.5t8.5 -15.5t8 -10q31 -22 60 -22q86 0 125 68q39 67 57 199l125 895h-106
q-24 0 -19 20l10 80h129l9 55q53 375 378 375q191 0 271 -141z" />
    <glyph glyph-name="uni01CD" unicode="&#x1cd;" 
d="M1024 1661l-303 -340h-43l-303 340l47 41l278 -217l277 217zM786 1282l379 -1022q40 -105 79 -143q41 -40 136 -47v-70q-311 8 -620 0v70q96 6 128 31t9 83l-82 226h-405l-74 -226q-18 -55 33 -81.5t174 -32.5v-70q-262 10 -523 0v70q102 7 155 40q51 32 77 105l366 1067
h168zM602 991l-166 -504h350z" />
    <glyph glyph-name="uni01CE" unicode="&#x1ce;" horiz-adv-x="1107" 
d="M864 1415l-303 -340h-43l-303 340l47 41l279 -217l276 217zM938 739v-510q0 -127 129 -137v-72q-166 -5 -346 -47q-37 13 -51 52l10 135h-16q-30 -52 -97 -110q-89 -77 -223 -77q-122 0 -207 66q-86 68 -86 201q0 142 133 230q134 89 478 165v108q0 132 -28 181
q-28 51 -106 51q-64 0 -101 -31t-47 -81q-2 -8 -6.5 -33.5t-6.5 -36t-8 -33t-12 -33t-17 -26.5t-24 -23t-31.5 -13t-41.5 -6q-61 0 -91 27t-29 82q0 116 140 196t355 80q162 0 246 -66q84 -64 84 -239zM461 94q70 0 123 56q52 57 78 116v307q-216 -55 -281 -156
q-51 -80 -51 -155q0 -76 36 -122t95 -46z" />
    <glyph glyph-name="Scommaaccent" unicode="&#x218;" horiz-adv-x="1024" 
d="M698 254q0 85 -62 149q-61 64 -206 136q-173 84 -267 178q-95 95 -95 241q0 158 111 252q113 95 288 95q84 0 163 -25t93 -25q41 0 49 33h82l16 -295h-67q-103 224 -287 226q-89 0 -142 -50q-52 -49 -52 -125q0 -78 56.5 -136.5t180.5 -114.5l48 -23l55 -27q15 -6 54 -28
q40 -21 57 -34q31 -24 50 -37q35 -24 50 -44l38 -49q24 -29 35 -60q27 -77 27 -143q0 -124 -70 -212q-128 -165 -366 -165q-95 0 -191 43q-95 43 -121 43q-57 0 -71 -57h-82l-21 311h80q51 -119 151 -185q99 -63 205 -63q96 0 153.5 51.5t57.5 139.5zM492 -618
q-20 -20 -41 -3l-21 23q74 80 74 178q0 15 -4 23q-17 -4 -35 -4q-61 0 -100 41q-39 40 -39 96q0 62 42 102q43 41 105 41q73 0 113 -54q41 -55 41 -136q0 -177 -135 -307z" />
    <glyph glyph-name="scommaaccent" unicode="&#x219;" horiz-adv-x="886" 
d="M836 281q0 -132 -107 -221q-106 -87 -242 -87q-76 0 -169 38t-107 38q-37 0 -41 -49h-80l-24 287h65q32 -103 134 -170q104 -68 196 -68q63 0 102 37t39 98q0 71 -50 115q-48 43 -163 96q-76 36 -113 57q-38 21 -99 68q-116 90 -116 232q0 130 93 209q94 81 237 81
q72 0 147 -29q72 -28 91 -28q42 0 53 41h72l18 -281h-61q-49 115 -127 169q-77 55 -156 55q-65 0 -104 -36.5t-39 -96.5q0 -61 43 -103.5t139 -87.5q5 -4 50 -24q54 -24 61 -28q18 -9 60 -33q37 -20 61 -40l51 -45q33 -30 46 -56q40 -70 40 -138zM414 -618q-20 -20 -41 -3
l-21 23q74 80 74 178q0 15 -4 23q-17 -4 -35 -4q-61 0 -100 41q-39 40 -39 96q0 62 42 102q43 41 105 41q72 0 113 -54q41 -55 41 -136q0 -177 -135 -307z" />
    <glyph glyph-name="uni021A" unicode="&#x21a;" horiz-adv-x="1167" 
d="M1069 1286h68l-72 -280h-70q12 107 -19 144q-30 38 -93 38h-158v-1016q0 -52 36 -75q36 -21 136 -27v-70q-315 8 -633 0v70q100 6 136 27q36 23 36 75v1016h-129q-72 0 -113 -35q-40 -34 -94 -147h-69l67 280h68q68 -14 237 -14h431q167 0 235 14zM543 -121q71 0 112 -54
q41 -55 41 -136q0 -177 -135 -307q-20 -20 -41 -3l-20 23q74 81 73 178q0 15 -4 23q-17 -4 -34 -4q-60 0 -101 41q-39 40 -39 96q0 62 42 102q44 41 106 41z" />
    <glyph glyph-name="uni021B" unicode="&#x21b;" horiz-adv-x="716" 
d="M655 143v-80q-78 -78 -223 -77q-134 0 -207 77t-73 230v651h-111v82q136 0 201 64q66 63 98 215h88v-279h227v-82h-227v-690q0 -166 100 -166q62 0 127 55zM352 -618q-20 -20 -41 -3l-20 23q74 80 74 178q0 13 -5 23q-17 -4 -34 -4q-60 0 -101 41q-39 40 -39 96
q0 62 42 102q43 41 106 41q72 0 112 -54q41 -55 41 -136q0 -177 -135 -307z" />
    <glyph glyph-name="uni0237" unicode="&#x237;" horiz-adv-x="606" 
d="M430 1047q36 -16 53 -54q-12 -84 -12 -291v-565q0 -308 -131 -444q-130 -135 -391 -135l-10 80q132 12 193 93q63 81 63 269v760q0 58 -30.5 79t-92.5 11v70q209 38 358 127z" />
    <glyph glyph-name="circumflex" unicode="&#x2c6;" horiz-adv-x="917" 
d="M303 1454h43l303 -340l-47 -41l-276 217l-279 -217l-47 41z" />
    <glyph glyph-name="caron" unicode="&#x2c7;" horiz-adv-x="917" 
d="M649 1415l-303 -340h-43l-303 340l47 41l279 -217l276 217z" />
    <glyph glyph-name="breve" unicode="&#x2d8;" horiz-adv-x="806" 
d="M102 1442h115q11 -47 61 -81q52 -34 125 -34q75 0 125 34q51 34 62 81h115q-7 -127 -92 -201q-83 -74 -210 -74t-210 74q-82 73 -91 201z" />
    <glyph glyph-name="dotaccent" unicode="&#x2d9;" horiz-adv-x="522" 
d="M364 1200q-42 -43 -102 -43q-59 0 -102 43t-43 102q0 60 43 102q44 42 102 42q60 0 102 -42t42 -102q0 -58 -42 -102z" />
    <glyph glyph-name="ring" unicode="&#x2da;" horiz-adv-x="641" 
d="M369 1184q-45 -45 -111 -45q-64 0 -111 45q-45 45 -45 110q0 66 45 110q47 44 111 44q65 0 111 -44q45 -44 45 -110q0 -65 -45 -110zM334 1294q0 30 -23 53t-53 23t-53 -23t-23 -53q0 -31 22.5 -54t53.5 -23q30 0 53 23.5t23 53.5z" />
    <glyph glyph-name="ogonek" unicode="&#x2db;" horiz-adv-x="786" 
d="M565 -225l60 -39q-31 -62 -105 -105q-73 -45 -190 -45q-89 0 -159 41q-69 41 -69 135q0 79 73 146q73 68 183 96h140q-176 -59 -176 -188q0 -52 32.5 -82.5t81.5 -30.5q78 0 129 72z" />
    <glyph glyph-name="tilde" unicode="&#x2dc;" horiz-adv-x="995" 
d="M780 1409h84q35 -111 -27 -179q-61 -67 -157 -67q-92 0 -222 63q-129 64 -190 64q-45 0 -65 -29q-19 -28 -10 -53h-80q-32 104 27 172t165 68q93 0 220 -59q125 -58 180 -58q39 0 60 24.5t15 53.5z" />
    <glyph glyph-name="hungarumlaut" unicode="&#x2dd;" horiz-adv-x="1228" 
d="M127 1149l-27 45l256 233q39 37 79 37t63 -39q25 -38 8 -84t-66 -65zM481 1149l-26 45l256 233q39 37 78.5 37t62.5 -39q25 -38 8 -84t-65 -65z" />
    <glyph glyph-name="gravecomb" unicode="&#x300;" horiz-adv-x="0" 
d="M-382 1427l281 -233l-29 -45l-346 127q-53 20 -71 65q-19 45 8 84q26 39 69 39t88 -37z" />
    <glyph glyph-name="acutecomb" unicode="&#x301;" horiz-adv-x="0" 
d="M-526 1149l-29 45l281 233q45 37 88 37t70 -39q26 -39 8 -84q-20 -46 -72 -65z" />
    <glyph glyph-name="uni0302" unicode="&#x302;" horiz-adv-x="0" 
d="M-346 1454h43l303 -340l-47 -41l-277 217l-278 -217l-47 41z" />
    <glyph glyph-name="tildecomb" unicode="&#x303;" horiz-adv-x="0" 
d="M-199 1409h84q35 -112 -26 -179t-158 -67q-91 0 -222 63q-129 64 -190 64q-44 0 -64 -29t-11 -53h-80q-31 103 28 172q59 68 164 68q93 0 220 -59q125 -58 180 -58q39 0 60 24.5t15 53.5z" />
    <glyph glyph-name="uni0304" unicode="&#x304;" horiz-adv-x="0" 
d="M-764 1235v76q0 35 37 35h588q37 0 37 -35v-76q0 -35 -37 -35h-588q-37 0 -37 35z" />
    <glyph glyph-name="uni0306" unicode="&#x306;" horiz-adv-x="0" 
d="M-705 1442h115q11 -47 62 -81q50 -34 125 -34q73 0 125 34q50 34 61 81h115q-7 -127 -91 -201q-83 -74 -210 -74t-210 74t-92 201z" />
    <glyph glyph-name="uni0307" unicode="&#x307;" horiz-adv-x="0" 
d="M-159 1200q-42 -43 -101 -43t-102 43q-44 44 -44 102q0 60 44 102t102 42q59 0 101 -42t42 -102q0 -58 -42 -102z" />
    <glyph glyph-name="uni0308" unicode="&#x308;" horiz-adv-x="0" 
d="M-478 1210q-37 -39 -91 -39q-55 0 -92 39q-39 39 -39 92q0 54 39 92q38 38 92 38q53 0 91 -38t38 -92q0 -52 -38 -92zM-38 1210q-37 -39 -91 -39q-53 0 -92 39t-39 92q0 54 39 92q40 38 92 38q53 0 91 -38t38 -92q0 -52 -38 -92z" />
    <glyph glyph-name="uni030A" unicode="&#x30a;" horiz-adv-x="0" 
d="M-147 1184q-47 -45 -111 -45q-66 0 -111 45t-45 110q0 66 45 110q46 44 111 44q64 0 111 -44q45 -44 45 -110q0 -65 -45 -110zM-182 1294q0 30 -23 53t-53 23t-53 -23t-23 -53q0 -31 22.5 -54t53.5 -23q30 0 53 23.5t23 53.5z" />
    <glyph glyph-name="uni030B" unicode="&#x30b;" horiz-adv-x="0" 
d="M-842 1149l-26 45l256 233q39 37 78.5 37t62.5 -39q25 -39 9 -84q-17 -46 -66 -65zM-487 1149l-27 45l256 233q39 37 79 37t62 -39q25 -39 9 -84q-17 -46 -66 -65z" />
    <glyph glyph-name="uni030C" unicode="&#x30c;" horiz-adv-x="0" 
d="M0 1415l-303 -340h-43l-303 340l47 41l278 -217l277 217z" />
    <glyph glyph-name="uni0326" unicode="&#x326;" horiz-adv-x="0" 
d="M-279 -618q-20 -20 -40 -3l-21 23q74 80 74 178q0 15 -4 23q-17 -4 -35 -4q-61 0 -100 41q-39 40 -39 96q0 62 42 102q43 41 105 41q73 0 113 -54q41 -55 41 -136q-2 -177 -136 -307z" />
    <glyph glyph-name="uni0327" unicode="&#x327;" horiz-adv-x="0" 
d="M-350 -362q86 0 86 90q0 92 -148 129q-43 12 -43 39q0 12 14 38q25 42 42 70h80l-23 -65q240 -72 240 -191q0 -74 -76 -116t-174 -42q-95 0 -159 32q-64 31 -64 93q0 29 19.5 48.5t49.5 19.5q38 0 56 -21t18 -51t21 -51.5t61 -21.5z" />
    <glyph glyph-name="uni0328" unicode="&#x328;" horiz-adv-x="0" 
d="M-162 -225l60 -39q-32 -62 -105 -105q-73 -45 -190 -45q-89 0 -159 41q-69 41 -69 135q0 79 73 146q74 68 183 96h140q-175 -58 -177 -188q0 -52 33 -82.5t82 -30.5q78 0 129 72z" />
    <glyph glyph-name="uni0335" unicode="&#x335;" horiz-adv-x="0" 
d="M-129 506h-608q-27 0 -27 29v43q0 14 7 21.5t20 6.5h608q27 0 27 -28v-43q0 -29 -27 -29z" />
    <glyph glyph-name="increment" unicode="&#x394;" horiz-adv-x="1318" 
d="M639 1298l639 -1298h-1237zM590 942l-352 -743h712z" />
    <glyph glyph-name="Omega" unicode="&#x3a9;" horiz-adv-x="1515" 
d="M1274 203l37 51h123l-68 -207q-17 -47 -59 -47h-420v317q109 10 173 124q64 113 64 284q0 199 -98 321q-98 123 -268 123t-269 -123q-98 -122 -98 -321q0 -169 65 -284q67 -114 175 -124v-317h-422q-42 0 -59 47l-68 207h121l37 -51q49 -70 143 -70h106q27 0 29 33
q-179 51 -291 196t-112 340q0 242 181 422q181 181 461 181q281 0 462 -181q182 -180 182 -422q0 -182 -114 -332q-113 -150 -288 -202q5 -35 27 -35h107q96 0 141 70z" />
    <glyph glyph-name="mu" unicode="&#x3bc;" horiz-adv-x="1232" 
d="M1073 983v-754q0 -127 129 -137v-72q-166 -5 -346 -47q-37 13 -51 52l22 196h-14q-38 -87 -129 -169q-92 -83 -231 -83q-95 0 -166 43q9 -69 32 -124.5t47 -79.5q57 -57 54 -80q-11 -75 -78 -115q-68 -41 -130 -17q-62 23 -62 107v1174q0 64 -58 65l-61 2v70l338 20
q57 4 57 -51v-635q0 -254 135 -254q82 0 145 74q63 72 91 149v560q0 64 -58 65l-61 2v70l338 20q57 4 57 -51z" />
    <glyph glyph-name="pi" unicode="&#x3c0;" horiz-adv-x="1677" 
d="M1460 254q49 0 77 -28.5t28 -78.5q0 -169 -269 -167q-167 0 -250.5 71.5t-82.5 214.5v576h-154v-576q0 -132 -97 -205q-95 -73 -233 -73q-126 0 -182 22l-27 115q59 -12 113 -11q60 1 99.5 48.5t39.5 130.5v549h-90q-47 0 -66 -49q-18 -47 -10 -108q9 -60 33 -105
l-217 26q-88 129 -45 223q44 95 168 95h1233v-82h-180q-97 0 -99 -101v-542q0 -131 49 -131q46 0 62 93q7 39 32.5 66t67.5 27z" />
    <glyph glyph-name="afii10023" unicode="&#x401;" horiz-adv-x="1120" 
d="M433 1456q-38 -39 -91 -39t-92 39t-39 92q0 54 39 91q40 38 92 38q53 0 91 -38t38 -91q0 -52 -38 -92zM873 1456q-37 -39 -91 -39q-53 0 -92 39t-39 92q0 54 39 91q40 38 92 38q53 0 91 -38t38 -91q0 -52 -38 -92zM911 219l78 137h70q-61 -181 -66 -356q-481 12 -942 0
v70q85 6 117 27q31 22 31 75v948q0 43 -31 59q-33 17 -117 23v70h905q19 0 25 -7t10 -30l33 -244h-66l-22 45q-45 92 -98 127t-162 35h-137q-51 0 -52 -55v-443h220q75 0 106 30q33 30 51 97h58q-14 -173 0 -342h-58q-18 70 -51 100q-32 31 -106 31h-220v-444
q0 -53 18 -72.5t66 -19.5h68q113 0 170 30q57 32 102 109z" />
    <glyph glyph-name="afii10052" unicode="&#x403;" horiz-adv-x="1093" 
d="M350 1395l-28 45l280 233q45 37 88 37t69 -39q27 -39 9 -84q-18 -46 -72 -65zM1030 1235l33 -244h-88l-25 43q-51 88 -92 118q-44 32 -125 32h-241v-1030q0 -37 32.5 -53.5t118.5 -22.5v-78q-295 10 -592 0v78q86 6 119 22.5t33 53.5v964q0 37 -33 53.5t-119 22.5v78h944
q20 0 25.5 -6.5t9.5 -30.5z" />
    <glyph glyph-name="afii10053" unicode="&#x404;" horiz-adv-x="1269" 
d="M1126 346h103q-43 -159 -168 -269q-125 -108 -346 -108q-289 0 -466 184t-177 488q0 286 175 474q175 190 437 190q90 0 188 -24q99 -24 150 -24q45 0 96 13q18 -187 94 -357h-149q-139 303 -389 304q-140 0 -218.5 -133.5t-78.5 -385.5h502v-86h-500q17 -247 115 -398
q100 -151 268 -151q268 0 364 283z" />
    <glyph glyph-name="afii10055" unicode="&#x406;" horiz-adv-x="694" 
d="M492 1100v-928q0 -53 32 -74.5t119 -27.5v-70q-295 10 -592 0v70q87 6 119.5 27.5t32.5 74.5v928q0 53 -32.5 74.5t-119.5 27.5v70q297 -10 592 0v-70q-87 -6 -119 -27.5t-32 -74.5z" />
    <glyph glyph-name="afii10056" unicode="&#x407;" horiz-adv-x="694" 
d="M220 1456q-38 -39 -91 -39t-92 39t-39 92q0 54 39 91q40 38 92 38q53 0 91 -38t38 -91q0 -52 -38 -92zM660 1456q-38 -39 -91 -39t-92 39t-39 92q0 54 39 91q40 38 92 38q53 0 91 -38t38 -91q0 -52 -38 -92zM492 1100v-928q0 -53 32 -74.5t119 -27.5v-70q-295 10 -592 0
v70q87 6 119.5 27.5t32.5 74.5v928q0 53 -32.5 74.5t-119.5 27.5v70q297 -10 592 0v-70q-87 -6 -119 -27.5t-32 -74.5z" />
    <glyph glyph-name="afii10061" unicode="&#x40c;" horiz-adv-x="1392" 
d="M846 1522l-346 -127l-29 45l281 233q45 37 88 37t69 -39q27 -39 8 -84q-18 -45 -71 -65zM709 768l366 -496q158 -215 287 -227l-70 -78q-146 0 -249 36t-189 153l-313 422l-60 -68v-356q0 -37 33 -53.5t119 -22.5v-78q-297 10 -592 0v78q86 6 119 22.5t33 53.5v964
q0 37 -33 53.5t-119 22.5v78q297 -10 592 0v-78q-86 -6 -119 -22.5t-33 -53.5v-463l359 408q108 119 113 125q30 31 92 64q62 32 133 32q74 0 117.5 -33.5t43.5 -89.5q0 -47 -30.5 -75.5t-73.5 -28.5q-36 0 -62 15.5t-33 36.5q-19 52 -50 52q-35 0 -80 -49z" />
    <glyph glyph-name="afii10062" unicode="&#x40e;" horiz-adv-x="1310" 
d="M354 1688h115q11 -47 61 -81q52 -34 125 -34t124 33t63 82h114q-7 -127 -91 -201q-83 -74 -210 -74t-210 74q-84 74 -91 201zM874 1194v78q203 -11 406 0v-78q-75 -6 -117 -29t-67 -75l-551 -1059q-9 -17 -14 -24t-19.5 -12t-40.5 -5q-39 0 -48 9t5 32l174 319l-422 762
q-14 30 -24 40q-11 13 -43.5 26t-81.5 16v78q297 -10 592 0v-78q-78 -6 -104 -27t-7 -55l250 -469l233 449q26 47 -6.5 71.5t-114.5 30.5z" />
    <glyph glyph-name="afii10017" unicode="&#x410;" 
d="M786 1282l379 -1022q40 -105 79 -143q41 -40 136 -47v-70q-311 8 -620 0v70q96 6 128 31t9 83l-82 226h-405l-74 -226q-18 -55 33 -81.5t174 -32.5v-70q-262 10 -523 0v70q102 7 155 40q51 32 77 105l366 1067h168zM602 991l-166 -504h350z" />
    <glyph glyph-name="afii10018" unicode="&#x411;" horiz-adv-x="1224" 
d="M492 780l65 -2q318 -12 473 -123q154 -109 154 -282q0 -166 -131 -270q-130 -103 -410 -103q-295 10 -592 0v78q86 6 119 22.5t33 53.5v964q0 37 -33 53.5t-119 22.5v78h944q19 0 25 -7t10 -30l33 -244h-88l-25 43q-51 88 -92 118q-44 32 -125 32h-241v-404zM643 78h2
q131 0 197 84q67 83 67 211q0 309 -356 323l-61 2v-544q0 -37 32.5 -53.5t118.5 -22.5z" />
    <glyph glyph-name="afii10019" unicode="&#x412;" horiz-adv-x="1290" 
d="M874 694q375 -66 375 -342q0 -171 -147 -261.5t-428 -90.5h-623v70q85 6 117 27q31 22 31 75v924q0 53 -30 76.5t-106 29.5v70q79 -4 181 -4q63 0 185 2q23 0 52 0.5t45 1t25 0.5q307 0 434 -88t127 -223q0 -183 -238 -267zM487 1196v-508q198 32 275 94q78 64 78 183
q0 110 -59.5 171.5t-180.5 61.5q-71 0 -113 -2zM598 80h72q143 0 215 68t71 204q0 135 -73.5 209t-216.5 74l-179 -31v-426q0 -56 20 -78q22 -20 91 -20z" />
    <glyph glyph-name="afii10020" unicode="&#x413;" horiz-adv-x="1093" 
d="M1030 1235l33 -244h-88l-25 43q-51 88 -92 118q-44 32 -125 32h-241v-1030q0 -37 32.5 -53.5t118.5 -22.5v-78q-295 10 -592 0v78q86 6 119 22.5t33 53.5v964q0 37 -33 53.5t-119 22.5v78h944q20 0 25.5 -6.5t9.5 -30.5z" />
    <glyph glyph-name="afii10021" unicode="&#x414;" horiz-adv-x="1347" 
d="M1296 1272v-78q-86 -6 -118.5 -22.5t-32.5 -53.5v-964q0 -37 32 -52.5t119 -21.5v-356h-75q-6 73 -15 110q-7 36 -35 82q-49 84 -231 84h-563q-182 0 -232 -84q-26 -46 -35 -83q-8 -41 -14 -109h-76v356q126 0 185 77t59 242v719q0 37 -32.5 53.5t-118.5 22.5v78h1183z
M348 80h357q83 0 117 17t34 57v964q0 76 -151 76h-117q-152 0 -152 -76v-600q0 -186 -18 -286q-16 -98 -70 -152z" />
    <glyph glyph-name="afii10022" unicode="&#x415;" horiz-adv-x="1120" 
d="M911 219l78 137h70q-61 -181 -66 -356q-481 12 -942 0v70q85 6 117 27q31 22 31 75v948q0 43 -31 59q-33 17 -117 23v70h905q19 0 25 -7t10 -30l33 -244h-66l-22 45q-45 92 -98 127t-162 35h-137q-51 0 -52 -55v-443h220q75 0 106 30q33 30 51 97h58q-14 -173 0 -342h-58
q-18 70 -51 100q-32 31 -106 31h-220v-444q0 -53 18 -72.5t66 -19.5h68q113 0 170 30q57 32 102 109z" />
    <glyph glyph-name="afii10024" unicode="&#x416;" horiz-adv-x="2121" 
d="M1438 768l366 -496q158 -215 287 -227l-70 -78q-145 0 -249 36t-189 153l-313 422l-60 -68v-356q0 -37 33 -53.5t119 -22.5v-78q-297 10 -592 0v78q86 6 119 22.5t33 53.5v356l-60 68l-313 -422q-85 -117 -190 -153q-103 -36 -248 -36l-70 78q129 12 287 227l366 496
l-301 344q-45 49 -80 49q-31 0 -50 -52q-7 -21 -33 -36.5t-62 -15.5q-43 0 -74 28.5t-31 75.5q0 55 44.5 89t117.5 34q71 0 132 -32q60 -31 92 -64q23 -24 114 -125l359 -408v463q0 37 -33 53.5t-119 22.5v78q295 -10 592 0v-78q-86 -6 -119 -22.5t-33 -53.5v-463l359 408
q108 119 113 125q30 31 92 64q62 32 133 32q74 0 117.5 -33.5t43.5 -89.5q0 -47 -30.5 -75.5t-73.5 -28.5q-36 0 -62 15.5t-33 36.5q-19 52 -50 52q-35 0 -80 -49z" />
    <glyph glyph-name="afii10025" unicode="&#x417;" horiz-adv-x="1202" 
d="M719 719q170 35 296 -58q126 -91 126 -253q0 -202 -171 -321q-170 -118 -405 -118q-210 0 -331 107q-118 108 -162 270h102q96 -283 377 -283q143 0 227 86q84 87 84 232q0 115 -57 186q-57 72 -141 72q-48 0 -160 -45l-33 86l80 35q219 96 219 278q0 103 -50.5 163.5
t-139.5 60.5q-203 0 -342 -304h-150q76 168 94 357q50 -11 97 -13q53 0 151 24t186 24q172 0 284 -85t112 -212q0 -103 -82 -176q-84 -74 -211 -113z" />
    <glyph glyph-name="afii10026" unicode="&#x418;" horiz-adv-x="1423" 
d="M1372 1272v-78q-86 -6 -118.5 -22.5t-32.5 -53.5v-964q0 -37 32.5 -53.5t118.5 -22.5v-78q-295 10 -592 0v78q86 6 119 22.5t33 53.5v706l-440 -592v-114q0 -37 32.5 -53.5t118.5 -22.5v-78q-295 10 -592 0v78q86 6 119 22.5t33 53.5v964q0 37 -33 53.5t-119 22.5v78
q297 -10 592 0v-78q-86 -6 -118.5 -22.5t-32.5 -53.5v-721l440 592v129q0 37 -33 53.5t-119 22.5v78q295 -10 592 0z" />
    <glyph glyph-name="afii10027" unicode="&#x419;" horiz-adv-x="1423" 
d="M422 1688h115q11 -47 61 -81t125 -34q74 0 125 33q51 34 61 82h115q-7 -127 -91 -201q-83 -74 -210 -74t-210 74q-84 74 -91 201zM1372 1272v-78q-86 -6 -118.5 -22.5t-32.5 -53.5v-964q0 -37 32.5 -53.5t118.5 -22.5v-78q-295 10 -592 0v78q86 6 119 22.5t33 53.5v706
l-440 -592v-114q0 -37 32.5 -53.5t118.5 -22.5v-78q-295 10 -592 0v78q86 6 119 22.5t33 53.5v964q0 37 -33 53.5t-119 22.5v78q297 -10 592 0v-78q-86 -6 -118.5 -22.5t-32.5 -53.5v-721l440 592v129q0 37 -33 53.5t-119 22.5v78q295 -10 592 0z" />
    <glyph glyph-name="afii10028" unicode="&#x41a;" horiz-adv-x="1392" 
d="M709 768l366 -496q158 -215 287 -227l-70 -78q-146 0 -249 36t-189 153l-313 422l-60 -68v-356q0 -37 33 -53.5t119 -22.5v-78q-297 10 -592 0v78q86 6 119 22.5t33 53.5v964q0 37 -33 53.5t-119 22.5v78q297 -10 592 0v-78q-86 -6 -119 -22.5t-33 -53.5v-463l359 408
q108 119 113 125q30 31 92 64q62 32 133 32q74 0 117.5 -33.5t43.5 -89.5q0 -47 -30.5 -75.5t-73.5 -28.5q-36 0 -62 15.5t-33 36.5q-19 52 -50 52q-35 0 -80 -49z" />
    <glyph glyph-name="afii10029" unicode="&#x41b;" horiz-adv-x="1429" 
d="M1378 1272v-78q-86 -6 -118.5 -22.5t-32.5 -53.5v-964q0 -37 32.5 -53.5t118.5 -22.5v-78q-297 10 -592 0v78q86 6 119 22.5t33 53.5v964q0 76 -152 76h-137q-76 0 -114 -19t-37 -57v-579q0 -179 -22 -283q-21 -106 -79 -170q-56 -62 -144 -85q-87 -21 -233 -21v79
q126 0 185 77.5t59 242.5v739q0 37 -32.5 53.5t-118.5 22.5v78h1265z" />
    <glyph glyph-name="afii10030" unicode="&#x41c;" horiz-adv-x="1648" 
d="M1466 1079v-884q0 -69 33 -94q32 -25 119 -31v-70q-295 10 -592 0v70q87 6 119 31q33 26 33 94v841l-383 -1036h-27l-428 1036v-841q0 -61 54 -88.5t171 -36.5v-70q-275 10 -534 0v70q111 9 163 36.5t52 88.5v854q0 69 -47.5 108t-135.5 45v70q229 -10 459 0l342 -830
l307 830q221 -8 447 0v-70q-89 -6 -120 -31q-32 -24 -32 -92z" />
    <glyph glyph-name="afii10031" unicode="&#x41d;" horiz-adv-x="1419" 
d="M1368 1272v-70q-87 -6 -119 -27.5t-32 -74.5v-928q0 -53 32 -74.5t119 -27.5v-70q-295 10 -592 0v70q87 6 119.5 27.5t32.5 74.5v424h-436v-424q0 -53 32 -74.5t119 -27.5v-70q-295 10 -592 0v70q87 6 119.5 27.5t32.5 74.5v928q0 53 -32.5 74.5t-119.5 27.5v70
q297 -10 592 0v-70q-87 -6 -119 -27.5t-32 -74.5v-422h436v422q0 53 -32.5 74.5t-119.5 27.5v70q297 -10 592 0z" />
    <glyph glyph-name="afii10032" unicode="&#x41e;" horiz-adv-x="1361" 
d="M680 1305q266 0 438 -187q172 -185 172 -489q0 -286 -173 -474q-173 -186 -435 -186q-266 0 -438 186q-172 187 -172 490q0 286 173 473q172 187 435 187zM715 55q123 0 196 133q74 134 74 387q0 275 -94 459q-95 185 -244 185q-123 0 -197 -134q-73 -133 -73 -387
q0 -275 94 -459t244 -184z" />
    <glyph glyph-name="afii10033" unicode="&#x41f;" horiz-adv-x="1423" 
d="M1372 1272v-78q-86 -6 -118.5 -22.5t-32.5 -53.5v-964q0 -37 32.5 -53.5t118.5 -22.5v-78q-295 10 -592 0v78q86 6 119 22.5t33 53.5v964q0 76 -152 76h-137q-76 0 -114 -19t-37 -57v-964q0 -37 32.5 -53.5t118.5 -22.5v-78q-295 10 -592 0v78q86 6 119 22.5t33 53.5v964
q0 37 -33 53.5t-119 22.5v78h1321z" />
    <glyph glyph-name="afii10034" unicode="&#x420;" horiz-adv-x="1208" 
d="M532 492l-45 -7v-313q0 -53 31 -75q32 -21 117 -27v-70q-291 8 -584 0v70q85 6 117 27q31 22 31 75v944q0 45 -28.5 62.5t-107.5 23.5v70q79 -4 185 -4q65 0 195 2q24 0 55.5 0.5t48.5 1t26 0.5q584 0 584 -348q0 -174 -149 -281q-148 -106 -476 -151zM487 1198v-631
l41 4q354 37 355 340q0 135 -66 211t-196 76h-134z" />
    <glyph glyph-name="afii10035" unicode="&#x421;" horiz-adv-x="1265" 
d="M1126 346h99q-40 -159 -165 -269q-124 -108 -343 -108q-288 0 -466 190q-179 191 -179 488q0 294 174 475q174 183 448 183q80 0 171 -25t153 -25q49 0 100 15q20 -201 84 -357h-139q-136 302 -369 304q-155 0 -236 -128t-81 -378q0 -285 104 -467q105 -181 299 -181
q116 0 206.5 70.5t139.5 212.5z" />
    <glyph glyph-name="afii10036" unicode="&#x422;" horiz-adv-x="1167" 
d="M1069 1286h68l-72 -280h-70q12 107 -19 144q-30 38 -93 38h-158v-1016q0 -52 36 -75q36 -21 136 -27v-70q-315 8 -633 0v70q100 6 136 27q36 23 36 75v1016h-129q-72 0 -113 -35q-40 -34 -94 -147h-69l67 280h68q68 -14 237 -14h431q167 0 235 14z" />
    <glyph glyph-name="afii10037" unicode="&#x423;" horiz-adv-x="1310" 
d="M874 1194v78q203 -11 406 0v-78q-75 -6 -117 -29t-67 -75l-551 -1059q-9 -17 -14 -24t-19.5 -12t-40.5 -5q-39 0 -48 9t5 32l174 319l-422 762q-14 30 -24 40q-11 13 -43.5 26t-81.5 16v78q297 -10 592 0v-78q-78 -6 -104 -27t-7 -55l250 -469l233 449q26 47 -6.5 71.5
t-114.5 30.5z" />
    <glyph glyph-name="afii10038" unicode="&#x424;" horiz-adv-x="1712" 
d="M1001 160v-6q0 -37 33 -53.5t119 -22.5v-78q-295 10 -592 0v78q86 6 119 22.5t33 53.5v6q-303 5 -471 128q-170 125 -170 349t170 349q168 123 471 128v4q0 37 -33 53.5t-119 22.5v78q297 -10 592 0v-78q-86 -6 -119 -22.5t-33 -53.5v-4q301 -5 469 -128
q170 -125 170 -349t-170 -349q-168 -123 -469 -128zM713 242v790q-163 -7 -243 -119q-79 -109 -79 -276t79 -277q80 -111 243 -118zM1001 1032v-790q163 7 242 118q78 111 78 277q0 167 -78 276q-78 111 -242 119z" />
    <glyph glyph-name="afii10039" unicode="&#x425;" horiz-adv-x="1306" 
d="M758 711l307 -508q45 -74 83 -101q39 -27 107 -32v-70q-268 10 -550 0v70q137 17 83 102l-188 313l-205 -292q-33 -57 -12.5 -87t88.5 -36v-70q-195 8 -420 0v70q149 7 244 141l252 360l-301 498q-40 67 -83 96q-44 30 -110 37v70q258 -8 539 0v-70q-123 -16 -72 -100
l185 -305l198 284q28 51 2.5 81.5t-94.5 39.5v70q207 -8 416 0v-70q-138 -17 -223 -139z" />
    <glyph glyph-name="afii10040" unicode="&#x426;" horiz-adv-x="1423" 
d="M1372 1272v-78q-86 -6 -118.5 -22.5t-32.5 -53.5v-964q0 -37 32.5 -53.5t118.5 -22.5v-354h-76q-6 69 -14 110q-7 36 -35 82q-49 84 -231 84h-965v78q86 6 119 22.5t33 53.5v964q0 37 -33 53.5t-119 22.5v78q297 -10 592 0v-78q-86 -6 -118.5 -22.5t-32.5 -53.5v-964
q0 -76 151 -76h137q152 0 152 76v964q0 37 -33 53.5t-119 22.5v78q295 -10 592 0z" />
    <glyph glyph-name="afii10041" unicode="&#x427;" horiz-adv-x="1417" 
d="M1366 1272v-78q-86 -6 -119 -22.5t-33 -53.5v-964q0 -37 33 -53.5t119 -22.5v-78q-297 10 -592 0v78q86 6 119 22.5t33 53.5v292l18 127q-137 -210 -373 -208q-184 0 -276.5 90.5t-91.5 271.5v391q0 37 -33 53.5t-119 22.5v78q297 -10 592 0v-78q-86 -6 -118.5 -22.5
t-32.5 -53.5v-381q0 -122 42 -183t125 -60q73 0 134 42q57 38 86 74t47 78v430q0 37 -33 53.5t-119 22.5v78q295 -10 592 0z" />
    <glyph glyph-name="afii10042" unicode="&#x428;" horiz-adv-x="2025" 
d="M1974 1272v-78q-86 -6 -118.5 -22.5t-32.5 -53.5v-964q0 -37 32.5 -53.5t118.5 -22.5v-78h-1923v78q86 6 119 22.5t33 53.5v964q0 37 -33 53.5t-119 22.5v78q297 -10 592 0v-78q-86 -6 -118.5 -22.5t-32.5 -53.5v-964q0 -76 151 -76h74q76 0 114 19t37 57v964
q0 37 -32.5 53.5t-118.5 22.5v78q295 -10 592 0v-78q-86 -6 -119 -22.5t-33 -53.5v-964q0 -76 152 -76h73q152 0 152 76v964q0 37 -33 53.5t-119 22.5v78q297 -10 592 0z" />
    <glyph glyph-name="afii10043" unicode="&#x429;" horiz-adv-x="2025" 
d="M1974 1272v-78q-86 -6 -118.5 -22.5t-32.5 -53.5v-964q0 -37 32.5 -53.5t118.5 -22.5v-354h-76q-6 69 -14 110q-7 36 -35 82q-49 84 -231 84h-1567v78q86 6 119 22.5t33 53.5v964q0 37 -33 53.5t-119 22.5v78q297 -10 592 0v-78q-86 -6 -118.5 -22.5t-32.5 -53.5v-964
q0 -76 151 -76h74q76 0 114 19t37 57v964q0 37 -32.5 53.5t-118.5 22.5v78q295 -10 592 0v-78q-86 -6 -119 -22.5t-33 -53.5v-964q0 -76 152 -76h73q152 0 152 76v964q0 37 -33 53.5t-119 22.5v78q297 -10 592 0z" />
    <glyph glyph-name="afii10044" unicode="&#x42a;" horiz-adv-x="1480" 
d="M717 780l65 -2q318 -12 473 -123q154 -109 154 -282q0 -166 -131 -270q-130 -103 -410 -103q-295 10 -592 0v78q86 6 119 22.5t33 53.5v1030h-78q-81 0 -125 -32q-41 -30 -92 -118l-24 -43h-89l33 244q4 24 9.5 30.5t25.5 6.5h780v-78q-86 -6 -118.5 -22.5t-32.5 -53.5
v-338zM870 78q130 0 198 84q67 83 67 211q0 309 -357 323l-61 2v-544q0 -40 35 -58t118 -18z" />
    <glyph glyph-name="afii10045" unicode="&#x42b;" horiz-adv-x="1904" 
d="M492 780l65 -2q318 -12 473 -123q154 -109 154 -282q0 -166 -131 -270q-130 -103 -410 -103q-295 10 -592 0v78q86 6 119 22.5t33 53.5v964q0 37 -33 53.5t-119 22.5v78q297 -10 592 0v-78q-86 -6 -118.5 -22.5t-32.5 -53.5v-338zM1702 1100v-928q0 -53 32 -74.5
t119 -27.5v-70q-297 10 -591 0v70q87 6 119 27.5t32 74.5v928q0 53 -32 74.5t-119 27.5v70q297 -10 591 0v-70q-87 -6 -119 -27.5t-32 -74.5zM645 78q131 0 197 84q67 83 67 211q0 309 -356 323l-61 2v-544q0 -40 35 -58t118 -18z" />
    <glyph glyph-name="afii10046" unicode="&#x42c;" horiz-adv-x="1255" 
d="M492 780l65 -2q318 -12 473 -123q154 -109 154 -282q0 -166 -131 -270q-130 -103 -410 -103q-295 10 -592 0v78q86 6 119 22.5t33 53.5v964q0 37 -33 53.5t-119 22.5v78q297 -10 592 0v-78q-86 -6 -118.5 -22.5t-32.5 -53.5v-338zM645 78q131 0 197 84q67 83 67 211
q0 309 -356 323l-61 2v-544q0 -40 35 -58t118 -18z" />
    <glyph glyph-name="afii10047" unicode="&#x42d;" horiz-adv-x="1300" 
d="M616 1305q262 0 437 -190q176 -190 176 -474q0 -304 -178 -488q-177 -184 -465 -184q-222 0 -346 108q-125 110 -168 269h102q96 -283 365 -283q168 0 267 152t116 397h-500v86h502q0 252 -78.5 385.5t-218.5 133.5q-250 0 -389 -304h-150q76 168 94 357q50 -11 97 -13
q53 0 151 24t186 24z" />
    <glyph glyph-name="afii10048" unicode="&#x42e;" horiz-adv-x="1972" 
d="M1290 1305q266 0 438 -187q173 -187 173 -489q0 -287 -174 -474q-173 -186 -435 -186q-250 0 -419 166q-168 167 -189 440h-192v-403q0 -53 32 -74.5t119 -27.5v-70q-295 10 -592 0v70q87 6 119.5 27.5t32.5 74.5v928q0 53 -32.5 74.5t-119.5 27.5v70q297 -10 592 0v-70
q-87 -6 -119 -27.5t-32 -74.5v-434h190q8 279 180 459t428 180zM1325 55q123 0 196 133q74 134 74 387q0 275 -94 459q-95 185 -244 185q-123 0 -197 -134q-73 -133 -73 -387q0 -275 94 -459t244 -184z" />
    <glyph glyph-name="afii10049" unicode="&#x42f;" horiz-adv-x="1300" 
d="M1102 1116v-944q0 -52 30 -75q32 -21 117 -27v-70q-291 7 -583 0v70q86 6 116 27q31 22 31 75v313l-45 7q-4 0 -10 2l-174 -250q-119 -169 -262 -220q-69 -25 -122 -32q-56 -8 -120 -8l-49 77q136 13 321 269l156 215q-365 110 -365 379q0 348 584 348l130 -2
q216 -5 380 2v-70q-79 -6 -107 -23.5t-28 -62.5zM772 571l41 -4v631h-133q-130 0 -196 -76t-66 -211q0 -303 354 -340z" />
    <glyph glyph-name="afii10065" unicode="&#x430;" horiz-adv-x="1107" 
d="M938 739v-510q0 -127 129 -137v-72q-166 -5 -346 -47q-37 13 -51 52l10 135h-16q-30 -52 -97 -110q-89 -77 -223 -77q-122 0 -207 66q-86 68 -86 201q0 142 133 230q134 89 478 165v108q0 132 -28 181q-28 51 -106 51q-64 0 -101 -31t-47 -81q-2 -8 -6.5 -33.5t-6.5 -36
t-8 -33t-12 -33t-17 -26.5t-24 -23t-31.5 -13t-41.5 -6q-61 0 -91 27t-29 82q0 116 140 196t355 80q162 0 246 -66q84 -64 84 -239zM461 94q70 0 123 56q52 57 78 116v307q-216 -55 -281 -156q-51 -80 -51 -155q0 -76 36 -122t95 -46z" />
    <glyph glyph-name="afii10066" unicode="&#x431;" horiz-adv-x="1116" 
d="M567 1042q198 0 347 -139q151 -139 151 -401q0 -242 -153 -382q-152 -140 -343 -140q-201 0 -349 154t-148 454q0 134 12 240q12 109 49 214q39 110 95 179q61 75 159 118t223 43h264q70 0 97 7q28 7 67 43h37q0 -60 -65 -149q-32 -46 -94.5 -75.5t-137.5 -29.5h-241
q-274 0 -336 -299q71 74 172 119q99 44 194 44zM596 61q172 0 172 369q0 244 -62 388q-62 143 -165 143q-172 0 -172 -408q0 -216 62 -355q63 -137 165 -137z" />
    <glyph glyph-name="afii10067" unicode="&#x432;" horiz-adv-x="1212" 
d="M791 569q180 -29 270 -99t90 -171q0 -135 -129 -217q-128 -82 -381 -82h-600v78q86 6 116 21q31 16 31 53v710q0 76 -135 86v78q79 -4 181 -4q64 0 184 2t121 2q483 0 483 -244q0 -68 -52 -119t-179 -94zM567 944h-102v-385q161 33 222 82q63 49 63 141q0 68 -48 115
q-47 47 -135 47zM569 88h47q116 0 179 57t63 160q0 91 -55 150q-56 62 -170 63l-168 -37v-323q0 -41 17 -56q19 -14 87 -14z" />
    <glyph glyph-name="afii10068" unicode="&#x433;" horiz-adv-x="1024" 
d="M950 989l33 -244h-88l-25 43q-51 88 -92 118q-44 32 -125 32h-184v-784q0 -37 33 -53.5t119 -22.5v-78q-289 7 -580 0v78q86 6 119 22.5t33 53.5v718q0 37 -33 53.5t-119 22.5v78h874q20 0 25.5 -6.5t9.5 -30.5z" />
    <glyph glyph-name="afii10069" unicode="&#x434;" horiz-adv-x="1247" 
d="M1206 1026v-78q-86 -6 -118.5 -22.5t-32.5 -53.5v-718q0 -37 32.5 -53.5t118.5 -22.5v-293h-76q-6 55 -14 90q-7 29 -35 65q-48 60 -231 60h-473q-183 0 -232 -60q-27 -36 -35 -65q-8 -35 -14 -90h-76v293q126 0 185 77t59 242v475q0 37 -32.5 53.5t-118.5 22.5v78h1093z
M311 78h316q86 6 118.5 22.5t32.5 53.5v718q0 76 -151 76h-56q-76 0 -114 -19t-37 -57v-356q0 -178 -24.5 -281t-84.5 -157z" />
    <glyph glyph-name="afii10070" unicode="&#x435;" horiz-adv-x="1038" 
d="M874 209h78q-103 -230 -377 -232q-217 0 -366 143q-148 144 -148 392q0 250 145 391q146 141 345 141q183 0 305 -119q121 -118 121 -292q0 -77 -27 -110.5t-92 -33.5h-508q0 -186 69 -309q71 -123 216 -123q165 0 239 152zM350 563h371q0 203 -41 303.5t-131 100.5
q-94 0 -146.5 -106.5t-52.5 -297.5z" />
    <glyph glyph-name="afii10072" unicode="&#x436;" horiz-adv-x="1906" 
d="M1327 659l279 -376q168 -225 280 -238l-69 -78q-131 0 -224 35q-88 34 -178 154l-244 327l-79 -92v-237q0 -37 32.5 -53.5t118.5 -22.5v-78q-289 8 -579 0v78q86 6 118.5 22.5t32.5 53.5v237l-80 92l-243 -327q-90 -120 -179 -154q-91 -35 -223 -35l-70 78
q113 12 281 238l279 376l-185 209q-43 49 -80 50q-32 0 -50 -53q-7 -21 -33 -36.5t-62 -15.5q-43 0 -73.5 28.5t-30.5 76.5q0 55 44 88.5t117 33.5q83 0 154 -51q69 -50 174 -170l260 -295v348q0 37 -32.5 53.5t-118.5 22.5v78q290 -8 579 0v-78q-86 -6 -118.5 -22.5
t-32.5 -53.5v-348l260 295q104 119 173 170q71 51 154 51q74 0 118 -33.5t44 -88.5q0 -47 -30.5 -76t-73.5 -29q-36 0 -61.5 15.5t-34.5 36.5q-18 53 -50 53q-36 0 -80 -50z" />
    <glyph glyph-name="afii10073" unicode="&#x437;" horiz-adv-x="997" 
d="M682 594q108 -7 181 -80q73 -72 73 -176q0 -154 -137 -256t-340 -102q-147 0 -254 80q-107 81 -144 225h113q73 -220 272 -222q102 0 162 72t60 182q0 77 -38 130t-91 53q-37 0 -138 -39l-36 88l79 33q156 66 156 204q0 77 -35.5 124.5t-95.5 47.5q-146 0 -238 -227h-153
q60 137 74 291q55 -16 96 -16q36 0 106 18q72 18 148 18q152 0 244 -69q92 -68 92 -168q0 -123 -156 -211z" />
    <glyph glyph-name="afii10074" unicode="&#x438;" horiz-adv-x="1339" 
d="M1298 1026v-78q-86 -6 -118.5 -22.5t-32.5 -53.5v-718q0 -37 32.5 -53.5t118.5 -22.5v-78q-291 8 -579 0v78q86 6 118.5 22.5t32.5 53.5v532l-401 -477v-55q0 -37 33 -53.5t119 -22.5v-78q-289 7 -580 0v78q86 6 119 22.5t33 53.5v718q0 37 -33 53.5t-119 22.5v78
q291 -7 580 0v-78q-86 -6 -119 -22.5t-33 -53.5v-542l401 477v65q0 37 -32.5 53.5t-118.5 22.5v78q291 -8 579 0z" />
    <glyph glyph-name="afii10075" unicode="&#x439;" horiz-adv-x="1339" 
d="M369 1442h114q11 -47 61 -81q52 -34 125 -34q75 0 125 34q51 34 62 81h115q-7 -127 -91 -201q-83 -74 -210 -74t-210 74q-84 74 -91 201zM1298 1026v-78q-86 -6 -118.5 -22.5t-32.5 -53.5v-718q0 -37 32.5 -53.5t118.5 -22.5v-78q-291 8 -579 0v78q86 6 118.5 22.5
t32.5 53.5v532l-401 -477v-55q0 -37 33 -53.5t119 -22.5v-78q-289 7 -580 0v78q86 6 119 22.5t33 53.5v718q0 37 -33 53.5t-119 22.5v78q291 -7 580 0v-78q-86 -6 -119 -22.5t-33 -53.5v-542l401 477v65q0 37 -32.5 53.5t-118.5 22.5v78q291 -8 579 0z" />
    <glyph glyph-name="afii10076" unicode="&#x43a;" horiz-adv-x="1304" 
d="M705 659l278 -376q168 -224 281 -238l-70 -78q-132 0 -223 35q-88 34 -178 154l-244 327l-80 -92v-237q0 -37 33 -53.5t119 -22.5v-78q-289 7 -580 0v78q86 6 119 22.5t33 53.5v718q0 37 -33 53.5t-119 22.5v78q291 -7 580 0v-78q-86 -6 -119 -22.5t-33 -53.5v-348
l260 295q105 120 174 170q71 51 154 51q74 0 118 -33.5t44 -88.5q0 -47 -31 -76t-74 -29q-36 0 -62 15.5t-33 36.5q-18 53 -50 53q-36 0 -80 -50z" />
    <glyph glyph-name="afii10077" unicode="&#x43b;" horiz-adv-x="1325" 
d="M1284 1026v-78q-86 -6 -118.5 -22.5t-32.5 -53.5v-718q0 -37 32.5 -53.5t118.5 -22.5v-78q-290 8 -579 0v78q86 6 118.5 22.5t32.5 53.5v718q0 76 -151 76h-56q-76 0 -114 -19t-37 -57v-333q0 -179 -22 -283q-21 -106 -79 -170q-56 -62 -144 -85q-87 -21 -233 -21v79
q126 0 185 77.5t59 242.5v493q0 37 -32.5 53.5t-118.5 22.5v78h1171z" />
    <glyph glyph-name="afii10078" unicode="&#x43c;" horiz-adv-x="1574" 
d="M1382 874v-720q0 -37 33 -53.5t119 -22.5v-78q-281 8 -553 0v78q79 6 101 21q24 17 24 55v620l-358 -774l-398 774v-620q0 -35 44.5 -51t154.5 -25v-78q-256 7 -508 0v78q114 9 164.5 25.5t50.5 50.5v690q0 41 -49 69.5t-133 34.5v78q221 -11 442 0l309 -600l277 600
q214 -8 432 0v-78q-87 -6 -119.5 -21.5t-32.5 -52.5z" />
    <glyph glyph-name="afii10079" unicode="&#x43d;" horiz-adv-x="1339" 
d="M1298 1026v-78q-86 -6 -118.5 -22.5t-32.5 -53.5v-718q0 -37 32.5 -53.5t118.5 -22.5v-78q-291 8 -579 0v78q86 6 118.5 22.5t32.5 53.5v315h-401v-315q0 -37 33 -53.5t119 -22.5v-78q-289 7 -580 0v78q86 6 119 22.5t33 53.5v718q0 37 -33 53.5t-119 22.5v78
q291 -7 580 0v-78q-86 -6 -119 -22.5t-33 -53.5v-301h401v301q0 37 -32.5 53.5t-118.5 22.5v78q291 -8 579 0z" />
    <glyph glyph-name="afii10080" unicode="&#x43e;" horiz-adv-x="1116" 
d="M557 1044q189 0 344 -144q154 -144 154 -392q0 -126 -44 -231t-119 -171q-149 -129 -333 -129q-189 0 -344 144q-154 145 -154 393q0 125 44.5 230.5t118.5 170.5q147 129 333 129zM590 55q84 0 129 97.5t45 275.5q0 238 -66 388q-64 151 -172 151q-84 0 -129 -97
t-45 -274q0 -239 66 -391q66 -150 172 -150z" />
    <glyph glyph-name="afii10081" unicode="&#x43f;" horiz-adv-x="1339" 
d="M1298 1026v-78q-86 -6 -118.5 -22.5t-32.5 -53.5v-718q0 -37 32.5 -53.5t118.5 -22.5v-78q-291 8 -579 0v78q86 6 118.5 22.5t32.5 53.5v718q0 76 -151 76h-98q-152 0 -152 -76v-718q0 -37 33 -53.5t119 -22.5v-78q-289 7 -580 0v78q86 6 119 22.5t33 53.5v718
q0 37 -33 53.5t-119 22.5v78h1257z" />
    <glyph glyph-name="afii10082" unicode="&#x440;" horiz-adv-x="1204" 
d="M698 1044q174 0 309 -142q136 -142 136 -394q0 -260 -142 -396q-141 -135 -321 -135q-147 0 -250 103v-209q0 -69 32 -92q33 -23 109 -19v-71q-230 -33 -399 -131q-40 12 -57 57q39 55 39 190v955q0 60 -29.5 81t-93.5 11v70q210 38 356 127q36 -16 53 -54l-6 -63
q112 112 264 112zM668 57q178 0 178 375q0 240 -60 381q-59 141 -172 141q-96 0 -182 -96q-2 -60 -2 -156v-403q4 -95 78 -169q73 -73 160 -73z" />
    <glyph glyph-name="afii10083" unicode="&#x441;" horiz-adv-x="1021" 
d="M874 209h78q-103 -230 -368 -232q-216 0 -370 143q-153 144 -153 398q0 246 150 386q152 140 362 140q163 0 275 -81q113 -80 113 -195q0 -49 -34 -83t-93 -34q-55 0 -88 33t-33 82q0 54 -8 96q-7 43 -39.5 74t-83.5 31q-110 0 -169 -116q-57 -115 -57 -310
q0 -212 71 -348q71 -134 216 -134q163 0 231 150z" />
    <glyph glyph-name="afii10084" unicode="&#x442;" horiz-adv-x="1120" 
d="M1012 1040h88l-76 -270h-90q12 109 -9 143q-20 35 -79 35h-141v-794q0 -37 32.5 -53.5t118.5 -22.5v-78q-291 7 -580 0v78q86 6 119 22.5t33 53.5v794h-137q-54 0 -86 -32t-84 -146h-90l71 270h88q68 -14 218 -14h389q147 0 215 14z" />
    <glyph glyph-name="afii10085" unicode="&#x443;" horiz-adv-x="1179" 
d="M752 954v72h397v-72l-62 -4q-74 -5 -116 -121l-492 -1269h-106l182 434l-360 840q-49 115 -101 116l-63 4v72h526v-72l-61 -4q-36 -2 -46.5 -31.5t9.5 -87.5l215 -536l211 534q20 53 0.5 85t-66.5 36z" />
    <glyph glyph-name="afii10086" unicode="&#x444;" horiz-adv-x="1726" 
d="M1262 1042q153 0 278 -137t125 -368q0 -267 -125 -413q-124 -144 -289 -144q-186 0 -250 139v-375q0 -37 33 -53.5t119 -22.5v-78q-289 7 -580 0v78q86 6 119 22.5t33 53.5v375q-63 -139 -250 -139q-165 0 -289 144q-125 145 -125 413q0 231 125 368t279 137
q165 0 260 -141v229q0 106 -127 87v77q114 22 221 72q105 49 125 49q57 0 57 -69v-445q95 141 261 141zM541 63q73 0 123 65q49 63 61 148v535q-40 62 -95 103q-58 44 -122 44q-166 0 -166 -421q0 -201 54 -338q55 -136 145 -136zM1186 63q90 0 144 136t54 338
q0 423 -165 421q-65 0 -124 -44q-55 -42 -94 -103v-535q12 -85 61 -149t124 -64z" />
    <glyph glyph-name="afii10087" unicode="&#x445;" horiz-adv-x="1138" 
d="M1055 76l43 -6v-70q-256 10 -508 0v72l43 4q59 6 10 88l-127 203l-133 -197q-24 -41 -14.5 -66.5t45.5 -27.5l67 -4v-72q-219 11 -440 0v70l39 6q130 19 207 131l172 252l-242 387q-59 97 -129 104l-43 6v70h514v-72l-31 -2q-37 -2 -42 -29.5t22 -68.5l106 -168l117 170
q25 41 10 67.5t-59 28.5l-49 2v72h438v-70l-37 -6q-72 -12 -118 -40q-45 -26 -89 -91l-155 -225l262 -414q33 -55 58 -78q25 -20 63 -26z" />
    <glyph glyph-name="afii10088" unicode="&#x446;" horiz-adv-x="1339" 
d="M1298 1026v-78q-86 -6 -118.5 -22.5t-32.5 -53.5v-718q0 -37 32.5 -53.5t118.5 -22.5v-293h-75q-6 59 -15 90q-7 29 -35 65q-48 60 -231 60h-901v78q86 6 119 22.5t33 53.5v718q0 37 -33 53.5t-119 22.5v78q291 -7 580 0v-78q-86 -6 -119 -22.5t-33 -53.5v-718
q0 -76 152 -76h98q76 0 114 19t37 57v718q0 37 -32.5 53.5t-118.5 22.5v78q291 -8 579 0z" />
    <glyph glyph-name="afii10089" unicode="&#x447;" horiz-adv-x="1351" 
d="M1311 1026v-78q-86 -6 -119 -22.5t-33 -53.5v-718q0 -37 33 -53.5t119 -22.5v-78q-291 7 -580 0v78q86 6 119 22.5t33 53.5v168l18 127q-135 -205 -352 -205q-356 0 -356 352v276q0 37 -33 53.5t-119 22.5v78q293 -11 580 0v-78q-86 -6 -119 -22.5t-33 -53.5v-266
q0 -233 162 -233q91 0 158 65q66 65 94 125v309q0 37 -33 53.5t-119 22.5v78q289 -7 580 0z" />
    <glyph glyph-name="afii10090" unicode="&#x448;" horiz-adv-x="1878" 
d="M1837 1026v-78q-86 -6 -118.5 -22.5t-32.5 -53.5v-718q0 -37 32.5 -53.5t118.5 -22.5v-78h-1796v78q86 6 119 22.5t33 53.5v718q0 37 -33 53.5t-119 22.5v78q287 -8 573 0v-78q-85 -6 -115 -21.5t-30 -54.5v-718q0 -76 152 -76h28q152 0 152 76v718q0 39 -30.5 54.5
t-115.5 21.5v78q283 -7 568 0v-78q-85 -6 -115.5 -21.5t-30.5 -54.5v-718q0 -76 152 -76h28q152 0 152 76v718q0 39 -30 54.5t-115 21.5v78q286 -8 573 0z" />
    <glyph glyph-name="afii10091" unicode="&#x449;" horiz-adv-x="1878" 
d="M1837 1026v-78q-86 -6 -118.5 -22.5t-32.5 -53.5v-718q0 -37 32.5 -53.5t118.5 -22.5v-293h-76q-6 55 -14 90q-7 29 -35 65q-48 60 -231 60h-1440v78q86 6 119 22.5t33 53.5v718q0 37 -33 53.5t-119 22.5v78q287 -8 573 0v-78q-85 -6 -115 -21.5t-30 -54.5v-718
q0 -76 152 -76h28q152 0 152 76v718q0 39 -30.5 54.5t-115.5 21.5v78q283 -7 568 0v-78q-85 -6 -115.5 -21.5t-30.5 -54.5v-718q0 -37 33 -53.5t119 -22.5h28q152 0 152 76v718q0 39 -30 54.5t-115 21.5v78q286 -8 573 0z" />
    <glyph glyph-name="afii10092" unicode="&#x44a;" horiz-adv-x="1384" 
d="M688 709l41 -2q301 -13 447 -116q147 -102 147 -255q0 -336 -524 -336q-8 0 -142 2q-217 5 -381 -2v78q135 10 136 86v784h-58q-78 0 -120 -36q-41 -35 -91 -124l-24 -43h-88l32 244q4 24 9.5 30.5t25.5 6.5h738v-78q-87 -6 -117 -22q-31 -15 -31 -52v-165zM836 82
q101 0 157 68q56 70 56 178q0 273 -320 293l-41 2v-539q46 -2 148 -2z" />
    <glyph glyph-name="afii10093" unicode="&#x44b;" horiz-adv-x="1781" 
d="M465 874v-165l41 -2q301 -13 447 -116q147 -102 147 -255q0 -336 -525 -336q-7 0 -141 2q-219 5 -381 -2v78q135 10 135 86v710q0 37 -31 52q-29 16 -116 22v78q287 -8 571 0v-78q-87 -6 -117 -22q-30 -15 -30 -52zM1589 872v-718q0 -37 33 -53.5t119 -22.5v-78
q-291 7 -580 0v78q86 6 119 22.5t33 53.5v718q0 37 -33 53.5t-119 22.5v78q291 -7 580 0v-78q-86 -6 -119 -22.5t-33 -53.5zM506 621l-41 2v-539q46 -2 147 -2t157 68q56 70 56 178q0 274 -319 293z" />
    <glyph glyph-name="afii10094" unicode="&#x44c;" horiz-adv-x="1140" 
d="M465 874v-165l41 -2q301 -13 447 -116q147 -102 147 -255q0 -336 -525 -336q-7 0 -141 2q-219 5 -381 -2v78q135 10 135 86v710q0 37 -31 52q-29 16 -116 22v78q287 -8 571 0v-78q-87 -6 -117 -22q-30 -15 -30 -52zM506 621l-41 2v-539q46 -2 147 -2t157 68q56 70 56 178
q0 274 -319 293z" />
    <glyph glyph-name="afii10095" unicode="&#x44d;" horiz-adv-x="1044" 
d="M463 1047q215 0 367 -143q153 -142 153 -398q0 -242 -152 -382t-354 -140q-179 0 -297 78q-119 80 -119 196q0 48 33.5 79.5t93.5 31.5q58 0 89.5 -30.5t27.5 -78.5q-6 -97 30.5 -146t115.5 -48q113 0 172 110.5t61 312.5h-317v95h313q-12 168 -76 274q-63 107 -172 107
q-166 0 -211 -144q-8 -28 -37 -26h-47q-22 0 -28 18t6 39q42 91 132.5 143t215.5 52z" />
    <glyph glyph-name="afii10096" unicode="&#x44e;" horiz-adv-x="1742" 
d="M1184 1044q190 0 343 -144q154 -144 154 -392q0 -126 -44 -231t-119 -171q-147 -129 -332 -129q-178 0 -327 128q-148 127 -169 350h-221v-301q0 -37 33 -53.5t119 -22.5v-78q-289 7 -580 0v78q86 6 119 22.5t33 53.5v718q0 37 -33 53.5t-119 22.5v78q291 -7 580 0v-78
q-86 -6 -119 -22.5t-33 -53.5v-335h219q5 165 83 282q149 225 413 225zM1217 55q84 0 129 97.5t45 275.5q0 238 -66 388q-64 151 -172 151q-84 0 -129 -97t-45 -274q0 -239 66 -391q66 -150 172 -150z" />
    <glyph glyph-name="afii10097" unicode="&#x44f;" horiz-adv-x="1187" 
d="M999 862v-710q0 -37 31 -53q32 -15 117 -21v-78q-287 8 -572 0v78q85 6 117 21q31 16 31 53v165l-41 2l-84 7l-55 -93q-101 -171 -243 -216q-69 -21 -114 -27t-108 -6l-47 77q83 8 164.5 75.5t142.5 182.5l27 54q-275 91 -277 317q0 336 524 336q7 0 141 -2q221 -5 382 2
v-78q-135 -10 -136 -86zM682 406l41 -3v539q-46 2 -148 2q-103 0 -158 -69q-55 -67 -55 -177q0 -274 320 -292z" />
    <glyph glyph-name="afii10071" unicode="&#x451;" horiz-adv-x="1038" 
d="M394 1210q-38 -39 -91 -39t-92 39t-39 92q0 54 39 92q40 38 92 38q53 0 91 -38t38 -92q0 -52 -38 -92zM834 1210q-38 -39 -91 -39t-92 39t-39 92q0 54 39 92q40 38 92 38q53 0 91 -38t38 -92q0 -52 -38 -92zM874 209h78q-103 -230 -377 -232q-217 0 -366 143
q-148 144 -148 392q0 250 145 391q146 141 345 141q183 0 305 -119q121 -118 121 -292q0 -77 -27 -110.5t-92 -33.5h-508q0 -186 69 -309q71 -123 216 -123q165 0 239 152zM350 563h371q0 203 -41 303.5t-131 100.5q-94 0 -146.5 -106.5t-52.5 -297.5z" />
    <glyph glyph-name="afii10100" unicode="&#x453;" horiz-adv-x="1024" 
d="M662 1276l-347 -127l-28 45l280 233q45 37 88 37t70 -39t8 -84q-18 -45 -71 -65zM950 989l33 -244h-88l-25 43q-51 88 -92 118q-44 32 -125 32h-184v-784q0 -37 33 -53.5t119 -22.5v-78q-289 7 -580 0v78q86 6 119 22.5t33 53.5v718q0 37 -33 53.5t-119 22.5v78h874
q20 0 25.5 -6.5t9.5 -30.5z" />
    <glyph glyph-name="afii10101" unicode="&#x454;" horiz-adv-x="1044" 
d="M856 369q60 0 93.5 -31.5t33.5 -79.5q0 -116 -119 -196q-118 -78 -297 -78q-203 0 -355 140q-151 139 -151 382q0 256 153 398q154 143 368 143q125 0 215.5 -52t132.5 -143q11 -20 5 -38.5t-28 -18.5h-47q-29 0 -37 26q-45 143 -211 144q-109 0 -172 -107t-75 -274h313
v-95h-318q2 -202 61.5 -312.5t172.5 -110.5q159 0 145 194q-4 48 27.5 78.5t89.5 30.5z" />
    <glyph glyph-name="afii10103" unicode="&#x456;" horiz-adv-x="612" 
d="M400 1221q-42 -43 -101 -43t-102 43t-43 102t43 101t102 42t101 -42t42 -101t-42 -102zM442 702v-557q0 -61 129 -75v-70q-264 11 -530 0v70q125 14 125 75v615q0 60 -29.5 81t-93.5 11v70q211 38 358 127q37 -17 54 -54q-11 -80 -13 -293z" />
    <glyph glyph-name="afii10104" unicode="&#x457;" horiz-adv-x="806" 
d="M152 1210q-38 -39 -91 -39t-92 39t-39 92q0 54 39 92q40 38 92 38q53 0 91 -38t38 -92q0 -52 -38 -92zM593 1210q-37 -39 -91 -39q-53 0 -92 39t-39 92q0 54 39 92q40 38 92 38q53 0 91 -38t38 -92q0 -52 -38 -92zM543 872v-718q0 -37 32.5 -53.5t118.5 -22.5v-78
q-290 8 -579 0v78q86 6 118.5 22.5t32.5 53.5v718q0 37 -32.5 53.5t-118.5 22.5v78q291 -8 579 0v-78q-86 -6 -118.5 -22.5t-32.5 -53.5z" />
    <glyph glyph-name="afii10109" unicode="&#x45c;" horiz-adv-x="1304" 
d="M803 1276l-346 -127l-29 45l281 233q45 37 88 37t69 -39q27 -39 8 -84q-18 -45 -71 -65zM705 659l278 -376q168 -224 281 -238l-70 -78q-132 0 -223 35q-88 34 -178 154l-244 327l-80 -92v-237q0 -37 33 -53.5t119 -22.5v-78q-289 7 -580 0v78q86 6 119 22.5t33 53.5v718
q0 37 -33 53.5t-119 22.5v78q291 -7 580 0v-78q-86 -6 -119 -22.5t-33 -53.5v-348l260 295q105 120 174 170q71 51 154 51q74 0 118 -33.5t44 -88.5q0 -47 -31 -76t-74 -29q-36 0 -62 15.5t-33 36.5q-18 53 -50 53q-36 0 -80 -50z" />
    <glyph glyph-name="afii10110" unicode="&#x45e;" horiz-adv-x="1179" 
d="M295 1442h115q11 -47 61 -81t125 -34t125 34t61 81h115q-7 -127 -91 -201q-83 -74 -210 -74t-210 74q-84 74 -91 201zM752 954v72h397v-72l-62 -4q-74 -5 -116 -121l-492 -1269h-106l182 434l-360 840q-49 115 -101 116l-63 4v72h526v-72l-61 -4q-36 -2 -46.5 -31.5
t9.5 -87.5l215 -536l211 534q20 53 0.5 85t-66.5 36z" />
    <glyph glyph-name="afii10050" unicode="&#x490;" horiz-adv-x="1093" 
d="M950 1421l25 43h88l-33 -243q-4 -24 -9.5 -30.5t-25.5 -6.5h-503v-1030q0 -37 32.5 -53.5t118.5 -22.5v-78q-295 10 -592 0v78q86 6 119 22.5t33 53.5v964q0 37 -33 53.5t-119 22.5v78h682q82 0 125 31q41 30 92 118z" />
    <glyph glyph-name="afii10098" unicode="&#x491;" horiz-adv-x="1013" 
d="M860 1176l25 43h88l-33 -244q-4 -24 -9.5 -30.5t-25.5 -6.5h-436v-784q0 -37 33 -53.5t119 -22.5v-78q-289 7 -580 0v78q86 6 119 22.5t33 53.5v718q0 37 -33 53.5t-119 22.5v78h602q81 0 125 32q41 30 92 118z" />
    <glyph glyph-name="uni04D0" unicode="&#x4d0;" 
d="M399 1688h115q11 -47 61 -81q52 -34 125 -34q74 0 125 33q51 34 62 82h114q-7 -127 -91 -201q-83 -74 -210 -74t-210 74q-82 73 -91 201zM786 1282l379 -1022q40 -105 79 -143q41 -40 136 -47v-70q-311 8 -620 0v70q96 6 128 31t9 83l-82 226h-405l-74 -226
q-18 -55 33 -81.5t174 -32.5v-70q-262 10 -523 0v70q102 7 155 40q51 32 77 105l366 1067h168zM602 991l-166 -504h350z" />
    <glyph glyph-name="uni04D1" unicode="&#x4d1;" horiz-adv-x="1107" 
d="M240 1442h114q11 -47 61 -81q52 -34 125 -34q75 0 125 34q51 34 62 81h115q-7 -127 -91 -201q-83 -74 -210 -74t-210 74q-84 74 -91 201zM938 739v-510q0 -127 129 -137v-72q-166 -5 -346 -47q-37 13 -51 52l10 135h-16q-30 -52 -97 -110q-89 -77 -223 -77
q-122 0 -207 66q-86 68 -86 201q0 142 133 230q134 89 478 165v108q0 132 -28 181q-28 51 -106 51q-64 0 -101 -31t-47 -81q-2 -8 -6.5 -33.5t-6.5 -36t-8 -33t-12 -33t-17 -26.5t-24 -23t-31.5 -13t-41.5 -6q-61 0 -91 27t-29 82q0 116 140 196t355 80q162 0 246 -66
q84 -64 84 -239zM461 94q70 0 123 56q52 57 78 116v307q-216 -55 -281 -156q-51 -80 -51 -155q0 -76 36 -122t95 -46z" />
    <glyph glyph-name="uni04D2" unicode="&#x4d2;" 
d="M572 1456q-38 -39 -91 -39t-92 39t-39 92q0 54 39 91q40 38 92 38q53 0 91 -38t38 -91q0 -52 -38 -92zM1013 1456q-37 -39 -92 -39q-53 0 -92 39q-38 40 -38 92q0 53 38 91q40 38 92 38q54 0 92 -38t38 -91q0 -52 -38 -92zM786 1282l379 -1022q40 -105 79 -143
q41 -40 136 -47v-70q-311 8 -620 0v70q96 6 128 31t9 83l-82 226h-405l-74 -226q-18 -55 33 -81.5t174 -32.5v-70q-262 10 -523 0v70q102 7 155 40q51 32 77 105l366 1067h168zM602 991l-166 -504h350z" />
    <glyph glyph-name="uni04D3" unicode="&#x4d3;" horiz-adv-x="1107" 
d="M413 1210q-38 -39 -92 -39q-53 0 -92 39t-39 92q0 54 39 92q40 38 92 38q54 0 92 -38t38 -92q0 -52 -38 -92zM853 1210q-37 -39 -91 -39q-53 0 -92 39t-39 92q0 54 39 92q40 38 92 38q53 0 91 -38t38 -92q0 -52 -38 -92zM938 739v-510q0 -127 129 -137v-72
q-166 -5 -346 -47q-37 13 -51 52l10 135h-16q-30 -52 -97 -110q-89 -77 -223 -77q-122 0 -207 66q-86 68 -86 201q0 142 133 230q134 89 478 165v108q0 132 -28 181q-28 51 -106 51q-64 0 -101 -31t-47 -81q-2 -8 -6.5 -33.5t-6.5 -36t-8 -33t-12 -33t-17 -26.5t-24 -23
t-31.5 -13t-41.5 -6q-61 0 -91 27t-29 82q0 116 140 196t355 80q162 0 246 -66q84 -64 84 -239zM461 94q70 0 123 56q52 57 78 116v307q-216 -55 -281 -156q-51 -80 -51 -155q0 -76 36 -122t95 -46z" />
    <glyph glyph-name="uni04D6" unicode="&#x4d6;" horiz-adv-x="1120" 
d="M260 1688h115q11 -47 61 -81t125 -34q73 0 124 33t63 82h114q-7 -127 -91 -201q-83 -74 -210 -74t-210 74q-84 74 -91 201zM911 219l78 137h70q-61 -181 -66 -356q-481 12 -942 0v70q85 6 117 27q31 22 31 75v948q0 43 -31 59q-33 17 -117 23v70h905q19 0 25 -7t10 -30
l33 -244h-66l-22 45q-45 92 -98 127t-162 35h-137q-51 0 -52 -55v-443h220q75 0 106 30q33 30 51 97h58q-14 -173 0 -342h-58q-18 70 -51 100q-32 31 -106 31h-220v-444q0 -53 18 -72.5t66 -19.5h68q113 0 170 30q57 32 102 109z" />
    <glyph glyph-name="uni04D7" unicode="&#x4d7;" horiz-adv-x="1038" 
d="M221 1442h115q11 -47 61 -81q52 -34 125 -34q75 0 125 34q52 35 62 81h114q-7 -127 -91 -201q-83 -74 -210 -74t-210 74q-84 74 -91 201zM874 209h78q-103 -230 -377 -232q-217 0 -366 143q-148 144 -148 392q0 250 145 391q146 141 345 141q183 0 305 -119
q121 -118 121 -292q0 -77 -27 -110.5t-92 -33.5h-508q0 -186 69 -309q71 -123 216 -123q165 0 239 152zM350 563h371q0 203 -41 303.5t-131 100.5q-94 0 -146.5 -106.5t-52.5 -297.5z" />
    <glyph glyph-name="uni04EC" unicode="&#x4ec;" horiz-adv-x="1300" 
d="M523 1456q-37 -39 -91 -39q-53 0 -92 39t-39 92q0 54 39 91q40 38 92 38q53 0 91 -38t38 -91q0 -52 -38 -92zM963 1456q-37 -39 -91 -39q-53 0 -92 39t-39 92q0 54 39 91q40 38 92 38q53 0 91 -38t38 -91q0 -52 -38 -92zM616 1305q262 0 437 -190q176 -190 176 -474
q0 -304 -178 -488q-177 -184 -465 -184q-222 0 -346 108q-125 110 -168 269h102q96 -283 365 -283q168 0 267 152t116 397h-500v86h502q0 252 -78.5 385.5t-218.5 133.5q-250 0 -389 -304h-150q76 168 94 357q50 -11 97 -13q53 0 151 24t186 24z" />
    <glyph glyph-name="uni04ED" unicode="&#x4ed;" horiz-adv-x="1044" 
d="M394 1210q-38 -39 -91 -39t-92 39t-39 92q0 54 39 92q40 38 92 38q53 0 91 -38t38 -92q0 -52 -38 -92zM834 1210q-38 -39 -91 -39t-92 39t-39 92q0 54 39 92q40 38 92 38q53 0 91 -38t38 -92q0 -52 -38 -92zM463 1047q215 0 367 -143q153 -142 153 -398q0 -242 -152 -382
t-354 -140q-179 0 -297 78q-119 80 -119 196q0 48 33.5 79.5t93.5 31.5q58 0 89.5 -30.5t27.5 -78.5q-6 -97 30.5 -146t115.5 -48q113 0 172 110.5t61 312.5h-317v95h313q-12 168 -76 274q-63 107 -172 107q-166 0 -211 -144q-8 -28 -37 -26h-47q-22 0 -28 18t6 39
q42 91 132.5 143t215.5 52z" />
    <glyph glyph-name="uni1E0C" unicode="&#x1e0c;" horiz-adv-x="1357" 
d="M590 1272q322 0 506 -154q184 -153 184 -481q0 -151 -44 -271q-43 -117 -108 -185q-62 -64 -146 -109q-140 -72 -277 -72q-41 0 -162 17q-117 18 -193 18q-87 0 -299 -35v70q84 18 116 38q32 21 32 68v920q0 53 -30 76.5t-106 29.5v70q18 -6 271 -3q254 3 256 3zM618 80
q342 0 343 549q0 276 -96.5 422.5t-286.5 146.5q-54 0 -91 -4v-1016q0 -98 131 -98zM746 -360q-40 -43 -101 -43q-59 0 -102 43t-43 102t43 101t102 42q61 0 101 -42q42 -42 42 -101q0 -58 -42 -102z" />
    <glyph glyph-name="uni1E0D" unicode="&#x1e0d;" horiz-adv-x="1222" 
d="M1053 1098v-869q0 -127 129 -137v-72q-169 -5 -344 -47q-39 13 -54 52l19 112h-15q-27 -63 -94 -112q-68 -48 -172 -48q-180 0 -321 141q-140 143 -140 396q0 249 139 389q140 141 320 141q158 0 256 -120v231q0 58 -30 79t-93 11v70q210 38 359 127q37 -16 53 -53
q-12 -84 -12 -291zM776 256v578q-34 52 -90 92q-58 41 -123 41q-101 0 -156 -106q-55 -104 -55 -286q0 -226 67 -372q68 -146 173 -146q70 0 121 63q51 65 63 136zM508 -157q44 42 102 42q60 0 102 -42t42 -101q0 -58 -42 -102q-42 -43 -102 -43q-59 0 -102 43t-43 102
t43 101z" />
    <glyph glyph-name="uni1E24" unicode="&#x1e24;" horiz-adv-x="1419" 
d="M1368 1272v-70q-87 -6 -119 -27.5t-32 -74.5v-928q0 -53 32 -74.5t119 -27.5v-70q-295 10 -592 0v70q87 6 119.5 27.5t32.5 74.5v424h-436v-424q0 -53 32 -74.5t119 -27.5v-70q-295 10 -592 0v70q87 6 119.5 27.5t32.5 74.5v928q0 53 -32.5 74.5t-119.5 27.5v70
q297 -10 592 0v-70q-87 -6 -119 -27.5t-32 -74.5v-422h436v422q0 53 -32.5 74.5t-119.5 27.5v70q297 -10 592 0zM608 -157q44 42 102 42q60 0 102 -42t42 -101q0 -58 -42 -102q-42 -43 -102 -43q-59 0 -102 43t-43 102t43 101z" />
    <glyph glyph-name="uni1E25" unicode="&#x1e25;" horiz-adv-x="1251" 
d="M1092 688v-543q0 -61 129 -75v-70q-266 8 -535 0v70q129 10 129 75v543q0 231 -151 232q-86 0 -146 -65q-60 -66 -76 -132v-578q0 -61 129 -75v-70q-264 11 -530 0v70q125 14 125 75v1010q0 58 -30.5 79t-92.5 11v70q211 38 358 127q38 -17 54 -53q-11 -80 -13 -291v-160
l-20 -127q26 49 63 96q41 49 124 94q85 48 184 48q128 0 213 -82q86 -83 86 -279zM520 -157q44 42 102 42q60 0 102 -42t42 -101q0 -58 -42 -102q-42 -43 -102 -43q-59 0 -102 43t-43 102t43 101z" />
    <glyph glyph-name="uni1E62" unicode="&#x1e62;" horiz-adv-x="1024" 
d="M698 254q0 85 -62 149q-61 64 -206 136q-173 84 -267 178q-95 95 -95 241q0 158 111 252q113 95 288 95q84 0 163 -25t93 -25q41 0 49 33h82l16 -295h-67q-103 224 -287 226q-89 0 -142 -50q-52 -49 -52 -125q0 -78 56.5 -136.5t180.5 -114.5l48 -23l55 -27q15 -6 54 -28
q40 -21 57 -34q31 -24 50 -37q35 -24 50 -44l38 -49q24 -29 35 -60q27 -77 27 -143q0 -124 -70 -212q-128 -165 -366 -165q-95 0 -191 43q-95 43 -121 43q-57 0 -71 -57h-82l-21 311h80q51 -119 151 -185q99 -63 205 -63q96 0 153.5 51.5t57.5 139.5zM620 -360
q-42 -43 -102 -43q-59 0 -102 43t-43 102t43 101q44 42 102 42q60 0 102 -42t42 -101q0 -58 -42 -102z" />
    <glyph glyph-name="uni1E63" unicode="&#x1e63;" horiz-adv-x="886" 
d="M836 281q0 -132 -107 -221q-106 -87 -242 -87q-76 0 -169 38t-107 38q-37 0 -41 -49h-80l-24 287h65q32 -103 134 -170q104 -68 196 -68q63 0 102 37t39 98q0 71 -50 115q-48 43 -163 96q-76 36 -113 57q-38 21 -99 68q-116 90 -116 232q0 130 93 209q94 81 237 81
q72 0 147 -29q72 -28 91 -28q42 0 53 41h72l18 -281h-61q-49 115 -127 169q-77 55 -156 55q-65 0 -104 -36.5t-39 -96.5q0 -61 43 -103.5t139 -87.5q5 -4 50 -24q54 -24 61 -28q18 -9 60 -33q37 -20 61 -40l51 -45q33 -30 46 -56q40 -70 40 -138zM552 -360q-42 -43 -102 -43
q-59 0 -102 43t-43 102t43 101q44 42 102 42q60 0 102 -42t42 -101q0 -58 -42 -102z" />
    <glyph glyph-name="uni1E6C" unicode="&#x1e6c;" horiz-adv-x="1167" 
d="M1069 1286h68l-72 -280h-70q12 107 -19 144q-30 38 -93 38h-158v-1016q0 -52 36 -75q36 -21 136 -27v-70q-315 8 -633 0v70q100 6 136 27q36 23 36 75v1016h-129q-72 0 -113 -35q-40 -34 -94 -147h-69l67 280h68q68 -14 237 -14h431q167 0 235 14zM483 -157q43 42 102 42
q60 0 102 -42t42 -101q0 -58 -42 -102q-42 -43 -102 -43q-59 0 -102 43t-43 102t43 101z" />
    <glyph glyph-name="uni1E6D" unicode="&#x1e6d;" horiz-adv-x="716" 
d="M655 143v-80q-78 -78 -223 -77q-134 0 -207 77t-73 230v651h-111v82q136 0 201 64q66 63 98 215h88v-279h227v-82h-227v-690q0 -166 100 -166q62 0 127 55zM478 -360q-42 -43 -102 -43q-59 0 -102 43t-43 102t43 101q44 42 102 42q60 0 102 -42t42 -101q0 -58 -42 -102z
" />
    <glyph glyph-name="Wgrave" unicode="&#x1e80;" horiz-adv-x="2002" 
d="M1196 1395l-346 127q-52 19 -72 65q-18 45 8 84q27 39 70 39t88 -37l281 -233zM1528 1202v70q227 -11 454 0v-70q-90 -6 -132 -29q-39 -22 -62 -90l-352 -1101h-107l-340 927l-295 -927h-106l-404 1101q-26 73 -54 92q-29 21 -110 27v70q297 -10 603 0v-70
q-99 -4 -133 -29.5t-13 -89.5l254 -743l209 704l-14 39q-25 69 -57 92t-115 27v70q303 -11 602 0v-70q-96 -4 -128 -29.5t-9 -89.5l254 -743l223 743q19 63 -21 88t-147 31z" />
    <glyph glyph-name="wgrave" unicode="&#x1e81;" horiz-adv-x="1796" 
d="M1096 1149l-346 127q-52 19 -72 65q-19 45 8 84t70 39t88 -37l280 -233zM1309 954v72h456v-72l-39 -4q-126 -12 -163 -135l-254 -821h-181l-243 696l-215 -696h-181l-286 821q-26 73 -50 100q-24 29 -81 35l-41 4v72h524v-72l-43 -4q-86 -8 -43 -135l193 -582l178 588
q-26 70 -50 95q-24 28 -79 34l-41 4v72h524v-72l-43 -4q-86 -8 -43 -135l192 -582l177 582q18 61 -10.5 96t-92.5 39z" />
    <glyph glyph-name="Wacute" unicode="&#x1e82;" horiz-adv-x="2002" 
d="M1149 1522l-346 -127l-29 45l281 233q45 37 88 37t69 -39q27 -39 8 -84q-18 -45 -71 -65zM1528 1202v70q227 -11 454 0v-70q-90 -6 -132 -29q-39 -22 -62 -90l-352 -1101h-107l-340 927l-295 -927h-106l-404 1101q-26 73 -54 92q-29 21 -110 27v70q297 -10 603 0v-70
q-99 -4 -133 -29.5t-13 -89.5l254 -743l209 704l-14 39q-25 69 -57 92t-115 27v70q303 -11 602 0v-70q-96 -4 -128 -29.5t-9 -89.5l254 -743l223 743q19 63 -21 88t-147 31z" />
    <glyph glyph-name="wacute" unicode="&#x1e83;" horiz-adv-x="1796" 
d="M1049 1276l-347 -127l-28 45l280 233q45 37 88 37t70 -39t8 -84q-18 -45 -71 -65zM1309 954v72h456v-72l-39 -4q-126 -12 -163 -135l-254 -821h-181l-243 696l-215 -696h-181l-286 821q-26 73 -50 100q-24 29 -81 35l-41 4v72h524v-72l-43 -4q-86 -8 -43 -135l193 -582
l178 588q-26 70 -50 95q-24 28 -79 34l-41 4v72h524v-72l-43 -4q-86 -8 -43 -135l192 -582l177 582q18 61 -10.5 96t-92.5 39z" />
    <glyph glyph-name="Wdieresis" unicode="&#x1e84;" horiz-adv-x="2002" 
d="M871 1456q-37 -39 -91 -39q-53 0 -92 39t-39 92q0 54 39 91q40 38 92 38q53 0 91 -38t38 -91q0 -52 -38 -92zM1312 1456q-38 -39 -92 -39q-53 0 -92 39q-38 40 -38 92q0 53 38 91q40 38 92 38q54 0 92 -38t38 -91q0 -52 -38 -92zM1528 1202v70q227 -11 454 0v-70
q-90 -6 -132 -29q-39 -22 -62 -90l-352 -1101h-107l-340 927l-295 -927h-106l-404 1101q-26 73 -54 92q-29 21 -110 27v70q297 -10 603 0v-70q-99 -4 -133 -29.5t-13 -89.5l254 -743l209 704l-14 39q-25 69 -57 92t-115 27v70q303 -11 602 0v-70q-96 -4 -128 -29.5t-9 -89.5
l254 -743l223 743q19 63 -21 88t-147 31z" />
    <glyph glyph-name="wdieresis" unicode="&#x1e85;" horiz-adv-x="1796" 
d="M771 1210q-37 -39 -91 -39q-53 0 -92 39t-39 92q0 54 39 92q40 38 92 38q53 0 91 -38t38 -92q0 -52 -38 -92zM1211 1210q-37 -39 -91 -39q-53 0 -92 39t-39 92q0 54 39 92q40 38 92 38q53 0 91 -38t38 -92q0 -52 -38 -92zM1309 954v72h456v-72l-39 -4q-126 -12 -163 -135
l-254 -821h-181l-243 696l-215 -696h-181l-286 821q-26 73 -50 100q-24 29 -81 35l-41 4v72h524v-72l-43 -4q-86 -8 -43 -135l193 -582l178 588q-26 70 -50 95q-24 28 -79 34l-41 4v72h524v-72l-43 -4q-86 -8 -43 -135l192 -582l177 582q18 61 -10.5 96t-92.5 39z" />
    <glyph glyph-name="uni1E92" unicode="&#x1e92;" horiz-adv-x="1196" 
d="M987 94l49 -8q37 -6 37 -33v-53q-516 8 -1032 0l729 1192h-360q-91 0 -137 -40q-47 -41 -99 -155h-84l72 289h88q68 -14 217 -14h661l-729 -1192h179q128 0 207 36q80 35 151 122l96 118h103q-83 -121 -148 -262zM691 -360q-42 -43 -102 -43q-59 0 -102 43t-43 102
t43 101t102 42q60 0 102 -42t42 -101q0 -58 -42 -102z" />
    <glyph glyph-name="uni1E93" unicode="&#x1e93;" horiz-adv-x="985" 
d="M860 301h68l-70 -301h-768q-35 0 -46 24.5t9 55.5l563 878l-262 -2q-81 0 -118 -37q-38 -36 -99 -153h-63l71 274h88q68 -14 209 -14q329 0 502 4l-614 -960l258 2q96 0 151 46q57 48 121 183zM599 -360q-42 -43 -102 -43q-59 0 -102 43t-43 102t43 101t102 42
q60 0 102 -42t42 -101q0 -58 -42 -102z" />
    <glyph glyph-name="Ygrave" unicode="&#x1ef2;" horiz-adv-x="1308" 
d="M848 1395l-346 127q-52 19 -72 65q-18 45 8 84q27 39 70 39t88 -37l281 -233zM864 1202v70q212 -10 414 0v-70q-77 -6 -124 -35t-79 -94l-278 -536v-342q0 -68 32 -94q32 -25 123 -31v-70q-302 10 -600 0v70q91 6 123 31q33 26 33 94v323l-309 563q-40 73 -68 93
q-32 25 -100 28v70q295 -10 596 0v-70q-85 -6 -108 -36.5t9 -86.5l234 -436l225 432q57 113 -123 127z" />
    <glyph glyph-name="ygrave" unicode="&#x1ef3;" horiz-adv-x="1179" 
d="M784 1149l-346 127q-52 19 -72 65q-18 45 8 84q27 39 70 39t88 -37l281 -233zM752 954v72h397v-72l-62 -4q-74 -5 -116 -121l-492 -1269h-106l182 434l-360 840q-49 115 -101 116l-63 4v72h526v-72l-61 -4q-36 -2 -46.5 -31.5t9.5 -87.5l215 -536l211 534q20 53 0.5 85
t-66.5 36z" />
    <glyph glyph-name="endash" unicode="&#x2013;" horiz-adv-x="1355" 
d="M82 496v88h1192v-88h-1192z" />
    <glyph glyph-name="emdash" unicode="&#x2014;" horiz-adv-x="1843" 
d="M82 496v88h1679v-88h-1679z" />
    <glyph glyph-name="afii00208" unicode="&#x2015;" horiz-adv-x="1841" 
d="M82 496v88h1679v-88h-1679z" />
    <glyph glyph-name="quoteleft" unicode="&#x2018;" horiz-adv-x="423" 
d="M227 1352q23 20 41 2l21 -23q-74 -80 -74 -178q0 -15 4 -23q11 3 35 5q61 0 100 -41q39 -40 39 -97q0 -61 -42 -102q-43 -41 -105 -41q-72 0 -113 54q-41 56 -41 136q0 178 135 308z" />
    <glyph glyph-name="quoteright" unicode="&#x2019;" horiz-adv-x="423" 
d="M197 866q-20 -23 -41 -2l-21 23q74 80 74 178q0 15 -4 22q-17 -4 -35 -4q-61 0 -100 41q-39 40 -39 97q0 61 42 102q43 41 105 41q73 0 113 -55q41 -55 41 -135q0 -178 -135 -308z" />
    <glyph glyph-name="quotesinglbase" unicode="&#x201a;" horiz-adv-x="444" 
d="M238 -240q-20 -23 -41 -2l-21 23q74 80 74 178q0 15 -4 23q-11 -3 -35 -5q-61 0 -100 41t-39 97q0 61 42 102q43 41 105 41q73 0 113 -54q41 -55 41 -136q0 -178 -135 -308z" />
    <glyph glyph-name="quotedblleft" unicode="&#x201c;" horiz-adv-x="788" 
d="M227 1354q23 23 41 2l21 -23q-74 -80 -74 -178q0 -15 4 -22q17 4 35 4q61 0 100 -41q39 -40 39 -97q0 -61 -42 -102q-43 -41 -105 -41q-72 0 -113 54q-41 56 -41 137q0 177 135 307zM592 1354q23 23 41 2l20 -23q-74 -81 -73 -178q0 -15 4 -22q17 4 34 4q61 0 100 -41
q40 -40 40 -97q0 -61 -42 -102q-43 -41 -106 -41q-72 0 -113 54q-40 55 -40 137q0 177 135 307z" />
    <glyph glyph-name="quotedblright" unicode="&#x201d;" horiz-adv-x="788" 
d="M197 866q-20 -23 -41 -2l-21 23q74 80 74 178q0 15 -4 22q-17 -4 -35 -4q-61 0 -100 41q-39 40 -39 97q0 61 42 102q43 41 105 41q73 0 113 -55q41 -55 41 -135q0 -178 -135 -308zM561 866q-20 -23 -41 -2l-20 23q74 81 73 178q0 15 -4 22q-17 -4 -34 -4q-60 0 -101 41
q-39 40 -39 97q0 61 42 102q43 41 106 41q72 0 112 -55q41 -55 41 -135q0 -178 -135 -308z" />
    <glyph glyph-name="quotedblbase" unicode="&#x201e;" horiz-adv-x="808" 
d="M238 -240q-20 -23 -41 -2l-21 23q74 80 74 178q0 15 -4 23q-11 -3 -35 -5q-61 0 -100 41t-39 97q0 61 42 102q43 41 105 41q73 0 113 -54q41 -55 41 -136q0 -178 -135 -308zM602 -240q-20 -23 -41 -2l-20 23q74 81 73 178q0 15 -4 23q-11 -3 -35 -5q-61 0 -100 41
q-39 40 -39 97q0 61 42 102q43 41 106 41q72 0 112 -54q41 -55 41 -136q0 -178 -135 -308z" />
    <glyph glyph-name="dagger" unicode="&#x2020;" horiz-adv-x="1011" 
d="M774 1053q56 0 96 -38q39 -37 39 -92q0 -53 -39 -91q-38 -37 -96 -37q-32 0 -100 35q-66 36 -109 42l4 -67l103 -100l-133 -445h-66l-133 445l102 100l4 67q-42 -6 -110 -42q-67 -35 -98 -35q-57 0 -97 37q-39 38 -39 91q0 55 39 92q40 38 97 38q33 0 100 -37
q66 -37 113 -43q-1 51 -41 119q-39 69 -39 96q0 54 39 91q40 38 96 38t96 -38q39 -37 39 -91q0 -27 -39 -96q-40 -68 -41 -119q46 6 112 43q67 37 101 37z" />
    <glyph glyph-name="daggerdbl" unicode="&#x2021;" horiz-adv-x="1011" 
d="M774 438q56 0 96 -38q39 -38 39 -91t-39 -91q-40 -38 -96 -38q-32 0 -103 39q-69 39 -114 45q5 -52 44 -121q40 -68 40 -98q0 -54 -39 -91q-40 -38 -96 -38t-96 38q-39 37 -39 91q0 30 40 98q39 69 44 121q-44 -6 -115 -45q-70 -39 -102 -39q-56 0 -97 38q-39 38 -39 91
t39 91q40 38 97 38q33 0 102 -39q71 -39 115 -45v62l-115 202l115 199v62q-44 -6 -115 -45q-70 -39 -102 -39q-57 0 -97 37q-39 38 -39 91q0 55 39 92q40 38 97 38q33 0 102 -39q71 -39 115 -45q-5 53 -44 120q-40 70 -40 99q0 54 39 91q40 38 96 38t96 -38q39 -37 39 -91
q0 -29 -40 -99q-39 -67 -44 -120q45 6 114 45q71 39 103 39q56 0 96 -38q39 -37 39 -92q0 -53 -39 -91q-38 -37 -96 -37q-32 0 -103 38q-68 38 -114 46v-62l115 -201l-115 -200v-62q45 6 114 45q71 39 103 39z" />
    <glyph glyph-name="bullet" unicode="&#x2022;" horiz-adv-x="729" 
d="M550 412q-76 -76 -186 -76q-109 0 -185 76q-77 77 -77 186q0 108 77 185t185 77q109 0 186 -77t77 -185q0 -109 -77 -186z" />
    <glyph glyph-name="ellipsis" unicode="&#x2026;" horiz-adv-x="1261" 
d="M309 21q-41 -41 -98 -41t-98 41q-41 43 -41 99q0 58 41 99t98 41t98 -41t41 -99q0 -56 -41 -99zM709 21q-41 -41 -99 -41q-57 0 -98 41q-41 43 -41 99q0 58 41 99t98 41q58 0 99 -41t41 -99q0 -56 -41 -99zM1108 21q-41 -41 -99 -41q-57 0 -98 41q-41 43 -41 99
q0 58 41 99t98 41q58 0 99 -41t41 -99q0 -56 -41 -99z" />
    <glyph glyph-name="perthousand" unicode="&#x2030;" horiz-adv-x="2002" 
d="M344 741q-112 0 -183 83q-69 82 -69 200q0 116 69 199q70 82 183 82q115 0 184 -82q70 -82 70 -199q0 -118 -70 -200q-69 -83 -184 -83zM213 -10l844 1313h143l-842 -1313h-145zM344 815q94 0 94 209q0 207 -94 207q-92 0 -92 -207q0 -209 92 -209zM1032 -23
q-112 0 -183 83q-69 82 -69 200q0 117 70 199t182 82q115 0 184 -82q70 -82 70 -199q0 -118 -70 -200q-69 -83 -184 -83zM1657 -23q-112 0 -183 83q-69 83 -69 200q0 116 69 199q70 82 183 82q115 0 184 -82q70 -82 70 -199q0 -118 -70 -200q-69 -83 -184 -83zM1032 51
q94 0 94 209q0 207 -94 207q-92 0 -92 -207q0 -209 92 -209zM1657 51q94 0 94 209q0 207 -94 207q-92 0 -92 -207q0 -209 92 -209z" />
    <glyph glyph-name="guilsinglleft" unicode="&#x2039;" horiz-adv-x="542" 
d="M61 498v49l375 332l45 -52l-239 -305l239 -305l-45 -51z" />
    <glyph glyph-name="guilsinglright" unicode="&#x203a;" horiz-adv-x="542" 
d="M106 879l375 -332v-49l-375 -332l-45 51l240 305l-240 305z" />
    <glyph glyph-name="fraction" unicode="&#x2044;" horiz-adv-x="368" 
d="M-317 -10l884 1313h160l-885 -1313h-159z" />
    <glyph glyph-name="Euro" unicode="&#x20ac;" horiz-adv-x="1462" 
d="M1319 346h98q-40 -159 -165 -269q-124 -108 -343 -108q-223 0 -386 120t-226 325h-225l28 141h168q-4 55 -4 92q0 29 2 51h-145l29 142h137q53 215 215 340q163 125 385 125q80 0 171 -25t152 -25q48 0 101 15q19 -201 84 -357h-140q-136 302 -368 304q-271 0 -312 -377
h414l-28 -142h-392q0 -53 9 -143h362l-29 -141h-307q46 -167 140 -259t229 -92q116 0 206.5 70.5t139.5 212.5z" />
    <glyph glyph-name="trademark" unicode="&#x2122;" horiz-adv-x="1290" 
d="M78 1272h407q12 0 21.5 -8.5t9.5 -18.5l6 -98h-45l-16 33q-7 16 -27 16h-92v-317q0 -19 53 -21v-51h-227v51q51 0 51 21v317h-90q-18 0 -27 -16l-16 -33h-45l6 98q0 10 9.5 18.5t21.5 8.5zM1241 1272v-49q-23 -8 -29 -14.5t-6 -24.5v-297q0 -15 6 -20t37 -13v-47h-200v47
q31 9 38 14t7 19v225l-158 -256q-10 -23 -28.5 -22.5t-30.5 22.5l-177 258v-227q0 -14 8 -19t37 -14v-47h-167v47q31 8 38 13t7 20v297q0 17 -8 23.5t-37 13.5v51h155l187 -283l184 283h137z" />
    <glyph glyph-name="oneeighth" unicode="&#x215b;" horiz-adv-x="1382" 
d="M285 1280v-373q0 -32 59 -37v-67h-248v67q59 5 60 37v293l-64 -20v80l115 51q28 12 53 -1q27 -12 25 -30zM119 -10l885 1313h159l-884 -1313h-160zM1202 272q48 -12 78.5 -51t30.5 -90q0 -63 -60 -109q-59 -45 -162 -45q-100 0 -156 45t-56 119q0 46 28 83q29 38 72 44
q-72 28 -72 103q0 51 49 90q50 39 136 39q81 0 134 -38q52 -37 52 -89q0 -72 -74 -101zM1081 313l41 -8q16 -1 30 21q15 24 15 45q0 63 -75 63q-31 0 -47.5 -18.5t-16.5 -42.5q0 -49 53 -60zM1171 133q0 61 -75 78l-60 12q-16 2 -29.5 -24.5t-13.5 -59.5q0 -39 26.5 -66.5
t70.5 -27.5q81 0 81 88z" />
    <glyph glyph-name="threeeighths" unicode="&#x215c;" horiz-adv-x="1472" 
d="M406 1102q100 -33 100 -135q0 -78 -62 -131q-61 -52 -161 -52q-95 0 -154 48q-57 50 -57 114q0 51 55 51q30 0 43 -11q11 -10 16 -41t7 -36q20 -57 88 -57q43 0 70 31q28 30 26 69q2 63 -40 75q-42 14 -95 -15l-31 61l49 23q74 27 74 90q0 59 -66 59q-39 0 -54 -38
t-3 -79l-98 13q-25 10 -25 28q-2 64 49 105t139 41q92 0 141 -40q50 -41 50 -85q0 -60 -61 -88zM260 -10l885 1313h160l-885 -1313h-160zM1303 272q48 -12 78 -51t30 -90q0 -63 -60 -109q-59 -45 -162 -45q-100 0 -156 45t-56 119q0 46 28 83q29 38 72 44q-73 29 -71 103
q0 51 49 90t135 39q81 0 134 -38q52 -37 52 -89q2 -72 -73 -101zM1182 313l41 -8q17 -1 30 21q15 24 15 45q0 63 -76 63q-31 0 -47.5 -18.5t-16.5 -42.5q2 -49 54 -60zM1272 133q0 62 -76 78l-59 12q-16 2 -29.5 -24.5t-13.5 -59.5q0 -39 26.5 -66.5t69.5 -27.5q82 0 82 88z
" />
    <glyph glyph-name="fiveeighths" unicode="&#x215d;" horiz-adv-x="1480" 
d="M512 985q0 -86 -62 -137t-162 -51q-99 0 -155.5 42t-60.5 117q-2 25 14.5 42.5t48.5 17.5q25 0 41.5 -9.5t20.5 -22.5q3 -9 8 -34t6 -28q18 -58 78 -60q32 0 57 33t25 82q0 43 -30 76q-30 34 -67 34q-32 0 -104 -28h-70l21 256h272l15 10h53l-6 -90l-25 -21h-225l-6 -77
q46 33 116 32q70 0 133 -51q64 -51 64 -133zM258 -10l885 1313h160l-885 -1313h-160zM1300 272q48 -12 78.5 -51t30.5 -90q0 -63 -60 -109q-59 -45 -162 -45q-100 0 -156 45t-56 119q0 46 28 83q29 38 72 44q-73 29 -71 103q0 51 49 90t135 39q81 0 134 -38q52 -37 52 -89
q0 -72 -74 -101zM1180 313l41 -8q17 -1 30 21q15 24 15 45q0 63 -76 63q-31 0 -47.5 -18.5t-16.5 -42.5q2 -49 54 -60zM1270 133q0 62 -76 78l-59 12q-16 2 -29.5 -24.5t-13.5 -59.5q0 -39 26.5 -66.5t69.5 -27.5q82 0 82 88z" />
    <glyph glyph-name="seveneighths" unicode="&#x215e;" horiz-adv-x="1409" 
d="M152 862l190 348h-186l-13 -34h-82l25 106q6 29 43 29h360l-256 -512h-45q-28 0 -39 18.5t3 44.5zM207 -10l885 1313h159l-884 -1313h-160zM1249 272q48 -12 78.5 -51t30.5 -90q0 -63 -60 -109q-58 -45 -162 -45q-100 0 -156 45t-56 119q0 46 28 83q29 38 72 44
q-72 28 -72 103q0 51 49 90t136 39q81 0 134 -38q52 -37 52 -89q0 -72 -74 -101zM1128 313l41 -8q17 -1 30 21q15 24 15 45q0 63 -75 63q-31 0 -47.5 -18.5t-16.5 -42.5q0 -49 53 -60zM1219 133q0 62 -76 78l-60 12q-16 2 -29.5 -24.5t-13.5 -59.5q0 -38 27 -66t70 -28
q82 0 82 88z" />
    <glyph glyph-name="partialdiff" unicode="&#x2202;" horiz-adv-x="1146" 
d="M264 1143l-63 84q101 76 272 76q283 0 442 -203q160 -202 160 -500q0 -278 -134 -454q-133 -175 -378 -175q-208 0 -350 128q-141 127 -141 321q0 182 128 293q127 112 296 112q110 0 183 -45q75 -45 105 -94q-2 88 -9 156q-7 69 -27 144q-20 76 -52 123
q-34 51 -90.5 81.5t-128.5 30.5q-111 0 -213 -78zM784 557q0 40 -68 111t-163 71q-98 0 -149 -97q-50 -98 -50 -236q0 -80 15 -153q17 -73 63 -135q46 -61 121 -61q60 0 108 43.5t73 119.5q50 143 50 337z" />
    <glyph glyph-name="emptyset" unicode="&#x2205;" horiz-adv-x="1204" 
d="M1067 1059l-113 -150q177 -157 179 -395q0 -219 -156 -375q-157 -155 -375 -155q-155 0 -285 82l-49 -66h-129l99 129q-166 156 -166 385q0 219 155 374q156 156 375 156q146 0 270 -73l66 88h129zM305 219l498 662q-91 51 -201 51q-174 0 -296 -122t-122 -296t121 -295z
M602 96q174 0 296 122t122 296q0 182 -133 305l-502 -663q102 -60 217 -60z" />
    <glyph glyph-name="product" unicode="&#x220f;" horiz-adv-x="1327" 
d="M143 1638h1041v-2048h-162v1887h-717v-1887h-162v2048z" />
    <glyph glyph-name="summation" unicode="&#x2211;" horiz-adv-x="1167" 
d="M143 1638h881v-161h-674l592 -865l-592 -860h674v-162h-881v162l594 862l-594 863v161z" />
    <glyph glyph-name="minus" unicode="&#x2212;" horiz-adv-x="921" 
d="M102 481v103h717v-103h-717z" />
    <glyph glyph-name="radical" unicode="&#x221a;" horiz-adv-x="1660" 
d="M760 -410h-158q-42 0 -65 50l-263 589q-55 127 -139 158l-43 16v111q157 -10 324 -4l295 -633l635 1763h284v-110l-55 -17q-84 -23 -137 -161z" />
    <glyph glyph-name="infinity" unicode="&#x221e;" horiz-adv-x="1464" 
d="M1028 940q129 0 226 -112q98 -112 98 -314t-98 -312q-98 -108 -226 -108q-90 0 -172 54q-81 55 -125 157q-40 -100 -118 -157q-77 -54 -164 -54q-133 0 -235 109q-101 110 -101 311q0 202 101 314q100 112 235 112q87 0 164 -56q78 -57 118 -159q44 104 125 159
q83 56 172 56zM449 340q245 0 243 174q0 180 -243 180q-118 0 -191 -44q-72 -44 -72 -136q2 -174 263 -174zM1028 340q238 0 238 174q0 180 -238 180q-123 0 -192.5 -45t-69.5 -135q0 -174 262 -174z" />
    <glyph glyph-name="integral" unicode="&#x222b;" horiz-adv-x="1013" 
d="M975 1487q17 -35 3 -78q-14 -44 -52 -57q-72 -29 -105 41q-2 2 -11 29q-9 28 -18 42q-10 17 -31.5 31t-49.5 14q-49 0 -68.5 -36t-19.5 -115v-1432q0 -176 -77.5 -271t-215.5 -95q-196 0 -287 151q-20 35 -8 74q12 38 51 55q76 33 111 -35q4 -5 13 -30q6 -16 17 -41
q10 -19 32 -32t50 -13q49 0 68.5 36t19.5 115v1432q0 176 77.5 271t215.5 95q110 0 183.5 -41t101.5 -110z" />
    <glyph glyph-name="approxequal" unicode="&#x2248;" horiz-adv-x="1116" 
d="M907 805h107q-18 -113 -104 -184q-85 -70 -179 -70q-77 0 -145 36q-63 34 -121 72q-55 37 -103 37q-52 0 -93.5 -30t-57.5 -74h-109q28 108 109 177q79 69 186 69q95 0 193 -63q98 -62 170 -62q100 0 147 92zM907 457h107q-18 -113 -104 -184q-85 -70 -179 -70
q-77 0 -145 35q-67 37 -121 73q-55 37 -103 37q-52 0 -93.5 -30t-57.5 -74h-109q28 108 109 177q80 68 186 68q95 0 193 -62t170 -62q100 0 147 92z" />
    <glyph glyph-name="notequal" unicode="&#x2260;" horiz-adv-x="921" 
d="M778 768v-102h-237l-113 -267h350v-102h-393l-123 -297h-112l122 297h-211v102h254l113 267h-367v102h408l109 258h112l-108 -258h196z" />
    <glyph glyph-name="lessequal" unicode="&#x2264;" horiz-adv-x="1015" 
d="M102 600v162q426 163 768 350v-129l-150 -80q-130 -69 -162 -86q-56 -29 -150 -69q-93 -39 -177 -66q82 -26 176 -68q83 -36 151 -71q51 -25 162 -86q105 -55 150 -78v-129q-342 187 -768 350zM160 102h753v-102h-753v102z" />
    <glyph glyph-name="greaterequal" unicode="&#x2265;" horiz-adv-x="1015" 
d="M913 762v-162q-426 -163 -768 -350v129q25 12 149 79q135 71 163 85q59 30 151 71q94 42 176 68q-84 27 -177 66q-93 40 -150 69l-163 86q-91 50 -149 80v129q342 -187 768 -350zM102 0v102h754v-102h-754z" />
    <glyph glyph-name="lozenge" unicode="&#x25ca;" horiz-adv-x="843" 
d="M506 1272l266 -637l-266 -635h-168l-266 635l266 637h168zM422 129l194 506l-194 506l-195 -506z" />
    <glyph glyph-name="f_b.dlig" horiz-adv-x="1910" 
d="M1391 1044q178 0 313 -143t135 -397q0 -256 -139 -392q-140 -135 -311 -135q-75 0 -134 32q-57 31 -99 63q-43 32 -85 32q-44 0 -75 -28t-42 -76h-43q-61 0 -61 61v986q0 127 -34 206q-38 97 -171 97q-135 0 -176 -103q-37 -93 -37 -221h217v-82h-217v-790q0 -61 129 -76
v-78q-266 11 -530 0v78q125 14 125 76v790h-115v82h115q6 199 137 300t358 101q229 0 352 -100.5t123 -300.5v-96q100 114 265 114zM1364 57q178 0 178 375q0 238 -62 382q-61 142 -171 142q-56 0 -106 -34q-50 -33 -77 -80v-570q5 -79 80 -147q77 -68 158 -68z" />
    <glyph glyph-name="f_h.dlig" horiz-adv-x="1935" 
d="M1776 688v-543q0 -61 129 -75v-70q-266 8 -535 0v70q129 10 129 75v543q0 233 -151 234q-86 0 -146 -66t-76 -133v-578q0 -66 129 -75v-70q-266 8 -532 0v70q127 13 127 75v902q0 127 -34 206q-38 97 -171 97q-135 0 -176 -103q-37 -93 -37 -221h217v-82h-217v-790
q0 -61 129 -76v-78q-266 11 -530 0v78q125 14 125 76v790h-115v82h115q6 199 137 300t358 101q229 0 352 -100.5t123 -300.5l-32 -215h12q26 49 63 96q41 49 124 94q85 48 184 48q128 0 213 -82q86 -83 86 -279z" />
    <glyph glyph-name="f_k.dlig" horiz-adv-x="1855" 
d="M1296 608l295 -387q125 -164 244 -176l-70 -78q-125 0 -220 33q-96 33 -181 141l-238 299v-295q0 -61 129 -75v-70q-264 11 -530 0v70q125 14 125 75v902q0 127 -34 206q-38 97 -171 97q-135 0 -176 -103q-37 -93 -37 -221h217v-82h-217v-790q0 -61 129 -76v-78
q-266 11 -530 0v78q125 14 125 76v790h-115v82h115q6 199 137 300t358 101q229 0 352 -100.5t123 -300.5v-461q164 125 273 285q24 37 0.5 61.5t-86.5 30.5v84q227 -11 454 0v-84q-95 -10 -190 -90z" />
    <glyph glyph-name="A.c2sc" horiz-adv-x="1298" 
d="M733 1108l320 -848q39 -102 78 -138q41 -37 137 -44v-78q-305 8 -611 0v78q93 6 122 26q28 21 5 80l-43 115h-352l-39 -115q-17 -55 26.5 -77.5t166.5 -28.5v-78q-256 10 -512 0v78q106 7 158 37q49 30 73 100l303 893h168zM555 799l-139 -418h295z" />
    <glyph glyph-name="B.aalt" horiz-adv-x="1294" 
d="M854 612q369 -58 369 -293q0 -152 -147 -235.5t-423 -83.5h-592v78q85 6 117 21q31 16 31 53v792q0 76 -135 86v78q79 -4 179 -4q61 0 179 2t119 2q289 0 411 -81q123 -81 123 -189q0 -79 -52 -131q-51 -51 -179 -95zM600 1026h-102v-420q178 33 246 84q69 51 69 154
q0 71 -53 127q-52 55 -160 55zM602 88h47q281 0 281 238q0 107 -70 168t-207 63l-155 -35v-364q0 -41 17 -56q17 -14 87 -14z" />
    <glyph glyph-name="C.aalt" horiz-adv-x="1275" 
d="M1055 346h170q-114 -203 -133 -342q-57 12 -105 12q-59 0 -142 -23q-81 -24 -163 -24q-273 0 -436 163q-164 164 -164 427q0 249 164 416q163 166 424 166q76 0 169 -24q95 -23 148 -23q43 0 96 12q18 -185 95 -356h-150q-140 303 -377 303q-129 0 -197.5 -112.5
t-68.5 -322.5q0 -251 85 -406q86 -155 235 -155q109 0 182 69q74 71 168 220z" />
    <glyph glyph-name="D.aalt" horiz-adv-x="1353" 
d="M600 1108q307 0 489 -146q183 -145 183 -407q0 -119 -39.5 -219.5t-105.5 -162.5q-61 -60 -139 -101q-135 -72 -259 -72q-52 0 -174 17q-119 18 -195 18q-87 0 -299 -35v80q86 18 116 37q32 20 32 61v754q0 49 -29.5 70.5t-105.5 27.5v78q16 -6 270 -3q253 3 256 3z
M659 82q107 -2 174 68q65 68 92 169t27 242q0 204 -90 335q-90 130 -266 130q-58 0 -98 -4v-862q0 -33 24 -51q16 -11 37.5 -16.5t39 -7t60.5 -3.5z" />
    <glyph glyph-name="E.aalt" horiz-adv-x="1130" 
d="M913 219l50 105h96q-50 -159 -55 -324q-481 12 -943 0v78q85 6 117 21q31 16 31 55v802q0 37 -31 52q-30 16 -117 22v78h906q19 0 24.5 -6.5t9.5 -30.5l29 -211h-102l-10 19q-44 81 -88 110q-43 31 -125 31h-177q-31 0 -30 -31v-366h219q75 0 104 28q31 28 45 97h70
q-14 -170 0 -342h-70q-14 70 -45 99q-30 30 -104 30h-219v-414q0 -31 30 -31h121q114 0 171 26q57 27 93 103z" />
    <glyph glyph-name="F.aalt" horiz-adv-x="1089" 
d="M866 741h70q-14 -169 0 -342h-70q-14 71 -45 99q-30 30 -104 30h-219v-374q0 -38 30 -55q32 -15 117 -21v-78q-293 8 -584 0v78q85 6 117 21q31 16 31 55v802q0 37 -31 52q-30 16 -117 22v78h902q19 0 24.5 -6.5t9.5 -30.5l31 -225h-96l-14 24q-50 87 -93 118
q-44 32 -125 32h-172q-31 0 -30 -31v-373h219q75 0 104 28q31 28 45 97z" />
    <glyph glyph-name="G.aalt" horiz-adv-x="1355" 
d="M760 528v78q268 -6 534 0v-78l-43 -6q-30 -4 -44.5 -18.5t-21.5 -49.5q-6 -28 -8 -60q-1 -17 -1 -83v-26q0 -82 8 -172l37 -4q28 -2 26 -29v-55q-41 6 -114 6q-106 0 -230 -31q-123 -31 -221 -31q-273 0 -436 163q-164 164 -164 427q0 249 164 416q163 166 424 166
q76 0 169 -24q95 -23 148 -23q43 0 96 12q18 -185 95 -356h-150q-140 303 -377 303q-129 0 -197.5 -112.5t-68.5 -322.5q0 -251 85 -406q86 -155 235 -155q143 0 179 63q36 64 36 249q0 71 -4 91q-7 55 -91 62z" />
    <glyph glyph-name="H.aalt" horiz-adv-x="1435" 
d="M1374 1108v-78q-86 -6 -118.5 -22.5t-32.5 -53.5v-800q0 -37 32.5 -53.5t118.5 -22.5v-78q-297 10 -592 0v78q86 6 119 22.5t33 53.5v360h-432v-360q0 -37 32.5 -53.5t118.5 -22.5v-78q-297 10 -592 0v78q86 6 119 22.5t33 53.5v800q0 37 -33 53.5t-119 22.5v78
q297 -10 592 0v-78q-86 -6 -118.5 -22.5t-32.5 -53.5v-358h432v358q0 37 -33 53.5t-119 22.5v78q297 -10 592 0z" />
    <glyph glyph-name="I.aalt" horiz-adv-x="714" 
d="M502 954v-800q0 -37 32.5 -53.5t118.5 -22.5v-78q-297 10 -592 0v78q86 6 119 22.5t33 53.5v800q0 37 -33 53.5t-119 22.5v78q297 -10 592 0v-78q-86 -6 -118.5 -22.5t-32.5 -53.5z" />
    <glyph glyph-name="J.aalt" horiz-adv-x="727" 
d="M74 1030v78q295 -10 592 0v-78q-86 -6 -119 -22.5t-33 -53.5v-694q0 -336 -139 -478t-416 -142v79q135 0 200 81q66 81 66 290v864q0 37 -32.5 53.5t-118.5 22.5z" />
    <glyph glyph-name="K.aalt" horiz-adv-x="1404" 
d="M782 635l267 -361q163 -216 294 -229l-69 -78q-148 0 -254 39q-107 39 -203 168l-201 275l-114 -127v-168q0 -37 32.5 -53.5t118.5 -22.5v-78q-297 10 -592 0v78q86 6 119 22.5t33 53.5v800q0 37 -33 53.5t-119 22.5v78q297 -10 592 0v-78q-86 -6 -118.5 -22.5
t-32.5 -53.5v-489l432 479q39 43 -49 70q-37 11 -94 16v78q239 -8 477 0v-78q-139 -10 -211 -88z" />
    <glyph glyph-name="L.aalt" horiz-adv-x="1101" 
d="M905 219l66 137h90q-61 -181 -66 -356q-475 7 -929 0v78q86 6 116 21q31 16 31 55v800q0 37 -33 53.5t-119 22.5v78q297 -10 592 0v-78q-86 -6 -118.5 -22.5t-32.5 -53.5v-835q0 -31 30 -31h109q115 0 171 27q56 29 93 104z" />
    <glyph glyph-name="M.aalt" horiz-adv-x="1628" 
d="M1436 956v-802q0 -37 32.5 -53.5t118.5 -22.5v-78q-287 8 -565 0v78q79 6 101 21q24 17 24 55v702l-379 -856l-418 856v-702q0 -35 44.5 -51t154.5 -25v-78q-256 7 -508 0v78q114 9 164.5 25.5t50.5 50.5v772q0 41 -49 69.5t-133 34.5v78q220 -10 444 0l324 -664l299 664
q223 -7 446 0v-78q-87 -6 -119 -21.5t-32 -52.5z" />
    <glyph glyph-name="N.aalt" horiz-adv-x="1339" 
d="M807 1030v78q256 -7 491 0v-78q-103 -9 -154 -28t-50 -48v-954h-88l-668 856v-702q0 -36 43 -51.5t151 -24.5v-78q-256 7 -491 0v78q106 9 154.5 25.5t48.5 50.5v774q0 37 -51.5 66.5t-131.5 35.5v78q209 -8 420 0l518 -662v508q0 36 -43 51.5t-149 24.5z" />
    <glyph glyph-name="O.c2sc" horiz-adv-x="1304" 
d="M651 1141q250 0 411 -167t161 -419q0 -249 -161 -418q-161 -168 -409 -168q-250 0 -411 167q-160 166 -160 419q0 251 160 418q160 168 409 168zM686 57q111 0 173.5 112.5t62.5 324.5q0 232 -83 396q-82 163 -221 163q-110 0 -172.5 -112.5t-62.5 -324.5q0 -232 83 -396
q82 -163 220 -163z" />
    <glyph glyph-name="OE.aalt" horiz-adv-x="1904" 
d="M1688 219l49 105h96q-50 -159 -55 -324q-465 12 -906 0q-121 -31 -190 -31q-270 0 -435 166t-165 430q0 243 165 409q165 167 423 167q72 0 207 -33h864q20 0 25.5 -6.5t9.5 -30.5l28 -211h-102l-10 19q-44 80 -87 110q-43 31 -126 31h-176q-31 0 -31 -31v-366h219
q75 0 104 28q31 28 45 97h70q-14 -170 0 -342h-70q-14 70 -45 99q-30 30 -104 30h-219v-414q0 -31 31 -31h120q114 0 171 26q57 27 94 103zM385 618q0 -251 85 -406q86 -155 235 -155q84 0 148.5 43.5t129.5 137.5v598q-130 217 -332 217q-129 0 -197.5 -112.5t-68.5 -322.5
z" />
    <glyph glyph-name="P.aalt" horiz-adv-x="1220" 
d="M539 360l-41 -2v-206q0 -36 30 -53q32 -15 117 -21v-78q-293 8 -584 0v78q85 6 117 21q31 16 31 53v792q0 76 -135 86v78q79 -4 186 -4q64 0 202 2q140 2 146 2q306 0 433 -93q128 -93 128 -263q0 -168 -153 -272q-152 -104 -477 -120zM498 1024v-580l41 2q184 8 270 86
t86 228q0 126 -63.5 196t-186.5 70q-101 0 -147 -2z" />
    </font>
</defs>
</svg>
