<svg xmlns="http://www.w3.org/2000/svg" id="OBJECTS" x="0" y="0" viewBox="0 0 377.2 275.8" xml:space="preserve"><g class="nc-icon-wrapper"><ellipse transform="rotate(-45.001 183.274 75.68)" class="st0" cx="183.3" cy="75.7" rx="75.7" ry="75.7" style="" fill="#EE9730"></ellipse><path class="st1" d="M377.2 201.7h-17.4l-25.7-.1-52.4-.1 52.6-29.2 42.9 29.4z" style="" fill="#EDB188"></path><path class="st2" d="M377.2 201.7h-17.4c-5.1-9.8-20.2-15.4-24.4-18.1-5.2-3.4-1.1-11.3-1.1-11.3l42.9 29.4z" style="" fill="#EFBE97"></path><path class="st3" d="M334.1 201.6l-52.4-.1c.7-.3 13.7-6.1 23.7-3.9 8.8 1.8 24 .5 28.7 4z" style="" fill="#E8A577"></path><path class="st1" d="M195.5 201.7l-35.6-.1-52.6-.1L0 201.2h.1l107.7-59.8 87.7 60.3z" style="" fill="#EDB188"></path><path class="st2" d="M195.5 201.7l-35.6-.1c-10.5-20.1-41.3-31.4-49.9-37-10.7-7-2.2-23.1-2.2-23.1l87.7 60.2z" style="" fill="#EFBE97"></path><path class="st3" d="M107.2 201.5L0 201.2h.1c1.4-.6 28-12.5 48.4-8.1 18.1 3.9 49.2 1.3 58.7 8.4z" style="" fill="#E8A577"></path><g><path class="st2" d="M330 201.7l-24.8-.1-36.6-.1-74.6-.2 74.9-41.6 61.1 42z" style="" fill="#EFBE97"></path><path class="st4" d="M330 201.7l-24.8-.1c-7.3-14-28.7-21.9-34.7-25.8-7.4-4.9-1.6-16.1-1.6-16.1l61.1 42z" style="" fill="#F5CDA9"></path><path class="st1" d="M268.6 201.5l-74.6-.2c1-.4 19.5-8.7 33.7-5.6 12.6 2.7 34.3.9 40.9 5.8z" style="" fill="#EDB188"></path></g><g><path class="st5" d="M321.2 140.2c-5.2.1-9.2 4.5-9.2 9.7v52h18.9v-52.2c0-5.4-4.4-9.7-9.7-9.5z" style="" fill="#D3573B"></path><path class="st6" d="M321.4 140.2c-3 0-5.4 4.2-5.4 9.4v52.2h10.7v-52.2c.1-5.2-2.3-9.4-5.3-9.4z" style="" fill="#F46640"></path><path class="st6" d="M321.4 140.2c-1.1 0-2 4.2-2 9.4v52.2h4v-52.2c.1-5.2-.8-9.4-2-9.4z" style="" fill="#F46640"></path><path class="st7" d="M317.6 147.2l-1.3 1.1-.2-2.3-.3 2.3-1.2-1.1 1.2 1.9.3.5.3-.5v-.1z" style="" fill="#F9A42D"></path><path class="st7" d="M328.3 147.2l-1.3 1.1-.2-2.3-.3 2.3-1.2-1.1 1.2 1.9.3.5.3-.5v-.1z" style="" fill="#F9A42D"></path><path class="st7" d="M322.9 150.8l-1.2 1.1-.3-2.3-.2 2.3-1.2-1.1 1.1 1.8.3.5.4-.5z" style="" fill="#F9A42D"></path><path class="st7" d="M322.9 159.7l-1.2 1.1-.3-2.3-.2 2.3-1.2-1.1 1.1 1.8.3.5.4-.5z" style="" fill="#F9A42D"></path><path class="st7" d="M322.9 168.6l-1.2 1.1-.3-2.3-.2 2.3-1.2-1.1 1.1 1.8.3.6v-.1.1l.4-.6z" style="" fill="#F9A42D"></path><path class="st7" d="M317.6 155.5l-1.3 1.1-.2-2.3-.3 2.3-1.2-1.1 1.2 1.8.3.5.3-.5z" style="" fill="#F9A42D"></path><path class="st7" d="M328.3 155.5l-1.3 1.1-.2-2.3-.3 2.3-1.2-1.1 1.2 1.8.3.5.3-.5z" style="" fill="#F9A42D"></path><path class="st7" d="M317.6 163.8l-1.3 1-.2-2.3-.3 2.3-1.2-1 1.2 1.8.3.5.3-.5z" style="" fill="#F9A42D"></path><path class="st7" d="M328.3 163.8l-1.3 1-.2-2.3-.3 2.3-1.2-1 1.2 1.8.3.5.3-.5z" style="" fill="#F9A42D"></path><g><path class="st5" d="M304.1 154.4V151c0-2.1-1.6-4-3.7-4.2-2.3-.1-4.2 1.7-4.2 3.9V158.5c0 3.6 2.9 6.5 6.5 6.5h10.1v-7.9h-5.9c-1.5.1-2.8-1.2-2.8-2.7z" style="" fill="#D3573B"></path><path class="st6" d="M302.8 162.3c-2.1 0-3.8-1.7-3.8-3.8v-7.8c0-.7.5-1.2 1.2-1.2s1.2.7 1.2 1.4v6c0 1.6 1.3 2.9 2.9 2.9h7.7v2.4h-9.2z" style="" fill="#F46640"></path><path class="st7" d="M304.3 161.2l-1.2 1.1-.3-2.4-.2 2.4-1.3-1.1 1.2 1.8.3.5.3-.5z" style="" fill="#F9A42D"></path><path class="st7" d="M300.5 155.5l-1.3 1.1-.2-2.3-.3 2.3-1.2-1.1 1.1 1.8.4.5.3-.5z" style="" fill="#F9A42D"></path><path class="st7" d="M302.8 150.4l-1.2 1.1-.3-2.3-.2 2.3-1.3-1.1 1.2 1.8.3.6.4-.6z" style="" fill="#F9A42D"></path><path class="st7" d="M310 161.2l-1.2 1.1-.3-2.4-.2 2.4-1.2-1.1 1.1 1.8.3.5.4-.5z" style="" fill="#F9A42D"></path></g><g><path class="st5" d="M339.6 170.8v-3.3c0-2.1 1.6-4 3.7-4.2 2.3-.1 4.2 1.7 4.2 3.9V175c0 3.6-2.9 6.5-6.5 6.5h-10.1v-7.9h5.9c1.5 0 2.8-1.3 2.8-2.8z" style="" fill="#D3573B"></path><path class="st6" d="M340.9 178.7c2.1 0 3.8-1.7 3.8-3.8v-7.8c0-.7-.5-1.2-1.2-1.2s-1.2.7-1.2 1.4v6c0 1.6-1.3 2.9-2.9 2.9h-8.5v2.4h10z" style="" fill="#F46640"></path><path class="st7" d="M339.4 177.6l1.2 1 .3-2.3.2 2.3 1.3-1-1.2 1.8-.3.5-.3-.5z" style="" fill="#F9A42D"></path><path class="st7" d="M343.2 171.9l1.3 1.1.2-2.4.3 2.4 1.2-1.1-1.2 1.8-.3.5-.3-.5z" style="" fill="#F9A42D"></path><path class="st7" d="M340.9 166.8l1.2 1.1.3-2.3.2 2.3 1.3-1.1-1.2 1.8-.3.5-.4-.5z" style="" fill="#F9A42D"></path><path class="st7" d="M333.7 177.6l1.2 1 .2-2.3.3 2.3 1.2-1-1.1 1.8-.4.5-.3-.5z" style="" fill="#F9A42D"></path></g><g><path class="st7" d="M317.6 173.2l-1.3 1.1-.2-2.4-.3 2.4-1.2-1.1 1.2 1.8.3.5.3-.5z" style="" fill="#F9A42D"></path><path class="st7" d="M328.3 173.2l-1.3 1.1-.2-2.4-.3 2.4-1.2-1.1 1.2 1.8.3.5.3-.5z" style="" fill="#F9A42D"></path><path class="st7" d="M322.9 176.8l-1.2 1-.3-2.3-.2 2.3-1.2-1 1.1 1.8.3.5.4-.5z" style="" fill="#F9A42D"></path><path class="st7" d="M322.9 185.7l-1.2 1-.3-2.3-.2 2.3-1.2-1 1.1 1.8.3.5.4-.5z" style="" fill="#F9A42D"></path><path class="st7" d="M322.9 194.6l-1.2 1-.3-2.3-.2 2.3-1.2-1 1.1 1.8.3.5.4-.5z" style="" fill="#F9A42D"></path><path class="st7" d="M317.6 181.4l-1.3 1.1-.2-2.3-.3 2.3-1.2-1.1 1.2 1.9.3.5.3-.5z" style="" fill="#F9A42D"></path><path class="st7" d="M328.3 181.4l-1.3 1.1-.2-2.3-.3 2.3-1.2-1.1 1.2 1.9.3.5.3-.5z" style="" fill="#F9A42D"></path><path class="st7" d="M317.6 189.7l-1.3 1.1-.2-2.3-.3 2.3-1.2-1.1 1.2 1.8.3.5.3-.5z" style="" fill="#F9A42D"></path><path class="st7" d="M328.3 189.7l-1.3 1.1-.2-2.3-.3 2.3-1.2-1.1 1.2 1.8.3.5.3-.5z" style="" fill="#F9A42D"></path></g><g><path class="st8" d="M322.3 137s.2-3-.8-4.9c-1 2-.8 4.9-.8 4.9h1.6z" style="" fill="#3F1715"></path><path class="st9" d="M322.6 136c-.3.4-.5.6-.8.6h-.8c-.3 0-.5-.2-.8-.6l-1.3-2.1.8 3.6c.4 2 1 3.1 1.6 3.1.6 0 1.2-1.1 1.6-3.1l.8-3.6-1.1 2.1z" style="" fill="#21120D"></path><path class="st8" d="M323.2 136.7c-.4.4-.8.5-1.2.5h-1c-.4 0-.8-.2-1.2-.5l-2-1.8 1.2 3.1c.7 1.7 1.6 2.6 2.5 2.6.9 0 1.8-.9 2.5-2.6l1.2-3.1-2 1.8z" style="" fill="#3F1715"></path><path class="st9" d="M324 137.3c-.6.3-1.2.4-1.8.4h-1.6c-.6 0-1.2-.1-1.8-.4l-2.9-1.5 1.8 2.5c1 1.4 2.3 2.2 3.7 2.2 1.4 0 2.7-.8 3.7-2.2l1.8-2.5-2.9 1.5z" style="" fill="#21120D"></path></g><g><path class="st8" d="M300.4 145.4s.1-1.9-.5-3.1c-.6 1.2-.5 3.1-.5 3.1h1z" style="" fill="#3F1715"></path><path class="st9" d="M300.6 144.8c-.2.3-.3.4-.5.4h-.4c-.2 0-.3-.1-.5-.4l-.8-1.3.5 2.3c.3 1.2.6 1.9 1 1.9s.8-.7 1-1.9l.5-2.3-.8 1.3z" style="" fill="#21120D"></path><path class="st8" d="M300.9 145.2c-.2.2-.5.3-.8.3h-.6c-.3 0-.5-.1-.8-.3l-1.2-1.1.8 1.9c.4 1.1 1 1.7 1.6 1.7.6 0 1.2-.6 1.6-1.7l.8-1.9-1.4 1.1z" style="" fill="#3F1715"></path><path class="st9" d="M301.5 145.6c-.4.2-.7.3-1.1.3h-1c-.4 0-.8-.1-1.1-.3l-1.8-.9 1.1 1.6c.6.9 1.5 1.4 2.3 1.4.9 0 1.7-.5 2.3-1.4l1.1-1.6-1.8.9z" style="" fill="#21120D"></path></g><g><path class="st8" d="M344.2 160.9s.2-2.5-.7-4.1c-.8 1.6-.7 4.1-.7 4.1h1.4z" style="" fill="#3F1715"></path><path class="st9" d="M344.4 160.1c-.2.3-.4.5-.6.5h-.6c-.2 0-.4-.2-.6-.5l-1.1-1.7.7 3c.4 1.6.8 2.5 1.3 2.5s1-.9 1.3-2.5l.7-3-1.1 1.7z" style="" fill="#21120D"></path><path class="st8" d="M344.9 160.7c-.3.3-.7.4-1 .4h-.9c-.3 0-.7-.1-1-.4l-1.6-1.5 1 2.5c.5 1.4 1.3 2.1 2.1 2.1s1.5-.8 2.1-2.1l1-2.5-1.7 1.5z" style="" fill="#3F1715"></path><path class="st9" d="M345.6 161.2c-.5.2-1 .4-1.4.4h-1.4c-.5 0-1-.1-1.4-.4L339 160l1.5 2.1c.8 1.1 1.9 1.8 3 1.8s2.2-.6 3-1.8l1.5-2.1-2.4 1.2z" style="" fill="#21120D"></path></g></g><g><path class="st10" d="M216.2 106.9l-29.3-8.4-3.6 19.4 10.4 5.9 3.2 15.7.1 25 3.7 20-13.5-2.3-.5 4.8-2.3 18.6 2.7 3.4 27.5-13.2 10.1-32.8 2-21.8-10.5-34.3z" style="" fill="#421819"></path><path class="st11" d="M170.1 139.5l3.2 25L176 183l9.2 4.4 3.4 19.1-25.3-14.1-12.7-29.4-.2-21.9 9.3-32.6 24.6-8.3 2.3 16.9-5.9 6.8z" style="" fill="#612423"></path><g><path class="st10" d="M126.1 165.2l15.2-1.5 3.6 20.4-15.4-2.7 3 24.3-24-3.6-1.9-19.8-39.6-1.2.4-12.9 14.4-21.4 11-24.1 13.5-22.6.6.6 24.8-1 3.2 32.5-8.8 33zM81.6 164l25.5-.3-4.1-32.2 2.3-1.2 1.2 5.4L81.6 164z" style="" fill="#421819"></path><path class="st11" d="M142.6 161.9l-2.9 16.6-35.7 3.3-38.5 3.1-.9-17.7 13.1-23.1 12-23.6 17.8-21.4-2.2 31.8-19.9 33 28.8 3.6z" style="" fill="#612423"></path><g><path class="st10" d="M293.7 165.2l15.2-1.5 3.6 20.4-15.4-2.7 3 24.3-24-3.6-1.9-19.8-39.8-1.3.4-12.9 14.4-21.4 11-24.1 13.5-22.6.6.6 24.8-1 3.2 32.5-8.6 33.1zm-44.5-1.2l25.5-.3-4.1-32.2 2.3-1.2 1.2 5.4-24.9 28.3z" style="" fill="#421819"></path><path class="st11" d="M310.2 161.9l-2.8 16.6-35.7 3.3-38.5 3.1-1-17.7 13.2-23.1 12-23.6 17.8-21.4-2.2 31.8-20 33 28.9 3.6z" style="" fill="#612423"></path></g></g></g><g><path class="st5" d="M53.3 101.2c-6.4.2-11.4 5.6-11.4 12v100.2h23.5V112.9c-.1-6.6-5.5-11.9-12.1-11.7z" style="" fill="#D3573B"></path><path class="st6" d="M53.6 101.2c-3.7 0-6.7 5.2-6.7 11.7v100.4h13.3V112.9c.1-6.5-2.9-11.7-6.6-11.7z" style="" fill="#F46640"></path><path class="st6" d="M53.6 101.2c-1.4 0-2.5 5.2-2.5 11.7v100.4h5V112.9c0-6.5-1.1-11.7-2.5-11.7z" style="" fill="#F46640"></path><path class="st7" d="M48.8 109.9l-1.5 1.4-.3-2.9-.3 2.9-1.6-1.4 1.5 2.3.4.6.4-.6z" style="" fill="#F9A42D"></path><path class="st7" d="M62.1 109.9l-1.6 1.4-.3-2.9-.3 2.9-1.5-1.4 1.4 2.3.4.6.4-.6z" style="" fill="#F9A42D"></path><path class="st7" d="M55.4 114.4l-1.5 1.3-.3-2.9-.3 2.9-1.5-1.3 1.4 2.2.4.7.4-.7z" style="" fill="#F9A42D"></path><path class="st7" d="M55.4 125.4l-1.5 1.4-.3-2.9-.3 2.9-1.5-1.4 1.4 2.3.4.6.4-.6z" style="" fill="#F9A42D"></path><path class="st7" d="M55.4 136.5l-1.5 1.3-.3-2.9-.3 2.9-1.5-1.3 1.4 2.2.4.7.4-.7z" style="" fill="#F9A42D"></path><path class="st7" d="M48.8 120.2l-1.5 1.3-.3-2.9-.3 2.9-1.6-1.3 1.5 2.2.4.7.4-.7z" style="" fill="#F9A42D"></path><path class="st7" d="M62.1 120.2l-1.6 1.3-.3-2.9-.3 2.9-1.5-1.3 1.4 2.2.4.7.4-.7z" style="" fill="#F9A42D"></path><path class="st7" d="M48.8 130.4l-1.5 1.4-.3-2.9-.3 2.9-1.6-1.4 1.5 2.3.4.6.4-.6z" style="" fill="#F9A42D"></path><path class="st7" d="M62.1 130.4l-1.6 1.4-.3-2.9-.3 2.9-1.5-1.4 1.4 2.3.4.6.4-.6z" style="" fill="#F9A42D"></path><g><path class="st5" d="M32.1 118.8v-4.1c0-2.7-2-5-4.6-5.2-2.8-.1-5.2 2.1-5.2 4.9v9.6c0 4.5 3.6 8.1 8.1 8.1h12.5v-9.8h-7.3c-1.9 0-3.5-1.6-3.5-3.5z" style="" fill="#D3573B"></path><path class="st6" d="M30.4 128.7c-2.6 0-4.7-2.1-4.7-4.7v-9.6c0-.8.7-1.5 1.5-1.5s1.5.8 1.5 1.8v7.5c0 2 1.6 3.6 3.6 3.6h9.6v3H30.4z" style="" fill="#F46640"></path><path class="st7" d="M32.3 127.3l-1.5 1.3-.3-2.9-.3 2.9-1.6-1.3 1.5 2.2.4.7.4-.7z" style="" fill="#F9A42D"></path><path class="st7" d="M27.6 120.2l-1.6 1.3-.3-2.9-.3 2.9-1.5-1.3 1.4 2.2.4.7.4-.7z" style="" fill="#F9A42D"></path><path class="st7" d="M30.5 113.9l-1.6 1.3-.3-2.8-.3 2.8-1.5-1.3 1.4 2.3.4.6.4-.6z" style="" fill="#F9A42D"></path><path class="st7" d="M39.4 127.3l-1.5 1.3-.3-2.9-.3 2.9-1.6-1.3 1.5 2.2.4.7.4-.7z" style="" fill="#F9A42D"></path></g><g><path class="st5" d="M76.1 173.6v-4.1c0-2.7 2-5 4.6-5.2 2.8-.1 5.2 2.1 5.2 4.9v9.6c0 4.5-3.6 8.1-8.1 8.1H65.3v-9.8h7.3c1.9 0 3.5-1.6 3.5-3.5z" style="" fill="#D3573B"></path><path class="st6" d="M77.8 183.4c2.6 0 4.7-2.1 4.7-4.7v-9.6c0-.8-.7-1.5-1.5-1.5s-1.5.8-1.5 1.8v7.5c0 2-1.6 3.6-3.6 3.6H65.3v3h12.5z" style="" fill="#F46640"></path><path class="st7" d="M75.9 182l1.5 1.4.3-2.9.3 2.9 1.6-1.4-1.5 2.3-.4.6-.4-.6z" style="" fill="#F9A42D"></path><path class="st7" d="M80.6 174.9l1.6 1.4.3-2.9.3 2.9 1.5-1.4-1.4 2.3-.4.6-.4-.6z" style="" fill="#F9A42D"></path><path class="st7" d="M77.7 168.6l1.6 1.4.3-2.9.3 2.9 1.5-1.4-1.4 2.3-.4.7v-.1.1l-.4-.7z" style="" fill="#F9A42D"></path><path class="st7" d="M68.8 182l1.5 1.4.3-2.9.3 2.9 1.6-1.4-1.5 2.3-.4.6-.4-.6z" style="" fill="#F9A42D"></path></g><g><path class="st7" d="M48.8 142.1l-1.5 1.4-.3-2.9-.3 2.9-1.6-1.4 1.5 2.3.4.6.4-.6z" style="" fill="#F9A42D"></path><path class="st7" d="M62.1 142.1l-1.6 1.4-.3-2.9-.3 2.9-1.5-1.4 1.4 2.3.4.6.4-.6z" style="" fill="#F9A42D"></path><path class="st7" d="M55.4 146.6l-1.5 1.3-.3-2.9-.3 2.9-1.5-1.3 1.4 2.2.4.7.4-.7z" style="" fill="#F9A42D"></path><path class="st7" d="M55.4 157.6l-1.5 1.4-.3-2.9-.3 2.9-1.5-1.4 1.4 2.3.4.6.4-.6z" style="" fill="#F9A42D"></path><path class="st7" d="M55.4 168.7l-1.5 1.3-.3-2.9-.3 2.9-1.5-1.3 1.4 2.2.4.7.4-.7z" style="" fill="#F9A42D"></path><path class="st7" d="M48.8 152.4l-1.5 1.3-.3-2.8-.3 2.8-1.6-1.3 1.5 2.3.4.6.4-.6z" style="" fill="#F9A42D"></path><path class="st7" d="M62.1 152.4l-1.6 1.3-.3-2.8-.3 2.8-1.5-1.3 1.4 2.3.4.6.4-.6z" style="" fill="#F9A42D"></path><path class="st7" d="M48.8 162.7l-1.5 1.3-.3-2.9-.3 2.9-1.6-1.3 1.5 2.2.4.7.4-.7z" style="" fill="#F9A42D"></path><path class="st7" d="M62.1 162.7l-1.6 1.3-.3-2.9-.3 2.9-1.5-1.3 1.4 2.2.4.7.4-.7z" style="" fill="#F9A42D"></path></g><g><path class="st7" d="M48.8 175l-1.5 1.3-.3-2.9-.3 2.9-1.6-1.3 1.5 2.2.4.7.4-.7z" style="" fill="#F9A42D"></path><path class="st7" d="M62.1 175l-1.6 1.3-.3-2.9-.3 2.9-1.5-1.3 1.4 2.2.4.7.4-.7z" style="" fill="#F9A42D"></path><path class="st7" d="M55.4 179.4l-1.5 1.4-.3-2.9-.3 2.9-1.5-1.4 1.4 2.3.4.6.4-.6z" style="" fill="#F9A42D"></path><path class="st7" d="M55.4 190.5l-1.5 1.3-.3-2.9-.3 2.9-1.5-1.3 1.4 2.2.4.7.4-.7z" style="" fill="#F9A42D"></path><path class="st7" d="M55.4 201.5l-1.5 1.4-.3-2.9-.3 2.9-1.5-1.4 1.4 2.3.4.6.4-.6z" style="" fill="#F9A42D"></path><path class="st7" d="M48.8 185.2l-1.5 1.4-.3-2.9-.3 2.9-1.6-1.4 1.5 2.3.4.6.4-.6z" style="" fill="#F9A42D"></path><path class="st7" d="M62.1 185.2l-1.6 1.4-.3-2.9-.3 2.9-1.5-1.4 1.4 2.3.4.6.4-.6z" style="" fill="#F9A42D"></path><path class="st7" d="M48.8 195.5l-1.5 1.3-.3-2.8-.3 2.8-1.6-1.3 1.5 2.3.4.6.4-.6z" style="" fill="#F9A42D"></path><path class="st7" d="M62.1 195.5l-1.6 1.3-.3-2.8-.3 2.8-1.5-1.3 1.4 2.3.4.6.4-.6z" style="" fill="#F9A42D"></path></g><g><path class="st8" d="M54.6 97.2s.2-3.7-1-6.1c-1.3 2.4-1 6.1-1 6.1h2z" style="" fill="#3F1715"></path><path class="st9" d="M55 96c-.3.5-.6.8-1 .8h-.8c-.3 0-.7-.3-1-.8l-1.6-2.6 1 4.5c.5 2.4 1.3 3.8 2 3.8.8 0 1.5-1.4 2-3.8l1-4.5L55 96z" style="" fill="#21120D"></path><path class="st8" d="M55.8 96.8c-.5.4-1 .7-1.5.7h-1.4c-.5 0-1-.2-1.5-.7L49 94.6l1.5 3.8c.8 2.1 1.9 3.2 3.1 3.2 1.2 0 2.3-1.2 3.1-3.2l1.5-3.8-2.4 2.2z" style="" fill="#3F1715"></path><path class="st9" d="M56.8 97.7c-.7.4-1.4.5-2.2.5h-2c-.7 0-1.5-.2-2.2-.5l-3.6-1.8 2.2 3.2c1.2 1.7 2.8 2.7 4.5 2.7 1.7 0 3.3-1 4.5-2.7l2.2-3.2-3.4 1.8z" style="" fill="#21120D"></path></g><g><path class="st8" d="M27.4 107.6s.1-2.4-.7-3.9c-.8 1.5-.7 3.9-.7 3.9h1.4z" style="" fill="#3F1715"></path><path class="st9" d="M27.7 106.9c-.2.3-.4.5-.6.5h-.6c-.2 0-.4-.2-.6-.5l-1-1.7.6 2.8c.3 1.5.8 2.4 1.3 2.4s.9-.9 1.3-2.4l.6-2.8-1 1.7z" style="" fill="#21120D"></path><path class="st8" d="M28.2 107.4c-.3.3-.6.4-.9.4h-.8c-.3 0-.6-.1-.9-.4l-1.5-1.4 1 2.4c.5 1.3 1.2 2.1 2 2.1.7 0 1.4-.7 2-2.1l1-2.4-1.9 1.4z" style="" fill="#3F1715"></path><path class="st9" d="M28.8 107.9c-.4.2-.9.3-1.4.3h-1.2c-.5 0-.9-.1-1.4-.3l-2.3-1.2 1.4 2c.8 1.1 1.8 1.7 2.9 1.7 1.1 0 2.1-.6 2.9-1.7l1.4-2-2.3 1.2z" style="" fill="#21120D"></path></g><g><path class="st8" d="M81.8 161.4s.2-3-.9-5.1c-1 2-.9 5.1-.9 5.1h1.8z" style="" fill="#3F1715"></path><path class="st9" d="M82.1 160.4c-.3.4-.5.6-.8.6h-.7c-.3 0-.5-.2-.8-.6l-1.3-2.1.8 3.7c.4 2 1 3.1 1.7 3.1.6 0 1.2-1.1 1.7-3.1l.8-3.7-1.4 2.1z" style="" fill="#21120D"></path><path class="st8" d="M82.7 161.1c-.4.4-.8.5-1.2.5h-1.1c-.4 0-.8-.2-1.2-.5l-2-1.8 1.2 3.1c.7 1.7 1.6 2.7 2.5 2.7 1 0 1.9-1 2.5-2.7l1.2-3.1-1.9 1.8z" style="" fill="#3F1715"></path><path class="st9" d="M83.6 161.7c-.6.3-1.2.5-1.8.5h-1.6c-.6 0-1.2-.2-1.8-.5l-2.9-1.5 1.8 2.6c1 1.4 2.3 2.2 3.7 2.2 1.4 0 2.7-.8 3.7-2.2l1.8-2.6-2.9 1.5z" style="" fill="#21120D"></path></g></g><g><path class="st0" d="M364.3 200c-.7 0-12.2 17.6-13.3 19.2-5.9 8.4-17.6 9.7-26.6 14.7-6.9 3.8-12.2 9.8-16.5 16.4-5.6 8.7-10.2 19.1-19.6 23.4-7.5 3.4-16.5 1.9-24.1-1.3-12.7-5.4-22-11.7-36-13.5-13.4-1.7-27.3.1-39.8 5.5-12.4 5.4-25.3 14.3-38.2 10.5-16.4-4.9-23.1-28-40.1-30.7-12.2-1.9-23.2 8.1-35.5 9-12 .9-22.9-7.1-30.6-16.3-7.6-9.3-13.2-20.2-21.5-28.9-3-3.1-6.2-5.7-9.6-8h351.4z" style="" fill="#EE9730"></path><path class="st7" d="M364.3 200c-.7 0-12.2 17.6-13.3 19.2-5.9 8.4-17.6 9.7-26.6 14.7-6.9 3.8-12.2 9.8-16.5 16.4-5.6 8.7-10.2 19.1-19.6 23.4-7.5 3.4-16.5 1.9-24.1-1.3-12.7-5.4-22-11.7-36-13.5-13.4-1.7-27.3.1-39.8 5.5-12.4 5.4-25.3 14.3-38.2 10.5-16.4-4.9-23.1-28-40.1-30.7-12.2-1.9-23.2 8.1-35.5 9-12 .9-22.9-7.1-30.6-16.3-7.6-9.3-13.2-20.2-21.5-28.9-3-3.1-6.2-5.7-9.6-8h25.2c1.9 2.7 3.8 5.3 5.9 7.8 7.6 9.3 18.6 17.2 30.6 16.3 12.3-.9 23.3-10.9 35.5-9 16.9 2.6 23.6 25.8 40.1 30.7 13 3.9 25.8-5.1 38.2-10.5 12.4-5.4 26.3-7.2 39.8-5.5 14 1.8 23.3 8.1 36 13.5 7.6 3.2 16.6 4.7 24.1 1.3 9.4-4.3 14-14.7 19.6-23.4 4.3-6.6 9.6-12.6 16.5-16.4 3.6-2 7.7-3.4 11.6-4.9h28.3z" style="" fill="#F9A42D"></path></g><g><g id="XMLID_91_"><path id="XMLID_95_" class="st12" d="M193.8 41.3h72c-.3-6.9-6-12.5-13-12.5-2.9-6.5-9.4-11-16.9-11-9.1 0-16.6 6.6-18.2 15.2-.3 0-.7-.1-1-.1-2.9 0-5.5 1.4-7.2 3.6-.6-.1-1.1-.2-1.7-.2-2.1 0-4 .9-5.3 2.4-.9-.5-1.9-.7-3-.7-2.5-.1-4.6 1.3-5.7 3.3z" style="" fill="#FAFBED"></path><path id="XMLID_94_" class="st12" d="M281.4 42.3h-96.6c-.4 0-.6-.3-.6-.6 0-.4.3-.6.6-.6h96.6c.4 0 .6.3.6.6.1.3-.2.6-.6.6z" style="" fill="#FAFBED"></path><path id="XMLID_93_" class="st12" d="M210.2 45.9h-35.4c-.4 0-.6-.3-.6-.6 0-.4.3-.6.6-.6h35.4c.4 0 .6.3.6.6.1.3-.2.6-.6.6z" style="" fill="#FAFBED"></path><path id="XMLID_92_" class="st12" d="M251.6 45.9h-19.4c-.4 0-.6-.3-.6-.6 0-.4.3-.6.6-.6h19.4c.4 0 .6.3.6.6.1.3-.2.6-.6.6z" style="" fill="#FAFBED"></path></g><g id="XMLID_86_"><path id="XMLID_90_" class="st12" d="M159.1 78.2H98.4c.2-5.8 5-10.5 10.9-10.5 2.4-5.5 7.9-9.3 14.3-9.3 7.7 0 14 5.5 15.3 12.8h.8c2.5 0 4.7 1.2 6 3 .5-.1 1-.2 1.5-.2 1.8 0 3.4.8 4.5 2 .7-.4 1.6-.6 2.5-.6 2.2-.1 4 1.1 4.9 2.8z" style="" fill="#FAFBED"></path><path id="XMLID_89_" class="st12" d="M85.3 79h81.4c.3 0 .5-.2.5-.5s-.2-.5-.5-.5H85.3c-.3 0-.5.2-.5.5-.1.3.2.5.5.5z" style="" fill="#FAFBED"></path><path id="XMLID_88_" class="st12" d="M145.3 82.1h29.8c.3 0 .5-.2.5-.5s-.2-.5-.5-.5h-29.8c-.3 0-.5.2-.5.5-.1.2.2.5.5.5z" style="" fill="#FAFBED"></path><path id="XMLID_87_" class="st12" d="M110.4 82.1h16.4c.3 0 .5-.2.5-.5s-.2-.5-.5-.5h-16.4c-.3 0-.5.2-.5.5-.1.2.2.5.5.5z" style="" fill="#FAFBED"></path></g></g></g></svg>