<?xml version="1.0" standalone="no"?>
<!DOCTYPE svg PUBLIC "-//W3C//DTD SVG 1.1//EN" "http://www.w3.org/Graphics/SVG/1.1/DTD/svg11.dtd" >
<svg xmlns="http://www.w3.org/2000/svg" xmlns:xlink="http://www.w3.org/1999/xlink" version="1.1">
<metadata>
Created by FontForge 20170731 at Tue Apr 18 09:20:52 2017
 By Aleksey,,,
Copyright (c) 2015 by Connary Fagen. All rights reserved. |DCNT
</metadata>
<defs>
<font id="ArgentCF-Bold" horiz-adv-x="1157" >
  <font-face 
    font-family="Argent CF"
    font-weight="700"
    font-stretch="normal"
    units-per-em="2048"
    panose-1="0 0 8 0 0 0 0 0 0 0"
    ascent="1638"
    descent="-410"
    x-height="1026"
    cap-height="1272"
    bbox="-911.01 -675.587 2191 1759"
    underline-thickness="0"
    underline-position="0"
    unicode-range="U+0020-FB02"
  />
<missing-glyph horiz-adv-x="1054" 
d="M197 1638h667v-2109h-667v2109zM702 1427v70h-348v-70h138v-77h-140v-70h350v70h-139v77h139zM563 1077v148h-211v-219h350v71h-139zM422 1153h70v-76h-70v76zM702 879v69h-350v-69h140v-78h-140v-70h211v148h139zM702 610v211h-69v-139h-281v-72h350zM702 326v239h-210
v-119h71v50h70v-101h-211v170h-70v-239h350zM702 -39v240h-350v-240h350zM422 131h211v-100h-211v100zM702 -158v70h-350v-70h148l-148 -98v-70h350v70h-215l148 98h67z" />
    <glyph glyph-name="uniFB01" unicode="fi" horiz-adv-x="1409" 
d="M981 1206q0 -53 -29.5 -81.5t-81.5 -28.5q-59 0 -90 37q-29 37 -37 84q-6 47 -34 84q-27 38 -82 38q-81 0 -114.5 -76.5t-33.5 -236.5h203v-94h-203v-774q0 -61 131 -76v-82q-291 6 -579 0v82q127 13 127 76v774h-119v94h119q2 209 134 307q132 99 322 99q161 0 264 -62
q103 -61 103 -164zM1237 680v-522q0 -61 131 -76v-82q-291 6 -580 0v82q127 13 127 76v573q0 63 -30 85t-97 11v82q239 43 400 138q43 -18 61 -60q-12 -97 -12 -307z" />
    <glyph glyph-name="uniFB02" unicode="fl" horiz-adv-x="1398" 
d="M1227 1014v-856q0 -61 131 -76v-82q-289 6 -580 0v82q127 13 127 76v876q0 142 -43 224q-44 83 -170 83q-135 0 -176 -96q-21 -52 -29 -97q-8 -51 -8 -122h203v-94h-203v-766q0 -61 133 -76v-90q-291 11 -581 0v90q127 13 127 76v766h-119v94h119q6 198 149 302
q145 104 391 104q250 0 389 -106q140 -105 140 -312z" />
    <glyph glyph-name=".notdef" horiz-adv-x="1054" 
d="M197 1638h667v-2109h-667v2109zM702 1427v70h-348v-70h138v-77h-140v-70h350v70h-139v77h139zM563 1077v148h-211v-219h350v71h-139zM422 1153h70v-76h-70v76zM702 879v69h-350v-69h140v-78h-140v-70h211v148h139zM702 610v211h-69v-139h-281v-72h350zM702 326v239h-210
v-119h71v50h70v-101h-211v170h-70v-239h350zM702 -39v240h-350v-240h350zM422 131h211v-100h-211v100zM702 -158v70h-350v-70h148l-148 -98v-70h350v70h-215l148 98h67z" />
    <glyph glyph-name="glyph1" horiz-adv-x="0" 
 />
    <glyph glyph-name="glyph2" horiz-adv-x="681" 
 />
    <glyph glyph-name="space" unicode=" " horiz-adv-x="450" 
 />
    <glyph glyph-name="exclam" unicode="!" horiz-adv-x="555" 
d="M338 444h-115q-5 204 -61 416q-56 216 -56 262q0 84 54 133q56 50 120 50q66 0 119 -50q54 -49 54 -133q0 -46 -56 -262q-54 -210 -59 -416zM344 26q-45 -46 -109 -46q-63 0 -108 46t-45 109q0 64 45 109t108 45q64 0 109 -45t45 -109q0 -63 -45 -109z" />
    <glyph glyph-name="quotedbl" unicode="&#x22;" horiz-adv-x="749" 
d="M141 891q-21 87 -63 260q-16 72 23 113q41 41 106 41q61 0 100 -41q39 -40 25 -113l-64 -260q-10 -55 -61 -55q-60 0 -66 55zM483 891l-63 260q-16 72 23 113q41 41 106 41q61 0 100 -41q39 -40 25 -113l-64 -260q-10 -55 -61 -55q-60 0 -66 55z" />
    <glyph glyph-name="numbersign" unicode="#" horiz-adv-x="1263" 
d="M1016 954h127q33 0 28 -30l-14 -152q-6 -31 -33 -31h-161l-58 -233h154q31 0 28 -31l-14 -149q-4 -31 -33 -31h-188l-90 -358h-225l92 358h-146l-90 -358h-225l92 358h-139q-30 0 -29 31l14 149q4 31 33 31h176l62 233h-172q-35 0 -29 31l14 152q2 32 33 30h209l109 422
h215l-107 -422h150l108 422h215zM537 508h147l59 233h-147z" />
    <glyph glyph-name="dollar" unicode="$" horiz-adv-x="1056" 
d="M1006 356q0 -182 -128 -281q-129 -99 -294 -106v-94h-103v100q-56 12 -133 48q-76 36 -106 36q-31 0 -50.5 -18t-23.5 -41h-94l-23 324h94q53 -123 153 -186q101 -62 200 -62q87 0 138.5 47t51.5 127q0 76 -54 138q-53 62 -200 136q-94 48 -137 77q-60 40 -112 86
q-115 103 -115 263q0 165 116 260q118 95 289 95h6v106h103v-117q29 -6 83 -24q54 -17 72 -17q43 0 49 35h97l18 -307h-78q-103 225 -280 225q-83 0 -129 -45q-47 -45 -47 -110q0 -74 54 -129t175 -111q175 -84 244 -137q164 -128 164 -318z" />
    <glyph glyph-name="percent" unicode="%" horiz-adv-x="1421" 
d="M354 741q-116 0 -190 83q-72 82 -72 200q0 117 73 199t189 82q119 0 191 -82q73 -82 73 -199q0 -118 -73 -200q-72 -83 -191 -83zM219 -10l850 1313h168l-848 -1313h-170zM354 827q90 0 90 197q0 195 -90 195q-86 0 -86 -195q0 -197 86 -197zM1065 -23q-116 0 -190 83
q-72 83 -72 200q0 116 72 199q73 82 190 82q119 0 191 -82q73 -82 73 -199q0 -118 -73 -200q-72 -83 -191 -83zM1153 260q0 195 -88 195t-88 -195q0 -197 88 -197t88 197z" />
    <glyph glyph-name="ampersand" unicode="&#x26;" horiz-adv-x="1560" 
d="M1509 1042q0 -68 -47 -138q-18 -27 -56 -56l-65 -48q-21 -15 -79 -43q-63 -29 -79 -35q-48 -20 -85 -34q-61 -23 -76 -31q140 -20 217.5 -93.5t79.5 -182.5q2 -179 -194 -295q-195 -117 -441 -117q-276 0 -455 117q-178 117 -178 315q0 166 119 258q119 93 221 80
q-89 12 -163 86q-72 73 -72 176q0 135 123 219q124 85 303 85q92 0 175 -23t143 -86q63 -63 63 -162q0 -101 -59 -177q-58 -75 -150 -75q-53 0 -85 27t-32 72q0 36 40 85t40 105q0 67 -33.5 109.5t-91.5 42.5q-74 0 -108 -63q-33 -62 -33 -144q0 -93 45.5 -168t132.5 -113
l-33 -106l-25 2q-80 2 -131 -64q-51 -65 -51 -178q0 -136 77 -234q76 -96 218 -96q160 0 233 102q74 104 74 228q0 73 -28 117.5t-78 44.5q-59 0 -77 -49q-16 -49 30 -92h-113q-66 33 -66 96q0 84 134 170l256 172q92 61 134 108.5t42 102.5q0 54 -42.5 77t-117.5 7
q-10 -4 -20.5 6.5t-18.5 34.5q-18 44 12 57q85 33 179 33q113 0 202 -59q90 -58 90 -173z" />
    <glyph glyph-name="quotesingle" unicode="'" horiz-adv-x="409" 
d="M141 891q-21 87 -63 260q-16 72 23 113q41 41 106 41q61 0 100 -41q39 -40 25 -113l-64 -260q-10 -55 -61 -55q-60 0 -66 55z" />
    <glyph glyph-name="parenleft" unicode="(" horiz-adv-x="698" 
d="M350 606q0 -322 71 -541q70 -214 220 -368q15 -15 12 -26t-22 -11h-68q-22 0 -39 14q-224 151 -334 392q-108 242 -108 540q0 299 108 539q110 242 334 393q17 14 39 14h64q13 0 21.5 -4t9 -9.5t-6.5 -12.5q-301 -305 -301 -920z" />
    <glyph glyph-name="parenright" unicode=")" horiz-adv-x="698" 
d="M348 606q0 615 -301 920q-6 7 -5.5 12.5t8.5 9.5t22 4h63q22 0 39 -14q225 -152 333 -393q109 -239 109 -539t-109 -540q-108 -241 -333 -392q-17 -14 -39 -14h-67q-18 0 -21.5 10.5t10.5 26.5q149 151 220 368q71 219 71 541z" />
    <glyph glyph-name="asterisk" unicode="*" horiz-adv-x="735" 
d="M346 1065q-20 53 -61 160q7 69 82 80q75 -11 82 -80l-64 -160q-4 -13 -12 -17.5t-15.5 0t-11.5 17.5zM203 1178l112 -138q14 -14 2 -28.5t-34 -10.5l-164 37q-55 40 -27 111q45 57 111 29zM420 1040l112 138q63 27 111 -29q29 -67 -27 -111l-163 -37q-23 -4 -35 10.5
t2 28.5zM119 934l166 35q20 5 31 -11q12 -14 -3 -28l-110 -137q-66 -29 -111 28q-28 70 27 113zM451 969l165 -35q53 -45 27 -113q-46 -55 -111 -28l-110 137q-14 14 -3 28q12 16 32 11zM285 750l61 159q5 13 12.5 18t15.5 0.5t13 -18.5l62 -159q-7 -69 -82 -80
q-75 11 -82 80z" />
    <glyph glyph-name="plus" unicode="+" horiz-adv-x="921" 
d="M518 598h301v-115h-301v-301h-115v301h-301v115h301v301h115v-301z" />
    <glyph glyph-name="comma" unicode="," horiz-adv-x="477" 
d="M264 -254q-25 -25 -47 -4l-22 25q77 84 75 186q0 15 -4 24q-17 -4 -37 -4q-70 0 -114 47q-43 47 -43 107q0 67 48 113q49 47 118 47q78 0 123 -60q45 -58 45 -151q-2 -185 -142 -330z" />
    <glyph glyph-name="hyphen" unicode="-" horiz-adv-x="716" 
d="M82 483v111h553v-111h-553z" />
    <glyph glyph-name="period" unicode="." horiz-adv-x="450" 
d="M334 26q-45 -46 -109 -46q-63 0 -108 46t-45 109q0 64 45 109t108 45q64 0 109 -45t45 -109q0 -63 -45 -109z" />
    <glyph glyph-name="slash" unicode="/" horiz-adv-x="960" 
d="M92 -164l547 1641h229l-546 -1641h-230z" />
    <glyph glyph-name="zero" unicode="0" horiz-adv-x="1286" 
d="M1214 641q0 -285 -155 -479q-154 -193 -414 -193q-262 0 -418 192q-155 194 -155 480q0 281 156 471q158 191 417 191t414 -191t155 -471zM645 70q227 0 227 571q0 563 -227 563q-68 0 -117.5 -52t-73.5 -144q-40 -166 -40 -367q0 -571 231 -571z" />
    <glyph glyph-name="one" unicode="1" horiz-adv-x="778" 
d="M549 922v-764q0 -62 147 -76v-82q-305 6 -610 0v82q74 6 107.5 23t33.5 53v809q0 65 -32.5 86.5t-114.5 15.5v82q258 40 422 137q45 -20 59 -59q-12 -97 -12 -307z" />
    <glyph glyph-name="two" unicode="2" horiz-adv-x="1118" 
d="M989 373h78l-80 -326q-12 -47 -65 -47h-852l-9 88l61 56q16 14 34 31t28 26t15 14l79 75q62 60 87 90l79 91q58 66 80 101q40 60 65 100q40 66 55 109q46 123 46 212q0 101 -45.5 159t-126.5 58q-83 0 -129.5 -59t-46.5 -162q0 -47 12 -88q13 -39 13 -65q0 -54 -40 -91
q-41 -38 -104 -38q-81 0 -125 63q-43 64 -43 156q0 166 129 272q130 107 344 107t344 -103q132 -102 132 -272q0 -73 -25 -142t-78 -135q-52 -65 -106 -118q-49 -49 -141 -116q-83 -59 -149 -102l-161 -102h340q106 0 162.5 15.5t85.5 60.5z" />
    <glyph glyph-name="three" unicode="3" horiz-adv-x="1198" 
d="M700 705q182 35 309 -54q128 -89 128 -250q0 -129 -87 -229t-218 -150q-129 -49 -271 -49q-214 0 -351 94q-138 95 -138 222q0 63 35.5 102t101.5 39q76 0 107 -49q32 -50 32 -109q0 -82 53 -144q54 -62 160 -62q128 0 192 91q66 91 66 216q0 108 -50 179t-132 71
q-47 0 -160 -39l-33 86l78 35q215 98 215 296q0 97 -46.5 153t-129.5 56q-82 0 -134 -57q-52 -56 -52 -149q0 -38 12 -78t12 -70q0 -53 -33.5 -84t-89.5 -31q-74 0 -118 56q-43 56 -43 145q0 158 125 260q124 103 323 103q198 0 317 -89t119 -212q0 -109 -88 -188
q-89 -78 -211 -111z" />
    <glyph glyph-name="four" unicode="4" horiz-adv-x="1206" 
d="M1065 567l20 47h60l-53 -219q-12 -47 -70 -47h-143v-182q0 -37 33.5 -53.5t121.5 -22.5v-90q-317 8 -665 0v90q102 6 138 21q36 16 36 55v182h-426l-45 162l657 795h150v-791h43q48 0 57 1q24 3 35 5q21 4 31.5 14.5t19.5 32.5zM180 514h363v432z" />
    <glyph glyph-name="five" unicode="5" horiz-adv-x="1183" 
d="M643 877q159 0 306 -98q75 -49 119 -136.5t44 -196.5q0 -222 -168 -346q-169 -125 -399 -125q-185 0 -313 76q-129 77 -154 195q-16 74 16 121t105 47q45 -4 66 -14.5t34 -37.5l9 -18l5 -11q3 -5 11 -37q2 -8 4.5 -16t4 -12.5t1.5 -5.5l18 -56q5 -15 24 -52
q21 -38 38 -52q60 -47 133 -47q127 0 185 97q59 98 59 241q0 165 -77 262q-76 97 -196 97q-77 0 -146.5 -39.5t-113.5 -104.5h-108l55 664h395q147 0 186 57h156l-59 -225q-12 -47 -66 -47h-547l-28 -359q50 73 165 125q117 54 236 54z" />
    <glyph glyph-name="six" unicode="6" horiz-adv-x="1185" 
d="M985 1227l-74 -92q-99 74 -209 73q-144 0 -214 -103q-28 -43 -48 -118q-18 -73 -24 -138q-7 -69 -8 -155q32 51 101 94q70 43 173 43q170 0 301 -113t131 -300q0 -200 -149 -325q-148 -124 -361 -124q-250 0 -391 174t-141 455q0 308 170 507q169 198 460 198
q186 0 283 -76zM410 553q0 -161 35 -311q21 -82 64 -128t103 -46q70 0 112 63q38 58 51 122.5t13 149.5q0 136 -43 231q-43 97 -133 97q-88 0 -145 -71t-57 -107z" />
    <glyph glyph-name="seven" unicode="7" horiz-adv-x="1032" 
d="M444 1272h537l-496 -1200q-39 -95 -137 -97q-53 0 -87 34t-34 87q0 50 40 121q50 89 263 432l252 408h-379q-110 0 -168 -26q-57 -26 -96 -103h-78l97 362h121q47 -18 165 -18z" />
    <glyph glyph-name="eight" unicode="8" horiz-adv-x="1187" 
d="M823 686q134 -45 213 -136q80 -92 80 -204q0 -164 -147 -272q-146 -107 -375 -107q-228 0 -376 107q-146 108 -146 272q0 110 77 202q78 92 211 138q-98 42 -153 120t-55 169q0 137 119 233q119 97 323 97q202 0 318 -96q116 -95 116 -234q0 -89 -54 -167t-151 -122z
M594 1206q-164 0 -164 -231q0 -119 41.5 -184.5t122.5 -65.5q156 0 156 250q0 231 -156 231zM594 68q98 0 142 69t44 209q0 295 -186 295t-186 -295q0 -141 43.5 -209.5t142.5 -68.5z" />
    <glyph glyph-name="nine" unicode="9" horiz-adv-x="1185" 
d="M201 57l73 93q98 -74 209 -74q73 0 128 28t86 75q30 43 48 118q19 70 25 137q7 71 8 156q-31 -50 -102 -94q-70 -43 -172 -43q-171 0 -301 112q-131 113 -131 301q0 201 148 325t362 124q250 0 391 -174t141 -455q0 -308 -170 -507q-170 -197 -461 -197q-186 0 -282 75z
M776 731q0 171 -36 311q-19 82 -62.5 128.5t-104.5 46.5q-70 0 -112 -64q-38 -58 -51 -123t-13 -149q0 -136 43 -232q44 -96 133 -96q88 0 145 70q58 70 58 108z" />
    <glyph glyph-name="colon" unicode=":" horiz-adv-x="491" 
d="M334 669q-45 -46 -109 -46q-63 0 -108 46q-45 47 -45 109q0 64 45 109t108 45q64 0 109 -45t45 -109q0 -62 -45 -109zM334 26q-45 -46 -109 -46q-63 0 -108 46t-45 109q0 64 45 109t108 45q64 0 109 -45t45 -109q0 -63 -45 -109z" />
    <glyph glyph-name="semicolon" unicode=";" horiz-adv-x="477" 
d="M350 667q-45 -46 -109 -46q-63 0 -108 46q-45 47 -45 109q0 64 45 109t108 45q64 0 109 -45t45 -109q0 -62 -45 -109zM266 -254q-25 -25 -47 -4l-22 25q77 84 75 186q0 15 -4 24q-17 -4 -37 -4q-70 0 -114 47q-43 47 -43 107q0 67 48 113q49 47 118 47q78 0 123 -60
q45 -58 45 -151q-2 -185 -142 -330z" />
    <glyph glyph-name="less" unicode="&#x3c;" horiz-adv-x="978" 
d="M102 420v186q440 168 775 350v-153q-56 -27 -182 -98q-129 -72 -218 -112q-102 -46 -209 -79q111 -34 209 -80q87 -41 217 -113q98 -55 183 -98v-153q-339 184 -775 350z" />
    <glyph glyph-name="equal" unicode="=" horiz-adv-x="921" 
d="M61 657v117h717v-117h-717zM61 289v117h717v-117h-717z" />
    <glyph glyph-name="greater" unicode="&#x3e;" horiz-adv-x="978" 
d="M877 606v-186q-440 -168 -775 -350v153q72 37 182 98q125 69 218 113q98 46 209 80q-107 33 -209 79q-89 40 -218 112q-124 71 -182 98v153q335 -182 775 -350z" />
    <glyph glyph-name="question" unicode="?" horiz-adv-x="1038" 
d="M555 379h-96q-22 126 58 234l69 93q88 120 88 267q0 113 -44 175t-124 62t-122 -56.5t-42 -160.5q0 -52 13 -94q14 -45 14 -59q0 -59 -38 -95t-102 -36q-84 0 -126 61q-42 62 -42 156q0 164 123 271q123 108 326 108q218 0 342 -97q125 -96 125 -254q0 -153 -136 -254
q-38 -29 -116 -83q-60 -40 -109 -101t-61 -137zM614 26q-45 -46 -109 -46q-63 0 -108 46q-45 47 -45 109q0 64 45 109t108 45q64 0 109 -45t45 -109q0 -63 -45 -109z" />
    <glyph glyph-name="at" unicode="@" horiz-adv-x="1601" 
d="M801 -66v-104q-306 0 -517 187q-212 188 -212 491t213 491q213 189 516 189q307 0 518 -183q211 -181 211 -497q0 -175 -94 -282q-93 -107 -256 -107q-141 0 -236 119q-85 -121 -250 -121q-100 0 -175 54t-75 146q0 96 96 168q97 72 359 115v12q0 60 -3 91q-3 33 -24 64
q-20 32 -61 32q-92 0 -92 -123q0 -28 -34.5 -45t-94.5 -17q-102 0 -103 82q0 76 84 136q83 61 232 61q170 0 250 -68.5t80 -210.5v-335q0 -66 36 -66q16 0 29 10q18 12 34 77q6 29 7 61q2 54 2 64v71v12q0 276 -120 427q-120 152 -320 152q-203 0 -324 -148t-121 -431
q0 -271 119 -423q118 -151 326 -151zM772 231q76 0 127 101v174q-203 -51 -203 -195q0 -37 20.5 -58.5t55.5 -21.5z" />
    <glyph glyph-name="A" unicode="A" horiz-adv-x="1437" 
d="M819 1282l367 -983q43 -116 90 -163q46 -46 141 -54v-82q-343 8 -684 0v82q96 6 133.5 30t18.5 78l-78 213h-377l-68 -206q-20 -59 36 -85t192 -30v-82q-290 10 -570 0v82q113 8 166 41q54 33 78 104l361 1055h194zM604 948l-145 -454h313z" />
    <glyph glyph-name="B" unicode="B" horiz-adv-x="1339" 
d="M928 690q185 -37 278 -122t92 -218q0 -350 -596 -350h-651v82q87 6 118.5 27.5t31.5 74.5v908q0 52 -28 72t-105 26v82q81 -4 191 -4q68 0 192 2q25 0 53 0.5t43 1t22 0.5q594 0 594 -320q2 -188 -235 -262zM537 1186v-492q175 32 245 94q72 64 72 177q0 98 -53 160
q-53 63 -166 63q-60 0 -98 -2zM643 92h59q259 0 261 266q0 264 -285 265l-141 -27v-401q0 -59 18 -81t88 -22z" />
    <glyph glyph-name="C" unicode="C" horiz-adv-x="1304" 
d="M1153 348h111q-40 -164 -168 -273q-128 -108 -357 -108q-297 0 -482 191q-185 193 -185 491t181 476q181 180 460 180q81 0 179 -27t159 -27q55 0 116 19q11 -189 78 -361h-168q-135 293 -356 293q-295 0 -295 -487q0 -278 98 -460q99 -181 289 -181q105 0 196 63
q93 65 144 211z" />
    <glyph glyph-name="D" unicode="D" horiz-adv-x="1409" 
d="M631 1272q696 0 696 -641q0 -163 -49 -285q-50 -124 -116 -187t-154 -102t-147 -48q-58 -9 -109 -9q-40 0 -164 18q-121 19 -219 19q-95 0 -171 -13l-77 -12l-70 -12v82q88 19 118 37q32 20 32 69v904q0 52 -28 72t-105 26v82q81 -4 186 -4q57 0 205 2t172 2zM647 92
q305 0 305 543q0 553 -338 553q-46 0 -77 -4v-1004q-1 -44 26.5 -66t83.5 -22z" />
    <glyph glyph-name="E" unicode="E" 
d="M1016 377h80q-72 -201 -70 -377q-500 14 -975 0v82q87 6 118.5 27.5t31.5 74.5v924q0 43 -31 59q-33 17 -119 23v82h938q19 0 25 -7t10 -30l37 -256h-78l-25 45q-51 95 -99 130q-47 34 -165 34h-98q-59 0 -59 -62v-413h196q76 0 111 26q34 27 51 95h63q-14 -174 0 -347
h-63q-18 70 -53.5 98.5t-108.5 28.5h-196v-430q0 -52 21 -72t73 -20h22q111 0 170 33q60 33 107 113z" />
    <glyph glyph-name="F" unicode="F" horiz-adv-x="1118" 
d="M1028 1235l37 -256h-78l-24 45q-51 96 -100 130q-47 34 -165 34h-98q-59 0 -59 -62v-426h196q75 0 110.5 27.5t51.5 95.5h64q-13 -174 0 -348h-64q-18 70 -53.5 99.5t-108.5 29.5h-196v-420q0 -52 33 -75q35 -21 122 -27v-82q-322 10 -645 0v82q88 6 121 27q33 23 33 75
v924q0 43 -31 59q-33 17 -119 23v82h938q20 0 25.5 -6.5t9.5 -30.5z" />
    <glyph glyph-name="G" unicode="G" horiz-adv-x="1409" 
d="M786 528v80q290 -6 582 0v-80l-41 -4q-30 -4 -45.5 -21.5t-22.5 -55.5q-5 -33 -7 -62q-1 -17 -1 -78q0 -179 80 -196v-93q-64 11 -149 13q-108 0 -241 -32t-220 -32q-292 0 -471 182q-178 182 -178 500q0 298 181 476q181 180 460 180q81 0 179 -27t159 -27q55 0 116 19
q11 -189 78 -361h-168q-135 293 -356 293q-295 0 -295 -487q0 -290 91 -465q92 -176 271 -176q100 0 130 56t30 177q0 125 -23 169t-87 48z" />
    <glyph glyph-name="H" unicode="H" horiz-adv-x="1470" 
d="M1419 1272v-82q-88 -6 -122 -28q-33 -21 -33 -75v-903q0 -52 33 -75q35 -21 122 -27v-82q-323 10 -645 0v82q88 6 121 27q33 23 33 75v408h-387v-408q0 -52 33 -75q35 -21 122 -27v-82q-322 10 -645 0v82q88 6 121 27q33 23 33 75v903q0 53 -33 75q-32 22 -121 28v82
q323 -10 645 0v-82q-88 -6 -122 -28q-33 -21 -33 -75v-403h387v403q0 53 -33 75q-32 22 -121 28v82q324 -10 645 0z" />
    <glyph glyph-name="I" unicode="I" horiz-adv-x="747" 
d="M541 1087v-903q0 -52 33 -75q35 -21 122 -27v-82q-322 10 -645 0v82q88 6 121 27q33 23 33 75v903q0 53 -33 75q-32 22 -121 28v82q323 -10 645 0v-82q-88 -6 -122 -28q-33 -21 -33 -75z" />
    <glyph glyph-name="J" unicode="J" horiz-adv-x="772" 
d="M76 1190v82q324 -10 645 0v-82q-89 -6 -121 -28q-33 -21 -33 -75v-796q0 -352 -153 -502q-151 -151 -455 -151v90q272 17 272 393v966q0 53 -34 75q-32 22 -121 28z" />
    <glyph glyph-name="K" unicode="K" horiz-adv-x="1447" 
d="M788 737l310 -420q90 -127 163 -192q73 -63 156 -70l-76 -90q-77 0 -118 4q-51 5 -117 23q-142 35 -250 182l-256 354l-70 -77v-267q0 -53 34 -75q35 -21 122 -27v-82q-322 10 -645 0v82q88 6 121 27q33 23 33 75v903q0 53 -33 75q-32 22 -121 28v82q323 -10 645 0v-82
q-88 -6 -122 -28q-34 -21 -34 -75v-485l390 424q58 74 30.5 115t-131.5 49v82q253 -8 510 0v-82q-85 -6 -140 -41q-54 -35 -120 -102z" />
    <glyph glyph-name="L" unicode="L" horiz-adv-x="1140" 
d="M934 238l86 139h80q-72 -201 -70 -377q-500 14 -975 0v82q87 6 118.5 27.5t31.5 74.5v903q0 53 -33 75q-32 22 -121 28v82q323 -10 645 0v-82q-88 -6 -122 -28q-33 -21 -33 -75v-903q0 -52 21 -72t73 -20h22q111 0 170 33q60 33 107 113z" />
    <glyph glyph-name="M" unicode="M" horiz-adv-x="1714" 
d="M1530 1055v-834q0 -74 32 -104q34 -29 121 -35v-82q-324 10 -645 0v82q87 6 122 35q34 30 34 104v789l-373 -1010h-28l-424 1010v-789q0 -121 245 -139v-82q-299 11 -583 0v82q231 18 231 139v793q0 77 -51.5 123.5t-140.5 52.5v82q256 -10 512 0l319 -762l283 762
q246 -7 502 0v-82q-90 -6 -123 -33t-33 -102z" />
    <glyph glyph-name="N" unicode="N" horiz-adv-x="1404" 
d="M807 1190v82q301 -10 567 0v-82q-217 -19 -217 -137v-1053h-104l-701 981v-760q0 -67 61.5 -98.5t186.5 -40.5v-82q-307 10 -569 0v82q215 20 215 139v793q0 79 -51.5 124.5t-141.5 51.5v82q244 -10 490 0l508 -715v496q0 119 -244 137z" />
    <glyph glyph-name="O" unicode="O" horiz-adv-x="1398" 
d="M700 1305q275 0 450 -184q177 -183 177 -496q0 -287 -180 -473q-180 -185 -449 -185q-272 0 -449 184q-177 185 -177 496q0 288 180 472q180 186 448 186zM737 68q113 0 174.5 132t61.5 373q0 267 -84 449t-221 182q-115 0 -179 -133q-63 -133 -63 -375q0 -269 85 -448
q85 -180 226 -180z" />
    <glyph glyph-name="P" unicode="P" horiz-adv-x="1259" 
d="M575 477l-38 -4v-289q0 -53 31 -75q32 -21 120 -27v-82q-319 7 -637 0v82q87 6 118.5 27.5t31.5 74.5v934q0 48 -45 62q-15 4 -88 10v82q81 -4 192 -4q67 0 197 2q24 0 55 0.5t48 1t26 0.5q334 0 478 -93q144 -91 144 -266q0 -181 -152 -288q-151 -104 -481 -148z
M537 1188v-621l30 2q330 23 330 330q0 131 -63 210q-61 79 -189 79h-108z" />
    <glyph glyph-name="Q" unicode="Q" horiz-adv-x="1384" 
d="M1260 -147h141q0 -153 -89 -257t-233 -104q-123 0 -224 88q-11 10 -47 43t-53 46.5t-48.5 34.5t-61.5 29.5t-63 8.5q-56 0 -107 -23q-49 -24 -69 -53h-267q37 78 184 163q149 85 369 138q-272 0 -446 183q-174 184 -174 497q0 283 178 470q179 188 442 188
q272 0 446 -184q175 -182 175 -496q0 -180 -77 -326q-76 -144 -210 -233q-83 -55 -232 -112q-177 -70 -256 -104q-107 -46 -132 -88q116 58 225 60q90 0 237 -45q149 -45 215 -45q74 0 120.5 32t56.5 89zM426 696q0 -270 82 -447q83 -179 221 -179q111 0 170 130.5t59 372.5
q0 271 -81 449q-80 180 -218 180q-114 0 -173.5 -130.5t-59.5 -375.5z" />
    <glyph glyph-name="R" unicode="R" horiz-adv-x="1359" 
d="M862 537l142 -189q103 -138 172 -200q72 -63 153 -74l-55 -90q-42 0 -76 2q-14 1 -80 8q-53 6 -94 23q-26 12 -90 44q-99 52 -191 183l-165 233h-3l-38 -4v-289q0 -53 31 -75q32 -21 120 -27v-82q-319 7 -637 0v82q87 6 118.5 27.5t31.5 74.5v934q0 48 -45 62
q-15 4 -88 10v82q81 -4 192 -4q67 0 197 2q24 0 55 0.5t48 1t26 0.5q334 0 478 -93q144 -91 144 -266q0 -270 -346 -376zM645 1188h-108v-621l30 2q330 23 330 330q0 131 -63 210q-61 79 -189 79z" />
    <glyph glyph-name="S" unicode="S" horiz-adv-x="1056" 
d="M688 250q0 76 -54 138q-53 62 -200 136q-94 48 -137 77q-60 40 -112 86q-115 103 -115 263q0 165 116 260q118 95 289 95q80 0 166 -26t98 -26q43 0 49 35h97l18 -307h-78q-103 225 -280 225q-83 0 -129 -45q-47 -45 -47 -110q0 -74 54 -129t175 -111q175 -84 244 -137
q164 -128 164 -318q0 -130 -74 -222q-135 -165 -373 -165q-95 0 -192 45t-125 45q-31 0 -50.5 -18t-23.5 -41h-94l-23 324h94q53 -123 153 -186q101 -62 200 -62q87 0 138.5 47t51.5 127z" />
    <glyph glyph-name="T" unicode="T" horiz-adv-x="1212" 
d="M1100 1284h82l-70 -283h-80q12 106 -24 140q-35 35 -99 35h-141v-992q0 -53 37 -75q38 -21 139 -27v-82q-342 8 -686 0v82q102 6 138 27q36 23 36 75v992h-119q-67 0 -111 -35q-42 -35 -89 -140h-82l63 283h82q63 -12 266 -12h398q197 0 260 12z" />
    <glyph glyph-name="U" unicode="U" horiz-adv-x="1521" 
d="M1491 1272v-82q-88 -6 -122 -28q-34 -21 -34 -75v-921q0 -39 35.5 -58.5t120.5 -25.5v-82q-297 7 -520 0v82q29 23 28 108v31q-128 -242 -401 -241q-196 0 -306 110q-108 111 -108 297v700q0 53 -33 75q-31 22 -120 28v82q323 -10 645 0v-82q-88 -6 -122 -28
q-34 -21 -34 -75v-696q0 -307 195 -307q101 0 171 78q73 79 113 186v739q0 53 -33 75q-31 22 -120 28v82q322 -10 645 0z" />
    <glyph glyph-name="V" unicode="V" horiz-adv-x="1437" 
d="M848 1190v82q285 -11 569 0v-82q-111 -7 -167 -43q-54 -35 -83 -121l-356 -1036h-195l-364 983q-46 120 -91 164q-47 46 -141 53v82q340 -7 685 0v-82q-97 -6 -134.5 -29t-17.5 -78l281 -759l235 733q26 74 -32 100q-55 27 -189 33z" />
    <glyph glyph-name="W" unicode="W" horiz-adv-x="2045" 
d="M1548 1190v82q238 -8 477 0v-82q-95 -6 -133 -28q-39 -21 -61 -91l-346 -1089h-123l-348 931l-299 -931h-121l-408 1089q-28 73 -56 93q-26 20 -110 26v82q326 -11 664 0v-82q-102 -5 -142 -28q-41 -23 -18 -91l232 -684l200 680l-2 4q-27 74 -59 95q-31 22 -123 24v82
q338 -10 666 0v-82q-94 -4 -131 -28q-38 -23 -15 -91l234 -684l203 684q18 66 -31 90q-47 24 -150 29z" />
    <glyph glyph-name="X" unicode="X" horiz-adv-x="1361" 
d="M801 719l311 -508q45 -70 85 -97t114 -32v-82q-305 10 -606 0v82q135 16 81 102l-170 279l-190 -262q-32 -54 -10.5 -83.5t88.5 -35.5v-82q-201 8 -453 0v82q87 4 146 37.5t112 103.5l248 340l-307 504q-40 65 -82 90q-40 25 -113 33v82q285 -8 584 0v-82
q-115 -18 -70 -94l170 -279l189 258q27 49 1 77.5t-95 37.5v82q220 -8 444 0v-82q-150 -18 -231 -133z" />
    <glyph glyph-name="Y" unicode="Y" horiz-adv-x="1339" 
d="M891 1190v82q213 -12 418 0v-82q-141 -17 -199 -131l-274 -529v-323q0 -69 33 -94q35 -26 128 -33v-80q-330 8 -657 0v82q92 6 126 31t34 94v305l-305 555q-1 5 -15 27q-12 24 -15 27q-4 4 -15 19q-7 11 -12 15.5t-15.5 9t-15.5 7.5q-20 13 -76 18v82q323 -12 651 0v-82
q-87 -8 -110.5 -39t10.5 -86l217 -410l211 404q56 109 -119 131z" />
    <glyph glyph-name="Z" unicode="Z" horiz-adv-x="1239" 
d="M1022 106l53 -8q45 -10 45 -39v-59q-539 8 -1079 0l717 1180h-324q-100 0 -148 -42t-93 -149h-99l70 295h110q63 -12 240 -12h653l-716 -1182h122q139 0 225 36t165 134l98 119h119q-81 -112 -158 -273z" />
    <glyph glyph-name="bracketleft" unicode="[" horiz-adv-x="710" 
d="M616 1442l-196 -12v-1645l196 -12q43 -4 43 -33v-80l-567 33v1829l567 32v-79q0 -29 -43 -33z" />
    <glyph glyph-name="backslash" unicode="\" horiz-adv-x="960" 
d="M92 1477h230l546 -1641h-229z" />
    <glyph glyph-name="bracketright" unicode="]" horiz-adv-x="710" 
d="M291 -215v1645l-197 12q-43 4 -43 33v79l567 -32v-1829l-567 -33v80q0 29 43 33z" />
    <glyph glyph-name="asciicircum" unicode="^" horiz-adv-x="804" 
d="M61 1001l295 400q26 25 51.5 23.5t41.5 -23.5l294 -400q18 -22 4 -50q-13 -27 -51 -27h-24q-33 0 -90 51l-179 176l-180 -176q-51 -51 -94 -51h-25q-34 0 -47 27q-13 28 4 50z" />
    <glyph glyph-name="underscore" unicode="_" horiz-adv-x="1212" 
d="M82 -242v201h1048v-201h-1048z" />
    <glyph glyph-name="grave" unicode="`" horiz-adv-x="673" 
d="M295 1440l276 -238l-34 -53l-342 121q-60 22 -83 75q-22 52 9 95q31 41 78 41t96 -41z" />
    <glyph glyph-name="a" unicode="a" horiz-adv-x="1153" 
d="M979 754v-502q0 -130 133 -143v-86q-154 -1 -385 -52q-45 18 -57 58l10 123h-21q-103 -179 -307 -181q-128 0 -214 70q-87 70 -87 205q0 142 132 228t474 159v125q0 118 -29 164q-28 45 -91 45q-77 0 -108 -51q-33 -51 -34 -109q-2 -59 -36 -110q-33 -50 -113 -50
q-135 0 -135 117t145 198q145 82 371 82q80 0 134 -10.5t106 -39.5q112 -60 112 -240zM483 111q109 0 174 161v293q-91 -23 -154.5 -63t-90.5 -88q-41 -78 -41 -144q0 -73 29.5 -116t82.5 -43z" />
    <glyph glyph-name="b" unicode="b" horiz-adv-x="1275" 
d="M741 1044q177 0 320 -143t143 -401q0 -134 -45 -241q-45 -105 -116 -164q-143 -118 -300 -118q-79 0 -137 35q-50 30 -100 70q-44 35 -88 35q-48 0 -82.5 -32.5t-42.5 -84.5h-51q-76 0 -76 74v1052q0 62 -30.5 84.5t-94.5 12.5v82q240 45 399 137q45 -20 60 -60
q-11 -93 -13 -307v-135q101 104 254 104zM709 70q150 0 149 352q0 243 -59 382q-59 138 -158 138q-92 0 -154 -98v-551q6 -89 78 -157q72 -66 144 -66z" />
    <glyph glyph-name="c" unicode="c" horiz-adv-x="1069" 
d="M911 215h88q-112 -238 -387 -238q-227 0 -389 141q-162 142 -162 402q0 250 161 387t376 137q170 0 290 -81q120 -79 120 -203q0 -50 -36 -91q-36 -40 -106 -40q-65 0 -101 37.5t-36 93.5q0 82 -18 130q-22 64 -101 64q-105 0 -158 -113q-51 -113 -51 -296
q0 -132 22 -230t89 -173q66 -72 170 -72q165 0 229 145z" />
    <glyph glyph-name="d" unicode="d" horiz-adv-x="1275" 
d="M1102 1075v-823q0 -130 133 -143v-86q-161 -1 -383 -52q-43 16 -61 58l14 96h-14q-29 -65 -95 -106.5t-161 -41.5q-168 0 -314 126q-73 65 -116.5 173t-43.5 240q0 126 42 231t113 169q140 128 312 128q100 0 160 -38q34 -17 49 -32q9 -8 33 -32l10 -10v194
q0 62 -30 84.5t-95 12.5v82q240 44 400 137q41 -18 59 -60q-12 -98 -12 -307zM780 268v563q-94 123 -194 123q-91 0 -140 -103q-49 -102 -49 -271q0 -224 64 -368q65 -144 155 -144q61 0 108 65q49 65 56 135z" />
    <glyph glyph-name="e" unicode="e" horiz-adv-x="1071" 
d="M901 215h86q-111 -238 -389 -238q-222 0 -380 144q-157 145 -157 393q0 250 152 390t356 140q194 0 318 -122q123 -121 123 -287q0 -81 -30.5 -117.5t-100.5 -36.5h-486q0 -169 63 -291q64 -120 210 -120q162 0 235 145zM393 565h326q0 200 -35 294.5t-117 94.5
q-84 0 -129 -101t-45 -288z" />
    <glyph glyph-name="f" unicode="f" horiz-adv-x="911" 
d="M592 1436q135 0 227 -56t92 -141q0 -94 -114 -94q-59 0 -83 31t-22 69t-13 69q-15 32 -61 32q-70 0 -99.5 -74.5t-29.5 -233.5v-12h203v-94h-203v-774q0 -61 132 -76v-82q-289 6 -580 0v82q127 13 127 76v774h-119v94h119v16q0 107 38 188.5t105 124.5q127 81 281 81z
" />
    <glyph glyph-name="g" unicode="g" horiz-adv-x="1191" 
d="M1032 1040q119 0 119 -118q0 -109 -80 -109q-11 0 -40.5 7t-37.5 7q-32 0 -28 -34q18 -74 18 -127q0 -164 -127 -260q-128 -95 -321 -95q-73 0 -143 15q-68 16 -77 16q-47 0 -47 -41q0 -29 32 -47t120 -33l221 -35q236 -38 338 -93t102 -175q0 -166 -166 -265
q-165 -99 -413 -99q-202 0 -332 71q-129 71 -129 197q0 75 44.5 119.5t117.5 44.5q59 0 96 -31t37 -86q0 -20 -9 -53q-8 -35 -8 -54q0 -56 56 -92.5t153 -36.5q118 0 204 51q85 49 85 146q0 52 -30.5 82.5t-102.5 44.5l-365 68q-266 45 -266 202q0 71 52 116.5t147 53.5
q-80 39 -125 113t-45 166q0 162 127 265t321 103q113 0 185 -33q73 -31 147 -96q44 125 170 125zM674 676q0 122 -34 200q-35 80 -110 80q-143 0 -143 -280q0 -275 143 -275q144 0 144 275z" />
    <glyph glyph-name="h" unicode="h" horiz-adv-x="1314" 
d="M1151 684v-526q0 -61 133 -76v-82q-291 8 -588 0v82q135 10 135 76v526q0 217 -141 217q-80 0 -134 -61q-53 -59 -67 -119v-563q0 -61 132 -76v-82q-289 6 -580 0v82q127 13 127 76v968q0 62 -30.5 84.5t-96.5 12.5v82q242 44 399 137q42 -17 62 -60q-11 -93 -13 -307
v-131l-24 -127q45 86 140 158q98 74 239 74q124 0 208 -72q99 -84 99 -293z" />
    <glyph glyph-name="i" unicode="i" horiz-adv-x="661" 
d="M440 1196q-46 -49 -117 -49q-69 0 -118 49t-49 118q0 71 49 117q49 48 118 48q71 0 117 -48q47 -47 47 -117q0 -68 -47 -118zM489 680v-522q0 -61 132 -76v-82q-289 6 -580 0v82q127 13 127 76v573q0 65 -30.5 87t-96.5 11v82q240 43 399 138q42 -17 62 -60
q-11 -93 -13 -309z" />
    <glyph glyph-name="j" unicode="j" horiz-adv-x="655" 
d="M473 1196q-46 -49 -117 -49q-70 0 -119 49t-49 118q0 71 49 117q49 48 119 48t117 -48q47 -47 47 -117q0 -68 -47 -118zM473 1049q42 -18 59 -60q-12 -97 -12 -309v-500q0 -333 -144 -478q-143 -146 -425 -146l-12 94q135 12 198 90q64 77 64 272v719q0 65 -30.5 87
t-96.5 11v82q238 43 399 138z" />
    <glyph glyph-name="k" unicode="k" horiz-adv-x="1234" 
d="M682 616l287 -383q124 -165 245 -178l-75 -90q-69 0 -106 3q-39 3 -103 18q-119 27 -217 153l-224 281v-262q0 -61 132 -76v-82q-289 6 -580 0v82q127 13 127 76v968q0 62 -30.5 84.5t-96.5 12.5v82q242 44 399 137q42 -17 62 -60q-11 -93 -13 -307v-506q152 113 242 258
q25 39 -0.5 67t-91.5 34v98q250 -7 502 0v-98q-41 -5 -75 -19q-37 -14 -59 -30q-23 -15 -63 -48z" />
    <glyph glyph-name="l" unicode="l" horiz-adv-x="661" 
d="M489 1075v-917q0 -61 132 -76v-82q-289 6 -580 0v82q127 13 127 76v968q0 62 -30.5 84.5t-96.5 12.5v82q242 44 399 137q42 -17 62 -60q-11 -93 -13 -307z" />
    <glyph glyph-name="m" unicode="m" horiz-adv-x="1921" 
d="M1757 684v-526q0 -61 133 -76v-82q-293 8 -587 0v82q133 10 133 76v526q0 217 -125 217q-76 0 -125 -58q-50 -57 -66 -118v-41v-526q0 -61 133 -76v-82q-293 8 -589 0v82q135 10 135 76v526q0 217 -125 217q-78 0 -126 -59q-47 -58 -67 -121v-563q0 -66 133 -76v-82
q-292 8 -585 0v82q131 14 131 76v573q0 124 -125 98v82q227 49 381 138q46 -20 59 -60l-26 -172h12q39 80 133 156t233 76q221 0 277 -218q45 82 137 150t223 68q128 0 210 -82q83 -83 83 -283z" />
    <glyph glyph-name="n" unicode="n" horiz-adv-x="1308" 
d="M1145 684v-526q0 -61 133 -76v-82q-292 8 -588 0v82q133 10 133 76v526q0 217 -139 217q-79 0 -135 -62q-54 -60 -68 -118v-563q0 -66 133 -76v-82q-292 8 -585 0v82q131 14 131 76v573q0 124 -125 98v82q227 49 381 138q46 -20 59 -60l-26 -172h12q40 82 138 157
q97 75 239 75q123 0 207 -72q100 -83 100 -293z" />
    <glyph glyph-name="o" unicode="o" 
d="M580 1044q193 0 354 -143q162 -143 162 -393q0 -129 -47.5 -235.5t-127.5 -170.5q-159 -125 -343 -125q-192 0 -355 143q-162 144 -162 394q0 130 47.5 236.5t126.5 168.5q157 125 345 125zM612 68q73 0 110.5 89.5t37.5 248.5q0 243 -61 395q-60 153 -154 153
q-73 0 -110.5 -88.5t-37.5 -247.5q0 -242 60 -396q61 -154 155 -154z" />
    <glyph glyph-name="p" unicode="p" horiz-adv-x="1255" 
d="M735 1044q176 0 317 -142q142 -142 142 -396q0 -134 -44 -242t-119 -169q-149 -118 -312 -118q-138 0 -242 97v-174q0 -70 32 -93.5t112 -19.5v-84q-250 -34 -439 -147q-49 12 -65 67q39 55 39 207v901q0 65 -30.5 87.5t-94.5 10.5v82q243 45 397 138q46 -20 59 -60
q-4 -29 -4 -47q109 102 252 102zM696 70q152 0 152 352q0 248 -55.5 383t-157.5 135q-78 0 -156 -78q-2 -70 -2 -182v-361q6 -108 75 -179q70 -70 144 -70z" />
    <glyph glyph-name="q" unicode="q" horiz-adv-x="1269" 
d="M543 -23q-174 0 -321 126q-74 65 -117.5 173t-43.5 240q0 252 144 390q145 138 327 138q54 2 105.5 -18t84 -45t69.5 -45t65 -18q48 0 78.5 28.5t38.5 79.5h51q76 0 76 -74v-1052q0 -69 33.5 -92t115.5 -19v-82q-128 -12 -239 -56q-107 -42 -164 -95q-49 12 -68 67v461
q-83 -107 -235 -107zM578 954q-86 0 -135 -106q-48 -105 -48 -273q0 -223 64 -364q65 -143 155 -143q61 0 109 57q49 56 55 133v469q-18 104 -76 165q-59 62 -124 62z" />
    <glyph glyph-name="r" unicode="r" horiz-adv-x="995" 
d="M786 1049q85 0 137 -43.5t52 -118.5q0 -62 -38 -97q-37 -34 -87 -34q-44 0 -106 41q-61 41 -101 41q-47 0 -84 -39q-52 -55 -70 -144v-497q0 -61 138 -76v-82q-293 6 -586 0v82q127 13 127 76v573q0 123 -127 98v82q219 47 381 138q41 -18 59 -60l-41 -233h17
q119 293 329 293z" />
    <glyph glyph-name="s" unicode="s" horiz-adv-x="923" 
d="M872 287q0 -139 -114 -228q-112 -88 -254 -88q-85 0 -178 40q-92 40 -103 40q-35 0 -35 -51h-94l-26 293h73q35 -104 138 -170q104 -66 194 -66q60 0 95.5 33t35.5 90q0 66 -46 105q-46 38 -142 82q-175 79 -244 139q-111 98 -111 235q0 136 97 218q98 83 248 83
q74 0 152 -29q75 -28 93 -28q45 0 54 41h83l19 -293h-70q-52 118 -130 171q-76 52 -152 52q-65 0 -101.5 -33t-36.5 -89q0 -57 43 -97.5t134 -79.5l8 -4t18.5 -8.5t23.5 -10.5l61 -27q20 -9 61 -32q43 -24 63 -40q20 -15 54 -47q31 -28 48 -57q41 -66 41 -144z" />
    <glyph glyph-name="t" unicode="t" horiz-adv-x="755" 
d="M694 158v-90q-85 -82 -239 -82q-145 0 -224 84t-79 247v615h-111v94q146 0 220 62q72 62 110 217h102v-279h221v-94h-221v-653q0 -175 96 -177q60 0 125 56z" />
    <glyph glyph-name="u" unicode="u" horiz-adv-x="1294" 
d="M1130 977v-725q0 -129 134 -143v-86q-154 -1 -385 -52q-45 18 -58 58l19 186h-15q-33 -82 -125 -165t-235 -83q-130 0 -222 85q-93 86 -93 284v530q0 59 -58 62l-61 2v82l377 22q28 2 45.5 -13t17.5 -44v-623q0 -244 123 -243q76 0 133 68q56 68 82 145v542q0 59 -57 62
l-62 2v82l379 22q26 2 43.5 -13.5t17.5 -43.5z" />
    <glyph glyph-name="v" unicode="v" horiz-adv-x="1200" 
d="M721 -6h-234l-274 797q-19 56 -32 80q-13 27 -40 46t-67 21l-43 4v84h573v-84l-39 -4q-94 -10 -47 -147l180 -558l162 560q19 71 -11.5 108t-96.5 37l-72 4v84h489v-84l-45 -4q-66 -6 -104.5 -40t-58.5 -105z" />
    <glyph glyph-name="w" unicode="w" horiz-adv-x="1849" 
d="M1329 942v84h490v-84l-45 -4q-66 -6 -105 -40t-59 -105l-240 -799h-233l-224 647l-192 -647h-234l-274 797q-18 50 -32 79q-28 61 -107 68l-43 4v84h573v-84l-39 -4q-94 -10 -47 -147l180 -558l164 560q-19 53 -32 78q-28 60 -107 67l-43 4v84h573v-84l-39 -4
q-94 -10 -47 -147l181 -558l161 560q19 71 -11.5 108t-96.5 37z" />
    <glyph glyph-name="x" unicode="x" horiz-adv-x="1159" 
d="M1081 88l37 -6v-82q-274 10 -540 0v84l32 4q59 6 8 92l-98 158l-110 -154q-26 -39 -18 -67.5t42 -28.5l76 -4v-84q-236 11 -469 0v82l33 6q80 12 122 40q44 28 93 93l162 225l-244 385q-62 99 -131 107l-37 6v82h553v-84l-31 -2q-69 -8 -16 -100l90 -140l102 142
q26 39 11.5 67.5t-56.5 30.5l-57 2v84h465v-82l-29 -6q-79 -12 -125 -41q-44 -28 -90 -92l-151 -211l256 -399q38 -62 60 -82q20 -19 60 -25z" />
    <glyph glyph-name="y" unicode="y" horiz-adv-x="1224" 
d="M764 942v84h430v-84l-68 -4q-34 0 -56 -22q-22 -21 -36 -45q-11 -22 -30 -74l-492 -1237h-123l180 417l-364 824q-32 73 -55.5 104t-53.5 33l-65 4v84h569v-84l-59 -4q-41 -2 -50.5 -39t15.5 -100l201 -486l196 484q24 66 6.5 101.5t-71.5 39.5z" />
    <glyph glyph-name="z" unicode="z" horiz-adv-x="1024" 
d="M879 309h79l-71 -309h-791q-41 0 -53 28.5t12 63.5l551 854l-235 -2q-85 0 -123 -35q-37 -34 -96 -143h-76l71 272h109q63 -12 225 -12q334 0 502 4l-608 -948l225 2q91 0 152 47q60 45 127 178z" />
    <glyph glyph-name="braceleft" unicode="{" horiz-adv-x="618" 
d="M485 356v-268v-62v-60v-52q0 -33 3 -48q1 -4 6 -36t10 -41q28 -60 63 -74l-104 -55q-98 39 -154 110q-54 69 -71 142q-15 72 -15 176v352q0 45 -25 66q-22 21 -106 59v80q83 38 106 58q25 22 25 67v352q0 104 15 176q17 73 71 142q56 71 154 110l104 -55q-32 -17 -48 -45
q-20 -36 -24 -66q-1 -10 -4 -25.5t-4.5 -29t-1.5 -33.5v-51v-60v-63v-268q0 -105 -44.5 -164t-139.5 -82v-6q95 -24 139.5 -82t44.5 -164z" />
    <glyph glyph-name="bar" unicode="|" horiz-adv-x="569" 
d="M184 -440v2078h201v-2078h-201z" />
    <glyph glyph-name="braceright" unicode="}" horiz-adv-x="618" 
d="M133 26v62v268q0 105 45 164.5t139 81.5v6q-95 23 -139.5 82t-44.5 164v268v62v61v51q0 33 -3 48q-1 6 -3.5 24t-5 32t-6.5 21q-26 56 -64 74l105 55q97 -39 153 -110q56 -72 71 -142t15 -176v-352q0 -44 24 -67q25 -21 107 -58v-80q-83 -38 -107 -59t-24 -66v-352
q0 -104 -15 -176q-15 -70 -71 -142q-56 -71 -153 -110l-105 55q33 17 48 46q21 34 25 65q9 72 9 88v52v60z" />
    <glyph glyph-name="asciitilde" unicode="~" horiz-adv-x="1079" 
d="M862 635h115q-13 -120 -98 -200q-83 -79 -179 -79q-55 0 -107.5 22t-85.5 53q-81 75 -147 75q-44 0 -83.5 -31.5t-57.5 -77.5h-117q26 118 105 194q80 77 184 77q93 0 182 -65q88 -64 156 -64q89 0 133 96z" />
    <glyph glyph-name="exclamdown" unicode="&#xa1;" horiz-adv-x="555" 
d="M127 1004q45 47 108 47q64 0 109 -47t45 -110t-45 -108t-109 -45q-63 0 -108 45t-45 108q0 64 45 110zM223 586h115q5 -206 59 -416q56 -216 56 -262q0 -84 -54 -133q-52 -49 -119 -49q-65 0 -120 49q-54 49 -54 133q0 46 56 262q56 212 61 416z" />
    <glyph glyph-name="cent" unicode="&#xa2;" horiz-adv-x="1069" 
d="M682 70q165 0 229 145h88q-112 -238 -387 -238q-79 0 -151 19l-31 -121h-104l39 154q-136 58 -221 184q-83 125 -83 307q0 250 161 387t376 137h23l41 160h104l-43 -172q125 -27 205 -101t80 -171q0 -50 -36 -91q-36 -40 -106 -40q-65 0 -101 37.5t-36 93.5
q0 119 -35 160l-194 -766q69 -84 182 -84zM401 545q0 -148 31 -250l166 659q-99 -7 -149 -120q-48 -111 -48 -289z" />
    <glyph glyph-name="sterling" unicode="&#xa3;" horiz-adv-x="1128" 
d="M731 197q60 0 136 32q74 33 118 111h92q-78 -340 -364 -340q-137 0 -244 59q-101 -59 -205 -59q-78 0 -141 48q-62 48 -62 128q0 76 50 124q51 48 131 48q38 0 66 -12q24 -9 61.5 -32.5t40.5 -24.5q10 49 10 92q0 69 -60 145h-262v96h178q-70 79 -106 147q-37 71 -37 169
q0 169 134 273t356 104q208 0 330 -112q124 -112 124 -288q0 -81 -42 -136q-42 -56 -120 -56q-70 0 -107.5 33.5t-37.5 87.5q0 27 11 65q12 37 12 64q0 122 -42.5 183t-127.5 60q-80 0 -128.5 -61.5t-48.5 -173.5q0 -43 6 -84q10 -55 13 -67q6 -26 22 -62q14 -33 24 -50
l29 -51q22 -39 27 -45h234v-96h-187q20 -62 21 -129q0 -89 -43 -160q56 -30 139 -30zM262 61q78 0 107 54q-101 90 -136 90q-25 0 -42 -17.5t-17 -46.5q0 -36 28 -58t60 -22z" />
    <glyph glyph-name="currency" unicode="&#xa4;" horiz-adv-x="1222" 
d="M961 223l155 -153l-112 -113l-156 156q-110 -74 -240 -74q-127 0 -235 72l-154 -154l-113 113l154 151q-76 112 -76 246q0 130 74 240l-152 149l113 115l152 -152q107 74 237 74q133 0 242 -76l154 154l112 -115l-153 -151q73 -106 73 -238q0 -131 -75 -244zM344 467
q0 -113 78 -195t188 -82q111 0 191 83t80 194t-80 191q-79 81 -191 81q-110 0 -188 -81q-78 -80 -78 -191z" />
    <glyph glyph-name="yen" unicode="&#xa5;" horiz-adv-x="1339" 
d="M891 1190v82q213 -12 418 0v-82q-141 -17 -199 -131l-227 -438h198v-115h-245v-53h245v-115h-245v-131q0 -69 33 -94q35 -26 128 -33v-80q-330 8 -657 0v82q92 6 126 31t34 94v131h-224v115h224v53h-224v115h164l-245 446q-1 5 -15 27q-12 24 -15 27q-4 4 -15 19
q-7 11 -12 15.5t-15.5 9t-15.5 7.5q-20 13 -76 18v82q323 -12 651 0v-82q-87 -8 -110.5 -39t10.5 -86l217 -410l211 404q56 109 -119 131z" />
    <glyph glyph-name="brokenbar" unicode="&#xa6;" horiz-adv-x="569" 
d="M385 924h-201v714h201v-714zM385 -440h-201v714h201v-714z" />
    <glyph glyph-name="dieresis" unicode="&#xa8;" horiz-adv-x="1097" 
d="M147 1147q-59 0 -103 44t-44 103t44 103q43 43 103 43q61 0 103 -43q43 -43 43 -103q0 -61 -43 -104q-42 -43 -103 -43zM715 1191q-44 -44 -103 -44t-103 44t-44 103t44 103q43 43 103 43t103 -43t43 -103t-43 -103z" />
    <glyph glyph-name="copyright" unicode="&#xa9;" horiz-adv-x="1583" 
d="M300 1144q198 195 497 195t491 -194q193 -193 193 -502q0 -310 -193 -503q-192 -193 -491 -193q-298 0 -497 194q-198 195 -198 502t198 501zM797 1219q-238 0 -390 -158q-151 -157 -151 -418t151 -418t390 -157q236 0 383 156q147 157 147 419t-148 419
q-147 157 -382 157zM1022 477h125q-62 -99 -76 -198q-39 12 -72 12q-32 0 -83 -15q-51 -14 -103 -14q-182 0 -284 103q-101 104 -101 286q0 168 105 270q106 103 260 103q51 0 110 -15q62 -14 94 -14q34 0 76 11q17 -115 49 -207h-145q-36 76 -88.5 122t-108.5 46
q-143 0 -143 -279q0 -146 42 -255t132 -109q117 -1 211 153z" />
    <glyph glyph-name="ordfeminine" unicode="&#xaa;" horiz-adv-x="733" 
d="M612 1061v-256q0 -23 2 -23q4 0 70 33v-115q-102 -41 -147 -41q-55 0 -88 58q-70 -57 -179 -58q-87 0 -155 44q-66 45 -66 122q0 83 82 141q82 60 293 91v2q0 151 -57 149q-51 0 -67 -15q-15 -15 -21 -69q-4 -30 -37 -47.5t-76 -17.5q-40 0 -62 21t-22 57q0 75 85 115
q85 42 187 42q145 0 201 -56q57 -56 57 -177zM301 766q30 0 55 17q23 17 35.5 33.5t32.5 53.5v97q-111 -19 -147 -55q-33 -34 -33 -85q0 -61 57 -61zM111 406v147h510v-147h-510z" />
    <glyph glyph-name="guillemotleft" unicode="&#xab;" horiz-adv-x="911" 
d="M61 496v53l398 342l49 -57l-250 -312l250 -311l-49 -57zM403 496v53l398 342l49 -57l-250 -312l250 -311l-49 -57z" />
    <glyph glyph-name="logicalnot" unicode="&#xac;" horiz-adv-x="1116" 
d="M102 793h912v-500h-187v313h-725v187z" />
    <glyph glyph-name="uni00AD" unicode="&#xad;" horiz-adv-x="716" 
d="M82 483v111h553v-111h-553z" />
    <glyph glyph-name="registered" unicode="&#xae;" horiz-adv-x="1583" 
d="M300 1144q198 195 497 195t491 -194q193 -193 193 -502q0 -310 -193 -503q-192 -193 -491 -193q-298 0 -497 194q-198 195 -198 502t198 501zM797 1219q-238 0 -390 -158q-151 -157 -151 -418t151 -418t390 -157q236 0 383 156q147 157 147 419t-148 419
q-147 157 -382 157zM922 600l131 -184q40 -58 100 -66l-4 -51h-250q-1 59 -37 113l-125 168h-16v-187q0 -37 65 -43v-51h-333v51q47 4 66.5 13.5t19.5 29.5v488q0 45 -72 53v49h283q188 0 264 -48t76 -149q0 -150 -168 -186zM721 930v-297h27q170 0 170 155q0 140 -123 142
h-74z" />
    <glyph glyph-name="overscore" unicode="&#xaf;" horiz-adv-x="866" 
d="M102 1231v94q0 37 39 37h611q39 0 39 -37v-94q0 -39 -39 -39h-611q-39 0 -39 39z" />
    <glyph glyph-name="degree" unicode="&#xb0;" horiz-adv-x="624" 
d="M149 1230q68 68 164 68q97 0 163 -68q67 -67 67 -167q0 -101 -67 -168q-66 -68 -163 -68q-96 0 -164 68q-67 67 -67 168q0 100 67 167zM397 1063q0 51 -23.5 83t-64.5 32q-38 0 -62 -33.5t-24 -81.5q0 -50 24 -82.5t62 -32.5q42 0 65 31.5t23 83.5z" />
    <glyph glyph-name="plusminus" unicode="&#xb1;" horiz-adv-x="921" 
d="M518 1106v-301h301v-115h-301v-301h-115v301h-301v115h301v301h115zM819 0h-717v117h717v-117z" />
    <glyph glyph-name="uni00B2" unicode="&#xb2;" horiz-adv-x="561" 
d="M444 936h66l-21 -115q-6 -29 -43 -28h-385q33 158 211 266q93 56 95 115q0 27 -20.5 44t-51.5 17q-57 0 -70 -39q-6 -18 0 -43q6 -24 4 -35q-20 -47 -84 -35q-63 13 -63 58q2 77 56 124.5t153 47.5q93 0 141.5 -40.5t48.5 -115.5q0 -44 -29 -85t-53 -58q-20 -14 -71 -45
q-47 -26 -53 -34q-6 -7 -17 -42h125q33 0 43 16z" />
    <glyph glyph-name="uni00B3" unicode="&#xb3;" horiz-adv-x="575" 
d="M408 1102q106 -31 106 -135q0 -79 -62 -132q-62 -51 -167 -51q-97 0 -156 48q-57 50 -57 114q0 24 15 38.5t42 14.5q30 0 43 -11q11 -10 16 -41q1 -5 7 -36q9 -21 33.5 -37t50.5 -16q47 0 74 32q28 30 26 62q2 60 -38 70q-41 12 -93 -16l-35 67l49 23q68 26 68 90
q0 53 -66 53q-30 0 -44 -36q-13 -35 -1 -75l-110 13q-25 10 -25 28q-2 64 50 105t144 41q95 0 146 -39t51 -86q1 -61 -67 -88z" />
    <glyph glyph-name="acute" unicode="&#xb4;" horiz-adv-x="1228" 
d="M137 1149l-35 53l277 238q49 41 96 41t78 -41q31 -44 9 -96q-20 -51 -83 -74z" />
    <glyph glyph-name="uni00B5" unicode="&#xb5;" horiz-adv-x="1294" 
d="M1130 977v-703q0 -106 134 -79v-86q-99 -27 -181 -61q-42 -17 -94.5 -40.5t-74.5 -32t-33 -8.5q-84 0 -72 99l20 153q-141 -252 -354 -252q-92 0 -158 33q9 -65 34 -117t51 -77q18 -17 24 -23t16.5 -18.5t14 -20.5t2.5 -16q-11 -75 -87 -115q-77 -41 -150 -17
q-72 22 -72 107v1155q0 34 -14 49t-44 13l-61 -2v90l377 26q28 2 45.5 -13t17.5 -44v-610v-70q0 -21 3 -59q3 -37 9 -55q11 -34 33.5 -56t58.5 -18q53 0 108 55q50 49 76.5 93.5t49.5 102.5v498q0 33 -13.5 48.5t-43.5 13.5l-62 -2v90l379 26q26 2 43.5 -13.5t17.5 -43.5z
" />
    <glyph glyph-name="paragraph" unicode="&#xb6;" horiz-adv-x="1431" 
d="M1339 1272v-115q-26 -5 -49 -11q-17 -6 -30 -21t-13 -35v-1010q0 -37 19.5 -53.5t72.5 -24.5v-139h-862v139q75 8 97 24q24 16 24 54v407h-41q-221 0 -364 107q-142 108 -142 287q0 180 141 285q142 106 365 106h782zM553 598h45v547h-45q-119 0 -171 -76t-52 -188
q0 -114 53 -199q53 -84 170 -84zM995 80v1007q0 35 -10 46.5t-37 11.5h-100v-1065q0 -37 16.5 -52.5t57.5 -15.5t57 15.5t16 52.5z" />
    <glyph glyph-name="middot" unicode="&#xb7;" horiz-adv-x="512" 
d="M344 497q-45 -46 -109 -46q-63 0 -108 46q-45 47 -45 109q0 64 45 109t108 45q64 0 109 -45t45 -109q0 -62 -45 -109z" />
    <glyph glyph-name="cedilla" unicode="&#xb8;" horiz-adv-x="710" 
d="M344 -354q82 0 82 84q0 87 -143 125q-49 12 -50 43q0 17 56 108h92l-19 -65q46 -13 78 -27q14 -6 76 -37q92 -49 92 -129q0 -74 -83 -116t-183 -42q-105 0 -173 35q-67 34 -67 103q0 33 22 53t56 20q40 0 60 -23t19 -54q-1 -33 20 -55.5t65 -22.5z" />
    <glyph glyph-name="uni00B9" unicode="&#xb9;" horiz-adv-x="448" 
d="M297 1280v-360q0 -32 59 -37v-80h-260v80q59 5 60 37v268l-64 -21v93l115 51q30 12 61 -1q33 -12 29 -30z" />
    <glyph glyph-name="ordmasculine" unicode="&#xba;" horiz-adv-x="729" 
d="M365 1292q126 -1 221 -89q94 -87 94 -222q0 -139 -94 -229t-221 -90q-126 0 -221 88q-95 89 -95 221q0 142 94 230q96 90 222 91zM489 956q0 115 -40 185q-39 71 -93 71q-117 0 -116 -217q0 -115 41 -186q40 -70 98 -70q110 0 110 217zM111 406v147h510v-147h-510z" />
    <glyph glyph-name="guillemotright" unicode="&#xbb;" horiz-adv-x="911" 
d="M111 891l397 -342v-53l-397 -342l-50 57l250 311l-250 312zM453 891l397 -342v-53l-397 -342l-50 57l250 311l-250 312z" />
    <glyph glyph-name="onequarter" unicode="&#xbc;" horiz-adv-x="1374" 
d="M96 803v80q59 5 60 37v268l-64 -21v93l115 51q30 12 61 -1q33 -12 29 -30v-360q0 -32 59 -37v-80h-260zM131 -10l885 1313h186l-887 -1313h-184zM1313 221v-94h-60v-55q0 -37 52 -37v-47h-246v47q49 0 49 37v55h-193v90l246 285q18 23 55 14q37 -7 37 -33v-262h60z" />
    <glyph glyph-name="onehalf" unicode="&#xbd;" horiz-adv-x="1404" 
d="M297 1280v-360q0 -32 59 -37v-80h-260v80q59 5 60 37v268l-64 -21v93l115 51q30 12 61 -1q33 -12 29 -30zM131 -10l885 1313h186l-887 -1313h-184zM1288 131h66l-21 -115q-6 -29 -43 -28h-385q33 158 211 266q94 57 94 115q0 27 -20.5 44t-50.5 17q-57 0 -70 -39
q-6 -18 0 -43q6 -23 4 -35q-20 -47 -84 -35q-63 14 -63 58q2 77 56 124.5t153 47.5q93 0 141.5 -40.5t48.5 -115.5q0 -44 -29 -85q-29 -42 -53 -57q-35 -24 -72 -46q-45 -25 -52 -34q-6 -7 -17 -42h125q33 0 43 16z" />
    <glyph glyph-name="threequarters" unicode="&#xbe;" horiz-adv-x="1425" 
d="M514 967q0 -79 -62 -132q-62 -51 -167 -51q-97 0 -156 48q-57 50 -57 114q0 24 15 38.5t42 14.5q30 0 43 -11q11 -10 16 -41q1 -5 7 -36q9 -21 33.5 -37t50.5 -16q47 0 74 32q28 30 26 62q2 60 -38 70q-41 12 -93 -16l-35 67l49 23q68 26 68 90q0 53 -66 53
q-30 0 -44 -36q-13 -35 -1 -75l-110 13q-25 10 -25 28q-2 64 50 105t144 41q95 0 146 -39t51 -86q0 -61 -67 -88q106 -31 106 -135zM250 -10l885 1313h186l-887 -1313h-184zM1364 221v-94h-59v-55q0 -37 51 -37v-47h-246v47q49 0 49 37v55h-192v90l245 285q18 23 55 14
q38 -8 38 -33v-262h59z" />
    <glyph glyph-name="questiondown" unicode="&#xbf;" horiz-adv-x="1048" 
d="M434 1004q45 47 108 47q64 0 109 -47t45 -110t-45 -108t-109 -45q-63 0 -108 45t-45 108q0 64 45 110zM494 651h96q21 -125 -59 -234l-68 -94q-88 -118 -88 -266q0 -113 44 -175t124 -62t122 56.5t42 160.5q0 49 -14 94q-13 42 -13 59q0 59 38 95.5t101 36.5
q84 0 126 -62t42 -156q0 -164 -123 -271q-124 -107 -325 -107q-217 0 -342 96t-125 254q0 153 135 254q38 29 116 83q65 43 112 105t59 133z" />
    <glyph glyph-name="Agrave" unicode="&#xc0;" horiz-adv-x="1437" 
d="M918 1395l-343 121q-60 22 -83 74q-21 53 10 96q31 41 78 40.5t96 -40.5l276 -238zM819 1282l367 -983q43 -116 90 -163q46 -46 141 -54v-82q-343 8 -684 0v82q96 6 133.5 30t18.5 78l-78 213h-377l-68 -206q-20 -59 36 -85t192 -30v-82q-290 10 -570 0v82q113 8 166 41
q54 33 78 104l361 1055h194zM604 948l-145 -454h313z" />
    <glyph glyph-name="Aacute" unicode="&#xc1;" horiz-adv-x="1437" 
d="M864 1516l-342 -121l-35 53l277 238q49 41 96 40.5t78 -40.5q31 -43 9 -95q-23 -53 -83 -75zM819 1282l367 -983q43 -116 90 -163q46 -46 141 -54v-82q-343 8 -684 0v82q96 6 133.5 30t18.5 78l-78 213h-377l-68 -206q-20 -59 36 -85t192 -30v-82q-290 10 -570 0v82
q113 8 166 41q54 33 78 104l361 1055h194zM604 948l-145 -454h313z" />
    <glyph glyph-name="Acircumflex" unicode="&#xc2;" horiz-adv-x="1437" 
d="M1001 1309l-282 225l-285 -225l-53 45l313 358h45l314 -358zM819 1282l367 -983q43 -116 90 -163q46 -46 141 -54v-82q-343 8 -684 0v82q96 6 133.5 30t18.5 78l-78 213h-377l-68 -206q-20 -59 36 -85t192 -30v-82q-290 10 -570 0v82q113 8 166 41q54 33 78 104l361 1055
h194zM604 948l-145 -454h313z" />
    <glyph glyph-name="Atilde" unicode="&#xc3;" horiz-adv-x="1437" 
d="M424 1450h-94q-41 111 22 183q64 73 183 73q94 0 223 -57q130 -56 182 -56q40 0 56 27q18 26 10 51h100q47 -124 -20 -194q-66 -70 -164 -70q-91 0 -226 61q-136 62 -200 62q-47 0 -65 -30q-17 -31 -7 -50zM819 1282l367 -983q43 -116 90 -163q46 -46 141 -54v-82
q-343 8 -684 0v82q96 6 133.5 30t18.5 78l-78 213h-377l-68 -206q-20 -59 36 -85t192 -30v-82q-290 10 -570 0v82q113 8 166 41q54 33 78 104l361 1055h194zM604 948l-145 -454h313z" />
    <glyph glyph-name="Adieresis" unicode="&#xc4;" horiz-adv-x="1437" 
d="M487 1393q-59 0 -103 44t-44 103q0 58 44 102t103 44q61 0 103 -44q43 -43 43 -102q0 -61 -43 -104q-42 -43 -103 -43zM1055 1437q-44 -44 -103 -44t-103 44t-44 103q0 58 44 102t103 44t103 -44q43 -43 43 -102q0 -60 -43 -103zM819 1282l367 -983q43 -116 90 -163
q46 -46 141 -54v-82q-343 8 -684 0v82q96 6 133.5 30t18.5 78l-78 213h-377l-68 -206q-20 -59 36 -85t192 -30v-82q-290 10 -570 0v82q113 8 166 41q54 33 78 104l361 1055h194zM604 948l-145 -454h313z" />
    <glyph glyph-name="Aring" unicode="&#xc5;" horiz-adv-x="1437" 
d="M833 1425q-47 -47 -115 -47q-67 0 -114 47q-47 49 -47 115q0 68 46 114t115 46q70 0 116 -46q47 -47 47 -114t-48 -115zM647 1540q0 -29 22 -51.5t49 -22.5t50 22.5t23 51.5q0 27 -23 49.5t-50 22.5q-26 0 -49 -23q-22 -22 -22 -49zM819 1282l367 -983q43 -116 90 -163
q46 -46 141 -54v-82q-343 8 -684 0v82q96 6 133.5 30t18.5 78l-78 213h-377l-68 -206q-20 -59 36 -85t192 -30v-82q-290 10 -570 0v82q113 8 166 41q54 33 78 104l361 1055h194zM604 948l-145 -454h313z" />
    <glyph glyph-name="AE" unicode="&#xc6;" horiz-adv-x="2093" 
d="M1952 377h80q-72 -201 -70 -377q-500 14 -975 0v82q87 6 118.5 27.5t31.5 74.5v250h-545l-201 -237q-63 -70 96 -97q33 -5 101 -10v-90q-285 10 -568 0v90q104 6 157 38q55 32 110 99l798 949q-34 13 -98 14v82h938q19 0 25 -7t10 -30l37 -256h-78l-25 45q-51 95 -99 130
q-47 34 -165 34h-98q-46 0 -57 -41v-434h194q76 0 111 26q34 27 51 95h63q-13 -172 0 -347h-63q-18 70 -53.5 98.5t-108.5 28.5h-194v-368h-2v-62q0 -52 21 -72t73 -20h22q111 0 170 33q60 33 107 113zM1137 1079l-467 -553h467v553z" />
    <glyph glyph-name="Ccedilla" unicode="&#xc7;" horiz-adv-x="1304" 
d="M739 -33q-29 0 -47 2l-8 -28q46 -13 78 -27q14 -6 76 -37q92 -49 92 -129q0 -74 -83 -116t-183 -42q-105 0 -173 35q-67 34 -67 103q0 33 22 53t56 20q40 0 60 -23t19 -54q-1 -33 19.5 -55.5t65.5 -22.5q82 0 82 84q0 88 -144 125q-49 12 -49 43q0 18 39 82
q-237 46 -380 228q-142 181 -142 441q0 298 181 476q181 180 460 180q81 0 179 -27t159 -27q55 0 116 19q11 -189 78 -361h-168q-135 293 -356 293q-295 0 -295 -487q0 -278 98 -460q99 -181 289 -181q105 0 196 63q93 65 144 211h111q-40 -162 -169 -273
q-127 -108 -356 -108z" />
    <glyph glyph-name="Egrave" unicode="&#xc8;" 
d="M770 1395l-342 121q-60 22 -83 74q-21 52 9 96q31 41 78 40.5t96 -40.5l277 -238zM1016 377h80q-72 -201 -70 -377q-500 14 -975 0v82q87 6 118.5 27.5t31.5 74.5v924q0 43 -31 59q-33 17 -119 23v82h938q19 0 25 -7t10 -30l37 -256h-78l-25 45q-51 95 -99 130
q-47 34 -165 34h-98q-59 0 -59 -62v-413h196q76 0 111 26q34 27 51 95h63q-14 -174 0 -347h-63q-18 70 -53.5 98.5t-108.5 28.5h-196v-430q0 -52 21 -72t73 -20h22q111 0 170 33q60 33 107 113z" />
    <glyph glyph-name="Eacute" unicode="&#xc9;" 
d="M717 1516l-342 -121l-35 53l276 238q49 41 96.5 40.5t78.5 -40.5q31 -43 9 -95q-23 -53 -83 -75zM1016 377h80q-72 -201 -70 -377q-500 14 -975 0v82q87 6 118.5 27.5t31.5 74.5v924q0 43 -31 59q-33 17 -119 23v82h938q19 0 25 -7t10 -30l37 -256h-78l-25 45
q-51 95 -99 130q-47 34 -165 34h-98q-59 0 -59 -62v-413h196q76 0 111 26q34 27 51 95h63q-14 -174 0 -347h-63q-18 70 -53.5 98.5t-108.5 28.5h-196v-430q0 -52 21 -72t73 -20h22q111 0 170 33q60 33 107 113z" />
    <glyph glyph-name="Ecircumflex" unicode="&#xca;" 
d="M854 1309l-283 225l-284 -225l-54 45l314 358h45l313 -358zM1016 377h80q-72 -201 -70 -377q-500 14 -975 0v82q87 6 118.5 27.5t31.5 74.5v924q0 43 -31 59q-33 17 -119 23v82h938q19 0 25 -7t10 -30l37 -256h-78l-25 45q-51 95 -99 130q-47 34 -165 34h-98
q-59 0 -59 -62v-413h196q76 0 111 26q34 27 51 95h63q-14 -174 0 -347h-63q-18 70 -53.5 98.5t-108.5 28.5h-196v-430q0 -52 21 -72t73 -20h22q111 0 170 33q60 33 107 113z" />
    <glyph glyph-name="Edieresis" unicode="&#xcb;" 
d="M340 1393q-59 0 -103 44t-44 103q0 58 44 102t103 44q61 0 103 -44t42 -102q0 -60 -42 -104q-42 -43 -103 -43zM907 1437q-44 -44 -103 -44t-103 44t-44 103q0 58 44 102t103 44t103 -44q43 -43 43 -102q0 -60 -43 -103zM1016 377h80q-72 -201 -70 -377q-500 14 -975 0
v82q87 6 118.5 27.5t31.5 74.5v924q0 43 -31 59q-33 17 -119 23v82h938q19 0 25 -7t10 -30l37 -256h-78l-25 45q-51 95 -99 130q-47 34 -165 34h-98q-59 0 -59 -62v-413h196q76 0 111 26q34 27 51 95h63q-14 -174 0 -347h-63q-18 70 -53.5 98.5t-108.5 28.5h-196v-430
q0 -52 21 -72t73 -20h22q111 0 170 33q60 33 107 113z" />
    <glyph glyph-name="Igrave" unicode="&#xcc;" horiz-adv-x="747" 
d="M332 1686l276 -238l-35 -53l-342 121q-60 22 -83 74q-21 53 10 96q31 41 78 40.5t96 -40.5zM541 1087v-903q0 -52 33 -75q35 -21 122 -27v-82q-322 10 -645 0v82q88 6 121 27q33 23 33 75v903q0 53 -33 75q-32 22 -121 28v82q323 -10 645 0v-82q-88 -6 -122 -28
q-33 -21 -33 -75z" />
    <glyph glyph-name="Iacute" unicode="&#xcd;" horiz-adv-x="747" 
d="M178 1395l-35 53l277 238q49 41 96 40.5t78 -40.5q32 -44 9 -96q-20 -51 -83 -74zM541 1087v-903q0 -52 33 -75q35 -21 122 -27v-82q-322 10 -645 0v82q88 6 121 27q33 23 33 75v903q0 53 -33 75q-32 22 -121 28v82q323 -10 645 0v-82q-88 -6 -122 -28q-33 -21 -33 -75z
" />
    <glyph glyph-name="Icircumflex" unicode="&#xce;" horiz-adv-x="747" 
d="M350 1712h45l314 -358l-52 -45l-282 225l-285 -225l-53 45zM541 1087v-903q0 -52 33 -75q35 -21 122 -27v-82q-322 10 -645 0v82q88 6 121 27q33 23 33 75v903q0 53 -33 75q-32 22 -121 28v82q323 -10 645 0v-82q-88 -6 -122 -28q-33 -21 -33 -75z" />
    <glyph glyph-name="Idieresis" unicode="&#xcf;" horiz-adv-x="747" 
d="M143 1393q-59 0 -103 44t-44 103q0 58 44 102t103 44q61 0 103 -44q43 -43 43 -102q0 -61 -43 -104q-42 -43 -103 -43zM711 1437q-44 -44 -103 -44t-103 44t-44 103q0 58 44 102t103 44t103 -44q43 -43 43 -102q0 -60 -43 -103zM541 1087v-903q0 -52 33 -75
q35 -21 122 -27v-82q-322 10 -645 0v82q88 6 121 27q33 23 33 75v903q0 53 -33 75q-32 22 -121 28v82q323 -10 645 0v-82q-88 -6 -122 -28q-33 -21 -33 -75z" />
    <glyph glyph-name="Eth" unicode="&#xd0;" horiz-adv-x="1396" 
d="M625 1272q696 0 696 -641q0 -163 -49 -285q-50 -124 -116 -187t-155 -102t-146 -48q-59 -9 -110 -9q-41 0 -164 18q-118 19 -219 19q-94 0 -170 -13l-77 -12l-70 -12v82q88 19 118 37q32 20 32 69v381h-144v133h144v390q0 52 -29 72t-105 26v82q81 -4 186 -4q58 0 206 2
t172 2zM641 92q305 0 305 543q0 553 -338 553q-47 0 -78 -4v-482h142v-133h-142v-389q0 -88 111 -88z" />
    <glyph glyph-name="Ntilde" unicode="&#xd1;" horiz-adv-x="1404" 
d="M989 1671h101q47 -124 -20 -194q-66 -70 -165 -70q-91 0 -225 61q-136 62 -201 62q-47 0 -65 -30q-17 -30 -6 -50h-95q-41 111 22 183q64 73 183 73q94 0 223 -57q130 -56 183 -56q40 0 56 27t9 51zM807 1190v82q301 -10 567 0v-82q-217 -19 -217 -137v-1053h-104
l-701 981v-760q0 -67 61.5 -98.5t186.5 -40.5v-82q-307 10 -569 0v82q215 20 215 139v793q0 79 -51.5 124.5t-141.5 51.5v82q244 -10 490 0l508 -715v496q0 119 -244 137z" />
    <glyph glyph-name="Ograve" unicode="&#xd2;" horiz-adv-x="1398" 
d="M657 1686l277 -238l-35 -53l-342 121q-60 22 -83 74q-21 52 9 96q31 41 78 40.5t96 -40.5zM700 1305q275 0 450 -184q177 -183 177 -496q0 -287 -180 -473q-180 -185 -449 -185q-272 0 -449 184q-177 185 -177 496q0 288 180 472q180 186 448 186zM737 68
q113 0 174.5 132t61.5 373q0 267 -84 449t-221 182q-115 0 -179 -133q-63 -133 -63 -375q0 -269 85 -448q85 -180 226 -180z" />
    <glyph glyph-name="Oacute" unicode="&#xd3;" horiz-adv-x="1398" 
d="M504 1395l-35 53l276 238q49 41 96.5 40.5t78.5 -40.5q32 -44 9 -96q-22 -52 -83 -74zM700 1305q275 0 450 -184q177 -183 177 -496q0 -287 -180 -473q-180 -185 -449 -185q-272 0 -449 184q-177 185 -177 496q0 288 180 472q180 186 448 186zM737 68q113 0 174.5 132
t61.5 373q0 267 -84 449t-221 182q-115 0 -179 -133q-63 -133 -63 -375q0 -269 85 -448q85 -180 226 -180z" />
    <glyph glyph-name="Ocircumflex" unicode="&#xd4;" horiz-adv-x="1398" 
d="M676 1712h45l313 -358l-51 -45l-283 225l-284 -225l-54 45zM700 1305q275 0 450 -184q177 -183 177 -496q0 -287 -180 -473q-180 -185 -449 -185q-272 0 -449 184q-177 185 -177 496q0 288 180 472q180 186 448 186zM737 68q113 0 174.5 132t61.5 373q0 267 -84 449
t-221 182q-115 0 -179 -133q-63 -133 -63 -375q0 -269 85 -448q85 -180 226 -180z" />
    <glyph glyph-name="Otilde" unicode="&#xd5;" horiz-adv-x="1398" 
d="M987 1671h100q47 -124 -20 -194q-66 -70 -164 -70q-93 0 -225 61q-135 62 -201 62q-47 0 -65 -30q-17 -30 -6 -50h-95q-41 111 22 183q64 73 183 73q94 0 223 -57q130 -56 183 -56q40 0 56 27t9 51zM700 1305q275 0 450 -184q177 -183 177 -496q0 -287 -180 -473
q-180 -185 -449 -185q-272 0 -449 184q-177 185 -177 496q0 288 180 472q180 186 448 186zM737 68q113 0 174.5 132t61.5 373q0 267 -84 449t-221 182q-115 0 -179 -133q-63 -133 -63 -375q0 -269 85 -448q85 -180 226 -180z" />
    <glyph glyph-name="Odieresis" unicode="&#xd6;" horiz-adv-x="1398" 
d="M469 1393q-59 0 -103 44t-44 103q0 58 44 102t103 44q61 0 103 -44t42 -102q0 -60 -42 -104q-42 -43 -103 -43zM1036 1437q-44 -44 -103 -44t-103 44t-44 103q0 58 44 102t103 44t103 -44q43 -43 43 -102q0 -60 -43 -103zM700 1305q275 0 450 -184q177 -183 177 -496
q0 -287 -180 -473q-180 -185 -449 -185q-272 0 -449 184q-177 185 -177 496q0 288 180 472q180 186 448 186zM737 68q113 0 174.5 132t61.5 373q0 267 -84 449t-221 182q-115 0 -179 -133q-63 -133 -63 -375q0 -269 85 -448q85 -180 226 -180z" />
    <glyph glyph-name="multiply" unicode="&#xd7;" horiz-adv-x="886" 
d="M651 856l133 -131l-209 -209l209 -211l-133 -131l-207 209l-208 -209l-134 131l209 211l-209 209l134 131l208 -209z" />
    <glyph glyph-name="Oslash" unicode="&#xd8;" horiz-adv-x="1398" 
d="M1221 1184l-58 -76q164 -187 164 -483q0 -287 -180 -473q-180 -185 -449 -185q-180 0 -329 86l-64 -84l-147 121l67 88q-154 181 -154 469q2 288 181 472q180 186 448 186q174 0 314 -78l59 80zM426 696q0 -122 18 -225l433 576q-83 158 -209 157q-115 0 -179 -133
q-63 -133 -63 -375zM737 68q113 0 174.5 132t61.5 373q0 126 -23 252l-438 -579q90 -178 225 -178z" />
    <glyph glyph-name="Ugrave" unicode="&#xd9;" horiz-adv-x="1521" 
d="M989 1395l-342 121q-60 22 -83 74q-21 52 9 96q31 41 77.5 40.5t97.5 -40.5l276 -238zM1491 1272v-82q-88 -6 -122 -28q-34 -21 -34 -75v-921q0 -39 35.5 -58.5t120.5 -25.5v-82q-297 7 -520 0v82q29 23 28 108v31q-128 -242 -401 -241q-196 0 -306 110
q-108 111 -108 297v700q0 53 -33 75q-31 22 -120 28v82q323 -10 645 0v-82q-88 -6 -122 -28q-34 -21 -34 -75v-696q0 -307 195 -307q101 0 171 78q73 79 113 186v739q0 53 -33 75q-31 22 -120 28v82q322 -10 645 0z" />
    <glyph glyph-name="Uacute" unicode="&#xda;" horiz-adv-x="1521" 
d="M936 1516l-342 -121l-35 53l277 238q49 41 96 40.5t78 -40.5q31 -43 9 -95q-23 -53 -83 -75zM1491 1272v-82q-88 -6 -122 -28q-34 -21 -34 -75v-921q0 -39 35.5 -58.5t120.5 -25.5v-82q-297 7 -520 0v82q29 23 28 108v31q-128 -242 -401 -241q-196 0 -306 110
q-108 111 -108 297v700q0 53 -33 75q-31 22 -120 28v82q323 -10 645 0v-82q-88 -6 -122 -28q-34 -21 -34 -75v-696q0 -307 195 -307q101 0 171 78q73 79 113 186v739q0 53 -33 75q-31 22 -120 28v82q322 -10 645 0z" />
    <glyph glyph-name="Ucircumflex" unicode="&#xdb;" horiz-adv-x="1521" 
d="M1073 1309l-282 225l-285 -225l-53 45l313 358h45l313 -358zM1491 1272v-82q-88 -6 -122 -28q-34 -21 -34 -75v-921q0 -39 35.5 -58.5t120.5 -25.5v-82q-297 7 -520 0v82q29 23 28 108v31q-128 -242 -401 -241q-196 0 -306 110q-108 111 -108 297v700q0 53 -33 75
q-31 22 -120 28v82q323 -10 645 0v-82q-88 -6 -122 -28q-34 -21 -34 -75v-696q0 -307 195 -307q101 0 171 78q73 79 113 186v739q0 53 -33 75q-31 22 -120 28v82q322 -10 645 0z" />
    <glyph glyph-name="Udieresis" unicode="&#xdc;" horiz-adv-x="1521" 
d="M559 1393q-59 0 -103 44t-44 103q0 58 44 102t103 44q61 0 103 -44q43 -43 43 -102q0 -61 -43 -104q-42 -43 -103 -43zM1126 1437q-44 -44 -102 -44q-59 0 -103 44t-44 103q0 58 44 102t103 44q58 0 102 -44q43 -43 43 -102q0 -60 -43 -103zM1491 1272v-82
q-88 -6 -122 -28q-34 -21 -34 -75v-921q0 -39 35.5 -58.5t120.5 -25.5v-82q-297 7 -520 0v82q29 23 28 108v31q-128 -242 -401 -241q-196 0 -306 110q-108 111 -108 297v700q0 53 -33 75q-31 22 -120 28v82q323 -10 645 0v-82q-88 -6 -122 -28q-34 -21 -34 -75v-696
q0 -307 195 -307q101 0 171 78q73 79 113 186v739q0 53 -33 75q-31 22 -120 28v82q322 -10 645 0z" />
    <glyph glyph-name="Yacute" unicode="&#xdd;" horiz-adv-x="1339" 
d="M809 1516l-342 -121l-35 53l277 238q49 41 96 40.5t78 -40.5q31 -43 9 -95q-23 -53 -83 -75zM891 1190v82q213 -12 418 0v-82q-141 -17 -199 -131l-274 -529v-323q0 -69 33 -94q35 -26 128 -33v-80q-330 8 -657 0v82q92 6 126 31t34 94v305l-305 555q-1 5 -15 27
q-12 24 -15 27q-4 4 -15 19q-7 11 -12 15.5t-15.5 9t-15.5 7.5q-20 13 -76 18v82q323 -12 651 0v-82q-87 -8 -110.5 -39t10.5 -86l217 -410l211 404q56 109 -119 131z" />
    <glyph glyph-name="Thorn" unicode="&#xde;" horiz-adv-x="1232" 
d="M606 254h-65v-70q0 -52 33 -75q35 -21 122 -27v-82q-322 10 -645 0v82q88 6 121 27q33 23 33 75v903q0 53 -33 75q-32 22 -121 28v82q323 -10 645 0v-82q-88 -6 -122 -28q-33 -21 -33 -75v-61h65q260 0 418 -104t158 -285q0 -177 -158 -281q-158 -102 -418 -102zM604 926
h-63v-572h63q134 0 198 79q66 79 66 204q0 129 -66 209q-65 80 -198 80z" />
    <glyph glyph-name="germandbls" unicode="&#xdf;" horiz-adv-x="1302" 
d="M526 598v-383q0 -215 -180 -215h-305v82q85 6 117 27q32 23 32 75v680q0 206 108 306q108 102 372 102q244 0 350 -88t106 -221q0 -195 -190 -265q326 -57 326 -329q0 -369 -603 -369h-26v82h26q128 0 196.5 66.5t68.5 197.5q0 137 -78.5 200.5t-243.5 63.5zM526 899
v-207l43 4q128 13 186 64t58 188q0 233 -145 234q-86 0 -114 -73q-28 -72 -28 -210z" />
    <glyph glyph-name="agrave" unicode="&#xe0;" horiz-adv-x="1153" 
d="M760 1149l-342 121q-60 22 -83 75q-22 52 9 95q31 41 78 41t96 -41l277 -238zM979 754v-502q0 -130 133 -143v-86q-154 -1 -385 -52q-45 18 -57 58l10 123h-21q-103 -179 -307 -181q-128 0 -214 70q-87 70 -87 205q0 142 132 228t474 159v125q0 118 -29 164
q-28 45 -91 45q-77 0 -108 -51q-33 -51 -34 -109q-2 -59 -36 -110q-33 -50 -113 -50q-135 0 -135 117t145 198q145 82 371 82q80 0 134 -10.5t106 -39.5q112 -60 112 -240zM483 111q109 0 174 161v293q-91 -23 -154.5 -63t-90.5 -88q-41 -78 -41 -144q0 -73 29.5 -116
t82.5 -43z" />
    <glyph glyph-name="aacute" unicode="&#xe1;" horiz-adv-x="1153" 
d="M707 1270l-342 -121l-35 53l276 238q49 41 96.5 41t77.5 -41q31 -43 9 -95q-21 -53 -82 -75zM979 754v-502q0 -130 133 -143v-86q-154 -1 -385 -52q-45 18 -57 58l10 123h-21q-103 -179 -307 -181q-128 0 -214 70q-87 70 -87 205q0 142 132 228t474 159v125
q0 118 -29 164q-28 45 -91 45q-77 0 -108 -51q-33 -51 -34 -109q-2 -59 -36 -110q-33 -50 -113 -50q-135 0 -135 117t145 198q145 82 371 82q80 0 134 -10.5t106 -39.5q112 -60 112 -240zM483 111q109 0 174 161v293q-91 -23 -154.5 -63t-90.5 -88q-41 -78 -41 -144
q0 -73 29.5 -116t82.5 -43z" />
    <glyph glyph-name="acircumflex" unicode="&#xe2;" horiz-adv-x="1153" 
d="M844 1063l-283 225l-285 -225l-53 45l314 358h45l313 -358zM979 754v-502q0 -130 133 -143v-86q-154 -1 -385 -52q-45 18 -57 58l10 123h-21q-103 -179 -307 -181q-128 0 -214 70q-87 70 -87 205q0 142 132 228t474 159v125q0 118 -29 164q-28 45 -91 45q-77 0 -108 -51
q-33 -51 -34 -109q-2 -59 -36 -110q-33 -50 -113 -50q-135 0 -135 117t145 198q145 82 371 82q80 0 134 -10.5t106 -39.5q112 -60 112 -240zM483 111q109 0 174 161v293q-91 -23 -154.5 -63t-90.5 -88q-41 -78 -41 -144q0 -73 29.5 -116t82.5 -43z" />
    <glyph glyph-name="atilde" unicode="&#xe3;" horiz-adv-x="1153" 
d="M266 1204h-94q-41 111 22 183q64 73 183 73q93 0 223 -56t182 -56q39 0 56 26q18 26 10 51h100q47 -124 -20 -194q-66 -70 -164 -70q-93 0 -225 61q-135 62 -201 62q-47 0 -65 -30q-17 -31 -7 -50zM979 754v-502q0 -130 133 -143v-86q-154 -1 -385 -52q-45 18 -57 58
l10 123h-21q-103 -179 -307 -181q-128 0 -214 70q-87 70 -87 205q0 142 132 228t474 159v125q0 118 -29 164q-28 45 -91 45q-77 0 -108 -51q-33 -51 -34 -109q-2 -59 -36 -110q-33 -50 -113 -50q-135 0 -135 117t145 198q145 82 371 82q80 0 134 -10.5t106 -39.5
q112 -60 112 -240zM483 111q109 0 174 161v293q-91 -23 -154.5 -63t-90.5 -88q-41 -78 -41 -144q0 -73 29.5 -116t82.5 -43z" />
    <glyph glyph-name="adieresis" unicode="&#xe4;" horiz-adv-x="1153" 
d="M330 1147q-58 0 -104 44q-44 44 -44 103t44 103q43 43 104 43t103 -43t42 -103t-42 -104q-42 -43 -103 -43zM897 1191q-44 -44 -103 -44t-103 44t-44 103t44 103q43 43 103 43t103 -43t43 -103t-43 -103zM979 754v-502q0 -130 133 -143v-86q-154 -1 -385 -52
q-45 18 -57 58l10 123h-21q-103 -179 -307 -181q-128 0 -214 70q-87 70 -87 205q0 142 132 228t474 159v125q0 118 -29 164q-28 45 -91 45q-77 0 -108 -51q-33 -51 -34 -109q-2 -59 -36 -110q-33 -50 -113 -50q-135 0 -135 117t145 198q145 82 371 82q80 0 134 -10.5
t106 -39.5q112 -60 112 -240zM483 111q109 0 174 161v293q-91 -23 -154.5 -63t-90.5 -88q-41 -78 -41 -144q0 -73 29.5 -116t82.5 -43z" />
    <glyph glyph-name="aring" unicode="&#xe5;" horiz-adv-x="1153" 
d="M676 1180q-47 -47 -115 -47q-66 0 -115 47q-47 47 -47 114q0 68 46 114t116 46t116 -46t46 -114q0 -67 -47 -114zM489 1294q0 -29 22.5 -51t49.5 -22t49.5 22.5t22.5 50.5q0 27 -22.5 49.5t-49.5 22.5q-26 0 -49 -23t-23 -49zM979 754v-502q0 -130 133 -143v-86
q-154 -1 -385 -52q-45 18 -57 58l10 123h-21q-103 -179 -307 -181q-128 0 -214 70q-87 70 -87 205q0 142 132 228t474 159v125q0 118 -29 164q-28 45 -91 45q-77 0 -108 -51q-33 -51 -34 -109q-2 -59 -36 -110q-33 -50 -113 -50q-135 0 -135 117t145 198q145 82 371 82
q80 0 134 -10.5t106 -39.5q112 -60 112 -240zM483 111q109 0 174 161v293q-91 -23 -154.5 -63t-90.5 -88q-41 -78 -41 -144q0 -73 29.5 -116t82.5 -43z" />
    <glyph glyph-name="ae" unicode="&#xe6;" horiz-adv-x="1662" 
d="M1272 70q162 0 235 145h86q-111 -238 -389 -238q-115 0 -211 39q-114 -12 -266 -45q-45 18 -57 58l10 123h-21q-103 -179 -307 -181q-128 0 -214 70q-87 70 -87 205q0 142 132 228t474 159v125q0 118 -29 164q-28 45 -91 45q-77 0 -108 -51q-33 -51 -34 -109
q-2 -59 -36 -110q-33 -50 -113 -50q-135 0 -135 117t145 198q145 82 371 82q190 0 274 -75q125 77 275 75q195 0 317 -122q123 -121 123 -287q0 -81 -30.5 -117.5t-100.5 -36.5h-486q0 -170 64 -291q65 -120 209 -120zM999 565h326q0 200 -35 294.5t-117 94.5
q-83 0 -128.5 -101t-45.5 -288zM483 111q109 0 174 161v293q-91 -23 -154.5 -63t-90.5 -88q-41 -78 -41 -144q0 -73 29.5 -116t82.5 -43z" />
    <glyph glyph-name="ccedilla" unicode="&#xe7;" horiz-adv-x="1069" 
d="M682 70q165 0 229 145h88q-112 -238 -387 -238h-14l-10 -36q48 -14 77 -27q14 -6 76 -37q93 -50 93 -129q0 -74 -83 -116t-184 -42q-105 0 -173 35q-66 35 -66 103q0 33 22 53t56 20q40 0 59.5 -23t18.5 -54q-1 -33 20 -55.5t65 -22.5q82 0 82 84q0 87 -143 125
q-49 12 -49 43q0 20 43 90q-190 31 -316 168q-125 137 -125 364q0 250 161 387t376 137q170 0 290 -81q120 -79 120 -203q0 -50 -36 -91q-36 -40 -106 -40q-65 0 -101 37.5t-36 93.5q0 82 -18 130q-22 64 -101 64q-105 0 -158 -113q-51 -113 -51 -296q0 -132 22 -230
t89 -173q66 -72 170 -72z" />
    <glyph glyph-name="egrave" unicode="&#xe8;" horiz-adv-x="1071" 
d="M524 1440l277 -238l-35 -53l-342 121q-60 22 -83 75q-22 52 9 95q31 41 78 41t96 -41zM901 215h86q-111 -238 -389 -238q-222 0 -380 144q-157 145 -157 393q0 250 152 390t356 140q194 0 318 -122q123 -121 123 -287q0 -81 -30.5 -117.5t-100.5 -36.5h-486
q0 -169 63 -291q64 -120 210 -120q162 0 235 145zM393 565h326q0 200 -35 294.5t-117 94.5q-84 0 -129 -101t-45 -288z" />
    <glyph glyph-name="eacute" unicode="&#xe9;" horiz-adv-x="1071" 
d="M371 1149l-35 53l276 238q49 41 96.5 41t77.5 -41q32 -44 9 -96q-21 -52 -82 -74zM901 215h86q-111 -238 -389 -238q-222 0 -380 144q-157 145 -157 393q0 250 152 390t356 140q194 0 318 -122q123 -121 123 -287q0 -81 -30.5 -117.5t-100.5 -36.5h-486q0 -169 63 -291
q64 -120 210 -120q162 0 235 145zM393 565h326q0 200 -35 294.5t-117 94.5q-84 0 -129 -101t-45 -288z" />
    <glyph glyph-name="ecircumflex" unicode="&#xea;" horiz-adv-x="1071" 
d="M543 1466h45l313 -358l-51 -45l-283 225l-284 -225l-54 45zM901 215h86q-111 -238 -389 -238q-222 0 -380 144q-157 145 -157 393q0 250 152 390t356 140q194 0 318 -122q123 -121 123 -287q0 -81 -30.5 -117.5t-100.5 -36.5h-486q0 -169 63 -291q64 -120 210 -120
q162 0 235 145zM393 565h326q0 200 -35 294.5t-117 94.5q-84 0 -129 -101t-45 -288z" />
    <glyph glyph-name="edieresis" unicode="&#xeb;" horiz-adv-x="1071" 
d="M336 1147q-58 0 -104 44q-44 44 -44 103t44 103q43 43 104 43t103 -43t42 -103t-42 -104q-42 -43 -103 -43zM903 1191q-44 -44 -103 -44t-103 44t-44 103t44 103q43 43 103 43t103 -43t43 -103t-43 -103zM901 215h86q-111 -238 -389 -238q-222 0 -380 144
q-157 145 -157 393q0 250 152 390t356 140q194 0 318 -122q123 -121 123 -287q0 -81 -30.5 -117.5t-100.5 -36.5h-486q0 -169 63 -291q64 -120 210 -120q162 0 235 145zM393 565h326q0 200 -35 294.5t-117 94.5q-84 0 -129 -101t-45 -288z" />
    <glyph glyph-name="igrave" unicode="&#xec;" horiz-adv-x="661" 
d="M291 1440l276 -238l-35 -53l-342 121q-60 22 -83 75q-21 52 10 95q31 41 78 41t96 -41zM489 680v-522q0 -61 132 -76v-82q-289 6 -580 0v82q127 13 127 76v573q0 62 -30.5 84.5t-96.5 11.5v82q240 43 399 138q42 -17 62 -60q-11 -93 -13 -307z" />
    <glyph glyph-name="iacute" unicode="&#xed;" horiz-adv-x="661" 
d="M137 1149l-35 53l277 238q49 41 96 41t78 -41q31 -44 9 -96q-20 -51 -83 -74zM489 680v-522q0 -61 132 -76v-82q-289 6 -580 0v82q127 13 127 76v573q0 62 -30.5 84.5t-96.5 11.5v82q240 43 399 138q42 -17 62 -60q-11 -93 -13 -307z" />
    <glyph glyph-name="icircumflex" unicode="&#xee;" horiz-adv-x="661" 
d="M309 1466h45l314 -358l-52 -45l-282 225l-285 -225l-53 45zM489 680v-522q0 -61 132 -76v-82q-289 6 -580 0v82q127 13 127 76v573q0 62 -30.5 84.5t-96.5 11.5v82q240 43 399 138q42 -17 62 -60q-11 -93 -13 -307z" />
    <glyph glyph-name="idieresis" unicode="&#xef;" horiz-adv-x="661" 
d="M102 1147q-59 0 -103 44t-44 103t44 103q43 43 103 43q61 0 103 -43q43 -43 43 -103q0 -61 -43 -104q-42 -43 -103 -43zM670 1191q-44 -44 -103 -44t-103 44t-44 103t44 103q43 43 103 43t103 -43t43 -103t-43 -103zM489 680v-522q0 -61 132 -76v-82q-289 6 -580 0v82
q127 13 127 76v573q0 62 -30.5 84.5t-96.5 11.5v82q240 43 399 138q42 -17 62 -60q-11 -93 -13 -307z" />
    <glyph glyph-name="eth" unicode="&#xf0;" horiz-adv-x="1267" 
d="M1094 1004v-715q0 -105 133 -80v-100q-97 -27 -179 -61q-35 -14 -75.5 -32t-61 -27t-39 -15.5t-28.5 -6.5q-82 0 -72 94l10 80q-59 -176 -260 -176q-153 0 -300 135q-68 64 -116 176q-45 111 -45 248q0 232 144 375q146 143 313 143q168 0 254 -141v154q0 66 -14 108
l-260 -69v84l215 57q-62 53 -215 22v89q214 57 344 52t186 -79l160 43v-84l-123 -33q29 -85 29 -241zM772 285v512q-32 58 -89 102q-59 45 -118 45q-159 0 -157 -321q0 -256 57 -406q57 -149 149 -149q61 0 103 62q43 62 55 155z" />
    <glyph glyph-name="ntilde" unicode="&#xf1;" horiz-adv-x="1308" 
d="M940 1425h100q47 -124 -20 -194q-66 -70 -164 -70q-91 0 -225 61q-136 62 -201 62q-47 0 -65 -30q-17 -30 -7 -50h-94q-41 111 22 183q64 73 183 73q93 0 223 -56t182 -56q39 0 56 26q18 26 10 51zM1145 684v-526q0 -61 133 -76v-82q-292 8 -588 0v82q133 10 133 76v526
q0 217 -139 217q-79 0 -135 -62q-54 -60 -68 -118v-563q0 -66 133 -76v-82q-292 8 -585 0v82q131 14 131 76v573q0 124 -125 98v82q227 49 381 138q46 -20 59 -60l-26 -172h12q40 82 138 157q97 75 239 75q123 0 207 -72q100 -83 100 -293z" />
    <glyph glyph-name="ograve" unicode="&#xf2;" 
d="M537 1440l276 -238l-35 -53l-342 121q-60 22 -83 75q-21 52 9 95q31 41 78 41t97 -41zM580 1044q193 0 354 -143q162 -143 162 -393q0 -129 -47.5 -235.5t-127.5 -170.5q-159 -125 -343 -125q-192 0 -355 143q-162 144 -162 394q0 130 47.5 236.5t126.5 168.5
q157 125 345 125zM612 68q73 0 110.5 89.5t37.5 248.5q0 243 -61 395q-60 153 -154 153q-73 0 -110.5 -88.5t-37.5 -247.5q0 -242 60 -396q61 -154 155 -154z" />
    <glyph glyph-name="oacute" unicode="&#xf3;" 
d="M383 1149l-35 53l277 238q49 41 96 41t78 -41q31 -44 9 -96t-83 -74zM580 1044q193 0 354 -143q162 -143 162 -393q0 -129 -47.5 -235.5t-127.5 -170.5q-159 -125 -343 -125q-192 0 -355 143q-162 144 -162 394q0 130 47.5 236.5t126.5 168.5q157 125 345 125zM612 68
q73 0 110.5 89.5t37.5 248.5q0 243 -61 395q-60 153 -154 153q-73 0 -110.5 -88.5t-37.5 -247.5q0 -242 60 -396q61 -154 155 -154z" />
    <glyph glyph-name="ocircumflex" unicode="&#xf4;" 
d="M555 1466h45l313 -358l-51 -45l-282 225l-285 -225l-53 45zM580 1044q193 0 354 -143q162 -143 162 -393q0 -129 -47.5 -235.5t-127.5 -170.5q-159 -125 -343 -125q-192 0 -355 143q-162 144 -162 394q0 130 47.5 236.5t126.5 168.5q157 125 345 125zM612 68
q73 0 110.5 89.5t37.5 248.5q0 243 -61 395q-60 153 -154 153q-73 0 -110.5 -88.5t-37.5 -247.5q0 -242 60 -396q61 -154 155 -154z" />
    <glyph glyph-name="otilde" unicode="&#xf5;" 
d="M866 1425h101q47 -124 -20 -194q-66 -70 -165 -70q-91 0 -225 61q-136 62 -201 62q-47 0 -65 -30q-17 -29 -6 -50h-95q-41 111 22 183q64 73 183 73q93 0 223 -56q132 -56 183 -56q39 0 56 26q17 27 9 51zM580 1044q193 0 354 -143q162 -143 162 -393
q0 -129 -47.5 -235.5t-127.5 -170.5q-159 -125 -343 -125q-192 0 -355 143q-162 144 -162 394q0 130 47.5 236.5t126.5 168.5q157 125 345 125zM612 68q73 0 110.5 89.5t37.5 248.5q0 243 -61 395q-60 153 -154 153q-73 0 -110.5 -88.5t-37.5 -247.5q0 -242 60 -396
q61 -154 155 -154z" />
    <glyph glyph-name="odieresis" unicode="&#xf6;" 
d="M348 1147q-59 0 -103 44t-44 103t44 103q43 43 103 43q61 0 103 -43q43 -43 43 -103q0 -61 -43 -104q-42 -43 -103 -43zM915 1191q-44 -44 -102 -44q-59 0 -103 44t-44 103t44 103q43 43 103 43q59 0 102 -43t43 -103t-43 -103zM580 1044q193 0 354 -143
q162 -143 162 -393q0 -129 -47.5 -235.5t-127.5 -170.5q-159 -125 -343 -125q-192 0 -355 143q-162 144 -162 394q0 130 47.5 236.5t126.5 168.5q157 125 345 125zM612 68q73 0 110.5 89.5t37.5 248.5q0 243 -61 395q-60 153 -154 153q-73 0 -110.5 -88.5t-37.5 -247.5
q0 -242 60 -396q61 -154 155 -154z" />
    <glyph glyph-name="divide" unicode="&#xf7;" horiz-adv-x="921" 
d="M465 696q-57 0 -96 39t-39 94q0 56 40 95q41 39 95 39q53 0 92 -40q39 -41 39 -94q0 -55 -39 -94t-92 -39zM61 473v117h717v-117h-717zM465 70q-56 0 -96 38q-39 39 -39 94q0 56 40 95q41 39 95 39q53 0 92 -40t39 -93q0 -55 -39 -94t-92 -39z" />
    <glyph glyph-name="oslash" unicode="&#xf8;" 
d="M995 969l-55 -74q156 -150 156 -387q0 -129 -47.5 -235.5t-127.5 -170.5q-159 -125 -343 -125q-140 0 -271 80l-59 -77l-88 65l59 80q-158 152 -158 389q0 130 47.5 236.5t126.5 168.5q157 125 345 125q146 0 276 -81l53 69zM397 618q0 -134 19 -235l295 387
q-61 184 -166 184q-73 0 -110.5 -88.5t-37.5 -247.5zM612 68q73 0 110.5 89.5t37.5 248.5q0 116 -17 229l-294 -389q61 -178 163 -178z" />
    <glyph glyph-name="ugrave" unicode="&#xf9;" horiz-adv-x="1294" 
d="M610 1440l277 -238l-35 -53l-342 121q-60 22 -83 75q-21 52 9 95q31 41 78 41t96 -41zM1130 977v-725q0 -129 134 -143v-86q-154 -1 -385 -52q-45 18 -58 58l19 186h-15q-33 -82 -125 -165t-235 -83q-130 0 -222 85q-93 86 -93 284v530q0 59 -58 62l-61 2v82l377 22
q28 2 45.5 -13t17.5 -44v-623q0 -244 123 -243q76 0 133 68q56 68 82 145v542q0 59 -57 62l-62 2v82l379 22q26 2 43.5 -13.5t17.5 -43.5z" />
    <glyph glyph-name="uacute" unicode="&#xfa;" horiz-adv-x="1294" 
d="M457 1149l-35 53l276 238q49 41 96.5 41t77.5 -41q32 -44 9 -96q-21 -52 -82 -74zM1130 977v-725q0 -129 134 -143v-86q-154 -1 -385 -52q-45 18 -58 58l19 186h-15q-33 -82 -125 -165t-235 -83q-130 0 -222 85q-93 86 -93 284v530q0 59 -58 62l-61 2v82l377 22
q28 2 45.5 -13t17.5 -44v-623q0 -244 123 -243q76 0 133 68q56 68 82 145v542q0 59 -57 62l-62 2v82l379 22q26 2 43.5 -13.5t17.5 -43.5z" />
    <glyph glyph-name="ucircumflex" unicode="&#xfb;" horiz-adv-x="1294" 
d="M629 1466h45l313 -358l-51 -45l-283 225l-284 -225l-54 45zM1130 977v-725q0 -129 134 -143v-86q-154 -1 -385 -52q-45 18 -58 58l19 186h-15q-33 -82 -125 -165t-235 -83q-130 0 -222 85q-93 86 -93 284v530q0 59 -58 62l-61 2v82l377 22q28 2 45.5 -13t17.5 -44v-623
q0 -244 123 -243q76 0 133 68q56 68 82 145v542q0 59 -57 62l-62 2v82l379 22q26 2 43.5 -13.5t17.5 -43.5z" />
    <glyph glyph-name="udieresis" unicode="&#xfc;" horiz-adv-x="1294" 
d="M422 1147q-58 0 -104 44q-44 44 -44 103t44 103q43 43 104 43t103 -43t42 -103t-42 -104q-42 -43 -103 -43zM989 1191q-44 -44 -103 -44t-103 44t-44 103t44 103q43 43 103 43t103 -43t43 -103t-43 -103zM1130 977v-725q0 -129 134 -143v-86q-154 -1 -385 -52
q-45 18 -58 58l19 186h-15q-33 -82 -125 -165t-235 -83q-130 0 -222 85q-93 86 -93 284v530q0 59 -58 62l-61 2v82l377 22q28 2 45.5 -13t17.5 -44v-623q0 -244 123 -243q76 0 133 68q56 68 82 145v542q0 59 -57 62l-62 2v82l379 22q26 2 43.5 -13.5t17.5 -43.5z" />
    <glyph glyph-name="yacute" unicode="&#xfd;" horiz-adv-x="1224" 
d="M756 1270l-342 -121l-35 53l276 238q49 41 96.5 41t77.5 -41q31 -43 9 -95q-21 -53 -82 -75zM764 942v84h430v-84l-68 -4q-34 0 -56 -22q-22 -21 -36 -45q-11 -22 -30 -74l-492 -1237h-123l180 417l-364 824q-32 73 -55.5 104t-53.5 33l-65 4v84h569v-84l-59 -4
q-41 -2 -50.5 -39t15.5 -100l201 -486l196 484q24 66 6.5 101.5t-71.5 39.5z" />
    <glyph glyph-name="thorn" unicode="&#xfe;" horiz-adv-x="1290" 
d="M758 1042q72 0 150 -36t147 -102q71 -66 117 -177q47 -112 47 -244q0 -155 -85 -277q-86 -123 -199 -182q-115 -59 -224 -59q-121 0 -219 98v-180q0 -55 34 -71.5t115 -6.5v-98q-131 -26 -292 -89q-157 -62 -187 -62q-53 0 -53 45q0 19 15 39q46 55 46 196v1254
q0 102 -129 81v91q125 28 247 91q119 62 138 62q36 0 51 -19t15 -61v-399q102 106 266 106zM715 57q158 0 157 355q0 246 -60 387t-150 141q-86 0 -170 -98v-545q18 -105 84 -172q68 -68 139 -68z" />
    <glyph glyph-name="ydieresis" unicode="&#xff;" horiz-adv-x="1224" 
d="M379 1147q-58 0 -104 44q-44 44 -44 103t44 103q43 43 104 43t103 -43t42 -103t-42 -104q-42 -43 -103 -43zM946 1191q-44 -44 -103 -44t-103 44t-44 103t44 103q43 43 103 43t103 -43t43 -103t-43 -103zM764 942v84h430v-84l-68 -4q-34 0 -56 -22q-22 -21 -36 -45
q-11 -22 -30 -74l-492 -1237h-123l180 417l-364 824q-32 73 -55.5 104t-53.5 33l-65 4v84h569v-84l-59 -4q-41 -2 -50.5 -39t15.5 -100l201 -486l196 484q24 66 6.5 101.5t-71.5 39.5z" />
    <glyph glyph-name="Amacron" unicode="&#x100;" horiz-adv-x="1437" 
d="M1024 1438h-610q-39 0 -39 39v94q0 37 39 37h610q39 0 39 -37v-94q0 -39 -39 -39zM819 1282l367 -983q43 -116 90 -163q46 -46 141 -54v-82q-343 8 -684 0v82q96 6 133.5 30t18.5 78l-78 213h-377l-68 -206q-20 -59 36 -85t192 -30v-82q-290 10 -570 0v82q113 8 166 41
q54 33 78 104l361 1055h194zM604 948l-145 -454h313z" />
    <glyph glyph-name="amacron" unicode="&#x101;" horiz-adv-x="1153" 
d="M866 1192h-610q-39 0 -39 39v94q0 37 39 37h610q39 0 39 -37v-94q0 -39 -39 -39zM979 754v-502q0 -130 133 -143v-86q-154 -1 -385 -52q-45 18 -57 58l10 123h-21q-103 -179 -307 -181q-128 0 -214 70q-87 70 -87 205q0 142 132 228t474 159v125q0 118 -29 164
q-28 45 -91 45q-77 0 -108 -51q-33 -51 -34 -109q-2 -59 -36 -110q-33 -50 -113 -50q-135 0 -135 117t145 198q145 82 371 82q80 0 134 -10.5t106 -39.5q112 -60 112 -240zM483 111q109 0 174 161v293q-91 -23 -154.5 -63t-90.5 -88q-41 -78 -41 -144q0 -73 29.5 -116
t82.5 -43z" />
    <glyph glyph-name="Abreve" unicode="&#x102;" horiz-adv-x="1437" 
d="M403 1698h142q10 -44 58.5 -73.5t114.5 -29.5q68 0 116 30q48 29 59 73h141q-8 -141 -96 -213t-219 -72q-130 0 -219 71q-88 72 -97 214zM819 1282l367 -983q43 -116 90 -163q46 -46 141 -54v-82q-343 8 -684 0v82q96 6 133.5 30t18.5 78l-78 213h-377l-68 -206
q-20 -59 36 -85t192 -30v-82q-290 10 -570 0v82q113 8 166 41q54 33 78 104l361 1055h194zM604 948l-145 -454h313z" />
    <glyph glyph-name="abreve" unicode="&#x103;" horiz-adv-x="1153" 
d="M246 1452h141q10 -43 59 -72.5t115 -29.5q67 0 116 29q48 30 58 73h142q-7 -140 -97 -213q-88 -72 -219 -72t-219 72t-96 213zM979 754v-502q0 -130 133 -143v-86q-154 -1 -385 -52q-45 18 -57 58l10 123h-21q-103 -179 -307 -181q-128 0 -214 70q-87 70 -87 205
q0 142 132 228t474 159v125q0 118 -29 164q-28 45 -91 45q-77 0 -108 -51q-33 -51 -34 -109q-2 -59 -36 -110q-33 -50 -113 -50q-135 0 -135 117t145 198q145 82 371 82q80 0 134 -10.5t106 -39.5q112 -60 112 -240zM483 111q109 0 174 161v293q-91 -23 -154.5 -63
t-90.5 -88q-41 -78 -41 -144q0 -73 29.5 -116t82.5 -43z" />
    <glyph glyph-name="Aogonek" unicode="&#x104;" horiz-adv-x="1437" 
d="M815 1282l371 -983q45 -118 91 -159q47 -43 140 -50v-90q-117 14 -207 14q-391 0 -391 -192q0 -46 32.5 -74.5t76.5 -28.5q73 0 125 64l67 -45q-32 -59 -112 -105q-80 -47 -201 -47q-97 0 -168 40q-72 41 -72 134q0 67 47 123t154 123l42 24q23 13 38 24q22 13 36.5 36.5
t10.5 50.5q0 25 -10 49l-92 244h-347l-77 -237q-24 -66 56 -87q39 -10 73 -13l92 -7v-90q-69 4 -283 4t-287 -4v90q113 7 167 38q53 30 77 99l354 1055h197zM606 924l-129 -398h281z" />
    <glyph glyph-name="aogonek" unicode="&#x105;" horiz-adv-x="1153" 
d="M1112 109v-86q-387 -17 -387 -191q0 -53 33 -83t82 -30q69 0 118 64l70 -45q-32 -59 -106 -105q-74 -47 -185 -47q-103 0 -183 45q-79 45 -79 140q0 156 221 219q-20 17 -26 39l10 123h-21q-103 -179 -307 -181q-128 0 -214 70q-87 70 -87 205q0 142 132 228t474 159v125
q0 118 -29 164q-28 45 -91 45q-77 0 -108 -51q-33 -51 -34 -109q-2 -59 -36 -110q-33 -50 -113 -50q-135 0 -135 117t145 198q145 82 371 82q80 0 134 -10.5t106 -39.5q112 -60 112 -240v-502q0 -130 133 -143zM483 111q109 0 174 161v293q-91 -23 -154.5 -63t-90.5 -88
q-41 -78 -41 -144q0 -73 29.5 -116t82.5 -43z" />
    <glyph glyph-name="Cacute" unicode="&#x106;" horiz-adv-x="1304" 
d="M459 1395l-35 53l276 238q49 41 96.5 40.5t77.5 -40.5q32 -44 9 -96q-21 -52 -82 -74zM1153 348h111q-40 -164 -168 -273q-128 -108 -357 -108q-297 0 -482 191q-185 193 -185 491t181 476q181 180 460 180q81 0 179 -27t159 -27q55 0 116 19q11 -189 78 -361h-168
q-135 293 -356 293q-295 0 -295 -487q0 -278 98 -460q99 -181 289 -181q105 0 196 63q93 65 144 211z" />
    <glyph glyph-name="cacute" unicode="&#x107;" horiz-adv-x="1069" 
d="M362 1149l-34 53l276 238q49 41 96.5 41t77.5 -41q32 -44 9 -96q-21 -52 -82 -74zM911 215h88q-112 -238 -387 -238q-227 0 -389 141q-162 142 -162 402q0 250 161 387t376 137q170 0 290 -81q120 -79 120 -203q0 -50 -36 -91q-36 -40 -106 -40q-65 0 -101 37.5t-36 93.5
q0 82 -18 130q-22 64 -101 64q-105 0 -158 -113q-51 -113 -51 -296q0 -132 22 -230t89 -173q66 -72 170 -72q165 0 229 145z" />
    <glyph glyph-name="Ccaron" unicode="&#x10c;" horiz-adv-x="1304" 
d="M989 1671l-313 -358h-45l-314 358l54 45l284 -225l283 225zM1153 348h111q-40 -164 -168 -273q-128 -108 -357 -108q-297 0 -482 191q-185 193 -185 491t181 476q181 180 460 180q81 0 179 -27t159 -27q55 0 116 19q11 -189 78 -361h-168q-135 293 -356 293
q-295 0 -295 -487q0 -278 98 -460q99 -181 289 -181q105 0 196 63q93 65 144 211z" />
    <glyph glyph-name="ccaron" unicode="&#x10d;" horiz-adv-x="1069" 
d="M893 1425l-313 -358h-45l-314 358l53 45l285 -225l283 225zM911 215h88q-112 -238 -387 -238q-227 0 -389 141q-162 142 -162 402q0 250 161 387t376 137q170 0 290 -81q120 -79 120 -203q0 -50 -36 -91q-36 -40 -106 -40q-65 0 -101 37.5t-36 93.5q0 82 -18 130
q-22 64 -101 64q-105 0 -158 -113q-51 -113 -51 -296q0 -132 22 -230t89 -173q66 -72 170 -72q165 0 229 145z" />
    <glyph glyph-name="Dcaron" unicode="&#x10e;" horiz-adv-x="1409" 
d="M1034 1671l-313 -358h-45l-314 358l54 45l284 -225l283 225zM631 1272q696 0 696 -641q0 -163 -49 -285q-50 -124 -116 -187t-154 -102t-147 -48q-58 -9 -109 -9q-40 0 -164 18q-121 19 -219 19q-95 0 -171 -13l-77 -12l-70 -12v82q88 19 118 37q32 20 32 69v904
q0 52 -28 72t-105 26v82q81 -4 186 -4q57 0 205 2t172 2zM647 92q305 0 305 543q0 553 -338 553q-46 0 -77 -4v-1004q-1 -44 26.5 -66t83.5 -22z" />
    <glyph glyph-name="dcaron" unicode="&#x10f;" horiz-adv-x="1443" 
d="M1102 1075v-823q0 -130 133 -143v-86q-161 -1 -383 -52q-43 16 -61 58l14 96h-14q-29 -65 -95 -106.5t-161 -41.5q-168 0 -314 126q-73 65 -116.5 173t-43.5 240q0 126 42 231t113 169q140 128 312 128q100 0 160 -38q34 -17 49 -32q9 -8 33 -32l10 -10v194
q0 62 -30 84.5t-95 12.5v82q240 44 400 137q41 -18 59 -60q-12 -98 -12 -307zM1305 1409q78 0 123 -60q45 -59 45 -151q0 -185 -142 -330q-25 -25 -47 -4l-22 25q76 84 75 186q0 16 -4 25q-17 -4 -37 -4q-70 0 -114 47q-43 46 -43 106q0 67 48 113q49 47 118 47zM780 268
v563q-94 123 -194 123q-91 0 -140 -103q-49 -102 -49 -271q0 -224 64 -368q65 -144 155 -144q61 0 108 65q49 65 56 135z" />
    <glyph glyph-name="Dcroat" unicode="&#x110;" horiz-adv-x="1396" 
d="M625 1272q696 0 696 -641q0 -163 -49 -285q-50 -124 -116 -187t-155 -102t-146 -48q-59 -9 -110 -9q-41 0 -164 18q-118 19 -219 19q-94 0 -170 -13l-77 -12l-70 -12v82q88 19 118 37q32 20 32 69v381h-144v133h144v390q0 52 -29 72t-105 26v82q81 -4 186 -4q58 0 206 2
t172 2zM641 92q305 0 305 543q0 553 -338 553q-47 0 -78 -4v-482h142v-133h-142v-389q0 -88 111 -88z" />
    <glyph glyph-name="dslash" unicode="&#x111;" horiz-adv-x="1275" 
d="M1102 1026v-774q0 -130 133 -143v-86q-161 -1 -383 -52q-43 16 -61 58l14 96h-14q-29 -65 -95 -106.5t-161 -41.5q-168 0 -314 126q-73 65 -116.5 173t-43.5 240q0 126 42 231t113 169q140 128 312 128q70 0 115 -18v66h137v34q0 62 -30 84.5t-95 12.5v82q240 44 400 137
q41 -18 59 -60q-12 -94 -12 -290h117v-66h-117zM780 932v94h-135q61 -22 135 -94zM780 268v563q-94 123 -194 123q-91 0 -140 -103q-49 -102 -49 -271q0 -224 64 -368q65 -144 155 -144q61 0 108 65q49 65 56 135z" />
    <glyph glyph-name="Emacron" unicode="&#x112;" 
d="M877 1438h-611q-39 0 -39 39v94q0 37 39 37h611q20 0 29.5 -9t8.5 -28v-94q0 -39 -38 -39zM1016 377h80q-72 -201 -70 -377q-500 14 -975 0v82q87 6 118.5 27.5t31.5 74.5v924q0 43 -31 59q-33 17 -119 23v82h938q19 0 25 -7t10 -30l37 -256h-78l-25 45q-51 95 -99 130
q-47 34 -165 34h-98q-59 0 -59 -62v-413h196q76 0 111 26q34 27 51 95h63q-14 -174 0 -347h-63q-18 70 -53.5 98.5t-108.5 28.5h-196v-430q0 -52 21 -72t73 -20h22q111 0 170 33q60 33 107 113z" />
    <glyph glyph-name="emacron" unicode="&#x113;" horiz-adv-x="1071" 
d="M223 1231v94q0 37 39 37h610q39 0 39 -37v-94q0 -39 -39 -39h-610q-39 0 -39 39zM901 215h86q-111 -238 -389 -238q-222 0 -380 144q-157 145 -157 393q0 250 152 390t356 140q194 0 318 -122q123 -121 123 -287q0 -81 -30.5 -117.5t-100.5 -36.5h-486q0 -169 63 -291
q64 -120 210 -120q162 0 235 145zM393 565h326q0 200 -35 294.5t-117 94.5q-84 0 -129 -101t-45 -288z" />
    <glyph glyph-name="Edotaccent" unicode="&#x116;" 
d="M688 1421q-46 -49 -117 -49q-69 0 -117 49t-48 119t48 117q49 47 117 47q70 0 117 -47t47 -117q0 -69 -47 -119zM1016 377h80q-72 -201 -70 -377q-500 14 -975 0v82q87 6 118.5 27.5t31.5 74.5v924q0 43 -31 59q-33 17 -119 23v82h938q19 0 25 -7t10 -30l37 -256h-78
l-25 45q-51 95 -99 130q-47 34 -165 34h-98q-59 0 -59 -62v-413h196q76 0 111 26q34 27 51 95h63q-14 -174 0 -347h-63q-18 70 -53.5 98.5t-108.5 28.5h-196v-430q0 -52 21 -72t73 -20h22q111 0 170 33q60 33 107 113z" />
    <glyph glyph-name="edotaccent" unicode="&#x117;" horiz-adv-x="1071" 
d="M684 1175q-46 -49 -117 -49q-69 0 -118 49q-48 49 -48 119t48 117q50 47 118 47q70 0 117 -47t47 -117q0 -69 -47 -119zM901 215h86q-111 -238 -389 -238q-222 0 -380 144q-157 145 -157 393q0 250 152 390t356 140q194 0 318 -122q123 -121 123 -287q0 -81 -30.5 -117.5
t-100.5 -36.5h-486q0 -169 63 -291q64 -120 210 -120q162 0 235 145zM393 565h326q0 200 -35 294.5t-117 94.5q-84 0 -129 -101t-45 -288z" />
    <glyph glyph-name="Eogonek" unicode="&#x118;" 
d="M834 4q-172 -45 -172 -172q0 -49 31.5 -78.5t76.5 -29.5q72 0 125 63l68 -45q-32 -59 -112 -105q-82 -47 -202 -47q-95 0 -168 41q-71 41 -71 140q0 77 71 145q72 66 187 90q-307 1 -617 -6v82q87 6 118.5 27.5t31.5 74.5v924q0 43 -31 59q-33 17 -119 23v82h938
q19 0 25 -7t10 -30l37 -256h-78l-25 45q-51 95 -99 130q-47 34 -165 34h-98q-59 0 -59 -62v-413h196q76 0 111 26q34 27 51 95h63q-14 -174 0 -347h-63q-18 70 -53.5 98.5t-108.5 28.5h-196v-430q0 -52 21 -72t73 -20h22q111 0 170 33q60 33 107 113l86 139h80
q-72 -201 -70 -377q-116 4 -192 4z" />
    <glyph glyph-name="eogonek" unicode="&#x119;" horiz-adv-x="1056" 
d="M666 70q162 0 235 145h86q-76 -166 -246 -217h4l-16 -4q-1 0 -6 -1t-6 -1q-156 -44 -156 -164q0 -49 32 -79t77 -30q73 0 125 64l67 -45q-32 -59 -112 -105q-80 -47 -201 -47q-95 0 -168 41q-72 41 -72 140q0 69 55 128q56 60 148 89q-195 27 -323 167t-128 363
q0 250 152 390t356 140q194 0 318 -122q123 -121 123 -287q0 -81 -30.5 -117.5t-100.5 -36.5h-486q0 -170 64 -291q65 -120 209 -120zM393 565h326q0 200 -35 294.5t-117 94.5q-84 0 -129 -101t-45 -288z" />
    <glyph glyph-name="Ecaron" unicode="&#x11a;" 
d="M905 1671l-313 -358h-45l-314 358l54 45l284 -225l283 225zM1016 377h80q-72 -201 -70 -377q-500 14 -975 0v82q87 6 118.5 27.5t31.5 74.5v924q0 43 -31 59q-33 17 -119 23v82h938q19 0 25 -7t10 -30l37 -256h-78l-25 45q-51 95 -99 130q-47 34 -165 34h-98
q-59 0 -59 -62v-413h196q76 0 111 26q34 27 51 95h63q-14 -174 0 -347h-63q-18 70 -53.5 98.5t-108.5 28.5h-196v-430q0 -52 21 -72t73 -20h22q111 0 170 33q60 33 107 113z" />
    <glyph glyph-name="ecaron" unicode="&#x11b;" horiz-adv-x="1071" 
d="M901 1425l-313 -358h-45l-314 358l54 45l284 -225l283 225zM901 215h86q-111 -238 -389 -238q-222 0 -380 144q-157 145 -157 393q0 250 152 390t356 140q194 0 318 -122q123 -121 123 -287q0 -81 -30.5 -117.5t-100.5 -36.5h-486q0 -169 63 -291q64 -120 210 -120
q162 0 235 145zM393 565h326q0 200 -35 294.5t-117 94.5q-84 0 -129 -101t-45 -288z" />
    <glyph glyph-name="Gcommaaccent" unicode="&#x122;" horiz-adv-x="1409" 
d="M786 528v80q290 -6 582 0v-80l-41 -4q-30 -4 -45.5 -21.5t-22.5 -55.5q-5 -33 -7 -62q-1 -17 -1 -78q0 -179 80 -196v-93q-64 11 -149 13q-108 0 -241 -32t-220 -32q-292 0 -471 182q-178 182 -178 500q0 298 181 476q181 180 460 180q81 0 179 -27t159 -27q55 0 116 19
q11 -189 78 -361h-168q-135 293 -356 293q-295 0 -295 -487q0 -290 91 -465q92 -176 271 -176q100 0 130 56t30 177q0 125 -23 169t-87 48zM729 -662q-25 -25 -47 -4l-23 25q76 83 76 186q0 16 -4 25q-17 -4 -37 -4q-70 0 -114 47q-43 46 -43 106q0 67 48 113q49 47 117 47
q78 0 123 -59q45 -60 45 -152q0 -184 -141 -330z" />
    <glyph glyph-name="gcommaaccent" unicode="&#x123;" horiz-adv-x="1191" 
d="M547 1630q25 25 47 4l22 -24q-76 -84 -75 -187q0 -15 4 -24q17 4 37 4q69 0 113 -47t44 -107q0 -67 -48 -113q-47 -46 -118 -46q-78 0 -123 59q-44 59 -44 151q0 184 141 330zM1032 1040q119 0 119 -118q0 -109 -80 -109q-11 0 -40.5 7t-37.5 7q-32 0 -28 -34
q18 -74 18 -127q0 -164 -127 -260q-128 -95 -321 -95q-73 0 -143 15q-68 16 -77 16q-47 0 -47 -41q0 -29 32 -47t120 -33l221 -35q236 -38 338 -93t102 -175q0 -166 -166 -265q-165 -99 -413 -99q-202 0 -332 71q-129 71 -129 197q0 75 44.5 119.5t117.5 44.5q59 0 96 -31
t37 -86q0 -20 -9 -53q-8 -35 -8 -54q0 -56 56 -92.5t153 -36.5q118 0 204 51q85 49 85 146q0 52 -30.5 82.5t-102.5 44.5l-365 68q-266 45 -266 202q0 71 52 116.5t147 53.5q-80 39 -125 113t-45 166q0 162 127 265t321 103q113 0 185 -33q73 -31 147 -96q44 125 170 125z
M674 676q0 122 -34 200q-35 80 -110 80q-143 0 -143 -280q0 -275 143 -275q144 0 144 275z" />
    <glyph glyph-name="Hbar" unicode="&#x126;" horiz-adv-x="1470" 
d="M1419 1272v-82q-88 -6 -122 -28q-33 -21 -33 -75v-903q0 -52 33 -75q35 -21 122 -27v-82q-323 10 -645 0v82q88 6 121 27q33 23 33 75v408h-387v-408q0 -52 33 -75q35 -21 122 -27v-82q-322 10 -645 0v82q88 6 121 27q33 23 33 75v903q0 53 -33 75q-32 22 -121 28v82
q323 -10 645 0v-82q-88 -6 -122 -28q-33 -21 -33 -75v-172h387v172q0 53 -33 75q-32 22 -121 28v82q324 -10 645 0zM541 821v-137h387v137h-387z" />
    <glyph glyph-name="hbar" unicode="&#x127;" horiz-adv-x="1314" 
d="M1151 684v-526q0 -61 133 -76v-82q-291 8 -588 0v82q135 10 135 76v526q0 217 -141 217q-80 0 -134 -61q-53 -59 -67 -119v-563q0 -61 132 -76v-82q-289 6 -580 0v82q127 13 127 76v843h-127v70h127v55q0 62 -30.5 84.5t-96.5 12.5v82q242 44 399 137q42 -17 62 -60
q-11 -93 -13 -307v-4h146v-70h-146v-57l-24 -127q45 86 140 158q98 74 239 74q124 0 208 -72q99 -84 99 -293z" />
    <glyph glyph-name="Imacron" unicode="&#x12a;" horiz-adv-x="747" 
d="M31 1477v94q0 37 39 37h610q39 0 39 -37v-94q0 -39 -39 -39h-610q-39 0 -39 39zM541 1087v-903q0 -52 33 -75q35 -21 122 -27v-82q-322 10 -645 0v82q88 6 121 27q33 23 33 75v903q0 53 -33 75q-32 22 -121 28v82q323 -10 645 0v-82q-88 -6 -122 -28q-33 -21 -33 -75z
" />
    <glyph glyph-name="imacron" unicode="&#x12b;" horiz-adv-x="661" 
d="M-10 1231v94q0 37 39 37h610q39 0 39 -37v-94q0 -39 -39 -39h-610q-39 0 -39 39zM489 680v-522q0 -61 132 -76v-82q-289 6 -580 0v82q127 13 127 76v573q0 62 -30.5 84.5t-96.5 11.5v82q240 43 399 138q42 -17 62 -60q-11 -93 -13 -307z" />
    <glyph glyph-name="Iogonek" unicode="&#x12e;" horiz-adv-x="747" 
d="M696 1272v-82q-88 -6 -122 -28q-33 -21 -33 -75v-903q0 -52 33 -75q35 -21 122 -27v-82q-10 0 -92 2t-92 2q-170 -47 -170 -172q0 -49 32 -78.5t77 -29.5q71 0 124 63l68 -45q-32 -59 -112 -105q-80 -47 -201 -47q-95 0 -168 41q-72 41 -72 140q0 76 68 141q70 65 180 92
q-119 0 -287 -4v82q88 6 121 27q33 23 33 75v903q0 53 -33 75q-32 22 -121 28v82q323 -10 645 0z" />
    <glyph glyph-name="iogonek" unicode="&#x12f;" horiz-adv-x="665" 
d="M450 1175q-46 -49 -117 -49q-69 0 -117 49t-48 119t48 117q49 47 117 47q70 0 117 -47q48 -47 48 -117t-48 -119zM455 2q-152 -47 -152 -166q0 -49 32 -78.5t77 -29.5q72 0 125 63l67 -45q-32 -59 -112 -105q-80 -47 -201 -47q-95 0 -168 41q-72 41 -72 140q0 71 62 135
q64 64 166 92q-134 0 -238 -2v82q127 13 127 76v573q0 62 -30.5 84.5t-96.5 11.5v82q240 43 399 138q42 -17 62 -60q-11 -93 -13 -307v-522q0 -61 132 -76v-82q-74 2 -166 2z" />
    <glyph glyph-name="dotlessi" unicode="&#x131;" horiz-adv-x="661" 
d="M489 680v-522q0 -61 132 -76v-82q-289 6 -580 0v82q127 13 127 76v573q0 62 -30.5 84.5t-96.5 11.5v82q240 43 399 138q42 -17 62 -60q-11 -93 -13 -307z" />
    <glyph glyph-name="IJ" unicode="&#x132;" horiz-adv-x="1509" 
d="M541 1087v-903q0 -52 33 -75q35 -21 122 -27v-82q-322 10 -645 0v82q88 6 121 27q33 23 33 75v903q0 53 -33 75q-32 22 -121 28v82q323 -10 645 0v-82q-88 -6 -122 -28q-33 -21 -33 -75zM813 1190v82q323 -10 645 0v-82q-89 -6 -121 -28q-32 -21 -32 -75v-796
q0 -352 -153 -502q-152 -151 -456 -151v90q272 16 273 393v966q0 53 -34 75t-122 28z" />
    <glyph glyph-name="ij" unicode="&#x133;" horiz-adv-x="1249" 
d="M440 1196q-46 -49 -117 -49q-69 0 -118 49t-49 118q0 71 49 117q49 48 118 48q71 0 117 -48q47 -47 47 -117q0 -68 -47 -118zM1067 1196q-46 -49 -117 -49q-70 0 -119 49t-49 118q0 71 49 117q49 48 119 48t117 -48q47 -47 47 -117q0 -68 -47 -118zM489 680v-522
q0 -61 132 -76v-82q-289 6 -580 0v82q127 13 127 76v573q0 65 -30.5 87t-96.5 11v82q240 43 399 138q42 -17 62 -60q-11 -93 -13 -309zM1067 1049q42 -18 59 -60q-12 -97 -12 -309v-500q0 -333 -144 -478q-143 -146 -425 -146l-13 94q134 12 199 90q64 77 64 272v719
q0 65 -30.5 87t-96.5 11v82q238 43 399 138z" />
    <glyph glyph-name="Kcommaaccent" unicode="&#x136;" horiz-adv-x="1447" 
d="M788 737l310 -420q90 -127 163 -192q73 -63 156 -70l-76 -90q-77 0 -118 4q-51 5 -117 23q-142 35 -250 182l-256 354l-70 -77v-267q0 -53 34 -75q35 -21 122 -27v-82q-322 10 -645 0v82q88 6 121 27q33 23 33 75v903q0 53 -33 75q-32 22 -121 28v82q323 -10 645 0v-82
q-88 -6 -122 -28q-34 -21 -34 -75v-485l390 424q58 74 30.5 115t-131.5 49v82q253 -8 510 0v-82q-85 -6 -140 -41q-54 -35 -120 -102zM721 -121q78 0 123 -59q45 -60 45 -152q0 -184 -141 -330q-25 -25 -48 -4l-22 25q76 83 76 186q0 16 -4 25q-17 -4 -37 -4q-70 0 -114 47
t-44 106q0 67 48 113q49 47 118 47z" />
    <glyph glyph-name="kcommaaccent" unicode="&#x137;" horiz-adv-x="1234" 
d="M682 616l287 -383q124 -165 245 -178l-75 -90q-69 0 -106 3q-39 3 -103 18q-119 27 -217 153l-224 281v-262q0 -61 132 -76v-82q-289 6 -580 0v82q127 13 127 76v968q0 62 -30.5 84.5t-96.5 12.5v82q242 44 399 137q42 -17 62 -60q-11 -93 -13 -307v-506q152 113 242 258
q25 39 -0.5 67t-91.5 34v98q250 -7 502 0v-98q-41 -5 -75 -19q-37 -14 -59 -30q-23 -15 -63 -48zM608 -121q78 0 123 -59q45 -60 45 -152q0 -184 -141 -330q-25 -25 -47 -4l-23 25q76 83 76 186q0 16 -4 25q-17 -4 -37 -4q-70 0 -114 47t-44 106q0 67 48 113q49 47 118 47z
" />
    <glyph glyph-name="Lacute" unicode="&#x139;" horiz-adv-x="1140" 
d="M436 1395l-35 53l277 238q49 41 96 40.5t78 -40.5q32 -44 9 -96q-20 -51 -83 -74zM934 238l86 139h80q-72 -201 -70 -377q-500 14 -975 0v82q87 6 118.5 27.5t31.5 74.5v903q0 53 -33 75q-32 22 -121 28v82q323 -10 645 0v-82q-88 -6 -122 -28q-33 -21 -33 -75v-903
q0 -52 21 -72t73 -20h22q111 0 170 33q60 33 107 113z" />
    <glyph glyph-name="lacute" unicode="&#x13a;" horiz-adv-x="661" 
d="M135 1427l-35 54l277 237q49 41 96 41t78 -41q31 -43 9 -95q-21 -52 -83 -75zM489 1075v-917q0 -61 132 -76v-82q-289 6 -580 0v82q127 13 127 76v968q0 62 -30.5 84.5t-96.5 12.5v82q242 44 399 137q42 -17 62 -60q-11 -93 -13 -307z" />
    <glyph glyph-name="Lcommaaccent" unicode="&#x13b;" horiz-adv-x="1140" 
d="M934 238l86 139h80q-72 -201 -70 -377q-500 14 -975 0v82q87 6 118.5 27.5t31.5 74.5v903q0 53 -33 75q-32 22 -121 28v82q323 -10 645 0v-82q-88 -6 -122 -28q-33 -21 -33 -75v-903q0 -52 21 -72t73 -20h22q111 0 170 33q60 33 107 113zM627 -662q-25 -25 -47 -4l-23 25
q76 83 76 186q0 16 -4 25q-17 -4 -37 -4q-70 0 -114 47t-44 106q0 67 48 113q49 47 118 47q78 0 123 -59q45 -60 45 -152q0 -184 -141 -330z" />
    <glyph glyph-name="lcommaaccent" unicode="&#x13c;" horiz-adv-x="661" 
d="M489 1075v-917q0 -61 132 -76v-82q-289 6 -580 0v82q127 13 127 76v968q0 62 -30.5 84.5t-96.5 12.5v82q242 44 399 137q42 -17 62 -60q-11 -93 -13 -307zM326 -662q-25 -25 -47 -4l-23 25q76 83 76 186q0 16 -4 25q-17 -4 -37 -4q-70 0 -114 47t-44 106q0 67 48 113
q49 47 118 47q78 0 123 -59q45 -60 45 -152q0 -184 -141 -330z" />
    <glyph glyph-name="Lcaron" unicode="&#x13d;" horiz-adv-x="1179" 
d="M987 737q-25 -25 -47 -4l-22 25q76 84 75 186q0 16 -4 25q-17 -4 -37 -4q-70 0 -114 47q-43 46 -43 106q0 66 48 113q49 47 118 47q79 0 122 -60q45 -58 45 -151q0 -185 -141 -330zM934 238l86 139h80q-72 -201 -70 -377q-500 14 -975 0v82q87 6 118.5 27.5t31.5 74.5
v903q0 53 -33 75q-32 22 -121 28v82q323 -10 645 0v-82q-88 -6 -122 -28q-33 -21 -33 -75v-903q0 -52 21 -72t73 -20h22q111 0 170 33q60 33 107 113z" />
    <glyph glyph-name="lcaron" unicode="&#x13e;" horiz-adv-x="817" 
d="M489 1075v-917q0 -61 132 -76v-82q-289 6 -580 0v82q127 13 127 76v968q0 62 -30.5 84.5t-96.5 12.5v82q242 44 399 137q42 -17 62 -60q-11 -93 -13 -307zM707 848q-25 -25 -48 -4l-22 24q76 83 76 187q0 15 -4 24q-17 -4 -37 -4q-70 0 -114 47t-44 107q0 67 48 113
q49 47 118 47q78 0 123 -60q45 -59 45 -151q0 -184 -141 -330z" />
    <glyph glyph-name="Ldot" unicode="&#x13f;" horiz-adv-x="1140" 
d="M934 238l86 139h80q-72 -201 -70 -377q-500 14 -975 0v82q87 6 118.5 27.5t31.5 74.5v903q0 53 -33 75q-32 22 -121 28v82q323 -10 645 0v-82q-88 -6 -122 -28q-33 -21 -33 -75v-903q0 -52 21 -72t73 -20h22q111 0 170 33q60 33 107 113zM952 703q-45 -46 -109 -46
q-63 0 -108 46q-45 47 -45 110q0 64 45 109t108 45q64 0 109 -45t45 -109q0 -63 -45 -110z" />
    <glyph glyph-name="ldot" unicode="&#x140;" horiz-adv-x="884" 
d="M489 1075v-917q0 -61 132 -76v-82q-289 6 -580 0v82q127 13 127 76v968q0 62 -30.5 84.5t-96.5 12.5v82q242 44 399 137q42 -17 62 -60q-11 -93 -13 -307zM780 699q-45 -46 -109 -46q-63 0 -108 46q-45 47 -45 109q0 64 45 109q45 46 108 46q64 0 109 -46q45 -45 45 -109
q0 -62 -45 -109z" />
    <glyph glyph-name="Lslash" unicode="&#x141;" horiz-adv-x="1179" 
d="M1061 377h80q-72 -201 -70 -377q-499 14 -975 0v82q87 6 118.5 27.5t31.5 74.5v326l-215 -66v97l215 65v481q0 53 -33 75q-32 22 -121 28v82q324 -10 645 0v-82q-88 -6 -122 -28q-33 -21 -33 -75v-378l256 77v-98l-256 -78v-426q0 -52 21 -72t73 -20h22q112 0 170 33
q60 33 107 113z" />
    <glyph glyph-name="lslash" unicode="&#x142;" horiz-adv-x="636" 
d="M616 782v-98l-141 -43v-483q0 -61 131 -76v-82q-291 6 -579 0v82q127 13 127 76v387l-134 -39v98l134 39v483q0 62 -30.5 84.5t-96.5 12.5v82q242 44 399 137q43 -18 61 -60q-12 -98 -12 -307v-336z" />
    <glyph glyph-name="Nacute" unicode="&#x143;" horiz-adv-x="1404" 
d="M506 1395l-35 53l277 238q49 41 96 40.5t78 -40.5q32 -44 9 -96q-22 -52 -83 -74zM807 1190v82q301 -10 567 0v-82q-217 -19 -217 -137v-1053h-104l-701 981v-760q0 -67 61.5 -98.5t186.5 -40.5v-82q-307 10 -569 0v82q215 20 215 139v793q0 79 -51.5 124.5t-141.5 51.5
v82q244 -10 490 0l508 -715v496q0 119 -244 137z" />
    <glyph glyph-name="nacute" unicode="&#x144;" horiz-adv-x="1308" 
d="M457 1149l-35 53l276 238q49 41 96.5 41t77.5 -41q32 -44 9 -96q-21 -52 -82 -74zM1145 684v-526q0 -61 133 -76v-82q-292 8 -588 0v82q133 10 133 76v526q0 217 -139 217q-79 0 -135 -62q-54 -60 -68 -118v-563q0 -66 133 -76v-82q-292 8 -585 0v82q131 14 131 76v573
q0 124 -125 98v82q227 49 381 138q46 -20 59 -60l-26 -172h12q40 82 138 157q97 75 239 75q123 0 207 -72q100 -83 100 -293z" />
    <glyph glyph-name="Ncommaaccent" unicode="&#x145;" horiz-adv-x="1404" 
d="M807 1190v82q301 -10 567 0v-82q-217 -19 -217 -137v-1053h-104l-701 981v-760q0 -67 61.5 -98.5t186.5 -40.5v-82q-307 10 -569 0v82q215 20 215 139v793q0 79 -51.5 124.5t-141.5 51.5v82q244 -10 490 0l508 -715v496q0 119 -244 137zM696 -662q-25 -25 -47 -4l-22 25
q77 84 75 186q0 16 -4 25q-17 -4 -36 -4q-70 0 -114 47t-44 106q0 67 48 113q49 47 118 47q78 0 123 -59q45 -60 45 -152q-2 -185 -142 -330z" />
    <glyph glyph-name="ncommaaccent" unicode="&#x146;" horiz-adv-x="1308" 
d="M1145 684v-526q0 -61 133 -76v-82q-292 8 -588 0v82q133 10 133 76v526q0 217 -139 217q-79 0 -135 -62q-54 -60 -68 -118v-563q0 -66 133 -76v-82q-292 8 -585 0v82q131 14 131 76v573q0 124 -125 98v82q227 49 381 138q46 -20 59 -60l-26 -172h12q40 82 138 157
q97 75 239 75q123 0 207 -72q100 -83 100 -293zM647 -662q-25 -25 -47 -4l-22 25q76 84 75 186q0 16 -4 25q-17 -4 -37 -4q-70 0 -114 47q-43 46 -43 106q0 67 48 113q49 47 118 47q78 0 122 -59q45 -60 45 -152q0 -184 -141 -330z" />
    <glyph glyph-name="Ncaron" unicode="&#x147;" horiz-adv-x="1404" 
d="M1036 1671l-313 -358h-45l-313 358l53 45l284 -225l283 225zM807 1190v82q301 -10 567 0v-82q-217 -19 -217 -137v-1053h-104l-701 981v-760q0 -67 61.5 -98.5t186.5 -40.5v-82q-307 10 -569 0v82q215 20 215 139v793q0 79 -51.5 124.5t-141.5 51.5v82q244 -10 490 0
l508 -715v496q0 119 -244 137z" />
    <glyph glyph-name="ncaron" unicode="&#x148;" horiz-adv-x="1308" 
d="M987 1425l-313 -358h-45l-314 358l54 45l284 -225l283 225zM1145 684v-526q0 -61 133 -76v-82q-292 8 -588 0v82q133 10 133 76v526q0 217 -139 217q-79 0 -135 -62q-54 -60 -68 -118v-563q0 -66 133 -76v-82q-292 8 -585 0v82q131 14 131 76v573q0 124 -125 98v82
q227 49 381 138q46 -20 59 -60l-26 -172h12q40 82 138 157q97 75 239 75q123 0 207 -72q100 -83 100 -293z" />
    <glyph glyph-name="Eng" unicode="&#x14a;" horiz-adv-x="1398" 
d="M807 1190v82q301 -10 567 0v-82q-217 -19 -217 -137v-1053h-4q0 -178 -132 -270q-133 -92 -421 -92v88q41 0 71 2q23 2 57 15q35 14 49 41q40 70 40 216v330l-465 651v-760q0 -67 61.5 -98.5t186.5 -40.5v-82q-307 10 -569 0v82q215 20 215 139v793q0 79 -51.5 124.5
t-141.5 51.5v82q244 -10 490 0l508 -715v496q0 119 -244 137z" />
    <glyph glyph-name="eng" unicode="&#x14b;" horiz-adv-x="1267" 
d="M836 1049q121 0 208 -72q101 -82 101 -293v-504q0 -333 -144 -478q-143 -146 -428 -146l-10 94q133 12 196 90q64 77 64 272v672q0 219 -141 219q-80 0 -134 -62q-53 -61 -67 -120v-563q0 -66 133 -76v-82q-292 8 -585 0v82q131 14 131 76v573q0 122 -125 96v82
q227 49 381 138q46 -20 59 -60l-26 -170h12q40 81 137 157q98 75 238 75z" />
    <glyph glyph-name="Omacron" unicode="&#x14c;" horiz-adv-x="1398" 
d="M356 1477v94q0 37 39 37h611q20 0 29.5 -9t8.5 -28v-94q0 -39 -38 -39h-611q-39 0 -39 39zM700 1305q275 0 450 -184q177 -183 177 -496q0 -287 -180 -473q-180 -185 -449 -185q-272 0 -449 184q-177 185 -177 496q0 288 180 472q180 186 448 186zM737 68
q113 0 174.5 132t61.5 373q0 267 -84 449t-221 182q-115 0 -179 -133q-63 -133 -63 -375q0 -269 85 -448q85 -180 226 -180z" />
    <glyph glyph-name="omacron" unicode="&#x14d;" 
d="M236 1231v94q0 37 38 37h611q39 0 39 -37v-94q0 -39 -39 -39h-611q-40 0 -38 39zM580 1044q193 0 354 -143q162 -143 162 -393q0 -129 -47.5 -235.5t-127.5 -170.5q-159 -125 -343 -125q-192 0 -355 143q-162 144 -162 394q0 130 47.5 236.5t126.5 168.5q157 125 345 125
zM612 68q73 0 110.5 89.5t37.5 248.5q0 243 -61 395q-60 153 -154 153q-73 0 -110.5 -88.5t-37.5 -247.5q0 -242 60 -396q61 -154 155 -154z" />
    <glyph glyph-name="Ohungarumlaut" unicode="&#x150;" horiz-adv-x="1398" 
d="M393 1395l-33 53l252 238q45 41 86.5 40.5t71.5 -40.5q27 -43 7 -96q-19 -51 -75 -74zM762 1395l-33 53l252 238q45 41 86.5 40.5t71.5 -40.5q27 -43 7 -96q-19 -51 -75 -74zM700 1305q275 0 450 -184q177 -183 177 -496q0 -287 -180 -473q-180 -185 -449 -185
q-272 0 -449 184q-177 185 -177 496q0 288 180 472q180 186 448 186zM737 68q113 0 174.5 132t61.5 373q0 267 -84 449t-221 182q-115 0 -179 -133q-63 -133 -63 -375q0 -269 85 -448q85 -180 226 -180z" />
    <glyph glyph-name="ohungarumlaut" unicode="&#x151;" 
d="M272 1149l-32 53l252 238q45 41 88 41t69 -41q27 -43 7 -96q-19 -52 -74 -74zM641 1149l-33 53l252 238q45 41 88 41t70 -41q27 -43 7 -96q-19 -51 -75 -74zM580 1044q193 0 354 -143q162 -143 162 -393q0 -129 -47.5 -235.5t-127.5 -170.5q-159 -125 -343 -125
q-192 0 -355 143q-162 144 -162 394q0 130 47.5 236.5t126.5 168.5q157 125 345 125zM612 68q73 0 110.5 89.5t37.5 248.5q0 243 -61 395q-60 153 -154 153q-73 0 -110.5 -88.5t-37.5 -247.5q0 -242 60 -396q61 -154 155 -154z" />
    <glyph glyph-name="OE" unicode="&#x152;" horiz-adv-x="1998" 
d="M1858 377h79q-72 -203 -69 -377q-498 13 -967 0q-109 -33 -182 -33q-299 0 -473 184t-174 502q0 294 182 473t430 179q84 0 215 -33h932q19 0 25 -7t10 -30l37 -256h-78l-25 45q-51 95 -99 130q-47 34 -165 34h-98q-58 0 -60 -62v-413h197q75 0 110 26q36 28 52 95h63
q-13 -172 0 -347h-63q-18 70 -53.5 98.5t-108.5 28.5h-197v-430q0 -52 21 -72t74 -20h22q111 0 170 33t107 113zM426 684q0 -161 31 -292q32 -134 107 -229t184 -95q185 0 294 202v664q-48 132 -138 201t-202 69q-139 0 -208 -139q-68 -141 -68 -381z" />
    <glyph glyph-name="oe" unicode="&#x153;" horiz-adv-x="1767" 
d="M1378 70q163 0 236 145h86q-111 -238 -389 -238q-223 0 -375 140q-146 -138 -358 -140q-192 0 -355 143q-162 144 -162 394q0 130 47.5 236.5t126.5 168.5q157 125 345 125q199 0 348 -137q143 137 354 137q195 0 317 -122q123 -121 123 -287q0 -81 -30 -117.5
t-101 -36.5h-485q0 -169 63 -291q65 -120 209 -120zM612 68q73 0 110.5 89.5t37.5 248.5q0 243 -61 395q-60 153 -154 153q-73 0 -110.5 -88.5t-37.5 -247.5q0 -242 60 -396q61 -154 155 -154zM1106 565h326q0 200 -35 294.5t-117 94.5q-84 0 -129 -101t-45 -288z" />
    <glyph glyph-name="Racute" unicode="&#x154;" horiz-adv-x="1359" 
d="M836 1516l-342 -121l-35 53l276 238q49 41 96.5 40.5t77.5 -40.5q31 -43 9 -95q-21 -53 -82 -75zM862 537l142 -189q103 -138 172 -200q72 -63 153 -74l-55 -90q-42 0 -76 2q-14 1 -80 8q-53 6 -94 23q-26 12 -90 44q-99 52 -191 183l-165 233h-3l-38 -4v-289
q0 -53 31 -75q32 -21 120 -27v-82q-319 7 -637 0v82q87 6 118.5 27.5t31.5 74.5v934q0 48 -45 62q-15 4 -88 10v82q81 -4 192 -4q67 0 197 2q24 0 55 0.5t48 1t26 0.5q334 0 478 -93q144 -91 144 -266q0 -270 -346 -376zM645 1188h-108v-621l30 2q330 23 330 330
q0 131 -63 210q-61 79 -189 79z" />
    <glyph glyph-name="racute" unicode="&#x155;" horiz-adv-x="995" 
d="M305 1149l-35 53l277 238q49 41 96 41t78 -41q31 -44 9 -96q-20 -51 -83 -74zM786 1049q85 0 137 -43.5t52 -118.5q0 -62 -38 -97q-37 -34 -87 -34q-44 0 -106 41q-61 41 -101 41q-47 0 -84 -39q-52 -55 -70 -144v-497q0 -61 138 -76v-82q-293 6 -586 0v82q127 13 127 76
v573q0 123 -127 98v82q219 47 381 138q41 -18 59 -60l-41 -233h17q119 293 329 293z" />
    <glyph glyph-name="Rcommaaccent" unicode="&#x156;" horiz-adv-x="1359" 
d="M862 537l142 -189q103 -138 172 -200q72 -63 153 -74l-55 -90q-42 0 -76 2q-14 1 -80 8q-53 6 -94 23q-26 12 -90 44q-99 52 -191 183l-165 233h-3l-38 -4v-289q0 -53 31 -75q32 -21 120 -27v-82q-319 7 -637 0v82q87 6 118.5 27.5t31.5 74.5v934q0 48 -45 62
q-15 4 -88 10v82q81 -4 192 -4q67 0 197 2q24 0 55 0.5t48 1t26 0.5q334 0 478 -93q144 -91 144 -266q0 -270 -346 -376zM645 1188h-108v-621l30 2q330 23 330 330q0 131 -63 210q-61 79 -189 79zM657 -121q78 0 123 -59q45 -60 45 -152q0 -184 -141 -330q-25 -25 -47 -4
l-23 25q76 83 76 186q0 16 -4 25q-17 -4 -37 -4q-70 0 -114 47q-43 46 -43 106q0 66 47 113q49 47 118 47z" />
    <glyph glyph-name="rcommaaccent" unicode="&#x157;" horiz-adv-x="995" 
d="M786 1049q85 0 137 -43.5t52 -118.5q0 -62 -38 -97q-37 -34 -87 -34q-44 0 -106 41q-61 41 -101 41q-47 0 -84 -39q-52 -55 -70 -144v-497q0 -61 138 -76v-82q-293 6 -586 0v82q127 13 127 76v573q0 123 -127 98v82q219 47 381 138q41 -18 59 -60l-41 -233h17
q119 293 329 293zM322 -662q-25 -25 -48 -4l-22 25q76 83 76 186q0 16 -4 25q-17 -4 -37 -4q-70 0 -114 47t-44 106q0 67 48 113q49 47 118 47q78 0 123 -59q45 -60 45 -152q0 -184 -141 -330z" />
    <glyph glyph-name="Rcaron" unicode="&#x158;" horiz-adv-x="1359" 
d="M1024 1671l-313 -358h-45l-314 358l54 45l284 -225l283 225zM862 537l142 -189q103 -138 172 -200q72 -63 153 -74l-55 -90q-42 0 -76 2q-14 1 -80 8q-53 6 -94 23q-26 12 -90 44q-99 52 -191 183l-165 233h-3l-38 -4v-289q0 -53 31 -75q32 -21 120 -27v-82
q-319 7 -637 0v82q87 6 118.5 27.5t31.5 74.5v934q0 48 -45 62q-15 4 -88 10v82q81 -4 192 -4q67 0 197 2q24 0 55 0.5t48 1t26 0.5q334 0 478 -93q144 -91 144 -266q0 -270 -346 -376zM645 1188h-108v-621l30 2q330 23 330 330q0 131 -63 210q-61 79 -189 79z" />
    <glyph glyph-name="rcaron" unicode="&#x159;" horiz-adv-x="995" 
d="M836 1425l-314 -358h-45l-313 358l53 45l285 -225l282 225zM786 1049q85 0 137 -43.5t52 -118.5q0 -62 -38 -97q-37 -34 -87 -34q-44 0 -106 41q-61 41 -101 41q-47 0 -84 -39q-52 -55 -70 -144v-497q0 -61 138 -76v-82q-293 6 -586 0v82q127 13 127 76v573
q0 123 -127 98v82q219 47 381 138q41 -18 59 -60l-41 -233h17q119 293 329 293z" />
    <glyph glyph-name="Sacute" unicode="&#x15a;" horiz-adv-x="1056" 
d="M336 1395l-35 53l277 238q49 41 96 40.5t78 -40.5q32 -44 9 -96q-22 -52 -83 -74zM688 250q0 76 -54 138q-53 62 -200 136q-94 48 -137 77q-60 40 -112 86q-115 103 -115 263q0 165 116 260q118 95 289 95q80 0 166 -26t98 -26q43 0 49 35h97l18 -307h-78
q-103 225 -280 225q-83 0 -129 -45q-47 -45 -47 -110q0 -74 54 -129t175 -111q175 -84 244 -137q164 -128 164 -318q0 -130 -74 -222q-135 -165 -373 -165q-95 0 -192 45t-125 45q-31 0 -50.5 -18t-23.5 -41h-94l-23 324h94q53 -123 153 -186q101 -62 200 -62q87 0 138.5 47
t51.5 127z" />
    <glyph glyph-name="sacute" unicode="&#x15b;" horiz-adv-x="923" 
d="M254 1149l-35 53l277 238q49 41 96 41t78 -41q32 -44 9 -96q-22 -52 -83 -74zM872 287q0 -139 -114 -228q-112 -88 -254 -88q-85 0 -178 40q-92 40 -103 40q-35 0 -35 -51h-94l-26 293h73q35 -104 138 -170q104 -66 194 -66q60 0 95.5 33t35.5 90q0 66 -46 105
q-46 38 -142 82q-175 79 -244 139q-111 98 -111 235q0 136 97 218q98 83 248 83q74 0 152 -29q75 -28 93 -28q45 0 54 41h83l19 -293h-70q-52 118 -130 171q-76 52 -152 52q-65 0 -101.5 -33t-36.5 -89q0 -57 43 -97.5t134 -79.5l8 -4t18.5 -8.5t23.5 -10.5l61 -27
q20 -9 61 -32q43 -24 63 -40q20 -15 54 -47q31 -28 48 -57q41 -66 41 -144z" />
    <glyph glyph-name="Scedilla" unicode="&#x15e;" horiz-adv-x="1056" 
d="M1006 356q0 -128 -72 -220q-128 -162 -365 -167l-8 -28q47 -13 78 -27q14 -6 76 -37q92 -49 92 -129q0 -74 -83 -116q-82 -42 -183 -42q-105 0 -173 35q-67 34 -67 103q0 33 22 53t56 20q40 0 60 -23t19 -54q-1 -33 20 -55.5t65 -22.5q82 0 82 84q0 88 -144 125
q-49 12 -49 43q0 18 39 82q-56 11 -126 44q-75 35 -103 35q-31 0 -50.5 -18t-23.5 -41h-94l-23 324h94q53 -123 153 -186q101 -62 200 -62q87 0 138.5 47t51.5 127q0 76 -54 138q-53 62 -200 136q-94 48 -137 77q-60 40 -112 86q-115 103 -115 263q0 165 116 260
q118 95 289 95q80 0 166 -26t98 -26q43 0 49 35h97l18 -307h-78q-103 225 -280 225q-83 0 -129 -45q-47 -45 -47 -110q0 -74 54 -129t175 -111q175 -84 244 -137q164 -128 164 -318z" />
    <glyph glyph-name="scedilla" unicode="&#x15f;" horiz-adv-x="923" 
d="M504 -29h-17l-8 -30q47 -13 78 -27q14 -6 76 -37q92 -49 92 -129q0 -74 -83 -116q-82 -42 -183 -42q-105 0 -173 35q-67 34 -67 103q0 33 22 53t56 20q40 0 60 -23t19 -54q-1 -33 20 -55.5t65 -22.5q82 0 82 84q0 88 -144 125q-49 12 -49 43q0 20 43 90q-46 14 -97 37
q-57 26 -73 26q-35 0 -35 -51h-94l-26 293h73q35 -104 138 -170q104 -66 194 -66q60 0 95.5 33t35.5 90q0 66 -46 105q-46 38 -142 82q-175 79 -244 139q-111 98 -111 235q0 136 97 218q98 83 248 83q74 0 152 -29q75 -28 93 -28q45 0 54 41h83l19 -293h-70
q-52 118 -130 171q-76 52 -152 52q-65 0 -101.5 -33t-36.5 -89q0 -57 43 -97.5t134 -79.5l8 -4t18.5 -8.5t23.5 -10.5l61 -27q20 -9 61 -32q43 -24 63 -40q20 -15 54 -47q31 -28 48 -57q41 -66 41 -144q0 -139 -114 -228q-112 -88 -254 -88z" />
    <glyph glyph-name="Scaron" unicode="&#x160;" horiz-adv-x="1056" 
d="M866 1671l-313 -358h-45l-313 358l53 45l284 -225l283 225zM688 250q0 76 -54 138q-53 62 -200 136q-94 48 -137 77q-60 40 -112 86q-115 103 -115 263q0 165 116 260q118 95 289 95q80 0 166 -26t98 -26q43 0 49 35h97l18 -307h-78q-103 225 -280 225q-83 0 -129 -45
q-47 -45 -47 -110q0 -74 54 -129t175 -111q175 -84 244 -137q164 -128 164 -318q0 -130 -74 -222q-135 -165 -373 -165q-95 0 -192 45t-125 45q-31 0 -50.5 -18t-23.5 -41h-94l-23 324h94q53 -123 153 -186q101 -62 200 -62q87 0 138.5 47t51.5 127z" />
    <glyph glyph-name="scaron" unicode="&#x161;" horiz-adv-x="923" 
d="M784 1425l-313 -358h-45l-313 358l53 45l285 -225l282 225zM872 287q0 -139 -114 -228q-112 -88 -254 -88q-85 0 -178 40q-92 40 -103 40q-35 0 -35 -51h-94l-26 293h73q35 -104 138 -170q104 -66 194 -66q60 0 95.5 33t35.5 90q0 66 -46 105q-46 38 -142 82
q-175 79 -244 139q-111 98 -111 235q0 136 97 218q98 83 248 83q74 0 152 -29q75 -28 93 -28q45 0 54 41h83l19 -293h-70q-52 118 -130 171q-76 52 -152 52q-65 0 -101.5 -33t-36.5 -89q0 -57 43 -97.5t134 -79.5l8 -4t18.5 -8.5t23.5 -10.5l61 -27q20 -9 61 -32
q43 -24 63 -40q20 -15 54 -47q31 -28 48 -57q41 -66 41 -144z" />
    <glyph glyph-name="Tcommaaccent" unicode="&#x162;" horiz-adv-x="1212" 
d="M1100 1284h82l-70 -283h-80q12 106 -24 140q-35 35 -99 35h-141v-992q0 -53 37 -75q38 -21 139 -27v-82q-179 4 -295 4l-18 -63q48 -14 77 -27q14 -6 76 -37q93 -50 93 -129q0 -74 -83 -116q-82 -42 -184 -42q-105 0 -173 35q-66 35 -66 103q0 33 22 53t56 20
q40 0 59.5 -23t18.5 -54q-1 -33 20 -55.5t65 -22.5q82 0 82 84q0 87 -143 125q-49 12 -49 43q0 18 55 106q-120 0 -299 -4v82q102 6 138 27q36 23 36 75v992h-119q-67 0 -111 -35q-42 -35 -89 -140h-82l63 283h82q63 -12 266 -12h398q197 0 260 12z" />
    <glyph glyph-name="tcommaaccent" unicode="&#x163;" horiz-adv-x="755" 
d="M694 1026v-94h-221v-653q0 -175 96 -177q60 0 125 56v-90q-85 -82 -239 -82h-21l-12 -45q48 -14 77 -27q14 -6 76 -37q93 -49 93 -129q0 -74 -83 -116t-184 -42q-105 0 -173 35q-66 35 -66 103q0 33 22 53t56 20q40 0 59.5 -23t18.5 -54q-1 -33 20 -55.5t65 -22.5
q82 0 82 84q0 87 -143 125q-49 12 -49 43q0 9 8 30q2 6 8.5 16t16.5 26.5t18 29.5q-194 59 -192 317v615h-111v94q146 0 220 62q72 62 110 217h102v-279h221z" />
    <glyph glyph-name="Tcaron" unicode="&#x164;" horiz-adv-x="1212" 
d="M936 1671l-313 -358h-45l-314 358l53 45l285 -225l283 225zM1100 1284h82l-70 -283h-80q12 106 -24 140q-35 35 -99 35h-141v-992q0 -53 37 -75q38 -21 139 -27v-82q-342 8 -686 0v82q102 6 138 27q36 23 36 75v992h-119q-67 0 -111 -35q-42 -35 -89 -140h-82l63 283h82
q63 -12 266 -12h398q197 0 260 12z" />
    <glyph glyph-name="tcaron" unicode="&#x165;" horiz-adv-x="989" 
d="M856 778q-25 -25 -47 -4l-23 25q76 83 76 186q0 16 -4 25q-17 -4 -37 -4q-70 0 -114 47q-43 46 -43 106q0 67 48 113q49 47 117 47q78 0 123 -60q45 -59 45 -151q0 -184 -141 -330zM694 158v-90q-85 -82 -239 -82q-145 0 -224 84t-79 247v615h-111v94q146 0 220 62
q72 62 110 217h102v-279h221v-94h-221v-653q0 -175 96 -177q60 0 125 56z" />
    <glyph glyph-name="Tbar" unicode="&#x166;" horiz-adv-x="1212" 
d="M1100 1284h82l-70 -283h-80q12 106 -24 140q-35 35 -99 35h-141v-480h139q31 0 31 -32v-52q0 -17 -7.5 -25t-23.5 -7h-139v-396q0 -53 37 -75q38 -21 139 -27v-82q-342 8 -686 0v82q102 6 138 27q36 23 36 75v396h-125q-31 0 -31 32v52q0 17 7.5 25t23.5 7h125v480h-119
q-67 0 -111 -35q-42 -35 -89 -140h-82l63 283h82q63 -12 266 -12h398q197 0 260 12z" />
    <glyph glyph-name="tbar" unicode="&#x167;" horiz-adv-x="765" 
d="M705 1026v-94h-222v-182h168q35 0 35 -37v-31q0 -35 -35 -35h-168v-368q0 -176 97 -177q60 0 125 56v-90q-85 -82 -240 -82q-145 0 -224 84t-79 247v330h-84q-37 0 -37 35v31q0 37 37 37h84v182h-111v94q146 0 220 62q72 62 110 217h102v-279h222z" />
    <glyph glyph-name="Umacron" unicode="&#x16a;" horiz-adv-x="1521" 
d="M1096 1438h-611q-39 0 -39 39v94q0 37 39 37h611q39 0 39 -37v-94q0 -39 -39 -39zM1491 1272v-82q-88 -6 -122 -28q-34 -21 -34 -75v-921q0 -39 35.5 -58.5t120.5 -25.5v-82q-297 7 -520 0v82q29 23 28 108v31q-128 -242 -401 -241q-196 0 -306 110q-108 111 -108 297
v700q0 53 -33 75q-31 22 -120 28v82q323 -10 645 0v-82q-88 -6 -122 -28q-34 -21 -34 -75v-696q0 -307 195 -307q101 0 171 78q73 79 113 186v739q0 53 -33 75q-31 22 -120 28v82q322 -10 645 0z" />
    <glyph glyph-name="umacron" unicode="&#x16b;" horiz-adv-x="1294" 
d="M309 1231v94q0 37 39 37h610q39 0 39 -37v-94q0 -39 -39 -39h-610q-39 0 -39 39zM1130 977v-725q0 -129 134 -143v-86q-154 -1 -385 -52q-45 18 -58 58l19 186h-15q-33 -82 -125 -165t-235 -83q-130 0 -222 85q-93 86 -93 284v530q0 59 -58 62l-61 2v82l377 22
q28 2 45.5 -13t17.5 -44v-623q0 -244 123 -243q76 0 133 68q56 68 82 145v542q0 59 -57 62l-62 2v82l379 22q26 2 43.5 -13.5t17.5 -43.5z" />
    <glyph glyph-name="ubreve" unicode="&#x16d;" horiz-adv-x="1294" 
d="M338 1452h141q10 -43 59 -72.5t115 -29.5q67 0 116 29q48 30 58 73h142q-7 -140 -97 -213q-88 -72 -219 -72t-219 72t-96 213zM1130 977v-725q0 -129 134 -143v-86q-154 -1 -385 -52q-45 18 -58 58l19 186h-15q-33 -82 -125 -165t-235 -83q-130 0 -222 85q-93 86 -93 284
v530q0 59 -58 62l-61 2v82l377 22q28 2 45.5 -13t17.5 -44v-623q0 -244 123 -243q76 0 133 68q56 68 82 145v542q0 59 -57 62l-62 2v82l379 22q26 2 43.5 -13.5t17.5 -43.5z" />
    <glyph glyph-name="Uring" unicode="&#x16e;" horiz-adv-x="1521" 
d="M905 1425q-47 -47 -115 -47q-67 0 -114 47q-47 49 -47 115q0 68 46 114t115 46q70 0 116 -46t46 -114q0 -66 -47 -115zM719 1540q0 -29 22 -51.5t49 -22.5t49.5 22.5t22.5 51.5q0 27 -22.5 49.5t-49.5 22.5q-26 0 -49 -23q-22 -22 -22 -49zM1491 1272v-82
q-88 -6 -122 -28q-34 -21 -34 -75v-921q0 -39 35.5 -58.5t120.5 -25.5v-82q-297 7 -520 0v82q29 23 28 108v31q-128 -242 -401 -241q-196 0 -306 110q-108 111 -108 297v700q0 53 -33 75q-31 22 -120 28v82q323 -10 645 0v-82q-88 -6 -122 -28q-34 -21 -34 -75v-696
q0 -307 195 -307q101 0 171 78q73 79 113 186v739q0 53 -33 75q-31 22 -120 28v82q322 -10 645 0z" />
    <glyph glyph-name="uring" unicode="&#x16f;" horiz-adv-x="1294" 
d="M768 1180q-47 -47 -115 -47q-67 0 -114 47t-47 114q0 68 46 114t115 46q70 0 116 -46t46 -114q0 -67 -47 -114zM725 1294q0 27 -22.5 49.5t-49.5 22.5q-26 0 -49 -23q-22 -22 -22 -49q0 -29 22 -51t49 -22t49.5 22.5t22.5 50.5zM1130 977v-725q0 -129 134 -143v-86
q-154 -1 -385 -52q-45 18 -58 58l19 186h-15q-33 -82 -125 -165t-235 -83q-130 0 -222 85q-93 86 -93 284v530q0 59 -58 62l-61 2v82l377 22q28 2 45.5 -13t17.5 -44v-623q0 -244 123 -243q76 0 133 68q56 68 82 145v542q0 59 -57 62l-62 2v82l379 22q26 2 43.5 -13.5
t17.5 -43.5z" />
    <glyph glyph-name="Uhungarumlaut" unicode="&#x170;" horiz-adv-x="1521" 
d="M793 1516l-310 -121l-32 53l251 238q45 41 86.5 40.5t71.5 -40.5q26 -43 7 -95q-20 -53 -74 -75zM1161 1516l-309 -121l-33 53l252 238q45 41 86.5 40.5t71.5 -40.5q27 -43 7 -96q-19 -51 -75 -74zM1491 1272v-82q-88 -6 -122 -28q-34 -21 -34 -75v-921q0 -39 35.5 -58.5
t120.5 -25.5v-82q-297 7 -520 0v82q29 23 28 108v31q-128 -242 -401 -241q-196 0 -306 110q-108 111 -108 297v700q0 53 -33 75q-31 22 -120 28v82q323 -10 645 0v-82q-88 -6 -122 -28q-34 -21 -34 -75v-696q0 -307 195 -307q101 0 171 78q73 79 113 186v739q0 53 -33 75
q-31 22 -120 28v82q322 -10 645 0z" />
    <glyph glyph-name="uhungarumlaut" unicode="&#x171;" horiz-adv-x="1294" 
d="M346 1149l-33 53l252 238q45 41 88 41t70 -41q27 -43 7 -96q-19 -51 -75 -74zM715 1149l-33 53l252 238q45 41 88 41t70 -41q27 -43 7 -96q-19 -51 -75 -74zM1130 977v-725q0 -129 134 -143v-86q-154 -1 -385 -52q-45 18 -58 58l19 186h-15q-33 -82 -125 -165t-235 -83
q-130 0 -222 85q-93 86 -93 284v530q0 59 -58 62l-61 2v82l377 22q28 2 45.5 -13t17.5 -44v-623q0 -244 123 -243q76 0 133 68q56 68 82 145v542q0 59 -57 62l-62 2v82l379 22q26 2 43.5 -13.5t17.5 -43.5z" />
    <glyph glyph-name="Uogonek" unicode="&#x172;" horiz-adv-x="1521" 
d="M1491 1272v-82q-88 -6 -122 -28q-34 -21 -34 -75v-921q0 -39 35.5 -58.5t120.5 -25.5v-82q-297 7 -520 0v82q29 23 28 108v31q-86 -162 -235 -215h16q-188 -47 -188 -178q0 -50 31.5 -79.5t78.5 -29.5q72 0 123 64l70 -45q-32 -59 -112 -105q-82 -47 -201 -47
q-95 0 -168 41q-72 41 -72 140q0 63 51 124q51 60 135 93q-163 19 -254 127q-90 108 -90 276v700q0 53 -33 75q-31 22 -120 28v82q323 -10 645 0v-82q-88 -6 -122 -28q-34 -21 -34 -75v-696q0 -307 195 -307q101 0 171 78q73 79 113 186v739q0 53 -33 75q-31 22 -120 28v82
q322 -10 645 0z" />
    <glyph glyph-name="uogonek" unicode="&#x173;" horiz-adv-x="1294" 
d="M987 -6q-115 -76 -115 -168q0 -49 32 -78t77 -29q73 0 125 64l68 -45q-32 -59 -112 -105q-82 -47 -202 -47q-95 0 -168 41q-71 41 -71 140q0 137 208 245q-3 4 -8 17l19 186h-15q-33 -82 -125 -165t-235 -83q-130 0 -222 85q-93 86 -93 284v530q0 59 -58 62l-61 2v82
l377 22q28 2 45.5 -13t17.5 -44v-623q0 -244 123 -243q76 0 133 68q56 68 82 145v542q0 59 -57 62l-62 2v82l379 22q26 2 43.5 -13.5t17.5 -43.5v-725q0 -129 134 -143v-86q-123 -1 -277 -29z" />
    <glyph glyph-name="Wcircumflex" unicode="&#x174;" horiz-adv-x="2045" 
d="M1300 1309l-282 225l-285 -225l-53 45l313 358h45l314 -358zM1548 1190v82q238 -8 477 0v-82q-95 -6 -133 -28q-39 -21 -61 -91l-346 -1089h-123l-348 931l-299 -931h-121l-408 1089q-28 73 -56 93q-26 20 -110 26v82q326 -11 664 0v-82q-102 -5 -142 -28
q-41 -23 -18 -91l232 -684l200 680l-2 4q-27 74 -59 95q-31 22 -123 24v82q338 -10 666 0v-82q-94 -4 -131 -28q-38 -23 -15 -91l234 -684l203 684q18 66 -31 90q-47 24 -150 29z" />
    <glyph glyph-name="wcircumflex" unicode="&#x175;" horiz-adv-x="1849" 
d="M1208 1063l-282 225l-285 -225l-53 45l313 358h45l314 -358zM1329 942v84h490v-84l-45 -4q-66 -6 -105 -40t-59 -105l-240 -799h-233l-224 647l-192 -647h-234l-274 797q-18 50 -32 79q-28 61 -107 68l-43 4v84h573v-84l-39 -4q-94 -10 -47 -147l180 -558l164 560
q-19 53 -32 78q-28 60 -107 67l-43 4v84h573v-84l-39 -4q-94 -10 -47 -147l181 -558l161 560q19 71 -11.5 108t-96.5 37z" />
    <glyph glyph-name="Ycircumflex" unicode="&#x176;" horiz-adv-x="1339" 
d="M946 1309l-282 225l-285 -225l-53 45l313 358h45l313 -358zM891 1190v82q213 -12 418 0v-82q-141 -17 -199 -131l-274 -529v-323q0 -69 33 -94q35 -26 128 -33v-80q-330 8 -657 0v82q92 6 126 31t34 94v305l-305 555q-1 5 -15 27q-12 24 -15 27q-4 4 -15 19
q-7 11 -12 15.5t-15.5 9t-15.5 7.5q-20 13 -76 18v82q323 -12 651 0v-82q-87 -8 -110.5 -39t10.5 -86l217 -410l211 404q56 109 -119 131z" />
    <glyph glyph-name="ycircumflex" unicode="&#x177;" horiz-adv-x="1224" 
d="M893 1063l-283 225l-284 -225l-54 45l314 358h45l313 -358zM764 942v84h430v-84l-68 -4q-34 0 -56 -22q-22 -21 -36 -45q-11 -22 -30 -74l-492 -1237h-123l180 417l-364 824q-32 73 -55.5 104t-53.5 33l-65 4v84h569v-84l-59 -4q-41 -2 -50.5 -39t15.5 -100l201 -486
l196 484q24 66 6.5 101.5t-71.5 39.5z" />
    <glyph glyph-name="Ydieresis" unicode="&#x178;" horiz-adv-x="1339" 
d="M432 1393q-59 0 -103 44t-44 103q0 58 44 102t103 44q61 0 103 -44q43 -43 43 -102q0 -61 -43 -104q-42 -43 -103 -43zM999 1437q-44 -44 -102 -44q-59 0 -103 44t-44 103q0 58 44 102t103 44q58 0 102 -44q43 -43 43 -102q0 -60 -43 -103zM891 1190v82q213 -12 418 0
v-82q-141 -17 -199 -131l-274 -529v-323q0 -69 33 -94q35 -26 128 -33v-80q-330 8 -657 0v82q92 6 126 31t34 94v305l-305 555q-1 5 -15 27q-12 24 -15 27q-4 4 -15 19q-7 11 -12 15.5t-15.5 9t-15.5 7.5q-20 13 -76 18v82q323 -12 651 0v-82q-87 -8 -110.5 -39t10.5 -86
l217 -410l211 404q56 109 -119 131z" />
    <glyph glyph-name="Zacute" unicode="&#x179;" horiz-adv-x="1239" 
d="M420 1395l-35 53l277 238q49 41 96 40.5t78 -40.5q32 -44 9 -96q-22 -52 -83 -74zM1022 106l53 -8q45 -10 45 -39v-59q-539 8 -1079 0l717 1180h-324q-100 0 -148 -42t-93 -149h-99l70 295h110q63 -12 240 -12h653l-716 -1182h122q139 0 225 36t165 134l98 119h119
q-81 -112 -158 -273z" />
    <glyph glyph-name="zacute" unicode="&#x17a;" horiz-adv-x="1024" 
d="M315 1149l-34 53l276 238q49 41 96 41t78 -41q31 -44 9 -96q-20 -51 -83 -74zM879 309h79l-71 -309h-791q-41 0 -53 28.5t12 63.5l551 854l-235 -2q-85 0 -123 -35q-37 -34 -96 -143h-76l71 272h109q63 -12 225 -12q334 0 502 4l-608 -948l225 2q91 0 152 47
q60 45 127 178z" />
    <glyph glyph-name="Zdotaccent" unicode="&#x17b;" horiz-adv-x="1239" 
d="M733 1421q-46 -49 -117 -49q-69 0 -117 49t-48 119t48 117q49 47 117 47q70 0 117 -47t47 -117q0 -69 -47 -119zM1022 106l53 -8q45 -10 45 -39v-59q-539 8 -1079 0l717 1180h-324q-100 0 -148 -42t-93 -149h-99l70 295h110q63 -12 240 -12h653l-716 -1182h122
q139 0 225 36t165 134l98 119h119q-81 -112 -158 -273z" />
    <glyph glyph-name="zdotaccent" unicode="&#x17c;" horiz-adv-x="1024" 
d="M629 1175q-46 -49 -117 -49q-70 0 -118 49t-48 119t48 117q49 47 118 47q70 0 117 -47t47 -117q0 -69 -47 -119zM879 309h79l-71 -309h-791q-41 0 -53 28.5t12 63.5l551 854l-235 -2q-85 0 -123 -35q-37 -34 -96 -143h-76l71 272h109q63 -12 225 -12q334 0 502 4
l-608 -948l225 2q91 0 152 47q60 45 127 178z" />
    <glyph glyph-name="Zcaron" unicode="&#x17d;" horiz-adv-x="1239" 
d="M950 1671l-313 -358h-45l-313 358l53 45l284 -225l283 225zM1022 106l53 -8q45 -10 45 -39v-59q-539 8 -1079 0l717 1180h-324q-100 0 -148 -42t-93 -149h-99l70 295h110q63 -12 240 -12h653l-716 -1182h122q139 0 225 36t165 134l98 119h119q-81 -112 -158 -273z" />
    <glyph glyph-name="zcaron" unicode="&#x17e;" horiz-adv-x="1024" 
d="M846 1425l-314 -358h-45l-313 358l53 45l285 -225l283 225zM879 309h79l-71 -309h-791q-41 0 -53 28.5t12 63.5l551 854l-235 -2q-85 0 -123 -35q-37 -34 -96 -143h-76l71 272h109q63 -12 225 -12q334 0 502 4l-608 -948l225 2q91 0 152 47q60 45 127 178z" />
    <glyph glyph-name="florin" unicode="&#x192;" horiz-adv-x="1292" 
d="M1270 1225q18 -26 11 -62q-8 -38 -40 -57q-35 -20 -66.5 -13.5t-41.5 33.5l-8 20l-7 22l-7 21q-5 13 -21 37q-6 12 -29 31q-22 21 -74 21q-72 0 -121 -45q-17 -17 -30 -61q-11 -36 -17 -69l-14 -87l-10 -80h276q11 0 18 -5t3 -13l-11 -23q-18 -34 -26 -43
q-14 -16 -41 -16h-234l-123 -871q-27 -179 -122 -279q-94 -100 -236 -100q-92 0 -163 44q-69 43 -97 106q-16 25 -6 62q10 35 45 52q37 17 67.5 8t38.5 -38q8 -13 12 -45q3 -28 13 -43q1 -2 5.5 -10.5t8.5 -15.5t8 -10q31 -22 60 -22q86 0 125 68q39 67 57 199l125 895h-106
q-24 0 -19 20l10 80h129l9 55q53 375 378 375q191 0 271 -141z" />
    <glyph glyph-name="uni01CD" unicode="&#x1cd;" horiz-adv-x="1437" 
d="M1053 1671l-314 -358h-45l-313 358l53 45l285 -225l282 225zM819 1282l367 -983q43 -116 90 -163q46 -46 141 -54v-82q-343 8 -684 0v82q96 6 133.5 30t18.5 78l-78 213h-377l-68 -206q-20 -59 36 -85t192 -30v-82q-290 10 -570 0v82q113 8 166 41q54 33 78 104l361 1055
h194zM604 948l-145 -454h313z" />
    <glyph glyph-name="uni01CE" unicode="&#x1ce;" horiz-adv-x="1153" 
d="M895 1425l-313 -358h-45l-314 358l53 45l285 -225l283 225zM979 754v-502q0 -130 133 -143v-86q-154 -1 -385 -52q-45 18 -57 58l10 123h-21q-103 -179 -307 -181q-128 0 -214 70q-87 70 -87 205q0 142 132 228t474 159v125q0 118 -29 164q-28 45 -91 45q-77 0 -108 -51
q-33 -51 -34 -109q-2 -59 -36 -110q-33 -50 -113 -50q-135 0 -135 117t145 198q145 82 371 82q80 0 134 -10.5t106 -39.5q112 -60 112 -240zM483 111q109 0 174 161v293q-91 -23 -154.5 -63t-90.5 -88q-41 -78 -41 -144q0 -73 29.5 -116t82.5 -43z" />
    <glyph glyph-name="Scommaaccent" unicode="&#x218;" horiz-adv-x="1056" 
d="M688 250q0 76 -54 138q-53 62 -200 136q-94 48 -137 77q-60 40 -112 86q-115 103 -115 263q0 165 116 260q118 95 289 95q80 0 166 -26t98 -26q43 0 49 35h97l18 -307h-78q-103 225 -280 225q-83 0 -129 -45q-47 -45 -47 -110q0 -74 54 -129t175 -111q175 -84 244 -137
q164 -128 164 -318q0 -130 -74 -222q-135 -165 -373 -165q-95 0 -192 45t-125 45q-31 0 -50.5 -18t-23.5 -41h-94l-23 324h94q53 -123 153 -186q101 -62 200 -62q87 0 138.5 47t51.5 127zM526 -662q-25 -25 -47 -4l-22 25q77 84 75 186q0 16 -4 25q-17 -4 -36 -4
q-70 0 -114 47t-44 106q0 67 48 113q49 47 118 47q78 0 123 -59q45 -60 45 -152q-2 -185 -142 -330z" />
    <glyph glyph-name="scommaaccent" unicode="&#x219;" horiz-adv-x="923" 
d="M872 287q0 -139 -114 -228q-112 -88 -254 -88q-85 0 -178 40q-92 40 -103 40q-35 0 -35 -51h-94l-26 293h73q35 -104 138 -170q104 -66 194 -66q60 0 95.5 33t35.5 90q0 66 -46 105q-46 38 -142 82q-175 79 -244 139q-111 98 -111 235q0 136 97 218q98 83 248 83
q74 0 152 -29q75 -28 93 -28q45 0 54 41h83l19 -293h-70q-52 118 -130 171q-76 52 -152 52q-65 0 -101.5 -33t-36.5 -89q0 -57 43 -97.5t134 -79.5l8 -4t18.5 -8.5t23.5 -10.5l61 -27q20 -9 61 -32q43 -24 63 -40q20 -15 54 -47q31 -28 48 -57q41 -66 41 -144zM444 -662
q-25 -25 -47 -4l-22 25q76 83 76 186q0 13 -5 25q-17 -4 -36 -4q-70 0 -114 47t-44 106q0 67 48 113q49 47 118 47q78 0 123 -59q45 -60 45 -152q-2 -185 -142 -330z" />
    <glyph glyph-name="uni021A" unicode="&#x21a;" horiz-adv-x="1212" 
d="M1100 1284h82l-70 -283h-80q12 106 -24 140q-35 35 -99 35h-141v-992q0 -53 37 -75q38 -21 139 -27v-82q-342 8 -686 0v82q102 6 138 27q36 23 36 75v992h-119q-67 0 -111 -35q-42 -35 -89 -140h-82l63 283h82q63 -12 266 -12h398q197 0 260 12zM569 -121q78 0 123 -59
q45 -60 45 -152q0 -184 -141 -330q-25 -25 -47 -4l-23 25q76 83 76 186q0 16 -4 25q-17 -4 -37 -4q-70 0 -114 47t-44 106q0 67 48 113q49 47 118 47z" />
    <glyph glyph-name="uni021B" unicode="&#x21b;" horiz-adv-x="755" 
d="M694 158v-90q-85 -82 -239 -82q-145 0 -224 84t-79 247v615h-111v94q146 0 220 62q72 62 110 217h102v-279h221v-94h-221v-653q0 -175 96 -177q60 0 125 56zM387 -662q-25 -25 -47 -4l-23 25q76 83 76 186q0 16 -4 25q-17 -4 -37 -4q-70 0 -114 47q-43 46 -43 106
q0 67 48 113q49 47 117 47q78 0 123 -59q45 -60 45 -152q0 -184 -141 -330z" />
    <glyph glyph-name="uni0237" unicode="&#x237;" horiz-adv-x="655" 
d="M473 1047q42 -18 59 -60q-12 -98 -12 -307v-500q0 -333 -144 -478q-143 -146 -425 -146l-12 94q135 12 198 90q64 77 64 272v719q0 62 -30.5 84.5t-96.5 11.5v82q238 43 399 138z" />
    <glyph glyph-name="circumflex" unicode="&#x2c6;" horiz-adv-x="968" 
d="M313 1466h45l314 -358l-51 -45l-283 225l-285 -225l-53 45z" />
    <glyph glyph-name="caron" unicode="&#x2c7;" horiz-adv-x="968" 
d="M672 1425l-314 -358h-45l-313 358l53 45l285 -225l283 225z" />
    <glyph glyph-name="breve" unicode="&#x2d8;" horiz-adv-x="835" 
d="M102 1452h142q10 -43 58.5 -72.5t114.5 -29.5q67 0 116 29q48 29 59 73h141q-7 -141 -96 -213t-219 -72t-219 72q-88 72 -97 213z" />
    <glyph glyph-name="dotaccent" unicode="&#x2d9;" horiz-adv-x="575" 
d="M405 1175q-46 -49 -117 -49q-69 0 -117 49t-48 119t48 117q49 47 117 47q70 0 117 -47q48 -47 48 -117t-48 -119z" />
    <glyph glyph-name="ring" unicode="&#x2da;" horiz-adv-x="679" 
d="M379 1180q-47 -47 -115 -47q-66 0 -115 47q-47 47 -47 114q0 68 46 114t116 46t116 -46t46 -114q0 -67 -47 -114zM336 1294q0 27 -22.5 49.5t-49.5 22.5q-26 0 -49 -23q-22 -22 -22 -49q0 -29 22 -51t49 -22t49.5 22.5t22.5 50.5z" />
    <glyph glyph-name="ogonek" unicode="&#x2db;" horiz-adv-x="839" 
d="M588 -217l67 -45q-32 -59 -112 -105q-80 -47 -201 -47q-95 0 -168 41q-72 41 -72 140q0 78 74 146q73 67 191 91h174q-185 -45 -187 -176q0 -49 32 -79t77 -30q73 0 125 64z" />
    <glyph glyph-name="tilde" unicode="&#x2dc;" horiz-adv-x="1028" 
d="M793 1425h100q47 -124 -20 -194q-66 -70 -164 -70q-91 0 -226 61q-136 62 -200 62q-47 0 -65 -30q-17 -30 -7 -50h-94q-41 111 22 183q64 73 183 73q93 0 223 -56t182 -56q39 0 56 26q18 26 10 51z" />
    <glyph glyph-name="hungarumlaut" unicode="&#x2dd;" horiz-adv-x="1228" 
d="M131 1149l-33 53l252 238q45 41 87 41t71 -41q27 -43 7 -96q-19 -51 -75 -74zM500 1149l-33 53l252 238q45 41 87 41t71 -41q27 -43 7 -96q-19 -51 -75 -74z" />
    <glyph glyph-name="gravecomb" unicode="&#x300;" horiz-adv-x="0" 
d="M-379 1440l277 -238l-35 -53l-342 121q-60 22 -83 75q-22 52 9 95q31 41 78 41t96 -41z" />
    <glyph glyph-name="acutecomb" unicode="&#x301;" horiz-adv-x="0" 
d="M-537 1149l-34 53l276 238q49 41 96 41t78 -41q31 -43 10 -96q-22 -51 -84 -74z" />
    <glyph glyph-name="uni0302" unicode="&#x302;" horiz-adv-x="0" 
d="M-358 1466h45l313 -358l-51 -45l-283 225l-284 -225l-54 45z" />
    <glyph glyph-name="tildecomb" unicode="&#x303;" horiz-adv-x="0" 
d="M-219 1425h100q47 -124 -19 -194q-67 -70 -165 -70q-91 0 -225 61q-138 62 -201 62q-47 0 -64 -30q-18 -29 -8 -50h-94q-41 112 23 183q63 73 182 73q93 0 223 -56t182 -56q39 0 57 26q16 27 9 51z" />
    <glyph glyph-name="uni0304" unicode="&#x304;" horiz-adv-x="0" 
d="M-791 1231v94q0 37 39 37h611q39 0 39 -37v-94q0 -39 -39 -39h-611q-39 0 -39 39z" />
    <glyph glyph-name="uni0306" unicode="&#x306;" horiz-adv-x="0" 
d="M-733 1452h141q11 -44 59 -73q49 -29 116 -29q66 0 114.5 29.5t58.5 72.5h142q-8 -141 -96 -213q-89 -72 -220 -72q-130 0 -219 72t-96 213z" />
    <glyph glyph-name="uni0307" unicode="&#x307;" horiz-adv-x="0" 
d="M-170 1175q-46 -49 -116 -49t-118 49q-49 49 -49 119q0 71 49 117q49 47 118 47t116 -47t47 -117q0 -69 -47 -119z" />
    <glyph glyph-name="uni0308" unicode="&#x308;" horiz-adv-x="0" 
d="M-610 1147q-59 0 -103 44q-45 43 -45 103q0 59 44 103q43 43 104 43t103 -43t42 -103t-42 -104q-42 -43 -103 -43zM-43 1191q-44 -44 -102 -44q-60 0 -104 44t-44 103t44 103q43 43 104 43q59 0 102 -43t43 -103t-43 -103z" />
    <glyph glyph-name="uni030A" unicode="&#x30a;" horiz-adv-x="0" 
d="M-149 1180q-49 -47 -115 -47q-68 0 -115 47t-47 114q0 68 46 114t116 46t116 -46t46 -114q0 -67 -47 -114zM-193 1294q0 27 -22 49q-23 23 -49 23q-27 0 -49.5 -22.5t-22.5 -49.5q0 -29 22.5 -51t49.5 -22t49 22t22 51z" />
    <glyph glyph-name="uni030B" unicode="&#x30b;" horiz-adv-x="0" 
d="M-864 1149l-33 53l252 238q45 41 87 41t71 -41q27 -43 7 -96q-19 -51 -75 -74zM-496 1149l-32 53l252 238q45 41 87 41t70 -41q27 -44 8 -96q-19 -51 -75 -74z" />
    <glyph glyph-name="uni030C" unicode="&#x30c;" horiz-adv-x="0" 
d="M0 1425l-313 -358h-45l-314 358l54 45l284 -225l283 225z" />
    <glyph glyph-name="uni0326" unicode="&#x326;" horiz-adv-x="0" 
d="M-287 -662q-25 -25 -47 -4l-22 25q76 84 75 186q0 16 -4 25q-17 -4 -37 -4q-69 0 -113 47t-44 106q0 67 48 113q49 47 118 47q78 0 123 -59q45 -60 45 -152q-2 -185 -142 -330z" />
    <glyph glyph-name="uni0327" unicode="&#x327;" horiz-adv-x="0" 
d="M-367 -354q82 0 82 84q0 87 -143 125q-49 12 -49 43q0 19 55 108h92l-18 -65q46 -13 78 -27q10 -4 75 -37q93 -50 93 -129q0 -74 -83 -116t-184 -42q-105 0 -172 35q-67 34 -67 103q0 33 22 53t56 20q40 0 59.5 -23t18.5 -54q-1 -33 20 -55.5t65 -22.5z" />
    <glyph glyph-name="uni0328" unicode="&#x328;" horiz-adv-x="0" 
d="M-170 -217l68 -45q-32 -59 -112 -105q-82 -47 -202 -47q-96 0 -167 41q-72 41 -72 140q0 78 74 146q73 67 190 91h174q-186 -45 -186 -176q0 -49 31.5 -79t76.5 -30q73 0 125 64z" />
    <glyph glyph-name="uni0335" unicode="&#x335;" horiz-adv-x="0" 
d="M-133 498h-600q-31 0 -31 32v52q0 17 7.5 25t23.5 7h600q31 0 31 -32v-52q0 -17 -7.5 -25t-23.5 -7z" />
    <glyph glyph-name="increment" unicode="&#x394;" horiz-adv-x="1370" 
d="M651 1298l678 -1298h-1288zM602 903l-338 -678h699z" />
    <glyph glyph-name="Omega" unicode="&#x3a9;" horiz-adv-x="1574" 
d="M1298 215l39 47h156l-80 -215q-17 -47 -57 -47h-453v356q105 11 169 118q65 109 65 255q0 179 -93 298q-91 118 -258 118q-165 0 -256 -118q-92 -119 -92 -298q0 -146 65 -255q67 -108 171 -118v-356h-455q-40 0 -57 47l-80 215h154l36 -47q28 -36 59 -49q31 -12 87 -12
h90q20 0 29 16q-185 56 -297 195q-113 142 -113 337q0 244 183 423q185 180 476 180q292 0 477 -180q185 -179 185 -423q0 -183 -113 -329q-112 -144 -293 -199q12 -20 25 -20h102q86 0 129 61z" />
    <glyph glyph-name="mu" unicode="&#x3bc;" horiz-adv-x="1294" 
d="M1130 977v-725q0 -129 134 -143v-86q-154 -1 -385 -52q-45 18 -58 58l19 186h-15q-33 -82 -125 -165t-235 -83q-83 0 -148 33q9 -65 34 -117t51 -77q18 -17 24 -23t16.5 -18.5t14 -20.5t2.5 -16q-11 -75 -87 -115q-77 -41 -150 -17q-72 22 -72 107v1163q0 59 -58 62
l-61 2v82l377 22q28 2 45.5 -13t17.5 -44v-623q0 -244 123 -243q76 0 133 68q56 68 82 145v542q0 59 -57 62l-62 2v82l379 22q26 2 43.5 -13.5t17.5 -43.5z" />
    <glyph glyph-name="pi" unicode="&#x3c0;" horiz-adv-x="1824" 
d="M1599 276q51 0 82 -30.5t31 -83.5q0 -101 -78 -142q-77 -40 -215 -40q-381 0 -381 286v568h-151v-549q0 -141 -113 -219q-112 -78 -264 -78q-150 0 -207 24l-27 140q271 -78 273 167v515h-68q-68 0 -69 -115q0 -115 45 -170l-287 33q-90 133 -43 237q47 105 180 105h1362
v-90h-170q-123 0 -123 -125v-488q0 -141 49 -141q48 0 64 98q7 40 35.5 69t74.5 29z" />
    <glyph glyph-name="afii10023" unicode="&#x401;" 
d="M348 1393q-59 0 -103 44t-44 103q0 58 44 102t103 44q61 0 103 -44q43 -43 43 -102q0 -61 -43 -104q-42 -43 -103 -43zM915 1437q-44 -44 -102 -44q-59 0 -103 44t-44 103q0 58 44 102t103 44q58 0 102 -44q43 -43 43 -102q0 -60 -43 -103zM1016 377h80
q-72 -201 -70 -377q-500 14 -975 0v82q87 6 118.5 27.5t31.5 74.5v924q0 43 -31 59q-33 17 -119 23v82h938q19 0 25 -7t10 -30l37 -256h-78l-25 45q-51 95 -99 130q-47 34 -165 34h-98q-59 0 -59 -62v-413h196q76 0 111 26q34 27 51 95h63q-14 -174 0 -347h-63
q-18 70 -53.5 98.5t-108.5 28.5h-196v-430q0 -52 21 -72t73 -20h22q111 0 170 33q60 33 107 113z" />
    <glyph glyph-name="afii10052" unicode="&#x403;" horiz-adv-x="1134" 
d="M371 1395l-35 53l276 238q49 41 96.5 40.5t77.5 -40.5q32 -44 9 -96q-21 -52 -82 -74zM1067 1235l37 -256h-105l-26 43q-53 88 -93 117q-41 30 -124 30h-215v-1003q0 -37 33.5 -53.5t121.5 -22.5v-90q-322 10 -645 0v90q87 6 120.5 22.5t33.5 53.5v940q0 37 -33.5 53.5
t-120.5 22.5v90h981q20 0 25.5 -6.5t9.5 -30.5z" />
    <glyph glyph-name="afii10053" unicode="&#x404;" horiz-adv-x="1312" 
d="M1153 348h119q-45 -163 -175 -272t-358 -109q-303 0 -485 180q-182 182 -182 492q0 287 183 476q183 190 450 190q92 0 196 -26q106 -26 152 -26q48 0 114 17q12 -185 88 -361h-178q-143 293 -368 293q-283 0 -283 -504h496v-98h-492q17 -235 110 -380q95 -146 261 -146
q111 0 206 63q95 65 146 211z" />
    <glyph glyph-name="afii10055" unicode="&#x406;" horiz-adv-x="747" 
d="M541 1087v-903q0 -52 33 -75q35 -21 122 -27v-82q-322 10 -645 0v82q88 6 121 27q33 23 33 75v903q0 53 -33 75q-32 22 -121 28v82q323 -10 645 0v-82q-88 -6 -122 -28q-33 -21 -33 -75z" />
    <glyph glyph-name="afii10056" unicode="&#x407;" horiz-adv-x="747" 
d="M143 1393q-59 0 -103 44t-44 103q0 58 44 102t103 44q61 0 103 -44q43 -43 43 -102q0 -61 -43 -104q-42 -43 -103 -43zM711 1437q-44 -44 -103 -44t-103 44t-44 103q0 58 44 102t103 44t103 -44q43 -43 43 -102q0 -60 -43 -103zM541 1087v-903q0 -52 33 -75
q35 -21 122 -27v-82q-322 10 -645 0v82q88 6 121 27q33 23 33 75v903q0 53 -33 75q-32 22 -121 28v82q323 -10 645 0v-82q-88 -6 -122 -28q-33 -21 -33 -75z" />
    <glyph glyph-name="afii10061" unicode="&#x40c;" horiz-adv-x="1470" 
d="M881 1516l-342 -121l-35 53l276 238q49 41 96.5 40.5t77.5 -40.5q31 -43 9 -95q-21 -53 -82 -75zM788 786l357 -489q84 -117 149 -177q65 -58 146 -65l-78 -90q-98 0 -163 9q-62 7 -149 53q-86 45 -147 129l-305 415l-68 -75v-330q0 -37 34 -53.5t122 -22.5v-90
q-322 10 -645 0v90q87 6 120.5 22.5t33.5 53.5v940q0 37 -33.5 53.5t-120.5 22.5v90q323 -10 645 0v-90q-88 -6 -122 -22.5t-34 -53.5v-440l326 366q138 155 180 187q86 67 205 65q86 0 136 -38.5t50 -100.5q0 -57 -36 -86q-35 -29 -78 -29t-71.5 17.5t-37.5 42.5
q-21 61 -55 61q-39 0 -90 -57z" />
    <glyph glyph-name="afii10062" unicode="&#x40e;" horiz-adv-x="1339" 
d="M354 1698h142q10 -44 58.5 -73.5t114.5 -29.5q68 0 116 30q48 29 59 73h141q-7 -141 -96 -213t-219 -72q-131 0 -220 71q-89 72 -96 214zM903 1182v90q203 -12 406 0v-90q-70 -8 -108.5 -31.5t-65.5 -75.5l-543 -1040q-11 -20 -17 -26.5t-21 -11.5t-46 -7q-45 0 -55.5 9
t4.5 36l153 276l-434 787q0 2 -7 14t-9 14q-1 1 -5 7t-9 11.5t-8 7.5q-35 25 -107 30v90q323 -12 645 0v-90q-79 -8 -104.5 -29t-6.5 -55l234 -443l219 420q27 50 -8 73q-36 24 -107 34z" />
    <glyph glyph-name="afii10017" unicode="&#x410;" horiz-adv-x="1437" 
d="M819 1282l367 -983q43 -116 90 -163q46 -46 141 -54v-82q-343 8 -684 0v82q96 6 133.5 30t18.5 78l-78 213h-377l-68 -206q-20 -59 36 -85t192 -30v-82q-290 10 -570 0v82q113 8 166 41q54 33 78 104l361 1055h194zM604 948l-145 -454h313z" />
    <glyph glyph-name="afii10018" unicode="&#x411;" horiz-adv-x="1282" 
d="M541 793l71 -2q317 -11 473 -120t156 -292q0 -172 -137 -276q-136 -103 -408 -103q-322 10 -645 0v90q87 6 120.5 22.5t33.5 53.5v940q0 37 -33.5 53.5t-120.5 22.5v90h981q19 0 25 -7t10 -30l37 -256h-105l-26 43q-53 88 -93 117q-41 30 -124 30h-215v-376zM694 90
q119 5 177 85q59 82 59 206q0 149 -81 231t-247 86l-61 2v-534q0 -45 49 -60q11 -4 16 -4q34 -10 88 -12z" />
    <glyph glyph-name="afii10019" unicode="&#x412;" horiz-adv-x="1339" 
d="M928 690q185 -37 278 -122t92 -218q0 -350 -596 -350h-651v82q87 6 118.5 27.5t31.5 74.5v908q0 52 -28 72t-105 26v82q81 -4 191 -4q68 0 192 2q25 0 53 0.5t43 1t22 0.5q594 0 594 -320q2 -188 -235 -262zM537 1186v-492q175 32 245 94q72 64 72 177q0 98 -53 160
q-53 63 -166 63q-60 0 -98 -2zM643 92h59q259 0 261 266q0 264 -285 265l-141 -27v-401q0 -59 18 -81t88 -22z" />
    <glyph glyph-name="afii10020" unicode="&#x413;" horiz-adv-x="1134" 
d="M1067 1235l37 -256h-105l-26 43q-53 88 -93 117q-41 30 -124 30h-215v-1003q0 -37 33.5 -53.5t121.5 -22.5v-90q-322 10 -645 0v90q87 6 120.5 22.5t33.5 53.5v940q0 37 -33.5 53.5t-120.5 22.5v90h981q20 0 25.5 -6.5t9.5 -30.5z" />
    <glyph glyph-name="afii10021" unicode="&#x414;" horiz-adv-x="1384" 
d="M1333 1272v-90q-88 -6 -121.5 -22.5t-33.5 -53.5v-940q0 -36 32 -53q33 -15 123 -21v-368h-84q-4 41 -11 93q-4 31 -23 73q-16 39 -46 61q-67 49 -206 49h-574q-95 0 -150.5 -18t-82.5 -61t-36 -83q-9 -39 -18 -114h-82v368q128 0 186 75q60 75 60 251v688
q0 37 -33.5 53.5t-121.5 22.5v90h1222zM387 92h301q83 0 118.5 17.5t35.5 56.5v940q0 40 -35.5 58t-118.5 18h-63q-85 0 -120.5 -18t-35.5 -58v-555q0 -202 -16 -302q-15 -101 -66 -157z" />
    <glyph glyph-name="afii10022" unicode="&#x415;" 
d="M1016 377h80q-72 -201 -70 -377q-500 14 -975 0v82q87 6 118.5 27.5t31.5 74.5v924q0 43 -31 59q-33 17 -119 23v82h938q19 0 25 -7t10 -30l37 -256h-78l-25 45q-51 95 -99 130q-47 34 -165 34h-98q-59 0 -59 -62v-413h196q76 0 111 26q34 27 51 95h63q-14 -174 0 -347
h-63q-18 70 -53.5 98.5t-108.5 28.5h-196v-430q0 -52 21 -72t73 -20h22q111 0 170 33q60 33 107 113z" />
    <glyph glyph-name="afii10024" unicode="&#x416;" horiz-adv-x="2222" 
d="M1540 786l356 -489q84 -117 149 -177q65 -58 146 -65l-77 -90q-98 0 -163 9q-63 7 -150 53q-84 44 -146 129l-305 415l-66 -73v-332q0 -37 33.5 -53.5t120.5 -22.5v-90q-324 10 -645 0v90q87 6 120 22.5t33 53.5v332l-65 73l-306 -415q-89 -122 -198 -156
q-111 -35 -260 -35l-78 90q81 7 145 65t150 177l356 489l-270 308q-51 57 -90 57q-33 0 -56 -61q-9 -25 -37.5 -42.5t-70.5 -17.5q-44 0 -79 28q-36 28 -36 87q0 62 50.5 100.5t136.5 38.5q79 0 141 -31q61 -29 97 -62q30 -27 120 -130q15 -15 27 -29l323 -364v438
q0 37 -33 53.5t-120 22.5v90q323 -10 645 0v-90q-87 -6 -120.5 -22.5t-33.5 -53.5v-438l324 364q138 155 180 187q86 67 205 65q86 0 136 -38.5t50 -100.5q0 -57 -36 -86q-37 -29 -79 -29t-70.5 17.5t-37.5 42.5q-21 61 -55 61q-39 0 -91 -57z" />
    <glyph glyph-name="afii10025" unicode="&#x417;" horiz-adv-x="1245" 
d="M750 717q180 33 307 -58q127 -90 127 -249q0 -144 -90 -247q-169 -196 -510 -196q-221 0 -344 108q-123 109 -168 273h118q94 -274 375 -274q139 0 222 83t83 226q0 108 -50 178q-49 70 -134 70q-43 0 -73 -13l-42 -16q-25 -10 -43 -16l-34 92l77 35q209 96 209 272
q0 212 -182 217q-188 0 -332 -293h-178q76 174 88 361q62 -15 115 -17q47 0 151 26q106 26 197 26q175 0 294 -86q118 -85 118 -218q0 -101 -89 -178q-87 -74 -212 -106z" />
    <glyph glyph-name="afii10026" unicode="&#x418;" horiz-adv-x="1476" 
d="M1425 1272v-90q-88 -6 -121.5 -22.5t-33.5 -53.5v-940q0 -37 33.5 -53.5t121.5 -22.5v-90q-324 10 -645 0v90q87 6 120.5 22.5t33.5 53.5v661l-393 -532v-129q0 -37 33.5 -53.5t121.5 -22.5v-90q-322 10 -645 0v90q87 6 120.5 22.5t33.5 53.5v940q0 37 -33.5 53.5
t-120.5 22.5v90q323 -10 645 0v-90q-88 -6 -121.5 -22.5t-33.5 -53.5v-670l393 529v141q0 37 -33.5 53.5t-120.5 22.5v90q322 -10 645 0z" />
    <glyph glyph-name="afii10027" unicode="&#x419;" horiz-adv-x="1476" 
d="M434 1698h141q10 -43 59 -73t115 -30q67 0 115 29.5t60 73.5h141q-7 -141 -96 -213q-88 -72 -220 -72q-130 0 -219 71q-89 72 -96 214zM1425 1272v-90q-88 -6 -121.5 -22.5t-33.5 -53.5v-940q0 -37 33.5 -53.5t121.5 -22.5v-90q-324 10 -645 0v90q87 6 120.5 22.5
t33.5 53.5v661l-393 -532v-129q0 -37 33.5 -53.5t121.5 -22.5v-90q-322 10 -645 0v90q87 6 120.5 22.5t33.5 53.5v940q0 37 -33.5 53.5t-120.5 22.5v90q323 -10 645 0v-90q-88 -6 -121.5 -22.5t-33.5 -53.5v-670l393 529v141q0 37 -33.5 53.5t-120.5 22.5v90q322 -10 645 0z
" />
    <glyph glyph-name="afii10028" unicode="&#x41a;" horiz-adv-x="1470" 
d="M788 786l357 -489q84 -117 149 -177q65 -58 146 -65l-78 -90q-98 0 -163 9q-62 7 -149 53q-86 45 -147 129l-305 415l-68 -75v-330q0 -37 34 -53.5t122 -22.5v-90q-322 10 -645 0v90q87 6 120.5 22.5t33.5 53.5v940q0 37 -33.5 53.5t-120.5 22.5v90q323 -10 645 0v-90
q-88 -6 -122 -22.5t-34 -53.5v-440l326 366q138 155 180 187q86 67 205 65q86 0 136 -38.5t50 -100.5q0 -57 -36 -86q-35 -29 -78 -29t-71.5 17.5t-37.5 42.5q-21 61 -55 61q-39 0 -90 -57z" />
    <glyph glyph-name="afii10029" unicode="&#x41b;" horiz-adv-x="1472" 
d="M1421 1272v-90q-88 -6 -121.5 -22.5t-33.5 -53.5v-940q0 -37 33.5 -53.5t121.5 -22.5v-90q-324 10 -645 0v90q87 6 120.5 22.5t33.5 53.5v940q0 40 -35.5 58t-118.5 18h-84q-85 0 -120 -18t-35 -58v-549q0 -247 -46 -366q-45 -119 -150 -165q-104 -46 -321 -46v92
q127 0 186 74q60 75 60 251v709q0 37 -33.5 53.5t-121.5 22.5v90h1310z" />
    <glyph glyph-name="afii10030" unicode="&#x41c;" horiz-adv-x="1714" 
d="M1530 1055v-834q0 -74 32 -104q34 -29 121 -35v-82q-324 10 -645 0v82q87 6 122 35q34 30 34 104v789l-373 -1010h-28l-424 1010v-789q0 -121 245 -139v-82q-299 11 -583 0v82q231 18 231 139v793q0 77 -51.5 123.5t-140.5 52.5v82q256 -10 512 0l319 -762l283 762
q246 -7 502 0v-82q-90 -6 -123 -33t-33 -102z" />
    <glyph glyph-name="afii10031" unicode="&#x41d;" horiz-adv-x="1470" 
d="M1419 1272v-82q-88 -6 -122 -28q-33 -21 -33 -75v-903q0 -52 33 -75q35 -21 122 -27v-82q-323 10 -645 0v82q88 6 121 27q33 23 33 75v408h-387v-408q0 -52 33 -75q35 -21 122 -27v-82q-322 10 -645 0v82q88 6 121 27q33 23 33 75v903q0 53 -33 75q-32 22 -121 28v82
q323 -10 645 0v-82q-88 -6 -122 -28q-33 -21 -33 -75v-403h387v403q0 53 -33 75q-32 22 -121 28v82q324 -10 645 0z" />
    <glyph glyph-name="afii10032" unicode="&#x41e;" horiz-adv-x="1398" 
d="M700 1305q275 0 450 -184q177 -183 177 -496q0 -287 -180 -473q-180 -185 -449 -185q-272 0 -449 184q-177 185 -177 496q0 288 180 472q180 186 448 186zM737 68q113 0 174.5 132t61.5 373q0 267 -84 449t-221 182q-115 0 -179 -133q-63 -133 -63 -375q0 -269 85 -448
q85 -180 226 -180z" />
    <glyph glyph-name="afii10033" unicode="&#x41f;" horiz-adv-x="1476" 
d="M1425 1272v-90q-88 -6 -121.5 -22.5t-33.5 -53.5v-940q0 -37 33.5 -53.5t121.5 -22.5v-90q-324 10 -645 0v90q87 6 120.5 22.5t33.5 53.5v940q0 40 -35.5 58t-118.5 18h-84q-85 0 -120 -18t-35 -58v-940q0 -37 33.5 -53.5t121.5 -22.5v-90q-322 10 -645 0v90
q87 6 120.5 22.5t33.5 53.5v940q0 37 -33.5 53.5t-120.5 22.5v90h1374z" />
    <glyph glyph-name="afii10034" unicode="&#x420;" horiz-adv-x="1259" 
d="M575 477l-38 -4v-289q0 -53 31 -75q32 -21 120 -27v-82q-319 7 -637 0v82q87 6 118.5 27.5t31.5 74.5v934q0 48 -45 62q-15 4 -88 10v82q81 -4 192 -4q67 0 197 2q24 0 55 0.5t48 1t26 0.5q334 0 478 -93q144 -91 144 -266q0 -181 -152 -288q-151 -104 -481 -148z
M537 1188v-621l30 2q330 23 330 330q0 131 -63 210q-61 79 -189 79h-108z" />
    <glyph glyph-name="afii10035" unicode="&#x421;" horiz-adv-x="1304" 
d="M1153 348h111q-40 -164 -168 -273q-128 -108 -357 -108q-297 0 -482 191q-185 193 -185 491t181 476q181 180 460 180q81 0 179 -27t159 -27q55 0 116 19q11 -189 78 -361h-168q-135 293 -356 293q-295 0 -295 -487q0 -278 98 -460q99 -181 289 -181q105 0 196 63
q93 65 144 211z" />
    <glyph glyph-name="afii10036" unicode="&#x422;" horiz-adv-x="1212" 
d="M1100 1284h82l-70 -283h-80q12 106 -24 140q-35 35 -99 35h-141v-992q0 -53 37 -75q38 -21 139 -27v-82q-342 8 -686 0v82q102 6 138 27q36 23 36 75v992h-119q-67 0 -111 -35q-42 -35 -89 -140h-82l63 283h82q63 -12 266 -12h398q197 0 260 12z" />
    <glyph glyph-name="afii10037" unicode="&#x423;" horiz-adv-x="1339" 
d="M903 1182v90q203 -12 406 0v-90q-70 -8 -108.5 -31.5t-65.5 -75.5l-543 -1040q-11 -20 -17 -26.5t-21 -11.5t-46 -7q-45 0 -55.5 9t4.5 36l153 276l-434 787q0 2 -7 14t-9 14q-1 1 -5 7t-9 11.5t-8 7.5q-35 25 -107 30v90q323 -12 645 0v-90q-79 -8 -104.5 -29t-6.5 -55
l234 -443l219 420q27 50 -8 73q-36 24 -107 34z" />
    <glyph glyph-name="afii10038" unicode="&#x424;" horiz-adv-x="1779" 
d="M1059 168v-2q0 -37 33 -53.5t120 -22.5v-90q-319 10 -643 0v90q87 6 120.5 22.5t33.5 53.5v2q-310 5 -480 125q-171 122 -171 344q0 223 171 344q170 120 480 125q0 37 -33.5 53.5t-120.5 22.5v90q324 -10 643 0v-90q-87 -6 -120 -22.5t-33 -53.5q306 -5 477 -125
q172 -121 172 -344t-172 -344q-171 -120 -477 -125zM723 262v750q-141 -8 -209 -113q-68 -104 -68 -262q0 -157 68 -263q68 -105 209 -112zM1059 1012v-750q138 7 206 112q68 106 68 263q0 158 -68 262q-68 106 -206 113z" />
    <glyph glyph-name="afii10039" unicode="&#x425;" horiz-adv-x="1361" 
d="M801 719l311 -508q45 -70 85 -97t114 -32v-82q-305 10 -606 0v82q135 16 81 102l-170 279l-190 -262q-32 -54 -10.5 -83.5t88.5 -35.5v-82q-201 8 -453 0v82q87 4 146 37.5t112 103.5l248 340l-307 504q-40 65 -82 90q-40 25 -113 33v82q285 -8 584 0v-82
q-115 -18 -70 -94l170 -279l189 258q27 49 1 77.5t-95 37.5v82q220 -8 444 0v-82q-150 -18 -231 -133z" />
    <glyph glyph-name="afii10040" unicode="&#x426;" horiz-adv-x="1476" 
d="M1425 1272v-90q-88 -6 -121.5 -22.5t-33.5 -53.5v-940q0 -37 33.5 -53.5t121.5 -22.5v-366h-82q-6 60 -12 92q-6 33 -24 73q-16 40 -46 62q-67 49 -206 49h-1004v90q87 6 120.5 22.5t33.5 53.5v940q0 37 -33.5 53.5t-120.5 22.5v90q323 -10 645 0v-90
q-88 -6 -121.5 -22.5t-33.5 -53.5v-940q0 -40 35 -58t120 -18h84q83 0 118.5 18t35.5 58v940q0 37 -33.5 53.5t-120.5 22.5v90q322 -10 645 0z" />
    <glyph glyph-name="afii10041" unicode="&#x427;" horiz-adv-x="1476" 
d="M1425 1272v-90q-87 -6 -120 -22.5t-33 -53.5v-940q0 -37 33 -53.5t120 -22.5v-90q-319 10 -643 0v90q87 6 120.5 22.5t33.5 53.5v276l16 133q-31 -44 -51 -68q-24 -27 -69 -65q-90 -77 -257 -77q-103 0 -186 34q-52 22 -92 61q-41 40 -66.5 110.5t-25.5 158.5v377
q0 37 -33.5 53.5t-120.5 22.5v90q323 -10 645 0v-90q-88 -6 -121.5 -22.5t-33.5 -53.5v-361q0 -231 145 -231q94 0 160 68q67 69 90 131v393q0 37 -33.5 53.5t-120.5 22.5v90q324 -10 643 0z" />
    <glyph glyph-name="afii10042" unicode="&#x428;" horiz-adv-x="2131" 
d="M2081 1272v-90q-87 -6 -120.5 -22.5t-33.5 -53.5v-940q0 -37 33.5 -53.5t120.5 -22.5v-90h-2030v90q87 6 120.5 22.5t33.5 53.5v940q0 37 -33.5 53.5t-120.5 22.5v90q323 -10 645 0v-90q-88 -6 -121.5 -22.5t-33.5 -53.5v-940q0 -40 35 -58t120 -18h47q83 0 118.5 18
t35.5 58v940q0 37 -33.5 53.5t-120.5 22.5v90q322 -10 646 0v-90q-87 -6 -120.5 -22.5t-33.5 -53.5v-940q0 -40 35.5 -58t118.5 -18h47q85 0 120 18t35 58v940q0 37 -33.5 53.5t-121.5 22.5v90q322 -10 645 0z" />
    <glyph glyph-name="afii10043" unicode="&#x429;" horiz-adv-x="2131" 
d="M2081 1272v-90q-87 -6 -120.5 -22.5t-33.5 -53.5v-940q0 -37 33.5 -53.5t120.5 -22.5v-366h-82q-7 76 -18 115q-10 40 -37 82q-26 43 -81.5 61t-150.5 18h-1661v90q87 6 120.5 22.5t33.5 53.5v940q0 37 -33.5 53.5t-120.5 22.5v90q323 -10 645 0v-90q-88 -6 -121.5 -22.5
t-33.5 -53.5v-940q0 -40 35 -58t120 -18h47q83 0 118.5 18t35.5 58v940q0 37 -33.5 53.5t-120.5 22.5v90q322 -10 646 0v-90q-87 -6 -120.5 -22.5t-33.5 -53.5v-940q0 -40 35.5 -58t118.5 -18h47q85 0 120 18t35 58v940q0 37 -33.5 53.5t-121.5 22.5v90q322 -10 645 0z" />
    <glyph glyph-name="afii10044" unicode="&#x42a;" horiz-adv-x="1558" 
d="M786 793l72 -2q317 -11 473 -120t156 -292q0 -173 -138 -276q-136 -103 -407 -103q-324 10 -645 0v90q87 6 120.5 22.5t33.5 53.5v1003h-82q-83 0 -124 -30q-41 -29 -93 -117l-27 -43h-105l37 256q4 24 9.5 30.5t25.5 6.5h850v-90q-88 -6 -122 -22.5t-34 -53.5v-313z
M928 90q124 0 186 81q62 82 62 210q0 149 -81 231t-247 86l-62 2v-534q1 -76 142 -76z" />
    <glyph glyph-name="afii10045" unicode="&#x42b;" horiz-adv-x="2013" 
d="M541 793l71 -2q317 -11 473 -120t156 -292q0 -172 -137 -276q-136 -103 -408 -103q-322 10 -645 0v90q87 6 120.5 22.5t33.5 53.5v940q0 37 -33.5 53.5t-120.5 22.5v90q323 -10 645 0v-90q-88 -6 -121.5 -22.5t-33.5 -53.5v-313zM1808 1087v-903q0 -53 34 -75
q35 -21 122 -27v-82q-322 10 -645 0v82q88 6 121 27q33 23 33 75v903q0 53 -33 75q-32 22 -121 28v82q323 -10 645 0v-82q-88 -6 -122 -28q-34 -21 -34 -75zM682 90q124 0 186 81q62 82 62 210q0 149 -81 231t-247 86l-61 2v-534q0 -76 141 -76z" />
    <glyph glyph-name="afii10046" unicode="&#x42c;" horiz-adv-x="1312" 
d="M541 793l71 -2q317 -11 473 -120t156 -292q0 -172 -137 -276q-136 -103 -408 -103q-322 10 -645 0v90q87 6 120.5 22.5t33.5 53.5v940q0 37 -33.5 53.5t-120.5 22.5v90q323 -10 645 0v-90q-88 -6 -121.5 -22.5t-33.5 -53.5v-313zM682 90q124 0 186 81q62 82 62 210
q0 149 -81 231t-247 86l-61 2v-534q0 -76 141 -76z" />
    <glyph glyph-name="afii10047" unicode="&#x42d;" horiz-adv-x="1343" 
d="M639 1305q266 0 449 -190q184 -188 184 -476q0 -311 -183 -492q-181 -180 -485 -180q-227 0 -357 109t-175 272h118q51 -146 146 -211q96 -63 207 -63q165 0 260 146q93 145 110 380h-491v98h496q0 504 -283 504q-225 0 -369 -293h-178q76 174 88 361q62 -15 115 -17
q47 0 151 26q106 26 197 26z" />
    <glyph glyph-name="afii10048" unicode="&#x42e;" horiz-adv-x="2052" 
d="M1354 1305q275 0 450 -184q176 -184 176 -496q0 -287 -180 -473q-180 -185 -448 -185q-254 0 -427 162q-174 163 -196 440h-188v-385q0 -52 33 -75q35 -21 122 -27v-82q-322 10 -645 0v82q88 6 121 27q33 23 33 75v903q0 53 -33 75q-32 22 -121 28v82q323 -10 645 0v-82
q-88 -6 -122 -28q-33 -21 -33 -75v-415h184q7 278 188 456q181 177 441 177zM1391 68q113 0 174 132t61 373q0 267 -84 449t-221 182q-115 0 -179 -133q-63 -133 -63 -375q0 -269 85 -448q86 -180 227 -180z" />
    <glyph glyph-name="afii10049" unicode="&#x42f;" horiz-adv-x="1359" 
d="M1159 1118v-934q0 -53 31.5 -74.5t118.5 -27.5v-82q-319 7 -637 0v82q87 6 119 27q32 23 32 75v289l-39 4h-2l-166 -233q-45 -63 -92 -110q-29 -28 -68 -53.5t-59 -35t-61 -28.5q-40 -17 -95 -23q-67 -7 -80 -8q-32 -2 -75 -2l-55 90q81 11 152 74q70 61 173 200l142 189
q-346 106 -346 376q0 175 144 266q144 93 478 93q9 0 25.5 -0.5t47 -1t55.5 -0.5q217 -5 390 2v-82q-99 -7 -118 -25q-13 -13 -15 -47zM793 569l30 -2v621h-108q-127 0 -190 -79q-62 -80 -62 -210q0 -307 330 -330z" />
    <glyph glyph-name="afii10065" unicode="&#x430;" horiz-adv-x="1153" 
d="M979 754v-502q0 -130 133 -143v-86q-154 -1 -385 -52q-45 18 -57 58l10 123h-21q-103 -179 -307 -181q-128 0 -214 70q-87 70 -87 205q0 142 132 228t474 159v125q0 118 -29 164q-28 45 -91 45q-77 0 -108 -51q-33 -51 -34 -109q-2 -59 -36 -110q-33 -50 -113 -50
q-135 0 -135 117t145 198q145 82 371 82q80 0 134 -10.5t106 -39.5q112 -60 112 -240zM483 111q109 0 174 161v293q-91 -23 -154.5 -63t-90.5 -88q-41 -78 -41 -144q0 -73 29.5 -116t82.5 -43z" />
    <glyph glyph-name="afii10066" unicode="&#x431;" horiz-adv-x="1148" 
d="M588 1042q190 0 344 -123q80 -62 126 -171.5t46 -245.5q0 -126 -47 -231q-46 -102 -124 -165q-160 -126 -345 -126q-196 0 -348 136q-78 72 -123 195t-45 279q0 134 12 240q12 109 49 214q39 110 95 178q61 75 159 117.5t223 42.5h297q70 0 97 7q28 7 67 43h37
q0 -63 -65 -158q-32 -50 -94.5 -82.5t-137.5 -32.5h-274q-259 0 -320 -268q75 69 176 110q102 41 195 41zM614 74q146 0 148 344q0 250 -54 390q-53 140 -145 140q-147 0 -147 -387q0 -217 54 -352t144 -135z" />
    <glyph glyph-name="afii10067" unicode="&#x432;" horiz-adv-x="1259" 
d="M834 575q182 -33 273.5 -102t90.5 -174q0 -134 -131 -217q-130 -82 -393 -82h-633v90q88 6 118 21q31 16 31 53v700q0 35 -29 50.5t-104 21.5v90q81 -4 191 -4q68 0 194 2q25 0 53.5 0.5t43.5 1t22 0.5q512 0 512 -244q0 -69 -55 -117.5t-184 -89.5zM600 934h-88v-359
q141 32 195 77q57 46 57 130q0 68 -44 110t-120 42zM610 100h35q99 0 158 56t59 153q0 98 -51 153.5t-156 57.5l-143 -33v-313q0 -43 16 -59q16 -15 82 -15z" />
    <glyph glyph-name="afii10068" unicode="&#x433;" horiz-adv-x="1069" 
d="M991 989l37 -256h-104l-27 43q-52 88 -93 118q-40 30 -124 30h-164v-758q0 -37 33.5 -53.5t120.5 -22.5v-90q-313 7 -629 0v90q87 6 120.5 22.5t33.5 53.5v694q0 37 -33.5 53.5t-120.5 22.5v90h915q20 0 25.5 -6.5t9.5 -30.5z" />
    <glyph glyph-name="afii10069" unicode="&#x434;" horiz-adv-x="1294" 
d="M1253 1026v-90q-87 -6 -120 -22.5t-33 -53.5v-694q0 -37 33 -53.5t120 -22.5v-305h-82q-7 61 -17 95q-9 33 -37 65q-26 31 -80 43t-152 12h-496q-98 0 -152 -12t-81 -43q-27 -33 -36 -65q-9 -31 -18 -95h-82v305q128 0 186 75q60 75 60 251v444q0 37 -33.5 53.5
t-121.5 22.5v90h1142zM346 90h279q87 6 120 22.5t33 53.5v694q0 40 -35 58t-118 18h-17q-83 0 -118 -18t-35 -58v-299q0 -186 -23 -299q-22 -110 -86 -172z" />
    <glyph glyph-name="afii10070" unicode="&#x435;" horiz-adv-x="1071" 
d="M901 215h86q-111 -238 -389 -238q-222 0 -380 144q-157 145 -157 393q0 250 152 390t356 140q194 0 318 -122q123 -121 123 -287q0 -81 -30.5 -117.5t-100.5 -36.5h-486q0 -169 63 -291q64 -120 210 -120q162 0 235 145zM393 565h326q0 200 -35 294.5t-117 94.5
q-84 0 -129 -101t-45 -288z" />
    <glyph glyph-name="afii10072" unicode="&#x436;" horiz-adv-x="1976" 
d="M1397 678l266 -365q117 -157 180 -207q58 -45 113 -51l-76 -90q-71 0 -108 4q-45 5 -100 22q-115 34 -210 159l-243 325l-70 -78v-231q0 -37 32 -54q32 -16 122 -22v-90q-189 4 -314 4q-126 0 -315 -4v90q87 6 120 22.5t33 53.5v231l-69 78l-244 -325q-97 -125 -210 -159
q-56 -17 -100 -22q-37 -4 -108 -4l-76 90q82 7 167 102q24 27 62 72q33 42 64 84l267 365l-154 172q-34 39 -51 48q-15 9 -39 9q-21 0 -34 -19q-12 -17 -22 -42q-7 -22 -35 -42q-25 -18 -71 -18q-49 0 -83 30.5t-34 86.5q0 62 50 99.5t137 37.5q92 0 172 -57
q81 -58 200 -195l211 -235v307q0 37 -33 53.5t-120 22.5v90q189 -4 315 -4q123 0 314 4v-90q-87 -6 -120.5 -22.5t-33.5 -53.5v-307l211 235q124 140 200 194q79 58 173 58q87 0 136.5 -37t49.5 -100q1 -43 -21 -72t-53.5 -38t-63.5 -6.5t-51 17.5q-27 21 -34 42
q-21 61 -56 61q-25 0 -40 -9q-16 -10 -50 -48z" />
    <glyph glyph-name="afii10073" unicode="&#x437;" horiz-adv-x="1036" 
d="M721 596q109 -10 181 -81q73 -70 73 -173q0 -156 -145 -259q-143 -103 -357 -103q-151 0 -264 81q-111 82 -148 230h125q73 -217 273 -217q101 0 156 70q57 70 57 180q0 74 -33 122t-82 48q-33 0 -135 -39l-41 96l80 33q145 66 145 196q0 74 -33 120t-92 46
q-144 2 -223 -217h-180q63 146 69 295q69 -20 113 -20q32 0 104 19t156 19q164 0 258 -69q94 -67 94 -168q1 -120 -151 -209z" />
    <glyph glyph-name="afii10074" unicode="&#x438;" horiz-adv-x="1406" 
d="M1366 1026v-90q-88 -6 -122 -22.5t-34 -53.5v-694q0 -37 34 -53.5t122 -22.5v-90q-315 7 -631 0v90q87 6 120.5 22.5t33.5 53.5v493l-373 -436v-57q0 -37 33.5 -53.5t120.5 -22.5v-90q-313 7 -629 0v90q87 6 120.5 22.5t33.5 53.5v694q0 37 -33.5 53.5t-120.5 22.5v90
q315 -8 629 0v-90q-87 -6 -120.5 -22.5t-33.5 -53.5v-504l373 437v67q0 37 -33.5 53.5t-120.5 22.5v90q315 -7 631 0z" />
    <glyph glyph-name="afii10075" unicode="&#x439;" horiz-adv-x="1406" 
d="M387 1452h141q10 -43 59 -72.5t115 -29.5q67 0 115 29t60 73h141q-8 -141 -96 -213t-220 -72q-130 0 -219 72t-96 213zM1366 1026v-90q-88 -6 -122 -22.5t-34 -53.5v-694q0 -37 34 -53.5t122 -22.5v-90q-315 7 -631 0v90q87 6 120.5 22.5t33.5 53.5v493l-373 -436v-57
q0 -37 33.5 -53.5t120.5 -22.5v-90q-313 7 -629 0v90q87 6 120.5 22.5t33.5 53.5v694q0 37 -33.5 53.5t-120.5 22.5v90q315 -8 629 0v-90q-87 -6 -120.5 -22.5t-33.5 -53.5v-504l373 437v67q0 37 -33.5 53.5t-120.5 22.5v90q315 -7 631 0z" />
    <glyph glyph-name="afii10076" unicode="&#x43a;" horiz-adv-x="1363" 
d="M764 678l266 -365q117 -157 180 -207q58 -45 113 -51l-76 -90q-71 0 -108 4q-45 5 -100 22q-111 33 -210 159l-243 325l-70 -78v-231q0 -37 33.5 -53.5t120.5 -22.5v-90q-313 7 -629 0v90q87 6 120.5 22.5t33.5 53.5v694q0 37 -33.5 53.5t-120.5 22.5v90q315 -8 629 0
v-90q-87 -6 -120.5 -22.5t-33.5 -53.5v-307l211 235q123 138 201 194q79 58 172 58q87 0 136.5 -37t49.5 -100q1 -43 -21 -72t-53.5 -38t-63.5 -6.5t-51 17.5q-27 21 -34 42q-21 61 -55 61q-25 0 -41 -9q-14 -8 -49 -48z" />
    <glyph glyph-name="afii10077" unicode="&#x43b;" horiz-adv-x="1378" 
d="M1337 1026v-90q-88 -6 -121.5 -22.5t-33.5 -53.5v-694q0 -37 33.5 -53.5t121.5 -22.5v-90q-315 8 -630 0v90q88 6 121.5 22.5t33.5 53.5v694q0 40 -35 58t-120 18h-15q-85 0 -120 -18t-35 -58v-303q0 -247 -46 -366q-45 -119 -150 -165q-104 -46 -321 -46v92
q127 0 186 74q60 75 60 251v463q0 37 -33.5 53.5t-121.5 22.5v90h1226z" />
    <glyph glyph-name="afii10078" unicode="&#x43c;" horiz-adv-x="1636" 
d="M1442 862v-696q0 -37 33 -53.5t120 -22.5v-90q-307 7 -602 0v90q81 6 103 21q24 17 24 55v571l-350 -737l-391 735v-569q0 -34 51.5 -50.5t165.5 -25.5v-90q-276 8 -555 0v90q231 18 231 76v655q0 41 -54 75q-53 34 -138 40v90q244 -10 485 0l291 -551l258 551
q244 -8 483 0v-92q-89 -4 -122 -19.5t-33 -52.5z" />
    <glyph glyph-name="afii10079" unicode="&#x43d;" horiz-adv-x="1406" 
d="M1366 1026v-90q-88 -6 -122 -22.5t-34 -53.5v-694q0 -37 34 -53.5t122 -22.5v-90q-315 7 -631 0v90q87 6 120.5 22.5t33.5 53.5v293h-373v-293q0 -37 33.5 -53.5t120.5 -22.5v-90q-313 7 -629 0v90q87 6 120.5 22.5t33.5 53.5v694q0 37 -33.5 53.5t-120.5 22.5v90
q315 -8 629 0v-90q-87 -6 -120.5 -22.5t-33.5 -53.5v-282h373v282q0 37 -33.5 53.5t-120.5 22.5v90q315 -7 631 0z" />
    <glyph glyph-name="afii10080" unicode="&#x43e;" 
d="M580 1044q193 0 354 -143q162 -143 162 -393q0 -129 -47.5 -235.5t-127.5 -170.5q-159 -125 -343 -125q-192 0 -355 143q-162 144 -162 394q0 130 47.5 236.5t126.5 168.5q157 125 345 125zM612 68q73 0 110.5 89.5t37.5 248.5q0 243 -61 395q-60 153 -154 153
q-73 0 -110.5 -88.5t-37.5 -247.5q0 -242 60 -396q61 -154 155 -154z" />
    <glyph glyph-name="afii10081" unicode="&#x43f;" horiz-adv-x="1406" 
d="M1366 1026v-90q-88 -6 -122 -22.5t-34 -53.5v-694q0 -37 34 -53.5t122 -22.5v-90q-315 7 -631 0v90q87 6 120.5 22.5t33.5 53.5v694q0 40 -35.5 58t-118.5 18h-65q-83 0 -118.5 -18t-35.5 -58v-694q0 -37 33.5 -53.5t120.5 -22.5v-90q-313 7 -629 0v90q87 6 120.5 22.5
t33.5 53.5v694q0 37 -33.5 53.5t-120.5 22.5v90h1325z" />
    <glyph glyph-name="afii10082" unicode="&#x440;" horiz-adv-x="1255" 
d="M735 1044q176 0 317 -142q142 -142 142 -396q0 -134 -44 -242t-119 -169q-149 -118 -312 -118q-138 0 -242 97v-174q0 -70 32 -93.5t112 -19.5v-84q-250 -34 -439 -147q-49 12 -65 67q39 55 39 207v901q0 65 -30.5 87.5t-94.5 10.5v82q243 45 397 138q46 -20 59 -60
q-4 -29 -4 -47q109 102 252 102zM696 70q152 0 152 352q0 248 -55.5 383t-157.5 135q-78 0 -156 -78q-2 -70 -2 -182v-361q6 -108 75 -179q70 -70 144 -70z" />
    <glyph glyph-name="afii10083" unicode="&#x441;" horiz-adv-x="1069" 
d="M911 215h88q-112 -238 -387 -238q-227 0 -389 141q-162 142 -162 402q0 250 161 387t376 137q170 0 290 -81q120 -79 120 -203q0 -50 -36 -91q-36 -40 -106 -40q-65 0 -101 37.5t-36 93.5q0 82 -18 130q-22 64 -101 64q-105 0 -158 -113q-51 -113 -51 -296
q0 -132 22 -230t89 -173q66 -72 170 -72q165 0 229 145z" />
    <glyph glyph-name="afii10084" unicode="&#x442;" horiz-adv-x="1173" 
d="M1042 1038h111l-80 -270h-106q16 108 -7 138q-22 30 -83 30h-125v-770q0 -37 33 -53.5t120 -22.5v-90q-315 7 -631 0v90q88 6 122 22.5t34 53.5v770h-131q-51 0 -81 -31t-79 -137h-108l69 270h111q63 -12 240 -12h356q172 0 235 12z" />
    <glyph glyph-name="afii10085" unicode="&#x443;" horiz-adv-x="1224" 
d="M764 942v84h430v-84l-68 -4q-34 0 -56 -22q-22 -21 -36 -45q-11 -22 -30 -74l-492 -1237h-123l180 417l-364 824q-32 73 -55.5 104t-53.5 33l-65 4v84h569v-84l-59 -4q-41 -2 -50.5 -39t15.5 -100l201 -486l196 484q24 66 6.5 101.5t-71.5 39.5z" />
    <glyph glyph-name="afii10086" unicode="&#x444;" horiz-adv-x="1773" 
d="M1300 1042q156 0 284 -137t128 -370q0 -271 -131 -414q-131 -141 -293 -141q-182 0 -239 137v-361q0 -37 32.5 -53t120.5 -22v-91q-315 7 -631 0v91q90 6 123 21.5t33 53.5v365q-59 -141 -240 -141q-153 0 -283 128q-65 66 -104 177.5t-39 249.5q0 233 128 370t284 137
q168 0 254 -141v203q0 116 -131 90v88q100 18 183 52q43 17 92 39.5t72.5 32t37.5 9.5q38 0 53 -18.5t15 -61.5v-434q81 141 251 141zM559 76q67 0 110 61q45 63 58 150v514q-31 56 -87 100q-55 43 -116 43q-143 0 -143 -409q0 -189 50 -325q50 -134 128 -134zM1214 76
q78 0 128 134q51 134 51 325q0 411 -144 409q-58 0 -116 -44q-55 -44 -84 -99v-514q13 -88 56 -150q43 -61 109 -61z" />
    <glyph glyph-name="afii10087" unicode="&#x445;" horiz-adv-x="1159" 
d="M1081 88l37 -6v-82q-274 10 -540 0v84l32 4q59 6 8 92l-98 158l-110 -154q-26 -39 -18 -67.5t42 -28.5l76 -4v-84q-236 11 -469 0v82l33 6q80 12 122 40q44 28 93 93l162 225l-244 385q-62 99 -131 107l-37 6v82h553v-84l-31 -2q-69 -8 -16 -100l90 -140l102 142
q26 39 11.5 67.5t-56.5 30.5l-57 2v84h465v-82l-29 -6q-79 -12 -125 -41q-44 -28 -90 -92l-151 -211l256 -399q38 -62 60 -82q20 -19 60 -25z" />
    <glyph glyph-name="afii10088" unicode="&#x446;" horiz-adv-x="1406" 
d="M41 936v90q315 -8 629 0v-90q-87 -6 -120.5 -22.5t-33.5 -53.5v-694q0 -40 35.5 -58t118.5 -18v-90h-629v90q87 6 120.5 22.5t33.5 53.5v694q0 37 -33.5 53.5t-120.5 22.5zM1366 1026v-90q-88 -6 -122 -22.5t-34 -53.5v-694q0 -37 34 -53.5t122 -22.5v-305h-84
q-7 81 -25 123q-37 92 -262 92h-307v90h47q83 0 118.5 18t35.5 58v694q0 37 -33.5 53.5t-120.5 22.5v90q315 -7 631 0z" />
    <glyph glyph-name="afii10089" unicode="&#x447;" horiz-adv-x="1413" 
d="M1372 1026v-90q-87 -6 -120 -22.5t-33 -53.5v-694q0 -37 33 -53.5t120 -22.5v-90q-315 8 -629 0v90q87 6 120.5 22.5t33.5 53.5v149l16 134q-24 -36 -50 -69q-20 -25 -66 -65q-89 -75 -234 -75q-184 0 -276.5 89t-91.5 267v264q0 37 -33.5 53.5t-120.5 22.5v90
q322 -10 629 0v-90q-87 -6 -120.5 -22.5t-33.5 -53.5v-248q0 -223 148 -223q84 0 148 67q66 69 85 130v274q0 37 -33.5 53.5t-120.5 22.5v90q313 -7 629 0z" />
    <glyph glyph-name="afii10090" unicode="&#x448;" horiz-adv-x="1984" 
d="M1944 1026v-90q-87 -6 -120.5 -22.5t-33.5 -53.5v-694q0 -37 32 -54q32 -16 122 -22v-90h-1903v90q87 6 120.5 22.5t33.5 53.5v694q0 37 -33.5 53.5t-120.5 22.5v90q311 -8 621 0v-90q-87 -6 -116 -22q-30 -15 -30 -54v-694q0 -40 35.5 -58t118.5 -18h8q83 0 118 18
t35 58v694q0 39 -29 54q-28 16 -114 22v90q303 -8 608 0v-90q-88 -6 -115 -22q-28 -15 -28 -54v-694q0 -40 35.5 -58t118.5 -18h8q83 0 118 18t35 58v694q0 39 -30 54q-27 16 -115 22v90q311 -8 621 0z" />
    <glyph glyph-name="afii10091" unicode="&#x449;" horiz-adv-x="1984" 
d="M1944 1026v-90q-87 -6 -120.5 -22.5t-33.5 -53.5v-694q0 -37 32 -54q32 -16 122 -22v-305h-82q-8 64 -18 95q-9 33 -37 65q-26 31 -80 43t-152 12h-1534v90q87 6 120.5 22.5t33.5 53.5v694q0 37 -33.5 53.5t-120.5 22.5v90q311 -8 621 0v-90q-87 -6 -116 -22
q-30 -15 -30 -54v-694q0 -40 35.5 -58t118.5 -18h8q83 0 118 18t35 58v694q0 39 -29 54q-28 16 -114 22v90q303 -8 608 0v-90q-88 -6 -115 -22q-28 -15 -28 -54v-694q0 -37 33.5 -53.5t120.5 -22.5h8q83 0 118 18t35 58v694q0 39 -30 54q-27 16 -115 22v90q311 -8 621 0z
" />
    <glyph glyph-name="afii10092" unicode="&#x44a;" horiz-adv-x="1452" 
d="M750 715h28q306 -12 460 -113q153 -100 153 -258q0 -166 -129 -255q-130 -89 -422 -89q-7 0 -149 2q-227 5 -396 -2v90q75 6 104 21.5t29 50.5v774h-59q-55 0 -93 -23q-39 -23 -57 -47t-57 -90l-27 -43h-104l37 256q4 24 9.5 30.5t24.5 6.5h797v-90q-88 -6 -119 -22
q-30 -15 -30 -52v-147zM883 92q92 0 143 65.5t51 178.5q0 263 -299 280h-28v-522q46 -2 133 -2z" />
    <glyph glyph-name="afii10093" unicode="&#x44b;" horiz-adv-x="1890" 
d="M512 862v-147h31q305 -12 457 -113q153 -100 153 -258q0 -166 -129 -255q-130 -89 -422 -89q-7 0 -149 2q-226 5 -396 -2v90q75 6 104 21.5t29 50.5v700q0 37 -31 52q-29 16 -118 22v90q311 -8 621 0v-90q-88 -6 -119 -22q-31 -15 -31 -52zM1696 860v-694q0 -37 33 -53.5
t120 -22.5v-90q-313 7 -628 0v90q87 6 120 22.5t33 53.5v694q0 37 -33 53.5t-120 22.5v90q315 -7 628 0v-90q-87 -6 -120 -22.5t-33 -53.5zM543 616h-31v-522q46 -2 133 -2q94 0 145.5 65.5t51.5 178.5q0 263 -299 280z" />
    <glyph glyph-name="afii10094" unicode="&#x44c;" horiz-adv-x="1193" 
d="M512 862v-147h31q305 -12 457 -113q153 -100 153 -258q0 -166 -129 -255q-130 -89 -422 -89q-7 0 -149 2q-226 5 -396 -2v90q75 6 104 21.5t29 50.5v700q0 37 -31 52q-29 16 -118 22v90q311 -8 621 0v-90q-88 -6 -119 -22q-31 -15 -31 -52zM543 616h-31v-522
q46 -2 133 -2q94 0 145.5 65.5t51.5 178.5q0 263 -299 280z" />
    <glyph glyph-name="afii10095" unicode="&#x44d;" horiz-adv-x="1087" 
d="M483 1047q221 0 382 -141q161 -140 161 -402q0 -167 -82 -288q-79 -118 -194 -175t-252 -57q-187 0 -312 79q-125 80 -125 203q0 56 36 88.5t108 32.5q68 0 100.5 -33t28.5 -88q-17 -188 133 -188q207 0 213 399h-297v109h295q-12 160 -70 262q-57 104 -164 104
q-158 0 -202 -135q-12 -29 -43 -29h-49q-26 0 -32 21.5t7 44.5q43 92 136 142.5t222 50.5z" />
    <glyph glyph-name="afii10096" unicode="&#x44e;" horiz-adv-x="1826" 
d="M1249 1044q193 0 354 -143q162 -143 162 -393q0 -130 -47 -236t-127 -170q-160 -125 -344 -125q-112 0 -220 50q-107 51 -191 161q-85 112 -101 261h-219v-283q0 -37 33.5 -53.5t120.5 -22.5v-90q-313 7 -629 0v90q87 6 120.5 22.5t33.5 53.5v694q0 37 -33.5 53.5
t-120.5 22.5v90q315 -8 629 0v-90q-87 -6 -120.5 -22.5t-33.5 -53.5v-317h215q11 242 169 371q158 130 349 130zM1282 68q73 0 110.5 89.5t37.5 248.5q0 243 -61 395q-60 153 -155 153q-73 0 -110 -88.5t-37 -247.5q0 -242 60 -396q61 -154 155 -154z" />
    <glyph glyph-name="afii10097" unicode="&#x44f;" horiz-adv-x="1245" 
d="M1053 864v-700q0 -37 31 -53q32 -15 120 -21v-90q-311 8 -622 0v90q88 6 118 21q31 16 31 53v147h-29l-90 6l-53 -90q-104 -175 -244 -216q-63 -18 -109 -23q-36 -4 -102 -4h-20l-53 90q185 22 303 258l18 39q-260 98 -260 311q0 166 128 255t421 89q8 0 148 -2
q230 -5 399 2v-90q-75 -6 -105 -21.5t-30 -50.5zM702 412l29 -2v522q-46 2 -133 2q-93 0 -144 -65.5t-51 -178.5q0 -266 299 -278z" />
    <glyph glyph-name="afii10071" unicode="&#x451;" horiz-adv-x="1071" 
d="M305 1147q-59 0 -103 44t-44 103t44 103q43 43 103 43q61 0 103 -43q43 -43 43 -103q0 -61 -43 -104q-42 -43 -103 -43zM872 1191q-44 -44 -102 -44q-59 0 -103 44t-44 103t44 103q43 43 103 43q59 0 102 -43t43 -103t-43 -103zM901 215h86q-111 -238 -389 -238
q-222 0 -380 144q-157 145 -157 393q0 250 152 390t356 140q194 0 318 -122q123 -121 123 -287q0 -81 -30.5 -117.5t-100.5 -36.5h-486q0 -169 63 -291q64 -120 210 -120q162 0 235 145zM393 565h326q0 200 -35 294.5t-117 94.5q-84 0 -129 -101t-45 -288z" />
    <glyph glyph-name="afii10100" unicode="&#x453;" horiz-adv-x="1069" 
d="M680 1270l-342 -121l-35 53l277 238q49 41 96 41t78 -41q31 -43 9 -95q-23 -53 -83 -75zM991 989l37 -256h-104l-27 43q-52 88 -93 118q-40 30 -124 30h-164v-758q0 -37 33.5 -53.5t120.5 -22.5v-90q-313 7 -629 0v90q87 6 120.5 22.5t33.5 53.5v694q0 37 -33.5 53.5
t-120.5 22.5v90h915q20 0 25.5 -6.5t9.5 -30.5z" />
    <glyph glyph-name="afii10101" unicode="&#x454;" horiz-adv-x="1087" 
d="M883 387q72 0 107.5 -32.5t35.5 -88.5q0 -123 -125 -203q-124 -79 -311 -79q-132 0 -248 55t-199 177q-82 121 -82 288q0 262 161 402q160 141 382 141q129 0 222.5 -50.5t136.5 -142.5q13 -23 7 -44.5t-32 -21.5h-49q-31 0 -43 29q-45 135 -203 135q-105 0 -164 -105
q-57 -103 -69 -261h295v-109h-297q6 -399 213 -399q150 0 133 188q-4 55 28.5 88t100.5 33z" />
    <glyph glyph-name="afii10103" unicode="&#x456;" horiz-adv-x="661" 
d="M440 1196q-46 -49 -117 -49q-69 0 -118 49t-49 118q0 71 49 117q49 48 118 48q71 0 117 -48q47 -47 47 -117q0 -68 -47 -118zM489 680v-522q0 -61 132 -76v-82q-289 6 -580 0v82q127 13 127 76v573q0 65 -30.5 87t-96.5 11v82q240 43 399 138q42 -17 62 -60
q-11 -93 -13 -309z" />
    <glyph glyph-name="afii10104" unicode="&#x457;" horiz-adv-x="894" 
d="M80 1147q-59 0 -103 44q-45 43 -45 103q0 59 44 103q43 43 104 43t103 -43t42 -103t-42 -104q-42 -43 -103 -43zM647 1191q-44 -44 -103 -44t-103 44t-44 103t44 103q43 43 103 43t103 -43t43 -103t-43 -103zM608 860v-694q0 -37 33.5 -53.5t120.5 -22.5v-90
q-315 8 -629 0v90q87 6 120.5 22.5t33.5 53.5v694q0 37 -33.5 53.5t-120.5 22.5v90q313 -7 629 0v-90q-87 -6 -120.5 -22.5t-33.5 -53.5z" />
    <glyph glyph-name="afii10109" unicode="&#x45c;" horiz-adv-x="1363" 
d="M829 1270l-342 -121l-34 53l276 238q49 41 96 41t78 -41q31 -43 9 -95q-23 -53 -83 -75zM764 678l266 -365q117 -157 180 -207q58 -45 113 -51l-76 -90q-71 0 -108 4q-45 5 -100 22q-111 33 -210 159l-243 325l-70 -78v-231q0 -37 33.5 -53.5t120.5 -22.5v-90
q-313 7 -629 0v90q87 6 120.5 22.5t33.5 53.5v694q0 37 -33.5 53.5t-120.5 22.5v90q315 -8 629 0v-90q-87 -6 -120.5 -22.5t-33.5 -53.5v-307l211 235q123 138 201 194q79 58 172 58q87 0 136.5 -37t49.5 -100q1 -43 -21 -72t-53.5 -38t-63.5 -6.5t-51 17.5q-27 21 -34 42
q-21 61 -55 61q-25 0 -41 -9q-14 -8 -49 -48z" />
    <glyph glyph-name="afii10110" unicode="&#x45e;" horiz-adv-x="1224" 
d="M303 1452h141q10 -43 59 -72.5t115 -29.5q67 0 115 29t60 73h141q-8 -141 -96 -213t-220 -72q-130 0 -219 72t-96 213zM764 942v84h430v-84l-68 -4q-34 0 -56 -22q-22 -21 -36 -45q-11 -22 -30 -74l-492 -1237h-123l180 417l-364 824q-32 73 -55.5 104t-53.5 33l-65 4v84
h569v-84l-59 -4q-41 -2 -50.5 -39t15.5 -100l201 -486l196 484q24 66 6.5 101.5t-71.5 39.5z" />
    <glyph glyph-name="afii10050" unicode="&#x490;" horiz-adv-x="1134" 
d="M973 1419l26 43h105l-37 -256q-4 -24 -9.5 -30.5t-25.5 -6.5h-491v-1003q0 -37 33.5 -53.5t121.5 -22.5v-90q-322 10 -645 0v90q87 6 120.5 22.5t33.5 53.5v940q0 37 -33.5 53.5t-120.5 22.5v90h705q83 0 124 29q41 30 93 118z" />
    <glyph glyph-name="afii10098" unicode="&#x491;" horiz-adv-x="1058" 
d="M887 1174l26 43h105l-37 -256q-4 -24 -9.5 -30.5t-25.5 -6.5h-430v-758q0 -37 33.5 -53.5t120.5 -22.5v-90q-313 7 -629 0v90q87 6 120.5 22.5t33.5 53.5v694q0 37 -33.5 53.5t-120.5 22.5v90h629q83 0 124 29q40 30 93 119z" />
    <glyph glyph-name="uni04D0" unicode="&#x4d0;" horiz-adv-x="1437" 
d="M403 1698h142q10 -44 58.5 -73.5t114.5 -29.5q68 0 116 30q48 29 59 73h141q-8 -141 -96 -213t-219 -72q-130 0 -219 71q-88 72 -97 214zM819 1282l367 -983q43 -116 90 -163q46 -46 141 -54v-82q-343 8 -684 0v82q96 6 133.5 30t18.5 78l-78 213h-377l-68 -206
q-20 -59 36 -85t192 -30v-82q-290 10 -570 0v82q113 8 166 41q54 33 78 104l361 1055h194zM604 948l-145 -454h313z" />
    <glyph glyph-name="uni04D1" unicode="&#x4d1;" horiz-adv-x="1153" 
d="M246 1452h141q10 -43 59 -72.5t115 -29.5q67 0 116 29q48 30 58 73h142q-7 -140 -97 -213q-88 -72 -219 -72t-219 72t-96 213zM979 754v-502q0 -130 133 -143v-86q-154 -1 -385 -52q-45 18 -57 58l10 123h-21q-103 -179 -307 -181q-128 0 -214 70q-87 70 -87 205
q0 142 132 228t474 159v125q0 118 -29 164q-28 45 -91 45q-77 0 -108 -51q-33 -51 -34 -109q-2 -59 -36 -110q-33 -50 -113 -50q-135 0 -135 117t145 198q145 82 371 82q80 0 134 -10.5t106 -39.5q112 -60 112 -240zM483 111q109 0 174 161v293q-91 -23 -154.5 -63
t-90.5 -88q-41 -78 -41 -144q0 -73 29.5 -116t82.5 -43z" />
    <glyph glyph-name="uni04D2" unicode="&#x4d2;" horiz-adv-x="1437" 
d="M487 1393q-59 0 -103 44t-44 103q0 58 44 102t103 44q61 0 103 -44q43 -43 43 -102q0 -61 -43 -104q-42 -43 -103 -43zM1055 1437q-44 -44 -103 -44t-103 44t-44 103q0 58 44 102t103 44t103 -44q43 -43 43 -102q0 -60 -43 -103zM819 1282l367 -983q43 -116 90 -163
q46 -46 141 -54v-82q-343 8 -684 0v82q96 6 133.5 30t18.5 78l-78 213h-377l-68 -206q-20 -59 36 -85t192 -30v-82q-290 10 -570 0v82q113 8 166 41q54 33 78 104l361 1055h194zM604 948l-145 -454h313z" />
    <glyph glyph-name="uni04D3" unicode="&#x4d3;" horiz-adv-x="1153" 
d="M330 1147q-58 0 -104 44q-44 44 -44 103t44 103q43 43 104 43t103 -43t42 -103t-42 -104q-42 -43 -103 -43zM897 1191q-44 -44 -103 -44t-103 44t-44 103t44 103q43 43 103 43t103 -43t43 -103t-43 -103zM979 754v-502q0 -130 133 -143v-86q-154 -1 -385 -52
q-45 18 -57 58l10 123h-21q-103 -179 -307 -181q-128 0 -214 70q-87 70 -87 205q0 142 132 228t474 159v125q0 118 -29 164q-28 45 -91 45q-77 0 -108 -51q-33 -51 -34 -109q-2 -59 -36 -110q-33 -50 -113 -50q-135 0 -135 117t145 198q145 82 371 82q80 0 134 -10.5
t106 -39.5q112 -60 112 -240zM483 111q109 0 174 161v293q-91 -23 -154.5 -63t-90.5 -88q-41 -78 -41 -144q0 -73 29.5 -116t82.5 -43z" />
    <glyph glyph-name="uni04D6" unicode="&#x4d6;" 
d="M264 1698h142q10 -44 58.5 -73.5t114.5 -29.5q67 0 115 29.5t60 73.5h141q-7 -141 -96 -213t-219 -72q-131 0 -220 71q-89 72 -96 214zM1016 377h80q-72 -201 -70 -377q-500 14 -975 0v82q87 6 118.5 27.5t31.5 74.5v924q0 43 -31 59q-33 17 -119 23v82h938q19 0 25 -7
t10 -30l37 -256h-78l-25 45q-51 95 -99 130q-47 34 -165 34h-98q-59 0 -59 -62v-413h196q76 0 111 26q34 27 51 95h63q-14 -174 0 -347h-63q-18 70 -53.5 98.5t-108.5 28.5h-196v-430q0 -52 21 -72t73 -20h22q111 0 170 33q60 33 107 113z" />
    <glyph glyph-name="uni04D7" unicode="&#x4d7;" horiz-adv-x="1071" 
d="M221 1452h141q10 -43 59 -72.5t115 -29.5q67 0 115 29t60 73h141q-8 -141 -96 -213t-219 -72t-220 72t-96 213zM901 215h86q-111 -238 -389 -238q-222 0 -380 144q-157 145 -157 393q0 250 152 390t356 140q194 0 318 -122q123 -121 123 -287q0 -81 -30.5 -117.5
t-100.5 -36.5h-486q0 -169 63 -291q64 -120 210 -120q162 0 235 145zM393 565h326q0 200 -35 294.5t-117 94.5q-84 0 -129 -101t-45 -288z" />
    <glyph glyph-name="uni04EC" unicode="&#x4ec;" horiz-adv-x="1343" 
d="M442 1393q-59 0 -103 44t-44 103q0 58 44 102t103 44q61 0 103 -44q43 -43 43 -102q0 -61 -43 -104q-42 -43 -103 -43zM1010 1437q-44 -44 -103 -44t-103 44t-44 103q0 58 44 102t103 44t103 -44q43 -43 43 -102q0 -60 -43 -103zM639 1305q266 0 449 -190
q184 -188 184 -476q0 -311 -183 -492q-181 -180 -485 -180q-227 0 -357 109t-175 272h118q51 -146 146 -211q96 -63 207 -63q165 0 260 146q93 145 110 380h-491v98h496q0 504 -283 504q-225 0 -369 -293h-178q76 174 88 361q62 -15 115 -17q47 0 151 26q106 26 197 26z" />
    <glyph glyph-name="uni04ED" unicode="&#x4ed;" horiz-adv-x="1087" 
d="M313 1147q-59 0 -103 44t-44 103t44 103q43 43 103 43q61 0 103 -43q43 -43 43 -103q0 -61 -43 -104q-42 -43 -103 -43zM881 1191q-44 -44 -103 -44t-103 44t-44 103t44 103q43 43 103 43t103 -43t43 -103t-43 -103zM483 1047q221 0 382 -141q161 -140 161 -402
q0 -167 -82 -288q-79 -118 -194 -175t-252 -57q-187 0 -312 79q-125 80 -125 203q0 56 36 88.5t108 32.5q68 0 100.5 -33t28.5 -88q-17 -188 133 -188q207 0 213 399h-297v109h295q-12 160 -70 262q-57 104 -164 104q-158 0 -202 -135q-12 -29 -43 -29h-49q-26 0 -32 21.5
t7 44.5q43 92 136 142.5t222 50.5z" />
    <glyph glyph-name="uni1E0C" unicode="&#x1e0c;" horiz-adv-x="1402" 
d="M631 1272q696 0 696 -641q0 -163 -49 -285q-50 -124 -116 -187t-154 -102t-147 -48q-58 -9 -109 -9q-40 0 -164 18q-121 19 -219 19q-95 0 -171 -13l-77 -12l-70 -12v82q88 19 118 37q32 20 32 69v904q0 52 -28 72t-105 26v82q81 -4 186 -4q57 0 205 2t172 2zM647 92
q305 0 305 543q0 553 -338 553q-46 0 -77 -4v-1004q-1 -44 26.5 -66t83.5 -22zM784 -385q-46 -49 -117 -49q-69 0 -117 49t-48 119q0 69 48 117q49 47 117 47q70 0 117 -47q47 -49 47 -117q0 -69 -47 -119z" />
    <glyph glyph-name="uni1E0D" unicode="&#x1e0d;" horiz-adv-x="1275" 
d="M1102 1075v-823q0 -130 133 -143v-86q-161 -1 -383 -52q-43 16 -61 58l14 96h-14q-29 -65 -95 -106.5t-161 -41.5q-168 0 -314 126q-73 65 -116.5 173t-43.5 240q0 126 42 231t113 169q140 128 312 128q100 0 160 -38q34 -17 49 -32q9 -8 33 -32l10 -10v194
q0 62 -30 84.5t-95 12.5v82q240 44 400 137q41 -18 59 -60q-12 -98 -12 -307zM780 268v563q-94 123 -194 123q-91 0 -140 -103q-49 -102 -49 -271q0 -224 64 -368q65 -144 155 -144q61 0 108 65q49 65 56 135zM519 -149q49 47 118 47q70 0 117 -47q47 -49 47 -117
q0 -69 -47 -119q-46 -49 -117 -49q-70 0 -118 49t-48 119q0 69 48 117z" />
    <glyph glyph-name="uni1E24" unicode="&#x1e24;" horiz-adv-x="1470" 
d="M1419 1272v-82q-88 -6 -122 -28q-33 -21 -33 -75v-903q0 -52 33 -75q35 -21 122 -27v-82q-323 10 -645 0v82q88 6 121 27q33 23 33 75v408h-387v-408q0 -52 33 -75q35 -21 122 -27v-82q-322 10 -645 0v82q88 6 121 27q33 23 33 75v903q0 53 -33 75q-32 22 -121 28v82
q323 -10 645 0v-82q-88 -6 -122 -28q-33 -21 -33 -75v-403h387v403q0 53 -33 75q-32 22 -121 28v82q324 -10 645 0zM617 -149q50 47 118 47q70 0 117 -47q47 -49 47 -117q0 -69 -47 -119q-46 -49 -117 -49q-69 0 -118 49q-48 49 -48 119q0 69 48 117z" />
    <glyph glyph-name="uni1E25" unicode="&#x1e25;" horiz-adv-x="1314" 
d="M1151 684v-526q0 -61 133 -76v-82q-291 8 -588 0v82q135 10 135 76v526q0 217 -141 217q-80 0 -134 -61q-53 -59 -67 -119v-563q0 -61 132 -76v-82q-289 6 -580 0v82q127 13 127 76v968q0 62 -30.5 84.5t-96.5 12.5v82q242 44 399 137q42 -17 62 -60q-11 -93 -13 -307
v-131l-24 -127q45 86 140 158q98 74 239 74q124 0 208 -72q99 -84 99 -293zM537 -149q50 47 118 47q70 0 117 -47q47 -49 47 -117q0 -69 -47 -119q-46 -49 -117 -49q-69 0 -118 49q-48 49 -48 119q0 69 48 117z" />
    <glyph glyph-name="uni1E62" unicode="&#x1e62;" horiz-adv-x="1056" 
d="M688 250q0 76 -54 138q-53 62 -200 136q-94 48 -137 77q-60 40 -112 86q-115 103 -115 263q0 165 116 260q118 95 289 95q80 0 166 -26t98 -26q43 0 49 35h97l18 -307h-78q-103 225 -280 225q-83 0 -129 -45q-47 -45 -47 -110q0 -74 54 -129t175 -111q175 -84 244 -137
q164 -128 164 -318q0 -130 -74 -222q-135 -165 -373 -165q-95 0 -192 45t-125 45q-31 0 -50.5 -18t-23.5 -41h-94l-23 324h94q53 -123 153 -186q101 -62 200 -62q87 0 138.5 47t51.5 127zM653 -385q-46 -49 -117 -49q-69 0 -117 49t-48 119q0 69 48 117q49 47 117 47
q70 0 117 -47q47 -49 47 -117q0 -69 -47 -119z" />
    <glyph glyph-name="uni1E63" unicode="&#x1e63;" horiz-adv-x="923" 
d="M872 287q0 -139 -114 -228q-112 -88 -254 -88q-85 0 -178 40q-92 40 -103 40q-35 0 -35 -51h-94l-26 293h73q35 -104 138 -170q104 -66 194 -66q60 0 95.5 33t35.5 90q0 66 -46 105q-46 38 -142 82q-175 79 -244 139q-111 98 -111 235q0 136 97 218q98 83 248 83
q74 0 152 -29q75 -28 93 -28q45 0 54 41h83l19 -293h-70q-52 118 -130 171q-76 52 -152 52q-65 0 -101.5 -33t-36.5 -89q0 -57 43 -97.5t134 -79.5l8 -4t18.5 -8.5t23.5 -10.5l61 -27q20 -9 61 -32q43 -24 63 -40q20 -15 54 -47q31 -28 48 -57q41 -66 41 -144zM586 -385
q-46 -49 -117 -49q-70 0 -118 49t-48 119q0 69 48 117q49 47 118 47q70 0 117 -47q47 -49 47 -117q0 -69 -47 -119z" />
    <glyph glyph-name="uni1E6C" unicode="&#x1e6c;" horiz-adv-x="1212" 
d="M1100 1284h82l-70 -283h-80q12 106 -24 140q-35 35 -99 35h-141v-992q0 -53 37 -75q38 -21 139 -27v-82q-342 8 -686 0v82q102 6 138 27q36 23 36 75v992h-119q-67 0 -111 -35q-42 -35 -89 -140h-82l63 283h82q63 -12 266 -12h398q197 0 260 12zM494 -149q50 47 118 47
q70 0 117 -47q47 -49 47 -117q0 -69 -47 -119q-46 -49 -117 -49q-69 0 -118 49q-48 49 -48 119q0 69 48 117z" />
    <glyph glyph-name="uni1E6D" unicode="&#x1e6d;" horiz-adv-x="755" 
d="M694 158v-90q-85 -82 -239 -82q-145 0 -224 84t-79 247v615h-111v94q146 0 220 62q72 62 110 217h102v-279h221v-94h-221v-653q0 -175 96 -177q60 0 125 56zM516 -385q-46 -49 -117 -49q-69 0 -118 49q-48 49 -48 119q0 69 48 117q50 47 118 47q70 0 117 -47
q47 -49 47 -117q0 -69 -47 -119z" />
    <glyph glyph-name="Wgrave" unicode="&#x1e80;" horiz-adv-x="2045" 
d="M1217 1395l-343 121q-60 22 -83 74q-21 53 10 96q31 41 78 40.5t96 -40.5l276 -238zM1548 1190v82q238 -8 477 0v-82q-95 -6 -133 -28q-39 -21 -61 -91l-346 -1089h-123l-348 931l-299 -931h-121l-408 1089q-28 73 -56 93q-26 20 -110 26v82q326 -11 664 0v-82
q-102 -5 -142 -28q-41 -23 -18 -91l232 -684l200 680l-2 4q-27 74 -59 95q-31 22 -123 24v82q338 -10 666 0v-82q-94 -4 -131 -28q-38 -23 -15 -91l234 -684l203 684q18 66 -31 90q-47 24 -150 29z" />
    <glyph glyph-name="wgrave" unicode="&#x1e81;" horiz-adv-x="1849" 
d="M1124 1149l-342 121q-60 22 -83 75q-21 52 10 95q31 41 78 41t96 -41l276 -238zM1329 942v84h490v-84l-45 -4q-66 -6 -105 -40t-59 -105l-240 -799h-233l-224 647l-192 -647h-234l-274 797q-18 50 -32 79q-28 61 -107 68l-43 4v84h573v-84l-39 -4q-94 -10 -47 -147
l180 -558l164 560q-19 53 -32 78q-28 60 -107 67l-43 4v84h573v-84l-39 -4q-94 -10 -47 -147l181 -558l161 560q19 71 -11.5 108t-96.5 37z" />
    <glyph glyph-name="Wacute" unicode="&#x1e82;" horiz-adv-x="2045" 
d="M1163 1516l-342 -121l-35 53l277 238q49 41 96 40.5t78 -40.5q31 -43 9 -95q-23 -53 -83 -75zM1548 1190v82q238 -8 477 0v-82q-95 -6 -133 -28q-39 -21 -61 -91l-346 -1089h-123l-348 931l-299 -931h-121l-408 1089q-28 73 -56 93q-26 20 -110 26v82q326 -11 664 0v-82
q-102 -5 -142 -28q-41 -23 -18 -91l232 -684l200 680l-2 4q-27 74 -59 95q-31 22 -123 24v82q338 -10 666 0v-82q-94 -4 -131 -28q-38 -23 -15 -91l234 -684l203 684q18 66 -31 90q-47 24 -150 29z" />
    <glyph glyph-name="wacute" unicode="&#x1e83;" horiz-adv-x="1849" 
d="M1071 1270l-342 -121l-35 53l277 238q49 41 96 41t78 -41q31 -43 9 -95q-23 -53 -83 -75zM1329 942v84h490v-84l-45 -4q-66 -6 -105 -40t-59 -105l-240 -799h-233l-224 647l-192 -647h-234l-274 797q-18 50 -32 79q-28 61 -107 68l-43 4v84h573v-84l-39 -4
q-94 -10 -47 -147l180 -558l164 560q-19 53 -32 78q-28 60 -107 67l-43 4v84h573v-84l-39 -4q-94 -10 -47 -147l181 -558l161 560q19 71 -11.5 108t-96.5 37z" />
    <glyph glyph-name="Wdieresis" unicode="&#x1e84;" horiz-adv-x="2045" 
d="M786 1393q-59 0 -103 44t-44 103q0 58 44 102t103 44q61 0 103 -44q43 -43 43 -102q0 -61 -43 -104q-42 -43 -103 -43zM1354 1437q-44 -44 -103 -44t-103 44t-44 103q0 58 44 102t103 44t103 -44q43 -43 43 -102q0 -60 -43 -103zM1548 1190v82q238 -8 477 0v-82
q-95 -6 -133 -28q-39 -21 -61 -91l-346 -1089h-123l-348 931l-299 -931h-121l-408 1089q-28 73 -56 93q-26 20 -110 26v82q326 -11 664 0v-82q-102 -5 -142 -28q-41 -23 -18 -91l232 -684l200 680l-2 4q-27 74 -59 95q-31 22 -123 24v82q338 -10 666 0v-82q-94 -4 -131 -28
q-38 -23 -15 -91l234 -684l203 684q18 66 -31 90q-47 24 -150 29z" />
    <glyph glyph-name="wdieresis" unicode="&#x1e85;" horiz-adv-x="1849" 
d="M694 1147q-59 0 -103 44t-44 103t44 103q43 43 103 43q61 0 103 -43q43 -43 43 -103q0 -61 -43 -104q-42 -43 -103 -43zM1262 1191q-44 -44 -103 -44t-103 44t-44 103t44 103q43 43 103 43t103 -43t43 -103t-43 -103zM1329 942v84h490v-84l-45 -4q-66 -6 -105 -40
t-59 -105l-240 -799h-233l-224 647l-192 -647h-234l-274 797q-18 50 -32 79q-28 61 -107 68l-43 4v84h573v-84l-39 -4q-94 -10 -47 -147l180 -558l164 560q-19 53 -32 78q-28 60 -107 67l-43 4v84h573v-84l-39 -4q-94 -10 -47 -147l181 -558l161 560q19 71 -11.5 108
t-96.5 37z" />
    <glyph glyph-name="uni1E92" unicode="&#x1e92;" horiz-adv-x="1239" 
d="M1022 106l53 -8q45 -10 45 -39v-59q-539 8 -1079 0l717 1180h-324q-100 0 -148 -42t-93 -149h-99l70 295h110q63 -12 240 -12h653l-716 -1182h122q139 0 225 36t165 134l98 119h119q-81 -112 -158 -273zM729 -385q-46 -49 -117 -49q-69 0 -118 49q-48 49 -48 119
q0 69 48 117q50 47 118 47q70 0 117 -47q47 -49 47 -117q0 -69 -47 -119z" />
    <glyph glyph-name="uni1E93" unicode="&#x1e93;" horiz-adv-x="1024" 
d="M879 309h79l-71 -309h-791q-41 0 -53 28.5t12 63.5l551 854l-235 -2q-85 0 -123 -35q-37 -34 -96 -143h-76l71 272h109q63 -12 225 -12q334 0 502 4l-608 -948l225 2q91 0 152 47q60 45 127 178zM637 -385q-46 -49 -117 -49q-69 0 -118 49q-48 49 -48 119q0 69 48 117
q50 47 118 47q70 0 117 -47q47 -49 47 -117q0 -69 -47 -119z" />
    <glyph glyph-name="Ygrave" unicode="&#x1ef2;" horiz-adv-x="1339" 
d="M862 1395l-342 121q-60 22 -83 74q-21 52 9 96q31 41 77.5 40.5t97.5 -40.5l276 -238zM891 1190v82q213 -12 418 0v-82q-141 -17 -199 -131l-274 -529v-323q0 -69 33 -94q35 -26 128 -33v-80q-330 8 -657 0v82q92 6 126 31t34 94v305l-305 555q-1 5 -15 27q-12 24 -15 27
q-4 4 -15 19q-7 11 -12 15.5t-15.5 9t-15.5 7.5q-20 13 -76 18v82q323 -12 651 0v-82q-87 -8 -110.5 -39t10.5 -86l217 -410l211 404q56 109 -119 131z" />
    <glyph glyph-name="ygrave" unicode="&#x1ef3;" horiz-adv-x="1224" 
d="M809 1149l-342 121q-60 22 -83 75q-22 52 9 95q31 41 78 41t96 -41l277 -238zM764 942v84h430v-84l-68 -4q-34 0 -56 -22q-22 -21 -36 -45q-11 -22 -30 -74l-492 -1237h-123l180 417l-364 824q-32 73 -55.5 104t-53.5 33l-65 4v84h569v-84l-59 -4q-41 -2 -50.5 -39
t15.5 -100l201 -486l196 484q24 66 6.5 101.5t-71.5 39.5z" />
    <glyph glyph-name="endash" unicode="&#x2013;" horiz-adv-x="1355" 
d="M82 483v111h1192v-111h-1192z" />
    <glyph glyph-name="emdash" unicode="&#x2014;" horiz-adv-x="1843" 
d="M82 483v111h1679v-111h-1679z" />
    <glyph glyph-name="afii00208" unicode="&#x2015;" horiz-adv-x="1841" 
d="M82 483v111h1679v-111h-1679z" />
    <glyph glyph-name="quoteleft" unicode="&#x2018;" horiz-adv-x="456" 
d="M233 1378q25 25 48 4l22 -24q-76 -83 -76 -187q0 -15 4 -24q17 4 37 4q70 0 114 -47t44 -107q0 -67 -48 -113q-47 -46 -118 -46q-78 0 -123 59t-45 152q0 183 141 329z" />
    <glyph glyph-name="quoteright" unicode="&#x2019;" horiz-adv-x="456" 
d="M223 852q-25 -25 -47 -4l-22 24q76 84 75 187q0 15 -4 24q-17 -4 -37 -4q-70 0 -114 47q-43 47 -43 107q0 67 48 113q49 47 118 47q78 0 123 -60q45 -59 45 -151q-2 -185 -142 -330z" />
    <glyph glyph-name="quotesinglbase" unicode="&#x201a;" horiz-adv-x="477" 
d="M264 -254q-25 -25 -47 -4l-22 25q77 84 75 186q0 15 -4 24q-17 -4 -37 -4q-70 0 -114 47q-43 47 -43 107q0 67 48 113q49 47 118 47q78 0 123 -60q45 -58 45 -151q-2 -185 -142 -330z" />
    <glyph glyph-name="quotedblleft" unicode="&#x201c;" horiz-adv-x="858" 
d="M233 1380q25 25 48 4l22 -24q-76 -83 -76 -186q0 -16 4 -25q17 4 37 4q70 0 114 -47t44 -107q0 -67 -48 -113q-47 -46 -118 -46q-78 0 -123 59t-45 152q0 183 141 329zM635 1380q25 25 47 4l23 -24q-76 -83 -76 -186q0 -16 4 -25q17 4 37 4q69 0 113 -47t44 -107
q0 -67 -48 -113q-47 -46 -117 -46q-78 0 -123 59q-45 58 -45 152q0 183 141 329z" />
    <glyph glyph-name="quotedblright" unicode="&#x201d;" horiz-adv-x="858" 
d="M223 852q-25 -25 -47 -4l-22 24q76 84 75 187q0 15 -4 24q-17 -4 -37 -4q-70 0 -114 47q-43 47 -43 107q0 67 48 113q49 47 118 47q78 0 123 -60q45 -59 45 -151q-2 -185 -142 -330zM625 852q-25 -25 -47 -4l-23 24q76 83 76 187q0 15 -4 24q-17 -4 -37 -4q-70 0 -114 47
q-44 49 -44 107q0 67 48 113q49 47 118 47q78 0 123 -60q45 -59 45 -151q0 -184 -141 -330z" />
    <glyph glyph-name="quotedblbase" unicode="&#x201e;" horiz-adv-x="878" 
d="M264 -254q-25 -25 -47 -4l-22 25q77 84 75 186q0 15 -4 24q-17 -4 -37 -4q-70 0 -114 47q-43 47 -43 107q0 67 48 113q49 47 118 47q78 0 123 -60q45 -58 45 -151q-2 -185 -142 -330zM666 -254q-25 -25 -48 -4l-22 25q76 83 76 186q0 15 -4 24q-17 -4 -37 -4
q-70 0 -114 47q-44 49 -44 107q0 67 48 113q49 47 118 47q78 0 123 -60q45 -58 45 -151q0 -184 -141 -330z" />
    <glyph glyph-name="dagger" unicode="&#x2020;" horiz-adv-x="1034" 
d="M786 1061q64 0 104 -39q42 -39 42 -98q0 -57 -41 -98q-40 -40 -105 -40q-40 0 -104 36q-65 36 -94 42l4 -59l102 -98l-135 -455h-84l-135 455l102 98l4 59q-31 -6 -94 -42t-102 -36q-67 0 -107 40q-41 41 -41 98q0 60 41 98.5t107 38.5q40 0 104 -37q65 -37 97 -43
q-5 46 -42 110q-38 67 -38 97q0 60 41 98.5t106 38.5q64 0 104 -39q42 -39 42 -98q0 -30 -38 -97q-37 -64 -42 -110q32 6 97 43t105 37z" />
    <glyph glyph-name="daggerdbl" unicode="&#x2021;" horiz-adv-x="1034" 
d="M786 446q63 0 104.5 -38.5t41.5 -98.5q0 -56 -41 -97q-40 -40 -105 -40q-37 0 -105 38q-71 39 -101 46q7 -43 46 -113q38 -68 38 -98q0 -59 -41 -98t-105 -39q-65 0 -106 38.5t-41 98.5q0 31 39 98t45 113q-32 -7 -102 -46q-67 -38 -103 -38q-67 0 -107 40q-41 41 -41 97
q0 60 41 98.5t107 38.5q36 0 103 -38q66 -37 102 -46v52l-117 204l117 201v51q-32 -7 -102 -46q-67 -38 -103 -38q-67 0 -107 40q-41 41 -41 98q0 60 41 98.5t107 38.5q36 0 103 -38q70 -39 102 -46q-6 44 -45 112q-39 67 -39 99q0 60 41 98.5t106 38.5q64 0 104 -39
q42 -39 42 -98q0 -31 -38 -99q-39 -70 -46 -112q32 7 102 46q68 38 104 38q64 0 104 -39q42 -39 42 -98q0 -57 -41 -98q-40 -40 -105 -40q-37 0 -105 38q-71 40 -101 46v-51l116 -203l-116 -202v-52q32 7 102 46q68 38 104 38z" />
    <glyph glyph-name="bullet" unicode="&#x2022;" horiz-adv-x="819" 
d="M410 291q-128 0 -219 89q-89 89 -89 216q0 129 89 218q91 89 219 89q126 0 217 -89q90 -88 90 -218q0 -128 -90 -216q-91 -89 -217 -89z" />
    <glyph glyph-name="ellipsis" unicode="&#x2026;" horiz-adv-x="1341" 
d="M334 26q-45 -46 -109 -46q-63 0 -108 46t-45 109q0 64 45 109t108 45q64 0 109 -45t45 -109q0 -63 -45 -109zM760 26q-45 -46 -109 -46q-63 0 -108 46t-45 109q0 64 45 109t108 45q64 0 109 -45t45 -109q0 -63 -45 -109zM1184 26q-45 -46 -109 -46q-63 0 -108 46t-45 109
q0 64 45 109t108 45q64 0 109 -45t45 -109q0 -63 -45 -109z" />
    <glyph glyph-name="perthousand" unicode="&#x2030;" horiz-adv-x="2076" 
d="M354 741q-116 0 -190 83q-72 82 -72 200q0 117 73 199t189 82q119 0 191 -82q73 -82 73 -199q0 -118 -73 -200q-72 -83 -191 -83zM219 -10l850 1313h168l-848 -1313h-170zM354 827q90 0 90 197q0 195 -90 195q-86 0 -86 -195q0 -197 86 -197zM1065 -23q-116 0 -190 83
q-72 83 -72 200q0 116 72 199q73 82 190 82q119 0 191 -82q73 -82 73 -199q0 -118 -73 -200q-72 -83 -191 -83zM1720 -23q-116 0 -190 83q-72 82 -72 200q0 117 73 199t189 82q119 0 192 -82t73 -199q0 -118 -73 -200q-74 -83 -192 -83zM1153 260q0 195 -88 195t-88 -195
q0 -197 88 -197t88 197zM1720 63q90 0 90 197q0 195 -90 195q-86 0 -86 -195q0 -197 86 -197z" />
    <glyph glyph-name="guilsinglleft" unicode="&#x2039;" horiz-adv-x="569" 
d="M61 496v53l398 342l49 -57l-250 -312l250 -311l-49 -57z" />
    <glyph glyph-name="guilsinglright" unicode="&#x203a;" horiz-adv-x="569" 
d="M111 891l397 -342v-53l-397 -342l-50 57l250 311l-250 312z" />
    <glyph glyph-name="fraction" unicode="&#x2044;" horiz-adv-x="395" 
d="M-317 -10l884 1313h187l-887 -1313h-184z" />
    <glyph glyph-name="Euro" unicode="&#x20ac;" horiz-adv-x="1509" 
d="M1352 348h110q-40 -164 -168 -273q-128 -108 -356 -108q-224 0 -391 114q-166 114 -234 308h-241l34 166h170q-6 45 -6 94q0 27 2 49h-145l33 168h141q58 204 224 322q165 117 386 117q81 0 179 -27t159 -27q54 0 117 19q11 -189 78 -361h-168q-135 293 -356 293
q-244 0 -287 -336h366l-32 -168h-342q0 -42 8 -143h313l-35 -166h-243q95 -315 344 -315q104 0 196 63q93 65 144 211z" />
    <glyph glyph-name="trademark" unicode="&#x2122;" horiz-adv-x="1290" 
d="M78 1272h407q12 0 21.5 -8.5t9.5 -18.5l6 -98h-45l-16 33q-7 16 -27 16h-92v-317q0 -19 53 -21v-51h-227v51q51 0 51 21v317h-90q-18 0 -27 -16l-16 -33h-45l6 98q0 10 9.5 18.5t21.5 8.5zM1241 1272v-49q-23 -8 -29 -14.5t-6 -24.5v-297q0 -15 6 -20t37 -13v-47h-200v47
q31 9 38 14t7 19v225l-158 -256q-10 -23 -28.5 -22.5t-30.5 22.5l-177 258v-227q0 -14 8 -19t37 -14v-47h-167v47q31 8 38 13t7 20v297q0 17 -8 23.5t-37 13.5v51h155l187 -283l184 283h137z" />
    <glyph glyph-name="oneeighth" unicode="&#x215b;" horiz-adv-x="1433" 
d="M297 1280v-360q0 -32 59 -37v-80h-260v80q59 5 60 37v268l-64 -21v93l115 51q30 12 61 -1q33 -12 29 -30zM131 -10l885 1313h186l-887 -1313h-184zM1247 272q46 -8 80 -48q35 -41 35 -93q0 -70 -59.5 -112t-167.5 -42q-218 0 -220 164q0 48 32 89q31 40 75 38
q-78 22 -78 103q0 51 51 90q53 39 140 39q83 0 138 -38q54 -38 54 -89q0 -75 -80 -101zM1128 319l39 -6q15 -2 28 18t13 40q0 57 -71 57q-31 0 -46.5 -16t-15.5 -39q0 -43 53 -54zM1212 133q0 57 -71 72l-64 12q-15 2 -24 -21.5t-9 -56.5q0 -35 25.5 -61.5t65.5 -26.5
q38 0 57.5 22t19.5 60z" />
    <glyph glyph-name="threeeighths" unicode="&#x215c;" horiz-adv-x="1474" 
d="M408 1102q106 -31 106 -135q0 -79 -62 -132q-62 -51 -167 -51q-97 0 -156 48q-57 50 -57 114q0 24 15 38.5t42 14.5q30 0 43 -11q11 -10 16 -41q1 -5 7 -36q9 -21 33.5 -37t50.5 -16q47 0 74 32q28 30 26 62q2 60 -38 70q-41 12 -93 -16l-35 67l49 23q68 26 68 90
q0 53 -66 53q-30 0 -44 -36q-13 -35 -1 -75l-110 13q-25 10 -25 28q-2 64 50 105t144 41q95 0 146 -39t51 -86q1 -61 -67 -88zM248 -10l885 1313h186l-887 -1313h-184zM1296 272q46 -8 80 -48q35 -41 35 -93q0 -70 -59.5 -112t-167.5 -42q-219 0 -219 164q0 49 31 89t75 38
q-78 22 -78 103q0 51 51 90q52 39 140 39q83 0 138 -38q54 -38 54 -89q0 -75 -80 -101zM1178 319l39 -6q15 -2 27.5 18t12.5 40q0 57 -71 57q-31 0 -46.5 -16t-15.5 -39q2 -43 54 -54zM1262 133q0 57 -72 72l-64 12q-15 2 -23.5 -21.5t-8.5 -56.5q0 -35 25 -61.5t65 -26.5
q38 0 58 22t20 60z" />
    <glyph glyph-name="fiveeighths" unicode="&#x215d;" horiz-adv-x="1492" 
d="M524 985q0 -86 -62.5 -137t-166.5 -51q-213 0 -223 159q-2 26 16.5 46t52.5 20q27 0 45.5 -10.5t22.5 -23.5q3 -9 8 -34.5t6 -29.5q19 -54 72 -56q29 0 52.5 33t23.5 84q0 35 -30 66q-30 32 -58 32q-20 0 -40.5 -4.5t-41.5 -11.5t-25 -8h-76l21 256h274l15 10h57l-6 -96
l-25 -21h-219l-6 -71q41 39 119 39q69 0 131 -55q63 -54 63 -136zM258 -10l885 1313h186l-887 -1313h-184zM1307 272q44 -7 79 -48t35 -93q0 -70 -59 -112t-168 -42q-219 0 -219 164q0 49 31 89t75 38q-79 23 -77 103q0 51 51 90t139 39q83 0 138 -38q54 -38 54 -89
q1 -75 -79 -101zM1188 319l39 -6q15 -2 28 18t13 40q0 57 -72 57q-31 0 -46 -16t-15 -39q0 -43 53 -54zM1272 133q0 57 -72 72l-63 12q-15 2 -24 -21.5t-9 -56.5q0 -35 25 -61.5t65 -26.5q38 0 58 22t20 60z" />
    <glyph glyph-name="seveneighths" unicode="&#x215e;" horiz-adv-x="1421" 
d="M150 870l186 334h-166l-12 -35h-97l27 113q6 29 43 29h367l-256 -512h-52q-28 0 -41 19.5t1 51.5zM207 -10l885 1313h186l-887 -1313h-184zM1255 272q46 -8 80 -48q35 -41 35 -93q0 -70 -59.5 -112t-167.5 -42q-219 0 -219 164q0 49 31 89t75 38q-78 22 -78 103
q0 51 51 90q53 39 140 39q83 0 138 -38q54 -38 54 -89q0 -75 -80 -101zM1137 319l39 -6q15 -2 28 18t13 40q0 57 -72 57q-31 0 -46.5 -16t-15.5 -39q1 -43 54 -54zM1221 133q0 57 -72 72l-64 12q-15 2 -23.5 -21.5t-8.5 -56.5q0 -35 25 -61.5t65 -26.5q38 0 58 22t20 60z
" />
    <glyph glyph-name="partialdiff" unicode="&#x2202;" horiz-adv-x="1185" 
d="M274 1135l-73 92q95 76 282 76q291 0 461 -198q170 -199 170 -507q0 -282 -142 -455q-141 -174 -390 -174q-214 0 -362 124t-148 325q0 187 131 300t301 113q103 0 173 -43q72 -44 101 -94q-1 86 -8 155q-6 67 -25 138q-18 75 -48 118q-31 47 -86 75t-128 28
q-110 1 -209 -73zM776 553q0 36 -57 107t-146 71t-133 -96q-43 -95 -43 -232q0 -70 11 -141q12 -66 54 -131q42 -63 111 -63q60 0 104 46.5t63 127.5q36 143 36 311z" />
    <glyph glyph-name="emptyset" unicode="&#x2205;" horiz-adv-x="1204" 
d="M1100 1059l-129 -164q162 -156 162 -381q0 -219 -156 -375q-157 -155 -375 -155q-155 0 -285 82l-51 -66h-157l112 143q-150 157 -149 371q0 219 155 374q156 156 375 156q147 0 268 -73l70 88h160zM207 514q0 -152 98 -262l481 612q-85 45 -184 45q-164 0 -280 -116
q-115 -115 -115 -279zM602 119q164 0 279 115q116 116 116 280q0 159 -110 274l-486 -616q98 -53 201 -53z" />
    <glyph glyph-name="product" unicode="&#x220f;" horiz-adv-x="1353" 
d="M143 1638h1067v-2048h-188v1862h-690v-1862h-189v2048z" />
    <glyph glyph-name="summation" unicode="&#x2211;" horiz-adv-x="1167" 
d="M143 1638h881v-186h-637l582 -840l-582 -835h637v-187h-881v187l594 837l-594 838v186z" />
    <glyph glyph-name="minus" unicode="&#x2212;" horiz-adv-x="921" 
d="M102 473v117h717v-117h-717z" />
    <glyph glyph-name="radical" unicode="&#x221a;" horiz-adv-x="1732" 
d="M819 -410h-229q-43 0 -66 50l-250 565q-55 127 -139 157l-43 17v135q175 -10 371 -4l280 -608l650 1738h309v-135l-55 -16q-83 -23 -138 -162z" />
    <glyph glyph-name="infinity" unicode="&#x221e;" horiz-adv-x="1460" 
d="M1024 952q134 0 229 -120q95 -119 95 -320q0 -203 -95 -319q-94 -115 -229 -115q-91 0 -171 54.5t-124 152.5q-39 -99 -111 -153t-163 -54q-136 0 -240 116q-102 117 -102 318q0 202 100 320q101 120 242 120q89 0 162 -55.5t112 -155.5q43 99 123 155t172 56zM455 356
q229 0 229 156q0 164 -229 164q-121 0 -189.5 -42.5t-68.5 -121.5q0 -156 258 -156zM1024 356q225 0 225 156q0 164 -225 164q-121 0 -188.5 -42.5t-67.5 -121.5q0 -156 256 -156z" />
    <glyph glyph-name="integral" unicode="&#x222b;" horiz-adv-x="1062" 
d="M1028 1487q16 -39 -1 -87q-16 -46 -62 -61q-68 -23 -105 41q-2 0 -12 28q-11 31 -37 54t-61 23t-53 -21t-19 -41q-2 -26 -2 -65v-1407q0 -186 -90 -288q-90 -103 -230 -103q-208 0 -311 151q-25 39 -10 80q17 41 59 57q78 33 117 -30q5 -2 15 -30q32 -75 98 -75
q35 0 52 20q16 17 19.5 37.5t3.5 69.5v1407q0 185 89 288q90 103 229 103q122 0 204 -44q81 -43 107 -107z" />
    <glyph glyph-name="approxequal" unicode="&#x2248;" horiz-adv-x="1150" 
d="M926 817h123q-16 -120 -108 -200q-91 -78 -191 -78q-83 0 -148 37q-68 39 -119 75q-52 37 -102 37q-46 0 -90 -32q-42 -31 -62 -76h-127q27 116 113 193t201 77q100 0 195 -65q95 -64 169 -64q98 0 146 96zM926 469h123q-16 -120 -108 -200q-91 -79 -191 -79
q-81 0 -148 38q-70 41 -118 75q-52 37 -103 37q-46 0 -90 -32q-42 -30 -62 -77h-127q27 117 113 194t201 77q100 0 195 -65q95 -64 169 -64q98 0 146 96z" />
    <glyph glyph-name="notequal" unicode="&#x2260;" horiz-adv-x="921" 
d="M778 774v-117h-233l-105 -251h338v-117h-387l-121 -289h-129l121 289h-201v117h250l105 251h-355v117h404l104 252h129l-104 -252h184z" />
    <glyph glyph-name="lessequal" unicode="&#x2264;" horiz-adv-x="1021" 
d="M102 588v186q440 168 775 350v-153q-56 -27 -182 -98q-129 -72 -218 -112q-102 -46 -209 -79q111 -34 209 -80q87 -41 217 -113q98 -55 183 -98v-153q-339 184 -775 350zM166 117h754v-117h-754v117z" />
    <glyph glyph-name="greaterequal" unicode="&#x2265;" horiz-adv-x="1021" 
d="M920 774v-186q-440 -168 -775 -350v153q72 37 182 98q125 69 218 113q98 46 209 80q-107 33 -209 79q-89 40 -218 112q-124 71 -182 98v153q335 -182 775 -350zM102 0v117h754v-117h-754z" />
    <glyph glyph-name="lozenge" unicode="&#x25ca;" horiz-adv-x="843" 
d="M506 1272l266 -637l-266 -635h-168l-266 635l266 637h168zM422 129l194 506l-194 506l-195 -506z" />
    <glyph glyph-name="f_b.dlig" horiz-adv-x="2015" 
d="M1479 1044q179 0 322 -143t143 -401q0 -136 -46 -241q-45 -105 -116 -164q-143 -118 -299 -118q-79 0 -138 35q-50 30 -100 70q-44 35 -88 35q-48 0 -82.5 -32.5t-42.5 -84.5h-51q-76 0 -76 74v960q0 142 -43 224q-44 83 -170 83q-135 0 -176 -96q-21 -52 -29 -97
q-8 -51 -8 -122h203v-94h-203v-766q0 -61 133 -76v-90q-291 11 -581 0v90q127 13 127 76v766h-119v94h119q6 198 149 302q145 104 391 104q250 0 389 -106q140 -105 140 -312v-74q101 104 252 104zM1448 70q150 0 149 352q0 245 -58 382q-59 138 -159 138q-91 0 -153 -98
v-551q4 -90 76 -157q73 -66 145 -66z" />
    <glyph glyph-name="f_h.dlig" horiz-adv-x="2054" 
d="M1890 684v-526q0 -61 133 -76v-82q-293 8 -589 0v82q135 10 135 76v526q0 219 -142 219q-82 0 -136 -62q-53 -61 -64 -120v-563q0 -66 133 -76v-82q-293 8 -586 0v82q131 14 131 76v876q0 142 -43 224q-44 83 -170 83q-135 0 -176 -96q-21 -52 -29 -97q-8 -51 -8 -122
h203v-94h-203v-766q0 -61 133 -76v-90q-291 11 -581 0v90q127 13 127 76v766h-119v94h119q6 198 149 302q145 104 391 104q250 0 389 -106q140 -105 140 -312l-35 -197h14q40 81 137 157q97 75 238 75q122 0 209 -72q100 -83 100 -293z" />
    <glyph glyph-name="f_k.dlig" horiz-adv-x="1974" 
d="M1421 616l285 -383q125 -165 248 -178l-78 -90q-68 0 -106 3q-36 3 -101 18q-121 27 -219 153l-223 281v-262q0 -61 131 -76v-82q-289 6 -580 0v82q127 13 127 76v876q0 142 -43 224q-44 83 -170 83q-135 0 -176 -96q-21 -52 -29 -97q-8 -51 -8 -122h203v-94h-203v-766
q0 -61 133 -76v-90q-291 11 -581 0v90q127 13 127 76v766h-119v94h119q6 198 149 302q145 104 391 104q250 0 389 -106q140 -105 140 -312v-445q145 111 241 258q25 39 -0.5 67t-91.5 34v98q250 -7 502 0v-98q-85 -7 -197 -97z" />
    <glyph glyph-name="A.c2sc" horiz-adv-x="1335" 
d="M770 1108l303 -809q43 -117 90 -159t142 -50v-90q-336 7 -670 0v90q96 6 126.5 26t10.5 74l-37 97h-325l-31 -90q-5 -23 -6 -39q-3 -21 38 -45q15 -7 44 -12q34 -6 131 -11v-90q-276 8 -555 0v90q113 7 167 38q52 30 76 99l299 881h197zM561 750l-121 -369h260z" />
    <glyph glyph-name="B.aalt" horiz-adv-x="1343" 
d="M907 608q365 -62 365 -289q0 -152 -151 -235.5t-439 -83.5h-621v90q87 6 119 21q31 16 31 53v782q0 35 -29 50.5t-104 21.5v90q81 -4 189 -4q68 0 188 2q24 0 51 0.5t41.5 1t21.5 0.5q305 0 436 -80q132 -80 132 -194q0 -81 -52 -133q-51 -53 -178 -93zM635 1016h-88
v-404q158 33 219 82t61 150q0 70 -48 121t-144 51zM645 100h37q122 0 188 59t66 171q0 99 -65.5 156t-198.5 59l-125 -31v-340q0 -43 16 -59q17 -15 82 -15z" />
    <glyph glyph-name="C.aalt" horiz-adv-x="1314" 
d="M1061 348h203q-118 -213 -134 -346q-71 16 -129 16q-65 0 -143 -25q-81 -26 -164 -26q-276 0 -444 159t-168 431q0 254 169 419t435 165q76 0 175 -26q96 -25 149 -25q49 0 112 16q12 -185 88 -361h-176q-142 295 -362 295q-240 0 -240 -422q0 -253 76 -401
q77 -149 217 -149q81 0 154 51q29 19 66 66q42 52 56 73q19 27 60 90z" />
    <glyph glyph-name="D.aalt" horiz-adv-x="1400" 
d="M641 1108q305 0 491 -147q187 -145 187 -406q0 -132 -46 -236q-47 -104 -112 -162q-65 -57 -145 -95q-135 -62 -232 -62q-52 0 -183 18q-127 19 -222 19q-94 0 -170 -13l-78 -12l-70 -12v92q83 18 117 38q33 20 33 63v735q0 49 -29 66q-29 18 -104 24v90q81 -4 186 -4
q57 0 205 2t172 2zM696 90q89 -2 145 68q103 127 103 407q0 206 -82 327q-83 122 -237 122q-43 0 -78 -4v-852q0 -28 24 -45q16 -10 35.5 -14.5t33 -5.5t56.5 -3z" />
    <glyph glyph-name="E.aalt" horiz-adv-x="1161" 
d="M975 334h115q-57 -175 -56 -336q-500 18 -973 0v88q86 4 118 20.5t32 55.5v782q0 37 -31 52q-29 16 -119 22v90h934q20 0 25.5 -6.5t9.5 -30.5l33 -215h-123l-10 14q-46 82 -85 109q-41 29 -124 29h-135q-39 0 -39 -37v-334h192q77 0 109 25q33 26 47 94h78
q-13 -172 0 -346h-78q-13 69 -47 98t-109 29h-192v-398q0 -16 11 -26.5t28 -10.5h61q127 0 186 27q60 27 99 107z" />
    <glyph glyph-name="F.aalt" horiz-adv-x="1120" 
d="M895 748h78q-13 -174 0 -349h-78q-13 69 -47 98t-109 29h-192v-358q0 -40 31 -56q30 -16 120 -22v-90q-317 8 -637 0v90q86 6 118 22.5t32 55.5v776q0 37 -31 52q-29 16 -119 22v90h928q20 0 25.5 -6.5t9.5 -30.5l35 -233h-115l-12 18q-51 88 -94 121q-40 31 -125 31
h-127q-39 0 -39 -37v-344h192q75 0 109 26q33 27 47 95z" />
    <glyph glyph-name="G.aalt" horiz-adv-x="1388" 
d="M762 516v92q281 -6 565 0v-92l-39 -4q-30 -4 -44.5 -20t-20.5 -55q-7 -47 -8 -62q-1 -14 -1 -88q0 -79 9 -168l37 -4q34 -2 32 -37v-60q-41 5 -127 7q-121 0 -252 -29t-219 -29q-280 0 -446 159t-166 431q0 254 169 419t435 165q76 0 175 -26q96 -25 149 -25q49 0 112 16
q12 -185 88 -361h-176q-142 295 -362 295q-240 0 -240 -422q0 -253 76 -401q77 -149 217 -149q126 0 161 62q34 62 34 230q0 63 -4 86q-3 27 -23.5 44.5t-58.5 19.5z" />
    </font>
</defs>
</svg>
