<svg xmlns="http://www.w3.org/2000/svg" xmlns:xlink="http://www.w3.org/1999/xlink" id="Layer_1" x="0px" y="0px" viewBox="0 0 496 496" style="enable-background:new 0 0 496 496;" xml:space="preserve">
<style type="text/css">
	.st0{fill:#02590f;}
	.st1{fill:#FFFFFF;}
</style>
<path d="M299.2,224.2l-11.3-11.3l75.3-75.3c13.4-13.4,20.8-31.3,20.8-50.4c0-39.3-31.9-71.2-71.2-71.2c-19,0-36.9,7.4-50.3,20.8  L248,51.3l-14.5-14.5C220.1,23.4,202.2,16,183.2,16C143.9,16,112,47.9,112,87.2c0,19,7.4,36.9,20.8,50.3l75.3,75.3l-11.3,11.3  l-75.3-75.3C105.1,132.4,96,110.5,96,87.2C96,39.1,135.1,0,183.2,0c23.3,0,45.2,9.1,61.7,25.5l3.2,3.2l3.2-3.2  C267.6,9.1,289.5,0,312.8,0C360.9,0,400,39.1,400,87.2c0,23.3-9.1,45.2-25.5,61.7L299.2,224.2z"></path>
<path d="M301.7,176.4l-11.3-11.3l50.2-50.2c7.4-7.4,11.5-17.3,11.5-27.7c0-12.4-6-24.2-16-31.6l9.5-12.9  c14.1,10.4,22.5,27,22.5,44.5c0,14.8-5.7,28.6-16.2,39L301.7,176.4z"></path>
<path d="M325.4,50.1c-3.8-1.3-8.9-2.1-13.4-2.1V32c6.3,0,13.1,1.1,18.6,2.9L325.4,50.1z"></path>
<path d="M96,400H72v-16h24c4.4,0,8-3.6,8-8s-3.6-8-8-8H72c-13.2,0-24-10.8-24-24s10.8-24,24-24h72v16H72c-4.4,0-8,3.6-8,8s3.6,8,8,8  h24c13.2,0,24,10.8,24,24S109.2,400,96,400z"></path>
<path d="M200,496h-96c-13.2,0-24-10.8-24-24s10.8-24,24-24h32c4.4,0,8-3.6,8-8s-3.6-8-8-8H24c-13.2,0-24-10.8-24-24s10.8-24,24-24  h32v16H24c-4.4,0-8,3.6-8,8s3.6,8,8,8h112c13.2,0,24,10.8,24,24s-10.8,24-24,24h-32c-4.4,0-8,3.6-8,8s3.6,8,8,8h96V496z"></path>
<path d="M392,496H216v-16h176c4.4,0,8-3.6,8-8s-3.6-8-8-8h-32c-13.2,0-24-10.8-24-24s10.8-24,24-24h24v16h-24c-4.4,0-8,3.6-8,8  s3.6,8,8,8h32c13.2,0,24,10.8,24,24S405.2,496,392,496z"></path>
<path d="M472,432h-72v-16h72c4.4,0,8-3.6,8-8s-3.6-8-8-8h-72c-13.2,0-24-10.8-24-24s10.8-24,24-24h24c4.4,0,8-3.6,8-8s-3.6-8-8-8  h-72v-16h72c13.2,0,24,10.8,24,24s-10.8,24-24,24h-24c-4.4,0-8,3.6-8,8s3.6,8,8,8h72c13.2,0,24,10.8,24,24S485.2,432,472,432z"></path>
<path class="st0" d="M248.1,448h-0.3C186.2,448,136,397.8,136,336.1c0-22.6,6.8-44.5,19.5-63.2L248,137.8L340.5,273  c12.8,18.7,19.5,40.5,19.5,63.2C360,397.8,309.8,448,248.1,448z"></path>
<path class="st1" d="M272,376h-48v-24h-24v-48h24v-24h48v24h24v48h-24V376z M240,360h16v-24h24v-16h-24v-24h-16v24h-24v16h24V360z"></path>
<path class="st1" d="M248.1,416l-0.3-16c35.5,0,64.1-28.6,64.1-63.9c0-2.4-0.1-4.8-0.4-7.2l15.9-1.8c0.4,3,0.5,6,0.5,9  C328,380.2,292.2,416,248.1,416z"></path>
<path class="st1" d="M308.3,314.7c-1.8-5.1-4.4-10.1-7.5-14.6l13.2-9c3.9,5.7,7,11.8,9.3,18.3L308.3,314.7z"></path>
</svg>