<svg xmlns="http://www.w3.org/2000/svg" xmlns:xlink="http://www.w3.org/1999/xlink" id="Layer_1" x="0px" y="0px" viewBox="0 0 432 496" style="enable-background:new 0 0 432 496;" xml:space="preserve">
<style type="text/css">
	.st0{fill:#127a0d;}
</style>
<g>
	<g>
		<rect x="80" y="112" class="st0" width="96" height="16"></rect>
	</g>
	<g>
		<g>
			<path class="st0" d="M376,496c-22.1,0-40-17.9-40-40c0-6.6,1.5-12.8,4.2-18.3l35.8-71.6l35.8,71.5c2.8,5.5,4.2,11.7,4.2,17.9     C416,478,398.1,496,376,496z"></path>
		</g>
	</g>
	<g>
		<path d="M416,312v-88c0-22.1-17.9-40-40-40H200v-40h-16v-34.8l114.6-50.1c8.2-3.6,13.4-11.6,13.4-20.5V22.4    c0-14-13.4-25-27.4-21.8l-194,44.8C79.6,47.9,72,57.5,72,68.7V144H56v336H32v16h192v-16h-24V264h136v48c-8.8,0-16,7.2-16,16v16    c0,8.8,7.2,16,16,16h80c8.8,0,16-7.2,16-16v-16C432,319.2,424.8,312,416,312z M88,68.7c0-3.8,2.5-7,6.2-7.8l194-44.8    c4.1-0.9,7.8,2.2,7.8,6.2v16.2c0,2.5-1.5,4.8-3.8,5.8L168,98.8V144H88V68.7z M336,248H184v232H72V160h112v40h192    c13.2,0,24,10.8,24,24v88h-48v-48C352,255.2,344.8,248,336,248z M336,344v-16h80l0,16H336z"></path>
		<rect x="88" y="176" width="16" height="16"></rect>
		<rect x="88" y="208" width="16" height="256"></rect>
		<rect y="480" width="16" height="16"></rect>
		<rect x="240" y="480" width="16" height="16"></rect>
	</g>
</g>
</svg>