<?xml version="1.0" standalone="no"?>
<!DOCTYPE svg PUBLIC "-//W3C//DTD SVG 20010904//EN"
 "http://www.w3.org/TR/2001/REC-SVG-20010904/DTD/svg10.dtd">
<svg version="1.0" xmlns="http://www.w3.org/2000/svg"
 width="2000.000000pt" height="1631.000000pt" viewBox="0 0 2000.000000 1631.000000"
 preserveAspectRatio="xMidYMid meet">

<g transform="translate(0.000000,1631.000000) scale(0.100000,-0.100000)"
fill="#000000" stroke="none">
<path d="M8024 15438 c-284 -223 -377 -463 -266 -688 15 -30 31 -57 35 -59 5
-2 12 -14 17 -27 5 -13 21 -26 36 -30 36 -9 143 45 208 105 49 46 122 149 112
158 -3 3 1 18 10 34 8 16 12 29 8 29 -4 0 -1 6 5 14 15 18 16 212 2 276 -6 25
-13 59 -16 75 -4 17 -10 39 -15 50 -5 11 -16 44 -25 73 -9 28 -20 52 -24 52
-5 0 -44 -28 -87 -62z"/>
<path d="M7748 14378 c-31 -51 -89 -179 -118 -264 -17 -49 -34 -96 -37 -104
-3 -8 -7 -19 -8 -25 0 -5 -4 -17 -7 -25 -4 -8 -9 -28 -12 -45 -3 -16 -10 -52
-16 -80 -6 -27 -17 -115 -26 -195 -17 -157 -8 -339 22 -485 8 -38 17 -83 20
-100 3 -16 9 -39 14 -50 4 -11 16 -49 25 -85 16 -66 26 -94 51 -142 8 -14 14
-32 14 -39 0 -20 119 -266 168 -349 12 -19 28 -49 36 -67 24 -52 187 -346 210
-378 12 -16 34 -55 50 -85 16 -30 34 -62 41 -70 6 -8 31 -49 55 -90 24 -41 51
-84 60 -95 8 -11 26 -40 39 -65 13 -25 34 -59 47 -77 13 -17 24 -35 24 -38 0
-4 14 -24 30 -45 17 -21 30 -41 30 -45 0 -5 11 -22 23 -39 13 -17 26 -36 28
-42 11 -29 105 -164 115 -164 6 0 14 -12 17 -27 3 -16 17 -40 30 -55 12 -14
32 -43 42 -62 11 -20 23 -36 27 -36 5 0 8 -6 8 -13 0 -7 16 -32 35 -54 19 -23
35 -44 35 -47 0 -8 64 -101 72 -104 4 -2 8 -15 8 -29 l0 -25 -92 6 c-105 7
-311 22 -501 36 -71 5 -132 12 -138 15 -5 4 -44 7 -86 7 -43 1 -86 5 -96 10
-11 5 -40 10 -65 10 -26 0 -51 3 -57 8 -5 4 -39 10 -75 14 -103 11 -313 47
-332 57 -10 5 -32 9 -50 9 -17 0 -47 5 -65 10 -64 19 -99 28 -178 45 -44 9
-88 21 -97 26 -10 5 -27 9 -37 9 -11 0 -23 5 -26 10 -3 6 -21 10 -40 10 -19 0
-36 4 -39 9 -3 4 -27 14 -53 21 -43 12 -164 56 -218 79 -11 5 -47 19 -80 32
-33 12 -78 31 -100 42 -22 11 -47 23 -55 27 -64 30 -164 89 -216 126 -34 24
-67 44 -73 44 -6 0 -11 4 -11 9 0 5 -15 18 -32 29 -32 20 -105 90 -148 142
l-20 25 7 -30 c11 -52 109 -204 131 -205 6 0 12 -7 12 -16 0 -16 147 -164 163
-164 4 0 22 -14 40 -31 17 -17 46 -38 62 -46 17 -9 32 -19 35 -22 3 -3 26 -17
53 -30 26 -13 52 -30 58 -38 6 -7 15 -13 20 -13 5 0 38 -13 74 -30 36 -16 68
-30 71 -30 3 0 31 -12 62 -26 93 -42 97 -43 227 -75 28 -7 56 -17 63 -22 7 -5
15 -7 19 -4 3 4 11 3 17 -2 28 -21 416 -92 500 -91 16 0 43 -4 60 -9 17 -6 63
-12 101 -15 109 -7 424 -57 475 -76 24 -8 84 -23 105 -25 17 -1 189 -56 207
-66 10 -5 26 -9 36 -9 10 0 23 -5 29 -11 6 -6 17 -12 24 -13 69 -14 349 -154
449 -224 202 -142 393 -335 481 -487 83 -144 144 -286 156 -365 3 -19 8 -39
12 -45 4 -5 8 -25 9 -44 2 -18 8 -43 15 -55 17 -31 16 -426 -2 -486 -8 -25
-15 -54 -17 -65 -4 -31 -31 -128 -54 -196 -49 -145 -168 -317 -270 -391 -69
-49 -244 -97 -515 -140 -119 -19 -186 -22 -440 -24 -266 -2 -317 0 -450 20
-175 27 -316 55 -329 67 -6 5 -24 9 -41 9 -17 0 -35 4 -41 9 -14 13 -54 23
-54 14 0 -5 19 -17 43 -27 23 -10 51 -22 62 -26 40 -18 130 -50 141 -50 6 0
29 -8 50 -17 22 -9 49 -18 61 -19 12 -2 34 -9 50 -17 15 -7 55 -19 88 -26 33
-7 71 -17 85 -21 14 -5 52 -13 85 -19 90 -16 155 -29 210 -41 143 -30 769 -33
817 -4 6 4 21 8 32 10 43 6 222 45 246 53 14 5 45 15 70 22 25 7 54 18 65 25
11 7 31 15 45 19 93 25 287 122 402 202 43 29 82 53 88 53 5 0 10 5 10 10 0 6
5 10 11 10 22 0 213 166 339 294 88 90 230 268 230 290 0 5 8 19 18 30 19 22
78 120 102 171 8 17 17 32 20 35 11 11 120 241 120 254 0 7 6 19 14 25 8 6 16
24 19 39 3 15 21 72 41 127 20 55 38 105 40 110 2 6 6 17 9 25 9 25 24 82 36
140 6 30 16 75 22 100 5 25 12 63 15 85 3 22 10 69 15 105 6 36 15 90 19 120
11 73 11 361 -1 430 -4 30 -15 100 -23 155 -15 108 -43 241 -52 257 -3 5 -8
24 -11 41 -3 18 -15 57 -28 87 -12 30 -25 68 -29 84 -7 27 -17 51 -77 184 -16
34 -29 64 -29 66 0 3 -98 181 -123 221 -15 26 -80 127 -89 140 -119 164 -245
320 -302 374 -34 33 -36 33 -36 13 0 -13 9 -35 19 -50 56 -79 133 -213 211
-366 27 -54 53 -104 58 -110 5 -6 15 -27 22 -46 12 -32 29 -73 65 -155 12 -26
26 -68 30 -85 1 -3 9 -23 18 -44 10 -21 24 -66 33 -100 9 -34 22 -74 29 -91 7
-16 16 -41 19 -55 80 -362 115 -687 87 -815 -6 -27 -13 -75 -16 -105 -6 -65
-21 -143 -42 -220 -8 -30 -16 -62 -18 -70 -2 -8 -8 -28 -15 -45 -6 -16 -12
-32 -12 -35 -1 -12 -37 -107 -64 -170 -22 -51 -219 -445 -237 -475 -7 -11 -26
-44 -42 -74 -36 -65 -38 -68 -100 -159 -28 -41 -54 -81 -60 -90 -5 -9 -20 -27
-32 -41 -13 -14 -23 -29 -23 -33 0 -4 -22 -31 -50 -60 -27 -29 -50 -56 -50
-60 0 -5 -5 -8 -11 -8 -6 0 -32 -19 -57 -41 -81 -72 -154 -91 -136 -37 4 13 6
37 6 55 -1 18 3 35 7 38 14 8 22 223 12 320 -16 150 -73 412 -107 490 -7 16
-31 80 -53 141 -23 60 -61 150 -86 200 -25 49 -45 94 -45 100 0 6 -7 17 -15
24 -8 6 -14 15 -13 18 3 9 -32 83 -47 102 -7 8 -28 44 -47 80 -72 133 -108
193 -240 395 -79 123 -77 119 -130 192 -27 35 -48 66 -48 70 0 3 -28 42 -63
87 -34 44 -70 92 -79 106 -8 14 -25 36 -37 49 -11 13 -21 27 -21 30 0 3 -15
23 -33 44 -17 21 -52 65 -77 98 -47 62 -137 177 -171 217 -10 12 -19 26 -19
32 0 5 -6 13 -13 17 -6 4 -32 34 -56 66 -24 31 -47 57 -52 57 -5 0 -9 5 -9 11
0 6 -13 27 -30 47 -121 150 -287 368 -358 472 -25 36 -48 67 -52 70 -13 9
-133 239 -185 355 -51 112 -65 145 -65 154 0 6 -4 11 -10 11 -5 0 -10 7 -10
15 0 8 -9 34 -20 57 -16 36 -93 242 -95 258 -1 3 -9 30 -19 60 -35 110 -76
266 -76 292 0 15 -4 29 -8 32 -33 20 -51 580 -22 676 7 25 13 49 11 54 -1 4 3
14 8 20 6 7 12 29 15 51 3 21 10 43 15 48 6 6 11 19 11 28 0 9 16 47 35 84 34
67 42 99 13 53z"/>
<path d="M8950 14200 c-14 -11 -30 -20 -37 -20 -6 0 -13 -3 -15 -7 -3 -8 -17
-19 -132 -107 -106 -80 -246 -232 -303 -326 -72 -119 -95 -166 -118 -246 -42
-142 -36 -288 18 -429 22 -61 111 -199 160 -252 l30 -32 61 32 c34 18 63 35
64 40 2 4 10 7 17 7 32 0 230 173 275 240 8 12 22 32 31 44 24 32 86 166 94
203 4 18 11 35 16 38 5 4 9 19 9 35 0 16 5 61 12 98 9 54 9 92 -1 173 -7 57
-17 113 -21 124 -5 11 -11 37 -15 58 -8 47 -54 188 -67 204 -5 7 -8 16 -5 20
3 4 0 19 -6 33 -5 14 -11 30 -12 35 -5 26 -18 55 -24 55 -3 0 -17 -9 -31 -20z"/>
<path d="M6135 13943 c-11 -3 -27 -11 -35 -18 -8 -7 -31 -20 -50 -30 -18 -10
-40 -24 -48 -31 -7 -8 -24 -17 -38 -20 -13 -3 -24 -10 -24 -15 0 -11 -74 -49
-94 -49 -8 0 -19 -6 -23 -12 -4 -7 -24 -21 -43 -31 -32 -16 -89 -53 -116 -76
-6 -5 -24 -16 -41 -24 -42 -22 -53 -39 -73 -111 -16 -60 -16 -67 0 -127 14
-53 95 -281 138 -391 9 -22 8 -31 -6 -47 -25 -29 -213 -181 -224 -181 -5 0
-54 28 -110 62 -56 33 -127 72 -158 85 -30 13 -72 33 -94 45 -48 26 -153 36
-187 17 -13 -7 -27 -13 -30 -14 -11 0 -117 -117 -130 -144 -8 -14 -42 -60 -76
-102 -35 -43 -63 -81 -63 -87 0 -5 -7 -16 -17 -23 -9 -8 -40 -51 -69 -96 -30
-45 -58 -84 -62 -87 -17 -10 -5 -104 17 -132 11 -15 21 -32 21 -39 0 -7 7 -15
15 -19 8 -3 15 -11 15 -18 0 -16 171 -188 186 -188 7 0 17 7 24 15 7 9 15 13
18 10 3 -2 -6 -14 -19 -26 l-24 -21 23 5 c18 4 22 2 18 -11 -7 -22 48 -86 67
-79 22 8 8 -41 -47 -160 -26 -57 -44 -108 -40 -114 4 -8 3 -9 -5 -5 -6 4 -14
0 -17 -9 -9 -22 2 -30 21 -15 9 7 15 8 15 2 0 -6 -6 -13 -12 -16 -10 -5 -10
-7 0 -12 6 -3 12 -12 12 -20 0 -13 5 -13 75 -5 5 0 4 6 -3 13 -7 7 -12 17 -12
22 1 16 30 -25 30 -42 0 -7 -4 -11 -9 -7 -5 3 -12 1 -16 -5 -4 -6 -11 -7 -17
-4 -20 13 -69 13 -65 0 2 -6 15 -11 28 -10 13 1 29 -6 36 -15 14 -20 6 -36
-12 -21 -7 6 -20 8 -29 4 -9 -3 -16 -1 -16 4 0 6 -10 12 -22 14 -12 2 -24 10
-26 18 -5 13 -3 13 13 0 17 -14 18 -13 13 7 -4 13 -2 26 3 29 11 6 2 24 -11
24 -5 0 -11 -8 -13 -17 -2 -10 -3 -8 -2 5 2 23 -9 30 -20 12 -4 -6 -11 -7 -17
-4 -6 4 -1 12 13 21 l24 13 -30 -2 c-26 -3 -30 -7 -29 -33 1 -27 -10 -44 -27
-45 -12 0 -17 65 -5 72 6 5 2 8 -10 8 -20 0 -21 -4 -16 -47 5 -45 4 -47 -12
-34 -10 9 -17 27 -16 45 3 46 2 46 -27 35 -18 -7 -30 -6 -37 1 -13 13 -36 13
-36 -1 0 -6 5 -9 12 -7 12 4 64 -39 56 -47 -2 -3 -14 4 -26 15 -26 24 -36 26
-28 4 4 -12 2 -15 -9 -10 -20 7 -19 -11 1 -31 14 -15 15 -15 12 0 -4 20 0 21
35 8 17 -7 25 -16 21 -22 -4 -8 -9 -7 -15 2 -6 11 -12 10 -28 -5 -11 -10 -23
-16 -28 -13 -4 2 -17 1 -28 -4 -19 -7 -19 -8 3 -10 12 -1 27 -2 34 -3 6 0 13
-6 15 -12 2 -7 -6 -10 -24 -6 l-28 5 33 -34 c28 -29 35 -32 52 -21 16 10 18 9
14 -2 -3 -8 -12 -17 -20 -20 -13 -5 -21 -36 -9 -36 3 0 17 11 31 25 32 32 39
32 18 0 -9 -14 -14 -28 -11 -32 10 -10 -13 -44 -25 -37 -6 4 -9 1 -6 -6 2 -7
24 -23 48 -36 39 -21 45 -29 18 -25 -5 0 -8 -4 -8 -10 0 -5 -4 -8 -9 -4 -5 3
-12 1 -16 -5 -9 -15 -25 -12 -25 5 0 8 6 12 14 9 19 -7 29 11 13 23 -22 18
-57 22 -57 7 0 -8 -4 -14 -10 -14 -17 0 -11 26 11 54 12 15 19 30 16 33 -8 8
-28 -7 -22 -17 3 -5 -11 -14 -30 -21 -37 -14 -44 -26 -20 -35 8 -4 15 -14 15
-24 0 -27 16 -33 35 -14 9 9 18 14 20 12 3 -3 -6 -15 -20 -28 l-25 -23 -24 22
c-15 14 -22 30 -19 40 3 9 -2 6 -12 -7 l-17 -23 -25 23 c-19 18 -26 20 -32 9
-6 -9 -11 -10 -15 -2 -4 6 -2 11 4 11 6 0 9 4 6 9 -8 13 -56 10 -56 -4 0 -6
-10 -17 -22 -24 l-23 -11 23 6 c13 3 29 0 37 -6 12 -10 15 -10 15 -1 0 7 5 9
10 6 6 -4 8 -15 5 -26 -4 -12 -1 -21 9 -24 9 -3 23 -7 32 -10 8 -3 12 -10 9
-15 -8 -14 -51 12 -82 49 -12 14 -22 21 -23 14 0 -6 -10 -13 -22 -15 -29 -4
-38 -46 -11 -54 10 -3 25 -9 35 -14 11 -6 20 -4 28 5 13 16 40 20 40 7 0 -14
-63 -32 -75 -22 -18 15 -45 2 -37 -18 3 -9 -10 1 -29 23 -53 62 -57 66 -64 56
-3 -5 5 -17 17 -26 15 -11 19 -19 11 -22 -7 -2 -23 -14 -35 -24 -18 -16 -19
-18 -4 -11 11 5 32 6 47 2 44 -13 51 -20 35 -36 -19 -18 -30 -18 -23 0 9 23
-44 31 -61 9 -11 -16 -14 -16 -23 -3 -7 11 -9 8 -6 -13 3 -25 20 -46 39 -47 3
0 4 10 1 21 -5 19 -3 21 18 17 13 -3 32 -9 42 -13 12 -5 17 -2 17 10 0 15 1
15 16 1 18 -19 10 -36 -17 -36 -10 0 -19 -4 -19 -9 0 -12 29 -23 41 -15 5 3 9
0 9 -6 0 -8 -9 -10 -25 -6 -14 4 -25 2 -25 -4 0 -5 5 -10 10 -10 6 0 10 -5 10
-10 0 -7 -6 -7 -19 0 -11 5 -28 10 -38 10 -13 0 -10 -5 12 -20 33 -22 30 -25
-9 -10 -14 5 -26 6 -26 2 0 -13 -99 -45 -116 -38 -13 5 -15 1 -11 -19 4 -21 1
-25 -12 -19 -9 3 -26 9 -38 11 -12 3 -24 13 -26 22 -3 14 -5 14 -12 -3 -4 -10
-4 -21 1 -25 5 -3 16 -19 24 -36 27 -54 78 -97 167 -141 48 -24 95 -44 103
-44 9 0 20 -4 26 -9 5 -5 50 -25 99 -46 131 -55 129 -52 120 -159 -8 -108 -20
-184 -29 -193 -4 -4 -120 -45 -259 -92 -197 -68 -254 -91 -262 -107 -6 -12
-17 -30 -25 -39 -19 -22 -19 -126 -2 -255 7 -52 17 -126 22 -165 36 -286 37
-291 79 -334 22 -22 52 -43 68 -46 15 -4 36 -10 45 -16 10 -5 125 -9 257 -9
132 0 246 -3 255 -6 8 -3 31 -53 52 -117 20 -62 40 -117 45 -123 14 -17 -12
-44 -162 -164 -172 -139 -239 -199 -239 -214 0 -7 -11 -27 -25 -46 -31 -42
-32 -92 -3 -145 12 -22 29 -54 37 -70 63 -121 263 -438 298 -473 38 -38 49
-43 90 -44 27 -1 58 3 69 10 41 22 480 182 501 182 12 0 51 -32 102 -85 76
-79 80 -86 70 -112 -5 -15 -59 -126 -119 -247 -111 -224 -115 -237 -111 -342
1 -46 24 -77 102 -134 26 -19 73 -55 105 -80 71 -56 147 -115 210 -160 26 -19
65 -50 86 -69 35 -31 45 -34 96 -34 31 0 68 6 82 13 14 7 119 104 233 214 115
111 215 202 223 204 8 2 58 -21 111 -52 52 -31 99 -56 104 -56 13 0 11 -50
-10 -346 -10 -143 -17 -273 -14 -288 3 -15 20 -40 37 -57 50 -47 79 -59 196
-83 8 -2 22 -5 30 -8 21 -7 147 -45 195 -58 79 -22 239 -47 274 -43 43 6 91
29 91 44 0 15 269 531 286 548 21 22 203 16 225 -7 9 -9 58 -136 109 -282 50
-146 100 -279 111 -296 32 -53 85 -66 215 -55 198 18 319 31 334 37 16 6 151
33 208 41 18 3 39 14 45 24 7 11 17 19 23 19 6 0 17 23 24 51 8 27 18 52 22
55 4 3 8 128 8 278 0 203 3 277 13 289 7 10 59 32 116 49 101 30 103 30 126
12 13 -11 107 -115 210 -232 103 -117 198 -217 212 -223 36 -13 139 -11 155 4
7 7 32 21 56 31 23 11 42 23 42 27 0 4 39 27 88 50 48 23 99 52 114 63 14 12
50 35 78 51 29 17 60 37 70 46 9 9 31 25 49 35 17 10 31 23 31 28 0 5 10 20
22 33 37 39 37 124 0 209 -143 333 -192 451 -192 461 0 10 88 91 152 139 l27
21 255 -127 c153 -77 271 -130 298 -134 73 -10 141 14 193 71 25 26 45 51 45
55 0 4 23 34 50 67 28 33 50 64 50 69 0 6 7 12 15 16 8 3 15 11 15 19 0 7 11
24 25 37 14 13 25 28 25 33 0 6 7 17 15 26 43 48 55 62 86 107 30 44 34 56 34
117 0 39 -5 71 -11 75 -6 4 -20 25 -32 47 -11 22 -33 52 -48 66 -61 54 -329
341 -332 355 -2 8 1 20 6 27 5 7 15 30 22 52 7 22 17 49 23 60 6 11 12 27 13
35 4 31 95 295 107 309 7 8 11 17 11 20 -1 3 0 11 2 16 2 6 15 51 29 100 14
50 33 110 41 135 25 75 0 31 -56 -97 -29 -67 -70 -150 -91 -185 -22 -35 -39
-69 -39 -75 0 -7 -4 -13 -10 -13 -5 0 -10 -5 -10 -11 0 -14 -95 -161 -151
-235 -22 -28 -39 -54 -39 -57 0 -3 -9 -17 -20 -29 -12 -13 -46 -54 -77 -93
-101 -124 -202 -231 -320 -337 -63 -57 -120 -105 -126 -107 -7 -2 -34 -23 -62
-46 -211 -177 -587 -386 -870 -484 -49 -17 -97 -35 -105 -38 -8 -4 -19 -7 -25
-8 -5 0 -14 -3 -20 -7 -15 -9 -254 -67 -309 -74 -25 -4 -49 -10 -52 -15 -2 -4
-11 -6 -19 -2 -9 3 -21 1 -28 -5 -12 -9 -37 -13 -217 -33 -200 -22 -773 -3
-850 28 -8 3 -21 5 -28 4 -8 -1 -19 2 -25 7 -7 5 -33 13 -60 16 -50 8 -311 71
-337 83 -8 3 -17 7 -20 8 -3 1 -12 4 -20 8 -8 3 -60 22 -115 43 -55 20 -142
56 -193 80 -51 24 -95 44 -97 44 -15 0 -334 192 -405 243 -209 151 -382 301
-505 437 -142 157 -145 160 -145 169 0 4 -10 17 -22 28 -40 36 -218 289 -218
308 0 7 -9 20 -20 30 -11 10 -20 21 -20 25 0 4 -25 51 -55 104 -30 54 -71 134
-91 179 -20 45 -39 87 -44 92 -4 6 -25 60 -45 120 -21 61 -42 116 -48 123 -5
6 -6 12 -2 12 4 0 2 7 -5 15 -7 9 -10 18 -7 22 4 3 2 12 -3 18 -10 12 -79 284
-84 330 -2 11 -6 28 -11 38 -4 10 -5 21 -1 24 3 3 2 11 -3 17 -8 11 -13 43
-32 221 -5 50 -10 190 -10 312 -1 203 2 258 17 379 4 36 2 42 -17 47 -12 3
-18 10 -14 16 3 6 11 8 17 5 15 -9 30 19 15 29 -9 7 -9 10 1 14 6 2 12 14 11
26 0 12 -3 16 -6 10 -7 -19 -50 -16 -62 4 -7 14 -12 15 -24 5 -11 -10 -18 -8
-32 8 -19 21 -8 29 12 9 6 -6 16 -8 22 -5 16 11 13 24 -5 22 -9 0 -23 10 -32
24 l-17 24 36 -22 c27 -16 38 -19 47 -10 6 6 15 8 19 4 5 -4 0 -14 -10 -21
-10 -7 -14 -15 -10 -18 15 -9 73 -5 73 6 0 5 -9 7 -19 4 -27 -7 -24 30 4 38
20 6 20 6 0 15 -13 5 -27 3 -40 -5 -21 -13 -57 -6 -69 13 -3 6 -14 8 -25 5
-11 -3 -21 2 -24 11 -5 13 -1 15 21 10 15 -4 35 -14 45 -22 16 -14 21 -14 48
2 25 15 33 15 45 5 13 -11 15 -10 12 2 -1 8 7 28 18 44 24 35 38 92 24 100 -6
3 -10 12 -10 18 0 7 4 6 10 -3 8 -13 10 -13 14 0 9 24 27 112 24 115 -2 1 -16
7 -33 14 -16 6 -38 22 -47 35 -16 22 -16 24 0 22 11 -1 16 5 14 17 -2 9 2 17
8 17 5 0 10 -7 10 -16 0 -8 4 -13 9 -10 4 3 16 0 26 -7 15 -11 12 -13 -20 -9
-29 3 -36 1 -33 -9 3 -8 13 -14 24 -14 10 -1 25 -4 32 -9 26 -16 38 12 20 44
-17 30 -12 40 10 18 9 -9 12 -9 12 0 0 7 -12 17 -26 23 -15 5 -25 12 -22 15 3
2 18 0 33 -6 35 -13 45 -5 19 16 -16 13 -16 15 -2 10 21 -6 25 1 68 124 19 52
40 101 47 108 7 7 13 19 13 26 0 52 281 521 375 626 13 14 35 43 50 65 68 102
418 457 467 474 12 4 50 34 85 69 13 12 27 22 31 22 4 0 18 10 32 21 50 40
226 156 280 183 30 16 62 34 71 42 12 11 203 106 219 109 3 0 19 8 35 17 17 8
54 23 83 32 28 10 52 22 52 27 0 6 -4 8 -9 5 -5 -3 -68 -8 -141 -11 -73 -3
-138 -9 -144 -14 -6 -5 -47 -18 -91 -29 -44 -12 -81 -26 -83 -31 -2 -6 -14
-11 -27 -11 -24 0 -41 17 -160 161 -170 205 -261 266 -360 242z m-1430 -1853
c3 -5 1 -10 -4 -10 -6 0 -11 5 -11 10 0 6 2 10 4 10 3 0 8 -4 11 -10z m80 -10
c-3 -5 -1 -10 4 -10 6 0 11 -10 11 -21 0 -18 -2 -19 -15 -9 -17 14 -20 50 -4
50 5 0 7 -4 4 -10z m55 -30 c8 -5 12 -11 10 -14 -3 -2 -14 2 -24 10 -22 15
-10 19 14 4z m28 -177 c-29 -28 -45 -26 -34 4 5 13 9 14 15 5 6 -10 11 -10 21
3 7 8 15 15 18 15 4 0 -6 -12 -20 -27z m172 -157 c0 -3 -4 -8 -10 -11 -5 -3
-10 -1 -10 4 0 6 5 11 10 11 6 0 10 -2 10 -4z m145 -36 c-3 -5 -11 -10 -16
-10 -6 0 -7 5 -4 10 3 6 11 10 16 10 6 0 7 -4 4 -10z m-380 -40 c3 -5 -1 -10
-10 -10 -9 0 -13 5 -10 10 3 6 8 10 10 10 2 0 7 -4 10 -10z m295 0 c0 -5 -2
-10 -4 -10 -3 0 -8 5 -11 10 -3 6 -1 10 4 10 6 0 11 -4 11 -10z m-427 -79 c-3
-13 5 -26 26 -42 16 -12 28 -26 25 -31 -7 -10 -50 26 -65 54 -10 18 -2 51 11
43 5 -3 6 -14 3 -24z m-43 -31 c0 -5 -2 -10 -4 -10 -3 0 -8 5 -11 10 -3 6 -1
10 4 10 6 0 11 -4 11 -10z m208 -15 c7 -15 8 -25 2 -25 -6 0 -10 -9 -10 -21 0
-18 3 -17 26 11 31 36 39 35 21 -3 -11 -25 -17 -28 -49 -31 -9 -1 -13 15 -13
47 -1 52 6 59 23 22z m82 -25 c0 -5 -5 -10 -11 -10 -5 0 -7 5 -4 10 3 6 8 10
11 10 2 0 4 -4 4 -10z m-135 -20 c3 -5 1 -10 -4 -10 -6 0 -11 5 -11 10 0 6 2
10 4 10 3 0 8 -4 11 -10z m253 -1 c-23 -13 -26 -99 -4 -99 10 0 13 11 12 34
-1 24 2 32 9 26 6 -5 9 -25 7 -45 -3 -26 -9 -35 -23 -35 -10 0 -19 -4 -19 -10
0 -13 22 -13 56 0 15 6 29 8 32 5 7 -7 -61 -34 -71 -28 -4 2 -13 1 -20 -4 -7
-5 -28 -6 -47 -2 -30 5 -31 7 -8 8 15 0 30 7 34 14 4 6 4 9 -1 5 -4 -4 -21 0
-36 9 -19 11 -32 14 -39 7 -11 -11 -2 -54 11 -54 5 0 4 -12 -1 -26 -13 -32 -4
-47 21 -39 25 8 22 -14 -4 -34 -14 -10 -22 -10 -30 -2 -8 8 -6 11 7 11 25 0
11 17 -29 36 -19 9 -35 20 -35 25 0 5 -7 9 -15 9 -8 0 -15 5 -15 10 0 17 22
11 47 -12 27 -26 33 -22 26 15 -4 21 -11 27 -32 29 -14 1 -33 2 -41 4 -8 1
-20 2 -27 3 -15 1 -68 50 -61 56 3 3 16 -4 30 -15 14 -11 34 -21 44 -23 11 -1
24 -6 31 -10 13 -8 63 8 63 20 0 5 3 18 6 30 5 18 3 21 -15 16 -12 -3 -24 -10
-27 -15 -4 -6 2 -7 17 -3 24 7 24 7 4 -12 -20 -20 -20 -20 -47 -1 -16 11 -28
27 -28 36 0 13 2 13 13 -3 8 -10 19 -15 26 -11 9 6 9 11 1 21 -9 11 -7 14 9
12 12 -1 21 -5 21 -10 0 -4 5 -5 10 -2 6 4 10 16 8 28 -2 15 2 21 12 18 8 -2
21 -3 28 -2 6 1 25 3 41 4 16 1 33 5 37 10 4 4 12 7 18 7 6 0 3 -5 -6 -11z
m152 1 c0 -5 -2 -10 -4 -10 -3 0 -8 5 -11 10 -3 6 -1 10 4 10 6 0 11 -4 11
-10z m-380 -25 c0 -2 -5 -16 -12 -30 -8 -18 -17 -24 -27 -19 -9 3 -22 7 -29 8
-7 1 -18 8 -25 16 -10 10 -9 12 3 8 55 -19 58 -19 65 2 5 17 25 29 25 15z
m-250 -80 c-10 -12 -10 -18 1 -32 12 -17 12 -17 -5 -2 -15 14 -16 20 -5 37 7
12 15 19 18 17 2 -3 -2 -11 -9 -20z m60 -76 c0 -11 -4 -18 -10 -14 -5 3 -7 12
-3 20 7 21 13 19 13 -6z m440 -14 c0 -8 -4 -15 -10 -15 -5 0 -10 7 -10 15 0 8
5 15 10 15 6 0 10 -7 10 -15z m-375 -42 c3 -13 9 -21 14 -18 5 2 11 -2 14 -10
4 -9 1 -12 -9 -8 -7 3 -14 1 -14 -5 0 -6 19 -17 43 -25 l42 -15 -32 -1 c-18
-1 -36 -1 -40 -2 -4 -1 -15 14 -25 32 -10 18 -30 40 -45 48 -23 12 -25 16 -10
19 9 2 17 10 17 18 0 23 38 -5 45 -33z m-325 17 c0 -5 -6 -10 -14 -10 -8 0
-18 5 -21 10 -3 6 3 10 14 10 12 0 21 -4 21 -10z m50 0 c0 -5 -7 -10 -16 -10
-8 0 -12 5 -9 10 3 6 10 10 16 10 5 0 9 -4 9 -10z m183 -25 c10 -14 13 -25 7
-25 -6 0 -13 7 -16 15 -4 8 -13 15 -21 15 -8 0 -11 5 -8 10 9 15 18 12 38 -15z
m-313 -15 c0 -5 -4 -10 -9 -10 -6 0 -13 5 -16 10 -3 6 1 10 9 10 9 0 16 -4 16
-10z m310 -33 c0 -6 -3 -7 -7 -4 -3 4 -12 2 -19 -4 -10 -8 -19 -6 -36 6 l-23
17 23 -7 c15 -4 24 -2 28 10 5 12 9 13 20 4 8 -6 14 -16 14 -22z m-96 -3 c3
-8 2 -12 -4 -9 -6 3 -10 10 -10 16 0 14 7 11 14 -7z m137 -11 c12 -16 12 -17
-2 -6 -9 7 -20 9 -24 5 -5 -4 -5 -1 -1 6 9 16 11 15 27 -5z m-318 -18 c4 -8 2
-17 -3 -20 -6 -4 -10 3 -10 14 0 25 6 27 13 6z m97 11 c0 -11 -19 -15 -25 -6
-3 5 1 10 9 10 9 0 16 -2 16 -4z m272 -48 c-9 -9 -12 -4 -11 23 0 32 1 33 11
11 8 -17 8 -26 0 -34z m-411 19 c-10 -9 -11 -8 -5 6 3 10 9 15 12 12 3 -3 0
-11 -7 -18z m336 -29 c-3 -8 -6 -5 -6 6 -1 11 2 17 5 13 3 -3 4 -12 1 -19z
m143 12 c0 -5 -4 -10 -10 -10 -5 0 -10 5 -10 10 0 6 5 10 10 10 6 0 10 -4 10
-10z m75 0 c-3 -5 -11 -10 -16 -10 -6 0 -7 5 -4 10 3 6 11 10 16 10 6 0 7 -4
4 -10z m-325 -14 c0 -2 -7 -6 -15 -10 -8 -3 -15 -1 -15 4 0 6 7 10 15 10 8 0
15 -2 15 -4z m250 -45 c-1 -13 -3 -13 -15 3 -19 26 -19 42 0 26 8 -7 15 -20
15 -29z m60 17 c0 -4 -4 -10 -10 -13 -5 -3 -10 -2 -10 4 0 6 -7 7 -17 4 -10
-4 -14 -2 -9 5 7 12 46 12 46 0z m60 -2 c0 -3 -4 -8 -10 -11 -5 -3 -10 -1 -10
4 0 6 5 11 10 11 6 0 10 -2 10 -4z m78 -69 c6 3 12 -1 12 -7 0 -6 -10 -10 -22
-8 -18 2 -24 10 -25 33 l-2 30 12 -26 c7 -14 18 -24 25 -22z m-273 13 c3 -5 1
-10 -4 -10 -6 0 -11 5 -11 10 0 6 2 10 4 10 3 0 8 -4 11 -10z m54 1 c7 -5 12
-14 9 -21 -2 -7 -10 -4 -22 9 -19 21 -12 28 13 12z m161 -50 c0 -11 6 -21 13
-24 9 -3 9 -9 -2 -30 -8 -14 -18 -24 -24 -20 -5 3 -5 8 2 13 9 5 9 14 0 36 -9
22 -13 25 -16 12 -5 -21 -33 -24 -33 -5 0 19 21 37 42 37 11 0 18 -7 18 -19z
m-560 5 c0 -3 -4 -8 -10 -11 -5 -3 -10 -1 -10 4 0 6 5 11 10 11 6 0 10 -2 10
-4z m-220 -21 c0 -8 -4 -15 -10 -15 -5 0 -7 7 -4 15 4 8 8 15 10 15 2 0 4 -7
4 -15z m-90 -19 c0 -3 -4 -8 -10 -11 -5 -3 -10 -1 -10 4 0 6 5 11 10 11 6 0
10 -2 10 -4z m720 -10 c0 -8 8 -17 18 -20 20 -7 47 -57 28 -53 -6 1 -14 10
-18 20 -4 9 -12 17 -17 17 -5 0 -12 -8 -14 -17 -4 -15 -5 -14 -6 3 -1 17 -6
21 -28 18 -28 -4 -28 -3 -3 4 15 5 24 15 24 25 -1 9 2 17 7 17 5 0 9 -6 9 -14z
m90 -2 c0 -2 -7 -4 -15 -4 -8 0 -15 4 -15 10 0 5 7 7 15 4 8 -4 15 -8 15 -10z
m137 -41 c-5 -7 -16 -13 -23 -13 -8 0 -14 -4 -14 -10 0 -16 -60 -12 -66 5 -4
8 -13 15 -20 15 -12 0 -13 4 -3 22 l12 22 8 -22 c10 -27 16 -27 42 -4 15 12
21 14 24 4 7 -18 23 -4 23 21 0 21 1 21 14 -3 8 -16 9 -29 3 -37z m43 7 c0 -5
-5 -10 -11 -10 -5 0 -7 5 -4 10 3 6 8 10 11 10 2 0 4 -4 4 -10z m25 -20 c3 -5
1 -10 -4 -10 -6 0 -11 5 -11 10 0 6 2 10 4 10 3 0 8 -4 11 -10z m-178 -33 c-2
-6 -9 -12 -15 -13 -8 -2 -8 0 -2 3 7 3 5 12 -7 25 -18 21 -18 21 5 9 13 -7 22
-17 19 -24z m218 13 c3 -5 2 -10 -4 -10 -5 0 -13 5 -16 10 -3 6 -2 10 4 10 5
0 13 -4 16 -10z m-10 -31 c5 -6 5 -9 -2 -9 -6 0 -8 -11 -5 -25 4 -22 1 -25
-27 -25 -35 0 -42 15 -11 23 11 3 20 11 20 17 0 8 -9 10 -25 6 -24 -6 -35 10
-19 27 8 8 55 -2 69 -14z m-271 -5 c4 -10 1 -14 -6 -12 -15 5 -23 28 -10 28 5
0 13 -7 16 -16z m103 10 c-3 -3 -12 -4 -19 -1 -8 3 -5 6 6 6 11 1 17 -2 13 -5z
m-731 -71 c-10 -10 -19 5 -10 18 6 11 8 11 12 0 2 -7 1 -15 -2 -18z m44 17 c0
-5 -2 -10 -4 -10 -3 0 -8 5 -11 10 -3 6 -1 10 4 10 6 0 11 -4 11 -10z m725 0
c3 -6 -1 -7 -9 -4 -18 7 -21 14 -7 14 6 0 13 -4 16 -10z"/>
<path d="M4975 11440 c-3 -5 3 -10 14 -10 12 0 21 5 21 10 0 6 -6 10 -14 10
-8 0 -18 -4 -21 -10z"/>
<path d="M4979 11418 c-1 -2 -2 -18 -4 -35 -2 -22 2 -33 10 -33 14 0 29 45 20
60 -6 9 -23 14 -26 8z"/>
<path d="M4940 11390 c0 -5 5 -10 11 -10 5 0 7 5 4 10 -3 6 -8 10 -11 10 -2 0
-4 -4 -4 -10z"/>
<path d="M4645 11240 c-3 -5 1 -10 9 -10 9 0 16 5 16 10 0 6 -4 10 -9 10 -6 0
-13 -4 -16 -10z"/>
<path d="M10060 13062 c-14 -9 -27 -19 -30 -22 -3 -3 -27 -23 -55 -45 -27 -22
-51 -43 -53 -47 -2 -5 -10 -8 -17 -8 -7 0 -27 -16 -44 -35 -17 -19 -34 -35
-39 -35 -4 0 -25 -19 -47 -42 -21 -24 -44 -43 -49 -43 -6 0 -15 -10 -21 -22
-5 -13 -14 -23 -18 -23 -5 0 -19 -12 -30 -27 -12 -14 -53 -63 -92 -107 -38
-45 -88 -106 -110 -136 -22 -30 -43 -56 -47 -58 -5 -2 -8 -8 -8 -14 0 -5 -25
-51 -55 -101 -30 -50 -55 -94 -55 -99 0 -9 -26 -71 -56 -132 -8 -16 -14 -37
-14 -48 0 -10 -4 -26 -9 -36 -34 -67 -43 -314 -15 -412 9 -30 18 -68 21 -85 3
-16 13 -38 22 -49 9 -10 15 -21 15 -25 -3 -16 38 -111 48 -111 4 0 8 -6 8 -14
0 -7 7 -19 15 -26 9 -7 13 -15 11 -18 -3 -2 20 -37 51 -78 57 -77 70 -83 120
-63 38 15 217 103 223 109 3 3 17 11 33 19 15 8 27 18 27 23 0 4 7 8 15 8 19
0 207 181 255 245 45 61 120 201 113 209 -4 3 1 14 9 23 9 10 19 34 23 53 4
19 11 41 15 50 8 14 17 59 40 184 13 74 13 339 0 386 -5 19 -12 60 -15 90 -3
30 -10 75 -15 100 -5 25 -16 78 -24 117 -7 40 -19 80 -26 88 -7 9 -10 18 -7
22 4 3 2 12 -4 20 -7 7 -13 21 -14 31 -1 9 -4 24 -7 32 -3 8 -16 47 -28 85
-13 39 -26 73 -29 77 -3 3 -17 -1 -31 -10z"/>
<path d="M6062 12583 c16 -60 37 -126 47 -148 10 -22 36 -83 56 -135 34 -84
59 -135 75 -150 3 -3 25 -44 49 -92 24 -49 48 -88 53 -88 4 0 8 -6 8 -14 0
-51 349 -416 398 -416 6 0 17 -6 24 -13 21 -20 134 -77 154 -77 9 0 25 -6 33
-13 44 -37 211 -65 371 -62 118 2 187 11 288 38 66 18 67 21 78 167 11 143
-42 360 -117 483 -34 55 -151 199 -191 232 -46 40 -126 95 -137 95 -6 0 -11 4
-11 9 0 10 -241 131 -261 131 -8 0 -26 6 -41 14 -14 8 -45 17 -67 21 -23 4
-43 11 -47 16 -3 5 -10 7 -15 3 -5 -3 -16 -1 -23 5 -7 6 -29 13 -50 15 -20 3
-41 8 -46 11 -14 8 -99 24 -195 35 -44 5 -118 14 -165 19 -47 6 -133 13 -191
16 l-106 5 29 -107z"/>
<path d="M4252 11645 c-16 -19 -3 -19 22 0 14 11 16 15 5 15 -8 -1 -20 -7 -27
-15z"/>
<path d="M4385 11636 c11 -8 27 -16 35 -16 20 0 1 16 -30 25 -24 7 -24 7 -5
-9z"/>
<path d="M4040 11520 c0 -5 5 -10 11 -10 5 0 7 5 4 10 -3 6 -8 10 -11 10 -2 0
-4 -4 -4 -10z"/>
<path d="M4070 11490 c0 -5 6 -10 14 -10 8 0 18 5 21 10 3 6 -3 10 -14 10 -12
0 -21 -4 -21 -10z"/>
<path d="M4140 11445 c-9 -11 -8 -18 9 -36 l20 -21 -1 31 c-1 37 -11 46 -28
26z"/>
<path d="M4240 11425 c0 -8 4 -15 10 -15 5 0 7 7 4 15 -4 8 -8 15 -10 15 -2 0
-4 -7 -4 -15z"/>
<path d="M4308 11433 c-3 -4 1 -19 7 -31 7 -13 15 -20 17 -15 3 4 -1 19 -7 31
-7 13 -15 20 -17 15z"/>
<path d="M4195 11409 c-19 -7 -18 -8 4 -8 18 -1 21 -4 13 -14 -6 -7 -10 -22
-8 -32 3 -16 10 -19 37 -17 41 5 76 21 45 22 -11 0 -31 13 -45 29 -20 22 -31
26 -46 20z"/>
<path d="M4406 11405 c-3 -9 0 -15 9 -15 8 0 15 7 15 15 0 8 -4 15 -9 15 -5 0
-11 -7 -15 -15z"/>
<path d="M4450 11400 c0 -5 5 -10 10 -10 6 0 10 5 10 10 0 6 -4 10 -10 10 -5
0 -10 -4 -10 -10z"/>
<path d="M4341 11374 c-18 -21 -20 -28 -10 -35 12 -7 12 -9 0 -9 -8 0 -12 -3
-9 -6 15 -14 45 17 46 46 0 16 0 30 -2 30 -1 0 -13 -12 -25 -26z"/>
<path d="M4360 11301 c0 -5 5 -13 10 -16 6 -3 10 -2 10 4 0 5 -4 13 -10 16 -5
3 -10 2 -10 -4z"/>
<path d="M4045 11290 c-3 -5 -1 -10 4 -10 6 0 11 5 11 10 0 6 -2 10 -4 10 -3
0 -8 -4 -11 -10z"/>
<path d="M3970 11264 c0 -8 5 -12 10 -9 6 4 8 11 5 16 -9 14 -15 11 -15 -7z"/>
<path d="M4091 11244 c0 -11 3 -14 6 -6 3 7 2 16 -1 19 -3 4 -6 -2 -5 -13z"/>
<path d="M4010 11228 c0 -19 45 -46 57 -35 3 4 2 17 -4 29 -12 27 -53 32 -53
6z"/>
<path d="M4041 11124 c0 -11 3 -14 6 -6 3 7 2 16 -1 19 -3 4 -6 -2 -5 -13z"/>
<path d="M3990 11025 c0 -8 -5 -15 -12 -15 -6 0 -8 -3 -5 -7 9 -9 58 18 51 29
-9 14 -34 9 -34 -7z"/>
<path d="M3935 11000 c-3 -5 1 -10 9 -10 9 0 16 -5 16 -11 0 -6 -7 -9 -15 -5
-17 6 -21 -9 -4 -20 6 -3 18 1 26 9 14 14 14 17 0 31 -18 19 -24 20 -32 6z"/>
<path d="M4000 10969 c0 -5 5 -7 10 -4 6 3 10 8 10 11 0 2 -4 4 -10 4 -5 0
-10 -5 -10 -11z"/>
<path d="M7189 10215 c-10 -10 47 -208 83 -285 11 -25 24 -54 29 -65 148 -361
369 -672 629 -884 41 -34 87 -67 103 -74 15 -6 27 -15 27 -20 0 -4 10 -12 23
-17 12 -6 29 -14 37 -20 14 -9 73 -36 180 -82 25 -11 53 -23 62 -28 9 -5 56
-17 105 -25 48 -9 102 -21 118 -27 54 -19 321 -22 398 -4 38 9 83 16 100 16
18 0 64 9 102 20 39 11 83 23 98 26 18 4 32 16 39 33 14 36 2 282 -16 326 -8
19 -18 55 -21 80 -4 25 -11 48 -16 51 -5 3 -9 14 -9 25 0 10 -4 27 -9 37 -5 9
-28 58 -52 107 -24 50 -46 92 -49 95 -3 3 -23 31 -44 63 -39 58 -239 257 -258
257 -6 0 -18 8 -27 18 -33 37 -267 160 -371 195 -25 8 -66 24 -92 35 -25 11
-49 18 -52 15 -3 -3 -11 -1 -18 4 -26 20 -235 65 -388 84 -41 5 -107 14 -146
19 -96 15 -127 17 -359 25 -110 4 -203 4 -206 0z"/>
<path d="M7310 8071 c0 -5 5 -13 10 -16 6 -3 10 -2 10 4 0 5 -4 13 -10 16 -5
3 -10 2 -10 -4z"/>
<path d="M7368 8038 c5 -5 16 -8 23 -6 8 3 3 7 -10 11 -17 4 -21 3 -13 -5z"/>
<path d="M7410 8021 c0 -10 50 -25 58 -17 2 3 -7 10 -22 16 -33 12 -36 12 -36
1z"/>
<path d="M6255 2214 c-22 -31 -55 -68 -72 -81 l-33 -25 25 -29 c13 -16 28 -46
32 -67 4 -20 8 -158 8 -307 l0 -270 -97 -3 -98 -3 0 181 c0 99 -3 180 -7 180
-5 0 -23 -22 -42 -48 -19 -26 -52 -64 -75 -85 -38 -35 -39 -39 -23 -48 27 -16
47 -71 47 -129 l0 -50 -145 0 -145 0 0 180 c0 99 -4 180 -8 180 -5 0 -23 -21
-41 -47 -18 -27 -52 -65 -75 -86 -37 -35 -39 -39 -23 -48 27 -16 47 -71 47
-129 l0 -50 -135 0 -135 0 0 110 0 110 -102 0 c-84 0 -109 -4 -135 -20 -47
-28 -67 -66 -73 -135 l-5 -60 -97 -3 -98 -3 0 181 c0 99 -4 180 -8 180 -5 0
-23 -21 -41 -47 -18 -27 -52 -65 -75 -86 -37 -35 -39 -39 -23 -48 27 -16 47
-71 47 -129 l0 -50 -155 0 -155 0 -2 263 -3 262 -48 -67 c-27 -37 -62 -76 -78
-85 -29 -17 -38 -33 -19 -33 15 0 50 -61 50 -87 0 -21 -5 -23 -54 -23 -39 0
-62 -6 -87 -23 -55 -37 -69 -76 -69 -199 l0 -108 1285 0 1285 0 0 470 c0 259
-2 470 -4 470 -3 0 -25 -28 -51 -63 -25 -35 -60 -71 -76 -81 l-30 -18 25 -23
c40 -37 46 -82 46 -377 l0 -278 -100 0 -100 0 0 420 c0 231 -3 420 -7 420 -5
0 -26 -26 -48 -56z m-2031 -675 c15 -12 26 -30 26 -44 0 -24 -42 -65 -67 -65
-19 0 -63 45 -63 65 0 20 44 65 63 65 8 0 26 -9 41 -21z m914 4 c34 -29 33
-75 -3 -99 -61 -40 -128 43 -75 96 25 25 51 25 78 3z"/>
<path d="M8861 2210 c-23 -32 -55 -69 -72 -81 l-30 -21 20 -22 c37 -39 40 -69
41 -363 l1 -288 -53 -3 c-120 -8 -285 26 -388 78 -92 47 -193 177 -230 296
l-16 54 -38 -39 -37 -38 20 -57 c41 -118 126 -227 207 -266 24 -12 44 -24 44
-26 0 -2 -110 -4 -245 -4 l-245 0 -1 183 0 182 -32 -40 c-17 -22 -52 -61 -78
-86 l-46 -46 27 -30 c20 -22 29 -46 34 -87 4 -30 5 -60 1 -66 -4 -6 -63 -10
-151 -10 l-144 0 -1 183 0 182 -32 -40 c-18 -21 -53 -60 -79 -86 -45 -46 -46
-48 -28 -64 34 -30 45 -84 45 -210 0 -108 -3 -125 -27 -176 -31 -69 -88 -128
-151 -158 -26 -13 -47 -25 -47 -28 0 -13 120 6 156 25 78 40 145 136 160 230
l7 42 733 0 734 0 0 470 c0 259 -4 470 -9 470 -4 0 -27 -27 -50 -60z m-914
-852 c-2 -13 -4 -3 -4 22 0 25 2 35 4 23 2 -13 2 -33 0 -45z"/>
<path d="M9151 2210 c-23 -32 -55 -69 -72 -81 -30 -21 -30 -21 -11 -43 10 -11
23 -28 28 -36 5 -8 11 -172 14 -365 5 -337 6 -352 27 -392 47 -86 113 -108
225 -73 89 27 94 40 18 40 -72 0 -105 16 -140 68 l-25 36 -3 453 c-1 249 -6
453 -11 453 -4 0 -27 -27 -50 -60z"/>
<path d="M10951 2210 c-23 -32 -55 -69 -72 -81 l-30 -21 20 -22 c38 -41 41
-68 41 -417 l0 -339 1075 0 1075 0 0 93 c0 77 -4 98 -23 131 -45 79 -19 76
-669 76 l-578 0 -1 83 0 82 -27 -35 c-15 -19 -50 -58 -78 -86 l-51 -51 28 -31
c20 -22 29 -46 34 -85 4 -31 4 -60 0 -66 -4 -7 -58 -11 -151 -11 l-144 0 -1
183 0 182 -27 -35 c-15 -19 -50 -58 -78 -86 l-51 -51 27 -30 c20 -22 29 -46
34 -87 4 -30 5 -60 1 -66 -4 -6 -63 -10 -151 -10 l-144 0 0 420 c0 231 -4 420
-9 420 -4 0 -27 -27 -50 -60z m2003 -706 c22 -21 20 -40 -6 -58 -20 -14 -93
-16 -590 -16 l-568 0 0 45 0 45 574 0 c509 0 576 -2 590 -16z m-1847 -146 c-2
-13 -4 -3 -4 22 0 25 2 35 4 23 2 -13 2 -33 0 -45z"/>
<path d="M4205 2060 c-21 -23 -14 -65 14 -80 21 -11 71 2 71 19 0 5 3 16 6 24
7 19 -29 57 -54 57 -11 0 -27 -9 -37 -20z"/>
<path d="M13767 2062 c-24 -27 -21 -59 8 -78 23 -15 27 -15 50 0 46 30 26 96
-28 96 -8 0 -21 -8 -30 -18z"/>
<path d="M4076 2008 c-20 -28 -20 -43 0 -62 25 -25 72 -20 86 9 25 55 -52 103
-86 53z"/>
<path d="M5489 2009 c-26 -26 -21 -57 12 -81 52 -39 111 22 75 77 -20 31 -58
33 -87 4z"/>
<path d="M11267 2012 c-36 -39 -13 -94 38 -94 34 0 55 19 55 53 0 53 -59 79
-93 41z"/>
<path d="M13635 2010 c-27 -29 -10 -74 28 -78 37 -4 57 13 57 49 0 47 -53 65
-85 29z"/>
<path d="M8309 1946 c-30 -14 -38 -66 -14 -90 36 -36 95 -9 95 43 0 44 -41 67
-81 47z"/>
<path d="M5950 1930 c-11 -11 -20 -27 -20 -35 0 -19 36 -55 55 -55 19 0 55 36
55 55 0 19 -36 55 -55 55 -8 0 -24 -9 -35 -20z"/>
<path d="M13851 1895 c-42 -58 -54 -71 -96 -101 -19 -14 -19 -15 -2 -25 19
-11 47 -67 47 -94 0 -11 -12 -15 -52 -15 -63 0 -109 -24 -138 -72 -17 -28 -20
-51 -20 -145 l0 -113 1040 0 1040 0 0 230 c0 127 -2 230 -4 230 -2 0 -24 -27
-49 -61 -25 -33 -60 -71 -77 -84 l-31 -23 21 -15 c27 -19 49 -79 50 -134 l0
-43 -75 0 -75 0 -1 168 0 167 -32 -40 c-18 -21 -54 -61 -81 -88 -41 -42 -46
-51 -32 -59 23 -13 44 -57 47 -103 l4 -40 -75 0 -75 0 -5 149 -5 148 -47 -65
c-25 -36 -60 -73 -77 -83 l-30 -18 30 -25 c22 -19 32 -37 36 -69 l6 -43 -149
3 -149 3 -5 180 -5 179 -47 -63 c-25 -34 -61 -73 -78 -86 l-31 -23 21 -15 c27
-19 49 -79 50 -134 l0 -43 -75 0 -75 0 -1 168 0 167 -32 -40 c-18 -21 -54 -61
-81 -88 -41 -42 -46 -51 -32 -59 23 -13 44 -57 47 -103 l4 -40 -75 0 -75 0 -5
148 -5 149 -48 -66 c-27 -36 -61 -73 -77 -83 l-29 -17 30 -25 c22 -19 32 -38
36 -68 l6 -43 -157 0 -156 0 -2 263 -3 262 -44 -60z m-66 -360 c14 -13 25 -31
25 -40 0 -20 -44 -65 -63 -65 -26 0 -67 41 -67 65 0 28 36 65 62 65 11 0 30
-11 43 -25z"/>
<path d="M15986 1939 c-53 -13 -115 -49 -122 -72 -4 -13 3 -28 23 -49 l28 -30
-24 -19 c-13 -10 -29 -19 -36 -19 -7 0 -19 -7 -26 -17 -13 -15 -9 -16 51 -11
68 6 127 29 137 53 3 8 -7 29 -21 46 -34 40 -30 59 13 81 42 21 61 49 34 47
-10 -1 -35 -5 -57 -10z"/>
<path d="M5820 1880 c-11 -11 -20 -27 -20 -35 0 -19 36 -55 55 -55 19 0 55 36
55 55 0 19 -36 55 -55 55 -8 0 -24 -9 -35 -20z"/>
<path d="M10291 1779 c-170 -33 -249 -203 -168 -359 15 -29 27 -53 27 -55 0
-1 -14 -8 -30 -15 -50 -21 -118 -105 -136 -168 -43 -148 24 -295 165 -361 51
-24 67 -26 176 -26 86 1 141 6 195 20 l75 20 -135 6 c-181 8 -271 39 -343 118
-81 90 -71 203 24 285 75 64 132 79 315 84 l162 4 47 48 47 48 -189 4 c-208 5
-252 16 -298 70 -19 23 -25 41 -25 80 0 46 4 54 43 93 45 45 125 77 227 91 27
4 50 10 50 15 0 11 -170 10 -229 -2z"/>
<path d="M15921 1647 c-13 -6 -38 -29 -54 -50 -38 -46 -49 -135 -24 -183 30
-57 61 -77 134 -83 l68 -6 -3 -33 c-6 -79 -83 -173 -188 -230 l-59 -31 51 -1
c150 -1 258 89 289 240 l12 55 256 3 257 2 0 160 0 160 -102 0 c-84 0 -109 -4
-135 -20 -47 -28 -67 -66 -73 -135 l-5 -60 -100 0 -100 0 -6 66 c-6 73 -31
119 -79 144 -35 18 -106 19 -139 2z m105 -112 c20 -20 25 -34 22 -63 -3 -35
-5 -37 -39 -40 -43 -4 -89 28 -89 63 0 24 42 65 67 65 8 0 25 -11 39 -25z
m519 0 c14 -13 25 -31 25 -40 0 -20 -44 -65 -63 -65 -25 0 -67 41 -67 65 0 24
42 65 67 65 8 0 25 -11 38 -25z"/>
<path d="M4732 1214 c-27 -18 -29 -55 -4 -77 35 -32 82 -10 82 38 0 20 -32 55
-50 55 -3 0 -16 -7 -28 -16z"/>
<path d="M7820 1210 c-11 -11 -20 -27 -20 -35 0 -19 36 -55 55 -55 19 0 55 36
55 55 0 19 -36 55 -55 55 -8 0 -24 -9 -35 -20z"/>
<path d="M4597 1162 c-34 -37 -15 -82 33 -82 34 0 50 17 50 52 0 45 -53 64
-83 30z"/>
<path d="M7684 1155 c-15 -23 -15 -27 0 -51 24 -36 76 -31 90 8 20 57 -57 93
-90 43z"/>
</g>
</svg>
