<svg xmlns="http://www.w3.org/2000/svg" xmlns:xlink="http://www.w3.org/1999/xlink" id="w.oncep._1_" x="0px" y="0px" viewBox="0 0 42 42" style="enable-background:new 0 0 42 42;" xml:space="preserve">
<style type="text/css">
	.st0{fill-rule:evenodd;clip-rule:evenodd;fill:#127a0d;}
	.st1{fill-rule:evenodd;clip-rule:evenodd;}
</style>
<path class="st0" d="M20.5,1.6C26.9,1.6,32,6.8,32,13.1c0,6.4-11,17.5-11,17.5S10,20,10,13.6C10,7.3,14.1,1.6,20.5,1.6z"></path>
<g>
	<g>
		<path class="st1" d="M21,5.2c-4,0-7.2,3.2-7.2,7.2c0,4,3.2,7.2,7.2,7.2c4,0,7.2-3.2,7.2-7.2C28.2,8.5,25,5.2,21,5.2z M21,17.1    c-2.5,0-4.6-2.1-4.6-4.6c0-2.5,2.1-4.6,4.6-4.6c2.5,0,4.6,2.1,4.6,4.6C25.6,15,23.5,17.1,21,17.1z M41.9,40.3l-5.3-16.4    c-0.1-0.4-0.5-0.8-0.9-0.9l-5.3-1.3c1.7-2.9,3.1-6.1,3.1-9.2C33.5,5.6,27.9,0,21,0C14.1,0,8.5,5.6,8.5,12.5c0,3.1,1.3,6.3,3.1,9.2    L6.2,23c-0.4,0.1-0.8,0.4-0.9,0.9L0.1,40.3c-0.1,0.5,0,1,0.3,1.3c0.3,0.3,0.8,0.5,1.3,0.4l10.2-2.5l8.8,2.5c0.2,0.1,0.5,0.1,0.7,0    l8.8-2.5L40.4,42c0.1,0,0.2,0,0.3,0c0.4,0,0.7-0.1,1-0.4C42,41.2,42.1,40.7,41.9,40.3z M10.7,37l-7.4,1.8l4.3-13.5l5.2-1.3    L10.7,37z M19.7,38.9l-6.4-1.8l1.8-10.6c2,2.4,3.8,4.1,4.6,4.9V38.9z M21,29c-2.6-2.5-9.8-10.1-9.8-16.6c0-5.4,4.4-9.8,9.8-9.8    c5.4,0,9.8,4.4,9.8,9.8C30.8,19,23.6,26.6,21,29z M22.3,38.9v-7.5c0.8-0.8,2.7-2.5,4.6-4.9l1.8,10.6L22.3,38.9z M31.3,37    l-2.2-12.9l5.2,1.3l4.3,13.5L31.3,37z"></path>
	</g>
</g>
</svg>