<svg xmlns="http://www.w3.org/2000/svg" xmlns:xlink="http://www.w3.org/1999/xlink" x="0px" y="0px" viewBox="0 0 38 42" style="enable-background:new 0 0 38 42;" xml:space="preserve">
<style type="text/css">
	.st0{enable-background:new    ;}
	.st1{fill:#127a0d;}
</style>
<g id="Rectangle_496_1_" class="st0">
	<g id="Rectangle_496">
		<g>
			<rect x="14" y="14" class="st1" width="23" height="15"></rect>
		</g>
	</g>
</g>
<g id="Shape_116_1_" class="st0">
	<g id="Shape_116">
		<g>
			<path d="M36.7,12H26.5V3.9c0-2.2-1.8-3.9-4-3.9H4C1.8,0,0,1.8,0,3.9v34.1C0,40.2,1.8,42,4,42h18.5c2.2,0,4-1.8,4-3.9v-7.7h10.2     c0.7,0,1.3-0.6,1.3-1.3V13.4C38,12.6,37.4,12,36.7,12z M32.8,14.7l-7.7,5.9l-7.6-5.9H32.8z M9.3,2.6h7.8v0.7H9.3V2.6z M23.8,38.1     c0,0.7-0.6,1.3-1.3,1.3H4c-0.7,0-1.3-0.6-1.3-1.3V3.9c0-0.7,0.6-1.3,1.3-1.3h2.7v2c0,0.7,0.6,1.3,1.3,1.3h10.5     c0.7,0,1.3-0.6,1.3-1.3v-2h2.7c0.7,0,1.3,0.6,1.3,1.3V12H13.7c-0.7,0-1.3,0.6-1.3,1.3V29c0,0.7,0.6,1.3,1.3,1.3h10.1V38.1z      M35.3,26.3l-5.2-4.2c-0.5-0.5-1.4-0.4-1.9,0.1c-0.5,0.5-0.4,1.4,0.1,1.9c0,0,0.1,0.1,0.1,0.1l4.5,3.6H17.6l4.7-3.6     c0.6-0.4,0.7-1.3,0.2-1.8c-0.4-0.6-1.3-0.7-1.9-0.2L15,26.4V16.1l9.3,7.2c0.2,0.2,0.5,0.3,0.8,0.3c0.3,0,0.6-0.1,0.8-0.3l9.4-7.2     V26.3z"></path>
		</g>
	</g>
</g>
</svg>