<svg xmlns="http://www.w3.org/2000/svg" xmlns:xlink="http://www.w3.org/1999/xlink" id="Layer_1" x="0px" y="0px" viewBox="0 0 496 496" style="enable-background:new 0 0 496 496;" xml:space="preserve">
<style type="text/css">
	.st0{fill:#127a0d;}
	.st1{fill:#FFFFFF;}
</style>
<g>
	<path d="M224,391.8c0,14.3-4.2,28.1-12.1,39.9L192,461.6V496h16v-29.6l17.2-25.8c9.7-14.5,14.8-31.4,14.8-48.8V352h-16V391.8z"></path>
	<rect x="128" y="264" width="16" height="32"></rect>
	<path d="M79.2,346.7l-11.7-70.3c-1.9-11.5-9.5-20.7-19.5-25.3V192c0-8.8,7.2-16,16-16s16,7.2,16,16v104h16V192v-16   c0-8.8,7.2-16,16-16s16,7.2,16,16h16c0-17.6-14.4-32-32-32c-14,0-25.7,9-30.1,21.5C76.8,162,70.6,160,64,160c-17.6,0-32,14.4-32,32   v56.2c-17.8,1-32,15.7-32,33.8v61.9c0,6.7,1.7,13.3,4.9,19.2L48,442v54h16v-58l-45.1-82.6c-1.9-3.5-2.9-7.5-2.9-11.5V282   c0-9.9,8.1-18,18-18c8.8,0,16.3,6.3,17.7,15l13.1,78.3l48.9,24.5l14.9,37.2l14.9-5.9l-17.1-42.8L79.2,346.7z"></path>
	<path d="M272,112.2c0-14.3,4.2-28.1,12.1-39.9L304,42.4V0h-16v37.6l-17.2,25.8c-9.7,14.5-14.8,31.4-14.8,48.8V168h16V112.2z"></path>
	<path d="M491.1,141L448,62V0h-16v66l45.1,82.6c1.9,3.5,2.9,7.5,2.9,11.5V222c0,9.9-8.1,18-18,18c-8.8,0-16.3-6.3-17.7-15   l-13.1-78.3l-48.9-24.5L367.4,85L352.6,91l17.1,42.8l47.1,23.5l11.7,70.3c1.9,11.5,9.5,20.7,19.5,25.3V312c0,8.8-7.2,16-16,16   s-16-7.2-16-16V208h-16v104v16c0,8.8-7.2,16-16,16s-16-7.2-16-16v-16v-48h-16v48c0,8.8-7.2,16-16,16s-16-7.2-16-16h-16   c0,17.6,14.4,32,32,32c6.6,0,12.8-2,17.9-5.5C358.3,351,370,360,384,360s25.7-9,30.1-21.5c5.1,3.5,11.3,5.5,17.9,5.5   c17.6,0,32-14.4,32-32v-56.2c17.8-1,32-15.7,32-33.8v-61.9C496,153.5,494.3,146.9,491.1,141z"></path>
</g>
<path class="st0" d="M248,360c-17.6,0-34.2-6.9-46.6-19.3l-67.2-67.2c-14.3-14.3-22.2-33.4-22.2-53.7c0-41.8,34-75.9,75.9-75.9  c20.3,0,39.3,7.9,53.7,22.2l6.5,6.5l6.5-6.5c14.3-14.3,33.4-22.2,53.7-22.2c41.8,0,75.9,34,75.9,75.9c0,20.3-7.9,39.3-22.2,53.7  l-67.2,67.2C282.2,353.1,265.6,360,248,360z"></path>
<g>
	<path class="st1" d="M213.1,284.5l-44.9-44.9c-5.3-5.3-8.2-12.3-8.2-19.7c0-15.4,12.5-27.9,27.9-27.9v-16   c-24.2,0-43.9,19.7-43.9,43.9c0,11.7,4.6,22.7,12.8,31l44.9,44.9L213.1,284.5z"></path>
	
		<rect x="216" y="298.7" transform="matrix(0.7071 -0.7071 0.7071 0.7071 -151.3105 248.2475)" class="st1" width="16" height="16.1"></rect>
	<rect x="208" y="80" width="16" height="16"></rect>
	<rect x="208" y="112" width="16" height="16"></rect>
	<rect x="224" y="96" width="16" height="16"></rect>
	<rect x="192" y="96" width="16" height="16"></rect>
	<rect x="272" y="376" width="16" height="16"></rect>
	<rect x="272" y="408" width="16" height="16"></rect>
	<rect x="288" y="392" width="16" height="16"></rect>
	<rect x="256" y="392" width="16" height="16"></rect>
	<rect x="296" y="192" class="st1" width="16" height="16"></rect>
	<rect x="296" y="224" class="st1" width="16" height="16"></rect>
	<rect x="312" y="208" class="st1" width="16" height="16"></rect>
	<rect x="280" y="208" class="st1" width="16" height="16"></rect>
</g>
</svg>